0
SECTION
2
HEADER
9
$INSUNITS
70
4
9
$ACADVER
1
AC1014
9
$HANDSEED
5
FFFF
0
ENDSEC
0
SECTION
2
TABLES
0
TABLE
2
VPORT
5
8
100
AcDbSymbolTable
0
ENDTAB
0
TABLE
2
LTYPE
5
5
100
AcDbSymbolTable
0
LTYPE
5
14
100
AcDbSymbolTableRecord
100
AcDbLinetypeTableRecord
2
BYBLOCK
70
0
0
LTYPE
5
15
100
AcDbSymbolTableRecord
100
AcDbLinetypeTableRecord
2
BYLAYER
70
0
0
LTYPE
5
16
100
AcDbSymbolTableRecord
100
AcDbLinetypeTableRecord
2
DASHED
70
0
3
Dashed __ __ __ __ __ __ __ __ __ __ __ __ __ _
72
65
73
2
40
0.75
49
0.5
74
0
49
-0.25
74
0
0
ENDTAB
0
TABLE
2
LAYER
5
2
100
AcDbSymbolTable
70
3
0
LAYER
5
50
100
AcDbSymbolTableRecord
100
AcDbLayerTableRecord
2
1
70
0
62
7
6
DASHED
0
LAYER
5
51
100
AcDbSymbolTableRecord
100
AcDbLayerTableRecord
2
0
70
0
62
7
6
CONTINUOUS
0
ENDTAB
0
TABLE
2
STYLE
5
3
100
AcDbSymbolTable
70
1
0
STYLE
5
11
100
AcDbSymbolTableRecord
100
AcDbTextStyleTableRecord
2
STANDARD
70
0
0
ENDTAB
0
TABLE
2
VIEW
5
6
100
AcDbSymbolTable
70
0
0
ENDTAB
0
TABLE
2
UCS
5
7
100
AcDbSymbolTable
70
0
0
ENDTAB
0
TABLE
2
APPID
5
9
100
AcDbSymbolTable
70
2
0
APPID
5
12
100
AcDbSymbolTableRecord
100
AcDbRegAppTableRecord
2
ACAD
70
0
0
ENDTAB
0
TABLE
2
DIMSTYLE
5
A
100
AcDbSymbolTable
70
1
0
ENDTAB
0
TABLE
2
BLOCK_RECORD
5
1
100
AcDbSymbolTable
70
1
0
BLOCK_RECORD
5
1F
100
AcDbSymbolTableRecord
100
AcDbBlockTableRecord
2
*MODEL_SPACE
0
BLOCK_RECORD
5
1B
100
AcDbSymbolTableRecord
100
AcDbBlockTableRecord
2
*PAPER_SPACE
0
ENDTAB
0
ENDSEC
0
SECTION
2
BLOCKS
0
BLOCK
5
20
100
AcDbEntity
100
AcDbBlockBegin
2
*MODEL_SPACE
0
ENDBLK
5
21
100
AcDbEntity
100
AcDbBlockEnd
0
BLOCK
5
1C
100
AcDbEntity
100
AcDbBlockBegin
2
*PAPER_SPACE
0
ENDBLK
5
1D
100
AcDbEntity
100
AcDbBlockEnd
0
ENDSEC
0
SECTION
2
ENTITIES
0
LWPOLYLINE
5
100
100
AcDbEntity
8
0
100
AcDbPolyline
90
32
70
1
43
0.0
10
-911.60569792027002
20
-12.522891120445898
10
-913.26401031544776
20
-10.864578725268217
10
-1167.6056979202701
20
-10.864578725268217
42
0.41421356237309209
10
-1191.6056979202701
20
-34.864578725268281
10
-1191.6056979202701
20
-366.86457872526819
42
0.41421356237309337
10
-1167.6056979202701
20
-390.86457872526807
10
-1051.7056402644446
20
-390.86457872526819
10
-1051.7056402644444
20
-383.18825647944203
42
-0.99999999999999989
10
-1047.6521140060829
20
-378.76457872526805
10
-1025.6566562875159
20
-378.76457869434091
42
-0.9999999925494194
10
-1021.5056402644444
20
-383.09690670318344
10
-1021.5056402644448
20
-390.86457872526819
10
-946.70564026444481
20
-390.86457872526819
10
-946.70564029776199
20
-383.23636448984303
42
-0.9999999925494194
10
-942.70524880745211
20
-378.76457872526805
10
-913.41522611328162
20
-378.76457872526805
10
-911.75691371810376
20
-377.10626633009036
10
-910.09860132292602
20
-378.76457872526817
10
-880.80438750353653
20
-378.76457872526828
42
-0.99999999999999989
10
-876.50575557609545
20
-382.95047929173933
10
-876.50575557609557
20
-390.86457872526819
10
-801.70575557609573
20
-390.86457872526819
10
-801.70575557609527
20
-383.30498141283948
42
-0.99999999999999989
10
-797.78341655011945
20
-378.76457872526805
10
-775.67018063123373
20
-378.76457872526839
42
-0.99999999999999989
10
-771.50575557609545
20
-383.08401896216662
10
-771.50575557609568
20
-390.86457872526819
10
-655.6056979202699
20
-390.86457872526819
42
0.41421356237309936
10
-631.60569792027002
20
-366.86457872526825
10
-631.60569792027013
20
-34.864578725268203
42
0.41421356237309559
10
-655.60569792027013
20
-10.864578725268172
10
-909.94738552509239
20
-10.864578725268217
0
LWPOLYLINE
5
101
100
AcDbEntity
8
0
100
AcDbPolyline
90
8
70
1
43
0.0
10
-1001.6614012432866
20
-83.094554448324317
42
0.99999999999999989
10
-1005.5706402644445
20
-87.646240979211058
10
-1005.5706402644446
20
-124.24650202616715
42
0.9999999925494194
10
-1001.141952920833
20
-128.29455444832419
10
-997.6240609655581
20
-128.29455444832422
42
0.9999999925494194
10
-993.37064026444455
20
-124.06272123571554
10
-993.37064026444455
20
-87.291843527284755
42
0.99999999999999989
10
-997.65815287522946
20
-83.094554448324374
0
LWPOLYLINE
5
102
100
AcDbEntity
8
0
100
AcDbPolyline
90
9
70
1
43
0.0
10
-942.56671788735935
20
-71.094554448324487
42
0.9999999925494194
10
-946.70564026444436
20
-75.438437682996451
10
-946.70564026444436
20
-79.220244154812406
42
0.99999999999999989
10
-942.30109765116617
20
-83.294554448324192
10
-880.97756893481744
20
-83.294554448324249
42
0.99999999999999989
10
-876.50575557609568
20
-79.294193803987554
10
-876.50575557609591
20
-72.594554448324189
42
0.13505919836699087
10
-875.73843089819081
20
-72.383434907745979
42
0.56845870905994067
10
-880.73024345278225
20
-71.094554448324487
0
LWPOLYLINE
5
103
100
AcDbEntity
8
0
100
AcDbPolyline
90
8
70
1
43
0.0
10
-817.64075557609556
20
-87.682203057855034
42
0.9999999925494194
10
-821.50772858291521
20
-83.094554448324388
10
-825.90926853598148
20
-83.094554448324317
42
0.99999999999999989
10
-829.8407555760956
20
-87.627038276581715
10
-829.8407555760956
20
-123.71365382120963
42
1.0000000074505806
10
-825.96579113180701
20
-128.29455444832419
10
-821.82414147347458
20
-128.29455444832408
42
0.99999999999999989
10
-817.64075557609556
20
-123.99347523101014
0
LWPOLYLINE
5
104
100
AcDbEntity
8
0
100
AcDbPolyline
90
8
70
1
43
0.0
10
-1005.5706402644445
20
-248.97718090873906
42
0.99999999999999989
10
-1001.4040726459258
20
-253.29455444832416
10
-997.53876151768168
20
-253.29455444832419
42
0.99999999999999989
10
-993.37064026444455
20
-248.97868081505905
10
-993.37064026444455
20
-212.51976931901635
42
0.9999999925494194
10
-997.42248840426998
20
-208.09455444832437
10
-1001.8561844352338
20
-208.09455444832426
42
0.99999999999999989
10
-1005.5706402644445
20
-212.80654106681581
0
LWPOLYLINE
5
105
100
AcDbEntity
8
0
100
AcDbPolyline
90
8
70
1
43
0.0
10
-993.37064026444455
20
-338.16165197247426
42
0.99999999999999989
10
-997.45301051452032
20
-333.76457872526828
10
-1001.6824205906378
20
-333.76457872526817
42
0.99999999999999989
10
-1005.5706402644445
20
-338.33423382912667
10
-1005.5706402644445
20
-374.70512249775624
42
0.99999999999999989
10
-1001.3448820311914
20
-378.96457872526855
10
-997.45677653497398
20
-378.96457872526844
42
0.99999999999999989
10
-993.37064026444455
20
-374.57100496593955
0
LWPOLYLINE
5
106
100
AcDbEntity
8
0
100
AcDbPolyline
90
8
70
1
43
0.0
10
-817.64075557609556
20
-338.14348766567639
42
0.99999999999999989
10
-821.74260351228395
20
-333.76457872526822
10
-825.80865551309148
20
-333.76457872526822
42
0.99999999999999989
10
-829.84075557609549
20
-338.20779479945611
10
-829.8407555760956
20
-374.74625890126947
42
0.99999999999999989
10
-825.57393265236715
20
-378.96457872526855
10
-822.18038378138408
20
-378.96457872526867
42
0.99999999999999989
10
-817.64075557609556
20
-375.04134335662843
0
LWPOLYLINE
5
107
100
AcDbEntity
8
0
100
AcDbPolyline
90
8
70
1
43
0.0
10
-821.73441765892653
20
-253.29455444832422
42
0.9999999925494194
10
-817.64075557609567
20
-248.9079919272159
10
-817.64075557609556
20
-212.6196080095487
42
0.99999999999999989
10
-821.58079241197038
20
-208.09455444832437
10
-825.84852952971551
20
-208.09455444832435
42
0.99999999999999989
10
-829.8407555760956
20
-212.57363149550756
10
-829.8407555760956
20
-248.82833585258371
42
0.9999999925494194
10
-825.83414959907952
20
-253.29455444832419
0
CIRCLE
5
108
100
AcDbEntity
8
0
100
AcDbCircle
10
-1126.177241982243
20
-267.04066336234757
30
0
40
1.4999999999999858
210
-1.9259299443872359e-34
220
8.3394268759021733e-70
230
1
0
CIRCLE
5
109
100
AcDbEntity
8
0
100
AcDbCircle
10
-1092.7640385466466
20
-267.04066336234757
30
0
40
1.4999999999999858
210
-1.9259299443872359e-34
220
8.3394268759021733e-70
230
1
0
CIRCLE
5
110
100
AcDbEntity
8
0
100
AcDbCircle
10
-982.60564026444456
20
-77.19455444832434
30
0
40
1.4999999999999858
210
0
220
0
230
1
0
CIRCLE
5
111
100
AcDbEntity
8
0
100
AcDbCircle
10
-999.47064026444468
20
-322.86457872526807
30
0
40
1.4999999999999858
210
0
220
0
230
1
0
CIRCLE
5
112
100
AcDbEntity
8
0
100
AcDbCircle
10
-970.60564026444467
20
-384.86457872526796
30
0
40
1.4999999999999858
210
0
220
0
230
1
0
CIRCLE
5
113
100
AcDbEntity
8
0
100
AcDbCircle
10
-999.47064026444468
20
-265.1945544483242
30
0
40
1.4999999999999858
210
0
220
0
230
1
0
CIRCLE
5
114
100
AcDbEntity
8
0
100
AcDbCircle
10
-1165.4706402644449
20
-109.88469305339819
30
0
40
1.4999999999999858
210
0
220
0
230
1
0
CIRCLE
5
115
100
AcDbEntity
8
0
100
AcDbCircle
10
-1053.4706402644449
20
-109.88469305339819
30
0
40
1.4999999999999858
210
0
220
0
230
1
0
CIRCLE
5
116
100
AcDbEntity
8
0
100
AcDbCircle
10
-999.47064026444468
20
-139.19455444832423
30
0
40
1.4999999999999858
210
0
220
0
230
1
0
CIRCLE
5
117
100
AcDbEntity
8
0
100
AcDbCircle
10
-1061.6056402644447
20
-384.86457872526796
30
0
40
1.4999999999999858
210
0
220
0
230
1
0
CIRCLE
5
118
100
AcDbEntity
8
0
100
AcDbCircle
10
-1013.6056402644448
20
-384.86457872526796
30
0
40
1.4999999999999858
210
0
220
0
230
1
0
CIRCLE
5
119
100
AcDbEntity
8
0
100
AcDbCircle
10
-999.47064026444468
20
-196.19455444832411
30
0
40
1.4999999999999858
210
0
220
0
230
1
0
CIRCLE
5
120
100
AcDbEntity
8
0
100
AcDbCircle
10
-823.74075557609569
20
-196.19455444832411
30
0
40
1.4999999999999858
210
-0
220
0
230
1
0
CIRCLE
5
121
100
AcDbEntity
8
0
100
AcDbCircle
10
-809.60575557609559
20
-384.86457872526796
30
0
40
1.4999999999999858
210
-0
220
0
230
1
0
CIRCLE
5
122
100
AcDbEntity
8
0
100
AcDbCircle
10
-761.60575557609582
20
-384.86457872526796
30
0
40
1.4999999999999858
210
-0
220
0
230
1
0
CIRCLE
5
123
100
AcDbEntity
8
0
100
AcDbCircle
10
-823.74075557609569
20
-139.19455444832423
30
0
40
1.4999999999999858
210
-0
220
0
230
1
0
CIRCLE
5
124
100
AcDbEntity
8
0
100
AcDbCircle
10
-769.74075557609558
20
-109.88469305339819
30
0
40
1.4999999999999858
210
-0
220
0
230
1
0
CIRCLE
5
125
100
AcDbEntity
8
0
100
AcDbCircle
10
-657.74075557609558
20
-109.88469305339819
30
0
40
1.4999999999999858
210
-0
220
0
230
1
0
CIRCLE
5
126
100
AcDbEntity
8
0
100
AcDbCircle
10
-823.74075557609569
20
-265.1945544483242
30
0
40
1.4999999999999858
210
-0
220
0
230
1
0
CIRCLE
5
127
100
AcDbEntity
8
0
100
AcDbCircle
10
-852.6057555760957
20
-384.86457872526796
30
0
40
1.4999999999999858
210
-0
220
0
230
1
0
CIRCLE
5
128
100
AcDbEntity
8
0
100
AcDbCircle
10
-823.74075557609569
20
-322.86457872526807
30
0
40
1.4999999999999858
210
-0
220
0
230
1
0
CIRCLE
5
129
100
AcDbEntity
8
0
100
AcDbCircle
10
-840.60575557609582
20
-77.19455444832434
30
0
40
1.4999999999999858
210
-0
220
0
230
1
0
CIRCLE
5
130
100
AcDbEntity
8
0
100
AcDbCircle
10
-730.4473572938939
20
-267.04066336234757
30
0
40
1.4999999999999858
210
1.9259299443872359e-34
220
2.1382117680737565e-50
230
1
0
CIRCLE
5
131
100
AcDbEntity
8
0
100
AcDbCircle
10
-697.03415385829749
20
-267.04066336234757
30
0
40
1.4999999999999858
210
1.9259299443872359e-34
220
2.1382117680737565e-50
230
1
0
LWPOLYLINE
5
132
100
AcDbEntity
8
0
100
AcDbPolyline
90
8
70
1
43
0.0
10
-1111.3598223431575
20
-215.01568795037329
10
-1107.5069957264209
20
-215.01568795037358
42
-0.99999999999999989
10
-1103.3684714040273
20
-219.35995042321665
10
-1103.3684714040273
20
-251.90947058899141
42
-0.99999999999999989
10
-1107.3040037712583
20
-256.43844232510037
10
-1111.7656588624354
20
-256.43844232510116
42
-0.99999999999999989
10
-1115.5684714040272
20
-251.79747079173538
10
-1115.5684714040272
20
-219.29205008219029
42
-0.99999999999999989
0
CIRCLE
5
133
100
AcDbEntity
8
0
100
AcDbCircle
10
-1109.4684714040272
20
-209.01568795037335
30
0
40
1.5000000000000568
210
0
220
0
230
1
0
CIRCLE
5
134
100
AcDbEntity
8
0
100
AcDbCircle
10
-1109.4684714040272
20
-262.43844232510082
30
0
40
1.5000000000000568
210
0
220
0
230
1
0
LWPOLYLINE
5
135
100
AcDbEntity
8
0
100
AcDbPolyline
90
8
70
1
43
0.0
10
-711.44573697810506
20
-256.43844232510116
10
-715.90739206928208
20
-256.43844232510037
42
-0.99999999999999989
10
-719.84292443651316
20
-251.90947058899141
10
-719.84292443651316
20
-219.35995042321665
42
-0.99999999999999989
10
-715.70440011411949
20
-215.01568795037358
10
-711.8515734973829
20
-215.01568795037329
42
-0.99999999999999989
10
-707.64292443651334
20
-219.29205008219029
10
-707.64292443651334
20
-251.79747079173538
42
-0.99999999999999989
0
CIRCLE
5
136
100
AcDbEntity
8
0
100
AcDbCircle
10
-713.74292443651314
20
-209.01568795037335
30
0
40
1.5000000000000568
210
-1.9259299443872352e-34
220
3.8518598887744717e-34
230
1
0
CIRCLE
5
137
100
AcDbEntity
8
0
100
AcDbCircle
10
-713.74292443651314
20
-262.43844232510082
30
0
40
1.5000000000000568
210
-1.9259299443872352e-34
220
3.8518598887744717e-34
230
1
0
LINE
5
138
100
AcDbEntity
8
1
100
AcDbLine
10
-830.2584905245044
20
-325.00000000000006
30
0
11
-993.11331604306474
21
-324.99999999999994
31
0
0
LINE
5
139
100
AcDbEntity
8
1
100
AcDbLine
10
-993.11331604306474
20
-324.99999999999994
30
0
11
-993.11331604306474
21
-372.76457872526805
31
0
0
LINE
5
140
100
AcDbEntity
8
1
100
AcDbLine
10
-993.11331604306474
20
-372.76457872526805
30
0
11
-830.2584905245044
21
-372.76457872526805
31
0
0
LINE
5
141
100
AcDbEntity
8
1
100
AcDbLine
10
-830.2584905245044
20
-372.76457872526805
30
0
11
-830.2584905245044
21
-325.00000000000006
31
0
0
LINE
5
142
100
AcDbEntity
8
0
100
AcDbLine
10
-942.70524880745211
20
-378.76457872526805
30
0
11
-880.80438750353653
21
-378.76457872526817
31
0
0
LINE
5
143
100
AcDbEntity
8
0
100
AcDbLine
10
-911.60569792027013
20
-362.76457872526805
30
0
11
-911.60569792027013
21
-338.76457872526805
31
0
0
LINE
5
144
100
AcDbEntity
8
0
100
AcDbLine
10
-911.60569792027013
20
-346.76457872526805
30
0
11
-947.60569792027013
21
-346.76457872526805
31
0
0
LINE
5
145
100
AcDbEntity
8
0
100
AcDbLine
10
-911.60569792027013
20
-346.76457872526805
30
0
11
-917.24385364498562
21
-348.81669958522207
31
0
0
LINE
5
146
100
AcDbEntity
8
0
100
AcDbLine
10
-917.24385364498573
20
-344.71245786531398
30
0
11
-911.60569792027013
21
-346.76457872526805
31
0
0
LINE
5
147
100
AcDbEntity
8
0
100
AcDbLine
10
-1155.6056979202704
20
-346.76457872526805
30
0
11
-1191.6056979202701
21
-346.76457872526805
31
0
0
LINE
5
148
100
AcDbEntity
8
0
100
AcDbLine
10
-1191.6056979202701
20
-346.76457872526805
30
0
11
-1185.9675421955546
21
-348.81669958522218
31
0
0
LINE
5
149
100
AcDbEntity
8
0
100
AcDbLine
10
-1185.9675421955549
20
-344.71245786531415
30
0
11
-1191.6056979202701
21
-346.76457872526805
31
0
0
LINE
5
150
100
AcDbEntity
8
1
100
AcDbLine
10
-919.60569792027013
20
-348.76457872526805
30
0
11
-964.60569859082239
21
-348.76457872526805
31
0
0
LINE
5
151
100
AcDbEntity
8
1
100
AcDbLine
10
-964.60569859082239
20
-348.76457872526805
30
0
11
-964.60569859082239
21
-357.00000531971455
31
0
0
LINE
5
152
100
AcDbEntity
8
1
100
AcDbLine
10
-964.60569859082239
20
-357.00000531971455
30
0
11
-919.60569792027013
21
-357.00000531971455
31
0
0
LINE
5
153
100
AcDbEntity
8
1
100
AcDbLine
10
-919.60569792027013
20
-357.00000531971455
30
0
11
-919.60569792027013
21
-348.76457872526805
31
0
0
LINE
5
154
100
AcDbEntity
8
0
100
AcDbLine
10
-1191.6056979202701
20
-326.76457872526805
30
0
11
-1155.6056979202704
21
-326.76457872526805
31
0
0
LINE
5
155
100
AcDbEntity
8
0
100
AcDbLine
10
-1191.6056979202701
20
-326.76457872526805
30
0
11
-1185.9675421955546
21
-328.81669958522224
31
0
0
LINE
5
156
100
AcDbEntity
8
0
100
AcDbLine
10
-1185.9675421955546
20
-324.71245786531421
30
0
11
-1191.6056979202701
21
-326.76457872526805
31
0
0
LINE
5
157
100
AcDbEntity
8
0
100
AcDbLine
10
-667.60569792027002
20
-326.76457872526805
30
0
11
-631.60569792027002
21
-326.76457872526805
31
0
0
LINE
5
158
100
AcDbEntity
8
0
100
AcDbLine
10
-631.60569792027002
20
-326.76457872526805
30
0
11
-637.24385364498551
21
-328.81669958522195
31
0
0
LINE
5
159
100
AcDbEntity
8
0
100
AcDbLine
10
-637.24385364498539
20
-324.71245786531415
30
0
11
-631.60569792027002
21
-326.76457872526805
31
0
0
LINE
5
160
100
AcDbEntity
8
1
100
AcDbLine
10
-639.60569792027002
20
-328.76457872526805
30
0
11
-692.00001031160355
21
-328.76457872526805
31
0
0
LINE
5
161
100
AcDbEntity
8
1
100
AcDbLine
10
-692.00001031160355
20
-328.76457872526805
30
0
11
-692.00001031160355
21
-341.00000508129597
31
0
0
LINE
5
162
100
AcDbEntity
8
1
100
AcDbLine
10
-692.00001031160355
20
-341.00000508129597
30
0
11
-639.60569792027002
21
-341.00000508129597
31
0
0
LINE
5
163
100
AcDbEntity
8
1
100
AcDbLine
10
-639.60569792027002
20
-341.00000508129597
30
0
11
-639.60569792027002
21
-328.76457872526805
31
0
0
LINE
5
164
100
AcDbEntity
8
0
100
AcDbLine
10
-850.55339761755249
20
-366.91918459074668
30
0
11
-852.30839916250488
21
-372.18418505327872
31
0
0
LINE
5
165
100
AcDbEntity
8
0
100
AcDbLine
10
-852.30839916250488
20
-372.18418505327872
30
0
11
-854.06339832327149
21
-366.91918459074668
31
0
0
LINE
5
166
100
AcDbEntity
8
0
100
AcDbLine
10
-853.62464853307984
20
-368.23543455736808
30
0
11
-850.99214740774414
21
-368.23543455736808
31
0
0
LINE
5
167
100
AcDbEntity
8
0
100
AcDbLine
10
-855.23339935323975
20
-371.01418491738013
30
0
11
-856.69589706442139
21
-372.18418505327872
31
0
0
LINE
5
168
100
AcDbEntity
8
0
100
AcDbLine
10
-856.69589706442139
20
-372.18418505327872
30
0
11
-856.69589706442139
21
-366.91918459074668
31
0
0
LINE
5
169
100
AcDbEntity
8
0
100
AcDbLine
10
-855.23339935323975
20
-366.91918459074668
30
0
11
-858.15839954397461
21
-366.91918459074668
31
0
0
LINE
5
170
100
AcDbEntity
8
0
100
AcDbLine
10
-859.91339870474121
20
-366.91918459074668
30
0
11
-859.62089725515625
21
-366.91918459074668
31
0
0
LINE
5
171
100
AcDbEntity
8
0
100
AcDbLine
10
-859.62089725515625
20
-366.91918459074668
30
0
11
-859.62089725515625
21
-367.21168484823875
31
0
0
LINE
5
172
100
AcDbEntity
8
0
100
AcDbLine
10
-859.62089725515625
20
-367.21168484823875
30
0
11
-859.91339870474121
21
-367.21168484823875
31
0
0
LINE
5
173
100
AcDbEntity
8
0
100
AcDbLine
10
-859.91339870474121
20
-367.21168484823875
30
0
11
-859.91339870474121
21
-366.91918459074668
31
0
0
LINE
5
174
100
AcDbEntity
8
0
100
AcDbLine
10
-859.91339870474121
20
-366.91918459074668
30
0
11
-859.47464891454956
21
-365.74918475287132
31
0
0
LINE
5
175
100
AcDbEntity
8
0
100
AcDbLine
10
-863.86214920065186
20
-365.16418423788718
30
0
11
-863.86214920065186
21
-370.42918499844245
31
0
0
LINE
5
176
100
AcDbEntity
8
0
100
AcDbLine
10
-863.86214920065186
20
-370.42918499844245
30
0
11
-865.32464929601929
21
-370.42918499844245
31
0
0
LINE
5
177
100
AcDbEntity
8
0
100
AcDbLine
10
-866.20214887640259
20
-369.5516848220127
30
0
11
-866.20214887640259
21
-367.79668476717643
31
0
0
LINE
5
178
100
AcDbEntity
8
0
100
AcDbLine
10
-865.32464929601929
20
-366.91918459074668
30
0
11
-863.86214920065186
21
-366.91918459074668
31
0
0
ARC
5
179
100
AcDbEntity
8
0
100
AcDbCircle
10
-865.42999216100952
20
-369.65702649491004
30
0
40
0.77931083738803864
210
0
220
0
230
1
100
AcDbArc
50
172.23138017670141
51
277.7686186853208
0
ARC
5
180
100
AcDbEntity
8
0
100
AcDbCircle
10
-865.42999216100952
20
-367.69134309427909
30
0
40
0.77931083738803864
210
0
220
0
230
1
100
AcDbArc
50
82.23137084203421
51
187.76861618084141
0
LINE
5
181
100
AcDbEntity
8
0
100
AcDbLine
10
-870.00465103170654
20
-366.91918459074668
30
0
11
-868.54215093633911
21
-366.91918459074668
31
0
0
LINE
5
182
100
AcDbEntity
8
0
100
AcDbLine
10
-867.66464897177002
20
-367.79668476717643
30
0
11
-867.66464897177002
21
-369.25918486254386
31
0
0
LINE
5
183
100
AcDbEntity
8
0
100
AcDbLine
10
-870.00465103170654
20
-369.25918486254386
30
0
11
-870.00465103170654
21
-368.67418494360618
31
0
0
LINE
5
184
100
AcDbEntity
8
0
100
AcDbLine
10
-870.00465103170654
20
-368.67418494360618
30
0
11
-867.66464897177002
21
-368.67418494360618
31
0
0
ARC
5
185
100
AcDbEntity
8
0
100
AcDbCircle
10
-868.43680807134888
20
-367.69134309427909
30
0
40
0.77931083738803864
210
0
220
0
230
1
100
AcDbArc
50
-7.7686111718791127
51
97.768603203707073
0
ARC
5
186
100
AcDbEntity
8
0
100
AcDbCircle
10
-868.83465000173828
20
-369.25918486254386
30
0
40
1.1700000613927841
210
0
220
0
230
1
100
AcDbArc
50
-180
51
4.9783130603797136e-06
0
LINE
5
187
100
AcDbEntity
8
0
100
AcDbLine
10
-873.80715080282471
20
-372.18418505327867
30
0
11
-873.80715080282471
21
-366.91918459074662
31
0
0
LINE
5
188
100
AcDbEntity
8
0
100
AcDbLine
10
-873.80715080282471
20
-366.91918459074662
30
0
11
-872.34464832327149
21
-366.91918459074662
31
0
0
LINE
5
189
100
AcDbEntity
8
0
100
AcDbLine
10
-871.46714874288818
20
-367.79668476717643
30
0
11
-871.46714874288818
21
-369.5516848220127
31
0
0
LINE
5
190
100
AcDbEntity
8
0
100
AcDbLine
10
-872.34464832327149
20
-370.42918499844239
30
0
11
-873.80715080282471
21
-370.42918499844239
31
0
0
ARC
5
191
100
AcDbEntity
8
0
100
AcDbCircle
10
-872.23931022665283
20
-367.69134309427903
30
0
40
0.77931083738803864
210
0
220
0
230
1
100
AcDbArc
50
-7.7686111718791127
51
97.768603203707073
0
ARC
5
192
100
AcDbEntity
8
0
100
AcDbCircle
10
-872.23931022665283
20
-369.65702649490999
30
0
40
0.77931083738803864
210
0
220
0
230
1
100
AcDbArc
50
-97.768613676360275
51
7.7686211897961384
0
LINE
5
193
100
AcDbEntity
8
0
100
AcDbLine
10
-877.75590129873535
20
-368.96668460505174
30
0
11
-876.43964954397461
21
-368.96668460505174
31
0
0
LINE
5
194
100
AcDbEntity
8
0
100
AcDbLine
10
-876.43964954397461
20
-366.91918459074662
30
0
11
-877.75590129873535
21
-366.91918459074662
31
0
0
LINE
5
195
100
AcDbEntity
8
0
100
AcDbLine
10
-877.75590129873535
20
-366.91918459074662
30
0
11
-877.75590129873535
21
-369.55168482201265
31
0
0
LINE
5
196
100
AcDbEntity
8
0
100
AcDbLine
10
-876.87840171835205
20
-370.42918499844239
30
0
11
-875.70840068838379
21
-370.42918499844239
31
0
0
ARC
5
197
100
AcDbEntity
8
0
100
AcDbCircle
10
-876.43964954397461
20
-367.94293459789918
30
0
40
1.0237500816583633
210
0
220
0
230
1
100
AcDbArc
50
-89.99999749552255
51
90.000000683248132
0
ARC
5
198
100
AcDbEntity
8
0
100
AcDbCircle
10
-876.98374458334229
20
-369.65702649490999
30
0
40
0.77931083738803864
210
0
220
0
230
1
100
AcDbArc
50
172.23138017670141
51
277.7686186853208
0
LINE
5
199
100
AcDbEntity
8
0
100
AcDbLine
10
-879.51090045950195
20
-372.18418505327867
30
0
11
-879.51090045950195
21
-367.79668476717637
31
0
0
ARC
5
200
100
AcDbEntity
8
0
100
AcDbCircle
10
-880.28305717489502
20
-367.69134309427903
30
0
40
0.77931083738803864
210
0
220
0
230
1
100
AcDbArc
50
-7.7686111718791127
51
97.768603203707073
0
LINE
5
201
100
AcDbEntity
8
0
100
AcDbLine
10
-884.19089981100342
20
-365.16418423788713
30
0
11
-884.19089981100342
21
-370.42918499844239
31
0
0
LINE
5
202
100
AcDbEntity
8
0
100
AcDbLine
10
-884.19089981100342
20
-370.42918499844239
30
0
11
-885.65340229055664
21
-370.42918499844239
31
0
0
LINE
5
203
100
AcDbEntity
8
0
100
AcDbLine
10
-886.53090187093994
20
-369.55168482201265
30
0
11
-886.53090187093994
21
-367.79668476717637
31
0
0
LINE
5
204
100
AcDbEntity
8
0
100
AcDbLine
10
-885.65340229055664
20
-366.91918459074662
30
0
11
-884.19089981100342
21
-366.91918459074662
31
0
0
ARC
5
205
100
AcDbEntity
8
0
100
AcDbCircle
10
-885.75874038717529
20
-369.65702649490999
30
0
40
0.77931083738803864
210
0
220
0
230
1
100
AcDbArc
50
172.23138017670141
51
277.7686186853208
0
ARC
5
206
100
AcDbEntity
8
0
100
AcDbCircle
10
-885.75874038717529
20
-367.69134309427903
30
0
40
0.77931083738803864
210
0
220
0
230
1
100
AcDbArc
50
82.23137084203421
51
187.76861618083728
0
LINE
5
207
100
AcDbEntity
8
0
100
AcDbLine
10
-888.13965030691406
20
-372.18418505327867
30
0
11
-888.13965030691406
21
-367.79668476717637
31
0
0
ARC
5
208
100
AcDbEntity
8
0
100
AcDbCircle
10
-888.91180702230713
20
-367.69134309427903
30
0
40
0.77931083738803864
210
0
220
0
230
1
100
AcDbArc
50
-7.7686111718791127
51
97.768603203707073
0
LINE
5
209
100
AcDbEntity
8
0
100
AcDbLine
10
-892.67340370199463
20
-368.96668460505174
30
0
11
-891.35715194723389
21
-368.96668460505174
31
0
0
LINE
5
210
100
AcDbEntity
8
0
100
AcDbLine
10
-891.35715194723389
20
-366.91918459074662
30
0
11
-892.67340370199463
21
-366.91918459074662
31
0
0
LINE
5
211
100
AcDbEntity
8
0
100
AcDbLine
10
-892.67340370199463
20
-366.91918459074662
30
0
11
-892.67340370199463
21
-369.55168482201265
31
0
0
LINE
5
212
100
AcDbEntity
8
0
100
AcDbLine
10
-891.79590412161133
20
-370.42918499844239
30
0
11
-890.62590309164307
21
-370.42918499844239
31
0
0
ARC
5
213
100
AcDbEntity
8
0
100
AcDbCircle
10
-891.35715194723389
20
-367.94293459789918
30
0
40
1.0237500816583633
210
0
220
0
230
1
100
AcDbArc
50
-89.99999749552255
51
90.000000683248132
0
ARC
5
214
100
AcDbEntity
8
0
100
AcDbCircle
10
-891.90124221822998
20
-369.65702649490999
30
0
40
0.77931083738803864
210
0
220
0
230
1
100
AcDbArc
50
172.23138017670141
51
277.7686186853208
0
LINE
5
215
100
AcDbEntity
8
0
100
AcDbLine
10
-893.98965068838379
20
-370.42918499844239
30
0
11
-895.74464984915039
21
-370.42918499844239
31
0
0
LINE
5
216
100
AcDbEntity
8
0
100
AcDbLine
10
-894.57464881918213
20
-372.18418505327867
30
0
11
-894.57464881918213
21
-367.79668476717637
31
0
0
LINE
5
217
100
AcDbEntity
8
0
100
AcDbLine
10
-895.45214839956543
20
-366.91918459074662
30
0
11
-895.74464984915039
21
-366.91918459074662
31
0
0
ARC
5
218
100
AcDbEntity
8
0
100
AcDbCircle
10
-895.3468055345752
20
-367.69134309427903
30
0
40
0.77931083738803864
210
0
220
0
230
1
100
AcDbArc
50
-7.7686111718791127
51
97.768603203707073
0
LINE
5
219
100
AcDbEntity
8
0
100
AcDbLine
10
-899.40089889547608
20
-366.91918459074662
30
0
11
-897.93839641592285
21
-366.91918459074662
31
0
0
LINE
5
220
100
AcDbEntity
8
0
100
AcDbLine
10
-897.06089683553955
20
-367.79668476717637
30
0
11
-897.06089683553955
21
-369.2591848625438
31
0
0
LINE
5
221
100
AcDbEntity
8
0
100
AcDbLine
10
-899.40089889547608
20
-369.2591848625438
30
0
11
-899.40089889547608
21
-368.67418494360612
31
0
0
LINE
5
222
100
AcDbEntity
8
0
100
AcDbLine
10
-899.40089889547608
20
-368.67418494360612
30
0
11
-897.06089683553955
21
-368.67418494360612
31
0
0
ARC
5
223
100
AcDbEntity
8
0
100
AcDbCircle
10
-897.8330583193042
20
-367.69134309427903
30
0
40
0.77931083738803864
210
0
220
0
230
1
100
AcDbArc
50
-7.7686111718791127
51
97.768603203707073
0
ARC
5
224
100
AcDbEntity
8
0
100
AcDbCircle
10
-898.23089786550781
20
-369.2591848625438
30
0
40
1.1700000613927841
210
0
220
0
230
1
100
AcDbArc
50
-180
51
4.9783130603797136e-06
0
LINE
5
225
100
AcDbEntity
8
0
100
AcDbLine
10
-903.34964939138672
20
-372.18418505327867
30
0
11
-903.34964939138672
21
-366.91918459074662
31
0
0
LINE
5
226
100
AcDbEntity
8
0
100
AcDbLine
10
-903.34964939138672
20
-366.91918459074662
30
0
11
-904.81215187093994
21
-366.91918459074662
31
0
0
LINE
5
227
100
AcDbEntity
8
0
100
AcDbLine
10
-905.68965145132324
20
-367.79668476717637
30
0
11
-905.68965145132324
21
-369.55168482201265
31
0
0
LINE
5
228
100
AcDbEntity
8
0
100
AcDbLine
10
-904.81215187093994
20
-370.42918499844239
30
0
11
-903.34964939138672
21
-370.42918499844239
31
0
0
ARC
5
229
100
AcDbEntity
8
0
100
AcDbCircle
10
-904.91748996755859
20
-367.69134309427903
30
0
40
0.77931083738803864
210
0
220
0
230
1
100
AcDbArc
50
82.23137084203421
51
187.76861618083728
0
ARC
5
230
100
AcDbEntity
8
0
100
AcDbCircle
10
-904.91748996755859
20
-369.65702649490999
30
0
40
0.77931083738803864
210
0
220
0
230
1
100
AcDbArc
50
172.23138017670141
51
277.7686186853208
0
LINE
5
231
100
AcDbEntity
8
0
100
AcDbLine
10
-907.29839988729736
20
-366.91918459074662
30
0
11
-907.29839988729736
21
-370.42918499844239
31
0
0
LINE
5
232
100
AcDbEntity
8
0
100
AcDbLine
10
-907.29839988729736
20
-370.42918499844239
30
0
11
-909.05339904806397
21
-370.42918499844239
31
0
0
LINE
5
233
100
AcDbEntity
8
0
100
AcDbLine
10
-909.05339904806397
20
-370.42918499844239
30
0
11
-909.05339904806397
21
-369.84418478148149
31
0
0
LINE
5
234
100
AcDbEntity
8
0
100
AcDbLine
10
-912.56339736959717
20
-368.96668460505174
30
0
11
-911.24715515157959
21
-368.96668460505174
31
0
0
LINE
5
235
100
AcDbEntity
8
0
100
AcDbLine
10
-911.24715515157959
20
-366.91918459074662
30
0
11
-912.56339736959717
21
-366.91918459074662
31
0
0
LINE
5
236
100
AcDbEntity
8
0
100
AcDbLine
10
-912.56339736959717
20
-366.91918459074662
30
0
11
-912.56339736959717
21
-369.55168482201265
31
0
0
LINE
5
237
100
AcDbEntity
8
0
100
AcDbLine
10
-911.68590255758545
20
-370.42918499844239
30
0
11
-910.51589675924561
21
-370.42918499844239
31
0
0
ARC
5
238
100
AcDbEntity
8
0
100
AcDbCircle
10
-911.24715515157959
20
-367.94293459789918
30
0
40
1.0237500816583633
210
0
220
0
230
1
100
AcDbArc
50
-89.99999749552255
51
90.000000683248132
0
ARC
5
239
100
AcDbEntity
8
0
100
AcDbCircle
10
-911.79124542257568
20
-369.65702649490999
30
0
40
0.77931083738803864
210
0
220
0
230
1
100
AcDbArc
50
172.23138017670141
51
277.7686186853208
0
LINE
5
240
100
AcDbEntity
8
0
100
AcDbLine
10
-916.21965118429443
20
-366.91918459074662
30
0
11
-915.04965492269775
21
-366.91918459074662
31
0
0
LINE
5
241
100
AcDbEntity
8
0
100
AcDbLine
10
-914.17215057394287
20
-367.79668476717637
30
0
11
-914.17215057394287
21
-369.55168482201265
31
0
0
LINE
5
242
100
AcDbEntity
8
0
100
AcDbLine
10
-915.04965492269775
20
-370.42918499844239
30
0
11
-916.21965118429443
21
-370.42918499844239
31
0
0
ARC
5
243
100
AcDbEntity
8
0
100
AcDbCircle
10
-914.94431205770752
20
-367.69134309427903
30
0
40
0.77931083738803864
210
0
220
0
230
1
100
AcDbArc
50
-7.7686111718791127
51
97.768603203707073
0
ARC
5
244
100
AcDbEntity
8
0
100
AcDbCircle
10
-914.94431205770752
20
-369.65702649490999
30
0
40
0.77931083738803864
210
0
220
0
230
1
100
AcDbArc
50
-97.768613676360275
51
7.7686211897961384
0
LINE
5
245
100
AcDbEntity
8
0
100
AcDbLine
10
-917.68215843221924
20
-366.91918459074662
30
0
11
-917.68215843221924
21
-372.18418505327867
31
0
0
LINE
5
246
100
AcDbEntity
8
0
100
AcDbLine
10
-920.0221509554126
20
-370.42918499844239
30
0
11
-917.68215843221924
21
-368.67418494360612
31
0
0
LINE
5
247
100
AcDbEntity
8
0
100
AcDbLine
10
-920.0221509554126
20
-366.91918459074662
30
0
11
-918.70590873739502
21
-369.40543499128984
31
0
0
LINE
5
248
100
AcDbEntity
8
0
100
AcDbLine
10
-923.67840477010986
20
-366.91918459074662
30
0
11
-922.21590705892822
21
-366.91918459074662
31
0
0
LINE
5
249
100
AcDbEntity
8
0
100
AcDbLine
10
-921.33840271017334
20
-367.79668476717637
30
0
11
-921.33840271017334
21
-369.2591848625438
31
0
0
LINE
5
250
100
AcDbEntity
8
0
100
AcDbLine
10
-923.67840477010986
20
-369.2591848625438
30
0
11
-923.67840477010986
21
-368.67418494360612
31
0
0
LINE
5
251
100
AcDbEntity
8
0
100
AcDbLine
10
-923.67840477010986
20
-368.67418494360612
30
0
11
-921.33840271017334
21
-368.67418494360612
31
0
0
ARC
5
252
100
AcDbEntity
8
0
100
AcDbCircle
10
-922.11056419393799
20
-367.69134309427903
30
0
40
0.77931083738803864
210
0
220
0
230
1
100
AcDbArc
50
-7.7686111718791127
51
97.768603203707073
0
ARC
5
253
100
AcDbEntity
8
0
100
AcDbCircle
10
-922.50840850851318
20
-369.2591848625438
30
0
40
1.1700000613927841
210
0
220
0
230
1
100
AcDbArc
50
-180
51
4.9783130603797136e-06
0
LINE
5
254
100
AcDbEntity
8
0
100
AcDbLine
10
-924.84840103170654
20
-370.42918499844239
30
0
11
-926.60340019247315
21
-370.42918499844239
31
0
0
LINE
5
255
100
AcDbEntity
8
0
100
AcDbLine
10
-925.43340393087647
20
-372.18418505327867
30
0
11
-925.43340393087647
21
-367.79668476717637
31
0
0
LINE
5
256
100
AcDbEntity
8
0
100
AcDbLine
10
-926.31090827963135
20
-366.91918459074662
30
0
11
-926.60340019247315
21
-366.91918459074662
31
0
0
ARC
5
257
100
AcDbEntity
8
0
100
AcDbCircle
10
-926.20556541464111
20
-367.69134309427903
30
0
40
0.77931083738803864
210
0
220
0
230
1
100
AcDbArc
50
-7.7686111718791127
51
97.768603203707073
0
LINE
5
258
100
AcDbEntity
8
0
100
AcDbLine
10
-928.21215339681885
20
-366.91918459074662
30
0
11
-927.91965194723389
21
-366.91918459074662
31
0
0
LINE
5
259
100
AcDbEntity
8
0
100
AcDbLine
10
-927.91965194723389
20
-366.91918459074662
30
0
11
-927.91965194723389
21
-367.21168484823869
31
0
0
LINE
5
260
100
AcDbEntity
8
0
100
AcDbLine
10
-927.91965194723389
20
-367.21168484823869
30
0
11
-928.21215339681885
21
-367.21168484823869
31
0
0
LINE
5
261
100
AcDbEntity
8
0
100
AcDbLine
10
-928.21215339681885
20
-367.21168484823869
30
0
11
-928.21215339681885
21
-366.91918459074662
31
0
0
LINE
5
262
100
AcDbEntity
8
0
100
AcDbLine
10
-928.21215339681885
20
-366.91918459074662
30
0
11
-927.77340599081299
21
-365.74918475287126
31
0
0
LINE
5
263
100
AcDbEntity
8
0
100
AcDbLine
10
-932.01465316793701
20
-371.01418491738008
30
0
11
-933.47715087911865
21
-372.18418505327867
31
0
0
LINE
5
264
100
AcDbEntity
8
0
100
AcDbLine
10
-933.47715087911865
20
-372.18418505327867
30
0
11
-933.47715087911865
21
-366.91918459074662
31
0
0
LINE
5
265
100
AcDbEntity
8
0
100
AcDbLine
10
-932.01465316793701
20
-366.91918459074662
30
0
11
-934.93965812704346
21
-366.91918459074662
31
0
0
LINE
5
266
100
AcDbEntity
8
0
100
AcDbLine
10
-938.59591194174072
20
-366.91918459074662
30
0
11
-940.93590446493408
21
-370.42918499844239
31
0
0
LINE
5
267
100
AcDbEntity
8
0
100
AcDbLine
10
-938.59591194174072
20
-370.42918499844239
30
0
11
-940.93590446493408
21
-366.91918459074662
31
0
0
LINE
5
268
100
AcDbEntity
8
0
100
AcDbLine
10
-944.59215827963135
20
-369.84418478148149
30
0
11
-946.34715744039795
21
-369.84418478148149
31
0
0
LINE
5
269
100
AcDbEntity
8
0
100
AcDbLine
10
-947.51716323873779
20
-368.67418494360612
30
0
11
-947.51716323873779
21
-368.38168468611406
31
0
0
LINE
5
270
100
AcDbEntity
8
0
100
AcDbLine
10
-944.59215827963135
20
-368.38168468611406
30
0
11
-944.59215827963135
21
-369.84418478148149
31
0
0
ARC
5
271
100
AcDbEntity
8
0
100
AcDbCircle
10
-946.48761459371826
20
-368.81464030878709
30
0
40
1.0390811413526533
210
0
220
0
230
1
100
AcDbArc
50
172.23138017669689
51
277.76861868531455
0
ARC
5
272
100
AcDbEntity
8
0
100
AcDbCircle
10
-946.05465599081299
20
-368.38168468611406
30
0
40
1.4625000953674316
210
0
220
0
230
1
100
AcDbArc
50
4.9783130603797136e-06
51
180
0
ARC
5
273
100
AcDbEntity
8
0
100
AcDbCircle
10
-946.65124603292725
20
-370.12509580986665
30
0
40
2.078162282705307
210
0
220
0
230
1
100
AcDbArc
50
-97.768613676361397
51
7.768621189794584
0
LINE
5
274
100
AcDbEntity
8
0
100
AcDbLine
10
-951.46591850302002
20
-366.91918459074662
30
0
11
-951.46591850302002
21
-370.42918499844239
31
0
0
LINE
5
275
100
AcDbEntity
8
0
100
AcDbLine
10
-951.46591850302002
20
-370.42918499844239
30
0
11
-954.09841247579834
21
-370.42918499844239
31
0
0
LINE
5
276
100
AcDbEntity
8
0
100
AcDbLine
10
-954.97591682455322
20
-369.55168482201259
30
0
11
-954.97591682455322
21
-366.91918459074657
31
0
0
LINE
5
277
100
AcDbEntity
8
0
100
AcDbLine
10
-953.22091766378662
20
-366.91918459074657
30
0
11
-953.22091766378662
21
-370.42918499844234
31
0
0
ARC
5
278
100
AcDbEntity
8
0
100
AcDbCircle
10
-954.20375534078858
20
-369.65702649490993
30
0
40
0.77931083738803864
210
0
220
0
230
1
100
AcDbArc
50
172.23138017669723
51
277.7686186853208
0
LINE
5
279
100
AcDbEntity
8
0
100
AcDbLine
10
-956.73091598531983
20
-366.91918459074657
30
0
11
-956.73091598531983
21
-370.42918499844234
31
0
0
LINE
5
280
100
AcDbEntity
8
0
100
AcDbLine
10
-956.73091598531983
20
-370.42918499844234
30
0
11
-959.36340995809815
21
-370.42918499844234
31
0
0
LINE
5
281
100
AcDbEntity
8
0
100
AcDbLine
10
-960.24091430685303
20
-369.55168482201259
30
0
11
-960.24091430685303
21
-366.91918459074657
31
0
0
LINE
5
282
100
AcDbEntity
8
0
100
AcDbLine
10
-958.48591514608643
20
-366.91918459074657
30
0
11
-958.48591514608643
21
-370.42918499844234
31
0
0
ARC
5
283
100
AcDbEntity
8
0
100
AcDbCircle
10
-959.46875282308838
20
-369.65702649490993
30
0
40
0.77931083738803864
210
0
220
0
230
1
100
AcDbArc
50
172.23138017669723
51
277.7686186853208
0
LINE
5
284
100
AcDbEntity
8
0
100
AcDbLine
10
-964.33591552755615
20
-365.16418423788707
30
0
11
-964.33591552755615
21
-370.42918499844234
31
0
0
LINE
5
285
100
AcDbEntity
8
0
100
AcDbLine
10
-964.33591552755615
20
-370.42918499844234
30
0
11
-965.79841323873779
21
-370.42918499844234
31
0
0
LINE
5
286
100
AcDbEntity
8
0
100
AcDbLine
10
-966.67590805074951
20
-369.55168482201259
30
0
11
-966.67590805074951
21
-367.79668476717632
31
0
0
LINE
5
287
100
AcDbEntity
8
0
100
AcDbLine
10
-965.79841323873779
20
-366.91918459074657
30
0
11
-964.33591552755615
21
-366.91918459074657
31
0
0
ARC
5
288
100
AcDbEntity
8
0
100
AcDbCircle
10
-965.90375610372803
20
-369.65702649490993
30
0
40
0.77931083738803864
210
0
220
0
230
1
100
AcDbArc
50
172.23138017669723
51
277.7686186853208
0
ARC
5
289
100
AcDbEntity
8
0
100
AcDbCircle
10
-965.90375610372803
20
-367.69134309427898
30
0
40
0.77931083738803864
210
0
220
0
230
1
100
AcDbArc
50
82.23137084203421
51
187.76861618083728
0
LINE
5
290
100
AcDbEntity
8
0
100
AcDbLine
10
-968.28466125509522
20
-372.18418505327861
30
0
11
-968.28466125509522
21
-367.79668476717632
31
0
0
ARC
5
291
100
AcDbEntity
8
0
100
AcDbCircle
10
-969.0568132021167
20
-367.69134309427898
30
0
40
0.77931083738803864
210
0
220
0
230
1
100
AcDbArc
50
-7.7686111718791127
51
97.768603203707073
0
LINE
5
292
100
AcDbEntity
8
0
100
AcDbLine
10
-970.33216186544678
20
-365.16418423788707
30
0
11
-970.91715522787354
21
-365.16418423788707
31
0
0
LINE
5
293
100
AcDbEntity
8
0
100
AcDbLine
10
-970.91715522787354
20
-365.16418423788707
30
0
11
-972.6721639253833
21
-370.42918499844234
31
0
0
LINE
5
294
100
AcDbEntity
8
0
100
AcDbLine
10
-970.33216186544678
20
-370.42918499844234
30
0
11
-971.50215812704346
21
-366.91918459074657
31
0
0
LINE
5
295
100
AcDbEntity
8
0
100
AcDbLine
10
-922.82319807047384
20
-351.68957836925983
30
0
11
-920.33694796795385
21
-348.76457817852497
31
0
0
LINE
5
296
100
AcDbEntity
8
0
100
AcDbLine
10
-920.33694796795385
20
-348.76457817852497
30
0
11
-923.26194815868871
21
-348.76457817852497
31
0
0
ARC
5
297
100
AcDbEntity
8
0
100
AcDbCircle
10
-922.10371055240171
20
-352.8713408857584
30
0
40
1.1689662933349609
210
0
220
0
230
1
100
AcDbArc
50
172.23138017669544
51
277.76861868531842
0
ARC
5
298
100
AcDbEntity
8
0
100
AcDbCircle
10
-921.76911555761831
20
-352.58136369287968
30
0
40
1.4589405059814451
210
0
220
0
230
1
100
AcDbArc
50
263.04817449553582
51
349.00656965301039
0
ARC
5
299
100
AcDbEntity
8
0
100
AcDbCircle
10
-922.09130935902135
20
-352.60913796722889
30
0
40
1.1752662807703018
210
0
220
0
230
1
100
AcDbArc
50
128.51672148851449
51
185.08610292677096
0
ARC
5
300
100
AcDbEntity
8
0
100
AcDbCircle
10
-926.18694834942357
20
-350.2270782738924
30
0
40
1.4625000953674316
210
0
220
0
230
1
100
AcDbArc
50
-180
51
4.9783130603797136e-06
0
ARC
5
301
100
AcDbEntity
8
0
100
AcDbCircle
10
-926.18694834942357
20
-350.2270782738924
30
0
40
1.4625000953674316
210
0
220
0
230
1
100
AcDbArc
50
4.9783130603797136e-06
51
180
0
ARC
5
302
100
AcDbEntity
8
0
100
AcDbCircle
10
-926.18694834942357
20
-352.85957850515842
30
0
40
1.1700000613927839
210
0
220
0
230
1
100
AcDbArc
50
-180
51
4.9783130603797136e-06
0
ARC
5
303
100
AcDbEntity
8
0
100
AcDbCircle
10
-926.18694834942357
20
-352.85957850515842
30
0
40
1.1700000613927839
210
0
220
0
230
1
100
AcDbArc
50
4.9783130603797136e-06
51
180
0
LINE
5
304
100
AcDbEntity
8
0
100
AcDbLine
10
-929.4044487976505
20
-349.93457801640034
30
0
11
-931.74444847340123
21
-352.85957850515842
31
0
0
ARC
5
305
100
AcDbEntity
8
0
100
AcDbCircle
10
-932.61755042309301
20
-351.5893430262804
30
0
40
3.5108703374862671
210
0
220
0
230
1
100
AcDbArc
50
-29.128484178344266
51
3.1392419137637146
0
ARC
5
306
100
AcDbEntity
8
0
100
AcDbCircle
10
-930.454943706937
20
-353.11463512480259
30
0
40
0.92271506786346424
210
0
220
0
230
1
100
AcDbArc
50
262.5584772528008
51
348.51687241027543
0
ARC
5
307
100
AcDbEntity
8
0
100
AcDbCircle
10
-930.69395356411474
20
-353.11463512480259
30
0
40
0.92271506786346424
210
0
220
0
230
1
100
AcDbArc
50
191.48312491471813
51
277.4415209259634
0
ARC
5
308
100
AcDbEntity
8
0
100
AcDbCircle
10
-928.53134684795873
20
-351.5893430262804
30
0
40
3.5108703374862671
210
0
220
0
230
1
100
AcDbArc
50
176.8607457923475
51
209.1284789420157
0
ARC
5
309
100
AcDbEntity
8
0
100
AcDbCircle
10
-932.61755042309301
20
-351.20481319725513
30
0
40
3.5108703374862671
210
0
220
0
230
1
100
AcDbArc
50
-3.139245556229906
51
29.128480535878563
0
ARC
5
310
100
AcDbEntity
8
0
100
AcDbCircle
10
-930.454943706937
20
-349.67952199280262
30
0
40
0.92271506786346424
210
0
220
0
230
1
100
AcDbArc
50
11.483123947261431
51
97.441519104727249
0
ARC
5
311
100
AcDbEntity
8
0
100
AcDbCircle
10
-928.53134684795873
20
-351.20481319725513
30
0
40
3.5108703374862671
210
0
220
0
230
1
100
AcDbArc
50
150.8715208306127
51
183.13924672320519
0
ARC
5
312
100
AcDbEntity
8
0
100
AcDbCircle
10
-930.69395356411474
20
-349.67952199280262
30
0
40
0.92271506786346424
210
0
220
0
230
1
100
AcDbArc
50
82.558482261769399
51
168.51687741923135
0
LINE
5
313
100
AcDbEntity
8
0
100
AcDbLine
10
-935.98569803471105
20
-348.76457817852497
30
0
11
-935.98569803471105
21
-352.27457828819752
31
0
0
LINE
5
314
100
AcDbEntity
8
0
100
AcDbLine
10
-935.98569803471105
20
-352.27457828819752
30
0
11
-938.61819916004674
21
-352.27457828819752
31
0
0
LINE
5
315
100
AcDbEntity
8
0
100
AcDbLine
10
-939.49569874043004
20
-351.39707870781422
30
0
11
-939.49569874043004
21
-348.76457817852497
31
0
0
LINE
5
316
100
AcDbEntity
8
0
100
AcDbLine
10
-937.74069838757055
20
-348.76457817852497
30
0
11
-937.74069838757055
21
-352.27457828819752
31
0
0
ARC
5
317
100
AcDbEntity
8
0
100
AcDbCircle
10
-938.72353964085119
20
-351.50242038071156
30
0
40
0.77931083738803864
210
0
220
0
230
1
100
AcDbArc
50
172.23138017669723
51
277.76861868531256
0
LINE
5
318
100
AcDbEntity
8
0
100
AcDbLine
10
-941.25069790119665
20
-348.76457817852497
30
0
11
-941.25069790119665
21
-352.27457828819752
31
0
0
LINE
5
319
100
AcDbEntity
8
0
100
AcDbLine
10
-941.25069790119665
20
-352.27457828819752
30
0
11
-943.88319902653234
21
-352.27457828819752
31
0
0
LINE
5
320
100
AcDbEntity
8
0
100
AcDbLine
10
-944.76069860691564
20
-351.39707870781422
30
0
11
-944.76069860691564
21
-348.76457817852497
31
0
0
LINE
5
321
100
AcDbEntity
8
0
100
AcDbLine
10
-943.00569944614904
20
-348.76457817852497
30
0
11
-943.00569944614904
21
-352.27457828819752
31
0
0
ARC
5
322
100
AcDbEntity
8
0
100
AcDbCircle
10
-943.98853950733678
20
-351.50242038071156
30
0
40
0.77931083738803864
210
0
220
0
230
1
100
AcDbArc
50
172.23138017669723
51
277.76861868531256
0
LINE
5
323
100
AcDbEntity
8
0
100
AcDbLine
10
-640.33694796795373
20
-328.76457937061787
30
0
11
-642.09194817180162
21
-328.76457937061787
31
0
0
LINE
5
324
100
AcDbEntity
8
0
100
AcDbLine
10
-643.2619481586886
20
-329.93457920849323
30
0
11
-643.2619481586886
21
-330.51957972347736
31
0
0
LINE
5
325
100
AcDbEntity
8
0
100
AcDbLine
10
-642.09194817180162
20
-331.68957956135273
30
0
11
-640.33694796795373
21
-331.68957956135273
31
0
0
LINE
5
326
100
AcDbEntity
8
0
100
AcDbLine
10
-640.33694796795373
20
-331.68957956135273
30
0
11
-640.33694796795373
21
-334.02957983314991
31
0
0
LINE
5
327
100
AcDbEntity
8
0
100
AcDbLine
10
-640.33694796795373
20
-334.02957983314991
30
0
11
-643.2619481586886
21
-334.02957983314991
31
0
0
ARC
5
328
100
AcDbEntity
8
0
100
AcDbCircle
10
-642.2324036859942
20
-329.79412443935871
30
0
40
1.0390811413526535
210
0
220
0
230
1
100
AcDbArc
50
82.231370842029563
51
187.76861618083691
0
ARC
5
329
100
AcDbEntity
8
0
100
AcDbCircle
10
-642.2324036859942
20
-330.66003568470478
30
0
40
1.0390811413526535
210
0
220
0
230
1
100
AcDbArc
50
172.23138017669376
51
277.7686186853208
0
LINE
5
330
100
AcDbEntity
8
0
100
AcDbLine
10
-644.72444825405603
20
-331.68957956135273
30
0
11
-646.47944860691553
21
-331.68957956135273
31
0
0
LINE
5
331
100
AcDbEntity
8
0
100
AcDbLine
10
-647.64944844479089
20
-330.51957972347736
30
0
11
-647.64944844479089
21
-330.2270794659853
31
0
0
LINE
5
332
100
AcDbEntity
8
0
100
AcDbLine
10
-644.72444825405603
20
-330.2270794659853
30
0
11
-644.72444825405603
21
-331.68957956135273
31
0
0
ARC
5
333
100
AcDbEntity
8
0
100
AcDbCircle
10
-646.61990397209649
20
-330.66003568470478
30
0
40
1.0390811413526535
210
0
220
0
230
1
100
AcDbArc
50
172.23138017669376
51
277.7686186853208
0
ARC
5
334
100
AcDbEntity
8
0
100
AcDbCircle
10
-646.18694834942346
20
-330.2270794659853
30
0
40
1.4625000953674316
210
0
220
0
230
1
100
AcDbArc
50
4.9783130603797136e-06
51
180
0
ARC
5
335
100
AcDbEntity
8
0
100
AcDbCircle
10
-646.78353719944482
20
-331.97049029171467
30
0
40
2.078162282705307
210
0
220
0
230
1
100
AcDbArc
50
-97.768613676361596
51
7.768621189794584
0
LINE
5
336
100
AcDbEntity
8
0
100
AcDbLine
10
-649.40444879765039
20
-329.93457920849323
30
0
11
-651.74444847340112
21
-332.8595793992281
31
0
0
ARC
5
337
100
AcDbEntity
8
0
100
AcDbCircle
10
-652.61755042309289
20
-331.58934481441975
30
0
40
3.5108703374862671
210
0
220
0
230
1
100
AcDbArc
50
-29.128484178344266
51
3.1392419137635987
0
ARC
5
338
100
AcDbEntity
8
0
100
AcDbCircle
10
-650.45494370693689
20
-333.11463601887226
30
0
40
0.92271506786346424
210
0
220
0
230
1
100
AcDbArc
50
262.55847725280779
51
348.51687241027543
0
ARC
5
339
100
AcDbEntity
8
0
100
AcDbCircle
10
-650.69395356411462
20
-333.11463601887226
30
0
40
0.92271506786346424
210
0
220
0
230
1
100
AcDbArc
50
191.48312491471813
51
277.4415209259634
0
ARC
5
340
100
AcDbEntity
8
0
100
AcDbCircle
10
-648.53134684795862
20
-331.58934481441975
30
0
40
3.5108703374862671
210
0
220
0
230
1
100
AcDbArc
50
176.86074579234739
51
209.12847894201667
0
ARC
5
341
100
AcDbEntity
8
0
100
AcDbCircle
10
-652.61755042309289
20
-331.20481438934803
30
0
40
3.5108703374862671
210
0
220
0
230
1
100
AcDbArc
50
-3.139245556229906
51
29.128480535878563
0
ARC
5
342
100
AcDbEntity
8
0
100
AcDbCircle
10
-650.45494370693689
20
-329.67952258884907
30
0
40
0.92271506786346424
210
0
220
0
230
1
100
AcDbArc
50
11.483123947261431
51
97.441519104727249
0
ARC
5
343
100
AcDbEntity
8
0
100
AcDbCircle
10
-648.53134684795862
20
-331.20481438934803
30
0
40
3.5108703374862671
210
0
220
0
230
1
100
AcDbArc
50
150.8715208306127
51
183.13924672320519
0
ARC
5
344
100
AcDbEntity
8
0
100
AcDbCircle
10
-650.69395356411462
20
-329.67952258884907
30
0
40
0.92271506786346424
210
0
220
0
230
1
100
AcDbArc
50
82.558482261762393
51
168.51687741922998
0
LINE
5
345
100
AcDbEntity
8
0
100
AcDbLine
10
-655.98569803471094
20
-328.76457937061787
30
0
11
-655.98569803471094
21
-332.27458007633686
31
0
0
LINE
5
346
100
AcDbEntity
8
0
100
AcDbLine
10
-655.98569803471094
20
-332.27458007633686
30
0
11
-658.61819916004663
21
-332.27458007633686
31
0
0
LINE
5
347
100
AcDbEntity
8
0
100
AcDbLine
10
-659.49569874042993
20
-331.39707930386066
30
0
11
-659.49569874042993
21
-328.76457937061787
31
0
0
LINE
5
348
100
AcDbEntity
8
0
100
AcDbLine
10
-657.74069838757043
20
-328.76457937061787
30
0
11
-657.74069838757043
21
-332.27458007633686
31
0
0
ARC
5
349
100
AcDbEntity
8
0
100
AcDbCircle
10
-658.72353964085107
20
-331.502420976758
30
0
40
0.77931083738803864
210
0
220
0
230
1
100
AcDbArc
50
172.23138017669723
51
277.76861868531256
0
LINE
5
350
100
AcDbEntity
8
0
100
AcDbLine
10
-661.25069790119653
20
-328.76457937061787
30
0
11
-661.25069790119653
21
-332.27458007633686
31
0
0
LINE
5
351
100
AcDbEntity
8
0
100
AcDbLine
10
-661.25069790119653
20
-332.27458007633686
30
0
11
-663.88319902653222
21
-332.27458007633686
31
0
0
LINE
5
352
100
AcDbEntity
8
0
100
AcDbLine
10
-664.76069860691553
20
-331.39707930386066
30
0
11
-664.76069860691553
21
-328.76457937061787
31
0
0
LINE
5
353
100
AcDbEntity
8
0
100
AcDbLine
10
-663.00569944614892
20
-328.76457937061787
30
0
11
-663.00569944614892
21
-332.27458007633686
31
0
0
ARC
5
354
100
AcDbEntity
8
0
100
AcDbCircle
10
-663.98853950733667
20
-331.502420976758
30
0
40
0.77931083738803864
210
0
220
0
230
1
100
AcDbArc
50
172.23138017669723
51
277.76861868531256
0
ENDSEC
0
SECTION
2
OBJECTS
0
DICTIONARY
5
C
100
AcDbDictionary
3
ACAD_GROUP
350
D
3
ACAD_MLINESTYLE
350
17
0
DICTIONARY
5
D
100
AcDbDictionary
0
DICTIONARY
5
1A
330
C
100
AcDbDictionary
0
DICTIONARY
5
17
100
AcDbDictionary
0
ENDSEC
0
EOF
