0
SECTION
2
HEADER
9
$INSUNITS
70
4
9
$ACADVER
1
AC1014
9
$HANDSEED
5
FFFF
0
ENDSEC
0
SECTION
2
TABLES
0
TABLE
2
VPORT
5
8
100
AcDbSymbolTable
0
ENDTAB
0
TABLE
2
LTYPE
5
5
100
AcDbSymbolTable
0
LTYPE
5
14
100
AcDbSymbolTableRecord
100
AcDbLinetypeTableRecord
2
BYBLOCK
70
0
0
LTYPE
5
15
100
AcDbSymbolTableRecord
100
AcDbLinetypeTableRecord
2
BYLAYER
70
0
0
LTYPE
5
16
100
AcDbSymbolTableRecord
100
AcDbLinetypeTableRecord
2
DASHED
70
0
3
Dashed __ __ __ __ __ __ __ __ __ __ __ __ __ _
72
65
73
2
40
0.75
49
0.5
74
0
49
-0.25
74
0
0
ENDTAB
0
TABLE
2
LAYER
5
2
100
AcDbSymbolTable
70
3
0
LAYER
5
50
100
AcDbSymbolTableRecord
100
AcDbLayerTableRecord
2
1
70
0
62
7
6
DASHED
0
LAYER
5
51
100
AcDbSymbolTableRecord
100
AcDbLayerTableRecord
2
0
70
0
62
7
6
CONTINUOUS
0
ENDTAB
0
TABLE
2
STYLE
5
3
100
AcDbSymbolTable
70
1
0
STYLE
5
11
100
AcDbSymbolTableRecord
100
AcDbTextStyleTableRecord
2
STANDARD
70
0
0
ENDTAB
0
TABLE
2
VIEW
5
6
100
AcDbSymbolTable
70
0
0
ENDTAB
0
TABLE
2
UCS
5
7
100
AcDbSymbolTable
70
0
0
ENDTAB
0
TABLE
2
APPID
5
9
100
AcDbSymbolTable
70
2
0
APPID
5
12
100
AcDbSymbolTableRecord
100
AcDbRegAppTableRecord
2
ACAD
70
0
0
ENDTAB
0
TABLE
2
DIMSTYLE
5
A
100
AcDbSymbolTable
70
1
0
ENDTAB
0
TABLE
2
BLOCK_RECORD
5
1
100
AcDbSymbolTable
70
1
0
BLOCK_RECORD
5
1F
100
AcDbSymbolTableRecord
100
AcDbBlockTableRecord
2
*MODEL_SPACE
0
BLOCK_RECORD
5
1B
100
AcDbSymbolTableRecord
100
AcDbBlockTableRecord
2
*PAPER_SPACE
0
ENDTAB
0
ENDSEC
0
SECTION
2
BLOCKS
0
BLOCK
5
20
100
AcDbEntity
100
AcDbBlockBegin
2
*MODEL_SPACE
0
ENDBLK
5
21
100
AcDbEntity
100
AcDbBlockEnd
0
BLOCK
5
1C
100
AcDbEntity
100
AcDbBlockBegin
2
*PAPER_SPACE
0
ENDBLK
5
1D
100
AcDbEntity
100
AcDbBlockEnd
0
ENDSEC
0
SECTION
2
ENTITIES
0
CIRCLE
5
100
100
AcDbEntity
8
0
100
AcDbCircle
10
-322.62930676526736
20
-31.194920553665213
30
0
40
1.4999999999999858
210
-7.1843915407278207e-48
220
-1.5407439555097887e-32
230
1
0
CIRCLE
5
101
100
AcDbEntity
8
0
100
AcDbCircle
10
-322.63245253826318
20
-164.18513808106155
30
0
40
1.4999999999999858
210
-7.1843915407278207e-48
220
-1.5407439555097887e-32
230
1
0
CIRCLE
5
102
100
AcDbEntity
8
0
100
AcDbCircle
10
-146.90245253826282
20
-164.18513808106184
30
0
40
1.4999999999999858
210
-7.1843915407278207e-48
220
-1.5407439555097887e-32
230
1
0
CIRCLE
5
103
100
AcDbEntity
8
0
100
AcDbCircle
10
-146.90559831125796
20
-31.194920553665497
30
0
40
1.4999999999999858
210
-7.1843915407278207e-48
220
-1.5407439555097887e-32
230
1
0
LWPOLYLINE
5
104
100
AcDbEntity
8
0
100
AcDbPolyline
90
22
70
1
43
0.0
10
-152.90245253826296
20
-141.96571854498697
42
1.0000000074505806
10
-148.73800596633484
20
-146.28513803718209
10
-140.90245253826259
20
-146.28513808106163
10
-140.90245253826259
20
-176.18513808106172
10
-195.64796014319415
20
-176.18513808106167
42
0.99999999999999989
10
-199.86745253826263
20
-180.45080144423935
10
-199.86745253826263
20
-182.18513808106161
10
-269.66745253826286
20
-182.18513808106133
10
-269.66745253826286
20
-180.70713003597913
42
1.0000000074505806
10
-273.61100281176766
20
-176.18513808106144
10
-328.63245253826284
20
-176.18513808106144
10
-328.63245253826284
20
-146.28513808106135
10
-320.84207896133699
20
-146.28513808106132
42
1.0000000074505806
10
-316.63245253826295
20
-142.00973805554838
10
-316.63245253826267
20
-50.313988163594885
42
0.99999999999999989
10
-320.88883914892904
20
-46.08513808106153
10
-328.63245253826278
20
-46.08513808106153
10
-328.63245253826278
20
-16.185138081061439
10
-140.90245253826254
20
-16.185138081061723
10
-140.90245253826254
20
-46.085138081061814
10
-148.40262069679019
20
-46.085138081061842
42
0.9999999925494194
10
-152.90245253826271
20
-50.053955713363223
0
LINE
5
105
100
AcDbEntity
8
1
100
AcDbLine
10
-310.63245253826301
20
-170.18513808106144
30
0
11
-168.57648070041395
21
-170.18513808106144
31
0
0
LINE
5
106
100
AcDbEntity
8
1
100
AcDbLine
10
-168.57648070041395
20
-170.18513808106144
30
0
11
-168.57648070041395
21
-144.18513769363125
31
0
0
LINE
5
107
100
AcDbEntity
8
1
100
AcDbLine
10
-168.57648070041395
20
-144.18513769363125
30
0
11
-310.63245253826301
21
-144.18513769363125
31
0
0
LINE
5
108
100
AcDbEntity
8
1
100
AcDbLine
10
-310.63245253826301
20
-144.18513769363125
30
0
11
-310.63245253826301
21
-170.18513808106144
31
0
0
LINE
5
109
100
AcDbEntity
8
0
100
AcDbLine
10
-310.19370248730104
20
-170.18513852809627
30
0
11
-308.43870239521186
21
-164.92013866161068
31
0
0
LINE
5
110
100
AcDbEntity
8
0
100
AcDbLine
10
-308.43870239521186
20
-164.92013866161068
30
0
11
-306.68370234037559
21
-170.18513852809627
31
0
0
LINE
5
111
100
AcDbEntity
8
0
100
AcDbLine
10
-307.12245213056724
20
-168.86888915752132
30
0
11
-309.75495243633907
21
-168.86888915752132
31
0
0
LINE
5
112
100
AcDbEntity
8
0
100
AcDbLine
10
-305.513702204477
20
-170.18513852809627
30
0
11
-303.7587018516175
21
-170.18513852809627
31
0
0
LINE
5
113
100
AcDbEntity
8
0
100
AcDbLine
10
-302.58870201374214
20
-169.01513749812801
30
0
11
-302.58870201374214
21
-168.43013936732967
31
0
0
LINE
5
114
100
AcDbEntity
8
0
100
AcDbLine
10
-303.7587018516175
20
-167.26013833736141
30
0
11
-305.513702204477
21
-167.26013833736141
31
0
0
LINE
5
115
100
AcDbEntity
8
0
100
AcDbLine
10
-305.513702204477
20
-167.26013833736141
30
0
11
-305.513702204477
21
-164.92013866161068
31
0
0
LINE
5
116
100
AcDbEntity
8
0
100
AcDbLine
10
-305.513702204477
20
-164.92013866161068
30
0
11
-302.58870201374214
21
-164.92013866161068
31
0
0
ARC
5
117
100
AcDbEntity
8
0
100
AcDbCircle
10
-303.61824648643653
20
-169.15559465144833
30
0
40
1.0390811413526535
210
0
220
0
230
1
100
AcDbArc
50
-97.768629157970452
51
7.7686161808376433
0
ARC
5
118
100
AcDbEntity
8
0
100
AcDbCircle
10
-303.61824648643653
20
-168.28968221400936
30
0
40
1.0390811413526535
210
0
220
0
230
1
100
AcDbArc
50
-7.7686198233019326
51
97.768618685314578
0
LINE
5
119
100
AcDbEntity
8
0
100
AcDbLine
10
-300.83370166088264
20
-170.18513852809627
30
0
11
-301.1262019183747
21
-170.18513852809627
31
0
0
LINE
5
120
100
AcDbEntity
8
0
100
AcDbLine
10
-301.1262019183747
20
-170.18513852809627
30
0
11
-301.1262019183747
21
-169.8926394626971
31
0
0
LINE
5
121
100
AcDbEntity
8
0
100
AcDbLine
10
-301.1262019183747
20
-169.8926394626971
30
0
11
-300.83370166088264
21
-169.8926394626971
31
0
0
LINE
5
122
100
AcDbEntity
8
0
100
AcDbLine
10
-300.83370166088264
20
-169.8926394626971
30
0
11
-300.83370166088264
21
-170.18513852809627
31
0
0
LINE
5
123
100
AcDbEntity
8
0
100
AcDbLine
10
-300.83370166088264
20
-170.18513852809627
30
0
11
-301.27245204712074
21
-171.35513955806454
31
0
0
LINE
5
124
100
AcDbEntity
8
0
100
AcDbLine
10
-296.88495235706489
20
-171.94013768886288
30
0
11
-296.88495235706489
21
-166.67513782237728
31
0
0
LINE
5
125
100
AcDbEntity
8
0
100
AcDbLine
10
-296.88495235706489
20
-166.67513782237728
30
0
11
-295.42245226169746
21
-166.67513782237728
31
0
0
LINE
5
126
100
AcDbEntity
8
0
100
AcDbLine
10
-294.54495148922126
20
-167.55263740276058
30
0
11
-294.54495148922126
21
-169.30763894771297
31
0
0
LINE
5
127
100
AcDbEntity
8
0
100
AcDbLine
10
-295.42245226169746
20
-170.18513852809627
30
0
11
-296.88495235706489
21
-170.18513852809627
31
0
0
ARC
5
128
100
AcDbEntity
8
0
100
AcDbCircle
10
-295.31711058880012
20
-167.44729692195614
30
0
40
0.77931083738803864
210
0
220
0
230
1
100
AcDbArc
50
-7.7686198233021866
51
97.768618685316738
0
ARC
5
129
100
AcDbEntity
8
0
100
AcDbCircle
10
-295.31711058880012
20
-169.41297942851742
30
0
40
0.77931083738803864
210
0
220
0
230
1
100
AcDbArc
50
-97.768629157970494
51
7.7686161808382082
0
LINE
5
130
100
AcDbEntity
8
0
100
AcDbLine
10
-290.7424517181031
20
-170.18513852809627
30
0
11
-292.20495181347053
21
-170.18513852809627
31
0
0
LINE
5
131
100
AcDbEntity
8
0
100
AcDbLine
10
-293.08245139385383
20
-169.30763894771297
30
0
11
-293.08245139385383
21
-167.84513885234554
31
0
0
LINE
5
132
100
AcDbEntity
8
0
100
AcDbLine
10
-290.7424517181031
20
-167.84513885234554
30
0
11
-290.7424517181031
21
-168.43013936732967
31
0
0
LINE
5
133
100
AcDbEntity
8
0
100
AcDbLine
10
-290.7424517181031
20
-168.43013936732967
30
0
11
-293.08245139385383
21
-168.43013936732967
31
0
0
ARC
5
134
100
AcDbEntity
8
0
100
AcDbCircle
10
-292.31029348636787
20
-169.41297942851742
30
0
40
0.77931083738803864
210
0
220
0
230
1
100
AcDbArc
50
172.23138882811776
51
277.76860320370707
0
ARC
5
135
100
AcDbEntity
8
0
100
AcDbCircle
10
-291.91245155597846
20
-167.84513885234554
30
0
40
1.1700000613927839
210
0
220
0
230
1
100
AcDbArc
50
0
51
180.00000497831306
0
LINE
5
136
100
AcDbEntity
8
0
100
AcDbLine
10
-286.93994956279914
20
-164.92013866161068
30
0
11
-286.93994956279914
21
-170.18513852809627
31
0
0
LINE
5
137
100
AcDbEntity
8
0
100
AcDbLine
10
-286.93994956279914
20
-170.18513852809627
30
0
11
-288.40244965816657
21
-170.18513852809627
31
0
0
LINE
5
138
100
AcDbEntity
8
0
100
AcDbLine
10
-289.27995162273567
20
-169.30763894771297
30
0
11
-289.27995162273567
21
-167.55263740276058
31
0
0
LINE
5
139
100
AcDbEntity
8
0
100
AcDbLine
10
-288.40244965816657
20
-166.67513782237728
30
0
11
-286.93994956279914
21
-166.67513782237728
31
0
0
ARC
5
140
100
AcDbEntity
8
0
100
AcDbCircle
10
-288.50779252315681
20
-169.41297942851742
30
0
40
0.77931083738803864
210
0
220
0
230
1
100
AcDbArc
50
172.23138882811776
51
277.76860320370707
0
ARC
5
141
100
AcDbEntity
8
0
100
AcDbCircle
10
-288.50779252315681
20
-167.44729692195614
30
0
40
0.77931083738803864
210
0
220
0
230
1
100
AcDbArc
50
82.23138632364001
51
187.76862118979309
0
LINE
5
142
100
AcDbEntity
8
0
100
AcDbLine
10
-282.9911990668885
20
-168.13763791774471
30
0
11
-284.30745082164924
21
-168.13763791774471
31
0
0
LINE
5
143
100
AcDbEntity
8
0
100
AcDbLine
10
-284.30745082164924
20
-170.18513852809627
30
0
11
-282.9911990668885
21
-170.18513852809627
31
0
0
LINE
5
144
100
AcDbEntity
8
0
100
AcDbLine
10
-282.9911990668885
20
-170.18513852809627
30
0
11
-282.9911990668885
21
-167.55263740276058
31
0
0
LINE
5
145
100
AcDbEntity
8
0
100
AcDbLine
10
-283.8686986472718
20
-166.67513782237728
30
0
11
-285.03869967724006
21
-166.67513782237728
31
0
0
ARC
5
146
100
AcDbEntity
8
0
100
AcDbCircle
10
-284.30745082164924
20
-169.16138822292049
30
0
40
1.0237500816583633
210
0
220
0
230
1
100
AcDbArc
50
90.000002504477479
51
270.00000068324493
0
ARC
5
147
100
AcDbEntity
8
0
100
AcDbCircle
10
-283.76335816646736
20
-167.44729692195614
30
0
40
0.77931083738803864
210
0
220
0
230
1
100
AcDbArc
50
-7.7686198233021866
51
97.768618685316738
0
LINE
5
148
100
AcDbEntity
8
0
100
AcDbLine
10
-281.2361999061219
20
-164.92013866161068
30
0
11
-281.2361999061219
21
-169.30763894771297
31
0
0
ARC
5
149
100
AcDbEntity
8
0
100
AcDbCircle
10
-280.46404080654304
20
-169.41297942851742
30
0
40
0.77931083738803864
210
0
220
0
230
1
100
AcDbArc
50
172.23138882811776
51
277.76860320370707
0
LINE
5
150
100
AcDbEntity
8
0
100
AcDbLine
10
-276.55620055462043
20
-164.92013866161068
30
0
11
-276.55620055462043
21
-170.18513852809627
31
0
0
LINE
5
151
100
AcDbEntity
8
0
100
AcDbLine
10
-276.55620055462043
20
-170.18513852809627
30
0
11
-275.093700459253
21
-170.18513852809627
31
0
0
LINE
5
152
100
AcDbEntity
8
0
100
AcDbLine
10
-274.2162008788697
20
-169.30763894771297
30
0
11
-274.2162008788697
21
-167.55263740276058
31
0
0
LINE
5
153
100
AcDbEntity
8
0
100
AcDbLine
10
-275.093700459253
20
-166.67513782237728
30
0
11
-276.55620055462043
21
-166.67513782237728
31
0
0
ARC
5
154
100
AcDbEntity
8
0
100
AcDbCircle
10
-274.98835759426277
20
-169.41297942851742
30
0
40
0.77931083738803864
210
0
220
0
230
1
100
AcDbArc
50
-97.768629157970494
51
7.7686161808382082
0
ARC
5
155
100
AcDbEntity
8
0
100
AcDbCircle
10
-274.98835759426277
20
-167.44729692195614
30
0
40
0.77931083738803864
210
0
220
0
230
1
100
AcDbArc
50
-7.7686198233021866
51
97.768618685316738
0
LINE
5
156
100
AcDbEntity
8
0
100
AcDbLine
10
-272.60745005870979
20
-170.18513852809627
30
0
11
-272.60745005870979
21
-166.67513782237728
31
0
0
LINE
5
157
100
AcDbEntity
8
0
100
AcDbLine
10
-272.60745005870979
20
-166.67513782237728
30
0
11
-270.85244851375739
21
-166.67513782237728
31
0
0
LINE
5
158
100
AcDbEntity
8
0
100
AcDbLine
10
-270.85244851375739
20
-166.67513782237728
30
0
11
-270.85244851375739
21
-167.26013833736141
31
0
0
LINE
5
159
100
AcDbEntity
8
0
100
AcDbLine
10
-267.3424478080384
20
-168.13763791774471
30
0
11
-268.65869956279914
21
-168.13763791774471
31
0
0
LINE
5
160
100
AcDbEntity
8
0
100
AcDbLine
10
-268.65869956279914
20
-170.18513852809627
30
0
11
-267.3424478080384
21
-170.18513852809627
31
0
0
LINE
5
161
100
AcDbEntity
8
0
100
AcDbLine
10
-267.3424478080384
20
-170.18513852809627
30
0
11
-267.3424478080384
21
-167.55263740276058
31
0
0
LINE
5
162
100
AcDbEntity
8
0
100
AcDbLine
10
-268.2199473884217
20
-166.67513782237728
30
0
11
-269.38994841838996
21
-166.67513782237728
31
0
0
ARC
5
163
100
AcDbEntity
8
0
100
AcDbCircle
10
-268.65869956279914
20
-169.16138822292049
30
0
40
1.0237500816583633
210
0
220
0
230
1
100
AcDbArc
50
90.000002504477479
51
270.00000068324493
0
ARC
5
164
100
AcDbEntity
8
0
100
AcDbCircle
10
-268.11460929180305
20
-167.44729692195614
30
0
40
0.77931083738803864
210
0
220
0
230
1
100
AcDbArc
50
-7.7686198233021866
51
97.768618685316738
0
LINE
5
165
100
AcDbEntity
8
0
100
AcDbLine
10
-263.68619876171272
20
-170.18513852809627
30
0
11
-264.85619979168098
21
-170.18513852809627
31
0
0
LINE
5
166
100
AcDbEntity
8
0
100
AcDbLine
10
-265.73369937206428
20
-169.30763894771297
30
0
11
-265.73369937206428
21
-167.55263740276058
31
0
0
LINE
5
167
100
AcDbEntity
8
0
100
AcDbLine
10
-264.85619979168098
20
-166.67513782237728
30
0
11
-263.68619876171272
21
-166.67513782237728
31
0
0
ARC
5
168
100
AcDbEntity
8
0
100
AcDbCircle
10
-264.96153788829963
20
-169.41297942851742
30
0
40
0.77931083738803864
210
0
220
0
230
1
100
AcDbArc
50
172.23138882811776
51
277.76860320370707
0
ARC
5
169
100
AcDbEntity
8
0
100
AcDbCircle
10
-264.96153788829963
20
-167.44729692195614
30
0
40
0.77931083738803864
210
0
220
0
230
1
100
AcDbArc
50
82.23138632364001
51
187.76862118979309
0
LINE
5
170
100
AcDbEntity
8
0
100
AcDbLine
10
-262.22369628215949
20
-170.18513852809627
30
0
11
-262.22369628215949
21
-164.92013866161068
31
0
0
LINE
5
171
100
AcDbEntity
8
0
100
AcDbLine
10
-259.88369422222297
20
-166.67513782237728
30
0
11
-262.22369628215949
21
-168.43013936732967
31
0
0
LINE
5
172
100
AcDbEntity
8
0
100
AcDbLine
10
-259.88369422222297
20
-170.18513852809627
30
0
11
-261.19994597698371
21
-167.69888812755306
31
0
0
LINE
5
173
100
AcDbEntity
8
0
100
AcDbLine
10
-256.22744517589729
20
-170.18513852809627
30
0
11
-257.68994765545051
21
-170.18513852809627
31
0
0
LINE
5
174
100
AcDbEntity
8
0
100
AcDbLine
10
-258.56744723583381
20
-169.30763894771297
30
0
11
-258.56744723583381
21
-167.84513885234554
31
0
0
LINE
5
175
100
AcDbEntity
8
0
100
AcDbLine
10
-256.22744517589729
20
-167.84513885234554
30
0
11
-256.22744517589729
21
-168.43013936732967
31
0
0
LINE
5
176
100
AcDbEntity
8
0
100
AcDbLine
10
-256.22744517589729
20
-168.43013936732967
30
0
11
-258.56744723583381
21
-168.43013936732967
31
0
0
ARC
5
177
100
AcDbEntity
8
0
100
AcDbCircle
10
-257.79528575206916
20
-169.41297942851742
30
0
40
0.77931083738803864
210
0
220
0
230
1
100
AcDbArc
50
172.23138882811776
51
277.76860320370707
0
ARC
5
178
100
AcDbEntity
8
0
100
AcDbCircle
10
-257.39744620586555
20
-167.84513885234554
30
0
40
1.1700000613927841
210
0
220
0
230
1
100
AcDbArc
50
0
51
180.00000497831306
0
LINE
5
179
100
AcDbEntity
8
0
100
AcDbLine
10
-255.057444145929
20
-166.67513782237728
30
0
11
-253.3024449851624
21
-166.67513782237728
31
0
0
LINE
5
180
100
AcDbEntity
8
0
100
AcDbLine
10
-254.47244601513066
20
-164.92013866161068
30
0
11
-254.47244601513066
21
-169.30763894771297
31
0
0
LINE
5
181
100
AcDbEntity
8
0
100
AcDbLine
10
-253.59494643474736
20
-170.18513852809627
30
0
11
-253.3024449851624
21
-170.18513852809627
31
0
0
ARC
5
182
100
AcDbEntity
8
0
100
AcDbCircle
10
-253.70028929973759
20
-169.41297942851742
30
0
40
0.77931083738803864
210
0
220
0
230
1
100
AcDbArc
50
172.2313888281183
51
277.76860320370298
0
LINE
5
183
100
AcDbEntity
8
0
100
AcDbLine
10
-247.74494605327763
20
-168.72263843272884
30
0
11
-249.20744376445927
21
-168.13763791774471
31
0
0
ARC
5
184
100
AcDbEntity
8
0
100
AcDbCircle
10
-248.96904425884404
20
-167.42481881831844
30
0
40
0.75162976980209351
210
0
220
0
230
1
100
AcDbArc
50
85.872587490931267
51
251.50753671300026
0
ARC
5
185
100
AcDbEntity
8
0
100
AcDbCircle
10
-248.82803874279179
20
-169.39186507915218
30
0
40
2.7181166410446167
210
0
220
0
230
1
100
AcDbArc
50
63.110121478028404
51
91.832262221036743
0
ARC
5
186
100
AcDbEntity
8
0
100
AcDbCircle
10
-247.98995929027714
20
-169.4341343090411
30
0
40
0.75250290334224701
210
0
220
0
230
1
100
AcDbArc
50
-93.617868557841661
51
70.998006422153182
0
ARC
5
187
100
AcDbEntity
8
0
100
AcDbCircle
10
-248.30532031322636
20
-167.08814794276913
30
0
40
3.1085547804832458
210
0
220
0
230
1
100
AcDbArc
50
244.44676035660976
51
274.9435276799602
0
LINE
5
188
100
AcDbEntity
8
0
100
AcDbLine
10
-246.13619284893193
20
-166.67513782237728
30
0
11
-244.38119368816533
21
-166.67513782237728
31
0
0
LINE
5
189
100
AcDbEntity
8
0
100
AcDbLine
10
-245.55119471813359
20
-164.92013866161068
30
0
11
-245.55119471813359
21
-169.30763894771297
31
0
0
LINE
5
190
100
AcDbEntity
8
0
100
AcDbLine
10
-244.67369513775029
20
-170.18513852809627
30
0
11
-244.38119368816533
21
-170.18513852809627
31
0
0
ARC
5
191
100
AcDbEntity
8
0
100
AcDbCircle
10
-244.77903800274052
20
-169.41297942851742
30
0
40
0.77931083738803864
210
0
220
0
230
1
100
AcDbArc
50
172.2313888281183
51
277.76860320370298
0
LINE
5
192
100
AcDbEntity
8
0
100
AcDbLine
10
-242.91869597698368
20
-170.18513852809627
30
0
11
-242.91869597698368
21
-166.67513782237728
31
0
0
LINE
5
193
100
AcDbEntity
8
0
100
AcDbLine
10
-243.06494670177617
20
-165.21263772700985
30
0
11
-243.06494670177617
21
-164.92013866161068
31
0
0
LINE
5
194
100
AcDbEntity
8
0
100
AcDbLine
10
-243.06494670177617
20
-164.92013866161068
30
0
11
-242.7724452521912
21
-164.92013866161068
31
0
0
LINE
5
195
100
AcDbEntity
8
0
100
AcDbLine
10
-242.7724452521912
20
-164.92013866161068
30
0
11
-242.7724452521912
21
-165.21263772700985
31
0
0
LINE
5
196
100
AcDbEntity
8
0
100
AcDbLine
10
-242.7724452521912
20
-165.21263772700985
30
0
11
-243.06494670177617
21
-165.21263772700985
31
0
0
LINE
5
197
100
AcDbEntity
8
0
100
AcDbLine
10
-241.0174460914246
20
-170.18513852809627
30
0
11
-241.0174460914246
21
-165.79763824199398
31
0
0
LINE
5
198
100
AcDbEntity
8
0
100
AcDbLine
10
-240.1399465110413
20
-164.92013866161068
30
0
11
-239.84744506145634
21
-164.92013866161068
31
0
0
LINE
5
199
100
AcDbEntity
8
0
100
AcDbLine
10
-241.60244422222294
20
-166.67513782237728
30
0
11
-239.84744506145634
21
-166.67513782237728
31
0
0
ARC
5
200
100
AcDbEntity
8
0
100
AcDbCircle
10
-240.24528937603154
20
-165.69229776118954
30
0
40
0.77931083738803864
210
0
220
0
230
1
100
AcDbArc
50
82.231386323642099
51
187.76862118979287
0
LINE
5
201
100
AcDbEntity
8
0
100
AcDbLine
10
-238.53119807506718
20
-170.18513852809627
30
0
11
-238.53119807506718
21
-165.79763824199398
31
0
0
LINE
5
202
100
AcDbEntity
8
0
100
AcDbLine
10
-237.65369849468388
20
-164.92013866161068
30
0
11
-237.36119704509892
21
-164.92013866161068
31
0
0
LINE
5
203
100
AcDbEntity
8
0
100
AcDbLine
10
-239.11619620586552
20
-166.67513782237728
30
0
11
-237.36119704509892
21
-166.67513782237728
31
0
0
ARC
5
204
100
AcDbEntity
8
0
100
AcDbCircle
10
-237.75904135967411
20
-165.69229776118954
30
0
40
0.77931083738803864
210
0
220
0
230
1
100
AcDbArc
50
82.231386323642099
51
187.76862118979287
0
LINE
5
205
100
AcDbEntity
8
0
100
AcDbLine
10
-233.9974494483582
20
-170.18513852809627
30
0
11
-235.45995192791142
21
-170.18513852809627
31
0
0
LINE
5
206
100
AcDbEntity
8
0
100
AcDbLine
10
-236.33745150829472
20
-169.30763894771297
30
0
11
-236.33745150829472
21
-167.84513885234554
31
0
0
LINE
5
207
100
AcDbEntity
8
0
100
AcDbLine
10
-233.9974494483582
20
-167.84513885234554
30
0
11
-233.9974494483582
21
-168.43013936732967
31
0
0
LINE
5
208
100
AcDbEntity
8
0
100
AcDbLine
10
-233.9974494483582
20
-168.43013936732967
30
0
11
-236.33745150829472
21
-168.43013936732967
31
0
0
ARC
5
209
100
AcDbEntity
8
0
100
AcDbCircle
10
-235.56529002453007
20
-169.41297942851742
30
0
40
0.77931083738803864
210
0
220
0
230
1
100
AcDbArc
50
172.2313888281183
51
277.76860320370298
0
ARC
5
210
100
AcDbEntity
8
0
100
AcDbCircle
10
-235.16745047832646
20
-167.84513885234554
30
0
40
1.1700000613927841
210
0
220
0
230
1
100
AcDbArc
50
0
51
180.00000497831306
0
LINE
5
211
100
AcDbEntity
8
0
100
AcDbLine
10
-232.38870101238408
20
-170.18513852809627
30
0
11
-232.38870101238408
21
-166.67513782237728
31
0
0
LINE
5
212
100
AcDbEntity
8
0
100
AcDbLine
10
-232.38870101238408
20
-166.67513782237728
30
0
11
-230.92619853283085
21
-166.67513782237728
31
0
0
LINE
5
213
100
AcDbEntity
8
0
100
AcDbLine
10
-230.04869895244755
20
-167.55263740276058
30
0
11
-230.04869895244755
21
-170.18513852809627
31
0
0
ARC
5
214
100
AcDbEntity
8
0
100
AcDbCircle
10
-230.8208604362122
20
-167.44729692195614
30
0
40
0.77931083738803864
210
0
220
0
230
1
100
AcDbArc
50
-7.7686198233024921
51
97.768618685316738
0
LINE
5
215
100
AcDbEntity
8
0
100
AcDbLine
10
-226.09995322490849
20
-170.18513852809627
30
0
11
-227.56245093609013
21
-170.18513852809627
31
0
0
LINE
5
216
100
AcDbEntity
8
0
100
AcDbLine
10
-228.43995528484501
20
-169.30763894771297
30
0
11
-228.43995528484501
21
-167.84513885234554
31
0
0
LINE
5
217
100
AcDbEntity
8
0
100
AcDbLine
10
-226.09995322490849
20
-167.84513885234554
30
0
11
-226.09995322490849
21
-168.43013936732967
31
0
0
LINE
5
218
100
AcDbEntity
8
0
100
AcDbLine
10
-226.09995322490849
20
-168.43013936732967
30
0
11
-228.43995528484501
21
-168.43013936732967
31
0
0
ARC
5
219
100
AcDbEntity
8
0
100
AcDbCircle
10
-227.66779380108036
20
-169.41297942851742
30
0
40
0.77931083738803864
210
0
220
0
230
1
100
AcDbArc
50
172.2313888281183
51
277.76860320370298
0
ARC
5
220
100
AcDbEntity
8
0
100
AcDbCircle
10
-227.26994948650517
20
-167.84513885234554
30
0
40
1.1700000613927841
210
0
220
0
230
1
100
AcDbArc
50
0
51
180.00000497831306
0
LINE
5
221
100
AcDbEntity
8
0
100
AcDbLine
10
-224.49120002056279
20
-170.18513852809627
30
0
11
-224.49120002056279
21
-166.67513782237728
31
0
0
LINE
5
222
100
AcDbEntity
8
0
100
AcDbLine
10
-224.49120002056279
20
-166.67513782237728
30
0
11
-222.73620085979618
21
-166.67513782237728
31
0
0
LINE
5
223
100
AcDbEntity
8
0
100
AcDbLine
10
-222.73620085979618
20
-166.67513782237728
30
0
11
-222.73620085979618
21
-167.26013833736141
31
0
0
LINE
5
224
100
AcDbEntity
8
0
100
AcDbLine
10
-221.27370314861454
20
-170.18513852809627
30
0
11
-221.5662045981995
21
-170.18513852809627
31
0
0
LINE
5
225
100
AcDbEntity
8
0
100
AcDbLine
10
-221.5662045981995
20
-170.18513852809627
30
0
11
-221.5662045981995
21
-169.8926394626971
31
0
0
LINE
5
226
100
AcDbEntity
8
0
100
AcDbLine
10
-221.5662045981995
20
-169.8926394626971
30
0
11
-221.27370314861454
21
-169.8926394626971
31
0
0
LINE
5
227
100
AcDbEntity
8
0
100
AcDbLine
10
-221.27370314861454
20
-169.8926394626971
30
0
11
-221.27370314861454
21
-170.18513852809627
31
0
0
LINE
5
228
100
AcDbEntity
8
0
100
AcDbLine
10
-221.27370314861454
20
-170.18513852809627
30
0
11
-221.7124505546204
21
-171.35513955806454
31
0
0
LINE
5
229
100
AcDbEntity
8
0
100
AcDbLine
10
-217.47120337749638
20
-166.09013730739315
30
0
11
-216.00870566631474
21
-164.92013866161068
31
0
0
LINE
5
230
100
AcDbEntity
8
0
100
AcDbLine
10
-216.00870566631474
20
-164.92013866161068
30
0
11
-216.00870566631474
21
-170.18513852809627
31
0
0
LINE
5
231
100
AcDbEntity
8
0
100
AcDbLine
10
-217.47120337749638
20
-170.18513852809627
30
0
11
-214.54619841838993
21
-170.18513852809627
31
0
0
LINE
5
232
100
AcDbEntity
8
0
100
AcDbLine
10
-210.88994460369267
20
-170.18513852809627
30
0
11
-208.54995208049931
21
-166.67513782237728
31
0
0
LINE
5
233
100
AcDbEntity
8
0
100
AcDbLine
10
-210.88994460369267
20
-166.67513782237728
30
0
11
-208.54995208049931
21
-170.18513852809627
31
0
0
LINE
5
234
100
AcDbEntity
8
0
100
AcDbLine
10
-204.89369826580204
20
-166.09013730739315
30
0
11
-203.4312005546204
21
-164.92013866161068
31
0
0
LINE
5
235
100
AcDbEntity
8
0
100
AcDbLine
10
-203.4312005546204
20
-164.92013866161068
30
0
11
-203.4312005546204
21
-170.18513852809627
31
0
0
LINE
5
236
100
AcDbEntity
8
0
100
AcDbLine
10
-204.89369826580204
20
-170.18513852809627
30
0
11
-201.9686933066956
21
-170.18513852809627
31
0
0
LINE
5
237
100
AcDbEntity
8
0
100
AcDbLine
10
-198.01994757915654
20
-167.26013833736141
30
0
11
-200.50619559551396
21
-170.18513852809627
31
0
0
LINE
5
238
100
AcDbEntity
8
0
100
AcDbLine
10
-200.50619559551396
20
-170.18513852809627
30
0
11
-197.58119063640751
21
-170.18513852809627
31
0
0
ARC
5
239
100
AcDbEntity
8
0
100
AcDbCircle
10
-198.7394280936829
20
-166.07837611888607
30
0
40
1.1689662933349609
210
0
220
0
230
1
100
AcDbArc
50
-7.7686198233023909
51
97.768618685316611
0
ARC
5
240
100
AcDbEntity
8
0
100
AcDbCircle
10
-199.07402472759404
20
-166.36835271571834
30
0
40
1.4589405059814451
210
0
220
0
230
1
100
AcDbArc
50
83.048174495537069
51
169.00656965301098
0
ARC
5
241
100
AcDbEntity
8
0
100
AcDbCircle
10
-198.75183539653935
20
-166.3405793354388
30
0
40
1.1752662807703018
210
0
220
0
230
1
100
AcDbArc
50
-51.483278511487931
51
5.0861029267724698
0
LINE
5
242
100
AcDbEntity
8
0
100
AcDbLine
10
-193.63243537212529
20
-170.18513852809627
30
0
11
-193.63243537212529
21
-166.67513782237728
31
0
0
LINE
5
243
100
AcDbEntity
8
0
100
AcDbLine
10
-193.63243537212529
20
-166.67513782237728
30
0
11
-190.99994139934697
21
-166.67513782237728
31
0
0
LINE
5
244
100
AcDbEntity
8
0
100
AcDbLine
10
-190.12243705059208
20
-167.55263740276058
30
0
11
-190.12243705059208
21
-170.18513852809627
31
0
0
LINE
5
245
100
AcDbEntity
8
0
100
AcDbLine
10
-191.87743621135868
20
-170.18513852809627
30
0
11
-191.87743621135868
21
-166.67513782237728
31
0
0
ARC
5
246
100
AcDbEntity
8
0
100
AcDbCircle
10
-190.89459853435673
20
-167.44729692195614
30
0
40
0.77931083738803864
210
0
220
0
230
1
100
AcDbArc
50
-7.7686198233024921
51
97.768618685316738
0
LINE
5
247
100
AcDbEntity
8
0
100
AcDbLine
10
-188.36743788982548
20
-170.18513852809627
30
0
11
-188.36743788982548
21
-166.67513782237728
31
0
0
LINE
5
248
100
AcDbEntity
8
0
100
AcDbLine
10
-188.36743788982548
20
-166.67513782237728
30
0
11
-185.73494391704716
21
-166.67513782237728
31
0
0
LINE
5
249
100
AcDbEntity
8
0
100
AcDbLine
10
-184.85743956829228
20
-167.55263740276058
30
0
11
-184.85743956829228
21
-170.18513852809627
31
0
0
LINE
5
250
100
AcDbEntity
8
0
100
AcDbLine
10
-186.61243872905888
20
-170.18513852809627
30
0
11
-186.61243872905888
21
-166.67513782237728
31
0
0
ARC
5
251
100
AcDbEntity
8
0
100
AcDbCircle
10
-185.62960105205693
20
-167.44729692195614
30
0
40
0.77931083738803864
210
0
220
0
230
1
100
AcDbArc
50
-7.7686198233024921
51
97.768618685316738
0
LINE
5
252
100
AcDbEntity
8
0
100
AcDbLine
10
-180.76243834758915
20
-171.94013768886288
30
0
11
-180.76243834758915
21
-166.67513782237728
31
0
0
LINE
5
253
100
AcDbEntity
8
0
100
AcDbLine
10
-180.76243834758915
20
-166.67513782237728
30
0
11
-179.29994063640751
21
-166.67513782237728
31
0
0
LINE
5
254
100
AcDbEntity
8
0
100
AcDbLine
10
-178.42244582439579
20
-167.55263740276058
30
0
11
-178.42244582439579
21
-169.30763894771297
31
0
0
LINE
5
255
100
AcDbEntity
8
0
100
AcDbLine
10
-179.29994063640751
20
-170.18513852809627
30
0
11
-180.76243834758915
21
-170.18513852809627
31
0
0
ARC
5
256
100
AcDbEntity
8
0
100
AcDbCircle
10
-179.19459777141728
20
-167.44729692195614
30
0
40
0.77931083738803864
210
0
220
0
230
1
100
AcDbArc
50
-7.7686198233024921
51
97.768618685316738
0
ARC
5
257
100
AcDbEntity
8
0
100
AcDbCircle
10
-179.19459777141728
20
-169.41297942851742
30
0
40
0.77931083738803864
210
0
220
0
230
1
100
AcDbArc
50
-97.768629157972583
51
7.7686161808384897
0
LINE
5
258
100
AcDbEntity
8
0
100
AcDbLine
10
-176.81369262005009
20
-164.92013866161068
30
0
11
-176.81369262005009
21
-169.30763894771297
31
0
0
ARC
5
259
100
AcDbEntity
8
0
100
AcDbCircle
10
-176.04154067302861
20
-169.41297942851742
30
0
40
0.77931083738803864
210
0
220
0
230
1
100
AcDbArc
50
172.2313888281183
51
277.76860320370298
0
LINE
5
260
100
AcDbEntity
8
0
100
AcDbLine
10
-174.76619200969853
20
-171.94013768886288
30
0
11
-174.18119864727177
21
-171.94013768886288
31
0
0
LINE
5
261
100
AcDbEntity
8
0
100
AcDbLine
10
-174.18119864727177
20
-171.94013768886288
30
0
11
-172.42619948650517
21
-166.67513782237728
31
0
0
LINE
5
262
100
AcDbEntity
8
0
100
AcDbLine
10
-174.76619200969853
20
-166.67513782237728
30
0
11
-173.59619574810185
21
-170.18513852809627
31
0
0
ENDSEC
0
SECTION
2
OBJECTS
0
DICTIONARY
5
C
100
AcDbDictionary
3
ACAD_GROUP
350
D
3
ACAD_MLINESTYLE
350
17
0
DICTIONARY
5
D
100
AcDbDictionary
0
DICTIONARY
5
1A
330
C
100
AcDbDictionary
0
DICTIONARY
5
17
100
AcDbDictionary
0
ENDSEC
0
EOF
