0
SECTION
2
HEADER
9
$INSUNITS
70
4
9
$ACADVER
1
AC1014
9
$HANDSEED
5
FFFF
0
ENDSEC
0
SECTION
2
TABLES
0
TABLE
2
VPORT
5
8
100
AcDbSymbolTable
0
ENDTAB
0
TABLE
2
LTYPE
5
5
100
AcDbSymbolTable
0
LTYPE
5
14
100
AcDbSymbolTableRecord
100
AcDbLinetypeTableRecord
2
BYBLOCK
70
0
0
LTYPE
5
15
100
AcDbSymbolTableRecord
100
AcDbLinetypeTableRecord
2
BYLAYER
70
0
0
LTYPE
5
16
100
AcDbSymbolTableRecord
100
AcDbLinetypeTableRecord
2
DASHED
70
0
3
Dashed __ __ __ __ __ __ __ __ __ __ __ __ __ _
72
65
73
2
40
0.75
49
0.5
74
0
49
-0.25
74
0
0
ENDTAB
0
TABLE
2
LAYER
5
2
100
AcDbSymbolTable
70
3
0
LAYER
5
50
100
AcDbSymbolTableRecord
100
AcDbLayerTableRecord
2
1
70
0
62
7
6
DASHED
0
LAYER
5
51
100
AcDbSymbolTableRecord
100
AcDbLayerTableRecord
2
0
70
0
62
7
6
CONTINUOUS
0
ENDTAB
0
TABLE
2
STYLE
5
3
100
AcDbSymbolTable
70
1
0
STYLE
5
11
100
AcDbSymbolTableRecord
100
AcDbTextStyleTableRecord
2
STANDARD
70
0
0
ENDTAB
0
TABLE
2
VIEW
5
6
100
AcDbSymbolTable
70
0
0
ENDTAB
0
TABLE
2
UCS
5
7
100
AcDbSymbolTable
70
0
0
ENDTAB
0
TABLE
2
APPID
5
9
100
AcDbSymbolTable
70
2
0
APPID
5
12
100
AcDbSymbolTableRecord
100
AcDbRegAppTableRecord
2
ACAD
70
0
0
ENDTAB
0
TABLE
2
DIMSTYLE
5
A
100
AcDbSymbolTable
70
1
0
ENDTAB
0
TABLE
2
BLOCK_RECORD
5
1
100
AcDbSymbolTable
70
1
0
BLOCK_RECORD
5
1F
100
AcDbSymbolTableRecord
100
AcDbBlockTableRecord
2
*MODEL_SPACE
0
BLOCK_RECORD
5
1B
100
AcDbSymbolTableRecord
100
AcDbBlockTableRecord
2
*PAPER_SPACE
0
ENDTAB
0
ENDSEC
0
SECTION
2
BLOCKS
0
BLOCK
5
20
100
AcDbEntity
100
AcDbBlockBegin
2
*MODEL_SPACE
0
ENDBLK
5
21
100
AcDbEntity
100
AcDbBlockEnd
0
BLOCK
5
1C
100
AcDbEntity
100
AcDbBlockBegin
2
*PAPER_SPACE
0
ENDBLK
5
1D
100
AcDbEntity
100
AcDbBlockEnd
0
ENDSEC
0
SECTION
2
ENTITIES
0
CIRCLE
5
100
100
AcDbEntity
8
0
100
AcDbCircle
10
-879.32835428059229
20
-2219.1555854541357
30
0
40
1.4999999999999858
210
0
220
-0
230
1
0
CIRCLE
5
101
100
AcDbEntity
8
0
100
AcDbCircle
10
-903.82835428059195
20
-2277.0205854541355
30
0
40
1.4999999999999858
210
0
220
-0
230
1
0
CIRCLE
5
102
100
AcDbEntity
8
0
100
AcDbCircle
10
-934.82835428059218
20
-2277.0205854541355
30
0
40
1.4999999999999858
210
0
220
-0
230
1
0
CIRCLE
5
103
100
AcDbEntity
8
0
100
AcDbCircle
10
-934.82835428059184
20
-2101.2905854541355
30
0
40
1.4999999999999858
210
0
220
0
230
1
0
CIRCLE
5
104
100
AcDbEntity
8
0
100
AcDbCircle
10
-903.82835428059195
20
-2101.2905854541355
30
0
40
1.4999999999999858
210
0
220
0
230
1
0
CIRCLE
5
105
100
AcDbEntity
8
0
100
AcDbCircle
10
-879.32835428059229
20
-2159.1555854541357
30
0
40
1.4999999999999858
210
0
220
0
230
1
0
LWPOLYLINE
5
106
100
AcDbEntity
8
0
100
AcDbPolyline
90
56
70
1
43
0.0
10
-952.82835428059207
20
-2154.2555854541351
10
-952.82835428059207
20
-2224.0555854541353
10
-950.97801989967525
20
-2224.0555854232184
42
-0.9999999925494194
10
-946.82835428059184
20
-2228.3892069168191
10
-946.82835424618827
20
-2294.637923482082
42
-0.9999999925494194
10
-950.6594373713433
20
-2299.2555854541356
10
-952.82835428059207
20
-2299.2555854541351
10
-952.82835428059229
20
-2329.0555854541353
10
-951.09151642416691
20
-2329.0555854541358
42
-0.99999999999999989
10
-946.82835428059229
20
-2333.2776049398312
10
-946.82835428059229
20
-2349.1555854541352
10
-913.82835428059229
20
-2349.1555854541352
42
0.41421356237309503
10
-907.82835428059229
20
-2343.1555854541361
10
-907.82835428059207
20
-2320.0368512904761
42
-0.41421356237309503
10
-901.82835428059207
20
-2314.0368512904761
10
-897.82835428059138
20
-2314.0368512904761
42
-0.41421356237309503
10
-891.8283542805915
20
-2320.0368512904761
10
-891.8283542805915
20
-2324.0368512904761
42
0.41421356237309503
10
-885.82835428059161
20
-2330.0368512904761
10
-866.82835428059207
20
-2330.0368512904761
42
0.41421356237309503
10
-860.82835428059207
20
-2324.0368512904761
10
-860.82835428059184
20
-2283.0205854541364
10
-866.82835428059207
20
-2283.0205854541364
10
-866.82835428059207
20
-2283.1205854541358
10
-887.78592490354879
20
-2283.1205854541354
42
-0.99999999999999989
10
-891.92835428059186
20
-2278.7800464488723
10
-891.92835428059198
20
-2275.1111272686549
42
-0.99999999999999989
10
-887.63424677136868
20
-2270.920585454136
10
-866.82835428059207
20
-2270.920585454136
10
-866.82835428059229
20
-2107.3905854541358
10
-887.89961634208328
20
-2107.3905854541354
42
-0.99999999999999989
10
-891.92835428059209
20
-2102.9443206596343
10
-891.92835428059198
20
-2099.2856803807927
42
-0.99999999999999989
10
-887.54312936712722
20
-2095.1905854541355
10
-866.82835428059229
20
-2095.1905854541355
10
-866.82835428059229
20
-2095.2905854541355
10
-860.82835428059207
20
-2095.2905854541355
10
-860.82835428059184
20
-2054.2743196177948
42
0.41421356237309503
10
-866.82835428059207
20
-2048.2743196177948
10
-885.82835428059127
20
-2048.2743196177948
42
0.41421356237309503
10
-891.82835428059116
20
-2054.2743196177948
10
-891.82835428059116
20
-2058.2743196177953
42
-0.41421356237309503
10
-897.82835428059116
20
-2064.2743196177953
10
-901.82835428059184
20
-2064.2743196177953
42
-0.41421356237309503
10
-907.82835428059173
20
-2058.2743196177953
10
-907.82835428059173
20
-2035.1555854541352
42
0.41421356237309503
10
-913.82835428059195
20
-2029.1555854541352
10
-946.82835428059184
20
-2029.1555854541355
10
-946.82835431242302
20
-2044.9832837751549
42
-1.0000000074505806
10
-951.04112517775297
20
-2049.2555854541361
10
-952.82835428059207
20
-2049.2555854541351
10
-952.82835428059207
20
-2079.0555854541353
10
-951.25828906718516
20
-2079.0555854211302
42
-0.9999999925494194
10
-946.82835428059195
20
-2083.1022726819069
10
-946.82835424745372
20
-2149.8078120444457
42
-0.9999999925494194
10
-950.8554265954582
20
-2154.2555854541351
0
LINE
5
107
100
AcDbEntity
8
1
100
AcDbLine
10
-940.82835428059229
20
-2107.2905854541355
30
0
11
-940.82835428059229
21
-2271.0205854541355
31
0
0
LINE
5
108
100
AcDbEntity
8
1
100
AcDbLine
10
-940.82835428059229
20
-2271.0205854541355
30
0
11
-925.45425571873864
21
-2271.0205854541355
31
0
0
LINE
5
109
100
AcDbEntity
8
1
100
AcDbLine
10
-925.45425571873864
20
-2271.0205854541355
30
0
11
-925.45425571873864
21
-2107.2905854541355
31
0
0
LINE
5
110
100
AcDbEntity
8
1
100
AcDbLine
10
-925.45425571873864
20
-2107.2905854541355
30
0
11
-940.82835428059229
21
-2107.2905854541355
31
0
0
LINE
5
111
100
AcDbEntity
8
0
100
AcDbLine
10
-940.82835473492821
20
-2115.2993206340366
30
0
11
-935.56335486844262
21
-2117.0543209868961
31
0
0
LINE
5
112
100
AcDbEntity
8
0
100
AcDbLine
10
-935.56335486844262
20
-2117.0543209868961
30
0
11
-940.82835473492821
21
-2118.8093213397556
31
0
0
LINE
5
113
100
AcDbEntity
8
0
100
AcDbLine
10
-939.51210417226036
20
-2118.3705715495639
30
0
11
-939.51210417226036
21
-2115.7380710202747
31
0
0
LINE
5
114
100
AcDbEntity
8
0
100
AcDbLine
10
-937.90335454419335
20
-2119.9793211776309
30
0
11
-937.90335454419335
21
-2121.7343215304904
31
0
0
LINE
5
115
100
AcDbEntity
8
0
100
AcDbLine
10
-939.07335438206871
20
-2122.9043213683658
30
0
11
-939.36585463956078
21
-2122.9043213683658
31
0
0
LINE
5
116
100
AcDbEntity
8
0
100
AcDbLine
10
-939.36585463956078
20
-2119.9793211776309
30
0
11
-937.90335454419335
21
-2119.9793211776309
31
0
0
ARC
5
117
100
AcDbEntity
8
0
100
AcDbCircle
10
-938.9328984208413
20
-2121.874776299625
30
0
40
1.0390811413526535
210
-0
220
0
230
1
100
AcDbArc
50
-97.76861982330621
51
7.7686186853153867
0
ARC
5
118
100
AcDbEntity
8
0
100
AcDbCircle
10
-939.36585463956078
20
-2121.4418212729984
30
0
40
1.4625000953674316
210
-0
220
0
230
1
100
AcDbArc
50
90.00000500895311
51
270
0
ARC
5
119
100
AcDbEntity
8
0
100
AcDbCircle
10
-937.62244381383141
20
-2122.0384101230197
30
0
40
2.078162282705307
210
-0
220
0
230
1
100
AcDbArc
50
-7.7686136763580436
51
97.768621189796136
0
LINE
5
120
100
AcDbEntity
8
0
100
AcDbLine
10
-940.82835473492821
20
-2124.6593217212253
30
0
11
-940.82835473492821
21
-2124.3668214637332
31
0
0
LINE
5
121
100
AcDbEntity
8
0
100
AcDbLine
10
-940.82835473492821
20
-2124.3668214637332
30
0
11
-940.53585447743615
21
-2124.3668214637332
31
0
0
LINE
5
122
100
AcDbEntity
8
0
100
AcDbLine
10
-940.53585447743615
20
-2124.3668214637332
30
0
11
-940.53585447743615
21
-2124.6593217212253
31
0
0
LINE
5
123
100
AcDbEntity
8
0
100
AcDbLine
10
-940.53585447743615
20
-2124.6593217212253
30
0
11
-940.82835473492821
21
-2124.6593217212253
31
0
0
LINE
5
124
100
AcDbEntity
8
0
100
AcDbLine
10
-940.82835473492821
20
-2124.6593217212253
30
0
11
-941.99835457280358
21
-2124.2205719310336
31
0
0
LINE
5
125
100
AcDbEntity
8
0
100
AcDbLine
10
-942.58335508778771
20
-2128.6080722171359
30
0
11
-937.31835402920922
21
-2128.6080722171359
31
0
0
LINE
5
126
100
AcDbEntity
8
0
100
AcDbLine
10
-937.31835402920922
20
-2128.6080722171359
30
0
11
-937.31835402920922
21
-2130.0705723125034
31
0
0
LINE
5
127
100
AcDbEntity
8
0
100
AcDbLine
10
-938.19585480168541
20
-2130.9480718928867
30
0
11
-939.95085515454491
21
-2130.9480718928867
31
0
0
LINE
5
128
100
AcDbEntity
8
0
100
AcDbLine
10
-940.82835473492821
20
-2130.0705723125034
30
0
11
-940.82835473492821
21
-2128.6080722171359
31
0
0
ARC
5
129
100
AcDbEntity
8
0
100
AcDbCircle
10
-938.09051312878807
20
-2130.1759151774936
30
0
40
0.77931083738803864
210
-0
220
0
230
1
100
AcDbArc
50
-97.768619823298266
51
7.7686186853042791
0
ARC
5
130
100
AcDbEntity
8
0
100
AcDbCircle
10
-940.05619682744225
20
-2130.1759151774936
30
0
40
0.77931083738803864
210
-0
220
0
230
1
100
AcDbArc
50
172.23137084205084
51
277.76861618083916
0
LINE
5
131
100
AcDbEntity
8
0
100
AcDbLine
10
-940.82835473492821
20
-2134.7505740481906
30
0
11
-940.82835473492821
21
-2133.2880739528232
31
0
0
LINE
5
132
100
AcDbEntity
8
0
100
AcDbLine
10
-939.95085515454491
20
-2132.4105719882541
30
0
11
-938.48835505917748
21
-2132.4105719882541
31
0
0
LINE
5
133
100
AcDbEntity
8
0
100
AcDbLine
10
-938.48835505917748
20
-2134.7505740481906
30
0
11
-939.07335438206871
21
-2134.7505740481906
31
0
0
LINE
5
134
100
AcDbEntity
8
0
100
AcDbLine
10
-939.07335438206871
20
-2134.7505740481906
30
0
11
-939.07335438206871
21
-2132.4105719882541
31
0
0
ARC
5
135
100
AcDbEntity
8
0
100
AcDbCircle
10
-940.05619682744225
20
-2133.182731087833
30
0
40
0.77931083738803864
210
-0
220
0
230
1
100
AcDbArc
50
82.231388828119748
51
187.76860320371478
0
ARC
5
136
100
AcDbEntity
8
0
100
AcDbCircle
10
-938.48835505917748
20
-2133.5805730182224
30
0
40
1.1700000613927841
210
-0
220
0
230
1
100
AcDbArc
50
-90
51
90.00000500895429
0
LINE
5
137
100
AcDbEntity
8
0
100
AcDbLine
10
-935.56335486844262
20
-2138.5530738193088
30
0
11
-940.82835473492821
21
-2138.5530738193088
31
0
0
LINE
5
138
100
AcDbEntity
8
0
100
AcDbLine
10
-940.82835473492821
20
-2138.5530738193088
30
0
11
-940.82835473492821
21
-2137.0905737239414
31
0
0
LINE
5
139
100
AcDbEntity
8
0
100
AcDbLine
10
-939.95085515454491
20
-2136.2130717593723
30
0
11
-938.19585480168541
21
-2136.2130717593723
31
0
0
LINE
5
140
100
AcDbEntity
8
0
100
AcDbLine
10
-937.31835402920922
20
-2137.0905737239414
30
0
11
-937.31835402920922
21
-2138.5530738193088
31
0
0
ARC
5
141
100
AcDbEntity
8
0
100
AcDbCircle
10
-940.05619682744225
20
-2136.9852308589511
30
0
40
0.77931083738803864
210
-0
220
0
230
1
100
AcDbArc
50
82.231388828119748
51
187.76860320371478
0
ARC
5
142
100
AcDbEntity
8
0
100
AcDbCircle
10
-938.09051312878807
20
-2136.9852308589511
30
0
40
0.77931083738803864
210
-0
220
0
230
1
100
AcDbArc
50
-7.7686136763608422
51
97.768621189794302
0
LINE
5
143
100
AcDbEntity
8
0
100
AcDbLine
10
-938.78085412457665
20
-2142.5018243152194
30
0
11
-938.78085412457665
21
-2141.1855725604587
31
0
0
LINE
5
144
100
AcDbEntity
8
0
100
AcDbLine
10
-940.82835473492821
20
-2141.1855725604587
30
0
11
-940.82835473492821
21
-2142.5018243152194
31
0
0
LINE
5
145
100
AcDbEntity
8
0
100
AcDbLine
10
-940.82835473492821
20
-2142.5018243152194
30
0
11
-938.19585480168541
21
-2142.5018243152194
31
0
0
LINE
5
146
100
AcDbEntity
8
0
100
AcDbLine
10
-937.31835402920922
20
-2141.6243247348361
30
0
11
-937.31835402920922
21
-2140.4543237048679
31
0
0
ARC
5
147
100
AcDbEntity
8
0
100
AcDbCircle
10
-939.80460442975243
20
-2141.1855725604587
30
0
40
1.0237500816583633
210
-0
220
0
230
1
100
AcDbArc
50
2.4148365394514667e-06
51
180
0
ARC
5
148
100
AcDbEntity
8
0
100
AcDbCircle
10
-938.09051312878807
20
-2141.7296652156406
30
0
40
0.77931083738803864
210
-0
220
0
230
1
100
AcDbArc
50
-97.768619823298266
51
7.7686186853042791
0
LINE
5
149
100
AcDbEntity
8
0
100
AcDbLine
10
-935.56335486844262
20
-2144.256823475986
30
0
11
-939.95085515454491
21
-2144.256823475986
31
0
0
ARC
5
150
100
AcDbEntity
8
0
100
AcDbCircle
10
-940.05619682744225
20
-2145.0289825755649
30
0
40
0.77931083738803864
210
-0
220
0
230
1
100
AcDbArc
50
82.231388828119748
51
187.76860320371478
0
LINE
5
151
100
AcDbEntity
8
0
100
AcDbLine
10
-940.82835473492821
20
-2148.9368228274875
30
0
11
-937.31835402920922
21
-2148.9368228274875
31
0
0
LINE
5
152
100
AcDbEntity
8
0
100
AcDbLine
10
-937.31835402920922
20
-2148.9368228274875
30
0
11
-937.31835402920922
21
-2150.6918219882541
31
0
0
LINE
5
153
100
AcDbEntity
8
0
100
AcDbLine
10
-937.31835402920922
20
-2150.6918219882541
30
0
11
-937.90335454419335
21
-2150.6918219882541
31
0
0
LINE
5
154
100
AcDbEntity
8
0
100
AcDbLine
10
-937.31835402920922
20
-2152.0080737430148
30
0
11
-939.95085515454491
21
-2152.0080737430148
31
0
0
LINE
5
155
100
AcDbEntity
8
0
100
AcDbLine
10
-940.82835473492821
20
-2152.8855733233981
30
0
11
-940.82835473492821
21
-2154.3480758029514
31
0
0
LINE
5
156
100
AcDbEntity
8
0
100
AcDbLine
10
-940.82835473492821
20
-2154.3480758029514
30
0
11
-937.31835402920922
21
-2154.3480758029514
31
0
0
ARC
5
157
100
AcDbEntity
8
0
100
AcDbCircle
10
-940.05619682744225
20
-2152.7802304584079
30
0
40
0.77931083738803864
210
-0
220
0
230
1
100
AcDbArc
50
82.231388828119748
51
187.76860320371478
0
LINE
5
158
100
AcDbEntity
8
0
100
AcDbLine
10
-935.56335486844262
20
-2156.103074963718
30
0
11
-940.82835473492821
21
-2156.103074963718
31
0
0
LINE
5
159
100
AcDbEntity
8
0
100
AcDbLine
10
-940.82835473492821
20
-2156.103074963718
30
0
11
-940.82835473492821
21
-2157.5655774432712
31
0
0
LINE
5
160
100
AcDbEntity
8
0
100
AcDbLine
10
-939.95085515454491
20
-2158.4430770236545
30
0
11
-938.19585480168541
21
-2158.4430770236545
31
0
0
LINE
5
161
100
AcDbEntity
8
0
100
AcDbLine
10
-937.31835402920922
20
-2157.5655774432712
30
0
11
-937.31835402920922
21
-2156.103074963718
31
0
0
ARC
5
162
100
AcDbEntity
8
0
100
AcDbCircle
10
-940.05619682744225
20
-2157.6709155398898
30
0
40
0.77931083738803864
210
-0
220
0
230
1
100
AcDbArc
50
172.23137084205084
51
277.76861618083916
0
ARC
5
163
100
AcDbEntity
8
0
100
AcDbCircle
10
-938.09051312878807
20
-2157.6709155398898
30
0
40
0.77931083738803864
210
-0
220
0
230
1
100
AcDbArc
50
-97.768619823298266
51
7.7686186853042791
0
LINE
5
164
100
AcDbEntity
8
0
100
AcDbLine
10
-935.56335486844262
20
-2160.0518254596286
30
0
11
-940.82835473492821
21
-2160.0518254596286
31
0
0
LINE
5
165
100
AcDbEntity
8
0
100
AcDbLine
10
-940.82835473492821
20
-2160.0518254596286
30
0
11
-940.82835473492821
21
-2161.5143279391818
31
0
0
LINE
5
166
100
AcDbEntity
8
0
100
AcDbLine
10
-939.95085515454491
20
-2162.3918275195651
30
0
11
-938.19585480168541
21
-2162.3918275195651
31
0
0
LINE
5
167
100
AcDbEntity
8
0
100
AcDbLine
10
-937.31835402920922
20
-2161.5143279391818
30
0
11
-937.31835402920922
21
-2160.0518254596286
31
0
0
ARC
5
168
100
AcDbEntity
8
0
100
AcDbCircle
10
-940.05619682744225
20
-2161.6196660358005
30
0
40
0.77931083738803864
210
-0
220
0
230
1
100
AcDbArc
50
172.23137084205084
51
277.76861618083916
0
ARC
5
169
100
AcDbEntity
8
0
100
AcDbCircle
10
-938.09051312878807
20
-2161.6196660358005
30
0
40
0.77931083738803864
210
-0
220
0
230
1
100
AcDbArc
50
-97.768619823298266
51
7.7686186853042791
0
LINE
5
170
100
AcDbEntity
8
0
100
AcDbLine
10
-940.82835473492821
20
-2166.1943272906833
30
0
11
-940.82835473492821
21
-2164.7318248111301
31
0
0
LINE
5
171
100
AcDbEntity
8
0
100
AcDbLine
10
-939.95085515454491
20
-2163.8543252307468
30
0
11
-938.48835505917748
21
-2163.8543252307468
31
0
0
LINE
5
172
100
AcDbEntity
8
0
100
AcDbLine
10
-938.48835505917748
20
-2166.1943272906833
30
0
11
-939.07335438206871
21
-2166.1943272906833
31
0
0
LINE
5
173
100
AcDbEntity
8
0
100
AcDbLine
10
-939.07335438206871
20
-2166.1943272906833
30
0
11
-939.07335438206871
21
-2163.8543252307468
31
0
0
ARC
5
174
100
AcDbEntity
8
0
100
AcDbCircle
10
-940.05619682744225
20
-2164.6264867145114
30
0
40
0.77931083738803864
210
-0
220
0
230
1
100
AcDbArc
50
82.231388828119748
51
187.76860320371478
0
ARC
5
175
100
AcDbEntity
8
0
100
AcDbCircle
10
-938.48835505917748
20
-2165.024326260715
30
0
40
1.1700000613927841
210
-0
220
0
230
1
100
AcDbArc
50
-90
51
90.00000500895429
0
LINE
5
176
100
AcDbEntity
8
0
100
AcDbLine
10
-940.82835473492821
20
-2167.8030757266574
30
0
11
-937.31835402920922
21
-2167.8030757266574
31
0
0
LINE
5
177
100
AcDbEntity
8
0
100
AcDbLine
10
-937.31835402920922
20
-2167.8030757266574
30
0
11
-937.31835402920922
21
-2169.558074887424
31
0
0
LINE
5
178
100
AcDbEntity
8
0
100
AcDbLine
10
-937.31835402920922
20
-2169.558074887424
30
0
11
-937.90335454419335
21
-2169.558074887424
31
0
0
LINE
5
179
100
AcDbEntity
8
0
100
AcDbLine
10
-935.56335486844262
20
-2173.2143287021213
30
0
11
-940.82835473492821
21
-2173.2143287021213
31
0
0
LINE
5
180
100
AcDbEntity
8
0
100
AcDbLine
10
-940.82835473492821
20
-2173.2143287021213
30
0
11
-940.82835473492821
21
-2174.6768311816745
31
0
0
LINE
5
181
100
AcDbEntity
8
0
100
AcDbLine
10
-939.95085515454491
20
-2175.5543307620578
30
0
11
-938.19585480168541
21
-2175.5543307620578
31
0
0
LINE
5
182
100
AcDbEntity
8
0
100
AcDbLine
10
-937.31835402920922
20
-2174.6768311816745
30
0
11
-937.31835402920922
21
-2173.2143287021213
31
0
0
ARC
5
183
100
AcDbEntity
8
0
100
AcDbCircle
10
-940.05619682744225
20
-2174.7821692782932
30
0
40
0.77931083738803864
210
-0
220
0
230
1
100
AcDbArc
50
172.23137084205084
51
277.76861618083916
0
ARC
5
184
100
AcDbEntity
8
0
100
AcDbCircle
10
-938.09051312878807
20
-2174.7821692782932
30
0
40
0.77931083738803864
210
-0
220
0
230
1
100
AcDbArc
50
-97.768619823298266
51
7.7686186853042791
0
LINE
5
185
100
AcDbEntity
8
0
100
AcDbLine
10
-938.78085412457665
20
-2179.356830533176
30
0
11
-938.78085412457665
21
-2178.0405787784152
31
0
0
LINE
5
186
100
AcDbEntity
8
0
100
AcDbLine
10
-940.82835473492821
20
-2178.0405787784152
30
0
11
-940.82835473492821
21
-2179.356830533176
31
0
0
LINE
5
187
100
AcDbEntity
8
0
100
AcDbLine
10
-940.82835473492821
20
-2179.356830533176
30
0
11
-938.19585480168541
21
-2179.356830533176
31
0
0
LINE
5
188
100
AcDbEntity
8
0
100
AcDbLine
10
-937.31835402920922
20
-2178.4793309527927
30
0
11
-937.31835402920922
21
-2177.3093299228244
31
0
0
ARC
5
189
100
AcDbEntity
8
0
100
AcDbCircle
10
-939.80460442975243
20
-2178.0405787784152
30
0
40
1.0237500816583633
210
-0
220
0
230
1
100
AcDbArc
50
2.4148365394514667e-06
51
180
0
ARC
5
190
100
AcDbEntity
8
0
100
AcDbCircle
10
-938.09051312878807
20
-2178.5846738177829
30
0
40
0.77931083738803864
210
-0
220
0
230
1
100
AcDbArc
50
-97.768619823298266
51
7.7686186853042791
0
LINE
5
191
100
AcDbEntity
8
0
100
AcDbLine
10
-940.82835473492821
20
-2181.1118296939426
30
0
11
-937.31835402920922
21
-2181.1118296939426
31
0
0
LINE
5
192
100
AcDbEntity
8
0
100
AcDbLine
10
-937.31835402920922
20
-2181.1118296939426
30
0
11
-937.31835402920922
21
-2182.5743321734958
31
0
0
LINE
5
193
100
AcDbEntity
8
0
100
AcDbLine
10
-938.19585480168541
20
-2183.4518317538791
30
0
11
-940.82835473492821
21
-2183.4518317538791
31
0
0
ARC
5
194
100
AcDbEntity
8
0
100
AcDbCircle
10
-938.09051312878807
20
-2182.6796702701145
30
0
40
0.77931083738803864
210
-0
220
0
230
1
100
AcDbArc
50
-97.768619823298266
51
7.7686186853042791
0
LINE
5
195
100
AcDbEntity
8
0
100
AcDbLine
10
-935.56335486844262
20
-2187.4005822497897
30
0
11
-940.82835473492821
21
-2187.4005822497897
31
0
0
LINE
5
196
100
AcDbEntity
8
0
100
AcDbLine
10
-940.82835473492821
20
-2187.4005822497897
30
0
11
-940.82835473492821
21
-2185.9380797702365
31
0
0
LINE
5
197
100
AcDbEntity
8
0
100
AcDbLine
10
-939.95085515454491
20
-2185.0605801898532
30
0
11
-938.19585480168541
21
-2185.0605801898532
31
0
0
LINE
5
198
100
AcDbEntity
8
0
100
AcDbLine
10
-937.31835402920922
20
-2185.9380797702365
30
0
11
-937.31835402920922
21
-2187.4005822497897
31
0
0
ARC
5
199
100
AcDbEntity
8
0
100
AcDbCircle
10
-940.05619682744225
20
-2185.8327416736179
30
0
40
0.77931083738803864
210
-0
220
0
230
1
100
AcDbArc
50
82.231388828119748
51
187.76860320371478
0
ARC
5
200
100
AcDbEntity
8
0
100
AcDbCircle
10
-938.09051312878807
20
-2185.8327416736179
30
0
40
0.77931083738803864
210
-0
220
0
230
1
100
AcDbArc
50
-7.7686136763608422
51
97.768621189794302
0
LINE
5
201
100
AcDbEntity
8
0
100
AcDbLine
10
-938.78085412457665
20
-2193.6893395740085
30
0
11
-938.78085412457665
21
-2192.3730878192478
31
0
0
LINE
5
202
100
AcDbEntity
8
0
100
AcDbLine
10
-940.82835473492821
20
-2192.3730878192478
30
0
11
-940.82835473492821
21
-2193.6893395740085
31
0
0
LINE
5
203
100
AcDbEntity
8
0
100
AcDbLine
10
-940.82835473492821
20
-2193.6893395740085
30
0
11
-938.19585480168541
21
-2193.6893395740085
31
0
0
LINE
5
204
100
AcDbEntity
8
0
100
AcDbLine
10
-937.31835402920922
20
-2192.8118352252536
30
0
11
-937.31835402920922
21
-2191.6418389636569
31
0
0
ARC
5
205
100
AcDbEntity
8
0
100
AcDbCircle
10
-939.80460442975243
20
-2192.3730878192478
30
0
40
1.0237500816583633
210
-0
220
0
230
1
100
AcDbArc
50
2.4148365394514667e-06
51
180
0
ARC
5
206
100
AcDbEntity
8
0
100
AcDbCircle
10
-938.09051312878807
20
-2192.9171780902439
30
0
40
0.77931083738803864
210
-0
220
0
230
1
100
AcDbArc
50
-97.768619823298266
51
7.7686186853042791
0
LINE
5
207
100
AcDbEntity
8
0
100
AcDbLine
10
-940.82835473492821
20
-2195.4443387347751
30
0
11
-937.31835402920922
21
-2195.4443387347751
31
0
0
LINE
5
208
100
AcDbEntity
8
0
100
AcDbLine
10
-937.31835402920922
20
-2195.4443387347751
30
0
11
-937.31835402920922
21
-2196.9068364459567
31
0
0
LINE
5
209
100
AcDbEntity
8
0
100
AcDbLine
10
-938.19585480168541
20
-2197.7843312579685
30
0
11
-940.82835473492821
21
-2197.7843312579685
31
0
0
ARC
5
210
100
AcDbEntity
8
0
100
AcDbCircle
10
-938.09051312878807
20
-2197.012179310947
30
0
40
0.77931083738803864
210
-0
220
0
230
1
100
AcDbArc
50
-97.768619823298266
51
7.7686186853042791
0
LINE
5
211
100
AcDbEntity
8
0
100
AcDbLine
10
-940.82835473492821
20
-2201.4405850726657
30
0
11
-940.82835473492821
21
-2200.270588811069
31
0
0
LINE
5
212
100
AcDbEntity
8
0
100
AcDbLine
10
-939.95085515454491
20
-2199.3930844623142
30
0
11
-938.19585480168541
21
-2199.3930844623142
31
0
0
LINE
5
213
100
AcDbEntity
8
0
100
AcDbLine
10
-937.31835402920922
20
-2200.270588811069
30
0
11
-937.31835402920922
21
-2201.4405850726657
31
0
0
ARC
5
214
100
AcDbEntity
8
0
100
AcDbCircle
10
-940.05619682744225
20
-2200.1652459460788
30
0
40
0.77931083738803864
210
-0
220
0
230
1
100
AcDbArc
50
82.231388828119748
51
187.76860320371478
0
ARC
5
215
100
AcDbEntity
8
0
100
AcDbCircle
10
-938.09051312878807
20
-2200.1652459460788
30
0
40
0.77931083738803864
210
-0
220
0
230
1
100
AcDbArc
50
-7.7686136763608422
51
97.768621189794302
0
LINE
5
216
100
AcDbEntity
8
0
100
AcDbLine
10
-940.82835473492821
20
-2202.9030827838474
30
0
11
-935.56335486844262
21
-2202.9030827838474
31
0
0
LINE
5
217
100
AcDbEntity
8
0
100
AcDbLine
10
-937.31835402920922
20
-2202.9030827838474
30
0
11
-937.31835402920922
21
-2204.365580495029
31
0
0
LINE
5
218
100
AcDbEntity
8
0
100
AcDbLine
10
-938.19585480168541
20
-2205.2430753070407
30
0
11
-940.82835473492821
21
-2205.2430753070407
31
0
0
ARC
5
219
100
AcDbEntity
8
0
100
AcDbCircle
10
-938.09051312878807
20
-2204.4709233600192
30
0
40
0.77931083738803864
210
-0
220
0
230
1
100
AcDbArc
50
-97.768619823298266
51
7.7686186853042791
0
LINE
5
220
100
AcDbEntity
8
0
100
AcDbLine
10
-939.65835489705285
20
-2206.8518285113864
30
0
11
-938.48835505917748
21
-2206.8518285113864
31
0
0
LINE
5
221
100
AcDbEntity
8
0
100
AcDbLine
10
-938.48835505917748
20
-2209.191830571323
30
0
11
-939.65835489705285
21
-2209.191830571323
31
0
0
ARC
5
222
100
AcDbEntity
8
0
100
AcDbCircle
10
-938.48835505917748
20
-2208.0218343097263
30
0
40
1.1700000613927841
210
-0
220
0
230
1
100
AcDbArc
50
-90
51
90.00000500895429
0
ARC
5
223
100
AcDbEntity
8
0
100
AcDbCircle
10
-939.65835489705285
20
-2208.0218343097263
30
0
40
1.1700000613927841
210
-0
220
0
230
1
100
AcDbArc
50
90.00000500895429
51
270
0
LINE
5
224
100
AcDbEntity
8
0
100
AcDbLine
10
-940.82835473492821
20
-2210.8005933124118
30
0
11
-937.31835402920922
21
-2210.8005933124118
31
0
0
LINE
5
225
100
AcDbEntity
8
0
100
AcDbLine
10
-937.31835402920922
20
-2210.8005933124118
30
0
11
-937.31835402920922
21
-2212.5555924731784
31
0
0
LINE
5
226
100
AcDbEntity
8
0
100
AcDbLine
10
-937.31835402920922
20
-2212.5555924731784
30
0
11
-937.90335454419335
21
-2212.5555924731784
31
0
0
LINE
5
227
100
AcDbEntity
8
0
100
AcDbLine
10
-940.82835473492821
20
-2214.0180901843601
30
0
11
-940.82835473492821
21
-2213.7255887347751
31
0
0
LINE
5
228
100
AcDbEntity
8
0
100
AcDbLine
10
-940.82835473492821
20
-2213.7255887347751
30
0
11
-940.53585447743615
21
-2213.7255887347751
31
0
0
LINE
5
229
100
AcDbEntity
8
0
100
AcDbLine
10
-940.53585447743615
20
-2213.7255887347751
30
0
11
-940.53585447743615
21
-2214.0180901843601
31
0
0
LINE
5
230
100
AcDbEntity
8
0
100
AcDbLine
10
-940.53585447743615
20
-2214.0180901843601
30
0
11
-940.82835473492821
21
-2214.0180901843601
31
0
0
LINE
5
231
100
AcDbEntity
8
0
100
AcDbLine
10
-940.82835473492821
20
-2214.0180901843601
30
0
11
-941.99835457280358
21
-2213.5793427783542
31
0
0
LINE
5
232
100
AcDbEntity
8
0
100
AcDbLine
10
-936.73335470631798
20
-2217.8205899554782
30
0
11
-935.56335486844262
21
-2219.2830876666599
31
0
0
LINE
5
233
100
AcDbEntity
8
0
100
AcDbLine
10
-935.56335486844262
20
-2219.2830876666599
30
0
11
-940.82835473492821
21
-2219.2830876666599
31
0
0
LINE
5
234
100
AcDbEntity
8
0
100
AcDbLine
10
-940.82835473492821
20
-2217.8205899554782
30
0
11
-940.82835473492821
21
-2220.7455949145847
31
0
0
LINE
5
235
100
AcDbEntity
8
0
100
AcDbLine
10
-940.82835473492821
20
-2224.4018487292819
30
0
11
-937.31835402920922
21
-2226.7418412524753
31
0
0
LINE
5
236
100
AcDbEntity
8
0
100
AcDbLine
10
-937.31835402920922
20
-2224.4018487292819
30
0
11
-940.82835473492821
21
-2226.7418412524753
31
0
0
LINE
5
237
100
AcDbEntity
8
0
100
AcDbLine
10
-936.73335470631798
20
-2230.3980855304294
30
0
11
-935.56335486844262
21
-2231.860583241611
31
0
0
LINE
5
238
100
AcDbEntity
8
0
100
AcDbLine
10
-935.56335486844262
20
-2231.860583241611
30
0
11
-940.82835473492821
21
-2231.860583241611
31
0
0
LINE
5
239
100
AcDbEntity
8
0
100
AcDbLine
10
-940.82835473492821
20
-2230.3980855304294
30
0
11
-940.82835473492821
21
-2233.3230904895358
31
0
0
LINE
5
240
100
AcDbEntity
8
0
100
AcDbLine
10
-937.90335454419335
20
-2237.2718457538181
30
0
11
-940.82835473492821
21
-2234.7855977374606
31
0
0
LINE
5
241
100
AcDbEntity
8
0
100
AcDbLine
10
-940.82835473492821
20
-2234.7855977374606
30
0
11
-940.82835473492821
21
-2237.7106026965671
31
0
0
ARC
5
242
100
AcDbEntity
8
0
100
AcDbCircle
10
-936.72159232571801
20
-2236.5523652392917
30
0
40
1.1689662933349609
210
-0
220
0
230
1
100
AcDbArc
50
-97.768619823300355
51
7.7686186853069632
0
ARC
5
243
100
AcDbEntity
8
0
100
AcDbCircle
10
-937.01156892255028
20
-2236.2177686053806
30
0
40
1.4589405059814451
210
-0
220
0
230
1
100
AcDbArc
50
-6.9518255044774371
51
79.006569653008995
0
ARC
5
244
100
AcDbEntity
8
0
100
AcDbCircle
10
-936.98379554227074
20
-2236.5399579364353
30
0
40
1.1752662807703018
210
-0
220
0
230
1
100
AcDbArc
50
218.51672148851881
51
275.08610292677054
0
LINE
5
245
100
AcDbEntity
8
0
100
AcDbLine
10
-940.82835473492821
20
-2241.6593579608493
30
0
11
-937.31835402920922
21
-2241.6593579608493
31
0
0
LINE
5
246
100
AcDbEntity
8
0
100
AcDbLine
10
-937.31835402920922
20
-2241.6593579608493
30
0
11
-937.31835402920922
21
-2244.2918519336276
31
0
0
LINE
5
247
100
AcDbEntity
8
0
100
AcDbLine
10
-938.19585480168541
20
-2245.1693562823825
30
0
11
-940.82835473492821
21
-2245.1693562823825
31
0
0
LINE
5
248
100
AcDbEntity
8
0
100
AcDbLine
10
-940.82835473492821
20
-2243.4143571216159
30
0
11
-937.31835402920922
21
-2243.4143571216159
31
0
0
ARC
5
249
100
AcDbEntity
8
0
100
AcDbCircle
10
-938.09051312878807
20
-2244.3971947986179
30
0
40
0.77931083738803864
210
-0
220
0
230
1
100
AcDbArc
50
-97.768619823298266
51
7.7686186853042791
0
LINE
5
250
100
AcDbEntity
8
0
100
AcDbLine
10
-940.82835473492821
20
-2246.924345906406
30
0
11
-937.31835402920922
21
-2246.924345906406
31
0
0
LINE
5
251
100
AcDbEntity
8
0
100
AcDbLine
10
-937.31835402920922
20
-2246.924345906406
30
0
11
-937.31835402920922
21
-2249.5568398791843
31
0
0
LINE
5
252
100
AcDbEntity
8
0
100
AcDbLine
10
-938.19585480168541
20
-2250.4343442279392
30
0
11
-940.82835473492821
21
-2250.4343442279392
31
0
0
LINE
5
253
100
AcDbEntity
8
0
100
AcDbLine
10
-940.82835473492821
20
-2248.6793450671726
30
0
11
-937.31835402920922
21
-2248.6793450671726
31
0
0
ARC
5
254
100
AcDbEntity
8
0
100
AcDbCircle
10
-938.09051312878807
20
-2249.6621827441745
30
0
40
0.77931083738803864
210
-0
220
0
230
1
100
AcDbArc
50
-97.768619823298266
51
7.7686186853042791
0
LINE
5
255
100
AcDbEntity
8
0
100
AcDbLine
10
-942.58335508778771
20
-2254.5293454486423
30
0
11
-937.31835402920922
21
-2254.5293454486423
31
0
0
LINE
5
256
100
AcDbEntity
8
0
100
AcDbLine
10
-937.31835402920922
20
-2254.5293454486423
30
0
11
-937.31835402920922
21
-2255.9918431598239
31
0
0
LINE
5
257
100
AcDbEntity
8
0
100
AcDbLine
10
-938.19585480168541
20
-2256.8693379718356
30
0
11
-939.95085515454491
21
-2256.8693379718356
31
0
0
LINE
5
258
100
AcDbEntity
8
0
100
AcDbLine
10
-940.82835473492821
20
-2255.9918431598239
30
0
11
-940.82835473492821
21
-2254.5293454486423
31
0
0
ARC
5
259
100
AcDbEntity
8
0
100
AcDbCircle
10
-938.09051312878807
20
-2256.0971860248142
30
0
40
0.77931083738803864
210
-0
220
0
230
1
100
AcDbArc
50
-97.768619823298266
51
7.7686186853042791
0
ARC
5
260
100
AcDbEntity
8
0
100
AcDbCircle
10
-940.05619682744225
20
-2256.0971860248142
30
0
40
0.77931083738803864
210
-0
220
0
230
1
100
AcDbArc
50
172.23137084205084
51
277.76861618083916
0
LINE
5
261
100
AcDbEntity
8
0
100
AcDbLine
10
-935.56335486844262
20
-2258.4780911761814
30
0
11
-939.95085515454491
21
-2258.4780911761814
31
0
0
ARC
5
262
100
AcDbEntity
8
0
100
AcDbCircle
10
-940.05619682744225
20
-2259.2502431232028
30
0
40
0.77931083738803864
210
-0
220
0
230
1
100
AcDbArc
50
82.231388828119748
51
187.76860320371478
0
LINE
5
263
100
AcDbEntity
8
0
100
AcDbLine
10
-942.58335508778771
20
-2260.5256013232761
30
0
11
-942.58335508778771
21
-2261.1105946857028
31
0
0
LINE
5
264
100
AcDbEntity
8
0
100
AcDbLine
10
-942.58335508778771
20
-2261.1105946857028
30
0
11
-937.31835402920922
21
-2262.8655938464694
31
0
0
LINE
5
265
100
AcDbEntity
8
0
100
AcDbLine
10
-937.31835402920922
20
-2260.5256013232761
30
0
11
-940.82835473492821
21
-2261.6955975848728
31
0
0
ENDSEC
0
SECTION
2
OBJECTS
0
DICTIONARY
5
C
100
AcDbDictionary
3
ACAD_GROUP
350
D
3
ACAD_MLINESTYLE
350
17
0
DICTIONARY
5
D
100
AcDbDictionary
0
DICTIONARY
5
1A
330
C
100
AcDbDictionary
0
DICTIONARY
5
17
100
AcDbDictionary
0
ENDSEC
0
EOF
