0
SECTION
2
HEADER
9
$INSUNITS
70
4
9
$ACADVER
1
AC1014
9
$HANDSEED
5
FFFF
0
ENDSEC
0
SECTION
2
TABLES
0
TABLE
2
VPORT
5
8
100
AcDbSymbolTable
0
ENDTAB
0
TABLE
2
LTYPE
5
5
100
AcDbSymbolTable
0
LTYPE
5
14
100
AcDbSymbolTableRecord
100
AcDbLinetypeTableRecord
2
BYBLOCK
70
0
0
LTYPE
5
15
100
AcDbSymbolTableRecord
100
AcDbLinetypeTableRecord
2
BYLAYER
70
0
0
LTYPE
5
16
100
AcDbSymbolTableRecord
100
AcDbLinetypeTableRecord
2
DASHED
70
0
3
Dashed __ __ __ __ __ __ __ __ __ __ __ __ __ _
72
65
73
2
40
0.75
49
0.5
74
0
49
-0.25
74
0
0
ENDTAB
0
TABLE
2
LAYER
5
2
100
AcDbSymbolTable
70
3
0
LAYER
5
50
100
AcDbSymbolTableRecord
100
AcDbLayerTableRecord
2
1
70
0
62
7
6
DASHED
0
LAYER
5
51
100
AcDbSymbolTableRecord
100
AcDbLayerTableRecord
2
0
70
0
62
7
6
CONTINUOUS
0
ENDTAB
0
TABLE
2
STYLE
5
3
100
AcDbSymbolTable
70
1
0
STYLE
5
11
100
AcDbSymbolTableRecord
100
AcDbTextStyleTableRecord
2
STANDARD
70
0
0
ENDTAB
0
TABLE
2
VIEW
5
6
100
AcDbSymbolTable
70
0
0
ENDTAB
0
TABLE
2
UCS
5
7
100
AcDbSymbolTable
70
0
0
ENDTAB
0
TABLE
2
APPID
5
9
100
AcDbSymbolTable
70
2
0
APPID
5
12
100
AcDbSymbolTableRecord
100
AcDbRegAppTableRecord
2
ACAD
70
0
0
ENDTAB
0
TABLE
2
DIMSTYLE
5
A
100
AcDbSymbolTable
70
1
0
ENDTAB
0
TABLE
2
BLOCK_RECORD
5
1
100
AcDbSymbolTable
70
1
0
BLOCK_RECORD
5
1F
100
AcDbSymbolTableRecord
100
AcDbBlockTableRecord
2
*MODEL_SPACE
0
BLOCK_RECORD
5
1B
100
AcDbSymbolTableRecord
100
AcDbBlockTableRecord
2
*PAPER_SPACE
0
ENDTAB
0
ENDSEC
0
SECTION
2
BLOCKS
0
BLOCK
5
20
100
AcDbEntity
100
AcDbBlockBegin
2
*MODEL_SPACE
0
ENDBLK
5
21
100
AcDbEntity
100
AcDbBlockEnd
0
BLOCK
5
1C
100
AcDbEntity
100
AcDbBlockBegin
2
*PAPER_SPACE
0
ENDBLK
5
1D
100
AcDbEntity
100
AcDbBlockEnd
0
ENDSEC
0
SECTION
2
ENTITIES
0
CIRCLE
5
100
100
AcDbEntity
8
0
100
AcDbCircle
10
-549.79941175437284
20
-942.29125676889907
30
0
40
3.2500000000000284
210
0
220
0
230
1
0
CIRCLE
5
101
100
AcDbEntity
8
0
100
AcDbCircle
10
-549.79941175437239
20
-1184.0138496824684
30
0
40
3.2500000000000284
210
0
220
0
230
1
0
CIRCLE
5
102
100
AcDbEntity
8
0
100
AcDbCircle
10
-549.7994117543725
20
-975.29125676889919
30
0
40
1.4999999999999858
210
0
220
-0
230
1
0
CIRCLE
5
103
100
AcDbEntity
8
0
100
AcDbCircle
10
-549.7994117543725
20
-1151.0138496824686
30
0
40
1.4999999999999858
210
0
220
-0
230
1
0
LWPOLYLINE
5
104
100
AcDbEntity
8
0
100
AcDbPolyline
90
8
70
1
43
0.0
10
-545.79941175437216
20
-1191.017553225684
42
0.41421356237309764
10
-537.79941175437216
20
-1183.017553225684
10
-537.79941175437261
20
-943.28755322568384
42
0.41421356237309503
10
-545.79941175437273
20
-935.28755322568384
10
-553.79941175437284
20
-935.28755322568429
42
0.41421356237309503
10
-561.79941175437284
20
-943.28755322568384
10
-561.79941175437239
20
-1183.017553225684
42
0.41421356237309764
10
-553.79941175437227
20
-1191.0175532256837
0
LINE
5
105
100
AcDbEntity
8
1
100
AcDbLine
10
-559.7097726046851
20
-981.29125676889896
30
0
11
-559.70977260468476
21
-1145.0138496824686
31
0
0
LINE
5
106
100
AcDbEntity
8
1
100
AcDbLine
10
-559.70977260468476
20
-1145.0138496824686
30
0
11
-539.79941175437239
21
-1145.0138496824686
31
0
0
LINE
5
107
100
AcDbEntity
8
1
100
AcDbLine
10
-539.79941175437239
20
-1145.0138496824686
30
0
11
-539.79941175437261
21
-981.29125676889896
31
0
0
LINE
5
108
100
AcDbEntity
8
1
100
AcDbLine
10
-539.79941175437261
20
-981.29125676889896
30
0
11
-559.7097726046851
21
-981.29125676889896
31
0
0
LINE
5
109
100
AcDbEntity
8
0
100
AcDbLine
10
-552.67728970504095
20
-999.16817031641483
30
0
11
-547.4122892425089
21
-1000.9231706692743
31
0
0
LINE
5
110
100
AcDbEntity
8
0
100
AcDbLine
10
-547.4122892425089
20
-1000.9231706692743
30
0
11
-552.67728970504095
21
-1002.6781710221338
31
0
0
LINE
5
111
100
AcDbEntity
8
0
100
AcDbLine
10
-551.3610391423731
20
-1002.2394212319422
30
0
11
-551.3610391423731
21
-999.60692010660648
31
0
0
ARC
5
112
100
AcDbEntity
8
0
100
AcDbCircle
10
-551.21478960967352
20
-1005.3106697632837
30
0
40
1.4625000953674316
210
-0
220
0
230
1
100
AcDbArc
50
-90
51
90.000005008957558
0
ARC
5
113
100
AcDbEntity
8
0
100
AcDbCircle
10
-551.21478960967352
20
-1005.3106697632837
30
0
40
1.4625000953674316
210
-0
220
0
230
1
100
AcDbArc
50
90.000005008957558
51
270
0
ARC
5
114
100
AcDbEntity
8
0
100
AcDbCircle
10
-548.58228967643072
20
-1005.3106697632837
30
0
40
1.1700000613927841
210
-0
220
0
230
1
100
AcDbArc
50
-90
51
90.00000500895986
0
ARC
5
115
100
AcDbEntity
8
0
100
AcDbCircle
10
-548.58228967643072
20
-1005.3106697632837
30
0
40
1.1700000613927841
210
-0
220
0
230
1
100
AcDbArc
50
90.00000500895986
51
270
0
LINE
5
116
100
AcDbEntity
8
0
100
AcDbLine
10
-552.67728970504095
20
-1008.5281714036036
30
0
11
-552.67728970504095
21
-1008.2356699540186
31
0
0
LINE
5
117
100
AcDbEntity
8
0
100
AcDbLine
10
-552.67728970504095
20
-1008.2356699540186
30
0
11
-552.38478944754888
21
-1008.2356699540186
31
0
0
LINE
5
118
100
AcDbEntity
8
0
100
AcDbLine
10
-552.38478944754888
20
-1008.2356699540186
30
0
11
-552.38478944754888
21
-1008.5281714036036
31
0
0
LINE
5
119
100
AcDbEntity
8
0
100
AcDbLine
10
-552.38478944754888
20
-1008.5281714036036
30
0
11
-552.67728970504095
21
-1008.5281714036036
31
0
0
LINE
5
120
100
AcDbEntity
8
0
100
AcDbLine
10
-552.67728970504095
20
-1008.5281714036036
30
0
11
-553.84728954291631
21
-1008.0894216134119
31
0
0
LINE
5
121
100
AcDbEntity
8
0
100
AcDbLine
10
-554.43229005790045
20
-1012.4769218995142
30
0
11
-549.16728899932195
21
-1012.4769218995142
31
0
0
LINE
5
122
100
AcDbEntity
8
0
100
AcDbLine
10
-549.16728899932195
20
-1012.4769218995142
30
0
11
-549.16728899932195
21
-1013.9394219948816
31
0
0
LINE
5
123
100
AcDbEntity
8
0
100
AcDbLine
10
-550.04478977179815
20
-1014.8169215752649
30
0
11
-551.79979012465765
21
-1014.8169215752649
31
0
0
LINE
5
124
100
AcDbEntity
8
0
100
AcDbLine
10
-552.67728970504095
20
-1013.9394219948816
30
0
11
-552.67728970504095
21
-1012.4769218995142
31
0
0
ARC
5
125
100
AcDbEntity
8
0
100
AcDbCircle
10
-549.93944809890081
20
-1014.0447648598719
30
0
40
0.77931083738803864
210
-0
220
0
230
1
100
AcDbArc
50
-97.768619823301634
51
7.7686186853125614
0
ARC
5
126
100
AcDbEntity
8
0
100
AcDbCircle
10
-551.90513179755499
20
-1014.0447648598719
30
0
40
0.77931083738803864
210
-0
220
0
230
1
100
AcDbArc
50
172.23137084203424
51
277.7686161808403
0
LINE
5
127
100
AcDbEntity
8
0
100
AcDbLine
10
-552.67728970504095
20
-1018.6194237305689
30
0
11
-552.67728970504095
21
-1017.1569236352015
31
0
0
LINE
5
128
100
AcDbEntity
8
0
100
AcDbLine
10
-551.79979012465765
20
-1016.2794216706324
30
0
11
-550.33729002929022
21
-1016.2794216706324
31
0
0
LINE
5
129
100
AcDbEntity
8
0
100
AcDbLine
10
-550.33729002929022
20
-1018.6194237305689
30
0
11
-550.92228935218145
21
-1018.6194237305689
31
0
0
LINE
5
130
100
AcDbEntity
8
0
100
AcDbLine
10
-550.92228935218145
20
-1018.6194237305689
30
0
11
-550.92228935218145
21
-1016.2794216706324
31
0
0
ARC
5
131
100
AcDbEntity
8
0
100
AcDbCircle
10
-551.90513179755499
20
-1017.0515807702112
30
0
40
0.77931083738803864
210
-0
220
0
230
1
100
AcDbArc
50
82.231388828120899
51
187.76860320370645
0
ARC
5
132
100
AcDbEntity
8
0
100
AcDbCircle
10
-550.33729002929022
20
-1017.4494227006006
30
0
40
1.1700000613927841
210
-0
220
0
230
1
100
AcDbArc
50
-90
51
90.00000500895986
0
LINE
5
133
100
AcDbEntity
8
0
100
AcDbLine
10
-547.4122892425089
20
-1022.421923501687
30
0
11
-552.67728970504095
21
-1022.421923501687
31
0
0
LINE
5
134
100
AcDbEntity
8
0
100
AcDbLine
10
-552.67728970504095
20
-1022.421923501687
30
0
11
-552.67728970504095
21
-1020.9594234063196
31
0
0
LINE
5
135
100
AcDbEntity
8
0
100
AcDbLine
10
-551.79979012465765
20
-1020.0819214417505
30
0
11
-550.04478977179815
21
-1020.0819214417505
31
0
0
LINE
5
136
100
AcDbEntity
8
0
100
AcDbLine
10
-549.16728899932195
20
-1020.9594234063196
30
0
11
-549.16728899932195
21
-1022.421923501687
31
0
0
ARC
5
137
100
AcDbEntity
8
0
100
AcDbCircle
10
-551.90513179755499
20
-1020.8540805413294
30
0
40
0.77931083738803864
210
-0
220
0
230
1
100
AcDbArc
50
82.231388828120899
51
187.76860320370645
0
ARC
5
138
100
AcDbEntity
8
0
100
AcDbCircle
10
-549.93944809890081
20
-1020.8540805413294
30
0
40
0.77931083738803864
210
-0
220
0
230
1
100
AcDbArc
50
-7.7686136763596716
51
97.768621189793166
0
LINE
5
139
100
AcDbEntity
8
0
100
AcDbLine
10
-550.62978909468939
20
-1026.3706739975978
30
0
11
-550.62978909468939
21
-1025.0544222428371
31
0
0
LINE
5
140
100
AcDbEntity
8
0
100
AcDbLine
10
-552.67728970504095
20
-1025.0544222428371
30
0
11
-552.67728970504095
21
-1026.3706739975978
31
0
0
LINE
5
141
100
AcDbEntity
8
0
100
AcDbLine
10
-552.67728970504095
20
-1026.3706739975978
30
0
11
-550.04478977179815
21
-1026.3706739975978
31
0
0
LINE
5
142
100
AcDbEntity
8
0
100
AcDbLine
10
-549.16728899932195
20
-1025.4931744172145
30
0
11
-549.16728899932195
21
-1024.3231733872462
31
0
0
ARC
5
143
100
AcDbEntity
8
0
100
AcDbCircle
10
-551.65353939986517
20
-1025.0544222428371
30
0
40
1.0237500816583633
210
-0
220
0
230
1
100
AcDbArc
50
2.4148365394514667e-06
51
180
0
ARC
5
144
100
AcDbEntity
8
0
100
AcDbCircle
10
-549.93944809890081
20
-1025.5985172822047
30
0
40
0.77931083738803864
210
-0
220
0
230
1
100
AcDbArc
50
-97.768619823302743
51
7.7686186853208445
0
LINE
5
145
100
AcDbEntity
8
0
100
AcDbLine
10
-547.4122892425089
20
-1028.1256731583644
30
0
11
-551.79979012465765
21
-1028.1256731583644
31
0
0
ARC
5
146
100
AcDbEntity
8
0
100
AcDbCircle
10
-551.90513179755499
20
-1028.8978298737575
30
0
40
0.77931083738803864
210
-0
220
0
230
1
100
AcDbArc
50
82.231388828122022
51
187.76860320369821
0
LINE
5
147
100
AcDbEntity
8
0
100
AcDbLine
10
-547.41228924250879
20
-1032.8056725098659
30
0
11
-552.67728970504083
21
-1032.8056725098659
31
0
0
LINE
5
148
100
AcDbEntity
8
0
100
AcDbLine
10
-552.67728970504083
20
-1032.8056725098659
30
0
11
-552.67728970504083
21
-1034.2681749894191
31
0
0
LINE
5
149
100
AcDbEntity
8
0
100
AcDbLine
10
-551.79979012465753
20
-1035.1456745698024
30
0
11
-550.04478977179804
21
-1035.1456745698024
31
0
0
LINE
5
150
100
AcDbEntity
8
0
100
AcDbLine
10
-549.16728899932184
20
-1034.2681749894191
30
0
11
-549.16728899932184
21
-1032.8056725098659
31
0
0
ARC
5
151
100
AcDbEntity
8
0
100
AcDbCircle
10
-551.90513179755487
20
-1034.3735130860377
30
0
40
0.77931083738803864
210
-0
220
0
230
1
100
AcDbArc
50
172.23137084203424
51
277.76861618083308
0
ARC
5
152
100
AcDbEntity
8
0
100
AcDbCircle
10
-549.9394480989007
20
-1034.3735130860377
30
0
40
0.77931083738803864
210
-0
220
0
230
1
100
AcDbArc
50
-97.768619823302743
51
7.7686186853208445
0
LINE
5
153
100
AcDbEntity
8
0
100
AcDbLine
10
-551.50728986716547
20
-1036.608172280984
30
0
11
-550.3372900292901
21
-1036.608172280984
31
0
0
LINE
5
154
100
AcDbEntity
8
0
100
AcDbLine
10
-550.3372900292901
20
-1038.9481743409206
30
0
11
-551.50728986716547
21
-1038.9481743409206
31
0
0
ARC
5
155
100
AcDbEntity
8
0
100
AcDbCircle
10
-550.3372900292901
20
-1037.7781733109523
30
0
40
1.1700000613927841
210
-0
220
0
230
1
100
AcDbArc
50
-90
51
90.00000500895986
0
ARC
5
156
100
AcDbEntity
8
0
100
AcDbCircle
10
-551.50728986716547
20
-1037.7781733109523
30
0
40
1.1700000613927841
210
-0
220
0
230
1
100
AcDbArc
50
90.00000500895986
51
270
0
LINE
5
157
100
AcDbEntity
8
0
100
AcDbLine
10
-549.16728899932184
20
-1040.2644213273097
30
0
11
-552.67728970504083
21
-1041.141920907693
31
0
0
LINE
5
158
100
AcDbEntity
8
0
100
AcDbLine
10
-552.67728970504083
20
-1041.141920907693
30
0
11
-550.3372900292901
21
-1042.0194252564479
31
0
0
LINE
5
159
100
AcDbEntity
8
0
100
AcDbLine
10
-550.3372900292901
20
-1042.0194252564479
30
0
11
-552.67728970504083
21
-1042.8969248368312
31
0
0
LINE
5
160
100
AcDbEntity
8
0
100
AcDbLine
10
-552.67728970504083
20
-1042.8969248368312
30
0
11
-549.16728899932184
21
-1043.7744244172145
31
0
0
LINE
5
161
100
AcDbEntity
8
0
100
AcDbLine
10
-547.41228924250879
20
-1047.4306734635402
30
0
11
-552.67728970504083
21
-1047.4306734635402
31
0
0
LINE
5
162
100
AcDbEntity
8
0
100
AcDbLine
10
-552.67728970504083
20
-1047.4306734635402
30
0
11
-552.67728970504083
21
-1045.968170983987
31
0
0
LINE
5
163
100
AcDbEntity
8
0
100
AcDbLine
10
-551.79979012465753
20
-1045.0906714036037
30
0
11
-550.04478977179804
21
-1045.0906714036037
31
0
0
LINE
5
164
100
AcDbEntity
8
0
100
AcDbLine
10
-549.16728899932184
20
-1045.968170983987
30
0
11
-549.16728899932184
21
-1047.4306734635402
31
0
0
ARC
5
165
100
AcDbEntity
8
0
100
AcDbCircle
10
-551.90513179755487
20
-1045.8628328873683
30
0
40
0.77931083738803864
210
-0
220
0
230
1
100
AcDbArc
50
82.231388828122022
51
187.76860320369821
0
ARC
5
166
100
AcDbEntity
8
0
100
AcDbCircle
10
-549.9394480989007
20
-1045.8628328873683
30
0
40
0.77931083738803864
210
-0
220
0
230
1
100
AcDbArc
50
-7.7686136763608422
51
97.768621189800314
0
LINE
5
167
100
AcDbEntity
8
0
100
AcDbLine
10
-552.67728970504083
20
-1051.3794239594508
30
0
11
-552.67728970504083
21
-1049.9169214798976
31
0
0
LINE
5
168
100
AcDbEntity
8
0
100
AcDbLine
10
-551.79979012465753
20
-1049.0394218995143
30
0
11
-550.3372900292901
21
-1049.0394218995143
31
0
0
LINE
5
169
100
AcDbEntity
8
0
100
AcDbLine
10
-550.3372900292901
20
-1051.3794239594508
30
0
11
-550.92228935218134
21
-1051.3794239594508
31
0
0
LINE
5
170
100
AcDbEntity
8
0
100
AcDbLine
10
-550.92228935218134
20
-1051.3794239594508
30
0
11
-550.92228935218134
21
-1049.0394218995143
31
0
0
ARC
5
171
100
AcDbEntity
8
0
100
AcDbCircle
10
-551.90513179755487
20
-1049.811583383279
30
0
40
0.77931083738803864
210
-0
220
0
230
1
100
AcDbArc
50
82.231388828122022
51
187.76860320369821
0
ARC
5
172
100
AcDbEntity
8
0
100
AcDbCircle
10
-550.3372900292901
20
-1050.2094229294826
30
0
40
1.1700000613927841
210
-0
220
0
230
1
100
AcDbArc
50
-90
51
90.00000500895986
0
LINE
5
173
100
AcDbEntity
8
0
100
AcDbLine
10
-552.67728970504083
20
-1052.988172395425
30
0
11
-549.16728899932184
21
-1052.988172395425
31
0
0
LINE
5
174
100
AcDbEntity
8
0
100
AcDbLine
10
-549.16728899932184
20
-1052.988172395425
30
0
11
-549.16728899932184
21
-1054.4506748749782
31
0
0
LINE
5
175
100
AcDbEntity
8
0
100
AcDbLine
10
-550.04478977179804
20
-1055.3281744553615
30
0
11
-552.67728970504083
21
-1055.3281744553615
31
0
0
ARC
5
176
100
AcDbEntity
8
0
100
AcDbCircle
10
-549.9394480989007
20
-1054.5560129715968
30
0
40
0.77931083738803864
210
-0
220
0
230
1
100
AcDbArc
50
-97.768619823302743
51
7.7686186853208445
0
LINE
5
177
100
AcDbEntity
8
0
100
AcDbLine
10
-550.62978909468927
20
-1061.6169270112086
30
0
11
-550.62978909468927
21
-1060.3006752564479
31
0
0
LINE
5
178
100
AcDbEntity
8
0
100
AcDbLine
10
-552.67728970504083
20
-1060.3006752564479
30
0
11
-552.67728970504083
21
-1061.6169270112086
31
0
0
LINE
5
179
100
AcDbEntity
8
0
100
AcDbLine
10
-552.67728970504083
20
-1061.6169270112086
30
0
11
-550.04478977179804
21
-1061.6169270112086
31
0
0
LINE
5
180
100
AcDbEntity
8
0
100
AcDbLine
10
-549.16728899932184
20
-1060.7394274308253
30
0
11
-549.16728899932184
21
-1059.5694264008571
31
0
0
ARC
5
181
100
AcDbEntity
8
0
100
AcDbCircle
10
-551.65353939986505
20
-1060.3006752564479
30
0
40
1.0237500816583633
210
-0
220
0
230
1
100
AcDbArc
50
2.4148365394514667e-06
51
180
0
ARC
5
182
100
AcDbEntity
8
0
100
AcDbCircle
10
-549.9394480989007
20
-1060.844765527444
30
0
40
0.77931083738803864
210
-0
220
0
230
1
100
AcDbArc
50
-97.768619823302743
51
7.7686186853208445
0
LINE
5
183
100
AcDbEntity
8
0
100
AcDbLine
10
-547.41228924250879
20
-1063.3719357087184
30
0
11
-551.79979012465753
21
-1063.3719357087184
31
0
0
ARC
5
184
100
AcDbEntity
8
0
100
AcDbCircle
10
-551.90513179755487
20
-1064.1440876557399
30
0
40
0.77931083738803864
210
-0
220
0
230
1
100
AcDbArc
50
82.231388828122022
51
187.76860320369934
0
LINE
5
185
100
AcDbEntity
8
0
100
AcDbLine
10
-552.67728970504083
20
-1065.7119282319118
30
0
11
-549.16728899932184
21
-1065.7119282319118
31
0
0
LINE
5
186
100
AcDbEntity
8
0
100
AcDbLine
10
-547.70478890395441
20
-1065.5656727387477
30
0
11
-547.41228924250879
21
-1065.5656727387477
31
0
0
LINE
5
187
100
AcDbEntity
8
0
100
AcDbLine
10
-547.41228924250879
20
-1065.5656727387477
30
0
11
-547.41228924250879
21
-1065.8581741883327
31
0
0
LINE
5
188
100
AcDbEntity
8
0
100
AcDbLine
10
-547.41228924250879
20
-1065.8581741883327
30
0
11
-547.70478890395441
21
-1065.8581741883327
31
0
0
LINE
5
189
100
AcDbEntity
8
0
100
AcDbLine
10
-547.70478890395441
20
-1065.8581741883327
30
0
11
-547.70478890395441
21
-1065.5656727387477
31
0
0
LINE
5
190
100
AcDbEntity
8
0
100
AcDbLine
10
-552.67728970504083
20
-1069.660683496194
30
0
11
-552.67728970504083
21
-1068.1981857850124
31
0
0
LINE
5
191
100
AcDbEntity
8
0
100
AcDbLine
10
-551.79979012465753
20
-1067.3206814362575
30
0
11
-550.04478977179804
21
-1067.3206814362575
31
0
0
LINE
5
192
100
AcDbEntity
8
0
100
AcDbLine
10
-549.16728899932184
20
-1068.1981857850124
30
0
11
-549.16728899932184
21
-1069.660683496194
31
0
0
LINE
5
193
100
AcDbEntity
8
0
100
AcDbLine
10
-549.16728899932184
20
-1069.660683496194
30
0
11
-553.55478928542414
21
-1069.660683496194
31
0
0
LINE
5
194
100
AcDbEntity
8
0
100
AcDbLine
10
-554.43229005790033
20
-1068.7831791474391
30
0
11
-554.43229005790033
21
-1067.6131828858424
31
0
0
ARC
5
195
100
AcDbEntity
8
0
100
AcDbCircle
10
-551.90513179755487
20
-1068.0928429200221
30
0
40
0.77931083738803864
210
-0
220
0
230
1
100
AcDbArc
50
82.231388828122022
51
187.76860320369934
0
ARC
5
196
100
AcDbEntity
8
0
100
AcDbCircle
10
-549.9394480989007
20
-1068.0928429200221
30
0
40
0.77931083738803864
210
-0
220
0
230
1
100
AcDbArc
50
-7.7686136763596716
51
97.768621189792043
0
ARC
5
197
100
AcDbEntity
8
0
100
AcDbCircle
10
-553.66013095832147
20
-1068.8885220124293
30
0
40
0.77931083738803864
210
-0
220
0
230
1
100
AcDbArc
50
172.23137084203424
51
277.76861618084143
0
LINE
5
198
100
AcDbEntity
8
0
100
AcDbLine
10
-552.67728970504083
20
-1071.4156826569606
30
0
11
-549.16728899932184
21
-1071.4156826569606
31
0
0
LINE
5
199
100
AcDbEntity
8
0
100
AcDbLine
10
-549.16728899932184
20
-1071.4156826569606
30
0
11
-549.16728899932184
21
-1072.8781803681422
31
0
0
LINE
5
200
100
AcDbEntity
8
0
100
AcDbLine
10
-550.04478977179804
20
-1073.755675180154
30
0
11
-552.67728970504083
21
-1073.755675180154
31
0
0
ARC
5
201
100
AcDbEntity
8
0
100
AcDbCircle
10
-549.9394480989007
20
-1072.9835232331325
30
0
40
0.77931083738803864
210
-0
220
0
230
1
100
AcDbArc
50
-97.768619823302743
51
7.7686186853208445
0
LINE
5
202
100
AcDbEntity
8
0
100
AcDbLine
10
-552.67728970504083
20
-1077.7044304444362
30
0
11
-552.67728970504083
21
-1076.2419327332545
31
0
0
LINE
5
203
100
AcDbEntity
8
0
100
AcDbLine
10
-551.79979012465753
20
-1075.3644283844997
30
0
11
-550.3372900292901
21
-1075.3644283844997
31
0
0
LINE
5
204
100
AcDbEntity
8
0
100
AcDbLine
10
-550.3372900292901
20
-1077.7044304444362
30
0
11
-550.92228935218134
21
-1077.7044304444362
31
0
0
LINE
5
205
100
AcDbEntity
8
0
100
AcDbLine
10
-550.92228935218134
20
-1077.7044304444362
30
0
11
-550.92228935218134
21
-1075.3644283844997
31
0
0
ARC
5
206
100
AcDbEntity
8
0
100
AcDbCircle
10
-551.90513179755487
20
-1076.1365898682643
30
0
40
0.77931083738803864
210
-0
220
0
230
1
100
AcDbArc
50
82.231388828122022
51
187.76860320369934
0
ARC
5
207
100
AcDbEntity
8
0
100
AcDbCircle
10
-550.3372900292901
20
-1076.5344341828395
30
0
40
1.1700000613927841
210
-0
220
0
230
1
100
AcDbArc
50
-90
51
90.00000500895429
0
LINE
5
208
100
AcDbEntity
8
0
100
AcDbLine
10
-552.67728970504083
20
-1079.3131836487819
30
0
11
-549.16728899932184
21
-1079.3131836487819
31
0
0
LINE
5
209
100
AcDbEntity
8
0
100
AcDbLine
10
-549.16728899932184
20
-1079.3131836487819
30
0
11
-549.16728899932184
21
-1081.0681828095485
31
0
0
LINE
5
210
100
AcDbEntity
8
0
100
AcDbLine
10
-549.16728899932184
20
-1081.0681828095485
30
0
11
-549.75228951430597
21
-1081.0681828095485
31
0
0
LINE
5
211
100
AcDbEntity
8
0
100
AcDbLine
10
-552.67728970504083
20
-1082.5306805207301
30
0
11
-552.67728970504083
21
-1082.2381790711452
31
0
0
LINE
5
212
100
AcDbEntity
8
0
100
AcDbLine
10
-552.67728970504083
20
-1082.2381790711452
30
0
11
-552.38478944754877
21
-1082.2381790711452
31
0
0
LINE
5
213
100
AcDbEntity
8
0
100
AcDbLine
10
-552.38478944754877
20
-1082.2381790711452
30
0
11
-552.38478944754877
21
-1082.5306805207301
31
0
0
LINE
5
214
100
AcDbEntity
8
0
100
AcDbLine
10
-552.38478944754877
20
-1082.5306805207301
30
0
11
-552.67728970504083
21
-1082.5306805207301
31
0
0
LINE
5
215
100
AcDbEntity
8
0
100
AcDbLine
10
-552.67728970504083
20
-1082.5306805207301
30
0
11
-553.8472895429162
21
-1082.0919331147243
31
0
0
LINE
5
216
100
AcDbEntity
8
0
100
AcDbLine
10
-548.58228967643061
20
-1086.3331802918483
30
0
11
-547.41228924250879
21
-1087.7956780030299
31
0
0
LINE
5
217
100
AcDbEntity
8
0
100
AcDbLine
10
-547.41228924250879
20
-1087.7956780030299
30
0
11
-552.67728970504083
21
-1087.7956780030299
31
0
0
LINE
5
218
100
AcDbEntity
8
0
100
AcDbLine
10
-552.67728970504083
20
-1086.3331802918483
30
0
11
-552.67728970504083
21
-1089.2581852509547
31
0
0
LINE
5
219
100
AcDbEntity
8
0
100
AcDbLine
10
-552.67728970504083
20
-1092.914439065652
30
0
11
-549.16728899932184
21
-1095.2544411255885
31
0
0
LINE
5
220
100
AcDbEntity
8
0
100
AcDbLine
10
-549.16728899932184
20
-1092.914439065652
30
0
11
-552.67728970504083
21
-1095.2544411255885
31
0
0
LINE
5
221
100
AcDbEntity
8
0
100
AcDbLine
10
-549.75228951430586
20
-1098.9106854035426
30
0
11
-549.75228951430586
21
-1100.6656845643092
31
0
0
LINE
5
222
100
AcDbEntity
8
0
100
AcDbLine
10
-550.92228935218122
20
-1101.8356903626491
30
0
11
-551.21478960967329
21
-1101.8356903626491
31
0
0
LINE
5
223
100
AcDbEntity
8
0
100
AcDbLine
10
-551.21478960967329
20
-1098.9106854035426
30
0
11
-549.75228951430586
21
-1098.9106854035426
31
0
0
ARC
5
224
100
AcDbEntity
8
0
100
AcDbCircle
10
-550.78183339095381
20
-1100.8061417176295
30
0
40
1.0390811413526533
210
-0
220
0
230
1
100
AcDbArc
50
-97.76861982330621
51
7.7686186853269623
0
ARC
5
225
100
AcDbEntity
8
0
100
AcDbCircle
10
-551.21478960967329
20
-1100.3731831147243
30
0
40
1.4625000953674316
210
-0
220
0
230
1
100
AcDbArc
50
90.000005008957558
51
270
0
ARC
5
226
100
AcDbEntity
8
0
100
AcDbCircle
10
-549.47137878394392
20
-1100.9697731568385
30
0
40
2.078162282705307
210
-0
220
0
230
1
100
AcDbArc
50
-7.7686136763585019
51
97.768621189796136
0
LINE
5
227
100
AcDbEntity
8
0
100
AcDbLine
10
-552.67728970504072
20
-1105.7844456269313
30
0
11
-549.16728899932173
21
-1105.7844456269313
31
0
0
LINE
5
228
100
AcDbEntity
8
0
100
AcDbLine
10
-549.16728899932173
20
-1105.7844456269313
30
0
11
-549.16728899932173
21
-1108.4169395997096
31
0
0
LINE
5
229
100
AcDbEntity
8
0
100
AcDbLine
10
-550.04478977179792
20
-1109.2944439484645
30
0
11
-552.67728970504072
21
-1109.2944439484645
31
0
0
LINE
5
230
100
AcDbEntity
8
0
100
AcDbLine
10
-552.67728970504072
20
-1107.5394447876979
30
0
11
-549.16728899932173
21
-1107.5394447876979
31
0
0
ARC
5
231
100
AcDbEntity
8
0
100
AcDbCircle
10
-549.93944809890058
20
-1108.5222824646999
30
0
40
0.77931083738803864
210
-0
220
0
230
1
100
AcDbArc
50
-97.768619823302743
51
7.7686186853208445
0
LINE
5
232
100
AcDbEntity
8
0
100
AcDbLine
10
-552.67728970504072
20
-1111.0494431092311
30
0
11
-549.16728899932173
21
-1111.0494431092311
31
0
0
LINE
5
233
100
AcDbEntity
8
0
100
AcDbLine
10
-549.16728899932173
20
-1111.0494431092311
30
0
11
-549.16728899932173
21
-1113.6819370820094
31
0
0
LINE
5
234
100
AcDbEntity
8
0
100
AcDbLine
10
-550.04478977179792
20
-1114.5594414307643
30
0
11
-552.67728970504072
21
-1114.5594414307643
31
0
0
LINE
5
235
100
AcDbEntity
8
0
100
AcDbLine
10
-552.67728970504072
20
-1112.8044422699977
30
0
11
-549.16728899932173
21
-1112.8044422699977
31
0
0
ARC
5
236
100
AcDbEntity
8
0
100
AcDbCircle
10
-549.93944809890058
20
-1113.7872799469997
30
0
40
0.77931083738803864
210
-0
220
0
230
1
100
AcDbArc
50
-97.768619823302743
51
7.7686186853208445
0
LINE
5
237
100
AcDbEntity
8
0
100
AcDbLine
10
-554.43229005790022
20
-1118.6544426514674
30
0
11
-549.16728899932173
21
-1118.6544426514674
31
0
0
LINE
5
238
100
AcDbEntity
8
0
100
AcDbLine
10
-549.16728899932173
20
-1118.6544426514674
30
0
11
-549.16728899932173
21
-1120.1169403626491
31
0
0
LINE
5
239
100
AcDbEntity
8
0
100
AcDbLine
10
-550.04478977179792
20
-1120.9944351746608
30
0
11
-551.79979012465742
21
-1120.9944351746608
31
0
0
LINE
5
240
100
AcDbEntity
8
0
100
AcDbLine
10
-552.67728970504072
20
-1120.1169403626491
30
0
11
-552.67728970504072
21
-1118.6544426514674
31
0
0
ARC
5
241
100
AcDbEntity
8
0
100
AcDbCircle
10
-549.93944809890058
20
-1120.2222832276393
30
0
40
0.77931083738803864
210
-0
220
0
230
1
100
AcDbArc
50
-97.768619823302743
51
7.7686186853208445
0
ARC
5
242
100
AcDbEntity
8
0
100
AcDbCircle
10
-551.90513179755476
20
-1120.2222832276393
30
0
40
0.77931083738803864
210
-0
220
0
230
1
100
AcDbArc
50
172.23137084203424
51
277.76861618083308
0
LINE
5
243
100
AcDbEntity
8
0
100
AcDbLine
10
-547.41228924250868
20
-1122.6031883790065
30
0
11
-551.79979012465742
21
-1122.6031883790065
31
0
0
ARC
5
244
100
AcDbEntity
8
0
100
AcDbCircle
10
-551.90513179755476
20
-1123.375340326028
30
0
40
0.77931083738803864
210
-0
220
0
230
1
100
AcDbArc
50
82.231388828122022
51
187.76860320369821
0
LINE
5
245
100
AcDbEntity
8
0
100
AcDbLine
10
-554.43229005790022
20
-1124.6506889893581
30
0
11
-554.43229005790022
21
-1125.2356823517848
31
0
0
LINE
5
246
100
AcDbEntity
8
0
100
AcDbLine
10
-554.43229005790022
20
-1125.2356823517848
30
0
11
-549.16728899932173
21
-1126.9906815125514
31
0
0
LINE
5
247
100
AcDbEntity
8
0
100
AcDbLine
10
-549.16728899932173
20
-1124.6506889893581
30
0
11
-552.67728970504072
21
-1125.8206852509547
31
0
0
ENDSEC
0
SECTION
2
OBJECTS
0
DICTIONARY
5
C
100
AcDbDictionary
3
ACAD_GROUP
350
D
3
ACAD_MLINESTYLE
350
17
0
DICTIONARY
5
D
100
AcDbDictionary
0
DICTIONARY
5
1A
330
C
100
AcDbDictionary
0
DICTIONARY
5
17
100
AcDbDictionary
0
ENDSEC
0
EOF
