0
SECTION
2
HEADER
9
$INSUNITS
70
4
9
$ACADVER
1
AC1014
9
$HANDSEED
5
FFFF
0
ENDSEC
0
SECTION
2
TABLES
0
TABLE
2
VPORT
5
8
100
AcDbSymbolTable
0
ENDTAB
0
TABLE
2
LTYPE
5
5
100
AcDbSymbolTable
0
LTYPE
5
14
100
AcDbSymbolTableRecord
100
AcDbLinetypeTableRecord
2
BYBLOCK
70
0
0
LTYPE
5
15
100
AcDbSymbolTableRecord
100
AcDbLinetypeTableRecord
2
BYLAYER
70
0
0
LTYPE
5
16
100
AcDbSymbolTableRecord
100
AcDbLinetypeTableRecord
2
DASHED
70
0
3
Dashed __ __ __ __ __ __ __ __ __ __ __ __ __ _
72
65
73
2
40
0.75
49
0.5
74
0
49
-0.25
74
0
0
ENDTAB
0
TABLE
2
LAYER
5
2
100
AcDbSymbolTable
70
3
0
LAYER
5
50
100
AcDbSymbolTableRecord
100
AcDbLayerTableRecord
2
1
70
0
62
7
6
DASHED
0
LAYER
5
51
100
AcDbSymbolTableRecord
100
AcDbLayerTableRecord
2
0
70
0
62
7
6
CONTINUOUS
0
ENDTAB
0
TABLE
2
STYLE
5
3
100
AcDbSymbolTable
70
1
0
STYLE
5
11
100
AcDbSymbolTableRecord
100
AcDbTextStyleTableRecord
2
STANDARD
70
0
0
ENDTAB
0
TABLE
2
VIEW
5
6
100
AcDbSymbolTable
70
0
0
ENDTAB
0
TABLE
2
UCS
5
7
100
AcDbSymbolTable
70
0
0
ENDTAB
0
TABLE
2
APPID
5
9
100
AcDbSymbolTable
70
2
0
APPID
5
12
100
AcDbSymbolTableRecord
100
AcDbRegAppTableRecord
2
ACAD
70
0
0
ENDTAB
0
TABLE
2
DIMSTYLE
5
A
100
AcDbSymbolTable
70
1
0
ENDTAB
0
TABLE
2
BLOCK_RECORD
5
1
100
AcDbSymbolTable
70
1
0
BLOCK_RECORD
5
1F
100
AcDbSymbolTableRecord
100
AcDbBlockTableRecord
2
*MODEL_SPACE
0
BLOCK_RECORD
5
1B
100
AcDbSymbolTableRecord
100
AcDbBlockTableRecord
2
*PAPER_SPACE
0
ENDTAB
0
ENDSEC
0
SECTION
2
BLOCKS
0
BLOCK
5
20
100
AcDbEntity
100
AcDbBlockBegin
2
*MODEL_SPACE
0
ENDBLK
5
21
100
AcDbEntity
100
AcDbBlockEnd
0
BLOCK
5
1C
100
AcDbEntity
100
AcDbBlockBegin
2
*PAPER_SPACE
0
ENDBLK
5
1D
100
AcDbEntity
100
AcDbBlockEnd
0
ENDSEC
0
SECTION
2
ENTITIES
0
LWPOLYLINE
5
100
100
AcDbEntity
8
0
100
AcDbPolyline
90
12
70
1
43
0.0
10
-511.79691526112492
20
-1078.3288067891285
10
-470.77416088639723
20
-1078.328806789129
10
-470.774160886397
20
-1070.3465779103174
42
-0.99999999999999989
10
-466.31798368864702
20
-1066.3288067891294
10
-445.67416088639703
20
-1066.3288067891297
10
-445.67416088639254
20
-1053.6023379128003
42
0.27967542089872838
10
-493.08155721046177
20
-975.47736667035065
10
-493.08554223403269
20
-975.47529219830665
42
0.44129643352728315
10
-522.05140064986483
20
-986.08870352942381
42
0.10308628077703544
10
-536.8969152611246
20
-1066.3288067891285
10
-515.96761067027899
20
-1066.3288067891287
42
-0.99999999999999989
10
-511.79691526112492
20
-1070.6421929072569
0
LINE
5
101
100
AcDbEntity
8
1
100
AcDbLine
10
-524.79788603617942
20
-1054.3288067891285
30
0
11
-457.67416088639334
21
-1054.3288067891285
31
0
0
LINE
5
102
100
AcDbEntity
8
1
100
AcDbLine
10
-457.67416088639334
20
-1054.3288067891285
30
0
11
-457.67416088639334
21
-1029.8997420916089
31
0
0
LINE
5
103
100
AcDbEntity
8
1
100
AcDbLine
10
-457.67416088639334
20
-1029.8997420916089
30
0
11
-524.79788603617942
21
-1029.8997420916089
31
0
0
LINE
5
104
100
AcDbEntity
8
1
100
AcDbLine
10
-524.79788603617942
20
-1029.8997420916089
30
0
11
-524.79788603617942
21
-1054.3288067891285
31
0
0
CIRCLE
5
105
100
AcDbEntity
8
0
100
AcDbCircle
10
-524.7978860361759
20
-1054.3288067891285
30
0
40
1.0000000000000142
210
-0
220
0
230
1
0
CIRCLE
5
106
100
AcDbEntity
8
0
100
AcDbCircle
10
-457.67416088638981
20
-1054.3288067891294
30
0
40
1.0000000000000142
210
-0
220
0
230
1
0
CIRCLE
5
107
100
AcDbEntity
8
0
100
AcDbCircle
10
-502.72675509373408
20
-993.99588978412851
30
0
40
1.0000000000000142
210
-0
220
0
230
1
0
LINE
5
108
100
AcDbEntity
8
0
100
AcDbLine
10
-519.90102561547553
20
-1046.5288055786618
30
0
11
-518.14602556063926
21
-1041.2638057121762
31
0
0
LINE
5
109
100
AcDbEntity
8
0
100
AcDbLine
10
-518.14602556063926
20
-1041.2638057121762
30
0
11
-516.39102520777976
21
-1046.5288055786618
31
0
0
LINE
5
110
100
AcDbEntity
8
0
100
AcDbLine
10
-516.82977499797141
20
-1045.212555015994
30
0
11
-519.46227552726066
21
-1045.212555015994
31
0
0
LINE
5
111
100
AcDbEntity
8
0
100
AcDbLine
10
-512.29602517916953
20
-1044.1888059029111
30
0
11
-514.05102553202903
21
-1044.1888059029111
31
0
0
LINE
5
112
100
AcDbEntity
8
0
100
AcDbLine
10
-515.2210253699044
20
-1043.0188048729428
30
0
11
-515.2210253699044
21
-1042.7263058075437
31
0
0
LINE
5
113
100
AcDbEntity
8
0
100
AcDbLine
10
-512.29602517916953
20
-1042.7263058075437
30
0
11
-512.29602517916953
21
-1044.1888059029111
31
0
0
ARC
5
114
100
AcDbEntity
8
0
100
AcDbCircle
10
-514.19148030116355
20
-1043.1592608341703
30
0
40
1.0390811413526535
210
0
220
0
230
1
100
AcDbArc
50
172.23138882812617
51
277.76860320370434
0
ARC
5
115
100
AcDbEntity
8
0
100
AcDbCircle
10
-513.75852527453696
20
-1042.7263058075437
30
0
40
1.4625000953674316
210
0
220
0
230
1
100
AcDbArc
50
0
51
180.00000497831306
0
ARC
5
116
100
AcDbEntity
8
0
100
AcDbCircle
10
-514.35511412455833
20
-1044.469716633273
30
0
40
2.078162282705307
210
0
220
0
230
1
100
AcDbArc
50
-97.768629157970452
51
7.7686161808365153
0
LINE
5
117
100
AcDbEntity
8
0
100
AcDbLine
10
-508.49352540805137
20
-1044.4813049683103
30
0
11
-509.80977477862632
21
-1044.4813049683103
31
0
0
LINE
5
118
100
AcDbEntity
8
0
100
AcDbLine
10
-509.80977477862632
20
-1046.5288055786618
30
0
11
-508.49352540805137
21
-1046.5288055786618
31
0
0
LINE
5
119
100
AcDbEntity
8
0
100
AcDbLine
10
-508.49352540805137
20
-1046.5288055786618
30
0
11
-508.49352540805137
21
-1043.896305645419
31
0
0
LINE
5
120
100
AcDbEntity
8
0
100
AcDbLine
10
-509.37102498843467
20
-1043.0188048729428
30
0
11
-510.54102482631004
21
-1043.0188048729428
31
0
0
ARC
5
121
100
AcDbEntity
8
0
100
AcDbCircle
10
-509.80977477862632
20
-1045.5050552734861
30
0
40
1.0237500816583633
210
0
220
0
230
1
100
AcDbArc
50
90.000002504477479
51
270.00000068324812
0
ARC
5
122
100
AcDbEntity
8
0
100
AcDbCircle
10
-509.26568331553733
20
-1043.7909639725217
30
0
40
0.77931083738803864
210
0
220
0
230
1
100
AcDbArc
50
-7.7686198233104822
51
97.768618685316738
0
LINE
5
123
100
AcDbEntity
8
0
100
AcDbLine
10
-506.59227433039939
20
-1046.5288055786618
30
0
11
-506.88477458789146
21
-1046.5288055786618
31
0
0
LINE
5
124
100
AcDbEntity
8
0
100
AcDbLine
10
-506.88477458789146
20
-1046.5288055786618
30
0
11
-506.88477458789146
21
-1046.2363053211698
31
0
0
LINE
5
125
100
AcDbEntity
8
0
100
AcDbLine
10
-506.88477458789146
20
-1046.2363053211698
30
0
11
-506.59227433039939
21
-1046.2363053211698
31
0
0
LINE
5
126
100
AcDbEntity
8
0
100
AcDbLine
10
-506.59227433039939
20
-1046.2363053211698
30
0
11
-506.59227433039939
21
-1046.5288055786618
31
0
0
LINE
5
127
100
AcDbEntity
8
0
100
AcDbLine
10
-506.59227433039939
20
-1046.5288055786618
30
0
11
-507.03102412059104
21
-1047.6988054165372
31
0
0
LINE
5
128
100
AcDbEntity
8
0
100
AcDbLine
10
-502.64352621867454
20
-1048.2838059315213
30
0
11
-502.64352621867454
21
-1043.0188048729428
31
0
0
LINE
5
129
100
AcDbEntity
8
0
100
AcDbLine
10
-502.64352621867454
20
-1043.0188048729428
30
0
11
-501.18102612330711
21
-1043.0188048729428
31
0
0
LINE
5
130
100
AcDbEntity
8
0
100
AcDbLine
10
-500.30352654292381
20
-1043.896305645419
30
0
11
-500.30352654292381
21
-1045.6513059982785
31
0
0
LINE
5
131
100
AcDbEntity
8
0
100
AcDbLine
10
-501.18102612330711
20
-1046.5288055786618
30
0
11
-502.64352621867454
21
-1046.5288055786618
31
0
0
ARC
5
132
100
AcDbEntity
8
0
100
AcDbCircle
10
-501.07568325831687
20
-1043.7909639725217
30
0
40
0.77931083738803864
210
0
220
0
230
1
100
AcDbArc
50
-7.7686198233104822
51
97.768618685316738
0
ARC
5
133
100
AcDbEntity
8
0
100
AcDbCircle
10
-501.07568325831687
20
-1045.7566476711759
30
0
40
0.77931083738803864
210
0
220
0
230
1
100
AcDbArc
50
-97.768629157968817
51
7.7686161808485608
0
LINE
5
134
100
AcDbEntity
8
0
100
AcDbLine
10
-496.50102438761985
20
-1046.5288055786618
30
0
11
-497.96352448298728
21
-1046.5288055786618
31
0
0
LINE
5
135
100
AcDbEntity
8
0
100
AcDbLine
10
-498.84102644755637
20
-1045.6513059982785
30
0
11
-498.84102644755637
21
-1044.1888059029111
31
0
0
LINE
5
136
100
AcDbEntity
8
0
100
AcDbLine
10
-496.50102438761985
20
-1044.1888059029111
30
0
11
-496.50102438761985
21
-1044.7738052258023
31
0
0
LINE
5
137
100
AcDbEntity
8
0
100
AcDbLine
10
-496.50102438761985
20
-1044.7738052258023
30
0
11
-498.84102644755637
21
-1044.7738052258023
31
0
0
ARC
5
138
100
AcDbEntity
8
0
100
AcDbCircle
10
-498.06886734797752
20
-1045.7566476711759
30
0
40
0.77931083738803864
210
0
220
0
230
1
100
AcDbArc
50
172.23138882811151
51
277.76860320370537
0
ARC
5
139
100
AcDbEntity
8
0
100
AcDbCircle
10
-497.67102541758811
20
-1044.1888059029111
30
0
40
1.1700000613927841
210
0
220
0
230
1
100
AcDbArc
50
0
51
180.00000497831306
0
LINE
5
140
100
AcDbEntity
8
0
100
AcDbLine
10
-492.69852461650169
20
-1041.2638057121762
30
0
11
-492.69852461650169
21
-1046.5288055786618
31
0
0
LINE
5
141
100
AcDbEntity
8
0
100
AcDbLine
10
-492.69852461650169
20
-1046.5288055786618
30
0
11
-494.16102471186912
21
-1046.5288055786618
31
0
0
LINE
5
142
100
AcDbEntity
8
0
100
AcDbLine
10
-495.03852667643821
20
-1045.6513059982785
30
0
11
-495.03852667643821
21
-1043.896305645419
31
0
0
LINE
5
143
100
AcDbEntity
8
0
100
AcDbLine
10
-494.16102471186912
20
-1043.0188048729428
30
0
11
-492.69852461650169
21
-1043.0188048729428
31
0
0
ARC
5
144
100
AcDbEntity
8
0
100
AcDbCircle
10
-494.26636757685935
20
-1045.7566476711759
30
0
40
0.77931083738803864
210
0
220
0
230
1
100
AcDbArc
50
172.23138882811151
51
277.76860320370537
0
ARC
5
145
100
AcDbEntity
8
0
100
AcDbCircle
10
-494.26636757685935
20
-1043.7909639725217
30
0
40
0.77931083738803864
210
0
220
0
230
1
100
AcDbArc
50
82.231386323638048
51
187.76862118979258
0
LINE
5
146
100
AcDbEntity
8
0
100
AcDbLine
10
-488.74977412059104
20
-1044.4813049683103
30
0
11
-490.06602587535178
21
-1044.4813049683103
31
0
0
LINE
5
147
100
AcDbEntity
8
0
100
AcDbLine
10
-490.06602587535178
20
-1046.5288055786618
30
0
11
-488.74977412059104
21
-1046.5288055786618
31
0
0
LINE
5
148
100
AcDbEntity
8
0
100
AcDbLine
10
-488.74977412059104
20
-1046.5288055786618
30
0
11
-488.74977412059104
21
-1043.896305645419
31
0
0
LINE
5
149
100
AcDbEntity
8
0
100
AcDbLine
10
-489.62727370097434
20
-1043.0188048729428
30
0
11
-490.7972747309426
21
-1043.0188048729428
31
0
0
ARC
5
150
100
AcDbEntity
8
0
100
AcDbCircle
10
-490.06602587535178
20
-1045.5050552734861
30
0
40
1.0237500816583633
210
0
220
0
230
1
100
AcDbArc
50
90.000002504477479
51
270.00000068324812
0
ARC
5
151
100
AcDbEntity
8
0
100
AcDbCircle
10
-489.5219332201699
20
-1043.7909639725217
30
0
40
0.77931083738803864
210
0
220
0
230
1
100
AcDbArc
50
-7.7686198233104822
51
97.768618685316738
0
LINE
5
152
100
AcDbEntity
8
0
100
AcDbLine
10
-486.99477495982444
20
-1041.2638057121762
30
0
11
-486.99477495982444
21
-1045.6513059982785
31
0
0
ARC
5
153
100
AcDbEntity
8
0
100
AcDbCircle
10
-486.22261586024558
20
-1045.7566476711759
30
0
40
0.77931083738803864
210
0
220
0
230
1
100
AcDbArc
50
172.23138882811151
51
277.76860320370537
0
LINE
5
154
100
AcDbEntity
8
0
100
AcDbLine
10
-482.31477560832298
20
-1046.5288055786618
30
0
11
-482.31477560832298
21
-1041.2638057121762
31
0
0
LINE
5
155
100
AcDbEntity
8
0
100
AcDbLine
10
-482.31477560832298
20
-1043.0188048729428
30
0
11
-480.85227312876975
21
-1043.0188048729428
31
0
0
LINE
5
156
100
AcDbEntity
8
0
100
AcDbLine
10
-479.97477354838645
20
-1043.896305645419
30
0
11
-479.97477354838645
21
-1046.5288055786618
31
0
0
ARC
5
157
100
AcDbEntity
8
0
100
AcDbCircle
10
-480.7469350321511
20
-1043.7909639725217
30
0
40
0.77931083738803864
210
0
220
0
230
1
100
AcDbArc
50
-7.7686198233104822
51
97.768618685316738
0
LINE
5
158
100
AcDbEntity
8
0
100
AcDbLine
10
-476.02602782084739
20
-1044.4813049683103
30
0
11
-477.34227957560813
21
-1044.4813049683103
31
0
0
LINE
5
159
100
AcDbEntity
8
0
100
AcDbLine
10
-477.34227957560813
20
-1046.5288055786618
30
0
11
-476.02602782084739
21
-1046.5288055786618
31
0
0
LINE
5
160
100
AcDbEntity
8
0
100
AcDbLine
10
-476.02602782084739
20
-1046.5288055786618
30
0
11
-476.02602782084739
21
-1043.896305645419
31
0
0
LINE
5
161
100
AcDbEntity
8
0
100
AcDbLine
10
-476.90352740123069
20
-1043.0188048729428
30
0
11
-478.07352843119895
21
-1043.0188048729428
31
0
0
ARC
5
162
100
AcDbEntity
8
0
100
AcDbCircle
10
-477.34227957560813
20
-1045.5050552734861
30
0
40
1.0237500816583633
210
0
220
0
230
1
100
AcDbArc
50
90.000002504477479
51
270.00000068324812
0
ARC
5
163
100
AcDbEntity
8
0
100
AcDbCircle
10
-476.79818930461204
20
-1043.7909639725217
30
0
40
0.77931083738803864
210
0
220
0
230
1
100
AcDbArc
50
-7.7686198233104822
51
97.768618685316738
0
LINE
5
164
100
AcDbEntity
8
0
100
AcDbLine
10
-474.27102389170921
20
-1041.2638057121762
30
0
11
-474.27102389170921
21
-1045.6513059982785
31
0
0
ARC
5
165
100
AcDbEntity
8
0
100
AcDbCircle
10
-473.49886717631614
20
-1045.7566476711759
30
0
40
0.77931083738803864
210
0
220
0
230
1
100
AcDbArc
50
172.23138882811151
51
277.76860320370537
0
LINE
5
166
100
AcDbEntity
8
0
100
AcDbLine
10
-472.36976923777854
20
-1043.0188048729428
30
0
11
-470.61477007701194
21
-1043.0188048729428
31
0
0
LINE
5
167
100
AcDbEntity
8
0
100
AcDbLine
10
-471.7847711069802
20
-1041.2638057121762
30
0
11
-471.7847711069802
21
-1045.6513059982785
31
0
0
LINE
5
168
100
AcDbEntity
8
0
100
AcDbLine
10
-470.9072715265969
20
-1046.5288055786618
30
0
11
-470.61477007701194
21
-1046.5288055786618
31
0
0
ARC
5
169
100
AcDbEntity
8
0
100
AcDbCircle
10
-471.01261439158714
20
-1045.7566476711759
30
0
40
0.77931083738803864
210
0
220
0
230
1
100
AcDbArc
50
172.23138882811151
51
277.76860320370537
0
LINE
5
170
100
AcDbEntity
8
0
100
AcDbLine
10
-466.95852103068626
20
-1046.5288055786618
30
0
11
-468.42102351023948
21
-1046.5288055786618
31
0
0
LINE
5
171
100
AcDbEntity
8
0
100
AcDbLine
10
-469.29852309062278
20
-1045.6513059982785
30
0
11
-469.29852309062278
21
-1044.1888059029111
31
0
0
LINE
5
172
100
AcDbEntity
8
0
100
AcDbLine
10
-466.95852103068626
20
-1044.1888059029111
30
0
11
-466.95852103068626
21
-1044.7738052258023
31
0
0
LINE
5
173
100
AcDbEntity
8
0
100
AcDbLine
10
-466.95852103068626
20
-1044.7738052258023
30
0
11
-469.29852309062278
21
-1044.7738052258023
31
0
0
ARC
5
174
100
AcDbEntity
8
0
100
AcDbCircle
10
-468.52636160685813
20
-1045.7566476711759
30
0
40
0.77931083738803864
210
0
220
0
230
1
100
AcDbArc
50
172.23138882811151
51
277.76860320370537
0
ARC
5
175
100
AcDbEntity
8
0
100
AcDbCircle
10
-468.12852206065452
20
-1044.1888059029111
30
0
40
1.1700000613927841
210
0
220
0
230
1
100
AcDbArc
50
0
51
180.00000497831306
0
LINE
5
176
100
AcDbEntity
8
0
100
AcDbLine
10
-465.34977259471214
20
-1046.5288055786618
30
0
11
-465.34977259471214
21
-1043.0188048729428
31
0
0
LINE
5
177
100
AcDbEntity
8
0
100
AcDbLine
10
-465.34977259471214
20
-1043.0188048729428
30
0
11
-463.59477343394553
21
-1043.0188048729428
31
0
0
LINE
5
178
100
AcDbEntity
8
0
100
AcDbLine
10
-463.59477343394553
20
-1043.0188048729428
30
0
11
-463.59477343394553
21
-1043.603805387927
31
0
0
LINE
5
179
100
AcDbEntity
8
0
100
AcDbLine
10
-462.13227095439231
20
-1046.5288055786618
30
0
11
-462.42477240397727
21
-1046.5288055786618
31
0
0
LINE
5
180
100
AcDbEntity
8
0
100
AcDbLine
10
-462.42477240397727
20
-1046.5288055786618
30
0
11
-462.42477240397727
21
-1046.2363053211698
31
0
0
LINE
5
181
100
AcDbEntity
8
0
100
AcDbLine
10
-462.42477240397727
20
-1046.2363053211698
30
0
11
-462.13227095439231
21
-1046.2363053211698
31
0
0
LINE
5
182
100
AcDbEntity
8
0
100
AcDbLine
10
-462.13227095439231
20
-1046.2363053211698
30
0
11
-462.13227095439231
21
-1046.5288055786618
31
0
0
LINE
5
183
100
AcDbEntity
8
0
100
AcDbLine
10
-462.13227095439231
20
-1046.5288055786618
30
0
11
-462.57102312876975
21
-1047.6988054165372
31
0
0
LINE
5
184
100
AcDbEntity
8
0
100
AcDbLine
10
-511.19914951159751
20
-1051.4038074860105
30
0
11
-513.68539991214072
21
-1054.3288076767453
31
0
0
LINE
5
185
100
AcDbEntity
8
0
100
AcDbLine
10
-513.68539991214072
20
-1054.3288076767453
30
0
11
-510.76039972140586
21
-1054.3288076767453
31
0
0
ARC
5
186
100
AcDbEntity
8
0
100
AcDbCircle
10
-511.91863717868125
20
-1050.2220452675351
30
0
40
1.1689662933349609
210
0
220
0
230
1
100
AcDbArc
50
-7.7686198232970476
51
97.768618685313228
0
ARC
5
187
100
AcDbEntity
8
0
100
AcDbCircle
10
-512.25323262049949
20
-1050.5120218643674
30
0
40
1.4589405059814451
210
0
220
0
230
1
100
AcDbArc
50
83.048174495535278
51
169.00656965300817
0
ARC
5
188
100
AcDbEntity
8
0
100
AcDbCircle
10
-511.93103852107322
20
-1050.4842484840879
30
0
40
1.1752662807703018
210
0
220
0
230
1
100
AcDbArc
50
-51.483278511491143
51
5.0861029267654381
0
LINE
5
189
100
AcDbEntity
8
0
100
AcDbLine
10
-507.10414948298728
20
-1054.3288076767453
30
0
11
-504.76414980723655
21
-1050.8188069710263
31
0
0
LINE
5
190
100
AcDbEntity
8
0
100
AcDbLine
10
-507.10414948298728
20
-1050.8188069710263
30
0
11
-504.76414980723655
21
-1054.3288076767453
31
0
0
LINE
5
191
100
AcDbEntity
8
0
100
AcDbLine
10
-501.10790076091087
20
-1050.2338064560422
30
0
11
-499.64539828135764
21
-1049.0638078102597
31
0
0
LINE
5
192
100
AcDbEntity
8
0
100
AcDbLine
10
-499.64539828135764
20
-1049.0638078102597
30
0
11
-499.64539828135764
21
-1054.3288076767453
31
0
0
LINE
5
193
100
AcDbEntity
8
0
100
AcDbLine
10
-501.10790076091087
20
-1054.3288076767453
30
0
11
-498.182900570176
21
-1054.3288076767453
31
0
0
LINE
5
194
100
AcDbEntity
8
0
100
AcDbLine
10
-494.23415007426536
20
-1051.4038074860105
30
0
11
-496.72039809062278
21
-1054.3288076767453
31
0
0
LINE
5
195
100
AcDbEntity
8
0
100
AcDbLine
10
-496.72039809062278
20
-1054.3288076767453
30
0
11
-493.79539789988792
21
-1054.3288076767453
31
0
0
ARC
5
196
100
AcDbEntity
8
0
100
AcDbCircle
10
-494.9536377413491
20
-1050.2220452675351
30
0
40
1.1689662933349609
210
0
220
0
230
1
100
AcDbArc
50
-7.7686198232970476
51
97.768618685313228
0
ARC
5
197
100
AcDbEntity
8
0
100
AcDbCircle
10
-495.28823199107444
20
-1050.5120218643674
30
0
40
1.4589405059814451
210
0
220
0
230
1
100
AcDbArc
50
83.048174495535278
51
169.0065696530086
0
ARC
5
198
100
AcDbEntity
8
0
100
AcDbCircle
10
-494.96603789164817
20
-1050.4842484840879
30
0
40
1.1752662807703018
210
0
220
0
230
1
100
AcDbArc
50
-51.483278511491143
51
5.0861029267654381
0
LINE
5
199
100
AcDbEntity
8
0
100
AcDbLine
10
-489.84664978816306
20
-1054.3288076767453
30
0
11
-489.84664978816306
21
-1050.8188069710263
31
0
0
LINE
5
200
100
AcDbEntity
8
0
100
AcDbLine
10
-489.84664978816306
20
-1050.8188069710263
30
0
11
-487.21414866282737
21
-1050.8188069710263
31
0
0
LINE
5
201
100
AcDbEntity
8
0
100
AcDbLine
10
-486.33664908244407
20
-1051.6963065514096
30
0
11
-486.33664908244407
21
-1054.3288076767453
31
0
0
LINE
5
202
100
AcDbEntity
8
0
100
AcDbLine
10
-488.09164824321067
20
-1054.3288076767453
30
0
11
-488.09164824321067
21
-1050.8188069710263
31
0
0
ARC
5
203
100
AcDbEntity
8
0
100
AcDbCircle
10
-487.10880818202293
20
-1051.5909660706052
30
0
40
0.77931083738803864
210
0
220
0
230
1
100
AcDbArc
50
-7.7686198233104822
51
97.768618685316738
0
LINE
5
204
100
AcDbEntity
8
0
100
AcDbLine
10
-484.58164992167747
20
-1054.3288076767453
30
0
11
-484.58164992167747
21
-1050.8188069710263
31
0
0
LINE
5
205
100
AcDbEntity
8
0
100
AcDbLine
10
-484.58164992167747
20
-1050.8188069710263
30
0
11
-481.94915118052756
21
-1050.8188069710263
31
0
0
LINE
5
206
100
AcDbEntity
8
0
100
AcDbLine
10
-481.07165160014426
20
-1051.6963065514096
30
0
11
-481.07165160014426
21
-1054.3288076767453
31
0
0
LINE
5
207
100
AcDbEntity
8
0
100
AcDbLine
10
-482.82665076091087
20
-1054.3288076767453
30
0
11
-482.82665076091087
21
-1050.8188069710263
31
0
0
ARC
5
208
100
AcDbEntity
8
0
100
AcDbCircle
10
-481.84380831553733
20
-1051.5909660706052
30
0
40
0.77931083738803864
210
0
220
0
230
1
100
AcDbArc
50
-7.7686198233104822
51
97.768618685316738
0
LINE
5
209
100
AcDbEntity
8
0
100
AcDbLine
10
-476.97665037944114
20
-1056.0838068375119
30
0
11
-476.97665037944114
21
-1050.8188069710263
31
0
0
LINE
5
210
100
AcDbEntity
8
0
100
AcDbLine
10
-476.97665037944114
20
-1050.8188069710263
30
0
11
-475.51414789988792
21
-1050.8188069710263
31
0
0
LINE
5
211
100
AcDbEntity
8
0
100
AcDbLine
10
-474.63664831950462
20
-1051.6963065514096
30
0
11
-474.63664831950462
21
-1053.451308096362
31
0
0
LINE
5
212
100
AcDbEntity
8
0
100
AcDbLine
10
-475.51414789988792
20
-1054.3288076767453
30
0
11
-476.97665037944114
21
-1054.3288076767453
31
0
0
ARC
5
213
100
AcDbEntity
8
0
100
AcDbCircle
10
-475.40880980326926
20
-1051.5909660706052
30
0
40
0.77931083738803864
210
0
220
0
230
1
100
AcDbArc
50
-7.7686198233104822
51
97.768618685316738
0
ARC
5
214
100
AcDbEntity
8
0
100
AcDbCircle
10
-475.40880980326926
20
-1053.5566485771665
30
0
40
0.77931083738803864
210
0
220
0
230
1
100
AcDbArc
50
-97.768629157968817
51
7.7686161808485608
0
LINE
5
215
100
AcDbEntity
8
0
100
AcDbLine
10
-473.02789988353049
20
-1049.0638078102597
30
0
11
-473.02789988353049
21
-1053.451308096362
31
0
0
ARC
5
216
100
AcDbEntity
8
0
100
AcDbCircle
10
-472.25574316813743
20
-1053.5566485771665
30
0
40
0.77931083738803864
210
0
220
0
230
1
100
AcDbArc
50
172.23138882811151
51
277.76860320370537
0
LINE
5
217
100
AcDbEntity
8
0
100
AcDbLine
10
-470.98039927317893
20
-1056.0838068375119
30
0
11
-470.39539637400901
21
-1056.0838068375119
31
0
0
LINE
5
218
100
AcDbEntity
8
0
100
AcDbLine
10
-470.39539637400901
20
-1056.0838068375119
30
0
11
-468.64039721324241
21
-1050.8188069710263
31
0
0
LINE
5
219
100
AcDbEntity
8
0
100
AcDbLine
10
-470.98039927317893
20
-1050.8188069710263
30
0
11
-469.81039824321067
21
-1054.3288076767453
31
0
0
ENDSEC
0
SECTION
2
OBJECTS
0
DICTIONARY
5
C
100
AcDbDictionary
3
ACAD_GROUP
350
D
3
ACAD_MLINESTYLE
350
17
0
DICTIONARY
5
D
100
AcDbDictionary
0
DICTIONARY
5
1A
330
C
100
AcDbDictionary
0
DICTIONARY
5
17
100
AcDbDictionary
0
ENDSEC
0
EOF
