0
SECTION
2
HEADER
9
$INSUNITS
70
4
9
$ACADVER
1
AC1014
9
$HANDSEED
5
FFFF
0
ENDSEC
0
SECTION
2
TABLES
0
TABLE
2
VPORT
5
8
100
AcDbSymbolTable
0
ENDTAB
0
TABLE
2
LTYPE
5
5
100
AcDbSymbolTable
0
LTYPE
5
14
100
AcDbSymbolTableRecord
100
AcDbLinetypeTableRecord
2
BYBLOCK
70
0
0
LTYPE
5
15
100
AcDbSymbolTableRecord
100
AcDbLinetypeTableRecord
2
BYLAYER
70
0
0
LTYPE
5
16
100
AcDbSymbolTableRecord
100
AcDbLinetypeTableRecord
2
DASHED
70
0
3
Dashed __ __ __ __ __ __ __ __ __ __ __ __ __ _
72
65
73
2
40
0.75
49
0.5
74
0
49
-0.25
74
0
0
ENDTAB
0
TABLE
2
LAYER
5
2
100
AcDbSymbolTable
70
3
0
LAYER
5
50
100
AcDbSymbolTableRecord
100
AcDbLayerTableRecord
2
1
70
0
62
7
6
DASHED
0
LAYER
5
51
100
AcDbSymbolTableRecord
100
AcDbLayerTableRecord
2
0
70
0
62
7
6
CONTINUOUS
0
ENDTAB
0
TABLE
2
STYLE
5
3
100
AcDbSymbolTable
70
1
0
STYLE
5
11
100
AcDbSymbolTableRecord
100
AcDbTextStyleTableRecord
2
STANDARD
70
0
0
ENDTAB
0
TABLE
2
VIEW
5
6
100
AcDbSymbolTable
70
0
0
ENDTAB
0
TABLE
2
UCS
5
7
100
AcDbSymbolTable
70
0
0
ENDTAB
0
TABLE
2
APPID
5
9
100
AcDbSymbolTable
70
2
0
APPID
5
12
100
AcDbSymbolTableRecord
100
AcDbRegAppTableRecord
2
ACAD
70
0
0
ENDTAB
0
TABLE
2
DIMSTYLE
5
A
100
AcDbSymbolTable
70
1
0
ENDTAB
0
TABLE
2
BLOCK_RECORD
5
1
100
AcDbSymbolTable
70
1
0
BLOCK_RECORD
5
1F
100
AcDbSymbolTableRecord
100
AcDbBlockTableRecord
2
*MODEL_SPACE
0
BLOCK_RECORD
5
1B
100
AcDbSymbolTableRecord
100
AcDbBlockTableRecord
2
*PAPER_SPACE
0
ENDTAB
0
ENDSEC
0
SECTION
2
BLOCKS
0
BLOCK
5
20
100
AcDbEntity
100
AcDbBlockBegin
2
*MODEL_SPACE
0
ENDBLK
5
21
100
AcDbEntity
100
AcDbBlockEnd
0
BLOCK
5
1C
100
AcDbEntity
100
AcDbBlockBegin
2
*PAPER_SPACE
0
ENDBLK
5
1D
100
AcDbEntity
100
AcDbBlockEnd
0
ENDSEC
0
SECTION
2
ENTITIES
0
CIRCLE
5
100
100
AcDbEntity
8
0
100
AcDbCircle
10
-23.504034251518952
20
-1128.9814271135851
30
0
40
0.99999999999994316
210
0
220
-0
230
1
0
CIRCLE
5
101
100
AcDbEntity
8
0
100
AcDbCircle
10
-41.504034251518959
20
-943.48142711358503
30
0
40
1.0000000000000142
210
-0
220
0
230
1
0
CIRCLE
5
102
100
AcDbEntity
8
0
100
AcDbCircle
10
-97.504034251518888
20
-943.48142711358503
30
0
40
1.0000000000000142
210
-0
220
0
230
1
0
CIRCLE
5
103
100
AcDbEntity
8
0
100
AcDbCircle
10
-115.50403425151897
20
-1075.5112023791698
30
0
40
1.0000000000000142
210
-0
220
0
230
1
0
CIRCLE
5
104
100
AcDbEntity
8
0
100
AcDbCircle
10
-115.50403425151897
20
-1019.5112023791698
30
0
40
1.0000000000000142
210
-0
220
0
230
1
0
CIRCLE
5
105
100
AcDbEntity
8
0
100
AcDbCircle
10
-115.5040342515189
20
-899.51120237916984
30
0
40
1.0000000000000142
210
-0
220
0
230
1
0
CIRCLE
5
106
100
AcDbEntity
8
0
100
AcDbCircle
10
-23.504034251517993
20
-280.63785374812227
30
0
40
1.0000000000000142
210
0
220
-0
230
1
0
CIRCLE
5
107
100
AcDbEntity
8
0
100
AcDbCircle
10
-115.50403425151886
20
-564.16120237917164
30
0
40
1.0000000000000142
210
-0
220
0
230
1
0
CIRCLE
5
108
100
AcDbEntity
8
0
100
AcDbCircle
10
-115.5040342515189
20
-464.16120237917164
30
0
40
1.0000000000000142
210
-0
220
0
230
1
0
CIRCLE
5
109
100
AcDbEntity
8
0
100
AcDbCircle
10
-115.50403425151883
20
-328.16120237917147
30
0
40
1.0000000149011612
210
-3.944304526105059e-31
220
4.830379912756956e-47
230
1
0
CIRCLE
5
110
100
AcDbEntity
8
0
100
AcDbCircle
10
-115.50403425151883
20
-358.16119628459654
30
0
40
1.0000000000000142
210
-0
220
0
230
1
0
CIRCLE
5
111
100
AcDbEntity
8
0
100
AcDbCircle
10
-145.50403380448395
20
-323.99983361909051
30
0
40
0.99999999999999645
210
3.944304526105059e-31
220
4.9303806576313189e-32
230
1
0
CIRCLE
5
112
100
AcDbEntity
8
0
100
AcDbCircle
10
-125.50403410250725
20
-206.62331492634112
30
0
40
1.0000000000000009
210
-0
220
0
230
1
0
CIRCLE
5
113
100
AcDbEntity
8
0
100
AcDbCircle
10
-131.50403395349568
20
-319.44102430267804
30
0
40
0.99999999999999645
210
3.944304526105059e-31
220
4.9303806576313189e-32
230
1
0
CIRCLE
5
114
100
AcDbEntity
8
0
100
AcDbCircle
10
-145.5040344005304
20
-201.62331492634112
30
0
40
1.0000000000000009
210
-0
220
0
230
1
0
CIRCLE
5
115
100
AcDbEntity
8
0
100
AcDbCircle
10
-97.50403425151886
20
-358.16120237917153
30
0
40
1.0000000000000142
210
-0
220
0
230
1
0
CIRCLE
5
116
100
AcDbEntity
8
0
100
AcDbCircle
10
-41.504034251518888
20
-358.16120237917153
30
0
40
1.0000000000000142
210
-0
220
0
230
1
0
LWPOLYLINE
5
117
100
AcDbEntity
8
0
100
AcDbPolyline
90
46
70
1
43
0.0
10
-29.50403425151903
20
-1112.7434444864648
42
0.9999999925494194
10
-25.358927892593822
20
-1117.0814271135853
10
-17.504034251519005
20
-1117.0814271135851
10
-17.504034251519009
20
-1140.881427113585
10
-25.445031436045515
20
-1140.881427113585
42
1.0000000074505806
10
-29.504034251519037
20
-1145.3000803183497
10
-29.504034251519027
20
-1169.4814271135849
10
-155.50403425151887
20
-1043.4814271135851
10
-155.50403425151879
20
-204.11450511707275
42
-0.99999999999999989
10
-115.50403425151886
20
-204.11450511707275
10
-115.50403425151886
20
-287.30151937610094
42
0.52056705045682428
10
-99.399792534979383
20
-298.57783082675815
10
-29.504034251517936
20
-273.13785374812227
10
-19.504034251517933
20
-273.13785374812221
42
-0.41421356237309664
10
-17.504034251517975
20
-275.13785374812215
10
-17.504034251517979
20
-288.13785374812227
10
-29.321118373864643
20
-288.13785374812227
42
0.99999999999999989
10
-29.504034251518007
20
-293.71338641904657
10
-29.50403425151886
20
-364.16110237917172
10
-61.404034251518837
20
-364.16110237917172
10
-61.404034251518837
20
-356.31055072052305
42
1.0084208264513077
10
-65.63965786001377
20
-352.06120237917168
10
-81.368400927851084
20
-352.06120237917168
42
1.0084185399537371
10
-85.604034251518883
20
-356.31054119775024
10
-85.60403425151884
20
-364.16110237917172
10
-111.50403001978114
20
-364.16110237917172
42
0.41421356237308721
10
-115.50403001978113
20
-368.16110237917155
10
-115.5040342515189
20
-402.16811799977967
10
-115.50403425151892
20
-436.41523568675672
42
0.34199871311964725
10
-109.50403425151896
20
-444.16120237917175
10
-109.50403425151896
20
-474.06120237917156
10
-117.27137779141844
20
-474.06120237917145
42
0.99999999999999989
10
-121.50403425151892
20
-478.31380385247797
10
-121.5040342515189
20
-549.86094852584472
42
0.99999999999999989
10
-117.425092473768
20
-554.26120237917155
10
-109.50403425151892
20
-554.26120237917166
10
-109.50403425151892
20
-919.48142711358503
42
0.41421356237309503
10
-91.504034251518917
20
-937.48142711358491
10
-85.604034251518954
20
-937.48142711358491
10
-85.604034251518968
20
-945.56733271204075
42
0.99999999999999989
10
-81.144544803668424
20
-949.58142711358505
10
-65.511828078912387
20
-949.58142711358505
42
0.99999999999999989
10
-61.40403425151905
20
-945.20809544635142
10
-61.40403425151905
20
-937.48142711358491
10
-41.504034251518959
20
-937.48142711358491
42
-0.41421356237309465
10
-29.504034251518931
20
-949.48142711358503
0
LWPOLYLINE
5
118
100
AcDbEntity
8
0
100
AcDbPolyline
90
8
70
1
43
0.0
10
-109.40403425151901
20
-1033.5159339372631
42
0.99999999999999989
10
-113.78024023798646
20
-1029.4112023791697
10
-117.43678784436483
20
-1029.4112023791699
42
1.0000000674678791
10
-121.60403425151904
20
-1033.7279207371425
10
-121.60403425151904
20
-1065.4392628669423
42
0.99999999999999989
10
-117.29185142766808
20
-1069.6112023791698
10
-113.78527045560145
20
-1069.6112023791698
42
1.0000039293679226
10
-109.40403425151905
20
-1065.5118403161798
0
LINE
5
119
100
AcDbEntity
8
1
100
AcDbLine
10
-149.50403425151885
20
-329.99983361909051
30
0
11
-149.50403425151885
21
-494.37467347752931
31
0
0
LINE
5
120
100
AcDbEntity
8
1
100
AcDbLine
10
-149.50403425151885
20
-494.37467347752931
30
0
11
-133.32164074834378
21
-494.37467347752931
31
0
0
LINE
5
121
100
AcDbEntity
8
1
100
AcDbLine
10
-133.32164074834378
20
-494.37467347752931
30
0
11
-133.32164074834378
21
-329.99983361909051
31
0
0
LINE
5
122
100
AcDbEntity
8
1
100
AcDbLine
10
-133.32164074834378
20
-329.99983361909051
30
0
11
-149.50403425151885
21
-329.99983361909051
31
0
0
LINE
5
123
100
AcDbEntity
8
0
100
AcDbLine
10
-146.57903518136533
20
-330.87733372101445
30
0
11
-146.57903518136533
21
-332.33983374187608
31
0
0
LINE
5
124
100
AcDbEntity
8
0
100
AcDbLine
10
-149.50403537210019
20
-332.33983374187608
30
0
11
-149.50403537210019
21
-330.87733372101445
31
0
0
LINE
5
125
100
AcDbEntity
8
0
100
AcDbLine
10
-149.50403537210019
20
-330.87733372101445
30
0
11
-144.2390343135217
21
-330.87733372101445
31
0
0
LINE
5
126
100
AcDbEntity
8
0
100
AcDbLine
10
-144.2390343135217
20
-330.87733372101445
30
0
11
-144.2390343135217
21
-332.33983374187608
31
0
0
ARC
5
127
100
AcDbEntity
8
0
100
AcDbCircle
10
-148.04153527673276
20
-332.33983374187608
30
0
40
1.4625000953674316
210
-0
220
0
230
1
100
AcDbArc
50
-180
51
2.4148365394514667e-06
0
ARC
5
128
100
AcDbEntity
8
0
100
AcDbCircle
10
-145.40903534348996
20
-332.33983374187608
30
0
40
1.1700000613927841
210
-0
220
0
230
1
100
AcDbArc
50
-180
51
2.4148365394514667e-06
0
LINE
5
129
100
AcDbEntity
8
0
100
AcDbLine
10
-145.40903534348996
20
-335.11858395287652
30
0
11
-144.2390343135217
21
-336.58108404824395
31
0
0
LINE
5
130
100
AcDbEntity
8
0
100
AcDbLine
10
-144.2390343135217
20
-336.58108404824395
30
0
11
-149.50403537210019
21
-336.58108404824395
31
0
0
LINE
5
131
100
AcDbEntity
8
0
100
AcDbLine
10
-149.50403537210019
20
-335.11858395287652
30
0
11
-149.50403537210019
21
-338.04358414361138
31
0
0
LINE
5
132
100
AcDbEntity
8
0
100
AcDbLine
10
-149.50403537210019
20
-339.79858449647088
30
0
11
-149.50403537210019
21
-339.50608423897881
31
0
0
LINE
5
133
100
AcDbEntity
8
0
100
AcDbLine
10
-149.50403537210019
20
-339.50608423897881
30
0
11
-149.21153511460813
21
-339.50608423897881
31
0
0
LINE
5
134
100
AcDbEntity
8
0
100
AcDbLine
10
-149.21153511460813
20
-339.50608423897881
30
0
11
-149.21153511460813
21
-339.79858449647088
31
0
0
LINE
5
135
100
AcDbEntity
8
0
100
AcDbLine
10
-149.21153511460813
20
-339.79858449647088
30
0
11
-149.50403537210019
21
-339.79858449647088
31
0
0
LINE
5
136
100
AcDbEntity
8
0
100
AcDbLine
10
-149.50403537210019
20
-339.79858449647088
30
0
11
-150.67403520997556
21
-339.35983411023278
31
0
0
LINE
5
137
100
AcDbEntity
8
0
100
AcDbLine
10
-148.04153527673276
20
-345.50233415314813
30
0
11
-147.45653476174863
21
-344.03983405778069
31
0
0
ARC
5
138
100
AcDbEntity
8
0
100
AcDbCircle
10
-146.74371566232236
20
-344.27823594758172
30
0
40
0.75162976980209339
210
-0
220
0
230
1
100
AcDbArc
50
-4.127412509070874
51
161.50753671300714
0
ARC
5
139
100
AcDbEntity
8
0
100
AcDbCircle
10
-148.7107619231561
20
-344.41924265572686
30
0
40
2.7181166410446167
210
-0
220
0
230
1
100
AcDbArc
50
-26.889878521972108
51
1.8322622210373283
0
ARC
5
140
100
AcDbEntity
8
0
100
AcDbCircle
10
-148.75303234513791
20
-345.25731853196282
30
0
40
0.75250290334224701
210
-0
220
0
230
1
100
AcDbArc
50
176.38213144216266
51
340.99800642215189
0
ARC
5
141
100
AcDbEntity
8
0
100
AcDbCircle
10
-146.40704359468015
20
-344.9419575090136
30
0
40
3.1085547804832454
210
-0
220
0
230
1
100
AcDbArc
50
154.44676035661027
51
184.94352767996114
0
LINE
5
142
100
AcDbEntity
8
0
100
AcDbLine
10
-145.9940346663812
20
-347.11108378121514
30
0
11
-145.9940346663812
21
-348.86608413407464
31
0
0
LINE
5
143
100
AcDbEntity
8
0
100
AcDbLine
10
-144.2390343135217
20
-347.69608429619927
30
0
11
-148.62653579171689
21
-347.69608429619927
31
0
0
LINE
5
144
100
AcDbEntity
8
0
100
AcDbLine
10
-149.50403537210019
20
-348.57358387658257
30
0
11
-149.50403537210019
21
-348.86608413407464
31
0
0
ARC
5
145
100
AcDbEntity
8
0
100
AcDbCircle
10
-148.73187746461423
20
-348.46824220368524
30
0
40
0.77931083738803864
210
-0
220
0
230
1
100
AcDbArc
50
82.231388828117687
51
187.76860320370707
0
LINE
5
146
100
AcDbEntity
8
0
100
AcDbLine
10
-149.50403537210019
20
-350.32858422944207
30
0
11
-145.9940346663812
21
-350.32858422944207
31
0
0
LINE
5
147
100
AcDbEntity
8
0
100
AcDbLine
10
-144.53153457101376
20
-350.18233350464959
30
0
11
-144.2390343135217
21
-350.18233350464959
31
0
0
LINE
5
148
100
AcDbEntity
8
0
100
AcDbLine
10
-144.2390343135217
20
-350.18233350464959
30
0
11
-144.2390343135217
21
-350.47483495423455
31
0
0
LINE
5
149
100
AcDbEntity
8
0
100
AcDbLine
10
-144.2390343135217
20
-350.47483495423455
30
0
11
-144.53153457101376
21
-350.47483495423455
31
0
0
LINE
5
150
100
AcDbEntity
8
0
100
AcDbLine
10
-144.53153457101376
20
-350.47483495423455
30
0
11
-144.53153457101376
21
-350.18233350464959
31
0
0
LINE
5
151
100
AcDbEntity
8
0
100
AcDbLine
10
-149.50403537210019
20
-353.98483327576776
30
0
11
-149.50403537210019
21
-352.81483462998528
31
0
0
LINE
5
152
100
AcDbEntity
8
0
100
AcDbLine
10
-148.62653579171689
20
-351.93733266541619
30
0
11
-146.87153543885739
21
-351.93733266541619
31
0
0
LINE
5
153
100
AcDbEntity
8
0
100
AcDbLine
10
-145.9940346663812
20
-352.81483462998528
30
0
11
-145.9940346663812
21
-353.98483327576776
31
0
0
ARC
5
154
100
AcDbEntity
8
0
100
AcDbCircle
10
-148.73187746461423
20
-352.70949176499505
30
0
40
0.77931083738803864
210
-0
220
0
230
1
100
AcDbArc
50
82.231388828117687
51
187.76860320370707
0
ARC
5
155
100
AcDbEntity
8
0
100
AcDbCircle
10
-146.76619376596005
20
-352.70949176499505
30
0
40
0.77931083738803864
210
-0
220
0
230
1
100
AcDbArc
50
-7.7686136763599265
51
97.768621189792597
0
LINE
5
156
100
AcDbEntity
8
0
100
AcDbLine
10
-149.50403537210019
20
-355.44733337113519
30
0
11
-144.2390343135217
21
-355.44733337113519
31
0
0
LINE
5
157
100
AcDbEntity
8
0
100
AcDbLine
10
-145.9940346663812
20
-357.78733304688592
30
0
11
-147.74903501924069
21
-355.44733337113519
31
0
0
LINE
5
158
100
AcDbEntity
8
0
100
AcDbLine
10
-149.50403537210019
20
-357.78733304688592
30
0
11
-147.01778497155698
21
-356.47108367631097
31
0
0
LINE
5
159
100
AcDbEntity
8
0
100
AcDbLine
10
-147.45653476174863
20
-363.78358415314813
30
0
11
-147.45653476174863
21
-362.46733239838738
31
0
0
LINE
5
160
100
AcDbEntity
8
0
100
AcDbLine
10
-149.50403537210019
20
-362.46733239838738
30
0
11
-149.50403537210019
21
-363.78358415314813
31
0
0
LINE
5
161
100
AcDbEntity
8
0
100
AcDbLine
10
-149.50403537210019
20
-363.78358415314813
30
0
11
-146.87153543885739
21
-363.78358415314813
31
0
0
LINE
5
162
100
AcDbEntity
8
0
100
AcDbLine
10
-145.9940346663812
20
-362.90608457276483
30
0
11
-145.9940346663812
21
-361.73608354279656
31
0
0
ARC
5
163
100
AcDbEntity
8
0
100
AcDbCircle
10
-148.48028506692441
20
-362.46733239838738
30
0
40
1.0237500816583633
210
-0
220
0
230
1
100
AcDbArc
50
2.4148365394514667e-06
51
180
0
ARC
5
164
100
AcDbEntity
8
0
100
AcDbCircle
10
-146.76619376596005
20
-363.01142505356927
30
0
40
0.77931083738803864
210
-0
220
0
230
1
100
AcDbArc
50
-97.768619823302188
51
7.7686186853164214
0
LINE
5
165
100
AcDbEntity
8
0
100
AcDbLine
10
-148.04153527673276
20
-367.29358485886712
30
0
11
-147.45653476174863
21
-365.83108476349969
31
0
0
ARC
5
166
100
AcDbEntity
8
0
100
AcDbCircle
10
-146.74371566232236
20
-366.06948426911492
30
0
40
0.75162976980209351
210
-0
220
0
230
1
100
AcDbArc
50
-4.127412509070874
51
161.50753671300714
0
ARC
5
167
100
AcDbEntity
8
0
100
AcDbCircle
10
-148.7107619231561
20
-366.21049216935296
30
0
40
2.7181166410446163
210
-0
220
0
230
1
100
AcDbArc
50
-26.889878521972108
51
1.8322622210373283
0
ARC
5
168
100
AcDbEntity
8
0
100
AcDbCircle
10
-148.75303234513791
20
-367.04856923768182
30
0
40
0.75250290334224701
210
-0
220
0
230
1
100
AcDbArc
50
176.38213144216266
51
340.99800642215189
0
ARC
5
169
100
AcDbEntity
8
0
100
AcDbCircle
10
-146.40704359468015
20
-366.7332082147326
30
0
40
3.1085547804832458
210
-0
220
0
230
1
100
AcDbArc
50
154.44676035661027
51
184.94352767996114
0
LINE
5
170
100
AcDbEntity
8
0
100
AcDbLine
10
-148.04153527673276
20
-371.09608224579949
30
0
11
-147.45653476174863
21
-369.63358453461785
31
0
0
ARC
5
171
100
AcDbEntity
8
0
100
AcDbCircle
10
-146.74371566232236
20
-369.87198404023309
30
0
40
0.75162976980209351
210
-0
220
0
230
1
100
AcDbArc
50
-4.127412509070874
51
161.50753671300714
0
ARC
5
172
100
AcDbEntity
8
0
100
AcDbCircle
10
-148.7107619231561
20
-370.01298955628533
30
0
40
2.7181166410446167
210
-0
220
0
230
1
100
AcDbArc
50
-26.889878521972108
51
1.8322622210373283
0
ARC
5
173
100
AcDbEntity
8
0
100
AcDbCircle
10
-148.75303234513791
20
-370.85106900879998
30
0
40
0.75250290334224701
210
-0
220
0
230
1
100
AcDbArc
50
176.38213144216266
51
340.99800642215189
0
ARC
5
174
100
AcDbEntity
8
0
100
AcDbCircle
10
-146.40704359468015
20
-370.53570798585076
30
0
40
3.1085547804832458
210
-0
220
0
230
1
100
AcDbArc
50
154.44676035661027
51
184.94352767996114
0
LINE
5
175
100
AcDbEntity
8
0
100
AcDbLine
10
-149.50403537210019
20
-375.3373341912951
30
0
11
-149.50403537210019
21
-373.87483171174188
31
0
0
LINE
5
176
100
AcDbEntity
8
0
100
AcDbLine
10
-148.62653579171689
20
-372.99733213135858
30
0
11
-147.16403569634946
21
-372.99733213135858
31
0
0
LINE
5
177
100
AcDbEntity
8
0
100
AcDbLine
10
-147.16403569634946
20
-375.3373341912951
30
0
11
-147.74903501924069
21
-375.3373341912951
31
0
0
LINE
5
178
100
AcDbEntity
8
0
100
AcDbLine
10
-147.74903501924069
20
-375.3373341912951
30
0
11
-147.74903501924069
21
-372.99733213135858
31
0
0
ARC
5
179
100
AcDbEntity
8
0
100
AcDbCircle
10
-148.73187746461423
20
-373.76949361512322
30
0
40
0.77931083738803864
210
-0
220
0
230
1
100
AcDbArc
50
82.231388828117687
51
187.76860320370707
0
ARC
5
180
100
AcDbEntity
8
0
100
AcDbCircle
10
-147.16403569634946
20
-374.16733316132684
30
0
40
1.1700000613927841
210
-0
220
0
230
1
100
AcDbArc
50
-90
51
90.000005008955682
0
LINE
5
181
100
AcDbEntity
8
0
100
AcDbLine
10
-149.50403537210019
20
-376.94608262726922
30
0
11
-145.9940346663812
21
-376.94608262726922
31
0
0
LINE
5
182
100
AcDbEntity
8
0
100
AcDbLine
10
-145.9940346663812
20
-376.94608262726922
30
0
11
-145.9940346663812
21
-379.57858136841912
31
0
0
LINE
5
183
100
AcDbEntity
8
0
100
AcDbLine
10
-146.87153543885739
20
-380.45608094880242
30
0
11
-149.50403537210019
21
-380.45608094880242
31
0
0
LINE
5
184
100
AcDbEntity
8
0
100
AcDbLine
10
-149.50403537210019
20
-378.70108178803582
30
0
11
-145.9940346663812
21
-378.70108178803582
31
0
0
ARC
5
185
100
AcDbEntity
8
0
100
AcDbCircle
10
-146.76619376596005
20
-379.68392423340936
30
0
40
0.77931083738803864
210
-0
220
0
230
1
100
AcDbArc
50
-97.768619823302188
51
7.7686186853164214
0
LINE
5
186
100
AcDbEntity
8
0
100
AcDbLine
10
-144.2390343135217
20
-382.21108487794061
30
0
11
-149.50403537210019
21
-382.21108487794061
31
0
0
LINE
5
187
100
AcDbEntity
8
0
100
AcDbLine
10
-149.50403537210019
20
-382.21108487794061
30
0
11
-149.50403537210019
21
-383.67358735749383
31
0
0
LINE
5
188
100
AcDbEntity
8
0
100
AcDbLine
10
-148.62653579171689
20
-384.55108693787713
30
0
11
-146.87153543885739
21
-384.55108693787713
31
0
0
LINE
5
189
100
AcDbEntity
8
0
100
AcDbLine
10
-145.9940346663812
20
-383.67358735749383
30
0
11
-145.9940346663812
21
-382.21108487794061
31
0
0
ARC
5
190
100
AcDbEntity
8
0
100
AcDbCircle
10
-148.73187746461423
20
-383.77892545411248
30
0
40
0.77931083738803864
210
-0
220
0
230
1
100
AcDbArc
50
172.23137084202955
51
277.76861618083819
0
ARC
5
191
100
AcDbEntity
8
0
100
AcDbCircle
10
-146.76619376596005
20
-383.77892545411248
30
0
40
0.77931083738803864
210
-0
220
0
230
1
100
AcDbArc
50
-97.768619823302188
51
7.7686186853164214
0
LINE
5
192
100
AcDbEntity
8
0
100
AcDbLine
10
-144.2390343135217
20
-386.15983537385125
30
0
11
-148.62653579171689
21
-386.15983537385125
31
0
0
ARC
5
193
100
AcDbEntity
8
0
100
AcDbCircle
10
-148.73187746461423
20
-386.93199208924432
30
0
40
0.77931083738803864
210
-0
220
0
230
1
100
AcDbArc
50
82.231388828117687
51
187.76860320370707
0
LINE
5
194
100
AcDbEntity
8
0
100
AcDbLine
10
-151.25903572495969
20
-388.20733598420281
30
0
11
-151.25903572495969
21
-388.79233888337274
31
0
0
LINE
5
195
100
AcDbEntity
8
0
100
AcDbLine
10
-151.25903572495969
20
-388.79233888337274
30
0
11
-145.9940346663812
21
-390.54733804413934
31
0
0
LINE
5
196
100
AcDbEntity
8
0
100
AcDbLine
10
-145.9940346663812
20
-388.20733598420281
30
0
11
-149.50403537210019
21
-389.37733701417108
31
0
0
LINE
5
197
100
AcDbEntity
8
0
100
AcDbLine
10
-144.2390343135217
20
-394.3498378152575
30
0
11
-149.50403537210019
21
-394.3498378152575
31
0
0
LINE
5
198
100
AcDbEntity
8
0
100
AcDbLine
10
-149.50403537210019
20
-394.3498378152575
30
0
11
-149.50403537210019
21
-395.81234029481072
31
0
0
LINE
5
199
100
AcDbEntity
8
0
100
AcDbLine
10
-148.62653579171689
20
-396.68983987519402
30
0
11
-146.87153543885739
21
-396.68983987519402
31
0
0
LINE
5
200
100
AcDbEntity
8
0
100
AcDbLine
10
-145.9940346663812
20
-395.81234029481072
30
0
11
-145.9940346663812
21
-394.3498378152575
31
0
0
ARC
5
201
100
AcDbEntity
8
0
100
AcDbCircle
10
-148.73187746461423
20
-395.91767839142938
30
0
40
0.77931083738803864
210
-0
220
0
230
1
100
AcDbArc
50
172.23137084202955
51
277.76861618083819
0
ARC
5
202
100
AcDbEntity
8
0
100
AcDbCircle
10
-146.76619376596005
20
-395.91767839142938
30
0
40
0.77931083738803864
210
-0
220
0
230
1
100
AcDbArc
50
-97.768619823302188
51
7.7686186853164214
0
LINE
5
203
100
AcDbEntity
8
0
100
AcDbLine
10
-148.33403553422482
20
-398.15233758637567
30
0
11
-147.16403569634946
21
-398.15233758637567
31
0
0
LINE
5
204
100
AcDbEntity
8
0
100
AcDbLine
10
-147.16403569634946
20
-400.49233964631219
30
0
11
-148.33403553422482
21
-400.49233964631219
31
0
0
ARC
5
205
100
AcDbEntity
8
0
100
AcDbCircle
10
-147.16403569634946
20
-399.32233861634393
30
0
40
1.1700000613927841
210
-0
220
0
230
1
100
AcDbArc
50
-90
51
90.000005008955682
0
ARC
5
206
100
AcDbEntity
8
0
100
AcDbCircle
10
-148.33403553422482
20
-399.32233861634393
30
0
40
1.1700000613927841
210
-0
220
0
230
1
100
AcDbArc
50
90.000005008955682
51
270
0
LINE
5
207
100
AcDbEntity
8
0
100
AcDbLine
10
-149.50403537210019
20
-401.80858663270135
30
0
11
-145.9940346663812
21
-404.14858869263787
31
0
0
LINE
5
208
100
AcDbEntity
8
0
100
AcDbLine
10
-145.9940346663812
20
-401.80858663270135
30
0
11
-149.50403537210019
21
-404.14858869263787
31
0
0
LINE
5
209
100
AcDbEntity
8
0
100
AcDbLine
10
-148.04153527673276
20
-409.70608762452264
30
0
11
-147.45653476174863
21
-408.243589913341
31
0
0
ARC
5
210
100
AcDbEntity
8
0
100
AcDbCircle
10
-146.74371566232236
20
-408.48198941895623
30
0
40
0.75162976980209351
210
-0
220
0
230
1
100
AcDbArc
50
-4.127412509070874
51
161.50753671300714
0
ARC
5
211
100
AcDbEntity
8
0
100
AcDbCircle
10
-148.7107619231561
20
-408.62299493500848
30
0
40
2.7181166410446167
210
-0
220
0
230
1
100
AcDbArc
50
-26.889878521972108
51
1.8322622210373283
0
ARC
5
212
100
AcDbEntity
8
0
100
AcDbCircle
10
-148.75303234513791
20
-409.46107438752313
30
0
40
0.75250290334224701
210
-0
220
0
230
1
100
AcDbArc
50
176.38213144216266
51
340.99800642215189
0
ARC
5
213
100
AcDbEntity
8
0
100
AcDbCircle
10
-146.40704359468015
20
-409.14571336457391
30
0
40
3.1085547804832458
210
-0
220
0
230
1
100
AcDbArc
50
154.44676035661027
51
184.94352767996114
0
LINE
5
214
100
AcDbEntity
8
0
100
AcDbLine
10
-149.50403537210019
20
-411.75359300324578
30
0
11
-145.9940346663812
21
-411.75359300324578
31
0
0
LINE
5
215
100
AcDbEntity
8
0
100
AcDbLine
10
-144.53153457101376
20
-411.60733751008172
30
0
11
-144.2390343135217
21
-411.60733751008172
31
0
0
LINE
5
216
100
AcDbEntity
8
0
100
AcDbLine
10
-144.2390343135217
20
-411.60733751008172
30
0
11
-144.2390343135217
21
-411.89983895966668
31
0
0
LINE
5
217
100
AcDbEntity
8
0
100
AcDbLine
10
-144.2390343135217
20
-411.89983895966668
30
0
11
-144.53153457101376
21
-411.89983895966668
31
0
0
LINE
5
218
100
AcDbEntity
8
0
100
AcDbLine
10
-144.53153457101376
20
-411.89983895966668
30
0
11
-144.53153457101376
21
-411.60733751008172
31
0
0
LINE
5
219
100
AcDbEntity
8
0
100
AcDbLine
10
-144.2390343135217
20
-415.70233873078485
30
0
11
-149.50403537210019
21
-415.70233873078485
31
0
0
LINE
5
220
100
AcDbEntity
8
0
100
AcDbLine
10
-149.50403537210019
20
-415.70233873078485
30
0
11
-149.50403537210019
21
-414.2398410196032
31
0
0
LINE
5
221
100
AcDbEntity
8
0
100
AcDbLine
10
-148.62653579171689
20
-413.36233667084832
30
0
11
-146.87153543885739
21
-413.36233667084832
31
0
0
LINE
5
222
100
AcDbEntity
8
0
100
AcDbLine
10
-145.9940346663812
20
-414.2398410196032
30
0
11
-145.9940346663812
21
-415.70233873078485
31
0
0
ARC
5
223
100
AcDbEntity
8
0
100
AcDbCircle
10
-148.73187746461423
20
-414.13449815461297
30
0
40
0.77931083738803864
210
-0
220
0
230
1
100
AcDbArc
50
82.231388828117687
51
187.76860320370707
0
ARC
5
224
100
AcDbEntity
8
0
100
AcDbCircle
10
-146.76619376596005
20
-414.13449815461297
30
0
40
0.77931083738803864
210
-0
220
0
230
1
100
AcDbArc
50
-7.7686136763599265
51
97.768621189792597
0
LINE
5
225
100
AcDbEntity
8
0
100
AcDbLine
10
-149.50403537210019
20
-419.65108445832391
30
0
11
-149.50403537210019
21
-418.18858674714227
31
0
0
LINE
5
226
100
AcDbEntity
8
0
100
AcDbLine
10
-148.62653579171689
20
-417.31108239838738
30
0
11
-147.16403569634946
21
-417.31108239838738
31
0
0
LINE
5
227
100
AcDbEntity
8
0
100
AcDbLine
10
-147.16403569634946
20
-419.65108445832391
30
0
11
-147.74903501924069
21
-419.65108445832391
31
0
0
LINE
5
228
100
AcDbEntity
8
0
100
AcDbLine
10
-147.74903501924069
20
-419.65108445832391
30
0
11
-147.74903501924069
21
-417.31108239838738
31
0
0
ARC
5
229
100
AcDbEntity
8
0
100
AcDbCircle
10
-148.73187746461423
20
-418.08324388215203
30
0
40
0.77931083738803864
210
-0
220
0
230
1
100
AcDbArc
50
82.231388828117687
51
187.76860320370707
0
ARC
5
230
100
AcDbEntity
8
0
100
AcDbCircle
10
-147.16403569634946
20
-418.48108819672723
30
0
40
1.1700000613927841
210
-0
220
0
230
1
100
AcDbArc
50
-90
51
90.000005008955682
0
LINE
5
231
100
AcDbEntity
8
0
100
AcDbLine
10
-149.50403537210019
20
-421.40608361909051
30
0
11
-149.50403537210019
21
-421.11358216950555
31
0
0
LINE
5
232
100
AcDbEntity
8
0
100
AcDbLine
10
-149.50403537210019
20
-421.11358216950555
30
0
11
-149.21153511460813
21
-421.11358216950555
31
0
0
LINE
5
233
100
AcDbEntity
8
0
100
AcDbLine
10
-149.21153511460813
20
-421.11358216950555
30
0
11
-149.21153511460813
21
-421.40608361909051
31
0
0
LINE
5
234
100
AcDbEntity
8
0
100
AcDbLine
10
-149.21153511460813
20
-421.40608361909051
30
0
11
-149.50403537210019
21
-421.40608361909051
31
0
0
LINE
5
235
100
AcDbEntity
8
0
100
AcDbLine
10
-149.50403537210019
20
-421.40608361909051
30
0
11
-150.67403520997556
21
-420.96733621308465
31
0
0
LINE
5
236
100
AcDbEntity
8
0
100
AcDbLine
10
-146.57903518136533
20
-427.6948314065661
30
0
11
-149.50403537210019
21
-425.20858339020867
31
0
0
LINE
5
237
100
AcDbEntity
8
0
100
AcDbLine
10
-149.50403537210019
20
-425.20858339020867
30
0
11
-149.50403537210019
21
-428.13358834931512
31
0
0
ARC
5
238
100
AcDbEntity
8
0
100
AcDbCircle
10
-145.39727296288999
20
-426.97535089203973
30
0
40
1.1689662933349609
210
-0
220
0
230
1
100
AcDbArc
50
-97.768619823302643
51
7.7686186853126555
0
ARC
5
239
100
AcDbEntity
8
0
100
AcDbCircle
10
-145.68724955972226
20
-426.6407542581286
30
0
40
1.4589405059814451
210
-0
220
0
230
1
100
AcDbArc
50
-6.9518255044641553
51
79.006569653010743
0
ARC
5
240
100
AcDbEntity
8
0
100
AcDbCircle
10
-145.65947498734982
20
-426.96294358918328
30
0
40
1.1752662807703018
210
-0
220
0
230
1
100
AcDbArc
50
218.5167214885123
51
275.08610292677105
0
LINE
5
241
100
AcDbEntity
8
0
100
AcDbLine
10
-149.50403537210019
20
-431.78984216401238
30
0
11
-145.9940346663812
21
-434.12983468720574
31
0
0
LINE
5
242
100
AcDbEntity
8
0
100
AcDbLine
10
-145.9940346663812
20
-431.78984216401238
30
0
11
-149.50403537210019
21
-434.12983468720574
31
0
0
LINE
5
243
100
AcDbEntity
8
0
100
AcDbLine
10
-145.40903534348996
20
-437.78608850190301
30
0
11
-144.2390343135217
21
-439.24858621308465
31
0
0
LINE
5
244
100
AcDbEntity
8
0
100
AcDbLine
10
-144.2390343135217
20
-439.24858621308465
30
0
11
-149.50403537210019
21
-439.24858621308465
31
0
0
LINE
5
245
100
AcDbEntity
8
0
100
AcDbLine
10
-149.50403537210019
20
-437.78608850190301
30
0
11
-149.50403537210019
21
-440.71109346100945
31
0
0
LINE
5
246
100
AcDbEntity
8
0
100
AcDbLine
10
-146.57903518136533
20
-444.65983918854852
30
0
11
-149.50403537210019
21
-442.1735911721911
31
0
0
LINE
5
247
100
AcDbEntity
8
0
100
AcDbLine
10
-149.50403537210019
20
-442.1735911721911
30
0
11
-149.50403537210019
21
-445.09859613129754
31
0
0
ARC
5
248
100
AcDbEntity
8
0
100
AcDbCircle
10
-145.39727296288999
20
-443.94035867402215
30
0
40
1.1689662933349609
210
-0
220
0
230
1
100
AcDbArc
50
-97.768619823302643
51
7.7686186853126555
0
ARC
5
249
100
AcDbEntity
8
0
100
AcDbCircle
10
-145.68724955972226
20
-443.60576204011102
30
0
40
1.4589405059814451
210
-0
220
0
230
1
100
AcDbArc
50
-6.9518255044641553
51
79.006569653010743
0
ARC
5
250
100
AcDbEntity
8
0
100
AcDbCircle
10
-145.65947498734982
20
-443.9279513711657
30
0
40
1.1752662807703018
210
-0
220
0
230
1
100
AcDbArc
50
218.5167214885123
51
275.08610292677105
0
LINE
5
251
100
AcDbEntity
8
0
100
AcDbLine
10
-149.50403537210019
20
-449.04735139557977
30
0
11
-145.9940346663812
21
-449.04735139557977
31
0
0
LINE
5
252
100
AcDbEntity
8
0
100
AcDbLine
10
-145.9940346663812
20
-449.04735139557977
30
0
11
-145.9940346663812
21
-451.67984536835809
31
0
0
LINE
5
253
100
AcDbEntity
8
0
100
AcDbLine
10
-146.87153543885739
20
-452.55734971711297
30
0
11
-149.50403537210019
21
-452.55734971711297
31
0
0
LINE
5
254
100
AcDbEntity
8
0
100
AcDbLine
10
-149.50403537210019
20
-450.80235055634637
30
0
11
-145.9940346663812
21
-450.80235055634637
31
0
0
ARC
5
255
100
AcDbEntity
8
0
100
AcDbCircle
10
-146.76619376596005
20
-451.78518823334832
30
0
40
0.77931083738803864
210
-0
220
0
230
1
100
AcDbArc
50
-97.768619823302188
51
7.7686186853164214
0
LINE
5
256
100
AcDbEntity
8
0
100
AcDbLine
10
-149.50403537210019
20
-454.31234887787957
30
0
11
-145.9940346663812
21
-454.31234887787957
31
0
0
LINE
5
257
100
AcDbEntity
8
0
100
AcDbLine
10
-145.9940346663812
20
-454.31234887787957
30
0
11
-145.9940346663812
21
-456.94484285065789
31
0
0
LINE
5
258
100
AcDbEntity
8
0
100
AcDbLine
10
-146.87153543885739
20
-457.82234719941277
30
0
11
-149.50403537210019
21
-457.82234719941277
31
0
0
LINE
5
259
100
AcDbEntity
8
0
100
AcDbLine
10
-149.50403537210019
20
-456.06734803864617
30
0
11
-145.9940346663812
21
-456.06734803864617
31
0
0
ARC
5
260
100
AcDbEntity
8
0
100
AcDbCircle
10
-146.76619376596005
20
-457.05018571564813
30
0
40
0.77931083738803864
210
-0
220
0
230
1
100
AcDbArc
50
-97.768619823302188
51
7.7686186853164214
0
LINE
5
261
100
AcDbEntity
8
0
100
AcDbLine
10
-151.25903572495969
20
-461.9173484201159
30
0
11
-145.9940346663812
21
-461.9173484201159
31
0
0
LINE
5
262
100
AcDbEntity
8
0
100
AcDbLine
10
-145.9940346663812
20
-461.9173484201159
30
0
11
-145.9940346663812
21
-463.37984613129754
31
0
0
LINE
5
263
100
AcDbEntity
8
0
100
AcDbLine
10
-146.87153543885739
20
-464.25734094330926
30
0
11
-148.62653579171689
21
-464.25734094330926
31
0
0
LINE
5
264
100
AcDbEntity
8
0
100
AcDbLine
10
-149.50403537210019
20
-463.37984613129754
30
0
11
-149.50403537210019
21
-461.9173484201159
31
0
0
ARC
5
265
100
AcDbEntity
8
0
100
AcDbCircle
10
-146.76619376596005
20
-463.48518899628777
30
0
40
0.77931083738803864
210
-0
220
0
230
1
100
AcDbArc
50
-97.768619823302188
51
7.7686186853164214
0
ARC
5
266
100
AcDbEntity
8
0
100
AcDbCircle
10
-148.73187746461423
20
-463.48518899628777
30
0
40
0.77931083738803864
210
-0
220
0
230
1
100
AcDbArc
50
172.23137084202955
51
277.76861618083819
0
LINE
5
267
100
AcDbEntity
8
0
100
AcDbLine
10
-144.2390343135217
20
-465.86609414765496
30
0
11
-148.62653579171689
21
-465.86609414765496
31
0
0
ARC
5
268
100
AcDbEntity
8
0
100
AcDbCircle
10
-148.73187746461423
20
-466.63824609467645
30
0
40
0.77931083738803864
210
-0
220
0
230
1
100
AcDbArc
50
82.231388828117687
51
187.76860320370707
0
LINE
5
269
100
AcDbEntity
8
0
100
AcDbLine
10
-151.25903572495969
20
-467.91359475800652
30
0
11
-151.25903572495969
21
-468.49858812043328
31
0
0
LINE
5
270
100
AcDbEntity
8
0
100
AcDbLine
10
-151.25903572495969
20
-468.49858812043328
30
0
11
-145.9940346663812
21
-470.25358728119988
31
0
0
LINE
5
271
100
AcDbEntity
8
0
100
AcDbLine
10
-145.9940346663812
20
-467.91359475800652
30
0
11
-149.50403537210019
21
-469.0835910196032
31
0
0
ENDSEC
0
SECTION
2
OBJECTS
0
DICTIONARY
5
C
100
AcDbDictionary
3
ACAD_GROUP
350
D
3
ACAD_MLINESTYLE
350
17
0
DICTIONARY
5
D
100
AcDbDictionary
0
DICTIONARY
5
1A
330
C
100
AcDbDictionary
0
DICTIONARY
5
17
100
AcDbDictionary
0
ENDSEC
0
EOF
