0
SECTION
2
HEADER
9
$INSUNITS
70
4
9
$ACADVER
1
AC1014
9
$HANDSEED
5
FFFF
0
ENDSEC
0
SECTION
2
TABLES
0
TABLE
2
VPORT
5
8
100
AcDbSymbolTable
0
ENDTAB
0
TABLE
2
LTYPE
5
5
100
AcDbSymbolTable
0
LTYPE
5
14
100
AcDbSymbolTableRecord
100
AcDbLinetypeTableRecord
2
BYBLOCK
70
0
0
LTYPE
5
15
100
AcDbSymbolTableRecord
100
AcDbLinetypeTableRecord
2
BYLAYER
70
0
0
LTYPE
5
16
100
AcDbSymbolTableRecord
100
AcDbLinetypeTableRecord
2
DASHED
70
0
3
Dashed __ __ __ __ __ __ __ __ __ __ __ __ __ _
72
65
73
2
40
0.75
49
0.5
74
0
49
-0.25
74
0
0
ENDTAB
0
TABLE
2
LAYER
5
2
100
AcDbSymbolTable
70
3
0
LAYER
5
50
100
AcDbSymbolTableRecord
100
AcDbLayerTableRecord
2
1
70
0
62
7
6
DASHED
0
LAYER
5
51
100
AcDbSymbolTableRecord
100
AcDbLayerTableRecord
2
0
70
0
62
7
6
CONTINUOUS
0
ENDTAB
0
TABLE
2
STYLE
5
3
100
AcDbSymbolTable
70
1
0
STYLE
5
11
100
AcDbSymbolTableRecord
100
AcDbTextStyleTableRecord
2
STANDARD
70
0
0
ENDTAB
0
TABLE
2
VIEW
5
6
100
AcDbSymbolTable
70
0
0
ENDTAB
0
TABLE
2
UCS
5
7
100
AcDbSymbolTable
70
0
0
ENDTAB
0
TABLE
2
APPID
5
9
100
AcDbSymbolTable
70
2
0
APPID
5
12
100
AcDbSymbolTableRecord
100
AcDbRegAppTableRecord
2
ACAD
70
0
0
ENDTAB
0
TABLE
2
DIMSTYLE
5
A
100
AcDbSymbolTable
70
1
0
ENDTAB
0
TABLE
2
BLOCK_RECORD
5
1
100
AcDbSymbolTable
70
1
0
BLOCK_RECORD
5
1F
100
AcDbSymbolTableRecord
100
AcDbBlockTableRecord
2
*MODEL_SPACE
0
BLOCK_RECORD
5
1B
100
AcDbSymbolTableRecord
100
AcDbBlockTableRecord
2
*PAPER_SPACE
0
ENDTAB
0
ENDSEC
0
SECTION
2
BLOCKS
0
BLOCK
5
20
100
AcDbEntity
100
AcDbBlockBegin
2
*MODEL_SPACE
0
ENDBLK
5
21
100
AcDbEntity
100
AcDbBlockEnd
0
BLOCK
5
1C
100
AcDbEntity
100
AcDbBlockBegin
2
*PAPER_SPACE
0
ENDBLK
5
1D
100
AcDbEntity
100
AcDbBlockEnd
0
ENDSEC
0
SECTION
2
ENTITIES
0
CIRCLE
5
100
100
AcDbEntity
8
0
100
AcDbCircle
10
-1080.4240492621573
20
-908.35559923823234
30
0
40
1.4999999999999858
210
2.08215694073318e-32
220
-1.8058451403053591e-32
230
1
0
LWPOLYLINE
5
101
100
AcDbEntity
8
0
100
AcDbPolyline
90
8
70
1
43
0.0
10
-1087.1459801307531
20
-867.84318399077029
10
-1104.3176061999393
20
-874.95590439662669
42
0.3516555957585748
10
-1109.1346483649643
20
-883.73585609885242
10
-1058.6907960811259
20
-1169.8744960984664
10
-1055.6293286222049
20
-1177.2655323585564
10
-907.80860342039978
20
-1116.0361831801426
10
-910.87007087932011
20
-1108.645146920052
10
-1077.5314535634684
20
-870.64538419775408
42
0.35165559575852623
0
LINE
5
102
100
AcDbEntity
8
1
100
AcDbLine
10
-1052.382152021328
20
-1169.4261545692987
30
0
11
-912.70765561057578
21
-1111.5710838383329
31
0
0
LINE
5
103
100
AcDbEntity
8
1
100
AcDbLine
10
-912.70765561057578
20
-1111.5710838383329
30
0
11
-923.13792721733989
21
-1086.3901806660479
31
0
0
LINE
5
104
100
AcDbEntity
8
1
100
AcDbLine
10
-923.13792721733989
20
-1086.3901806660479
30
0
11
-1062.8124236280923
21
-1144.2452513970134
31
0
0
LINE
5
105
100
AcDbEntity
8
1
100
AcDbLine
10
-1062.8124236280923
20
-1144.2452513970134
30
0
11
-1052.382152021328
21
-1169.4261545692987
31
0
0
LINE
5
106
100
AcDbEntity
8
0
100
AcDbLine
10
-1052.6907960589331
20
-1166.3880036780688
30
0
11
-1051.3396222233616
21
-1165.8283291502514
31
0
0
LINE
5
107
100
AcDbEntity
8
0
100
AcDbLine
10
-1050.2202731107027
20
-1168.5306769590629
30
0
11
-1051.5714469462741
21
-1169.0903514868803
31
0
0
LINE
5
108
100
AcDbEntity
8
0
100
AcDbLine
10
-1051.5714469462741
20
-1169.0903514868803
30
0
11
-1053.5862751665827
21
-1164.2261258715596
31
0
0
LINE
5
109
100
AcDbEntity
8
0
100
AcDbLine
10
-1053.5862751665827
20
-1164.2261258715596
30
0
11
-1052.2351013310113
21
-1163.6664513437424
31
0
0
ARC
5
110
100
AcDbEntity
8
0
100
AcDbCircle
10
-1050.7799476670323
20
-1167.1795030546573
30
0
40
1.4625000953674316
210
0
220
-0
230
1
100
AcDbArc
50
-67.499999316750888
51
112.50000250447836
0
ARC
5
111
100
AcDbEntity
8
0
100
AcDbCircle
10
-1051.7873622333807
20
-1164.7473891456466
30
0
40
1.1700000613927841
210
0
220
-0
230
1
100
AcDbArc
50
-67.499999316750163
51
112.50000250447808
0
LINE
5
112
100
AcDbEntity
8
0
100
AcDbLine
10
-1049.220131787476
20
-1163.6840074772158
30
0
11
-1048.3166969807007
21
-1162.0433951189821
31
0
0
LINE
5
113
100
AcDbEntity
8
0
100
AcDbLine
10
-1048.3166969807007
20
-1162.0433951189821
30
0
11
-1046.3018687603924
21
-1166.9076207343026
31
0
0
LINE
5
114
100
AcDbEntity
8
0
100
AcDbLine
10
-1047.653042664798
20
-1167.4672952906321
30
0
11
-1044.9506948559865
21
-1166.3479461779732
31
0
0
LINE
5
115
100
AcDbEntity
8
0
100
AcDbLine
10
-1043.7770259604483
20
-1164.5953966145341
30
0
11
-1042.7344972665983
21
-1160.9975696980732
31
0
0
ARC
5
116
100
AcDbEntity
8
0
100
AcDbCircle
10
-1041.4417576022706
20
-1161.8369939842532
30
0
40
3.5108703374862671
210
0
220
-0
230
1
100
AcDbArc
50
173.37151582165598
51
205.63924191376594
0
ARC
5
117
100
AcDbEntity
8
0
100
AcDbCircle
10
-1044.0234498138691
20
-1161.2554013189842
30
0
40
0.92271506786346424
210
0
220
-0
230
1
100
AcDbArc
50
105.05847725279399
51
191.01687241027031
0
ARC
5
118
100
AcDbEntity
8
0
100
AcDbCircle
10
-1043.8026334987539
20
-1161.1639362064705
30
0
40
0.92271506786346424
210
0
220
-0
230
1
100
AcDbArc
50
33.983124914726154
51
119.94152092596198
0
ARC
5
119
100
AcDbEntity
8
0
100
AcDbCircle
10
-1045.2169174510116
20
-1163.4007163937281
30
0
40
3.5108703374862671
210
0
220
-0
230
1
100
AcDbArc
50
19.360745792347362
51
51.628478942017971
0
ARC
5
120
100
AcDbEntity
8
0
100
AcDbCircle
10
-1041.2946048636466
20
-1162.1922521215795
30
0
40
3.5108703374862671
210
0
220
-0
230
1
100
AcDbArc
50
199.36075444376851
51
231.62848053587629
0
ARC
5
121
100
AcDbEntity
8
0
100
AcDbCircle
10
-1042.7088888159042
20
-1164.4290323088373
30
0
40
0.92271506786346424
210
0
220
-0
230
1
100
AcDbArc
50
213.98312394725349
51
299.94151910471788
0
ARC
5
122
100
AcDbEntity
8
0
100
AcDbCircle
10
-1045.0697647123877
20
-1163.7559745310543
30
0
40
3.5108703374862671
210
0
220
-0
230
1
100
AcDbArc
50
-6.6284791693889238
51
25.63924672320665
0
ARC
5
123
100
AcDbEntity
8
0
100
AcDbCircle
10
-1042.4880725007895
20
-1164.3375671963233
30
0
40
0.92271506786346424
210
0
220
-0
230
1
100
AcDbArc
50
-74.9415177382281
51
11.016877419223992
0
LINE
5
124
100
AcDbEntity
8
0
100
AcDbLine
10
-1038.1676659931932
20
-1161.3221249382975
30
0
11
-1039.3837218463482
21
-1161.8258317652776
31
0
0
LINE
5
125
100
AcDbEntity
8
0
100
AcDbLine
10
-1038.6001772850093
20
-1163.7174756719858
30
0
11
-1037.3841214318543
21
-1163.2137688450057
31
0
0
LINE
5
126
100
AcDbEntity
8
0
100
AcDbLine
10
-1037.3841214318543
20
-1163.2137688450057
30
0
11
-1038.3915359982027
21
-1160.7816549359952
31
0
0
LINE
5
127
100
AcDbEntity
8
0
100
AcDbLine
10
-1039.5380444516261
20
-1160.3067555852117
30
0
11
-1040.6189833548806
21
-1160.7544951390364
31
0
0
ARC
5
128
100
AcDbEntity
8
0
100
AcDbCircle
10
-1038.9919495656789
20
-1162.7716537186316
30
0
40
1.0237500816583633
210
0
220
-0
230
1
100
AcDbArc
50
112.500002504485
51
292.50000068325409
0
ARC
5
129
100
AcDbEntity
8
0
100
AcDbCircle
10
-1039.145228941557
20
-1160.9798250601996
30
0
40
0.77931083738803864
210
0
220
-0
230
1
100
AcDbArc
50
14.731380176695907
51
120.26861868532609
0
LINE
5
130
100
AcDbEntity
8
0
100
AcDbLine
10
-1035.6275944750466
20
-1162.4861915568222
30
0
11
-1035.8978294761978
21
-1162.5981265593268
31
0
0
LINE
5
131
100
AcDbEntity
8
0
100
AcDbLine
10
-1035.8978294761978
20
-1162.5981265593268
30
0
11
-1036.0097640225083
21
-1162.3278926595258
31
0
0
LINE
5
132
100
AcDbEntity
8
0
100
AcDbLine
10
-1036.0097640225083
20
-1162.3278926595258
30
0
11
-1035.7395290213569
21
-1162.2159576570211
31
0
0
LINE
5
133
100
AcDbEntity
8
0
100
AcDbLine
10
-1035.7395290213569
20
-1162.2159576570211
30
0
11
-1035.6275944750464
21
-1162.4861915568222
31
0
0
LINE
5
134
100
AcDbEntity
8
0
100
AcDbLine
10
-1035.6275944750466
20
-1162.4861915568222
30
0
11
-1035.5852064160795
21
-1163.7350338370868
31
0
0
LINE
5
135
100
AcDbEntity
8
0
100
AcDbLine
10
-1033.9942529331893
20
-1156.110844548173
30
0
11
-1031.9794247128809
21
-1160.9750701634937
31
0
0
LINE
5
136
100
AcDbEntity
8
0
100
AcDbLine
10
-1031.9794247128809
20
-1160.9750701634937
30
0
11
-1030.6282508084751
21
-1160.4153956071641
31
0
0
LINE
5
137
100
AcDbEntity
8
0
100
AcDbLine
10
-1030.1533514576918
20
-1159.2688871537407
30
0
11
-1030.8249614727201
21
-1157.6474771468336
31
0
0
LINE
5
138
100
AcDbEntity
8
0
100
AcDbLine
10
-1031.9714699261435
20
-1157.1725777960503
30
0
11
-1033.3226438305494
21
-1157.7322523523796
31
0
0
ARC
5
139
100
AcDbEntity
8
0
100
AcDbCircle
10
-1030.8264191861733
20
-1159.6617006500715
30
0
40
0.77931083738803864
210
0
220
-0
230
1
100
AcDbArc
50
-75.26862915795968
51
30.268616180835469
0
ARC
5
140
100
AcDbEntity
8
0
100
AcDbCircle
10
-1031.5786533147243
20
-1157.8456468148438
30
0
40
0.77931083738803864
210
0
220
-0
230
1
100
AcDbArc
50
14.731380176695907
51
120.26861868531165
0
LINE
5
141
100
AcDbEntity
8
0
100
AcDbLine
10
-1026.3044929927564
20
-1158.6244364794768
30
0
11
-1027.6556668971623
21
-1159.1841110358064
31
0
0
LINE
5
142
100
AcDbEntity
8
0
100
AcDbLine
10
-1028.8021753505855
20
-1158.7092116850229
30
0
11
-1029.361849906915
21
-1157.358037780617
31
0
0
LINE
5
143
100
AcDbEntity
8
0
100
AcDbLine
10
-1027.1999721004058
20
-1156.4625586729676
30
0
11
-1026.9761020953965
21
-1157.0030286752699
31
0
0
LINE
5
144
100
AcDbEntity
8
0
100
AcDbLine
10
-1026.9761020953963
20
-1157.0030286752699
30
0
11
-1029.1379799019055
21
-1157.8985077829195
31
0
0
ARC
5
145
100
AcDbEntity
8
0
100
AcDbCircle
10
-1028.0484835085815
20
-1158.5110420170126
30
0
40
0.77931083738803864
210
0
220
-0
230
1
100
AcDbArc
50
194.73138882812142
51
300.26860320370884
0
ARC
5
146
100
AcDbEntity
8
0
100
AcDbCircle
10
-1028.2809121050107
20
-1156.9102986829866
30
0
40
1.1700000613927841
210
0
220
-0
230
1
100
AcDbArc
50
22.500000000000789
51
202.50000500894501
0
LINE
5
147
100
AcDbEntity
8
0
100
AcDbLine
10
-1023.5749858431803
20
-1155.2776389087896
30
0
11
-1024.7910438990359
21
-1155.7813466481582
31
0
0
LINE
5
148
100
AcDbEntity
8
0
100
AcDbLine
10
-1024.007499337697
20
-1157.6729905548664
30
0
11
-1022.7914412818416
21
-1157.1692828154978
31
0
0
LINE
5
149
100
AcDbEntity
8
0
100
AcDbLine
10
-1022.7914412818415
20
-1157.1692828154978
30
0
11
-1023.7988558481898
21
-1154.7371689064873
31
0
0
LINE
5
150
100
AcDbEntity
8
0
100
AcDbLine
10
-1024.9453665043138
20
-1154.2622704680923
30
0
11
-1026.026304306218
21
-1154.7100095657229
31
0
0
ARC
5
151
100
AcDbEntity
8
0
100
AcDbCircle
10
-1024.3992716183666
20
-1156.7271686015122
30
0
40
1.0237500816583633
210
0
220
-0
230
1
100
AcDbArc
50
112.50000250448014
51
292.50000068325409
0
ARC
5
152
100
AcDbEntity
8
0
100
AcDbCircle
10
-1024.5525498928944
20
-1154.9353394868858
30
0
40
0.77931083738803864
210
0
220
-0
230
1
100
AcDbArc
50
14.731380176695907
51
120.26861868532609
0
LINE
5
153
100
AcDbEntity
8
0
100
AcDbLine
10
-1021.1700334776347
20
-1156.4976737128577
30
0
11
-1022.5132525953031
21
-1153.2548559017439
31
0
0
LINE
5
154
100
AcDbEntity
8
0
100
AcDbLine
10
-1022.5132525953031
20
-1153.2548559017439
30
0
11
-1020.891842588396
21
-1152.5832458867155
31
0
0
LINE
5
155
100
AcDbEntity
8
0
100
AcDbLine
10
-1020.891842588396
20
-1152.5832458867153
30
0
11
-1020.6679725833865
21
-1153.1237158890178
31
0
0
LINE
5
156
100
AcDbEntity
8
0
100
AcDbLine
10
-1018.3325676175724
20
-1155.3223568708493
30
0
11
-1019.6757867352409
21
-1152.0795390597355
31
0
0
LINE
5
157
100
AcDbEntity
8
0
100
AcDbLine
10
-1020.3705771401206
20
-1150.7843319722908
30
0
11
-1020.4825116864312
21
-1150.5140980724898
31
0
0
LINE
5
158
100
AcDbEntity
8
0
100
AcDbLine
10
-1020.4825116864311
20
-1150.5140980724898
30
0
11
-1020.21227778663
21
-1150.4021635261793
31
0
0
LINE
5
159
100
AcDbEntity
8
0
100
AcDbLine
10
-1020.2122777866302
20
-1150.4021635261793
30
0
11
-1020.1003432403196
21
-1150.6723974259803
31
0
0
LINE
5
160
100
AcDbEntity
8
0
100
AcDbLine
10
-1020.1003432403196
20
-1150.6723974259803
30
0
11
-1020.3705771401206
21
-1150.7843319722908
31
0
0
LINE
5
161
100
AcDbEntity
8
0
100
AcDbLine
10
-1016.7111598133657
20
-1154.6507477682094
30
0
11
-1018.0543789310342
21
-1151.4079299570953
31
0
0
LINE
5
162
100
AcDbEntity
8
0
100
AcDbLine
10
-1018.0543789310342
20
-1151.4079299570953
30
0
11
-1016.7032050266283
21
-1150.848255400766
31
0
0
LINE
5
163
100
AcDbEntity
8
0
100
AcDbLine
10
-1015.5566965732049
20
-1151.3231547515493
30
0
11
-1014.5492820068566
21
-1153.75526866056
31
0
0
ARC
5
164
100
AcDbEntity
8
0
100
AcDbCircle
10
-1016.310388415209
20
-1151.5213244195595
30
0
40
0.77931083738803864
210
0
220
-0
230
1
100
AcDbArc
50
14.73138017670016
51
120.26861868532609
0
LINE
5
165
100
AcDbEntity
8
0
100
AcDbLine
10
-1010.9011122446908
20
-1152.2441472672315
30
0
11
-1012.252288351797
21
-1152.8038227359493
31
0
0
LINE
5
166
100
AcDbEntity
8
0
100
AcDbLine
10
-1013.3987968052204
20
-1152.328923385166
30
0
11
-1014.0704068202489
21
-1150.7075133782589
31
0
0
LINE
5
167
100
AcDbEntity
8
0
100
AcDbLine
10
-1013.5955074694655
20
-1149.5610049248355
30
0
11
-1012.2443313623593
21
-1149.0013294561177
31
0
0
LINE
5
168
100
AcDbEntity
8
0
100
AcDbLine
10
-1012.2443313623593
20
-1149.0013294561177
30
0
11
-1010.5653076933709
21
-1153.0548511693351
31
0
0
LINE
5
169
100
AcDbEntity
8
0
100
AcDbLine
10
-1011.0402070441542
20
-1154.2013596227582
30
0
11
-1012.121147048759
21
-1154.6490996327773
31
0
0
ARC
5
170
100
AcDbEntity
8
0
100
AcDbCircle
10
-1012.6451005578156
20
-1152.1307518923791
30
0
40
0.77931083738803864
210
0
220
-0
230
1
100
AcDbArc
50
194.73138882810738
51
300.26860320370884
0
ARC
5
171
100
AcDbEntity
8
0
100
AcDbCircle
10
-1013.3973346863663
20
-1150.3146980571514
30
0
40
0.77931083738803864
210
0
220
-0
230
1
100
AcDbArc
50
104.73138632365001
51
210.26862118979983
0
ARC
5
172
100
AcDbEntity
8
0
100
AcDbCircle
10
-1011.2383745094642
20
-1153.4476668683658
30
0
40
0.77931083738803864
210
0
220
-0
230
1
100
AcDbArc
50
-75.2686291579639
51
30.268616180839679
0
LINE
5
173
100
AcDbEntity
8
0
100
AcDbLine
10
-1005.361298575817
20
-1149.9494813125641
30
0
11
-1006.4422385804219
21
-1150.3972213225829
31
0
0
LINE
5
174
100
AcDbEntity
8
0
100
AcDbLine
10
-1007.5887470338453
20
-1149.9223219717996
30
0
11
-1008.2603570488736
21
-1148.3009119648925
31
0
0
LINE
5
175
100
AcDbEntity
8
0
100
AcDbLine
10
-1007.7854576980903
20
-1147.1544035114691
30
0
11
-1006.7045176934855
21
-1146.7066635014501
31
0
0
ARC
5
176
100
AcDbEntity
8
0
100
AcDbCircle
10
-1006.8350507864403
20
-1149.7241504790127
30
0
40
0.77931083738803864
210
0
220
-0
230
1
100
AcDbArc
50
194.73138882812353
51
300.26860320370162
0
ARC
5
177
100
AcDbEntity
8
0
100
AcDbCircle
10
-1007.5872849149912
20
-1147.908096643785
30
0
40
0.77931083738803864
210
0
220
-0
230
1
100
AcDbArc
50
104.73138632364193
51
210.26862118980824
0
LINE
5
178
100
AcDbEntity
8
0
100
AcDbLine
10
-1001.9833605107519
20
-1148.5502935531579
30
0
11
-1003.3345366178581
21
-1149.1099690218757
31
0
0
LINE
5
179
100
AcDbEntity
8
0
100
AcDbLine
10
-1004.4810450712815
20
-1148.6350696710924
30
0
11
-1005.040719627611
21
-1147.2838957666866
31
0
0
LINE
5
180
100
AcDbEntity
8
0
100
AcDbLine
10
-1002.8788396184013
20
-1146.3884157466487
30
0
11
-1002.6549696133919
21
-1146.928885748951
31
0
0
LINE
5
181
100
AcDbEntity
8
0
100
AcDbLine
10
-1002.6549696133919
20
-1146.928885748951
30
0
11
-1004.8168496226016
21
-1147.8243657689891
31
0
0
ARC
5
182
100
AcDbEntity
8
0
100
AcDbCircle
10
-1003.7273488238766
20
-1148.4368981783052
30
0
40
0.77931083738803864
210
0
220
-0
230
1
100
AcDbArc
50
194.73138882812142
51
300.26860320370162
0
ARC
5
183
100
AcDbEntity
8
0
100
AcDbCircle
10
-1003.9597796230062
20
-1146.8361557566677
30
0
40
1.1700000613927841
210
0
220
-0
230
1
100
AcDbArc
50
22.499999999998643
51
202.5000050089472
0
LINE
5
184
100
AcDbEntity
8
0
100
AcDbLine
10
-1000.4970707577959
20
-1147.9346521798673
30
0
11
-1001.8402898754644
21
-1144.6918343687532
31
0
0
LINE
5
185
100
AcDbEntity
8
0
100
AcDbLine
10
-1001.8402898754644
20
-1144.6918343687532
30
0
11
-1000.4891137683582
21
-1144.1321589000354
31
0
0
LINE
5
186
100
AcDbEntity
8
0
100
AcDbLine
10
-999.34260531493476
20
-1144.6070582508187
30
0
11
-998.33519074858646
21
-1147.0391721598294
31
0
0
ARC
5
187
100
AcDbEntity
8
0
100
AcDbCircle
10
-1000.0963015623397
20
-1144.8052297436059
30
0
40
0.77931083738803864
210
0
220
-0
230
1
100
AcDbArc
50
14.73138017671422
51
120.26861868531765
0
LINE
5
188
100
AcDbEntity
8
0
100
AcDbLine
10
-998.46235181039913
20
-1143.292646609347
30
0
11
-996.84094400619244
21
-1142.6210375067069
31
0
0
LINE
5
189
100
AcDbEntity
8
0
100
AcDbLine
10
-998.59349311343738
20
-1141.447369712519
30
0
11
-996.91446944444897
21
-1145.5008914257364
31
0
0
LINE
5
190
100
AcDbEntity
8
0
100
AcDbLine
10
-995.76796099102557
20
-1145.9757907765199
30
0
11
-995.49772488852409
21
-1145.8638553178209
31
0
0
ARC
5
191
100
AcDbEntity
8
0
100
AcDbCircle
10
-996.1607776024448
20
-1145.3027217577262
30
0
40
0.77931083738803864
210
0
220
-0
230
1
100
AcDbArc
50
194.73138882812353
51
300.26860320370884
0
LINE
5
192
100
AcDbEntity
8
0
100
AcDbLine
10
-992.11979122885975
20
-1144.4646693831914
30
0
11
-993.47096733596595
21
-1145.0243448519093
31
0
0
LINE
5
193
100
AcDbEntity
8
0
100
AcDbLine
10
-994.61747578938935
20
-1144.549445501126
30
0
11
-995.17715034571893
21
-1143.1982715967201
31
0
0
LINE
5
194
100
AcDbEntity
8
0
100
AcDbLine
10
-993.01527033650927
20
-1142.3027915766825
30
0
11
-992.79140033149986
21
-1142.8432615789848
31
0
0
LINE
5
195
100
AcDbEntity
8
0
100
AcDbLine
10
-992.79140033149986
20
-1142.8432615789848
30
0
11
-994.95328034070951
21
-1143.7387415990227
31
0
0
ARC
5
196
100
AcDbEntity
8
0
100
AcDbCircle
10
-993.86377954198451
20
-1144.3512740083388
30
0
40
0.77931083738803864
210
0
220
-0
230
1
100
AcDbArc
50
194.73138882812353
51
300.26860320370037
0
ARC
5
197
100
AcDbEntity
8
0
100
AcDbCircle
10
-994.0962103411141
20
-1142.7505315867011
30
0
40
1.1700000613927841
210
0
220
-0
230
1
100
AcDbArc
50
22.499999999988372
51
202.50000500895746
0
LINE
5
198
100
AcDbEntity
8
0
100
AcDbLine
10
-990.63350147590381
20
-1143.8490280099008
30
0
11
-991.97672059357228
21
-1140.606210198787
31
0
0
LINE
5
199
100
AcDbEntity
8
0
100
AcDbLine
10
-991.97672059357217
20
-1140.606210198787
30
0
11
-990.35531278936548
21
-1139.9346010961469
31
0
0
LINE
5
200
100
AcDbEntity
8
0
100
AcDbLine
10
-990.35531278936548
20
-1139.9346010961469
30
0
11
-990.13144278435607
21
-1140.4750710984495
31
0
0
LINE
5
201
100
AcDbEntity
8
0
100
AcDbLine
10
-987.3827244726516
20
-1138.7033147000122
30
0
11
-985.76131666844492
21
-1138.0317055973721
31
0
0
LINE
5
202
100
AcDbEntity
8
0
100
AcDbLine
10
-987.51386577568962
20
-1136.8580378031843
30
0
11
-985.83484210670122
21
-1140.9115595164017
31
0
0
LINE
5
203
100
AcDbEntity
8
0
100
AcDbLine
10
-984.68833365327782
20
-1141.386458867185
30
0
11
-984.41809755077645
21
-1141.2745234084862
31
0
0
ARC
5
204
100
AcDbEntity
8
0
100
AcDbCircle
10
-985.08115026469727
20
-1140.7133898483917
30
0
40
0.77931083738803864
210
0
220
-0
230
1
100
AcDbArc
50
194.73138882810738
51
300.26860320370884
0
LINE
5
205
100
AcDbEntity
8
0
100
AcDbLine
10
-981.04016389111223
20
-1139.8753374738567
30
0
11
-982.39133999821843
21
-1140.4350129425745
31
0
0
LINE
5
206
100
AcDbEntity
8
0
100
AcDbLine
10
-983.53784845164182
20
-1139.9601135917912
30
0
11
-984.0975230079714
21
-1138.6089396873854
31
0
0
LINE
5
207
100
AcDbEntity
8
0
100
AcDbLine
10
-981.93564299876175
20
-1137.7134596673475
30
0
11
-981.71177299375233
21
-1138.25392966965
31
0
0
LINE
5
208
100
AcDbEntity
8
0
100
AcDbLine
10
-981.71177299375222
20
-1138.25392966965
30
0
11
-983.87365300296187
21
-1139.1494096896879
31
0
0
ARC
5
209
100
AcDbEntity
8
0
100
AcDbCircle
10
-982.78415220423676
20
-1139.761942099004
30
0
40
0.77931083738803864
210
0
220
-0
230
1
100
AcDbArc
50
194.73138882812142
51
300.2686032036932
0
ARC
5
210
100
AcDbEntity
8
0
100
AcDbCircle
10
-983.01658300336658
20
-1138.1611996773665
30
0
40
1.1700000613927841
210
0
220
-0
230
1
100
AcDbArc
50
22.499999999996511
51
202.50000500894933
0
LINE
5
211
100
AcDbEntity
8
0
100
AcDbLine
10
-979.55387413815617
20
-1139.2596961005661
30
0
11
-980.89709325582464
21
-1136.0168782894521
31
0
0
LINE
5
212
100
AcDbEntity
8
0
100
AcDbLine
10
-980.89709325582464
20
-1136.0168782894521
30
0
11
-978.4649815495145
21
-1135.0094646354921
31
0
0
LINE
5
213
100
AcDbEntity
8
0
100
AcDbLine
10
-977.31846869069022
20
-1135.4843621614989
30
0
11
-976.31105412434181
21
-1137.9164760705094
31
0
0
LINE
5
214
100
AcDbEntity
8
0
100
AcDbLine
10
-977.93246192854849
20
-1138.5880851731495
30
0
11
-979.27568104621696
21
-1135.3452673620354
31
0
0
ARC
5
215
100
AcDbEntity
8
0
100
AcDbCircle
10
-978.07216493809506
20
-1135.6825336542856
30
0
40
0.77931083738803864
210
0
220
-0
230
1
100
AcDbArc
50
14.731380176698032
51
120.26861868532609
0
LINE
5
216
100
AcDbEntity
8
0
100
AcDbLine
10
-974.01803721749502
20
-1138.8662747720762
30
0
11
-976.03286543780337
21
-1134.0020491567554
31
0
0
LINE
5
217
100
AcDbEntity
8
0
100
AcDbLine
10
-976.03286543780337
20
-1134.0020491567552
30
0
11
-974.68169373609817
21
-1133.4423755128141
31
0
0
LINE
5
218
100
AcDbEntity
8
0
100
AcDbLine
10
-973.53518968807566
20
-1133.9172766883744
30
0
11
-972.8635796730473
21
-1135.5386866952817
31
0
0
LINE
5
219
100
AcDbEntity
8
0
100
AcDbLine
10
-973.3384746184297
20
-1136.6851933239282
30
0
11
-974.6896463201349
21
-1137.2448669678693
31
0
0
ARC
5
220
100
AcDbEntity
8
0
100
AcDbCircle
10
-974.28887712467883
20
-1134.1154445316079
30
0
40
0.77931083738803864
210
0
220
-0
230
1
100
AcDbArc
50
14.731380176698032
51
120.26861868532609
0
ARC
5
221
100
AcDbEntity
8
0
100
AcDbCircle
10
-973.53664299612785
20
-1135.9314983668353
30
0
40
0.77931083738803864
210
0
220
-0
230
1
100
AcDbArc
50
-75.268629157971986
51
30.268616180829454
0
LINE
5
222
100
AcDbEntity
8
0
100
AcDbLine
10
-973.05630918367865
20
-1130.869521783997
30
0
11
-971.37728551469024
21
-1134.9230434972144
31
0
0
ARC
5
223
100
AcDbEntity
8
0
100
AcDbCircle
10
-970.62359807808718
20
-1134.7248756539809
30
0
40
0.77931083738803864
210
0
220
-0
230
1
100
AcDbArc
50
194.73138882812353
51
300.26860320370162
0
LINE
5
224
100
AcDbEntity
8
0
100
AcDbLine
10
-967.63638796294163
20
-1132.10711300666
30
0
11
-968.85244601879708
21
-1132.6108207460286
31
0
0
LINE
5
225
100
AcDbEntity
8
0
100
AcDbLine
10
-968.0689014574582
20
-1134.5024646527368
30
0
11
-966.85284340160274
21
-1133.9987569133682
31
0
0
LINE
5
226
100
AcDbEntity
8
0
100
AcDbLine
10
-966.85284340160263
20
-1133.9987569133682
30
0
11
-967.86025796795104
21
-1131.5666430043577
31
0
0
LINE
5
227
100
AcDbEntity
8
0
100
AcDbLine
10
-969.00677082677532
20
-1131.0917454783512
30
0
11
-970.08770642597926
21
-1131.5394836635933
31
0
0
ARC
5
228
100
AcDbEntity
8
0
100
AcDbCircle
10
-968.46067373812775
20
-1133.5566426993823
30
0
40
1.0237500816583633
210
0
220
-0
230
1
100
AcDbArc
50
112.500002504485
51
292.50000068324823
0
ARC
5
229
100
AcDbEntity
8
0
100
AcDbCircle
10
-968.61395421535599
20
-1131.7648144971447
30
0
40
0.77931083738803864
210
0
220
-0
230
1
100
AcDbArc
50
14.73138017670016
51
120.26861868532609
0
LINE
5
230
100
AcDbEntity
8
0
100
AcDbLine
10
-966.9800132742173
20
-1130.2522350124395
30
0
11
-965.35860547001062
21
-1129.5806259097994
31
0
0
LINE
5
231
100
AcDbEntity
8
0
100
AcDbLine
10
-967.11115017185443
20
-1128.4069562908348
30
0
11
-965.43212650286603
21
-1132.4604780040522
31
0
0
LINE
5
232
100
AcDbEntity
8
0
100
AcDbLine
10
-964.28561364404186
20
-1132.9353755300588
30
0
11
-964.01538635234238
21
-1132.8234437209135
31
0
0
ARC
5
233
100
AcDbEntity
8
0
100
AcDbCircle
10
-964.67843025546119
20
-1132.2623065112653
30
0
40
0.77931083738803864
210
0
220
-0
230
1
100
AcDbArc
50
194.73138882810738
51
300.26860320370884
0
LINE
5
234
100
AcDbEntity
8
0
100
AcDbLine
10
-960.63744828727704
20
-1131.424255961507
30
0
11
-961.98861998898235
21
-1131.9839296054481
31
0
0
LINE
5
235
100
AcDbEntity
8
0
100
AcDbLine
10
-963.13513284780674
20
-1131.5090320794416
30
0
11
-963.69480740413621
21
-1130.1578581750357
31
0
0
LINE
5
236
100
AcDbEntity
8
0
100
AcDbLine
10
-961.53292739492656
20
-1129.2623781549978
30
0
11
-961.30905738991714
21
-1129.8028481573003
31
0
0
LINE
5
237
100
AcDbEntity
8
0
100
AcDbLine
10
-961.30905738991714
20
-1129.8028481573003
30
0
11
-963.4709373991268
21
-1130.6983281773382
31
0
0
ARC
5
238
100
AcDbEntity
8
0
100
AcDbCircle
10
-962.3814366004018
20
-1131.3108605866546
30
0
40
0.77931083738803864
210
0
220
-0
230
1
100
AcDbArc
50
194.73138882812353
51
300.26860320370162
0
ARC
5
239
100
AcDbEntity
8
0
100
AcDbCircle
10
-962.6138629941305
20
-1129.7101163402401
30
0
40
1.1700000613927841
210
0
220
-0
230
1
100
AcDbArc
50
22.499999999998643
51
202.5000050089472
0
LINE
5
240
100
AcDbEntity
8
0
100
AcDbLine
10
-959.01604048307036
20
-1130.7526468588671
30
0
11
-959.28627658557173
21
-1130.8645823175659
31
0
0
LINE
5
241
100
AcDbEntity
8
0
100
AcDbLine
10
-959.28627658557173
20
-1130.8645823175659
30
0
11
-959.39821113188236
21
-1130.5943484177649
31
0
0
LINE
5
242
100
AcDbEntity
8
0
100
AcDbLine
10
-959.39821113188236
20
-1130.5943484177651
30
0
11
-959.12797502938088
21
-1130.4824129590661
31
0
0
LINE
5
243
100
AcDbEntity
8
0
100
AcDbLine
10
-959.12797502938088
20
-1130.4824129590661
30
0
11
-959.01604048307036
21
-1130.7526468588671
31
0
0
LINE
5
244
100
AcDbEntity
8
0
100
AcDbLine
10
-959.01604048307036
20
-1130.7526468588671
30
0
11
-958.97365022140264
21
-1132.0014882267435
31
0
0
LINE
5
245
100
AcDbEntity
8
0
100
AcDbLine
10
-957.07007789483328
20
-1125.5142053814716
30
0
11
-956.16664529075842
21
-1123.8735939356263
31
0
0
LINE
5
246
100
AcDbEntity
8
0
100
AcDbLine
10
-956.16664529075842
20
-1123.8735939356263
30
0
11
-954.15181707045008
21
-1128.7378195509471
31
0
0
LINE
5
247
100
AcDbEntity
8
0
100
AcDbLine
10
-955.50298877215539
20
-1129.2974931948881
30
0
11
-952.80063655794288
21
-1128.1781422574522
31
0
0
LINE
5
248
100
AcDbEntity
8
0
100
AcDbLine
10
-949.42269849287777
20
-1126.778954498046
30
0
11
-948.60404641213847
21
-1122.6406603164478
31
0
0
LINE
5
249
100
AcDbEntity
8
0
100
AcDbLine
10
-950.76591761054624
20
-1123.5361366869322
30
0
11
-947.26082729447012
21
-1125.8834781275618
31
0
0
LINE
5
250
100
AcDbEntity
8
0
100
AcDbLine
10
-945.00223834206395
20
-1121.7819425593439
30
0
11
-943.38083053785726
21
-1121.1103334567038
31
0
0
LINE
5
251
100
AcDbEntity
8
0
100
AcDbLine
10
-941.85214611783249
20
-1121.743531626513
30
0
11
-941.74021157152197
21
-1122.013765526314
31
0
0
LINE
5
252
100
AcDbEntity
8
0
100
AcDbLine
10
-944.44256378573436
20
-1123.1331164637497
30
0
11
-945.00223834206395
21
-1121.7819425593439
31
0
0
ARC
5
253
100
AcDbEntity
8
0
100
AcDbCircle
10
-942.85707566422366
20
-1122.0077573466283
30
0
40
1.0390811413526533
210
0
220
-0
230
1
100
AcDbArc
50
14.731380176690253
51
120.26861868531709
0
ARC
5
254
100
AcDbEntity
8
0
100
AcDbCircle
10
-943.09139208402917
20
-1122.5734428198086
30
0
40
1.4625000953674316
210
0
220
-0
230
1
100
AcDbArc
50
-157.4999949910422
51
22.500000000002316
0
ARC
5
255
100
AcDbEntity
8
0
100
AcDbCircle
10
-943.2073896498265
20
-1120.7344350147773
30
0
40
2.078162282705307
210
0
220
-0
230
1
100
AcDbArc
50
104.73138632364191
51
210.26862118979102
0
LINE
5
256
100
AcDbEntity
8
0
100
AcDbLine
10
-937.5323628476259
20
-1121.8538162126144
30
0
11
-938.87558196529437
21
-1118.6109984015004
31
0
0
LINE
5
257
100
AcDbEntity
8
0
100
AcDbLine
10
-938.87558196529437
20
-1118.6109984015004
30
0
11
-936.44347466438512
21
-1117.6035865723172
31
0
0
LINE
5
258
100
AcDbEntity
8
0
100
AcDbLine
10
-935.29696180556084
20
-1118.0784840983238
30
0
11
-934.28954723921254
21
-1120.5105980073345
31
0
0
LINE
5
259
100
AcDbEntity
8
0
100
AcDbLine
10
-935.91095504341922
20
-1121.1822071099746
30
0
11
-937.25417416108769
21
-1117.9393892988605
31
0
0
ARC
5
260
100
AcDbEntity
8
0
100
AcDbCircle
10
-936.05065805296579
20
-1118.276655591111
30
0
40
0.77931083738803864
210
0
220
-0
230
1
100
AcDbArc
50
14.731380176698032
51
120.26861868531886
0
LINE
5
261
100
AcDbEntity
8
0
100
AcDbLine
10
-932.66813943500563
20
-1119.8389889046944
30
0
11
-934.0113585526741
21
-1116.5961710935806
31
0
0
LINE
5
262
100
AcDbEntity
8
0
100
AcDbLine
10
-934.0113585526741
20
-1116.5961710935806
30
0
11
-931.57925125176484
21
-1115.5887592643971
31
0
0
LINE
5
263
100
AcDbEntity
8
0
100
AcDbLine
10
-930.43273839294056
20
-1116.0636567904039
30
0
11
-929.42532382659226
21
-1118.4957706994144
31
0
0
LINE
5
264
100
AcDbEntity
8
0
100
AcDbLine
10
-931.04673163079894
20
-1119.1673798020545
30
0
11
-932.38995074846741
21
-1115.9245619909404
31
0
0
ARC
5
265
100
AcDbEntity
8
0
100
AcDbCircle
10
-931.18643464034551
20
-1116.2618282831909
30
0
40
0.77931083738803864
210
0
220
-0
230
1
100
AcDbArc
50
14.731380176698032
51
120.26861868531886
0
LINE
5
266
100
AcDbEntity
8
0
100
AcDbLine
10
-924.97042691053582
20
-1118.5500893809433
30
0
11
-926.98525513084417
21
-1113.6858637656226
31
0
0
LINE
5
267
100
AcDbEntity
8
0
100
AcDbLine
10
-926.98525513084428
20
-1113.6858637656226
30
0
11
-925.63408342913908
21
-1113.1261901216815
31
0
0
LINE
5
268
100
AcDbEntity
8
0
100
AcDbLine
10
-924.48757938111635
20
-1113.6010912972417
30
0
11
-923.81596936608798
21
-1115.2225013041489
31
0
0
LINE
5
269
100
AcDbEntity
8
0
100
AcDbLine
10
-924.29086431147061
20
-1116.3690079327955
30
0
11
-925.64203601317581
21
-1116.9286815767366
31
0
0
ARC
5
270
100
AcDbEntity
8
0
100
AcDbCircle
10
-925.24126681771963
20
-1113.799259140475
30
0
40
0.77931083738803864
210
0
220
-0
230
1
100
AcDbArc
50
14.731380176698032
51
120.26861868532609
0
ARC
5
271
100
AcDbEntity
8
0
100
AcDbCircle
10
-924.48903268916865
20
-1115.6153129757026
30
0
40
0.77931083738803864
210
0
220
-0
230
1
100
AcDbArc
50
-75.268629157967723
51
30.268616180843889
0
LINE
5
272
100
AcDbEntity
8
0
100
AcDbLine
10
-924.00869887671956
20
-1110.5533363928641
30
0
11
-922.32967520773116
21
-1114.6068581060815
31
0
0
ARC
5
273
100
AcDbEntity
8
0
100
AcDbCircle
10
-921.57598777112798
20
-1114.408690262848
30
0
40
0.77931083738803864
210
0
220
-0
230
1
100
AcDbArc
50
194.73138882812353
51
300.26860320370884
0
LINE
5
274
100
AcDbEntity
8
0
100
AcDbLine
10
-919.43061764706283
20
-1116.2554252510527
30
0
11
-918.89015425286186
21
-1116.0315579832084
31
0
0
LINE
5
275
100
AcDbEntity
8
0
100
AcDbLine
10
-918.89015425286186
20
-1116.0315579832084
30
0
11
-919.28356585816175
21
-1110.495719615694
31
0
0
LINE
5
276
100
AcDbEntity
8
0
100
AcDbLine
10
-921.4454458673714
20
-1111.3911996357319
30
0
11
-919.021291150499
21
-1114.1862792616037
31
0
0
ENDSEC
0
SECTION
2
OBJECTS
0
DICTIONARY
5
C
100
AcDbDictionary
3
ACAD_GROUP
350
D
3
ACAD_MLINESTYLE
350
17
0
DICTIONARY
5
D
100
AcDbDictionary
0
DICTIONARY
5
1A
330
C
100
AcDbDictionary
0
DICTIONARY
5
17
100
AcDbDictionary
0
ENDSEC
0
EOF
