0
SECTION
2
HEADER
9
$INSUNITS
70
4
9
$ACADVER
1
AC1014
9
$HANDSEED
5
FFFF
0
ENDSEC
0
SECTION
2
TABLES
0
TABLE
2
VPORT
5
8
100
AcDbSymbolTable
0
ENDTAB
0
TABLE
2
LTYPE
5
5
100
AcDbSymbolTable
0
LTYPE
5
14
100
AcDbSymbolTableRecord
100
AcDbLinetypeTableRecord
2
BYBLOCK
70
0
0
LTYPE
5
15
100
AcDbSymbolTableRecord
100
AcDbLinetypeTableRecord
2
BYLAYER
70
0
0
LTYPE
5
16
100
AcDbSymbolTableRecord
100
AcDbLinetypeTableRecord
2
DASHED
70
0
3
Dashed __ __ __ __ __ __ __ __ __ __ __ __ __ _
72
65
73
2
40
0.75
49
0.5
74
0
49
-0.25
74
0
0
ENDTAB
0
TABLE
2
LAYER
5
2
100
AcDbSymbolTable
70
2
0
LAYER
5
50
100
AcDbSymbolTableRecord
100
AcDbLayerTableRecord
2
0
70
0
62
7
6
CONTINUOUS
0
ENDTAB
0
TABLE
2
STYLE
5
3
100
AcDbSymbolTable
70
1
0
STYLE
5
11
100
AcDbSymbolTableRecord
100
AcDbTextStyleTableRecord
2
STANDARD
70
0
0
ENDTAB
0
TABLE
2
VIEW
5
6
100
AcDbSymbolTable
70
0
0
ENDTAB
0
TABLE
2
UCS
5
7
100
AcDbSymbolTable
70
0
0
ENDTAB
0
TABLE
2
APPID
5
9
100
AcDbSymbolTable
70
2
0
APPID
5
12
100
AcDbSymbolTableRecord
100
AcDbRegAppTableRecord
2
ACAD
70
0
0
ENDTAB
0
TABLE
2
DIMSTYLE
5
A
100
AcDbSymbolTable
70
1
0
ENDTAB
0
TABLE
2
BLOCK_RECORD
5
1
100
AcDbSymbolTable
70
1
0
BLOCK_RECORD
5
1F
100
AcDbSymbolTableRecord
100
AcDbBlockTableRecord
2
*MODEL_SPACE
0
BLOCK_RECORD
5
1B
100
AcDbSymbolTableRecord
100
AcDbBlockTableRecord
2
*PAPER_SPACE
0
ENDTAB
0
ENDSEC
0
SECTION
2
BLOCKS
0
BLOCK
5
20
100
AcDbEntity
100
AcDbBlockBegin
2
*MODEL_SPACE
0
ENDBLK
5
21
100
AcDbEntity
100
AcDbBlockEnd
0
BLOCK
5
1C
100
AcDbEntity
100
AcDbBlockBegin
2
*PAPER_SPACE
0
ENDBLK
5
1D
100
AcDbEntity
100
AcDbBlockEnd
0
ENDSEC
0
SECTION
2
ENTITIES
0
CIRCLE
5
100
100
AcDbEntity
8
0
100
AcDbCircle
10
-1080.4240492621573
20
-908.35559923823234
30
0
40
1.4999999999999858
210
2.08215694073318e-32
220
-1.8058451403053591e-32
230
1
0
LWPOLYLINE
5
101
100
AcDbEntity
8
0
100
AcDbPolyline
90
8
70
1
43
0.0
10
-1087.1459801307531
20
-867.84318399077029
10
-1104.3176061999393
20
-874.95590439662669
42
0.3516555957585748
10
-1109.1346483649643
20
-883.73585609885242
10
-1058.6907960811259
20
-1169.8744960984664
10
-1055.6293286222049
20
-1177.2655323585564
10
-907.80860342039978
20
-1116.0361831801426
10
-910.87007087932011
20
-1108.645146920052
10
-1077.5314535634684
20
-870.64538419775408
42
0.35165559575852623
0
LINE
5
102
100
AcDbEntity
8
0
100
AcDbLine
10
-1052.382152021328
20
-1169.4261545692987
30
0
11
-912.70765561057578
21
-1111.5710838383329
31
0
6
DASHED
0
LINE
5
103
100
AcDbEntity
8
0
100
AcDbLine
10
-912.70765561057578
20
-1111.5710838383329
30
0
11
-923.13792721733989
21
-1086.3901806660479
31
0
6
DASHED
0
LINE
5
104
100
AcDbEntity
8
0
100
AcDbLine
10
-923.13792721733989
20
-1086.3901806660479
30
0
11
-1062.8124236280923
21
-1144.2452513970134
31
0
6
DASHED
0
LINE
5
105
100
AcDbEntity
8
0
100
AcDbLine
10
-1062.8124236280923
20
-1144.2452513970134
30
0
11
-1052.382152021328
21
-1169.4261545692987
31
0
6
DASHED
0
LINE
5
106
100
AcDbEntity
8
0
100
AcDbLine
10
-1052.6907967432244
20
-1166.3880020260435
30
0
11
-1051.3396229076529
21
-1165.8283274982261
31
0
0
LINE
5
107
100
AcDbEntity
8
0
100
AcDbLine
10
-1050.220273794994
20
-1168.5306753070377
30
0
11
-1051.5714476305654
21
-1169.090349834855
31
0
0
LINE
5
108
100
AcDbEntity
8
0
100
AcDbLine
10
-1051.5714476305654
20
-1169.090349834855
30
0
11
-1053.5862758508738
21
-1164.2261242195343
31
0
0
LINE
5
109
100
AcDbEntity
8
0
100
AcDbLine
10
-1053.5862758508738
20
-1164.2261242195343
30
0
11
-1052.2351020153023
21
-1163.6664496917169
31
0
0
ARC
5
110
100
AcDbEntity
8
0
100
AcDbCircle
10
-1050.7799483513236
20
-1167.1795014026318
30
0
40
1.4625000953674316
210
0
220
-0
230
1
100
AcDbArc
50
-67.499999316762541
51
112.50000250448178
0
ARC
5
111
100
AcDbEntity
8
0
100
AcDbCircle
10
-1051.787362917672
20
-1164.7473874936213
30
0
40
1.1700000613927841
210
0
220
-0
230
1
100
AcDbArc
50
-67.49999931675616
51
112.50000250447808
0
LINE
5
112
100
AcDbEntity
8
0
100
AcDbLine
10
-1049.2201324717671
20
-1163.6840058251905
30
0
11
-1048.316697664992
21
-1162.0433934669566
31
0
0
LINE
5
113
100
AcDbEntity
8
0
100
AcDbLine
10
-1048.316697664992
20
-1162.0433934669566
30
0
11
-1046.3018694446837
21
-1166.9076190822773
31
0
0
LINE
5
114
100
AcDbEntity
8
0
100
AcDbLine
10
-1047.6530433490893
20
-1167.4672936386069
30
0
11
-1044.9506955402778
21
-1166.3479445259479
31
0
0
LINE
5
115
100
AcDbEntity
8
0
100
AcDbLine
10
-1043.7770266447396
20
-1164.5953949625089
30
0
11
-1042.7344979508896
21
-1160.9975680460477
31
0
0
ARC
5
116
100
AcDbEntity
8
0
100
AcDbCircle
10
-1041.4417582865619
20
-1161.836992332228
30
0
40
3.5108703374862671
210
0
220
-0
230
1
100
AcDbArc
50
173.37151582165598
51
205.63924191376594
0
ARC
5
117
100
AcDbEntity
8
0
100
AcDbCircle
10
-1044.0234504981604
20
-1161.255399666959
30
0
40
0.92271506786346424
210
0
220
-0
230
1
100
AcDbArc
50
105.05847725279764
51
191.01687241027031
0
ARC
5
118
100
AcDbEntity
8
0
100
AcDbCircle
10
-1043.8026341830455
20
-1161.1639345544452
30
0
40
0.92271506786346424
210
0
220
-0
230
1
100
AcDbArc
50
33.983124914718267
51
119.94152092594975
0
ARC
5
119
100
AcDbEntity
8
0
100
AcDbCircle
10
-1045.2169181353029
20
-1163.4007147417028
30
0
40
3.5108703374862671
210
0
220
-0
230
1
100
AcDbArc
50
19.360745792350855
51
51.628478942017971
0
ARC
5
120
100
AcDbEntity
8
0
100
AcDbCircle
10
-1041.2946055479379
20
-1162.1922504695542
30
0
40
3.5108703374862671
210
0
220
-0
230
1
100
AcDbArc
50
199.36075444376851
51
231.62848053587629
0
ARC
5
121
100
AcDbEntity
8
0
100
AcDbCircle
10
-1042.7088895001955
20
-1164.4290306568118
30
0
40
0.92271506786346424
210
0
220
-0
230
1
100
AcDbArc
50
213.9831239472652
51
299.94151910473011
0
ARC
5
122
100
AcDbEntity
8
0
100
AcDbCircle
10
-1045.069765396679
20
-1163.7559728790291
30
0
40
3.5108703374862671
210
0
220
-0
230
1
100
AcDbArc
50
-6.6284791693889238
51
25.63924672320665
0
ARC
5
123
100
AcDbEntity
8
0
100
AcDbCircle
10
-1042.4880731850808
20
-1164.3375655442981
30
0
40
0.92271506786346424
210
0
220
-0
230
1
100
AcDbArc
50
-74.9415177382281
51
11.016877419237872
0
LINE
5
124
100
AcDbEntity
8
0
100
AcDbLine
10
-1041.4257111930626
20
-1159.189053412154
30
0
11
-1039.4108829727543
21
-1164.0532790274747
31
0
0
LINE
5
125
100
AcDbEntity
8
0
100
AcDbLine
10
-1039.4108829727543
20
-1164.0532790274747
30
0
11
-1038.0597090683484
21
-1163.4936044711451
31
0
0
LINE
5
126
100
AcDbEntity
8
0
100
AcDbLine
10
-1037.5848086162148
20
-1162.3470955615276
30
0
11
-1038.2564186312432
21
-1160.7256855546202
31
0
0
LINE
5
127
100
AcDbEntity
8
0
100
AcDbLine
10
-1039.4029281860169
20
-1160.2507866600313
30
0
11
-1040.7541020904227
21
-1160.8104612163609
31
0
0
ARC
5
128
100
AcDbEntity
8
0
100
AcDbCircle
10
-1038.2578774460467
20
-1162.7399095140522
30
0
40
0.77931083738803864
210
0
220
-0
230
1
100
AcDbArc
50
-75.268629157980087
51
30.268616180829454
0
ARC
5
129
100
AcDbEntity
8
0
100
AcDbCircle
10
-1039.0101115745974
20
-1160.9238556788248
30
0
40
0.77931083738803864
210
0
220
-0
230
1
100
AcDbArc
50
14.73138017670016
51
120.26861868532609
0
LINE
5
130
100
AcDbEntity
8
0
100
AcDbLine
10
-1035.6275951593379
20
-1162.4861899047967
30
0
11
-1035.8978301604891
21
-1162.5981249073013
31
0
0
LINE
5
131
100
AcDbEntity
8
0
100
AcDbLine
10
-1035.8978301604891
20
-1162.5981249073013
30
0
11
-1036.0097647067996
21
-1162.3278910075005
31
0
0
LINE
5
132
100
AcDbEntity
8
0
100
AcDbLine
10
-1036.0097647067996
20
-1162.3278910075005
30
0
11
-1035.7395297056482
21
-1162.2159560049959
31
0
0
LINE
5
133
100
AcDbEntity
8
0
100
AcDbLine
10
-1035.7395297056485
20
-1162.2159560049956
30
0
11
-1035.6275951593379
21
-1162.4861899047967
31
0
0
LINE
5
134
100
AcDbEntity
8
0
100
AcDbLine
10
-1035.6275951593379
20
-1162.4861899047967
30
0
11
-1035.5852071003708
21
-1163.7350321850615
31
0
0
LINE
5
135
100
AcDbEntity
8
0
100
AcDbLine
10
-1033.9942536174808
20
-1156.1108428961477
30
0
11
-1031.9794253971722
21
-1160.9750685114684
31
0
0
LINE
5
136
100
AcDbEntity
8
0
100
AcDbLine
10
-1031.9794253971722
20
-1160.9750685114684
30
0
11
-1030.6282514927664
21
-1160.4153939551388
31
0
0
LINE
5
137
100
AcDbEntity
8
0
100
AcDbLine
10
-1030.1533521419831
20
-1159.2688855017154
30
0
11
-1030.8249621570114
21
-1157.6474754948081
31
0
0
LINE
5
138
100
AcDbEntity
8
0
100
AcDbLine
10
-1031.9714706104348
20
-1157.1725761440248
30
0
11
-1033.3226445148407
21
-1157.7322507003544
31
0
0
ARC
5
139
100
AcDbEntity
8
0
100
AcDbCircle
10
-1030.8264198704646
20
-1159.6616989980459
30
0
40
0.77931083738803864
210
0
220
-0
230
1
100
AcDbArc
50
-75.2686291579639
51
30.268616180829454
0
ARC
5
140
100
AcDbEntity
8
0
100
AcDbCircle
10
-1031.5786539990156
20
-1157.8456451628185
30
0
40
0.77931083738803864
210
0
220
-0
230
1
100
AcDbArc
50
14.73138017671209
51
120.26861868531765
0
LINE
5
141
100
AcDbEntity
8
0
100
AcDbLine
10
-1026.3044936770477
20
-1158.6244348274515
30
0
11
-1027.6556675814536
21
-1159.1841093837811
31
0
0
LINE
5
142
100
AcDbEntity
8
0
100
AcDbLine
10
-1028.8021760348768
20
-1158.7092100329976
30
0
11
-1029.3618505912063
21
-1157.3580361285917
31
0
0
LINE
5
143
100
AcDbEntity
8
0
100
AcDbLine
10
-1027.1999727846971
20
-1156.4625570209423
30
0
11
-1026.9761027796878
21
-1157.0030270232448
31
0
0
LINE
5
144
100
AcDbEntity
8
0
100
AcDbLine
10
-1026.9761027796876
20
-1157.0030270232446
30
0
11
-1029.1379805861968
21
-1157.898506130894
31
0
0
ARC
5
145
100
AcDbEntity
8
0
100
AcDbCircle
10
-1028.0484841928728
20
-1158.5110403649874
30
0
40
0.77931083738803864
210
0
220
-0
230
1
100
AcDbArc
50
194.73138882810522
51
300.26860320370884
0
ARC
5
146
100
AcDbEntity
8
0
100
AcDbCircle
10
-1028.280912789302
20
-1156.9102970309611
30
0
40
1.1700000613927841
210
0
220
-0
230
1
100
AcDbArc
50
22.500000000000789
51
202.50000500895533
0
LINE
5
147
100
AcDbEntity
8
0
100
AcDbLine
10
-1023.5749865274717
20
-1155.2776372567644
30
0
11
-1024.7910445833272
21
-1155.7813449961329
31
0
0
LINE
5
148
100
AcDbEntity
8
0
100
AcDbLine
10
-1024.0075000219883
20
-1157.6729889028409
30
0
11
-1022.7914419661329
21
-1157.1692811634725
31
0
0
LINE
5
149
100
AcDbEntity
8
0
100
AcDbLine
10
-1022.7914419661328
20
-1157.1692811634725
30
0
11
-1023.7988565324811
21
-1154.7371672544618
31
0
0
LINE
5
150
100
AcDbEntity
8
0
100
AcDbLine
10
-1024.9453671886049
20
-1154.262268816067
30
0
11
-1026.0263049905093
21
-1154.7100079136974
31
0
0
ARC
5
151
100
AcDbEntity
8
0
100
AcDbCircle
10
-1024.3992723026579
20
-1156.7271669494867
30
0
40
1.0237500816583633
210
0
220
-0
230
1
100
AcDbArc
50
112.50000250447324
51
292.50000068325409
0
ARC
5
152
100
AcDbEntity
8
0
100
AcDbCircle
10
-1024.5525505771857
20
-1154.9353378348605
30
0
40
0.77931083738803864
210
0
220
-0
230
1
100
AcDbArc
50
14.731380176695907
51
120.26861868531165
0
LINE
5
153
100
AcDbEntity
8
0
100
AcDbLine
10
-1021.170034161926
20
-1156.4976720608324
30
0
11
-1022.5132532795944
21
-1153.2548542497186
31
0
0
LINE
5
154
100
AcDbEntity
8
0
100
AcDbLine
10
-1022.5132532795944
20
-1153.2548542497186
30
0
11
-1020.8918432726873
21
-1152.5832442346903
31
0
0
LINE
5
155
100
AcDbEntity
8
0
100
AcDbLine
10
-1020.8918432726873
20
-1152.58324423469
30
0
11
-1020.6679732676778
21
-1153.1237142369926
31
0
0
LINE
5
156
100
AcDbEntity
8
0
100
AcDbLine
10
-1018.3325683018637
20
-1155.322355218824
30
0
11
-1019.6757874195322
21
-1152.0795374077099
31
0
0
LINE
5
157
100
AcDbEntity
8
0
100
AcDbLine
10
-1020.370577824412
20
-1150.7843303202653
30
0
11
-1020.4825123707225
21
-1150.5140964204643
31
0
0
LINE
5
158
100
AcDbEntity
8
0
100
AcDbLine
10
-1020.4825123707225
20
-1150.5140964204643
30
0
11
-1020.2122784709215
21
-1150.4021618741538
31
0
0
LINE
5
159
100
AcDbEntity
8
0
100
AcDbLine
10
-1020.2122784709215
20
-1150.4021618741538
30
0
11
-1020.1003439246109
21
-1150.6723957739548
31
0
0
LINE
5
160
100
AcDbEntity
8
0
100
AcDbLine
10
-1020.1003439246109
20
-1150.6723957739548
30
0
11
-1020.370577824412
21
-1150.7843303202653
31
0
0
LINE
5
161
100
AcDbEntity
8
0
100
AcDbLine
10
-1016.711160497657
20
-1154.6507461161841
30
0
11
-1018.0543796153255
21
-1151.4079283050701
31
0
0
LINE
5
162
100
AcDbEntity
8
0
100
AcDbLine
10
-1018.0543796153255
20
-1151.4079283050701
30
0
11
-1016.7032057109196
21
-1150.8482537487405
31
0
0
LINE
5
163
100
AcDbEntity
8
0
100
AcDbLine
10
-1015.5566972574962
20
-1151.323153099524
30
0
11
-1014.5492826911479
21
-1153.7552670085345
31
0
0
ARC
5
164
100
AcDbEntity
8
0
100
AcDbCircle
10
-1016.3103890995003
20
-1151.5213227675342
30
0
40
0.77931083738803864
210
0
220
-0
230
1
100
AcDbArc
50
14.73138017670016
51
120.26861868532609
0
LINE
5
165
100
AcDbEntity
8
0
100
AcDbLine
10
-1010.9011129289821
20
-1152.2441456152062
30
0
11
-1012.2522890360883
21
-1152.803821083924
31
0
0
LINE
5
166
100
AcDbEntity
8
0
100
AcDbLine
10
-1013.3987974895117
20
-1152.3289217331408
30
0
11
-1014.0704075045402
21
-1150.7075117262334
31
0
0
LINE
5
167
100
AcDbEntity
8
0
100
AcDbLine
10
-1013.5955081537568
20
-1149.56100327281
30
0
11
-1012.2443320466506
21
-1149.0013278040922
31
0
0
LINE
5
168
100
AcDbEntity
8
0
100
AcDbLine
10
-1012.2443320466506
20
-1149.0013278040922
30
0
11
-1010.5653083776622
21
-1153.0548495173095
31
0
0
LINE
5
169
100
AcDbEntity
8
0
100
AcDbLine
10
-1011.0402077284457
20
-1154.2013579707329
30
0
11
-1012.1211477330505
21
-1154.6490979807518
31
0
0
ARC
5
170
100
AcDbEntity
8
0
100
AcDbCircle
10
-1012.6451012421069
20
-1152.1307502403536
30
0
40
0.77931083738803864
210
0
220
-0
230
1
100
AcDbArc
50
194.73138882812353
51
300.26860320370884
0
ARC
5
171
100
AcDbEntity
8
0
100
AcDbCircle
10
-1013.3973353706576
20
-1150.3146964051261
30
0
40
0.77931083738803864
210
0
220
-0
230
1
100
AcDbArc
50
104.73138632364576
51
210.26862118978539
0
ARC
5
172
100
AcDbEntity
8
0
100
AcDbCircle
10
-1011.2383751937555
20
-1153.4476652163405
30
0
40
0.77931083738803864
210
0
220
-0
230
1
100
AcDbArc
50
-75.2686291579639
51
30.268616180839679
0
LINE
5
173
100
AcDbEntity
8
0
100
AcDbLine
10
-1005.3612992601085
20
-1149.9494796605386
30
0
11
-1006.4422392647133
21
-1150.3972196705577
31
0
0
LINE
5
174
100
AcDbEntity
8
0
100
AcDbLine
10
-1007.5887477181366
20
-1149.9223203197744
30
0
11
-1008.2603577331649
21
-1148.300910312867
31
0
0
LINE
5
175
100
AcDbEntity
8
0
100
AcDbLine
10
-1007.7854583823816
20
-1147.1544018594436
30
0
11
-1006.7045183777768
21
-1146.7066618494248
31
0
0
ARC
5
176
100
AcDbEntity
8
0
100
AcDbCircle
10
-1006.8350514707316
20
-1149.7241488269874
30
0
40
0.77931083738803864
210
0
220
-0
230
1
100
AcDbArc
50
194.73138882810738
51
300.26860320370162
0
ARC
5
177
100
AcDbEntity
8
0
100
AcDbCircle
10
-1007.5872855992825
20
-1147.9080949917598
30
0
40
0.77931083738803864
210
0
220
-0
230
1
100
AcDbArc
50
104.73138632364193
51
210.26862118980824
0
LINE
5
178
100
AcDbEntity
8
0
100
AcDbLine
10
-1001.9833611950434
20
-1148.5502919011324
30
0
11
-1003.3345373021496
21
-1149.1099673698502
31
0
0
LINE
5
179
100
AcDbEntity
8
0
100
AcDbLine
10
-1004.4810457555729
20
-1148.6350680190669
30
0
11
-1005.0407203119025
21
-1147.2838941146611
31
0
0
LINE
5
180
100
AcDbEntity
8
0
100
AcDbLine
10
-1002.8788403026929
20
-1146.3884140946234
30
0
11
-1002.6549702976833
21
-1146.9288840969257
31
0
0
LINE
5
181
100
AcDbEntity
8
0
100
AcDbLine
10
-1002.6549702976832
20
-1146.9288840969257
30
0
11
-1004.8168503068929
21
-1147.8243641169636
31
0
0
ARC
5
182
100
AcDbEntity
8
0
100
AcDbCircle
10
-1003.7273495081679
20
-1148.43689652628
30
0
40
0.77931083738803864
210
0
220
-0
230
1
100
AcDbArc
50
194.73138882812142
51
300.26860320370162
0
ARC
5
183
100
AcDbEntity
8
0
100
AcDbCircle
10
-1003.9597803072975
20
-1146.8361541046422
30
0
40
1.1700000613927841
210
0
220
-0
230
1
100
AcDbArc
50
22.499999999998643
51
202.50000500895746
0
LINE
5
184
100
AcDbEntity
8
0
100
AcDbLine
10
-1000.4970714420872
20
-1147.9346505278418
30
0
11
-1001.8402905597557
21
-1144.691832716728
31
0
0
LINE
5
185
100
AcDbEntity
8
0
100
AcDbLine
10
-1001.8402905597557
20
-1144.691832716728
30
0
11
-1000.4891144526495
21
-1144.1321572480101
31
0
0
LINE
5
186
100
AcDbEntity
8
0
100
AcDbLine
10
-999.34260599922607
20
-1144.6070565987934
30
0
11
-998.33519143287776
21
-1147.0391705078039
31
0
0
ARC
5
187
100
AcDbEntity
8
0
100
AcDbCircle
10
-1000.096302246631
20
-1144.8052280915804
30
0
40
0.77931083738803864
210
0
220
-0
230
1
100
AcDbArc
50
14.731380176698032
51
120.26861868532609
0
LINE
5
188
100
AcDbEntity
8
0
100
AcDbLine
10
-998.46235249469055
20
-1143.2926449573215
30
0
11
-996.84094469048387
21
-1142.6210358546816
31
0
0
LINE
5
189
100
AcDbEntity
8
0
100
AcDbLine
10
-998.59349379772868
20
-1141.4473680604938
30
0
11
-996.91447012874028
21
-1145.5008897737112
31
0
0
LINE
5
190
100
AcDbEntity
8
0
100
AcDbLine
10
-995.76796167531688
20
-1145.9757891244944
30
0
11
-995.4977255728154
21
-1145.8638536657957
31
0
0
ARC
5
191
100
AcDbEntity
8
0
100
AcDbCircle
10
-996.1607782867361
20
-1145.3027201057009
30
0
40
0.77931083738803864
210
0
220
-0
230
1
100
AcDbArc
50
194.73138882812353
51
300.26860320370884
0
LINE
5
192
100
AcDbEntity
8
0
100
AcDbLine
10
-992.11979191315106
20
-1144.4646677311662
30
0
11
-993.47096802025726
21
-1145.024343199884
31
0
0
LINE
5
193
100
AcDbEntity
8
0
100
AcDbLine
10
-994.61747647368065
20
-1144.5494438491007
30
0
11
-995.17715103001024
21
-1143.1982699446949
31
0
0
LINE
5
194
100
AcDbEntity
8
0
100
AcDbLine
10
-993.01527102080058
20
-1142.302789924657
30
0
11
-992.79140101579117
21
-1142.8432599269595
31
0
0
LINE
5
195
100
AcDbEntity
8
0
100
AcDbLine
10
-992.79140101579117
20
-1142.8432599269595
30
0
11
-994.95328102500082
21
-1143.7387399469974
31
0
0
ARC
5
196
100
AcDbEntity
8
0
100
AcDbCircle
10
-993.86378022627582
20
-1144.3512723563135
30
0
40
0.77931083738803864
210
0
220
-0
230
1
100
AcDbArc
50
194.73138882812353
51
300.26860320370884
0
ARC
5
197
100
AcDbEntity
8
0
100
AcDbCircle
10
-994.09621102540541
20
-1142.750529934676
30
0
40
1.1700000613927841
210
0
220
-0
230
1
100
AcDbArc
50
22.499999999998643
51
202.5000050089472
0
LINE
5
198
100
AcDbEntity
8
0
100
AcDbLine
10
-990.63350216019512
20
-1143.8490263578756
30
0
11
-991.97672127786359
21
-1140.6062085467615
31
0
0
LINE
5
199
100
AcDbEntity
8
0
100
AcDbLine
10
-991.97672127786348
20
-1140.6062085467615
30
0
11
-990.35531347365679
21
-1139.9345994441214
31
0
0
LINE
5
200
100
AcDbEntity
8
0
100
AcDbLine
10
-990.35531347365679
20
-1139.9345994441217
30
0
11
-990.13144346864738
21
-1140.4750694464242
31
0
0
LINE
5
201
100
AcDbEntity
8
0
100
AcDbLine
10
-987.38272515694291
20
-1138.703313047987
30
0
11
-985.76131735273623
21
-1138.0317039453469
31
0
0
LINE
5
202
100
AcDbEntity
8
0
100
AcDbLine
10
-987.51386645998093
20
-1136.858036151159
30
0
11
-985.83484279099252
21
-1140.9115578643764
31
0
0
LINE
5
203
100
AcDbEntity
8
0
100
AcDbLine
10
-984.68833433756913
20
-1141.3864572151597
30
0
11
-984.41809823506776
21
-1141.2745217564609
31
0
0
ARC
5
204
100
AcDbEntity
8
0
100
AcDbCircle
10
-985.08115094898858
20
-1140.7133881963662
30
0
40
0.77931083738803864
210
0
220
-0
230
1
100
AcDbArc
50
194.73138882812353
51
300.26860320370884
0
LINE
5
205
100
AcDbEntity
8
0
100
AcDbLine
10
-981.04016457540354
20
-1139.8753358218314
30
0
11
-982.39134068250974
21
-1140.4350112905493
31
0
0
LINE
5
206
100
AcDbEntity
8
0
100
AcDbLine
10
-983.53784913593313
20
-1139.9601119397657
30
0
11
-984.09752369226271
21
-1138.6089380353601
31
0
0
LINE
5
207
100
AcDbEntity
8
0
100
AcDbLine
10
-981.93564368305306
20
-1137.7134580153222
30
0
11
-981.71177367804364
21
-1138.2539280176247
31
0
0
LINE
5
208
100
AcDbEntity
8
0
100
AcDbLine
10
-981.71177367804353
20
-1138.2539280176247
30
0
11
-983.87365368725318
21
-1139.1494080376626
31
0
0
ARC
5
209
100
AcDbEntity
8
0
100
AcDbCircle
10
-982.78415288852807
20
-1139.7619404469788
30
0
40
0.77931083738803864
210
0
220
-0
230
1
100
AcDbArc
50
194.73138882812142
51
300.26860320370162
0
ARC
5
210
100
AcDbEntity
8
0
100
AcDbCircle
10
-983.01658368765789
20
-1138.1611980253413
30
0
40
1.1700000613927841
210
0
220
-0
230
1
100
AcDbArc
50
22.499999999996511
51
202.50000500894933
0
LINE
5
211
100
AcDbEntity
8
0
100
AcDbLine
10
-979.55387482244748
20
-1139.2596944485408
30
0
11
-980.89709394011595
21
-1136.0168766374268
31
0
0
LINE
5
212
100
AcDbEntity
8
0
100
AcDbLine
10
-980.89709394011595
20
-1136.0168766374268
30
0
11
-978.46498223380581
21
-1135.0094629834668
31
0
0
LINE
5
213
100
AcDbEntity
8
0
100
AcDbLine
10
-977.31846937498153
20
-1135.4843605094734
30
0
11
-976.31105480863312
21
-1137.9164744184841
31
0
0
LINE
5
214
100
AcDbEntity
8
0
100
AcDbLine
10
-977.9324626128398
20
-1138.588083521124
30
0
11
-979.27568173050827
21
-1135.3452657100102
31
0
0
ARC
5
215
100
AcDbEntity
8
0
100
AcDbCircle
10
-978.07216562238636
20
-1135.6825320022604
30
0
40
0.77931083738803864
210
0
220
-0
230
1
100
AcDbArc
50
14.731380176698032
51
120.26861868532609
0
LINE
5
216
100
AcDbEntity
8
0
100
AcDbLine
10
-974.01803790178633
20
-1138.8662731200507
30
0
11
-976.03286612209467
21
-1134.0020475047302
31
0
0
LINE
5
217
100
AcDbEntity
8
0
100
AcDbLine
10
-976.03286612209467
20
-1134.0020475047299
30
0
11
-974.68169442038948
21
-1133.4423738607888
31
0
0
LINE
5
218
100
AcDbEntity
8
0
100
AcDbLine
10
-973.53519037236697
20
-1133.9172750363491
30
0
11
-972.86358035733861
21
-1135.5386850432565
31
0
0
LINE
5
219
100
AcDbEntity
8
0
100
AcDbLine
10
-973.33847530272101
20
-1136.6851916719029
30
0
11
-974.68964700442621
21
-1137.244865315844
31
0
0
ARC
5
220
100
AcDbEntity
8
0
100
AcDbCircle
10
-974.28887780897014
20
-1134.1154428795826
30
0
40
0.77931083738803864
210
0
220
-0
230
1
100
AcDbArc
50
14.73138017671422
51
120.26861868531765
0
ARC
5
221
100
AcDbEntity
8
0
100
AcDbCircle
10
-973.53664368041916
20
-1135.93149671481
30
0
40
0.77931083738803864
210
0
220
-0
230
1
100
AcDbArc
50
-75.268629157971986
51
30.268616180843889
0
LINE
5
222
100
AcDbEntity
8
0
100
AcDbLine
10
-973.05630986796996
20
-1130.8695201319715
30
0
11
-971.37728619898155
21
-1134.9230418451889
31
0
0
ARC
5
223
100
AcDbEntity
8
0
100
AcDbCircle
10
-970.62359876237849
20
-1134.7248740019554
30
0
40
0.77931083738803864
210
0
220
-0
230
1
100
AcDbArc
50
194.73138882812353
51
300.2686032036932
0
LINE
5
224
100
AcDbEntity
8
0
100
AcDbLine
10
-967.63638864723293
20
-1132.1071113546348
30
0
11
-968.85244670308839
21
-1132.6108190940031
31
0
0
LINE
5
225
100
AcDbEntity
8
0
100
AcDbLine
10
-968.0689021417495
20
-1134.5024630007113
30
0
11
-966.85284408589405
21
-1133.9987552613429
31
0
0
LINE
5
226
100
AcDbEntity
8
0
100
AcDbLine
10
-966.85284408589393
20
-1133.9987552613429
30
0
11
-967.86025865224235
21
-1131.5666413523322
31
0
0
LINE
5
227
100
AcDbEntity
8
0
100
AcDbLine
10
-969.00677151106675
20
-1131.0917438263257
30
0
11
-970.08770711027069
21
-1131.539482011568
31
0
0
ARC
5
228
100
AcDbEntity
8
0
100
AcDbCircle
10
-968.46067442241906
20
-1133.5566410473571
30
0
40
1.0237500816583633
210
0
220
-0
230
1
100
AcDbArc
50
112.500002504485
51
292.50000068324823
0
ARC
5
229
100
AcDbEntity
8
0
100
AcDbCircle
10
-968.6139548996473
20
-1131.7648128451194
30
0
40
0.77931083738803864
210
0
220
-0
230
1
100
AcDbArc
50
14.731380176716318
51
120.26861868531765
0
LINE
5
230
100
AcDbEntity
8
0
100
AcDbLine
10
-966.98001395850861
20
-1130.252233360414
30
0
11
-965.35860615430192
21
-1129.5806242577739
31
0
0
LINE
5
231
100
AcDbEntity
8
0
100
AcDbLine
10
-967.11115085614597
20
-1128.4069546388096
30
0
11
-965.43212718715745
21
-1132.4604763520269
31
0
0
LINE
5
232
100
AcDbEntity
8
0
100
AcDbLine
10
-964.28561432833317
20
-1132.9353738780335
30
0
11
-964.01538703663368
21
-1132.8234420688882
31
0
0
ARC
5
233
100
AcDbEntity
8
0
100
AcDbCircle
10
-964.6784309397525
20
-1132.2623048592397
30
0
40
0.77931083738803864
210
0
220
-0
230
1
100
AcDbArc
50
194.73138882812353
51
300.26860320370884
0
LINE
5
234
100
AcDbEntity
8
0
100
AcDbLine
10
-960.63744897156835
20
-1131.4242543094817
30
0
11
-961.98862067327366
21
-1131.9839279534226
31
0
0
LINE
5
235
100
AcDbEntity
8
0
100
AcDbLine
10
-963.13513353209805
20
-1131.5090304274163
30
0
11
-963.69480808842752
21
-1130.1578565230104
31
0
0
LINE
5
236
100
AcDbEntity
8
0
100
AcDbLine
10
-961.53292807921787
20
-1129.2623765029725
30
0
11
-961.30905807420845
21
-1129.8028465052748
31
0
0
LINE
5
237
100
AcDbEntity
8
0
100
AcDbLine
10
-961.30905807420845
20
-1129.8028465052748
30
0
11
-963.4709380834181
21
-1130.698326525313
31
0
0
ARC
5
238
100
AcDbEntity
8
0
100
AcDbCircle
10
-962.38143728469311
20
-1131.3108589346293
30
0
40
0.77931083738803864
210
0
220
-0
230
1
100
AcDbArc
50
194.73138882810738
51
300.26860320370162
0
ARC
5
239
100
AcDbEntity
8
0
100
AcDbCircle
10
-962.61386367842181
20
-1129.7101146882146
30
0
40
1.1700000613927841
210
0
220
-0
230
1
100
AcDbArc
50
22.499999999988372
51
202.50000500895746
0
LINE
5
240
100
AcDbEntity
8
0
100
AcDbLine
10
-959.01604116736166
20
-1130.7526452068416
30
0
11
-959.28627726986304
21
-1130.8645806655406
31
0
0
LINE
5
241
100
AcDbEntity
8
0
100
AcDbLine
10
-959.28627726986304
20
-1130.8645806655406
30
0
11
-959.39821181617367
21
-1130.5943467657396
31
0
0
LINE
5
242
100
AcDbEntity
8
0
100
AcDbLine
10
-959.39821181617367
20
-1130.5943467657398
30
0
11
-959.12797571367219
21
-1130.4824113070408
31
0
0
LINE
5
243
100
AcDbEntity
8
0
100
AcDbLine
10
-959.12797571367219
20
-1130.4824113070408
30
0
11
-959.01604116736166
21
-1130.7526452068416
31
0
0
LINE
5
244
100
AcDbEntity
8
0
100
AcDbLine
10
-959.01604116736166
20
-1130.7526452068416
30
0
11
-958.97365090569394
21
-1132.0014865747182
31
0
0
LINE
5
245
100
AcDbEntity
8
0
100
AcDbLine
10
-957.07007857912458
20
-1125.5142037294463
30
0
11
-956.16664597504973
21
-1123.8735922836011
31
0
0
LINE
5
246
100
AcDbEntity
8
0
100
AcDbLine
10
-956.16664597504996
20
-1123.8735922836011
30
0
11
-954.1518177547415
21
-1128.7378178989215
31
0
0
LINE
5
247
100
AcDbEntity
8
0
100
AcDbLine
10
-955.5029894564467
20
-1129.2974915428626
30
0
11
-952.80063724223419
21
-1128.178140605427
31
0
0
LINE
5
248
100
AcDbEntity
8
0
100
AcDbLine
10
-949.42269917716908
20
-1126.7789528460207
30
0
11
-948.60404709642978
21
-1122.6406586644225
31
0
0
LINE
5
249
100
AcDbEntity
8
0
100
AcDbLine
10
-950.76591829483755
20
-1123.5361350349067
30
0
11
-947.26082797876143
21
-1125.8834764755366
31
0
0
LINE
5
250
100
AcDbEntity
8
0
100
AcDbLine
10
-945.44997903637409
20
-1120.7010009027138
30
0
11
-944.54654643229924
21
-1119.0603894568685
31
0
0
LINE
5
251
100
AcDbEntity
8
0
100
AcDbLine
10
-944.54654643229946
20
-1119.0603894568683
30
0
11
-942.53171821199101
21
-1123.924615072189
31
0
0
LINE
5
252
100
AcDbEntity
8
0
100
AcDbLine
10
-943.8828899136962
20
-1124.4842887161301
30
0
11
-941.18053769948369
21
-1123.3649377786944
31
0
0
LINE
5
253
100
AcDbEntity
8
0
100
AcDbLine
10
-938.65172145537804
20
-1119.1514704013312
30
0
11
-939.8293659977785
21
-1122.8052641347533
31
0
0
LINE
5
254
100
AcDbEntity
8
0
100
AcDbLine
10
-939.8293659977785
20
-1122.8052641347533
30
0
11
-937.12701378356599
21
-1121.6859131973174
31
0
0
ARC
5
255
100
AcDbEntity
8
0
100
AcDbCircle
10
-939.76867559879508
20
-1118.3349977482053
30
0
40
1.1689662933349609
210
0
220
-0
230
1
100
AcDbArc
50
14.731380176687651
51
120.26861868531049
0
ARC
5
256
100
AcDbEntity
8
0
100
AcDbCircle
10
-939.96683334113163
20
-1118.7309457792489
30
0
40
1.4589405059814451
210
0
220
-0
230
1
100
AcDbArc
50
105.54817449553597
51
191.50656965301755
0
ARC
5
257
100
AcDbEntity
8
0
100
AcDbCircle
10
-939.67979762507025
20
-1118.5819900025806
30
0
40
1.1752662807703018
210
0
220
-0
230
1
100
AcDbArc
50
-28.983278511497737
51
27.586102926774441
0
LINE
5
258
100
AcDbEntity
8
0
100
AcDbLine
10
-933.4788396159995
20
-1120.1747899792124
30
0
11
-934.82205873366797
21
-1116.9319721680984
31
0
0
LINE
5
259
100
AcDbEntity
8
0
100
AcDbLine
10
-934.82205873366797
20
-1116.9319721680984
30
0
11
-932.38995143275872
21
-1115.9245603389152
31
0
0
LINE
5
260
100
AcDbEntity
8
0
100
AcDbLine
10
-931.24343857393444
20
-1116.3994578649217
30
0
11
-930.23602400758602
21
-1118.8315717739322
31
0
0
LINE
5
261
100
AcDbEntity
8
0
100
AcDbLine
10
-931.85743181179282
20
-1119.5031808765723
30
0
11
-933.20065092946129
21
-1116.2603630654583
31
0
0
ARC
5
262
100
AcDbEntity
8
0
100
AcDbCircle
10
-931.99713482133927
20
-1116.5976293577087
30
0
40
0.77931083738803864
210
0
220
-0
230
1
100
AcDbArc
50
14.731380176698032
51
120.26861868532609
0
LINE
5
263
100
AcDbEntity
8
0
100
AcDbLine
10
-928.61461620337923
20
-1118.1599626712923
30
0
11
-929.9578353210477
21
-1114.9171448601783
31
0
0
LINE
5
264
100
AcDbEntity
8
0
100
AcDbLine
10
-929.9578353210477
20
-1114.9171448601783
30
0
11
-927.52572802013844
21
-1113.9097330309951
31
0
0
LINE
5
265
100
AcDbEntity
8
0
100
AcDbLine
10
-926.37921516131416
20
-1114.3846305570016
30
0
11
-925.37180059496575
21
-1116.8167444660121
31
0
0
LINE
5
266
100
AcDbEntity
8
0
100
AcDbLine
10
-926.99320839917254
20
-1117.4883535686522
30
0
11
-928.33642751684101
21
-1114.2455357575384
31
0
0
ARC
5
267
100
AcDbEntity
8
0
100
AcDbCircle
10
-927.132911408719
20
-1114.5828020497888
30
0
40
0.77931083738803864
210
0
220
-0
230
1
100
AcDbArc
50
14.73138017671422
51
120.26861868531765
0
LINE
5
268
100
AcDbEntity
8
0
100
AcDbLine
10
-920.91690367890931
20
-1116.871063147541
30
0
11
-922.93173189921777
21
-1112.0068375322203
31
0
0
LINE
5
269
100
AcDbEntity
8
0
100
AcDbLine
10
-922.93173189921788
20
-1112.0068375322203
30
0
11
-921.58056019751257
21
-1111.4471638882792
31
0
0
LINE
5
270
100
AcDbEntity
8
0
100
AcDbLine
10
-920.43405614948995
20
-1111.9220650638395
30
0
11
-919.76244613446158
21
-1113.5434750707466
31
0
0
LINE
5
271
100
AcDbEntity
8
0
100
AcDbLine
10
-920.2373410798441
20
-1114.6899816993932
30
0
11
-921.58851278154941
21
-1115.2496553433343
31
0
0
ARC
5
272
100
AcDbEntity
8
0
100
AcDbCircle
10
-921.18774358609312
20
-1112.1202329070729
30
0
40
0.77931083738803864
210
0
220
-0
230
1
100
AcDbArc
50
14.731380176698032
51
120.26861868532609
0
ARC
5
273
100
AcDbEntity
8
0
100
AcDbCircle
10
-920.43550945754214
20
-1113.9362867423004
30
0
40
0.77931083738803864
210
0
220
-0
230
1
100
AcDbArc
50
-75.268629157980087
51
30.268616180843889
0
LINE
5
274
100
AcDbEntity
8
0
100
AcDbLine
10
-919.95517564509316
20
-1108.8743101594621
30
0
11
-918.27615197610476
21
-1112.9278318726795
31
0
0
ARC
5
275
100
AcDbEntity
8
0
100
AcDbCircle
10
-917.52246453950147
20
-1112.729664029446
30
0
40
0.77931083738803864
210
0
220
-0
230
1
100
AcDbArc
50
194.73138882812142
51
300.26860320370162
0
LINE
5
276
100
AcDbEntity
8
0
100
AcDbLine
10
-915.37709441543643
20
-1114.5763990176506
30
0
11
-914.83663102123546
21
-1114.3525317498061
31
0
0
LINE
5
277
100
AcDbEntity
8
0
100
AcDbLine
10
-914.83663102123546
20
-1114.3525317498063
30
0
11
-915.23005143733712
21
-1108.8166970318455
31
0
0
LINE
5
278
100
AcDbEntity
8
0
100
AcDbLine
10
-917.391922635745
20
-1109.7121734023299
30
0
11
-914.9677679188726
21
-1112.5072530282016
31
0
0
ENDSEC
0
SECTION
2
OBJECTS
0
DICTIONARY
5
C
100
AcDbDictionary
3
ACAD_GROUP
350
D
3
ACAD_MLINESTYLE
350
17
0
DICTIONARY
5
D
100
AcDbDictionary
0
DICTIONARY
5
1A
330
C
100
AcDbDictionary
0
DICTIONARY
5
17
100
AcDbDictionary
0
ENDSEC
0
EOF
