0
SECTION
2
HEADER
9
$INSUNITS
70
4
9
$ACADVER
1
AC1014
9
$HANDSEED
5
FFFF
0
ENDSEC
0
SECTION
2
TABLES
0
TABLE
2
VPORT
5
8
100
AcDbSymbolTable
0
ENDTAB
0
TABLE
2
LTYPE
5
5
100
AcDbSymbolTable
0
LTYPE
5
14
100
AcDbSymbolTableRecord
100
AcDbLinetypeTableRecord
2
BYBLOCK
70
0
0
LTYPE
5
15
100
AcDbSymbolTableRecord
100
AcDbLinetypeTableRecord
2
BYLAYER
70
0
0
LTYPE
5
16
100
AcDbSymbolTableRecord
100
AcDbLinetypeTableRecord
2
DASHED
70
0
3
Dashed __ __ __ __ __ __ __ __ __ __ __ __ __ _
72
65
73
2
40
0.75
49
0.5
74
0
49
-0.25
74
0
0
ENDTAB
0
TABLE
2
LAYER
5
2
100
AcDbSymbolTable
70
3
0
LAYER
5
50
100
AcDbSymbolTableRecord
100
AcDbLayerTableRecord
2
1
70
0
62
7
6
DASHED
0
LAYER
5
51
100
AcDbSymbolTableRecord
100
AcDbLayerTableRecord
2
0
70
0
62
7
6
CONTINUOUS
0
ENDTAB
0
TABLE
2
STYLE
5
3
100
AcDbSymbolTable
70
1
0
STYLE
5
11
100
AcDbSymbolTableRecord
100
AcDbTextStyleTableRecord
2
STANDARD
70
0
0
ENDTAB
0
TABLE
2
VIEW
5
6
100
AcDbSymbolTable
70
0
0
ENDTAB
0
TABLE
2
UCS
5
7
100
AcDbSymbolTable
70
0
0
ENDTAB
0
TABLE
2
APPID
5
9
100
AcDbSymbolTable
70
2
0
APPID
5
12
100
AcDbSymbolTableRecord
100
AcDbRegAppTableRecord
2
ACAD
70
0
0
ENDTAB
0
TABLE
2
DIMSTYLE
5
A
100
AcDbSymbolTable
70
1
0
ENDTAB
0
TABLE
2
BLOCK_RECORD
5
1
100
AcDbSymbolTable
70
1
0
BLOCK_RECORD
5
1F
100
AcDbSymbolTableRecord
100
AcDbBlockTableRecord
2
*MODEL_SPACE
0
BLOCK_RECORD
5
1B
100
AcDbSymbolTableRecord
100
AcDbBlockTableRecord
2
*PAPER_SPACE
0
ENDTAB
0
ENDSEC
0
SECTION
2
BLOCKS
0
BLOCK
5
20
100
AcDbEntity
100
AcDbBlockBegin
2
*MODEL_SPACE
0
ENDBLK
5
21
100
AcDbEntity
100
AcDbBlockEnd
0
BLOCK
5
1C
100
AcDbEntity
100
AcDbBlockBegin
2
*PAPER_SPACE
0
ENDBLK
5
1D
100
AcDbEntity
100
AcDbBlockEnd
0
ENDSEC
0
SECTION
2
ENTITIES
0
LWPOLYLINE
5
100
100
AcDbEntity
8
0
100
AcDbPolyline
90
29
70
1
43
0.0
10
-437.50146524600882
20
194.35596397322036
10
-449.48226209491065
20
166.8475923953653
10
-449.44597826435495
20
114.87918939757265
10
-439.21488301423744
20
114.88633264818382
42
-0.92520437740740724
10
-399.44401774139243
20
111.94569719592549
42
-0.92395695198749284
10
-439.20247413813729
20
108.89636614847231
10
-449.44181118058953
20
108.91078184121679
10
-449.40554941584014
20
56.973983131183168
10
-437.38635211437486
20
29.482368114446693
10
-409.61523595781546
20
29.501757636056382
42
-0.99999999999999989
10
-405.28345922763026
20
25.350166331529167
10
-405.27798165769912
20
17.504782939759018
10
-381.47798745858506
20
17.521399862868218
10
-381.48349755971736
20
25.413420699703011
42
-1.0000000074505806
10
-377.11320739033221
20
29.524450234427313
10
-357.3863716131508
20
29.53822331817512
10
-357.42357114007831
20
82.818154824001184
42
-0.99999999999999989
10
-353.1614123086274
20
87.041187158175944
10
-345.42652046564615
20
87.046587583988639
10
-345.46134174192059
20
136.92021147225375
10
-352.97286877005143
20
136.91496699756905
42
-0.99999999999999989
10
-357.46411877340216
20
140.89349353479381
10
-357.5014847447834
20
194.4118191769488
10
-377.47249201823399
20
194.39787561505136
42
-0.99999999999999989
10
-381.60451832062216
20
198.74831911386531
10
-381.60985715133631
20
206.39498987200923
10
-405.40985135045059
20
206.37837294889988
10
-405.40437837133561
20
198.53952046052086
42
-1.0000000074505806
10
-409.72407164559263
20
194.37535787767916
0
CIRCLE
5
101
100
AcDbEntity
8
0
100
AcDbCircle
10
-443.41148549364436
20
65.478170199718278
30
0
40
1.4999999999999858
210
1.1827799458341777e-24
220
-1.6940654816059578e-21
230
1
0
CIRCLE
5
102
100
AcDbEntity
8
0
100
AcDbCircle
10
-443.47632894192191
20
158.35178360739019
30
0
40
1.4999999999999858
210
1.1827799458341777e-24
220
-1.6940654816059578e-21
230
1
0
CIRCLE
5
103
100
AcDbEntity
8
0
100
AcDbCircle
10
-393.50566511061413
20
200.38668287286328
30
-4.4408920985006262e-15
40
1.4999999999999858
210
1.1827799458341777e-24
220
-1.6940654816059578e-21
230
1
0
CIRCLE
5
104
100
AcDbEntity
8
0
100
AcDbCircle
10
-393.3821736984213
20
23.513089938905416
30
0
40
1.4999999999999858
210
1.1827799458341777e-24
220
-1.6940654816059578e-21
230
1
0
LINE
5
105
100
AcDbEntity
8
1
100
AcDbLine
10
-363.39055929102216
20
35.534032715487058
30
0
11
-363.47566394031105
21
157.42724640486307
31
0
0
LINE
5
106
100
AcDbEntity
8
1
100
AcDbLine
10
-363.47566394031105
20
157.42724640486307
30
0
11
-387.06887610846013
21
157.41077385494503
31
0
0
LINE
5
107
100
AcDbEntity
8
1
100
AcDbLine
10
-387.06887610846013
20
157.41077385494503
30
0
11
-386.98377145917118
21
35.517560165569009
31
0
0
LINE
5
108
100
AcDbEntity
8
1
100
AcDbLine
10
-386.98377145917118
20
35.517560165569009
30
0
11
-363.39055929102216
21
35.534032715487058
31
0
0
LINE
5
109
100
AcDbEntity
8
0
100
AcDbLine
10
-374.11616943154991
20
36.404044515219248
30
0
11
-374.11719053450759
21
37.86654417961887
31
0
0
LINE
5
110
100
AcDbEntity
8
0
100
AcDbLine
10
-371.1921910566968
20
37.868586385638338
30
0
11
-371.19116995373906
21
36.406086721238715
31
0
0
LINE
5
111
100
AcDbEntity
8
0
100
AcDbLine
10
-371.19116995373906
20
36.406086721238722
30
0
11
-376.45616853696151
21
36.4024107507366
31
0
0
LINE
5
112
100
AcDbEntity
8
0
100
AcDbLine
10
-376.45616853696146
20
36.4024107507366
30
0
11
-376.45718963991919
21
37.864910415136215
31
0
0
ARC
5
113
100
AcDbEntity
8
0
100
AcDbCircle
10
-372.65469079560216
20
37.867565282628604
30
0
40
1.4625000953674314
210
0
220
0
230
1
100
AcDbArc
50
0.040004029464768567
51
180.04000585068886
0
ARC
5
114
100
AcDbEntity
8
0
100
AcDbCircle
10
-375.28719008721339
20
37.865727297377546
30
0
40
1.1700000613927839
210
0
220
0
230
1
100
AcDbArc
50
0.040004029455657869
51
180.04000585068886
0
LINE
5
115
100
AcDbEntity
8
0
100
AcDbLine
10
-371.19413115243611
20
40.647335919360934
30
0
11
-371.19515225544581
21
42.109835658266341
31
0
0
LINE
5
116
100
AcDbEntity
8
0
100
AcDbLine
10
-376.45912973565851
20
40.643659948858812
30
0
11
-376.46035505943667
21
42.398659873963815
31
0
0
LINE
5
117
100
AcDbEntity
8
0
100
AcDbLine
10
-374.12035595402506
20
42.400293638446477
30
0
11
-374.11953907136763
21
41.230293489694361
31
0
0
ARC
5
118
100
AcDbEntity
8
0
100
AcDbCircle
10
-372.65765199435123
20
42.1088145552566
30
0
40
1.4625000953674314
210
0
220
0
230
1
100
AcDbArc
50
0.040004029464768567
51
180.04000585068886
0
ARC
5
119
100
AcDbEntity
8
0
100
AcDbCircle
10
-375.29035550673086
20
42.399476756205146
30
0
40
1.1700000613927837
210
0
220
0
230
1
100
AcDbArc
50
0.040004029455657869
51
180.04000585068886
0
LINE
5
120
100
AcDbEntity
8
0
100
AcDbLine
10
-371.19739868223371
20
45.327335322276767
30
0
11
-371.19719446146524
21
45.034835136077163
31
0
0
LINE
5
121
100
AcDbEntity
8
0
100
AcDbLine
10
-371.1971944614653
20
45.034835136077156
30
0
11
-371.48969464766492
21
45.034630915308746
31
0
0
LINE
5
122
100
AcDbEntity
8
0
100
AcDbLine
10
-371.48969464766486
20
45.034630915308753
30
0
11
-371.48989886843333
21
45.327131101508357
31
0
0
LINE
5
123
100
AcDbEntity
8
0
100
AcDbLine
10
-371.48989886843333
20
45.327131101508357
30
0
11
-371.19739868223371
21
45.327335322276767
31
0
0
LINE
5
124
100
AcDbEntity
8
0
100
AcDbLine
10
-371.19739868223371
20
45.327335322276767
30
0
11
-370.02709279837524
21
44.889401925218692
31
0
0
LINE
5
125
100
AcDbEntity
8
0
100
AcDbLine
10
-372.66388072237771
20
51.030062485742562
30
0
11
-373.2478599917672
21
49.567154305300335
31
0
0
ARC
5
126
100
AcDbEntity
8
0
100
AcDbCircle
10
-373.96084536728125
20
49.805058453794295
30
0
40
0.75162976980209328
210
0
220
0
230
1
100
AcDbArc
50
175.91259083714948
51
341.54754005922018
0
ARC
5
127
100
AcDbEntity
8
0
100
AcDbCircle
10
-371.99389803536508
20
49.947438499691728
30
0
40
2.7181166410446163
210
0
220
0
230
1
100
AcDbArc
50
153.15012482424618
51
181.87226556725469
0
ARC
5
128
100
AcDbEntity
8
0
100
AcDbCircle
10
-371.95221275992111
20
50.785543684447411
30
0
40
0.7525029033422469
210
0
220
0
230
1
100
AcDbArc
50
-3.5778652116224161
51
161.03800976837107
0
ARC
5
129
100
AcDbEntity
8
0
100
AcDbCircle
10
-374.29797956456008
20
50.468544793199925
30
0
40
3.108554780483245
210
0
220
0
230
1
100
AcDbArc
50
-25.513236297171755
51
4.9835310261785626
0
LINE
5
130
100
AcDbEntity
8
0
100
AcDbLine
10
-374.71250404666011
20
52.637382177154919
30
0
11
-374.71372937043827
21
54.39238210225993
31
0
0
LINE
5
131
100
AcDbEntity
8
0
100
AcDbLine
10
-376.46791122120931
20
53.221157226608284
30
0
11
-372.0804120044931
21
53.224220535637485
31
0
0
LINE
5
132
100
AcDbEntity
8
0
100
AcDbLine
10
-371.20352529945984
20
54.102332563616613
30
0
11
-371.20372952022825
21
54.394832749816217
31
0
0
ARC
5
133
100
AcDbEntity
8
0
100
AcDbCircle
10
-371.97560947023658
20
53.996451803429288
30
0
40
0.77931083738803852
210
0
220
0
230
1
100
AcDbArc
50
-97.728607825664454
51
7.8086065499226711
0
LINE
5
134
100
AcDbEntity
8
0
100
AcDbLine
10
-371.204750623238
20
55.857332488721624
30
0
11
-374.71475047344802
21
55.854881841165337
31
0
0
LINE
5
135
100
AcDbEntity
8
0
100
AcDbLine
10
-376.17714810155303
20
55.707610049009503
30
0
11
-376.46964709566009
21
55.707405829073402
31
0
0
LINE
5
136
100
AcDbEntity
8
0
100
AcDbLine
10
-376.46964709566009
20
55.707405829073394
30
0
11
-376.46985131726075
21
55.999907207365602
31
0
0
LINE
5
137
100
AcDbEntity
8
0
100
AcDbLine
10
-376.46985131726075
20
55.999907207365602
30
0
11
-376.17735232315374
21
56.000111427301704
31
0
0
LINE
5
138
100
AcDbEntity
8
0
100
AcDbLine
10
-376.17735232315374
20
56.000111427301704
30
0
11
-376.17714810155303
21
55.707610049009489
31
0
0
LINE
5
139
100
AcDbEntity
8
0
100
AcDbLine
10
-371.20730337993001
20
59.513580643892539
30
0
11
-371.20648649852103
21
58.343582283279332
31
0
0
LINE
5
140
100
AcDbEntity
8
0
100
AcDbLine
10
-372.08337320188969
20
57.46546787111501
30
0
11
-373.83837312699472
21
57.464242547336866
31
0
0
LINE
5
141
100
AcDbEntity
8
0
100
AcDbLine
10
-374.716486348731
20
58.341131635723052
30
0
11
-374.71730323014003
21
59.511129996336258
31
0
0
ARC
5
142
100
AcDbEntity
8
0
100
AcDbCircle
10
-371.97857066846547
20
58.237700330999402
30
0
40
0.77931083738803852
210
0
220
0
230
1
100
AcDbArc
50
-97.728607825660376
51
7.8086065499221098
0
ARC
5
143
100
AcDbEntity
8
0
100
AcDbCircle
10
-373.94425388801432
20
58.236327910206249
30
0
40
0.77931083738803852
210
0
220
0
230
1
100
AcDbArc
50
172.27138966985899
51
277.80862453601173
0
LINE
5
144
100
AcDbEntity
8
0
100
AcDbLine
10
-371.20832448293976
20
60.976080382797946
30
0
11
-376.47332306616221
21
60.972404412295816
31
0
0
LINE
5
145
100
AcDbEntity
8
0
100
AcDbLine
10
-374.71995809763246
20
63.31362884065328
30
0
11
-372.96332440804474
21
60.974855059019816
31
0
0
LINE
5
146
100
AcDbEntity
8
0
100
AcDbLine
10
-371.20995824742238
20
63.31607948820956
30
0
11
-373.69528904977074
21
61.998094563167243
31
0
0
LINE
5
147
100
AcDbEntity
8
0
100
AcDbLine
10
-373.26164488156627
20
69.310899588430743
30
0
11
-373.26072588769227
21
67.994648154486228
31
0
0
LINE
5
148
100
AcDbEntity
8
0
100
AcDbLine
10
-371.21322577638773
20
67.996077699032782
30
0
11
-371.21414477026173
21
69.312329132977311
31
0
0
LINE
5
149
100
AcDbEntity
8
0
100
AcDbLine
10
-371.21414477026173
20
69.312329132977311
30
0
11
-373.84664406187289
21
69.310491147726239
31
0
0
LINE
5
150
100
AcDbEntity
8
0
100
AcDbLine
10
-374.72353195899876
20
68.43237911891481
30
0
11
-374.72271507592518
21
67.262378374116409
31
0
0
ARC
5
151
100
AcDbEntity
8
0
100
AcDbCircle
10
-372.23697583204
20
67.995362926759512
30
0
40
1.0237500816583631
210
0
220
0
230
1
100
AcDbArc
50
-179.95999414931117
51
0.040004029455657869
0
ARC
5
152
100
AcDbEntity
8
0
100
AcDbCircle
10
-373.95144659529711
20
68.538258687841846
30
0
40
0.77931083738803852
210
0
220
0
230
1
100
AcDbArc
50
82.271383522916622
51
187.80862203153407
0
LINE
5
153
100
AcDbEntity
8
0
100
AcDbLine
10
-372.67909515672335
20
72.821307880177585
30
0
11
-373.26307442611278
21
71.358399699735372
31
0
0
ARC
5
154
100
AcDbEntity
8
0
100
AcDbCircle
10
-373.97605979996229
20
71.596301464044117
30
0
40
0.75162976980209339
210
0
220
0
230
1
100
AcDbArc
50
175.91259083714948
51
341.54754005922069
0
ARC
5
155
100
AcDbEntity
8
0
100
AcDbCircle
10
-372.00911246887841
20
71.738682702034154
30
0
40
2.7181166410446158
210
0
220
0
230
1
100
AcDbArc
50
153.15012482424669
51
181.87226556725491
0
ARC
5
156
100
AcDbEntity
8
0
100
AcDbCircle
10
-371.9674271942668
20
72.576789078882456
30
0
40
0.7525029033422469
210
0
220
0
230
1
100
AcDbArc
50
-3.577865211622925
51
161.03800976837158
0
ARC
5
157
100
AcDbEntity
8
0
100
AcDbCircle
10
-374.31319399890577
20
72.259790187634948
30
0
40
3.1085547804832454
210
0
220
0
230
1
100
AcDbArc
50
-25.513236297171652
51
4.9835310261788557
0
LINE
5
158
100
AcDbEntity
8
0
100
AcDbLine
10
-372.68175002255123
20
76.623804340309391
30
0
11
-373.26572929360532
21
75.160898544052387
31
0
0
ARC
5
159
100
AcDbEntity
8
0
100
AcDbCircle
10
-373.97871466745471
20
75.398800308361146
30
0
40
0.75162976980209339
210
0
220
0
230
1
100
AcDbArc
50
175.91259083714948
51
341.54754005921967
0
ARC
5
160
100
AcDbEntity
8
0
100
AcDbCircle
10
-372.01176733470624
20
75.54117916216596
30
0
40
2.7181166410446163
210
0
220
0
230
1
100
AcDbArc
50
153.15012482424669
51
181.87226556725469
0
ARC
5
161
100
AcDbEntity
8
0
100
AcDbCircle
10
-371.97008206175917
20
76.379287923199456
30
0
40
0.7525029033422469
210
0
220
0
230
1
100
AcDbArc
50
-3.5778652116218055
51
161.03800976837056
0
ARC
5
162
100
AcDbEntity
8
0
100
AcDbCircle
10
-374.3158488663982
20
76.062289031951977
30
0
40
3.1085547804832454
210
0
220
0
230
1
100
AcDbArc
50
-25.513236297171652
51
4.9835310261785626
0
LINE
5
163
100
AcDbEntity
8
0
100
AcDbLine
10
-371.22221148353924
20
80.866076355074469
30
0
11
-371.22119037886483
21
79.403574231983839
31
0
0
LINE
5
164
100
AcDbEntity
8
0
100
AcDbLine
10
-372.09807708389815
20
78.525462204004725
30
0
11
-373.56057682280357
21
78.524441100994991
31
0
0
LINE
5
165
100
AcDbEntity
8
0
100
AcDbLine
10
-373.56221058895085
20
80.864442590591807
30
0
11
-372.97721140864428
21
80.864851031296325
31
0
0
LINE
5
166
100
AcDbEntity
8
0
100
AcDbLine
10
-372.97721140864428
20
80.864851031296325
30
0
11
-372.97557764249694
21
78.52484954169951
31
0
0
ARC
5
167
100
AcDbEntity
8
0
100
AcDbCircle
10
-371.99327455213853
20
79.29769704807434
30
0
40
0.77931083738803852
210
0
220
0
230
1
100
AcDbArc
50
-97.728607825660376
51
7.808606549923141
0
ARC
5
168
100
AcDbEntity
8
0
100
AcDbCircle
10
-373.56139370587721
20
79.694441845793406
30
0
40
1.1700000613927839
210
0
220
0
230
1
100
AcDbArc
50
90.040003346217688
51
270.04000835517598
0
LINE
5
169
100
AcDbEntity
8
0
100
AcDbLine
10
-371.22333469568474
20
82.474824398940783
30
0
11
-374.73333454589476
21
82.472373751384509
31
0
0
LINE
5
170
100
AcDbEntity
8
0
100
AcDbLine
10
-374.73333454589471
20
82.472373751384481
30
0
11
-374.73517253031343
21
85.104871850903095
31
0
0
LINE
5
171
100
AcDbEntity
8
0
100
AcDbLine
10
-373.85828463318762
20
85.982983879714524
30
0
11
-371.2257853415764
21
85.984821864965568
31
0
0
LINE
5
172
100
AcDbEntity
8
0
100
AcDbLine
10
-371.22456001863054
20
84.229823131953182
30
0
11
-374.73455986884062
21
84.227372484396895
31
0
0
ARC
5
173
100
AcDbEntity
8
0
100
AcDbCircle
10
-373.96308716827639
20
85.21075380401534
30
0
40
0.77931083738803852
210
0
220
0
230
1
100
AcDbArc
50
82.27138352291648
51
187.80862203153299
0
LINE
5
174
100
AcDbEntity
8
0
100
AcDbLine
10
-376.49200925107385
20
87.736149395846297
30
0
11
-371.2270106678514
21
87.739825366348413
31
0
0
LINE
5
175
100
AcDbEntity
8
0
100
AcDbLine
10
-371.22701066785146
20
87.739825366348413
30
0
11
-371.22803177252587
21
89.202327489439028
31
0
0
LINE
5
176
100
AcDbEntity
8
0
100
AcDbLine
10
-372.10614380050492
20
90.079214194472314
30
0
11
-373.86114372560996
21
90.077988870694185
31
0
0
LINE
5
177
100
AcDbEntity
8
0
100
AcDbLine
10
-374.73803162273583
20
89.199876841882741
30
0
11
-374.73701051806142
21
87.73737471879214
31
0
0
ARC
5
178
100
AcDbEntity
8
0
100
AcDbCircle
10
-372.00026303782067
20
89.30712644741773
30
0
40
0.77931083738803852
210
0
220
0
230
1
100
AcDbArc
50
-7.7286258117527797
51
97.808619527057672
0
ARC
5
179
100
AcDbEntity
8
0
100
AcDbCircle
10
-373.96594625736952
20
89.305754026624555
30
0
40
0.77931083738803852
210
0
220
0
230
1
100
AcDbArc
50
82.271383522916338
51
187.80862203153407
0
LINE
5
180
100
AcDbEntity
8
0
100
AcDbLine
10
-376.49476622936663
20
91.684898929309426
30
0
11
-372.10726701265037
21
91.687962238338642
31
0
0
ARC
5
181
100
AcDbEntity
8
0
100
AcDbCircle
10
-372.0024644775616
20
92.460192314037812
30
0
40
0.77931083738803852
210
0
220
0
230
1
100
AcDbArc
50
-97.728607825660376
51
7.8086065499236081
0
LINE
5
182
100
AcDbEntity
8
0
100
AcDbLine
10
-369.47619726558571
20
93.7373003348943
30
0
11
-369.47660570878719
21
94.322303091478716
31
0
0
LINE
5
183
100
AcDbEntity
8
0
100
AcDbLine
10
-369.47660570878719
20
94.322303091478716
30
0
11
-374.74283080704811
21
96.073625853156699
31
0
0
LINE
5
184
100
AcDbEntity
8
0
100
AcDbLine
10
-374.74119704090077
20
93.733624363559869
30
0
11
-371.23201407376439
21
94.906075755914557
31
0
0
LINE
5
185
100
AcDbEntity
8
0
100
AcDbLine
10
-376.50048440755285
20
99.874899374527899
30
0
11
-371.2354858243304
21
99.878575345030015
31
0
0
LINE
5
186
100
AcDbEntity
8
0
100
AcDbLine
10
-371.2354858243304
20
99.878575345030001
30
0
11
-371.23650692900475
21
101.34107746812062
31
0
0
LINE
5
187
100
AcDbEntity
8
0
100
AcDbLine
10
-372.11461895698392
20
102.2179641731539
30
0
11
-373.86961888208896
21
102.21673884937576
31
0
0
LINE
5
188
100
AcDbEntity
8
0
100
AcDbLine
10
-374.74650677921483
20
101.33862682056431
30
0
11
-374.74548567454042
21
99.876124697473699
31
0
0
ARC
5
189
100
AcDbEntity
8
0
100
AcDbCircle
10
-372.00873819429967
20
101.44587642609932
30
0
40
0.77931083738803852
210
0
220
0
230
1
100
AcDbArc
50
-7.7286258117521687
51
97.808619527053523
0
ARC
5
190
100
AcDbEntity
8
0
100
AcDbCircle
10
-373.97442141384852
20
101.44450400530616
30
0
40
0.77931083738803852
210
0
220
0
230
1
100
AcDbArc
50
82.271383522916338
51
187.80862203153407
0
LINE
5
191
100
AcDbEntity
8
0
100
AcDbLine
10
-371.2397744579701
20
106.02107567894384
30
0
11
-371.23875335329569
21
104.55857355585323
31
0
0
LINE
5
192
100
AcDbEntity
8
0
100
AcDbLine
10
-372.11564005832895
20
103.68046152787412
30
0
11
-373.57813979723437
21
103.67944042486437
31
0
0
LINE
5
193
100
AcDbEntity
8
0
100
AcDbLine
10
-373.57977356338165
20
106.0194419144612
30
0
11
-372.99477438307508
21
106.0198503551657
31
0
0
LINE
5
194
100
AcDbEntity
8
0
100
AcDbLine
10
-372.99477438307508
20
106.0198503551657
30
0
11
-372.99314061692775
21
103.67984886556889
31
0
0
ARC
5
195
100
AcDbEntity
8
0
100
AcDbCircle
10
-372.01083752656939
20
104.45269637194372
30
0
40
0.77931083738803852
210
0
220
0
230
1
100
AcDbArc
50
-97.728607825664554
51
7.808606549923141
0
ARC
5
196
100
AcDbEntity
8
0
100
AcDbCircle
10
-373.57895668030807
20
104.84944116966278
30
0
40
1.1700000613927839
210
0
220
0
230
1
100
AcDbArc
50
90.040003346217688
51
270.04000835517314
0
LINE
5
197
100
AcDbEntity
8
0
100
AcDbLine
10
-373.28992943676712
20
109.82214497871432
30
0
11
-373.28901044289307
21
108.5058935447698
31
0
0
LINE
5
198
100
AcDbEntity
8
0
100
AcDbLine
10
-371.24151033158847
20
108.50732308931634
30
0
11
-371.24242932546247
21
109.82357452326086
31
0
0
LINE
5
199
100
AcDbEntity
8
0
100
AcDbLine
10
-371.24242932546247
20
109.82357452326086
30
0
11
-373.87492861707364
21
109.82173653800982
31
0
0
LINE
5
200
100
AcDbEntity
8
0
100
AcDbLine
10
-374.75181651419962
20
108.94362450919836
30
0
11
-374.75099963112598
21
107.77362376439994
31
0
0
ARC
5
201
100
AcDbEntity
8
0
100
AcDbCircle
10
-372.26526038724074
20
108.50660831704306
30
0
40
1.0237500816583631
210
0
220
0
230
1
100
AcDbArc
50
-179.95999414931117
51
0.040004029455657869
0
ARC
5
202
100
AcDbEntity
8
0
100
AcDbCircle
10
-373.97973114883325
20
109.0495016939402
30
0
40
0.77931083738803852
210
0
220
0
230
1
100
AcDbArc
50
82.27138352291648
51
187.80862203153299
0
LINE
5
203
100
AcDbEntity
8
0
100
AcDbLine
10
-371.24365464840827
20
111.57857325627326
30
0
11
-374.75365449861835
21
111.57612260871699
31
0
0
LINE
5
204
100
AcDbEntity
8
0
100
AcDbLine
10
-374.75365449861835
20
111.57612260871699
30
0
11
-374.75487982156415
21
113.33112134172939
31
0
0
LINE
5
205
100
AcDbEntity
8
0
100
AcDbLine
10
-374.75487982156415
20
113.33112134172939
30
0
11
-374.16987944916491
21
113.33152978326622
31
0
0
LINE
5
206
100
AcDbEntity
8
0
100
AcDbLine
10
-371.24579896522812
20
114.64982342323019
30
0
11
-374.75579881543814
21
114.64737277567392
31
0
0
LINE
5
207
100
AcDbEntity
8
0
100
AcDbLine
10
-376.21819644354321
20
114.50010098351808
30
0
11
-376.51069543765016
21
114.49989676358197
31
0
0
LINE
5
208
100
AcDbEntity
8
0
100
AcDbLine
10
-376.51069543765016
20
114.49989676358197
30
0
11
-376.51089965925087
21
114.79239814187417
31
0
0
LINE
5
209
100
AcDbEntity
8
0
100
AcDbLine
10
-376.51089965925098
20
114.79239814187417
30
0
11
-376.21840066514392
21
114.79260236181028
31
0
0
LINE
5
210
100
AcDbEntity
8
0
100
AcDbLine
10
-376.21840066514392
20
114.79260236181027
30
0
11
-376.21819644354326
21
114.50010098351805
31
0
0
LINE
5
211
100
AcDbEntity
8
0
100
AcDbLine
10
-371.24702428817398
20
116.4048221562426
30
0
11
-374.75702413838405
21
116.40237150868631
31
0
0
LINE
5
212
100
AcDbEntity
8
0
100
AcDbLine
10
-374.757024138384
20
116.40237150868631
30
0
11
-374.75804523972909
21
117.86486886340653
31
0
0
LINE
5
213
100
AcDbEntity
8
0
100
AcDbLine
10
-373.88115734593242
20
118.74298566058837
30
0
11
-371.24865805432125
21
118.74482364583942
31
0
0
ARC
5
214
100
AcDbEntity
8
0
100
AcDbCircle
10
-373.98595987769204
20
117.97075081651876
30
0
40
0.77931083738803852
210
0
220
0
230
1
100
AcDbArc
50
82.27138352291648
51
187.80862203153299
0
LINE
5
215
100
AcDbEntity
8
0
100
AcDbLine
10
-371.25141502928477
20
122.69356841093213
30
0
11
-371.25039392793963
21
121.23107105621193
31
0
0
LINE
5
216
100
AcDbEntity
8
0
100
AcDbLine
10
-372.12728062964368
20
120.35295425986237
30
0
11
-373.88228055474872
21
120.35172893608424
31
0
0
LINE
5
217
100
AcDbEntity
8
0
100
AcDbLine
10
-374.76039377814965
20
121.22862040865563
30
0
11
-374.76141487949474
21
122.69111776337583
31
0
0
LINE
5
218
100
AcDbEntity
8
0
100
AcDbLine
10
-374.76141487949474
20
122.69111776337584
30
0
11
-370.37391566277853
21
122.69418107240506
31
0
0
LINE
5
219
100
AcDbEntity
8
0
100
AcDbLine
10
-369.4958024393776
20
121.81728959983363
30
0
11
-369.49498555963316
21
120.64729362340564
31
0
0
ARC
5
220
100
AcDbEntity
8
0
100
AcDbCircle
10
-372.02247809788412
20
121.12518910393199
30
0
40
0.77931083738803852
210
0
220
0
230
1
100
AcDbArc
50
-97.728607825660376
51
7.8086065499225787
0
ARC
5
221
100
AcDbEntity
8
0
100
AcDbCircle
10
-373.98816131743297
20
121.12381668313884
30
0
40
0.77931083738803852
210
0
220
0
230
1
100
AcDbArc
50
172.27138966985854
51
277.80862453601577
0
ARC
5
222
100
AcDbEntity
8
0
100
AcDbCircle
10
-370.26803490009428
20
121.92209332535046
30
0
40
0.77931083738803852
210
0
220
0
230
1
100
AcDbArc
50
-7.7286258117512023
51
97.808619527053395
0
LINE
5
223
100
AcDbEntity
8
0
100
AcDbLine
10
-376.5192727016003
20
126.78489266303924
30
0
11
-371.25427411837785
21
126.78856863354136
31
0
0
LINE
5
224
100
AcDbEntity
8
0
100
AcDbLine
10
-371.25427411837785
20
126.78856863354135
30
0
11
-371.25529521972294
21
128.25106598826156
31
0
0
LINE
5
225
100
AcDbEntity
8
0
100
AcDbLine
10
-372.13340724437285
20
129.1279479249244
30
0
11
-373.88840716947789
21
129.12672260114627
31
0
0
LINE
5
226
100
AcDbEntity
8
0
100
AcDbLine
10
-374.76529506993302
20
128.24861534070527
30
0
11
-374.76427396858787
21
126.78611798598509
31
0
0
ARC
5
227
100
AcDbEntity
8
0
100
AcDbCircle
10
-372.02752648834712
20
128.35586971461066
30
0
40
0.77931083738803852
210
0
220
0
230
1
100
AcDbArc
50
-7.7286258117521687
51
97.808619527053523
0
ARC
5
228
100
AcDbEntity
8
0
100
AcDbCircle
10
-373.99320970789597
20
128.3544972938175
30
0
40
0.77931083738803852
210
0
220
0
230
1
100
AcDbArc
50
82.271383522916338
51
187.80862203153407
0
LINE
5
229
100
AcDbEntity
8
0
100
AcDbLine
10
-371.25703109334142
20
130.73731339863406
30
0
11
-374.76703094355145
21
130.7348627510778
31
0
0
LINE
5
230
100
AcDbEntity
8
0
100
AcDbLine
10
-374.76703094355145
20
130.7348627510778
30
0
11
-374.76825626649725
21
132.4898614840902
31
0
0
LINE
5
231
100
AcDbEntity
8
0
100
AcDbLine
10
-374.76825626649725
20
132.48986148409017
30
0
11
-374.18325589409801
21
132.49026992562699
31
0
0
LINE
5
232
100
AcDbEntity
8
0
100
AcDbLine
10
-373.30820717348354
20
136.00088005312475
30
0
11
-373.30728817960954
21
134.68462861918024
31
0
0
LINE
5
233
100
AcDbEntity
8
0
100
AcDbLine
10
-371.25978806830489
20
134.68605816372676
30
0
11
-371.26070706217888
21
136.00230959767129
31
0
0
LINE
5
234
100
AcDbEntity
8
0
100
AcDbLine
10
-371.26070706217888
20
136.00230959767129
30
0
11
-373.89320635379011
21
136.00047161242023
31
0
0
LINE
5
235
100
AcDbEntity
8
0
100
AcDbLine
10
-374.77009424758677
20
135.1223548152384
30
0
11
-374.76927736784234
21
133.9523588388104
31
0
0
ARC
5
236
100
AcDbEntity
8
0
100
AcDbCircle
10
-372.28353812395721
20
134.6853433914535
30
0
40
1.0237500816583631
210
0
220
0
230
1
100
AcDbArc
50
-179.95999414931117
51
0.040004029455657869
0
ARC
5
237
100
AcDbEntity
8
0
100
AcDbCircle
10
-373.99800888554972
20
135.2282367683506
30
0
40
0.77931083738803852
210
0
220
0
230
1
100
AcDbArc
50
82.271383522912188
51
187.80862203153407
0
LINE
5
238
100
AcDbEntity
8
0
100
AcDbLine
10
-371.26325981554169
20
139.65855298447178
30
0
11
-371.26244293579725
21
138.48855700804378
31
0
0
LINE
5
239
100
AcDbEntity
8
0
100
AcDbLine
10
-372.13932963750131
20
137.61044021169425
30
0
11
-373.89432956260634
21
137.60921488791612
31
0
0
LINE
5
240
100
AcDbEntity
8
0
100
AcDbLine
10
-374.77244278600728
20
138.4861063604875
30
0
11
-374.77325966575171
21
139.6561023369155
31
0
0
ARC
5
241
100
AcDbEntity
8
0
100
AcDbCircle
10
-372.03452710574174
20
138.38267505576385
30
0
40
0.77931083738803852
210
0
220
0
230
1
100
AcDbArc
50
-97.728607825664668
51
7.808606549923141
0
ARC
5
242
100
AcDbEntity
8
0
100
AcDbCircle
10
-374.0002103252906
20
138.38130263497072
30
0
40
0.77931083738803852
210
0
220
0
230
1
100
AcDbArc
50
172.27138966985905
51
277.80862453601162
0
LINE
5
243
100
AcDbEntity
8
0
100
AcDbLine
10
-371.2642809235453
20
141.12105987593281
30
0
11
-376.52927950676775
21
141.1173839054307
31
0
0
LINE
5
244
100
AcDbEntity
8
0
100
AcDbLine
10
-374.77591453324413
20
143.45860118123252
30
0
11
-373.01928084865034
21
141.11983455215469
31
0
0
LINE
5
245
100
AcDbEntity
8
0
100
AcDbLine
10
-371.26591468303411
20
143.46105182878881
30
0
11
-373.75124549037628
21
142.14307405630211
31
0
0
LINE
5
246
100
AcDbEntity
8
0
100
AcDbLine
10
-371.26846744305539
20
147.11730475233014
30
0
11
-371.26744634171024
21
145.65480739760994
31
0
0
LINE
5
247
100
AcDbEntity
8
0
100
AcDbLine
10
-372.14433304341424
20
144.77669060126038
30
0
11
-373.60683278231966
21
144.77566949825066
31
0
0
LINE
5
248
100
AcDbEntity
8
0
100
AcDbLine
10
-373.60846654846694
20
147.11567098784747
30
0
11
-373.02346736816037
21
147.11607942855198
31
0
0
LINE
5
249
100
AcDbEntity
8
0
100
AcDbLine
10
-373.02346736816037
20
147.11607942855198
30
0
11
-373.02183360201303
21
144.77607793895518
31
0
0
ARC
5
250
100
AcDbEntity
8
0
100
AcDbCircle
10
-372.03953051165468
20
145.54892544533001
30
0
40
0.77931083738803852
210
0
220
0
230
1
100
AcDbArc
50
-97.728607825664412
51
7.808606549923141
0
ARC
5
251
100
AcDbEntity
8
0
100
AcDbCircle
10
-373.6076496687225
20
145.9456750114195
30
0
40
1.1700000613927839
210
0
220
0
230
1
100
AcDbArc
50
90.040003346220459
51
270.04000835517314
0
LINE
5
252
100
AcDbEntity
8
0
100
AcDbLine
10
-374.77928417300978
20
148.28485008120185
30
0
11
-374.78050949595564
21
150.03984881421428
31
0
0
LINE
5
253
100
AcDbEntity
8
0
100
AcDbLine
10
-376.53469134922364
20
148.86862751484043
30
0
11
-372.14719213250737
21
148.87169082386964
31
0
0
LINE
5
254
100
AcDbEntity
8
0
100
AcDbLine
10
-371.27030543080338
20
149.74980762021917
30
0
11
-371.27050964574562
21
150.04229946177054
31
0
0
ARC
5
255
100
AcDbEntity
8
0
100
AcDbCircle
10
-372.04238960074781
20
149.64392566793921
30
0
40
0.77931083738803852
210
0
220
0
230
1
100
AcDbArc
50
-97.728607825664668
51
7.808606549923141
0
LINE
5
256
100
AcDbEntity
8
0
100
AcDbLine
10
-371.27163286122033
20
151.65105227400727
30
0
11
-371.27142863961967
21
151.35855089571504
31
0
0
LINE
5
257
100
AcDbEntity
8
0
100
AcDbLine
10
-371.27142863961956
20
151.35855089571504
30
0
11
-371.56392882581918
21
151.35834667494663
31
0
0
LINE
5
258
100
AcDbEntity
8
0
100
AcDbLine
10
-371.56392882581918
20
151.35834667494663
30
0
11
-371.56413304741989
21
151.65084805323883
31
0
0
LINE
5
259
100
AcDbEntity
8
0
100
AcDbLine
10
-371.56413304741989
20
151.65084805323886
30
0
11
-371.27163286122027
21
151.65105227400727
31
0
0
LINE
5
260
100
AcDbEntity
8
0
100
AcDbLine
10
-371.27163286122033
20
151.65105227400727
30
0
11
-370.10132697944272
21
151.21312185718071
31
0
0
LINE
5
261
100
AcDbEntity
8
0
100
AcDbLine
10
-366.31780538352552
20
38.749489875323519
30
0
11
-363.39107003063975
21
36.265282584808418
31
0
0
LINE
5
262
100
AcDbEntity
8
0
100
AcDbLine
10
-363.39107003063981
20
36.265282584808418
30
0
11
-363.39311223665925
21
39.190282062619239
31
0
0
ARC
5
263
100
AcDbEntity
8
0
100
AcDbCircle
10
-367.49906497494067
20
38.029177437997078
30
0
40
1.1689662933349607
210
0
220
0
230
1
100
AcDbArc
50
82.271383522915301
51
187.80862203153413
0
ARC
5
264
100
AcDbEntity
8
0
100
AcDbCircle
10
-367.20885483789073
20
37.694784983539741
30
0
40
1.4589405059814449
210
0
220
0
230
1
100
AcDbArc
50
173.08817784175534
51
259.04657299922826
0
ARC
5
265
100
AcDbEntity
8
0
100
AcDbCircle
10
-367.23685316390618
20
38.016959315315304
30
0
40
1.1752662807703016
210
0
220
0
230
1
100
AcDbArc
50
38.556724834730488
51
95.126106272987428
0
LINE
5
266
100
AcDbEntity
8
0
100
AcDbLine
10
-363.39566499418362
20
42.846531409882758
30
0
11
-366.90729860929247
21
45.18408046378439
31
0
0
LINE
5
267
100
AcDbEntity
8
0
100
AcDbLine
10
-366.90566484439358
20
42.844080762326477
30
0
11
-363.39729875908239
21
45.186531111340678
31
0
0
LINE
5
268
100
AcDbEntity
8
0
100
AcDbLine
10
-367.49485173879981
20
48.839920773464783
30
0
11
-368.66587120242281
21
50.301603630961182
31
0
0
LINE
5
269
100
AcDbEntity
8
0
100
AcDbLine
10
-368.66587120242275
20
50.301603630961182
30
0
11
-363.40087261920024
21
50.305279601463305
31
0
0
LINE
5
270
100
AcDbEntity
8
0
100
AcDbLine
10
-363.39985151619061
20
48.84277986255789
30
0
11
-363.40189372221005
21
51.767779340368705
31
0
0
LINE
5
271
100
AcDbEntity
8
0
100
AcDbLine
10
-366.32965017748131
20
55.714485475719762
30
0
11
-363.40291482521985
21
53.230279079274119
31
0
0
LINE
5
272
100
AcDbEntity
8
0
100
AcDbLine
10
-363.4029148252198
20
53.230279079274119
30
0
11
-363.40495703207154
21
56.155279749177545
31
0
0
ARC
5
273
100
AcDbEntity
8
0
100
AcDbCircle
10
-367.51090976962467
20
54.994174081474355
30
0
40
1.1689662933349607
210
0
220
0
230
1
100
AcDbArc
50
82.271383522915244
51
187.80862203153413
0
ARC
5
274
100
AcDbEntity
8
0
100
AcDbCircle
10
-367.22069963226267
20
54.659781179982296
30
0
40
1.4589405059814449
210
0
220
0
230
1
100
AcDbArc
50
173.08817784175508
51
259.04657299922837
0
ARC
5
275
100
AcDbEntity
8
0
100
AcDbCircle
10
-367.24869795848622
20
54.981955809780999
30
0
40
1.1752662807703016
210
0
220
0
230
1
100
AcDbArc
50
38.556724834730744
51
95.126106272987386
0
LINE
5
276
100
AcDbEntity
8
0
100
AcDbLine
10
-363.40771400869971
20
60.104026898455459
30
0
11
-366.91771385890974
21
60.101576250899171
31
0
0
LINE
5
277
100
AcDbEntity
8
0
100
AcDbLine
10
-366.91771385890974
20
60.101576250899171
30
0
11
-366.91955184499312
21
62.734076734602986
31
0
0
LINE
5
278
100
AcDbEntity
8
0
100
AcDbLine
10
-366.04266513995981
20
63.612188762582122
30
0
11
-363.41016465625603
21
63.614026748665481
31
0
0
LINE
5
279
100
AcDbEntity
8
0
100
AcDbLine
10
-363.40893933331017
20
61.859028015653081
30
0
11
-366.91893918352025
21
61.856577368096794
31
0
0
ARC
5
280
100
AcDbEntity
8
0
100
AcDbCircle
10
-366.14746648129142
20
62.83995630353003
30
0
40
0.77931083738803852
210
0
220
0
230
1
100
AcDbArc
50
82.271383522916551
51
187.80862203153407
0
LINE
5
281
100
AcDbEntity
8
0
100
AcDbLine
10
-363.41138997920183
20
65.369025481677895
30
0
11
-366.92138982941185
21
65.366574834121607
31
0
0
LINE
5
282
100
AcDbEntity
8
0
100
AcDbLine
10
-366.92138982941185
20
65.366574834121593
30
0
11
-366.9232278154953
21
67.999075317825415
31
0
0
LINE
5
283
100
AcDbEntity
8
0
100
AcDbLine
10
-366.04634111046198
20
68.877187345804543
30
0
11
-363.41384062675814
21
68.879025331887917
31
0
0
LINE
5
284
100
AcDbEntity
8
0
100
AcDbLine
10
-363.41261530381234
20
67.124026598875503
30
0
11
-366.92261515402237
21
67.121575951319215
31
0
0
ARC
5
285
100
AcDbEntity
8
0
100
AcDbCircle
10
-366.15114245179359
20
68.104954886752452
30
0
40
0.77931083738803852
210
0
220
0
230
1
100
AcDbArc
50
82.271383522912473
51
187.80862203153299
0
LINE
5
286
100
AcDbEntity
8
0
100
AcDbLine
10
-361.66170098117419
20
72.975248493257766
30
0
11
-366.92669956439664
21
72.97157252275565
31
0
0
LINE
5
287
100
AcDbEntity
8
0
100
AcDbLine
10
-366.92669956439664
20
72.97157252275565
30
0
11
-366.92772066740639
21
74.434072261661044
31
0
0
LINE
5
288
100
AcDbEntity
8
0
100
AcDbLine
10
-366.05083396237313
20
75.312184289640172
30
0
11
-364.29583284517548
21
75.313409614250617
31
0
0
LINE
5
289
100
AcDbEntity
8
0
100
AcDbLine
10
-363.41772081719631
20
74.436522909217345
30
0
11
-363.41669971418662
21
72.974023170311938
31
0
0
ARC
5
290
100
AcDbEntity
8
0
100
AcDbCircle
10
-366.15563530536929
20
74.539954214773303
30
0
40
0.77931083738803852
210
0
220
0
230
1
100
AcDbArc
50
82.271383522916622
51
187.80862203153407
0
ARC
5
291
100
AcDbEntity
8
0
100
AcDbCircle
10
-364.18995327791311
20
74.541326634734148
30
0
40
0.77931083738803852
210
0
220
0
230
1
100
AcDbArc
50
-7.7286258117521687
51
97.808619527053523
0
LINE
5
292
100
AcDbEntity
8
0
100
AcDbLine
10
-368.68445527570179
20
76.919096733272937
30
0
11
-364.29695605898559
21
76.922160042302153
31
0
0
ARC
5
293
100
AcDbEntity
8
0
100
AcDbCircle
10
-364.19215471598937
20
77.694390117169021
30
0
40
0.77931083738803852
210
0
220
0
230
1
100
AcDbArc
50
-97.728607825660376
51
7.808606549923141
0
LINE
5
294
100
AcDbEntity
8
0
100
AcDbLine
10
-361.66588750401354
20
78.97149813802551
30
0
11
-361.66629594721496
21
79.556500894609911
31
0
0
LINE
5
295
100
AcDbEntity
8
0
100
AcDbLine
10
-361.66629594721491
20
79.556500894609925
30
0
11
-366.93251985338321
21
81.30782365712021
31
0
0
LINE
5
296
100
AcDbEntity
8
0
100
AcDbLine
10
-366.93088608723593
20
78.967822167523394
30
0
11
-363.42170312009955
21
80.140273559878082
31
0
0
ENDSEC
0
SECTION
2
OBJECTS
0
DICTIONARY
5
C
100
AcDbDictionary
3
ACAD_GROUP
350
D
3
ACAD_MLINESTYLE
350
17
0
DICTIONARY
5
D
100
AcDbDictionary
0
DICTIONARY
5
1A
330
C
100
AcDbDictionary
0
DICTIONARY
5
17
100
AcDbDictionary
0
ENDSEC
0
EOF
