0
SECTION
2
HEADER
9
$INSUNITS
70
4
9
$ACADVER
1
AC1014
9
$HANDSEED
5
FFFF
0
ENDSEC
0
SECTION
2
TABLES
0
TABLE
2
VPORT
5
8
100
AcDbSymbolTable
0
ENDTAB
0
TABLE
2
LTYPE
5
5
100
AcDbSymbolTable
0
LTYPE
5
14
100
AcDbSymbolTableRecord
100
AcDbLinetypeTableRecord
2
BYBLOCK
70
0
0
LTYPE
5
15
100
AcDbSymbolTableRecord
100
AcDbLinetypeTableRecord
2
BYLAYER
70
0
0
LTYPE
5
16
100
AcDbSymbolTableRecord
100
AcDbLinetypeTableRecord
2
DASHED
70
0
3
Dashed __ __ __ __ __ __ __ __ __ __ __ __ __ _
72
65
73
2
40
0.75
49
0.5
74
0
49
-0.25
74
0
0
ENDTAB
0
TABLE
2
LAYER
5
2
100
AcDbSymbolTable
70
3
0
LAYER
5
50
100
AcDbSymbolTableRecord
100
AcDbLayerTableRecord
2
1
70
0
62
7
6
DASHED
0
LAYER
5
51
100
AcDbSymbolTableRecord
100
AcDbLayerTableRecord
2
0
70
0
62
7
6
CONTINUOUS
0
ENDTAB
0
TABLE
2
STYLE
5
3
100
AcDbSymbolTable
70
1
0
STYLE
5
11
100
AcDbSymbolTableRecord
100
AcDbTextStyleTableRecord
2
STANDARD
70
0
0
ENDTAB
0
TABLE
2
VIEW
5
6
100
AcDbSymbolTable
70
0
0
ENDTAB
0
TABLE
2
UCS
5
7
100
AcDbSymbolTable
70
0
0
ENDTAB
0
TABLE
2
APPID
5
9
100
AcDbSymbolTable
70
2
0
APPID
5
12
100
AcDbSymbolTableRecord
100
AcDbRegAppTableRecord
2
ACAD
70
0
0
ENDTAB
0
TABLE
2
DIMSTYLE
5
A
100
AcDbSymbolTable
70
1
0
ENDTAB
0
TABLE
2
BLOCK_RECORD
5
1
100
AcDbSymbolTable
70
1
0
BLOCK_RECORD
5
1F
100
AcDbSymbolTableRecord
100
AcDbBlockTableRecord
2
*MODEL_SPACE
0
BLOCK_RECORD
5
1B
100
AcDbSymbolTableRecord
100
AcDbBlockTableRecord
2
*PAPER_SPACE
0
ENDTAB
0
ENDSEC
0
SECTION
2
BLOCKS
0
BLOCK
5
20
100
AcDbEntity
100
AcDbBlockBegin
2
*MODEL_SPACE
0
ENDBLK
5
21
100
AcDbEntity
100
AcDbBlockEnd
0
BLOCK
5
1C
100
AcDbEntity
100
AcDbBlockBegin
2
*PAPER_SPACE
0
ENDBLK
5
1D
100
AcDbEntity
100
AcDbBlockEnd
0
ENDSEC
0
SECTION
2
ENTITIES
0
CIRCLE
5
100
100
AcDbEntity
8
0
100
AcDbCircle
10
-977.47464789774199
20
-2057.6239797333437
30
0
40
1.4999999999999858
210
2.1895288505075267e-47
220
-2.4651903288156619e-32
230
1
0
CIRCLE
5
101
100
AcDbEntity
8
0
100
AcDbCircle
10
-977.47464789774199
20
-2164.6239797333437
30
0
40
1.4999999999999858
210
2.1895288505075267e-47
220
-2.4651903288156619e-32
230
1
0
CIRCLE
5
102
100
AcDbEntity
8
0
100
AcDbCircle
10
-977.47464789774199
20
-2198.6239797333433
30
0
40
1.4999999999999858
210
2.1895288505075267e-47
220
-2.4651903288156619e-32
230
1
0
CIRCLE
5
103
100
AcDbEntity
8
0
100
AcDbCircle
10
-977.47464789774199
20
-2091.6239797333437
30
0
40
1.4999999999999858
210
2.1895288505075267e-47
220
-2.4651903288156619e-32
230
1
0
CIRCLE
5
104
100
AcDbEntity
8
0
100
AcDbCircle
10
-1182.474647897742
20
-2091.6239797333437
30
0
40
1.4999999999999858
210
2.1895288505075267e-47
220
-2.4651903288156619e-32
230
1
0
CIRCLE
5
105
100
AcDbEntity
8
0
100
AcDbCircle
10
-1182.474647897742
20
-2198.6239797333437
30
0
40
1.4999999999999858
210
2.1895288505075267e-47
220
-2.4651903288156619e-32
230
1
0
CIRCLE
5
106
100
AcDbEntity
8
0
100
AcDbCircle
10
-1182.474647897742
20
-2057.6239797333442
30
0
40
1.4999999999999858
210
2.1895288505075267e-47
220
-2.4651903288156619e-32
230
1
0
CIRCLE
5
107
100
AcDbEntity
8
0
100
AcDbCircle
10
-1182.474647897742
20
-2164.6239797333437
30
0
40
1.4999999999999858
210
2.1895288505075267e-47
220
-2.4651903288156619e-32
230
1
0
LWPOLYLINE
5
108
100
AcDbEntity
8
0
100
AcDbPolyline
90
20
70
1
43
0.0
10
-1189.9746478977422
20
-2208.6239797333437
42
0.4142135623731783
10
-1187.9746478977422
20
-2210.6239797333437
10
-1115.1484959236332
20
-2210.6239797333442
42
0.19626156828141142
10
-1111.4742613094584
20
-2209.1239797333437
42
-0.19626156828136204
10
-1107.8000266952836
20
-2207.6239797333437
10
-1047.1492691002009
20
-2207.6239797333433
42
-0.19626156828134234
10
-1043.4750344860263
20
-2209.1239797333437
42
0.19626156828141136
10
-1039.8007998718515
20
-2210.6239797333437
10
-971.97464789774187
20
-2210.6239797333437
42
0.4142135623730534
10
-969.97464789774176
20
-2208.6239797333433
10
-969.97464789774199
20
-2047.6239797333437
42
0.4142135623730534
10
-971.97464789774187
20
-2045.6239797333437
10
-1039.8007998718515
20
-2045.6239797333437
42
0.19626156828134739
10
-1043.4750344860258
20
-2047.123979733344
42
-0.19626156828142605
10
-1047.1492691002009
20
-2048.6239797333442
10
-1107.8000266952836
20
-2048.6239797333437
42
-0.19626156828141139
10
-1111.4742613094584
20
-2047.123979733344
42
0.19626156828136201
10
-1115.1484959236332
20
-2045.6239797333435
10
-1187.9746478977422
20
-2045.6239797333442
42
0.4142135623731783
10
-1189.974647897742
20
-2047.623979733344
0
CIRCLE
5
109
100
AcDbEntity
8
0
100
AcDbCircle
10
-1165.9746478977422
20
-2128.1239797333442
30
0
40
1.4999999999999858
210
2.7369110631344083e-47
220
-2.4651903288156619e-32
230
1
0
CIRCLE
5
110
100
AcDbEntity
8
0
100
AcDbCircle
10
-1079.974647897742
20
-2128.1239797333437
30
0
40
1.4999999999999858
210
2.7369110631344083e-47
220
-2.4651903288156619e-32
230
1
0
CIRCLE
5
111
100
AcDbEntity
8
0
100
AcDbCircle
10
-993.97464789774233
20
-2128.1239797333437
30
0
40
1.4999999999999858
210
2.7369110631344083e-47
220
-2.4651903288156619e-32
230
1
0
LINE
5
112
100
AcDbEntity
8
1
100
AcDbLine
10
-1052.2487877763087
20
-2051.6237138919169
30
0
11
-1052.2490283314164
21
-2113.856212353
31
0
0
LINE
5
113
100
AcDbEntity
8
1
100
AcDbLine
10
-1052.2490283314164
20
-2113.856212353
30
0
11
-983.47486526033947
21
-2113.8564781944274
31
0
0
LINE
5
114
100
AcDbEntity
8
1
100
AcDbLine
10
-983.47486526033947
20
-2113.8564781944274
30
0
11
-983.47462470523169
21
-2051.6239797333437
31
0
0
LINE
5
115
100
AcDbEntity
8
1
100
AcDbLine
10
-983.47462470523169
20
-2051.6239797333437
30
0
11
-1052.2487877763087
21
-2051.6237138919169
31
0
0
LINE
5
116
100
AcDbEntity
8
0
100
AcDbLine
10
-986.3950220409082
20
-2052.5014685466949
30
0
11
-986.39502769409364
21
-2053.9639685675461
31
0
0
LINE
5
117
100
AcDbEntity
8
0
100
AcDbLine
10
-989.32002788480656
20
-2053.9639572611745
30
0
11
-989.32002223162112
21
-2052.5014572403238
31
0
0
LINE
5
118
100
AcDbEntity
8
0
100
AcDbLine
10
-989.32002223162112
20
-2052.5014572403238
30
0
11
-984.05502176912842
21
-2052.5014775917925
31
0
0
LINE
5
119
100
AcDbEntity
8
0
100
AcDbLine
10
-984.05502176912842
20
-2052.5014775917925
30
0
11
-984.05502742231397
21
-2053.9639776126432
31
0
0
ARC
5
120
100
AcDbEntity
8
0
100
AcDbCircle
10
-987.85752778945016
20
-2053.9639629143599
30
0
40
1.4625000953674316
210
0
220
0
230
1
100
AcDbArc
50
179.99977921076757
51
359.99978103244138
0
ARC
5
121
100
AcDbEntity
8
0
100
AcDbCircle
10
-985.22502755820369
20
-2053.9639730900944
30
0
40
1.1700000613927841
210
0
220
0
230
1
100
AcDbArc
50
179.99977921076757
51
359.99978103244138
0
LINE
5
122
100
AcDbEntity
8
0
100
AcDbLine
10
-986.39503843514649
20
-2056.7427187785252
30
0
11
-986.39504521897027
21
-2058.4977191313719
31
0
0
LINE
5
123
100
AcDbEntity
8
0
100
AcDbLine
10
-987.56504957938432
20
-2059.6677144466908
30
0
11
-987.85754983687423
21
-2059.6677133160524
31
0
0
LINE
5
124
100
AcDbEntity
8
0
100
AcDbLine
10
-987.85753853050301
20
-2056.7427131253398
30
0
11
-986.39503843514649
21
-2056.7427187785252
31
0
0
ARC
5
125
100
AcDbEntity
8
0
100
AcDbCircle
10
-987.42459023457673
20
-2058.6381705169238
30
0
40
1.0390811413526535
210
0
220
0
230
1
100
AcDbArc
50
-97.768841295882879
51
7.7683972127156498
0
ARC
5
126
100
AcDbEntity
8
0
100
AcDbCircle
10
-987.85754418368856
20
-2058.2052132206964
30
0
40
1.4625000953674316
210
0
220
0
230
1
100
AcDbArc
50
89.999783536366181
51
269.99977852741301
0
ARC
5
127
100
AcDbEntity
8
0
100
AcDbCircle
10
-986.11413536601901
20
-2058.8018088097392
30
0
40
2.078162282705307
210
0
220
0
230
1
100
AcDbArc
50
-7.768835148958682
51
97.768399717207132
0
LINE
5
128
100
AcDbEntity
8
0
100
AcDbLine
10
-989.32005671605452
20
-2061.4227080157134
30
0
11
-989.32005558541641
21
-2061.1302077582236
31
0
0
LINE
5
129
100
AcDbEntity
8
0
100
AcDbLine
10
-989.32005558541641
20
-2061.1302077582236
30
0
11
-989.02755532792651
21
-2061.1302088888615
31
0
0
LINE
5
130
100
AcDbEntity
8
0
100
AcDbLine
10
-989.02755532792651
20
-2061.1302088888615
30
0
11
-989.02755645856462
21
-2061.4227091463513
31
0
0
LINE
5
131
100
AcDbEntity
8
0
100
AcDbLine
10
-989.02755645856462
20
-2061.4227091463517
30
0
11
-989.32005671605452
21
-2061.4227080157134
31
0
0
LINE
5
132
100
AcDbEntity
8
0
100
AcDbLine
10
-989.32005671605452
20
-2061.4227080157134
30
0
11
-990.4900548579642
21
-2060.983953106931
31
0
0
LINE
5
133
100
AcDbEntity
8
0
100
AcDbLine
10
-987.85757866811923
20
-2067.1264633255337
30
0
11
-987.2725730960002
21
-2065.6639654914507
31
0
0
ARC
5
134
100
AcDbEntity
8
0
100
AcDbCircle
10
-986.55975432205776
20
-2065.9023701366018
30
0
40
0.75162976980209339
210
0
220
0
230
1
100
AcDbArc
50
-4.1276339816493248
51
161.50731524041589
0
ARC
5
135
100
AcDbEntity
8
0
100
AcDbCircle
10
-988.52680112792768
20
-2066.0433692412748
30
0
40
2.7181166410446167
210
0
220
0
230
1
100
AcDbArc
50
-26.890099994557431
51
1.8320407484603389
0
ARC
5
136
100
AcDbEntity
8
0
100
AcDbCircle
10
-988.56907478942946
20
-2066.881444954111
30
0
40
0.75250290334224701
210
0
220
0
230
1
100
AcDbArc
50
176.38190996956871
51
340.99778494957047
0
ARC
5
137
100
AcDbEntity
8
0
100
AcDbCircle
10
-986.22308541603093
20
-2066.5660929994074
30
0
40
3.1085547804832454
210
0
220
0
230
1
100
AcDbArc
50
154.44653888402308
51
184.94330620737836
0
LINE
5
138
100
AcDbEntity
8
0
100
AcDbLine
10
-985.81008457430858
20
-2068.7352208680495
30
0
11
-985.81009135813235
21
-2070.4902212208958
31
0
0
LINE
5
139
100
AcDbEntity
8
0
100
AcDbLine
10
-984.0550867807616
20
-2069.3202281668518
30
0
11
-988.44258706683104
21
-2069.320211207295
31
0
0
LINE
5
140
100
AcDbEntity
8
0
100
AcDbLine
10
-989.32009063516375
20
-2070.1977073957596
30
0
11
-989.32009176580186
21
-2070.4902076532494
31
0
0
ARC
5
141
100
AcDbEntity
8
0
100
AcDbCircle
10
-988.5479317244467
20
-2070.0923687075847
30
0
40
0.77931083738803864
210
0
220
0
230
1
100
AcDbArc
50
82.231167355538204
51
187.76838173110991
0
LINE
5
142
100
AcDbEntity
8
0
100
AcDbLine
10
-989.32009741898753
20
-2071.9527077486059
30
0
11
-985.81009701131802
21
-2071.9527213162523
31
0
0
LINE
5
143
100
AcDbEntity
8
0
100
AcDbLine
10
-984.34759635064006
20
-2071.8064762446465
30
0
11
-984.05509639117338
21
-2071.8064773752835
31
0
0
LINE
5
144
100
AcDbEntity
8
0
100
AcDbLine
10
-984.05509639117349
20
-2071.8064773752835
30
0
11
-984.05509752181615
21
-2072.0989788248662
31
0
0
LINE
5
145
100
AcDbEntity
8
0
100
AcDbLine
10
-984.05509752181615
20
-2072.0989788248662
30
0
11
-984.34759748128283
21
-2072.0989776942292
31
0
0
LINE
5
146
100
AcDbEntity
8
0
100
AcDbLine
10
-984.34759748128283
20
-2072.0989776942292
30
0
11
-984.34759635064029
21
-2071.8064762446465
31
0
0
LINE
5
147
100
AcDbEntity
8
0
100
AcDbLine
10
-989.32011155194698
20
-2075.6089567949043
30
0
11
-989.32010702940397
21
-2074.4389581491309
31
0
0
LINE
5
148
100
AcDbEntity
8
0
100
AcDbLine
10
-988.44260346106216
20
-2073.56145957648
30
0
11
-986.68760340623885
21
-2073.5614663603023
31
0
0
LINE
5
149
100
AcDbEntity
8
0
100
AcDbLine
10
-985.81010662173458
20
-2074.4389717167769
30
0
11
-985.81011114427747
21
-2075.6089703625507
31
0
0
ARC
5
150
100
AcDbEntity
8
0
100
AcDbCircle
10
-988.54794811868248
20
-2074.3336182688627
30
0
40
0.77931083738803864
210
0
220
0
230
1
100
AcDbArc
50
82.231167355529919
51
187.76838173110991
0
ARC
5
151
100
AcDbEntity
8
0
100
AcDbCircle
10
-986.5822647180662
20
-2074.3336258670661
30
0
40
0.77931083738803864
210
0
220
0
230
1
100
AcDbArc
50
-7.7688351489518119
51
97.768399717209036
0
LINE
5
152
100
AcDbEntity
8
0
100
AcDbLine
10
-989.32011720513276
20
-2077.0714568902608
30
0
11
-984.05511674264005
21
-2077.0714772417296
31
0
0
LINE
5
153
100
AcDbEntity
8
0
100
AcDbLine
10
-985.81012584255848
20
-2079.4114701336403
30
0
11
-987.56511685228645
21
-2077.0714636740845
31
0
0
LINE
5
154
100
AcDbEntity
8
0
100
AcDbLine
10
-989.32012625022799
20
-2079.4114565659943
30
0
11
-986.83387076183885
21
-2078.0952168058457
31
0
0
LINE
5
155
100
AcDbEntity
8
0
100
AcDbLine
10
-987.2726494140021
20
-2085.4077155866712
30
0
11
-987.27264432612856
21
-2084.09146383192
31
0
0
LINE
5
156
100
AcDbEntity
8
0
100
AcDbLine
10
-989.32014434041832
20
-2084.0914559174607
30
0
11
-989.32014942829187
21
-2085.4077076722115
31
0
0
LINE
5
157
100
AcDbEntity
8
0
100
AcDbLine
10
-989.32014942829198
20
-2085.4077076722115
30
0
11
-986.68764919704563
21
-2085.4077178479461
31
0
0
LINE
5
158
100
AcDbEntity
8
0
100
AcDbLine
10
-985.81014562871269
20
-2084.530221659481
30
0
11
-985.81014110616047
21
-2083.3602206295218
31
0
0
ARC
5
159
100
AcDbEntity
8
0
100
AcDbCircle
10
-988.29639433327338
20
-2084.0914598746904
30
0
40
1.0237500816583633
210
0
220
0
230
1
100
AcDbArc
50
-0.00021896755857206488
51
179.99977921076757
0
ARC
5
160
100
AcDbEntity
8
0
100
AcDbCircle
10
-986.58230453942519
20
-2084.6355591555634
30
0
40
0.77931083738803864
210
0
220
0
230
1
100
AcDbArc
50
-97.768841295893353
51
7.768397212724687
0
LINE
5
161
100
AcDbEntity
8
0
100
AcDbLine
10
-987.8576629005828
20
-2088.9177140310899
30
0
11
-987.27265732846377
21
-2087.4552161970073
31
0
0
ARC
5
162
100
AcDbEntity
8
0
100
AcDbCircle
10
-986.55983855451211
20
-2087.6936184579727
30
0
40
0.75162976980209351
210
0
220
0
230
1
100
AcDbArc
50
-4.1276339816493248
51
161.50731524041589
0
ARC
5
163
100
AcDbEntity
8
0
100
AcDbCircle
10
-988.5268853603867
20
-2087.8346187547377
30
0
40
2.7181166410446163
210
0
220
0
230
1
100
AcDbArc
50
-26.890099994565979
51
1.8320407484507879
0
ARC
5
164
100
AcDbEntity
8
0
100
AcDbCircle
10
-988.56915902189303
20
-2088.6726956596672
30
0
40
0.75250290334224701
210
0
220
0
230
1
100
AcDbArc
50
176.38190996956808
51
340.99778494957047
0
ARC
5
165
100
AcDbEntity
8
0
100
AcDbCircle
10
-986.22316964849449
20
-2088.3573437049636
30
0
40
3.1085547804832458
210
0
220
0
230
1
100
AcDbArc
50
154.44653888402308
51
184.94330620737836
0
LINE
5
166
100
AcDbEntity
8
0
100
AcDbLine
10
-987.85767759885448
20
-2092.7202114179941
30
0
11
-987.27267202674466
21
-2091.2577159680968
31
0
0
ARC
5
167
100
AcDbEntity
8
0
100
AcDbCircle
10
-986.55985325279289
20
-2091.4961182290622
30
0
40
0.75162976980209351
210
0
220
0
230
1
100
AcDbArc
50
-4.1276339816493248
51
161.50731524041589
0
ARC
5
168
100
AcDbEntity
8
0
100
AcDbCircle
10
-988.52690005865838
20
-2091.6371161416419
30
0
40
2.7181166410446167
210
0
220
0
230
1
100
AcDbArc
50
-26.890099994557431
51
1.8320407484507879
0
ARC
5
169
100
AcDbEntity
8
0
100
AcDbCircle
10
-988.56917372017381
20
-2092.4751954307571
30
0
40
0.75250290334224701
210
0
220
0
230
1
100
AcDbArc
50
176.38190996956871
51
340.99778494957047
0
ARC
5
170
100
AcDbEntity
8
0
100
AcDbCircle
10
-986.22318434677538
20
-2092.1598434760535
30
0
40
3.1085547804832458
210
0
220
0
230
1
100
AcDbArc
50
154.44653888402308
51
184.94330620737836
0
LINE
5
171
100
AcDbEntity
8
0
100
AcDbLine
10
-989.32019408845588
20
-2096.961457710272
30
0
11
-989.32018843526112
21
-2095.4989552307297
31
0
0
LINE
5
172
100
AcDbEntity
8
0
100
AcDbLine
10
-988.44268486692829
20
-2094.6214590422651
30
0
11
-986.98018477157177
21
-2094.6214646954509
31
0
0
LINE
5
173
100
AcDbEntity
8
0
100
AcDbLine
10
-986.98019381667621
20
-2096.9614667553697
30
0
11
-987.56519373560945
21
-2096.9614644940957
31
0
0
LINE
5
174
100
AcDbEntity
8
0
100
AcDbLine
10
-987.56519373560945
20
-2096.9614644940957
30
0
11
-987.56518469050502
21
-2094.6214624341769
31
0
0
ARC
5
175
100
AcDbEntity
8
0
100
AcDbCircle
10
-988.54802952455771
20
-2095.3936201188335
30
0
40
0.77931083738803864
210
0
220
0
230
1
100
AcDbArc
50
82.231167355538204
51
187.76838173114302
0
ARC
5
176
100
AcDbEntity
8
0
100
AcDbCircle
10
-986.98018929412399
20
-2095.79146572541
30
0
40
1.1700000613927841
210
0
220
0
230
1
100
AcDbArc
50
-90.000221472586432
51
89.999783536362301
0
LINE
5
177
100
AcDbEntity
8
0
100
AcDbLine
10
-989.32020030695367
20
-2098.5702061462343
30
0
11
-985.81019989928427
21
-2098.5702197138808
31
0
0
LINE
5
178
100
AcDbEntity
8
0
100
AcDbLine
10
-985.81019989928404
20
-2098.5702197138808
30
0
11
-985.81021007501272
21
-2101.2027184550111
31
0
0
LINE
5
179
100
AcDbEntity
8
0
100
AcDbLine
10
-986.68771364334543
20
-2102.0802146434753
30
0
11
-989.3202138745919
21
-2102.0802044677412
31
0
0
LINE
5
180
100
AcDbEntity
8
0
100
AcDbLine
10
-989.32020709077278
20
-2100.3252053069878
30
0
11
-985.81020668310327
21
-2100.3252188746342
31
0
0
ARC
5
181
100
AcDbEntity
8
0
100
AcDbCircle
10
-986.58236898573432
20
-2101.3080583352789
30
0
40
0.77931083738803864
210
0
220
0
230
1
100
AcDbArc
50
-97.768841295893353
51
7.768397212724687
0
LINE
5
182
100
AcDbEntity
8
0
100
AcDbLine
10
-984.05522019593661
20
-2103.8352287483353
30
0
11
-989.32022065842932
21
-2103.8352083968666
31
0
0
LINE
5
183
100
AcDbEntity
8
0
100
AcDbLine
10
-989.32022065842943
20
-2103.8352083968666
30
0
11
-989.32022631162431
21
-2105.2977108764089
31
0
0
LINE
5
184
100
AcDbEntity
8
0
100
AcDbLine
10
-988.44272952711071
20
-2106.1752138486972
30
0
11
-986.6877294722874
21
-2106.17522063252
31
0
0
LINE
5
185
100
AcDbEntity
8
0
100
AcDbLine
10
-985.8102259039548
20
-2105.2977244440549
30
0
11
-985.81022025075993
21
-2103.8352219645126
31
0
0
ARC
5
186
100
AcDbEntity
8
0
100
AcDbCircle
10
-988.54806821527416
20
-2105.4030519577477
30
0
40
0.77931083738803864
210
0
220
0
230
1
100
AcDbArc
50
172.2311493694497
51
277.76839470824638
0
ARC
5
187
100
AcDbEntity
8
0
100
AcDbCircle
10
-986.58238481465798
20
-2105.4030595559511
30
0
40
0.77931083738803864
210
0
220
0
230
1
100
AcDbArc
50
-97.768841295880591
51
7.768397212724687
0
LINE
5
188
100
AcDbEntity
8
0
100
AcDbLine
10
-984.05523545953884
20
-2107.7839792442164
30
0
11
-988.44273574560827
21
-2107.7839622846595
31
0
0
ARC
5
189
100
AcDbEntity
8
0
100
AcDbCircle
10
-988.54808040321939
20
-2108.5561185928564
30
0
40
0.77931083738803864
210
0
220
0
230
1
100
AcDbArc
50
82.231167355538204
51
187.76838173110991
0
LINE
5
190
100
AcDbEntity
8
0
100
AcDbLine
10
-991.07524418933974
20
-2109.8314527192597
30
0
11
-991.07524645062517
21
-2110.4164556184255
31
0
0
LINE
5
191
100
AcDbEntity
8
0
100
AcDbLine
10
-991.07524645062517
20
-2110.4164556184255
30
0
11
-985.81025247392836
21
-2112.171475130649
31
0
0
LINE
5
192
100
AcDbEntity
8
0
100
AcDbLine
10
-985.81024342882392
20
-2109.8314730707302
30
0
11
-989.32024835904554
21
-2111.0014605330434
31
0
0
LINE
5
193
100
AcDbEntity
8
0
100
AcDbLine
10
-991.85502267506081
20
-2052.5014474414675
30
0
11
-997.12002313755352
21
-2052.5014270899987
31
0
0
LINE
5
194
100
AcDbEntity
8
0
100
AcDbLine
10
-997.12002313755352
20
-2052.5014270899983
30
0
11
-997.12002879073896
21
-2053.9639271108495
31
0
0
LINE
5
195
100
AcDbEntity
8
0
100
AcDbLine
10
-996.24253260227351
20
-2054.8414305301703
30
0
11
-994.48753224942709
21
-2054.8414373139944
31
0
0
LINE
5
196
100
AcDbEntity
8
0
100
AcDbLine
10
-993.61002808504611
20
-2053.9639406784968
30
0
11
-993.61002243186067
21
-2052.5014406576461
31
0
0
ARC
5
197
100
AcDbEntity
8
0
100
AcDbCircle
10
-996.34787129044969
20
-2054.0692719174767
30
0
40
0.77931083738803864
210
0
220
0
230
1
100
AcDbArc
50
172.2311493694485
51
277.76839470824638
0
ARC
5
198
100
AcDbEntity
8
0
100
AcDbCircle
10
-994.38218759181029
20
-2054.069279515681
30
0
40
0.77931083738803864
210
0
220
0
230
1
100
AcDbArc
50
-97.768841295880591
51
7.7683972126915561
0
LINE
5
199
100
AcDbEntity
8
0
100
AcDbLine
10
-995.95003799796928
20
-2056.3039317561647
30
0
11
-994.78003816010278
21
-2056.3039362787126
31
0
0
LINE
5
200
100
AcDbEntity
8
0
100
AcDbLine
10
-994.78004720519891
20
-2058.6439362524693
30
0
11
-995.95004704306552
21
-2058.6439317299214
31
0
0
ARC
5
201
100
AcDbEntity
8
0
100
AcDbCircle
10
-994.78004268265136
20
-2057.4739364146026
30
0
40
1.1700000613927839
210
0
220
0
230
1
100
AcDbArc
50
-90.000221472591988
51
89.999783536367858
0
ARC
5
202
100
AcDbEntity
8
0
100
AcDbCircle
10
-995.95004252051797
20
-2057.4739318920551
30
0
40
1.1700000613927839
210
0
220
0
230
1
100
AcDbArc
50
89.999783536362301
51
269.99977852741358
0
LINE
5
203
100
AcDbEntity
8
0
100
AcDbLine
10
-997.12005196879886
20
-2059.9601771739854
30
0
11
-993.61006030820363
21
-2062.3001910134126
31
0
0
LINE
5
204
100
AcDbEntity
8
0
100
AcDbLine
10
-993.61005126310602
20
-2059.9601907416327
30
0
11
-997.12006101389636
21
-2062.3001774457653
31
0
0
LINE
5
205
100
AcDbEntity
8
0
100
AcDbLine
10
-997.12007627749858
20
-2066.2489279416463
30
0
11
-992.73257599142903
21
-2066.2489449012032
31
0
0
LINE
5
206
100
AcDbEntity
8
0
100
AcDbLine
10
-991.85507920691532
20
-2067.126447873492
30
0
11
-991.85508033755343
21
-2067.4189481309813
31
0
0
LINE
5
207
100
AcDbEntity
8
0
100
AcDbLine
10
-993.61007331052974
20
-2065.6639409943141
30
0
11
-993.61008009435352
21
-2067.4189413471604
31
0
0
ARC
5
208
100
AcDbEntity
8
0
100
AcDbCircle
10
-992.6272373032516
20
-2067.0211032158741
30
0
40
0.77931083738803864
210
0
220
0
230
1
100
AcDbArc
50
-7.7688351489197522
51
97.768399717209036
0
LINE
5
209
100
AcDbEntity
8
0
100
AcDbLine
10
-997.1200853225937
20
-2068.5889276173798
30
0
11
-993.61008461690108
21
-2068.5889411850271
31
0
0
LINE
5
210
100
AcDbEntity
8
0
100
AcDbLine
10
-993.61008461690108
20
-2068.5889411850267
30
0
11
-993.61009140072485
21
-2070.3439415378734
31
0
0
LINE
5
211
100
AcDbEntity
8
0
100
AcDbLine
10
-993.61009140072474
20
-2070.3439415378734
30
0
11
-994.19509191570444
21
-2070.3439392765972
31
0
0
LINE
5
212
100
AcDbEntity
8
0
100
AcDbLine
10
-995.95009679109853
20
-2071.5139323306403
30
0
11
-994.78009695323192
21
-2071.5139368531882
31
0
0
LINE
5
213
100
AcDbEntity
8
0
100
AcDbLine
10
-994.78010599832703
20
-2073.8539365289212
30
0
11
-995.95010583619353
21
-2073.8539320063733
31
0
0
ARC
5
214
100
AcDbEntity
8
0
100
AcDbCircle
10
-994.78010147578402
20
-2072.6839378831473
30
0
40
1.1700000613927841
210
0
220
0
230
1
100
AcDbArc
50
-90.000221472591988
51
89.999783536367858
0
ARC
5
215
100
AcDbEntity
8
0
100
AcDbCircle
10
-995.95010131365075
20
-2072.6839333605999
30
0
40
1.1700000613927841
210
0
220
0
230
1
100
AcDbArc
50
89.999783536362301
51
269.99977852741358
0
LINE
5
216
100
AcDbEntity
8
0
100
AcDbLine
10
-997.12011189256725
20
-2075.4626783039739
30
0
11
-993.61011118687452
21
-2075.4626918716212
31
0
0
LINE
5
217
100
AcDbEntity
8
0
100
AcDbLine
10
-993.61011118687452
20
-2075.4626918716208
30
0
11
-993.6101168400603
21
-2076.9251919669778
31
0
0
LINE
5
218
100
AcDbEntity
8
0
100
AcDbLine
10
-994.48762100443946
20
-2077.8026881554401
30
0
11
-997.12012093766259
21
-2077.8026779797069
31
0
0
ARC
5
219
100
AcDbEntity
8
0
100
AcDbCircle
10
-994.38227634682835
20
-2077.0305318472433
30
0
40
0.77931083738803864
210
0
220
0
230
1
100
AcDbArc
50
-97.768841295885068
51
7.768397212724687
0
LINE
5
220
100
AcDbEntity
8
0
100
AcDbLine
10
-993.61012531984329
20
-2079.118943302105
30
0
11
-993.61013210366241
21
-2080.8739424628588
31
0
0
LINE
5
221
100
AcDbEntity
8
0
100
AcDbLine
10
-991.85512782431942
20
-2079.7039506009064
30
0
11
-996.24262870643531
21
-2079.7039336413472
31
0
0
LINE
5
222
100
AcDbEntity
8
0
100
AcDbLine
10
-997.12013167872169
20
-2080.5814298298142
30
0
11
-997.12013280935525
21
-2080.8739288952111
31
0
0
ARC
5
223
100
AcDbEntity
8
0
100
AcDbCircle
10
-996.34797336405563
20
-2080.4760923337299
30
0
40
0.77931083738803864
210
0
220
0
230
1
100
AcDbArc
50
82.231167355538204
51
187.76838173110991
0
LINE
5
224
100
AcDbEntity
8
0
100
AcDbLine
10
-997.70513784688717
20
-2082.0439276638949
30
0
11
-991.27014599557651
21
-2084.3839522136468
31
0
0
LINE
5
225
100
AcDbEntity
8
0
100
AcDbLine
10
-997.12015203018825
20
-2085.8464296962607
30
0
11
-993.61015132449552
21
-2085.846443263908
31
0
0
LINE
5
226
100
AcDbEntity
8
0
100
AcDbLine
10
-993.61015132449552
20
-2085.846443263908
30
0
11
-993.61015810832384
21
-2087.6014448088476
31
0
0
LINE
5
227
100
AcDbEntity
8
0
100
AcDbLine
10
-993.61015810832384
20
-2087.6014448088472
30
0
11
-994.19515862330354
21
-2087.601442547571
31
0
0
LINE
5
228
100
AcDbEntity
8
0
100
AcDbLine
10
-997.12017238166391
20
-2091.1114319468929
30
0
11
-997.12016672847824
21
-2089.648931851536
31
0
0
LINE
5
229
100
AcDbEntity
8
0
100
AcDbLine
10
-996.24266375618276
20
-2088.7714332788833
30
0
11
-994.78016366082625
21
-2088.771438932069
31
0
0
LINE
5
230
100
AcDbEntity
8
0
100
AcDbLine
10
-994.78017270593068
20
-2091.1114409919878
30
0
11
-995.3651720288176
21
-2091.1114387307161
31
0
0
LINE
5
231
100
AcDbEntity
8
0
100
AcDbLine
10
-995.3651720288176
20
-2091.1114387307161
30
0
11
-995.36516298371316
21
-2088.7714366707974
31
0
0
ARC
5
232
100
AcDbEntity
8
0
100
AcDbCircle
10
-996.34800841380309
20
-2089.5435919712659
30
0
40
0.77931083738803864
210
0
220
0
230
1
100
AcDbArc
50
82.231167355538204
51
187.76838173114302
0
ARC
5
233
100
AcDbEntity
8
0
100
AcDbCircle
10
-994.78016818337846
20
-2089.9414399620282
30
0
40
1.1700000613927841
210
0
220
0
230
1
100
AcDbArc
50
-90.000221472591988
51
89.999783536367858
0
LINE
5
234
100
AcDbEntity
8
0
100
AcDbLine
10
-995.07268646960847
20
-2094.913939632444
30
0
11
-995.07268138173504
21
-2093.5976878776933
31
0
0
LINE
5
235
100
AcDbEntity
8
0
100
AcDbLine
10
-997.12018199207137
20
-2093.5976799632313
30
0
11
-997.12018707994491
21
-2094.9139317179825
31
0
0
LINE
5
236
100
AcDbEntity
8
0
100
AcDbLine
10
-997.12018707994491
20
-2094.9139317179825
30
0
11
-994.48768714672167
21
-2094.9139418937157
31
0
0
LINE
5
237
100
AcDbEntity
8
0
100
AcDbLine
10
-993.61018298234262
20
-2094.0364457052528
30
0
11
-993.6101784597904
21
-2092.8664446752937
31
0
0
ARC
5
238
100
AcDbEntity
8
0
100
AcDbCircle
10
-996.09643168690309
20
-2093.5976839204623
30
0
40
1.0237500816583633
210
0
220
0
230
1
100
AcDbArc
50
-0.00021896755857206488
51
179.99977921076757
0
ARC
5
239
100
AcDbEntity
8
0
100
AcDbCircle
10
-994.38234248909225
20
-2094.1417808171473
30
0
40
0.77931083738803864
210
0
220
0
230
1
100
AcDbArc
50
-97.768841295885068
51
7.768397212724687
0
LINE
5
240
100
AcDbEntity
8
0
100
AcDbLine
10
-997.12019386376392
20
-2096.6689308787359
30
0
11
-993.6101931580713
21
-2096.6689444463836
31
0
0
LINE
5
241
100
AcDbEntity
8
0
100
AcDbLine
10
-993.61019315807107
20
-2096.6689444463832
30
0
11
-993.61019994189019
21
-2098.4239436071366
31
0
0
LINE
5
242
100
AcDbEntity
8
0
100
AcDbLine
10
-993.61019994189041
20
-2098.4239436071366
30
0
11
-994.19520045687011
21
-2098.4239413458608
31
0
0
LINE
5
243
100
AcDbEntity
8
0
100
AcDbLine
10
-997.12020630077791
20
-2099.8864325190316
30
0
11
-997.12020517013525
21
-2099.5939310694489
31
0
0
LINE
5
244
100
AcDbEntity
8
0
100
AcDbLine
10
-997.12020517013525
20
-2099.5939310694489
30
0
11
-996.82770491264534
21
-2099.5939322000872
31
0
0
LINE
5
245
100
AcDbEntity
8
0
100
AcDbLine
10
-996.82770491264534
20
-2099.5939322000872
30
0
11
-996.82770604328789
21
-2099.8864336496699
31
0
0
LINE
5
246
100
AcDbEntity
8
0
100
AcDbLine
10
-996.82770604328812
20
-2099.8864336496699
30
0
11
-997.12020630077802
21
-2099.8864325190316
31
0
0
LINE
5
247
100
AcDbEntity
8
0
100
AcDbLine
10
-997.12020630077791
20
-2099.8864325190316
30
0
11
-998.29020444268053
21
-2099.4476758221099
31
0
0
LINE
5
248
100
AcDbEntity
8
0
100
AcDbLine
10
-1001.9950317057766
20
-2054.8414082943118
30
0
11
-1004.9200222860742
21
-2052.3551468854389
31
0
0
LINE
5
249
100
AcDbEntity
8
0
100
AcDbLine
10
-1004.9200222860742
20
-2052.3551468854389
30
0
11
-1004.9200335924455
21
-2055.2801470761519
31
0
0
ARC
5
250
100
AcDbEntity
8
0
100
AcDbCircle
10
-1000.8132667061843
20
-2054.1219253442591
30
0
40
1.1689662933349609
210
0
220
0
230
1
100
AcDbArc
50
-97.768841295890667
51
7.7683972127339569
0
ARC
5
251
100
AcDbEntity
8
0
100
AcDbCircle
10
-1001.1032420096625
20
-2053.7873292285954
30
0
40
1.4589405059814451
210
0
220
0
230
1
100
AcDbArc
50
-6.9520469770599087
51
79.006348180422762
0
ARC
5
252
100
AcDbEntity
8
0
100
AcDbCircle
10
-1001.0754698747994
20
-2054.109523137352
30
0
40
1.1752662807703018
210
0
220
0
230
1
100
AcDbArc
50
218.51650001592256
51
275.08588145419094
0
LINE
5
253
100
AcDbEntity
8
0
100
AcDbLine
10
-1004.9200477254096
20
-2058.9363973145432
30
0
11
-1001.4100560648144
21
-2061.2764111539705
31
0
0
LINE
5
254
100
AcDbEntity
8
0
100
AcDbLine
10
-1001.410047019717
20
-2058.936410882191
30
0
11
-1004.9200567705072
21
-2061.2763975863231
31
0
0
LINE
5
255
100
AcDbEntity
8
0
100
AcDbLine
10
-1000.8250708748893
20
-2064.932663057587
30
0
11
-999.65507669020838
21
-2066.3951676754909
31
0
0
LINE
5
256
100
AcDbEntity
8
0
100
AcDbLine
10
-999.65507669020838
20
-2066.3951676754909
30
0
11
-1004.9200765566546
21
-2066.3951473240245
31
0
0
LINE
5
257
100
AcDbEntity
8
0
100
AcDbLine
10
-1004.920070903469
20
-2064.9326472286675
30
0
11
-1004.9200822098403
21
-2067.8576474193806
31
0
0
LINE
5
258
100
AcDbEntity
8
0
100
AcDbLine
10
-1001.9950972827248
20
-2071.8064080295403
30
0
11
-1004.9200878630259
21
-2069.3201475147371
31
0
0
LINE
5
259
100
AcDbEntity
8
0
100
AcDbLine
10
-1004.9200878630261
20
-2069.3201475147371
30
0
11
-1004.9200991694021
21
-2072.245148897543
31
0
0
ARC
5
260
100
AcDbEntity
8
0
100
AcDbCircle
10
-1000.8133322831368
20
-2071.0869261225689
30
0
40
1.1689662933349609
210
0
220
0
230
1
100
AcDbArc
50
-97.768841295890667
51
7.7683972127339569
0
ARC
5
261
100
AcDbEntity
8
0
100
AcDbCircle
10
-1001.103307586613
20
-2070.7523295598703
30
0
40
1.4589405059814451
210
0
220
0
230
1
100
AcDbArc
50
-6.9520469770599087
51
79.006348180427153
0
ARC
5
262
100
AcDbEntity
8
0
100
AcDbCircle
10
-1001.0755354517511
20
-2071.0745237666501
30
0
40
1.1752662807703018
210
0
220
0
230
1
100
AcDbArc
50
218.51650001592256
51
275.08588145419094
0
LINE
5
263
100
AcDbEntity
8
0
100
AcDbLine
10
-1004.9201144329949
20
-2076.1938970092383
30
0
11
-1001.4101137273021
21
-2076.1939105768861
31
0
0
LINE
5
264
100
AcDbEntity
8
0
100
AcDbLine
10
-1001.4101137273021
20
-2076.1939105768861
30
0
11
-1001.4101239030401
21
-2078.8264117022022
31
0
0
LINE
5
265
100
AcDbEntity
8
0
100
AcDbLine
10
-1002.2876280674193
20
-2079.7039078906646
30
0
11
-1004.9201280006424
21
-2079.7038977149314
31
0
0
LINE
5
266
100
AcDbEntity
8
0
100
AcDbLine
10
-1004.9201212168232
20
-2077.948898554178
30
0
11
-1001.4101205111306
21
-2077.9489121218253
31
0
0
ARC
5
267
100
AcDbEntity
8
0
100
AcDbCircle
10
-1002.1822834097989
20
-2078.931749198282
30
0
40
0.77931083738803864
210
0
220
0
230
1
100
AcDbArc
50
-97.768841295893353
51
7.7683972127258158
0
LINE
5
268
100
AcDbEntity
8
0
100
AcDbLine
10
-1004.9201347844615
20
-2081.4588968756848
30
0
11
-1001.4101340787688
21
-2081.4589104433326
31
0
0
LINE
5
269
100
AcDbEntity
8
0
100
AcDbLine
10
-1001.4101340787687
20
-2081.4589104433326
30
0
11
-1001.4101442545066
21
-2084.0914115686483
31
0
0
LINE
5
270
100
AcDbEntity
8
0
100
AcDbLine
10
-1002.2876484188857
20
-2084.9689077571106
30
0
11
-1004.920148352109
21
-2084.9688975813774
31
0
0
LINE
5
271
100
AcDbEntity
8
0
100
AcDbLine
10
-1004.9201415682898
20
-2083.213898420624
30
0
11
-1001.410140862597
21
-2083.2139119882718
31
0
0
ARC
5
272
100
AcDbEntity
8
0
100
AcDbCircle
10
-1002.1823037612654
20
-2084.196749064728
30
0
40
0.77931083738803864
210
0
220
0
230
1
100
AcDbArc
50
-97.768841295885068
51
7.768397212724687
0
LINE
5
273
100
AcDbEntity
8
0
100
AcDbLine
10
-1006.6751633417767
20
-2089.0638896340452
30
0
11
-1001.4101634753306
21
-2089.0639099855121
31
0
0
LINE
5
274
100
AcDbEntity
8
0
100
AcDbLine
10
-1001.4101634753304
20
-2089.0639099855121
30
0
11
-1001.4101691285161
21
-2090.5264100808686
31
0
0
LINE
5
275
100
AcDbEntity
8
0
100
AcDbLine
10
-1002.2876732928953
20
-2091.4039062693309
30
0
11
-1004.0426736457416
21
-2091.4038994855073
31
0
0
LINE
5
276
100
AcDbEntity
8
0
100
AcDbLine
10
-1004.9201698342088
20
-2090.5263965132208
30
0
11
-1004.9201641810231
21
-2089.0638964178643
31
0
0
ARC
5
277
100
AcDbEntity
8
0
100
AcDbCircle
10
-1002.1823286352843
20
-2090.6317499611341
30
0
40
0.77931083738803864
210
0
220
0
230
1
100
AcDbArc
50
-97.768841295885068
51
7.768397212724687
0
ARC
5
278
100
AcDbEntity
8
0
100
AcDbCircle
10
-1004.1480111418308
20
-2090.6317423629339
30
0
40
0.77931083738803864
210
0
220
0
230
1
100
AcDbArc
50
172.23114936948164
51
277.76839470824183
0
LINE
5
279
100
AcDbEntity
8
0
100
AcDbLine
10
-999.65517957817906
20
-2093.0126672652118
30
0
11
-1004.0426798642486
21
-2093.0126503056549
31
0
0
ARC
5
280
100
AcDbEntity
8
0
100
AcDbCircle
10
-1004.1480233297669
20
-2093.7848066138567
30
0
40
0.77931083738803864
210
0
220
0
230
1
100
AcDbArc
50
82.231167355529919
51
187.76838173110991
0
LINE
5
281
100
AcDbEntity
8
0
100
AcDbLine
10
-1006.6751865198407
20
-2095.0601407402628
30
0
11
-1006.6751887811261
21
-2095.6451436394282
31
0
0
LINE
5
282
100
AcDbEntity
8
0
100
AcDbLine
10
-1006.6751887811261
20
-2095.6451436394282
30
0
11
-1001.4101956984989
21
-2097.400163151648
31
0
0
LINE
5
283
100
AcDbEntity
8
0
100
AcDbLine
10
-1001.4101866533945
20
-2095.0601610917292
30
0
11
-1004.9201918816393
21
-2096.2301485540415
31
0
0
ENDSEC
0
SECTION
2
OBJECTS
0
DICTIONARY
5
C
100
AcDbDictionary
3
ACAD_GROUP
350
D
3
ACAD_MLINESTYLE
350
17
0
DICTIONARY
5
D
100
AcDbDictionary
0
DICTIONARY
5
1A
330
C
100
AcDbDictionary
0
DICTIONARY
5
17
100
AcDbDictionary
0
ENDSEC
0
EOF
