0
SECTION
2
HEADER
9
$INSUNITS
70
4
9
$ACADVER
1
AC1014
9
$HANDSEED
5
FFFF
0
ENDSEC
0
SECTION
2
TABLES
0
TABLE
2
VPORT
5
8
100
AcDbSymbolTable
0
ENDTAB
0
TABLE
2
LTYPE
5
5
100
AcDbSymbolTable
0
LTYPE
5
14
100
AcDbSymbolTableRecord
100
AcDbLinetypeTableRecord
2
BYBLOCK
70
0
0
LTYPE
5
15
100
AcDbSymbolTableRecord
100
AcDbLinetypeTableRecord
2
BYLAYER
70
0
0
LTYPE
5
16
100
AcDbSymbolTableRecord
100
AcDbLinetypeTableRecord
2
DASHED
70
0
3
Dashed __ __ __ __ __ __ __ __ __ __ __ __ __ _
72
65
73
2
40
0.75
49
0.5
74
0
49
-0.25
74
0
0
ENDTAB
0
TABLE
2
LAYER
5
2
100
AcDbSymbolTable
70
3
0
LAYER
5
50
100
AcDbSymbolTableRecord
100
AcDbLayerTableRecord
2
1
70
0
62
7
6
DASHED
0
LAYER
5
51
100
AcDbSymbolTableRecord
100
AcDbLayerTableRecord
2
0
70
0
62
7
6
CONTINUOUS
0
ENDTAB
0
TABLE
2
STYLE
5
3
100
AcDbSymbolTable
70
1
0
STYLE
5
11
100
AcDbSymbolTableRecord
100
AcDbTextStyleTableRecord
2
STANDARD
70
0
0
ENDTAB
0
TABLE
2
VIEW
5
6
100
AcDbSymbolTable
70
0
0
ENDTAB
0
TABLE
2
UCS
5
7
100
AcDbSymbolTable
70
0
0
ENDTAB
0
TABLE
2
APPID
5
9
100
AcDbSymbolTable
70
2
0
APPID
5
12
100
AcDbSymbolTableRecord
100
AcDbRegAppTableRecord
2
ACAD
70
0
0
ENDTAB
0
TABLE
2
DIMSTYLE
5
A
100
AcDbSymbolTable
70
1
0
ENDTAB
0
TABLE
2
BLOCK_RECORD
5
1
100
AcDbSymbolTable
70
1
0
BLOCK_RECORD
5
1F
100
AcDbSymbolTableRecord
100
AcDbBlockTableRecord
2
*MODEL_SPACE
0
BLOCK_RECORD
5
1B
100
AcDbSymbolTableRecord
100
AcDbBlockTableRecord
2
*PAPER_SPACE
0
ENDTAB
0
ENDSEC
0
SECTION
2
BLOCKS
0
BLOCK
5
20
100
AcDbEntity
100
AcDbBlockBegin
2
*MODEL_SPACE
0
ENDBLK
5
21
100
AcDbEntity
100
AcDbBlockEnd
0
BLOCK
5
1C
100
AcDbEntity
100
AcDbBlockBegin
2
*PAPER_SPACE
0
ENDBLK
5
1D
100
AcDbEntity
100
AcDbBlockEnd
0
ENDSEC
0
SECTION
2
ENTITIES
0
CIRCLE
5
100
100
AcDbEntity
8
0
100
AcDbCircle
10
-983.47464789774199
20
-2057.6239797333437
30
0
40
1.4999999999999858
210
2.1895288505075267e-47
220
-2.4651903288156619e-32
230
1
0
CIRCLE
5
101
100
AcDbEntity
8
0
100
AcDbCircle
10
-983.47464789774199
20
-2164.6239797333437
30
0
40
1.4999999999999858
210
2.1895288505075267e-47
220
-2.4651903288156619e-32
230
1
0
CIRCLE
5
102
100
AcDbEntity
8
0
100
AcDbCircle
10
-983.47464789774199
20
-2198.6239797333433
30
0
40
1.4999999999999858
210
2.1895288505075267e-47
220
-2.4651903288156619e-32
230
1
0
CIRCLE
5
103
100
AcDbEntity
8
0
100
AcDbCircle
10
-983.47464789774199
20
-2091.6239797333437
30
0
40
1.4999999999999858
210
2.1895288505075267e-47
220
-2.4651903288156619e-32
230
1
0
LWPOLYLINE
5
104
100
AcDbEntity
8
0
100
AcDbPolyline
90
20
70
1
43
0.0
10
-1101.8000266952836
20
-2207.6239797333442
10
-1053.1492691002009
20
-2207.6239797333433
42
-0.19626156828134234
10
-1049.4750344860263
20
-2209.1239797333437
42
0.19626156828141136
10
-1045.8007998718515
20
-2210.6239797333437
10
-977.97464789774176
20
-2210.6239797333437
42
0.4142135623730534
10
-975.97464789774165
20
-2208.6239797333433
10
-975.97464789774199
20
-2047.6239797333437
42
0.4142135623730534
10
-977.97464789774176
20
-2045.6239797333437
10
-1045.8007998718515
20
-2045.6239797333437
42
0.19626156828134739
10
-1049.4750344860258
20
-2047.123979733344
42
-0.19626156828142605
10
-1053.1492691002009
20
-2048.6239797333442
10
-1101.8000266952836
20
-2048.6239797333437
42
-0.19626156828141139
10
-1105.4742613094584
20
-2047.123979733344
42
0.19626156828136201
10
-1109.1484959236332
20
-2045.6239797333435
10
-1181.9746478977422
20
-2045.6239797333442
42
0.4142135623731783
10
-1183.974647897742
20
-2047.623979733344
10
-1183.974647897742
20
-2208.6239797333437
42
0.4142135623731783
10
-1181.9746478977422
20
-2210.6239797333437
10
-1109.1484959236332
20
-2210.6239797333442
42
0.19626156828141142
10
-1105.4742613094581
20
-2209.1239797333442
42
-0.19626156828136204
0
CIRCLE
5
105
100
AcDbEntity
8
0
100
AcDbCircle
10
-999.97464789774222
20
-2128.1239797333437
30
0
40
1.4999999999999858
210
2.7369110631344083e-47
220
-2.4651903288156619e-32
230
1
0
LINE
5
106
100
AcDbEntity
8
1
100
AcDbLine
10
-1058.2487877762815
20
-2051.623713891604
30
0
11
-1058.249028331672
21
-2113.8562123526876
31
0
0
LINE
5
107
100
AcDbEntity
8
1
100
AcDbLine
10
-1058.249028331672
20
-2113.8562123526876
30
0
11
-989.47486526059504
21
-2113.8564781944274
31
0
0
LINE
5
108
100
AcDbEntity
8
1
100
AcDbLine
10
-989.47486526059504
20
-2113.8564781944274
30
0
11
-989.47462470520441
21
-2051.6239797333437
31
0
0
LINE
5
109
100
AcDbEntity
8
1
100
AcDbLine
10
-989.47462470520441
20
-2051.6239797333437
30
0
11
-1058.2487877762815
21
-2051.623713891604
31
0
0
CIRCLE
5
110
100
AcDbEntity
8
0
100
AcDbCircle
10
-1159.9746478977422
20
-2128.1239797333442
30
0
40
1.4999999999999858
210
2.7369110631344083e-47
220
-2.4651903288156619e-32
230
1
0
CIRCLE
5
111
100
AcDbEntity
8
0
100
AcDbCircle
10
-1176.474647897742
20
-2164.6239797333437
30
0
40
1.4999999999999858
210
2.1895288505075267e-47
220
-2.4651903288156619e-32
230
1
0
CIRCLE
5
112
100
AcDbEntity
8
0
100
AcDbCircle
10
-1176.474647897742
20
-2057.6239797333442
30
0
40
1.4999999999999858
210
2.1895288505075267e-47
220
-2.4651903288156619e-32
230
1
0
CIRCLE
5
113
100
AcDbEntity
8
0
100
AcDbCircle
10
-1176.474647897742
20
-2198.6239797333437
30
0
40
1.4999999999999858
210
2.1895288505075267e-47
220
-2.4651903288156619e-32
230
1
0
CIRCLE
5
114
100
AcDbEntity
8
0
100
AcDbCircle
10
-1176.474647897742
20
-2091.6239797333437
30
0
40
1.4999999999999858
210
2.1895288505075267e-47
220
-2.4651903288156619e-32
230
1
0
CIRCLE
5
115
100
AcDbEntity
8
0
100
AcDbCircle
10
-1079.974647897742
20
-2128.1239797333437
30
0
40
1.4999999999999858
210
2.7369110631344083e-47
220
-2.4651903288156619e-32
230
1
0
LINE
5
116
100
AcDbEntity
8
0
100
AcDbLine
10
-992.39502204088478
20
-2052.5014685466813
30
0
11
-992.39502769407682
21
-2053.9639685675324
31
0
0
LINE
5
117
100
AcDbEntity
8
0
100
AcDbLine
10
-995.32002788478985
20
-2053.9639572611477
30
0
11
-995.32002223159793
21
-2052.501457240297
31
0
0
LINE
5
118
100
AcDbEntity
8
0
100
AcDbLine
10
-995.32002223159782
20
-2052.501457240297
30
0
11
-990.05502176910511
21
-2052.5014775917898
31
0
0
LINE
5
119
100
AcDbEntity
8
0
100
AcDbLine
10
-990.05502176910511
20
-2052.5014775917898
30
0
11
-990.05502742229714
21
-2053.9639776126405
31
0
0
ARC
5
120
100
AcDbEntity
8
0
100
AcDbCircle
10
-993.85752778943345
20
-2053.9639629143398
30
0
40
1.4625000953674316
210
0
220
0
230
1
100
AcDbArc
50
179.99977921076757
51
359.99978103244138
0
ARC
5
121
100
AcDbEntity
8
0
100
AcDbCircle
10
-991.22502755818698
20
-2053.9639730900863
30
0
40
1.1700000613927841
210
0
220
0
230
1
100
AcDbArc
50
179.99977921076757
51
359.99978103244138
0
LINE
5
122
100
AcDbEntity
8
0
100
AcDbLine
10
-992.3950384351424
20
-2056.742718778512
30
0
11
-992.39504521897413
21
-2058.4977191313583
31
0
0
LINE
5
123
100
AcDbEntity
8
0
100
AcDbLine
10
-993.56504957939364
20
-2059.6677144466721
30
0
11
-993.85754983688355
21
-2059.6677133160329
31
0
0
LINE
5
124
100
AcDbEntity
8
0
100
AcDbLine
10
-993.85753853049891
20
-2056.7427131253198
30
0
11
-992.3950384351424
21
-2056.742718778512
31
0
0
ARC
5
125
100
AcDbEntity
8
0
100
AcDbCircle
10
-993.42459023458116
20
-2058.6381705169056
30
0
40
1.0390811413526535
210
0
220
0
230
1
100
AcDbArc
50
-97.768841296150512
51
7.7683972124621361
0
ARC
5
126
100
AcDbEntity
8
0
100
AcDbCircle
10
-993.85754418369118
20
-2058.2052132206759
30
0
40
1.4625000953674316
210
0
220
0
230
1
100
AcDbArc
50
89.999783536107856
51
269.99977852715472
0
ARC
5
127
100
AcDbEntity
8
0
100
AcDbCircle
10
-992.11413536602424
20
-2058.8018088097274
30
0
40
2.078162282705307
210
0
220
0
230
1
100
AcDbArc
50
-7.768835149211804
51
97.768399716949077
0
LINE
5
128
100
AcDbEntity
8
0
100
AcDbLine
10
-993.27256461624825
20
-2063.4702153483986
30
0
11
-993.272559528378
21
-2062.1539659778336
31
0
0
LINE
5
129
100
AcDbEntity
8
0
100
AcDbLine
10
-995.32005954266776
20
-2062.1539580633648
30
0
11
-995.32006463053801
21
-2063.4702074339298
31
0
0
LINE
5
130
100
AcDbEntity
8
0
100
AcDbLine
10
-995.32006463053813
20
-2063.4702074339302
30
0
11
-992.68756439929177
21
-2063.4702176096766
31
0
0
LINE
5
131
100
AcDbEntity
8
0
100
AcDbLine
10
-991.81006083095508
20
-2062.5927214212156
30
0
11
-991.81005630840218
21
-2061.4227215833489
31
0
0
ARC
5
132
100
AcDbEntity
8
0
100
AcDbCircle
10
-994.29630953552294
20
-2062.1539620205995
30
0
40
1.0237500816583633
210
0
220
0
230
1
100
AcDbArc
50
-0.00021896755857206488
51
179.99977921076757
0
ARC
5
133
100
AcDbEntity
8
0
100
AcDbCircle
10
-992.58221974167259
20
-2062.6980601093869
30
0
40
0.77931083738803864
210
0
220
0
230
1
100
AcDbArc
50
-97.768841296141801
51
7.7683972124551248
0
LINE
5
134
100
AcDbEntity
8
0
100
AcDbLine
10
-995.32007197969176
20
-2065.3714585115681
30
0
11
-995.3200708490524
21
-2065.0789582540783
31
0
0
LINE
5
135
100
AcDbEntity
8
0
100
AcDbLine
10
-995.3200708490524
20
-2065.0789582540779
30
0
11
-995.02757059156249
21
-2065.0789593847176
31
0
0
LINE
5
136
100
AcDbEntity
8
0
100
AcDbLine
10
-995.02757059156249
20
-2065.0789593847176
30
0
11
-995.02757172220186
21
-2065.3714596422069
31
0
0
LINE
5
137
100
AcDbEntity
8
0
100
AcDbLine
10
-995.02757172220197
20
-2065.3714596422069
30
0
11
-995.32007197969187
21
-2065.3714585115677
31
0
0
LINE
5
138
100
AcDbEntity
8
0
100
AcDbLine
10
-995.32007197969176
20
-2065.3714585115681
30
0
11
-996.49007012160166
21
-2064.9327041988267
31
0
0
LINE
5
139
100
AcDbEntity
8
0
100
AcDbLine
10
-993.85759393178262
20
-2071.0752138213948
30
0
11
-993.27258835965699
21
-2069.6127159873149
31
0
0
ARC
5
140
100
AcDbEntity
8
0
100
AcDbCircle
10
-992.55976958571546
20
-2069.8511206324692
30
0
40
0.75162976980209351
210
0
220
0
230
1
100
AcDbArc
50
-4.1276339818931334
51
161.50731524013088
0
ARC
5
141
100
AcDbEntity
8
0
100
AcDbCircle
10
-994.52681639158618
20
-2069.9921197371327
30
0
40
2.7181166410446167
210
0
220
0
230
1
100
AcDbArc
50
-26.890099994816808
51
1.8320407481919239
0
ARC
5
142
100
AcDbEntity
8
0
100
AcDbCircle
10
-994.5690900530916
20
-2070.8301954499689
30
0
40
0.75250290334224701
210
0
220
0
230
1
100
AcDbArc
50
176.38190996932516
51
340.99778494928319
0
ARC
5
143
100
AcDbEntity
8
0
100
AcDbCircle
10
-992.2231006796917
20
-2070.5148434952762
30
0
40
3.1085547804832458
210
0
220
0
230
1
100
AcDbArc
50
154.44653888376345
51
184.94330620710912
0
LINE
5
144
100
AcDbEntity
8
0
100
AcDbLine
10
-991.8100998379839
20
-2072.6839725560126
30
0
11
-991.81010662182018
21
-2074.4389741009518
31
0
0
LINE
5
145
100
AcDbEntity
8
0
100
AcDbLine
10
-990.05510204443931
20
-2073.2689798548231
30
0
11
-994.44260233050886
21
-2073.2689628952457
31
0
0
LINE
5
146
100
AcDbEntity
8
0
100
AcDbLine
10
-995.32010589884567
20
-2074.1464590837068
30
0
11
-995.32010702948969
21
-2074.4389605332894
31
0
0
ARC
5
147
100
AcDbEntity
8
0
100
AcDbCircle
10
-994.54794698813271
20
-2074.0411215876284
30
0
40
0.77931083738803864
210
0
220
0
230
1
100
AcDbArc
50
82.231167355268681
51
187.76838173087245
0
LINE
5
148
100
AcDbEntity
8
0
100
AcDbLine
10
-995.32011268267286
20
-2075.9014582444606
30
0
11
-991.81011227500335
21
-2075.9014718121225
31
0
0
LINE
5
149
100
AcDbEntity
8
0
100
AcDbLine
10
-990.34761161432471
20
-2075.7552267405235
30
0
11
-990.05511165485802
21
-2075.7552278711619
31
0
0
LINE
5
150
100
AcDbEntity
8
0
100
AcDbLine
10
-990.05511165485802
20
-2075.7552278711619
30
0
11
-990.05511278550205
21
-2076.0477293207446
31
0
0
LINE
5
151
100
AcDbEntity
8
0
100
AcDbLine
10
-990.05511278550205
20
-2076.0477293207446
30
0
11
-990.34761274496873
21
-2076.0477281901062
31
0
0
LINE
5
152
100
AcDbEntity
8
0
100
AcDbLine
10
-990.34761274496873
20
-2076.0477281901062
30
0
11
-990.34761161432471
21
-2075.7552267405235
31
0
0
LINE
5
153
100
AcDbEntity
8
0
100
AcDbLine
10
-995.3201268156489
20
-2079.557707290759
30
0
11
-995.32012229310055
21
-2078.3877086449852
31
0
0
LINE
5
154
100
AcDbEntity
8
0
100
AcDbLine
10
-994.44261872475465
20
-2077.5102100723384
30
0
11
-992.68761866993145
21
-2077.5102168561689
31
0
0
LINE
5
155
100
AcDbEntity
8
0
100
AcDbLine
10
-991.81012188543104
20
-2078.3877222126471
30
0
11
-991.8101264079794
21
-2079.5577208584209
31
0
0
ARC
5
156
100
AcDbEntity
8
0
100
AcDbCircle
10
-994.54796338237838
20
-2078.2823687647206
30
0
40
0.77931083738803864
210
0
220
0
230
1
100
AcDbArc
50
82.231167355264162
51
187.76838173087245
0
ARC
5
157
100
AcDbEntity
8
0
100
AcDbCircle
10
-992.58227998176221
20
-2078.2823763629331
30
0
40
0.77931083738803864
210
0
220
0
230
1
100
AcDbArc
50
-7.7688351491904299
51
97.768399716947769
0
LINE
5
158
100
AcDbEntity
8
0
100
AcDbLine
10
-995.32013246884117
20
-2081.0202073861151
30
0
11
-990.05513200634846
21
-2081.0202277376079
31
0
0
LINE
5
159
100
AcDbEntity
8
0
100
AcDbLine
10
-991.81014110627757
20
-2083.3602206295109
30
0
11
-993.56513211599486
21
-2081.0202141699474
31
0
0
LINE
5
160
100
AcDbEntity
8
0
100
AcDbLine
10
-995.32014151394708
20
-2083.3602070618485
30
0
11
-992.83388602555203
21
-2082.0439673017113
31
0
0
LINE
5
161
100
AcDbEntity
8
0
100
AcDbLine
10
-1001.0725310069814
20
-2054.6951849239249
30
0
11
-1001.0725259191094
21
-2053.3789351063251
31
0
0
LINE
5
162
100
AcDbEntity
8
0
100
AcDbLine
10
-1003.1200265294457
20
-2053.378927191854
30
0
11
-1003.1200316173179
21
-2054.6951770094538
31
0
0
LINE
5
163
100
AcDbEntity
8
0
100
AcDbLine
10
-1003.1200316173179
20
-2054.6951770094538
30
0
11
-1000.4875316840946
21
-2054.6951871851988
31
0
0
LINE
5
164
100
AcDbEntity
8
0
100
AcDbLine
10
-999.61002751971034
20
-2053.8176906987173
30
0
11
-999.61002299715665
21
-2052.6476906373332
31
0
0
ARC
5
165
100
AcDbEntity
8
0
100
AcDbCircle
10
-1002.0962762242776
20
-2053.3789311490891
30
0
40
1.0237500816583633
210
0
220
0
230
1
100
AcDbArc
50
-0.00021896755857206488
51
179.99977921076757
0
ARC
5
166
100
AcDbEntity
8
0
100
AcDbCircle
10
-1000.3821870264743
20
-2053.9230293868868
30
0
40
0.77931083738803864
210
0
220
0
230
1
100
AcDbArc
50
-97.768841296146334
51
7.7683972124882548
0
LINE
5
167
100
AcDbEntity
8
0
100
AcDbLine
10
-1001.6575450896235
20
-2058.2051830703158
30
0
11
-1001.0725389214514
21
-2056.7426852362378
31
0
0
ARC
5
168
100
AcDbEntity
8
0
100
AcDbCircle
10
-1000.3597207435564
20
-2056.9810898813898
30
0
40
0.75162976980209351
210
0
220
0
230
1
100
AcDbArc
50
-4.1276339819277892
51
161.50731524016101
0
ARC
5
169
100
AcDbEntity
8
0
100
AcDbCircle
10
-1002.3267675494247
20
-2057.1220883900069
30
0
40
2.7181166410446167
210
0
220
0
230
1
100
AcDbArc
50
-26.890099994816808
51
1.8320407481821743
0
ARC
5
170
100
AcDbEntity
8
0
100
AcDbCircle
10
-1002.3690412109324
20
-2057.9601646988895
30
0
40
0.75250290334224701
210
0
220
0
230
1
100
AcDbArc
50
176.38190996932516
51
340.99778494928319
0
ARC
5
171
100
AcDbEntity
8
0
100
AcDbCircle
10
-1000.0230524335791
20
-2057.6448127441945
30
0
40
3.1085547804832458
210
0
220
0
230
1
100
AcDbArc
50
154.44653888376345
51
184.94330620710934
0
LINE
5
172
100
AcDbEntity
8
0
100
AcDbLine
10
-1001.6575597879216
20
-2062.0076828414053
30
0
11
-1001.0725536197494
21
-2060.5451850073277
31
0
0
ARC
5
173
100
AcDbEntity
8
0
100
AcDbCircle
10
-1000.3597354418546
20
-2060.7835896524793
30
0
40
0.75162976980209351
210
0
220
0
230
1
100
AcDbArc
50
-4.1276339819271781
51
161.50731524016101
0
ARC
5
174
100
AcDbEntity
8
0
100
AcDbCircle
10
-1002.3267822477228
20
-2060.9245881610968
30
0
40
2.7181166410446167
210
0
220
0
230
1
100
AcDbArc
50
-26.890099994817877
51
1.8320407481919239
0
ARC
5
175
100
AcDbEntity
8
0
100
AcDbCircle
10
-1002.3690559092307
20
-2061.7626644699794
30
0
40
0.75250290334224701
210
0
220
0
230
1
100
AcDbArc
50
176.38190996932516
51
340.99778494931593
0
ARC
5
176
100
AcDbEntity
8
0
100
AcDbCircle
10
-1000.0230671318773
20
-2061.447312515284
30
0
40
3.1085547804832458
210
0
220
0
230
1
100
AcDbArc
50
154.44653888376251
51
184.94330620711784
0
LINE
5
177
100
AcDbEntity
8
0
100
AcDbLine
10
-1003.120076277533
20
-2066.2489267494911
30
0
11
-1003.1200706243408
21
-2064.7864266541346
31
0
0
LINE
5
178
100
AcDbEntity
8
0
100
AcDbLine
10
-1002.2425676520505
20
-2063.9089304656718
30
0
11
-1000.7800675566941
21
-2063.9089361188639
31
0
0
LINE
5
179
100
AcDbEntity
8
0
100
AcDbLine
10
-1000.7800766017998
20
-2066.2489357945969
30
0
11
-1001.3650759246866
21
-2066.248933533323
31
0
0
LINE
5
180
100
AcDbEntity
8
0
100
AcDbLine
10
-1001.3650759246867
20
-2066.248933533323
30
0
11
-1001.3650668795809
21
-2063.9089338575895
31
0
0
ARC
5
181
100
AcDbEntity
8
0
100
AcDbCircle
10
-1002.3479123096696
20
-2064.6810879659606
30
0
40
0.77931083738803864
210
0
220
0
230
1
100
AcDbArc
50
82.231167355272447
51
187.7683817309055
0
ARC
5
182
100
AcDbEntity
8
0
100
AcDbCircle
10
-1000.7800720792468
20
-2065.0789359567302
30
0
40
1.1700000613927841
210
0
220
0
230
1
100
AcDbArc
50
-90.000221472848111
51
89.999783536111778
0
LINE
5
183
100
AcDbEntity
8
0
100
AcDbLine
10
-1003.1200824960428
20
-2067.8576763775463
30
0
11
-999.61008179035002
21
-2067.8576899452096
31
0
0
LINE
5
184
100
AcDbEntity
8
0
100
AcDbLine
10
-999.61008179035002
20
-2067.8576899452096
30
0
11
-999.61009196609996
21
-2070.4901910705257
31
0
0
LINE
5
185
100
AcDbEntity
8
0
100
AcDbLine
10
-1000.4875961304831
20
-2071.3676872589845
30
0
11
-1003.1200960637062
21
-2071.367677083239
31
0
0
LINE
5
186
100
AcDbEntity
8
0
100
AcDbLine
10
-1003.1200892798745
20
-2069.6126767303926
30
0
11
-999.61008857418176
21
-2069.6126902980559
31
0
0
ARC
5
187
100
AcDbEntity
8
0
100
AcDbCircle
10
-1000.3822514728593
20
-2070.5955285666018
30
0
40
0.77931083738803864
210
0
220
0
230
1
100
AcDbArc
50
-97.768841296150086
51
7.7683972124562537
0
LINE
5
188
100
AcDbEntity
8
0
100
AcDbLine
10
-997.8551023850406
20
-2073.1226965954852
30
0
11
-1003.1201028475333
21
-2073.1226762439924
31
0
0
LINE
5
189
100
AcDbEntity
8
0
100
AcDbLine
10
-1003.1201028475333
20
-2073.1226762439924
30
0
11
-1003.1201085007256
21
-2074.5851763393493
31
0
0
LINE
5
190
100
AcDbEntity
8
0
100
AcDbLine
10
-1002.2426123122624
20
-2075.4626793116395
30
0
11
-1000.487611959416
21
-2075.4626860954709
31
0
0
LINE
5
191
100
AcDbEntity
8
0
100
AcDbLine
10
-999.61010779503283
20
-2074.5851899070121
30
0
11
-999.61010214184057
21
-2073.1226898116556
31
0
0
ARC
5
192
100
AcDbEntity
8
0
100
AcDbCircle
10
-1002.347951000441
20
-2074.6905221890611
30
0
40
0.77931083738803864
210
0
220
0
230
1
100
AcDbArc
50
172.23114936918009
51
277.76839470798888
0
ARC
5
193
100
AcDbEntity
8
0
100
AcDbCircle
10
-1000.3822673018014
20
-2074.6905297872745
30
0
40
0.77931083738803864
210
0
220
0
230
1
100
AcDbArc
50
-97.768841296141801
51
7.7683972124551248
0
LINE
5
194
100
AcDbEntity
8
0
100
AcDbLine
10
-997.85511764866078
20
-2077.0714470913663
30
0
11
-1002.2426185307767
21
-2077.0714301317871
31
0
0
ARC
5
195
100
AcDbEntity
8
0
100
AcDbCircle
10
-1002.3479631884004
20
-2077.8435888241693
30
0
40
0.77931083738803864
210
0
220
0
230
1
100
AcDbArc
50
82.231167355264162
51
187.76838173087245
0
LINE
5
196
100
AcDbEntity
8
0
100
AcDbLine
10
-1004.8751263784709
20
-2079.1189205663782
30
0
11
-1004.8751286397497
21
-2079.7039210813582
31
0
0
LINE
5
197
100
AcDbEntity
8
0
100
AcDbLine
10
-1004.8751286397497
20
-2079.7039210813582
30
0
11
-999.61013436503765
21
-2081.4589405936063
31
0
0
LINE
5
198
100
AcDbEntity
8
0
100
AcDbLine
10
-999.61012531993174
20
-2079.1189409178733
30
0
11
-1003.1201305481728
21
-2080.2889259959838
31
0
0
LINE
5
199
100
AcDbEntity
8
0
100
AcDbLine
10
-1005.6550229849233
20
-2052.501417291071
30
0
11
-1010.9200228513696
21
-2052.5013969395804
31
0
0
LINE
5
200
100
AcDbEntity
8
0
100
AcDbLine
10
-1010.9200228513696
20
-2052.5013969395804
30
0
11
-1010.9200285045615
21
-2053.9638969604316
31
0
0
LINE
5
201
100
AcDbEntity
8
0
100
AcDbLine
10
-1010.0425323161003
20
-2054.8414003797561
30
0
11
-1008.2875319632537
21
-2054.841407163588
31
0
0
LINE
5
202
100
AcDbEntity
8
0
100
AcDbLine
10
-1007.4100277988689
20
-2053.9639105280949
30
0
11
-1007.4100221456769
21
-2052.5014105072437
31
0
0
ARC
5
203
100
AcDbEntity
8
0
100
AcDbCircle
10
-1010.1478698121799
20
-2054.0692417670666
30
0
40
0.77931083738803864
210
0
220
0
230
1
100
AcDbArc
50
172.23114936918009
51
277.76839470798888
0
ARC
5
204
100
AcDbEntity
8
0
100
AcDbCircle
10
-1008.1821873056334
20
-2054.0692493652755
30
0
40
0.77931083738803864
210
0
220
0
230
1
100
AcDbArc
50
-97.768841296150086
51
7.7683972124551248
0
LINE
5
205
100
AcDbEntity
8
0
100
AcDbLine
10
-1009.7500365197096
20
-2056.3039016057569
30
0
11
-1008.580037873936
21
-2056.3039061283048
31
0
0
LINE
5
206
100
AcDbEntity
8
0
100
AcDbLine
10
-1008.580046919043
20
-2058.6439061020615
30
0
11
-1009.7500455648167
21
-2058.6439015795131
31
0
0
ARC
5
207
100
AcDbEntity
8
0
100
AcDbCircle
10
-1008.5800423964901
20
-2057.4739062641952
30
0
40
1.1700000613927841
210
0
220
0
230
1
100
AcDbArc
50
-90.000221472848111
51
89.999783536106207
0
ARC
5
208
100
AcDbEntity
8
0
100
AcDbCircle
10
-1009.7500410422638
20
-2057.4739017416468
30
0
40
1.1700000613927841
210
0
220
0
230
1
100
AcDbArc
50
89.999783536106207
51
269.9997785271575
0
LINE
5
209
100
AcDbEntity
8
0
100
AcDbLine
10
-1010.9200516826488
20
-2059.9601470235675
30
0
11
-1007.4100600220642
21
-2062.3001608630107
31
0
0
LINE
5
210
100
AcDbEntity
8
0
100
AcDbLine
10
-1007.4100509769561
20
-2059.9601605912308
30
0
11
-1010.920060727757
21
-2062.300147295347
31
0
0
LINE
5
211
100
AcDbEntity
8
0
100
AcDbLine
10
-1010.9200759913772
20
-2066.248897791228
30
0
11
-1006.5325757053076
21
-2066.2489147508049
31
0
0
LINE
5
212
100
AcDbEntity
8
0
100
AcDbLine
10
-1005.6550795168444
20
-2067.1264177230955
30
0
11
-1005.6550806474837
21
-2067.4189179805853
31
0
0
LINE
5
213
100
AcDbEntity
8
0
100
AcDbLine
10
-1007.4100730244056
20
-2065.6639108439117
30
0
11
-1007.4100798082374
21
-2067.418911196758
31
0
0
ARC
5
214
100
AcDbEntity
8
0
100
AcDbCircle
10
-1006.4272370171336
20
-2067.0210730654762
30
0
40
0.77931083738803864
210
0
220
0
230
1
100
AcDbArc
50
-7.7688351491904299
51
97.768399716947769
0
LINE
5
215
100
AcDbEntity
8
0
100
AcDbLine
10
-1010.920085036483
20
-2068.5888974669615
30
0
11
-1007.4100843307904
21
-2068.5889110346252
31
0
0
LINE
5
216
100
AcDbEntity
8
0
100
AcDbLine
10
-1007.4100843307901
20
-2068.5889110346247
30
0
11
-1007.4100911146219
21
-2070.3439113874711
31
0
0
LINE
5
217
100
AcDbEntity
8
0
100
AcDbLine
10
-1007.4100911146219
20
-2070.3439113874711
30
0
11
-1007.9950916296016
21
-2070.3439091261926
31
0
0
LINE
5
218
100
AcDbEntity
8
0
100
AcDbLine
10
-1009.7500953129081
20
-2071.513902180232
30
0
11
-1008.5800966671344
21
-2071.5139067027803
31
0
0
LINE
5
219
100
AcDbEntity
8
0
100
AcDbLine
10
-1008.5801057122401
20
-2073.8539063785133
30
0
11
-1009.7501043580138
21
-2073.853901855965
31
0
0
ARC
5
220
100
AcDbEntity
8
0
100
AcDbCircle
10
-1008.580101189692
20
-2072.68390773274
30
0
40
1.1700000613927841
210
0
220
0
230
1
100
AcDbArc
50
-90.000221472842512
51
89.999783536106207
0
ARC
5
221
100
AcDbEntity
8
0
100
AcDbCircle
10
-1009.7500998354656
20
-2072.6839032101916
30
0
40
1.1700000613927841
210
0
220
0
230
1
100
AcDbArc
50
89.999783536106207
51
269.99977852715188
0
LINE
5
222
100
AcDbEntity
8
0
100
AcDbLine
10
-1010.9201116064878
20
-2075.4626481535556
30
0
11
-1007.4101109007951
21
-2075.4626617212189
31
0
0
LINE
5
223
100
AcDbEntity
8
0
100
AcDbLine
10
-1007.410110900795
20
-2075.4626617212189
30
0
11
-1007.4101165539872
21
-2076.9251618165758
31
0
0
LINE
5
224
100
AcDbEntity
8
0
100
AcDbLine
10
-1008.2876207183705
20
-2077.8026580050341
30
0
11
-1010.9201206515936
21
-2077.8026478292886
31
0
0
ARC
5
225
100
AcDbEntity
8
0
100
AcDbCircle
10
-1008.182276060756
20
-2077.0305016968377
30
0
40
0.77931083738803864
210
0
220
0
230
1
100
AcDbArc
50
-97.768841296154619
51
7.7683972124882548
0
LINE
5
226
100
AcDbEntity
8
0
100
AcDbLine
10
-1007.4101250337803
20
-2079.1189131517031
30
0
11
-1007.4101318176074
21
-2080.8739123124569
31
0
0
LINE
5
227
100
AcDbEntity
8
0
100
AcDbLine
10
-1005.6551281343056
20
-2079.7039204505099
30
0
11
-1010.0426284203751
21
-2079.703903490933
31
0
0
LINE
5
228
100
AcDbEntity
8
0
100
AcDbLine
10
-1010.9201313926654
20
-2080.5813996793963
30
0
11
-1010.9201325233003
21
-2080.8738987447932
31
0
0
ARC
5
229
100
AcDbEntity
8
0
100
AcDbCircle
10
-1010.147971885906
20
-2080.4760621833198
30
0
40
0.77931083738803864
210
0
220
0
230
1
100
AcDbArc
50
82.231167355272447
51
187.76838173087245
0
LINE
5
230
100
AcDbEntity
8
0
100
AcDbLine
10
-1011.5051375608375
20
-2082.0438975134739
30
0
11
-1005.0701457095375
21
-2084.3839220632553
31
0
0
LINE
5
231
100
AcDbEntity
8
0
100
AcDbLine
10
-1010.9201517441559
20
-2085.8463995458424
30
0
11
-1007.4101510384633
21
-2085.8464131135061
31
0
0
LINE
5
232
100
AcDbEntity
8
0
100
AcDbLine
10
-1007.410151038463
20
-2085.8464131135061
30
0
11
-1007.4101578222994
21
-2087.6014146584453
31
0
0
LINE
5
233
100
AcDbEntity
8
0
100
AcDbLine
10
-1007.4101578222995
20
-2087.6014146584453
30
0
11
-1007.9951583372792
21
-2087.6014123971668
31
0
0
LINE
5
234
100
AcDbEntity
8
0
100
AcDbLine
10
-1010.9201720956555
20
-2091.1114017964746
30
0
11
-1010.9201664424633
21
-2089.6489017011181
31
0
0
LINE
5
235
100
AcDbEntity
8
0
100
AcDbLine
10
-1010.0426634701638
20
-2088.771403128469
30
0
11
-1008.5801633748074
21
-2088.7714087816612
31
0
0
LINE
5
236
100
AcDbEntity
8
0
100
AcDbLine
10
-1008.5801724199223
20
-2091.1114108415804
30
0
11
-1009.1651717428091
21
-2091.1114085803065
31
0
0
LINE
5
237
100
AcDbEntity
8
0
100
AcDbLine
10
-1009.1651717428092
20
-2091.1114085803065
30
0
11
-1009.1651626976942
21
-2088.7714065203872
31
0
0
ARC
5
238
100
AcDbEntity
8
0
100
AcDbCircle
10
-1010.1480069356946
20
-2089.5435618208558
30
0
40
0.77931083738803864
210
0
220
0
230
1
100
AcDbArc
50
82.231167355276966
51
187.76838173087245
0
ARC
5
239
100
AcDbEntity
8
0
100
AcDbCircle
10
-1008.5801678973648
20
-2089.9414098116213
30
0
40
1.1700000613927841
210
0
220
0
230
1
100
AcDbArc
50
-90.000221472848111
51
89.999783536106207
0
LINE
5
240
100
AcDbEntity
8
0
100
AcDbLine
10
-1008.8726861836175
20
-2094.9139094820353
30
0
11
-1008.872681095738
21
-2093.5976577272845
31
0
0
LINE
5
241
100
AcDbEntity
8
0
100
AcDbLine
10
-1010.9201817060741
20
-2093.5976498128134
30
0
11
-1010.9201867939537
21
-2094.9139015675642
31
0
0
LINE
5
242
100
AcDbEntity
8
0
100
AcDbLine
10
-1010.9201867939538
20
-2094.9139015675646
30
0
11
-1008.2876868607307
21
-2094.9139117433097
31
0
0
LINE
5
243
100
AcDbEntity
8
0
100
AcDbLine
10
-1007.4101826963475
20
-2094.0364155548509
30
0
11
-1007.41017817379
21
-2092.8664145248918
31
0
0
ARC
5
244
100
AcDbEntity
8
0
100
AcDbCircle
10
-1009.8964314009061
20
-2093.597653770049
30
0
40
1.0237500816583633
210
0
220
0
230
1
100
AcDbArc
50
-0.00021896755857206488
51
179.99977921076757
0
ARC
5
245
100
AcDbEntity
8
0
100
AcDbCircle
10
-1008.1823422030976
20
-2094.1417506667412
30
0
40
0.77931083738803864
210
0
220
0
230
1
100
AcDbArc
50
-97.768841296150086
51
7.7683972124551248
0
LINE
5
246
100
AcDbEntity
8
0
100
AcDbLine
10
-1010.9201935777809
20
-2096.668900728318
30
0
11
-1007.4101928720881
21
-2096.6689142959813
31
0
0
LINE
5
247
100
AcDbEntity
8
0
100
AcDbLine
10
-1007.410192872088
20
-2096.6689142959813
30
0
11
-1007.410199655915
21
-2098.4239134567347
31
0
0
LINE
5
248
100
AcDbEntity
8
0
100
AcDbLine
10
-1007.4101996559152
20
-2098.4239134567347
30
0
11
-1007.9952001708949
21
-2098.4239111954557
31
0
0
LINE
5
249
100
AcDbEntity
8
0
100
AcDbLine
10
-1010.9202060148094
20
-2099.8864023686137
30
0
11
-1010.9202048841654
21
-2099.5939009190311
31
0
0
LINE
5
250
100
AcDbEntity
8
0
100
AcDbLine
10
-1010.9202048841655
20
-2099.5939009190311
30
0
11
-1010.6277058187685
21
-2099.5939020496653
31
0
0
LINE
5
251
100
AcDbEntity
8
0
100
AcDbLine
10
-1010.6277058187685
20
-2099.5939020496653
30
0
11
-1010.6277069494125
21
-2099.8864034992484
31
0
0
LINE
5
252
100
AcDbEntity
8
0
100
AcDbLine
10
-1010.6277069494125
20
-2099.8864034992484
30
0
11
-1010.9202060148095
21
-2099.8864023686137
31
0
0
LINE
5
253
100
AcDbEntity
8
0
100
AcDbLine
10
-1010.9202060148094
20
-2099.8864023686137
30
0
11
-1012.090205348803
21
-2099.447645671682
31
0
0
LINE
5
254
100
AcDbEntity
8
0
100
AcDbLine
10
-1015.7950314196033
20
-2054.8413781438712
30
0
11
-1018.7200219998896
21
-2052.3551167349851
31
0
0
LINE
5
255
100
AcDbEntity
8
0
100
AcDbLine
10
-1018.7200219998897
20
-2052.3551167349851
30
0
11
-1018.7200333062743
21
-2055.2801169256982
31
0
0
ARC
5
256
100
AcDbEntity
8
0
100
AcDbCircle
10
-1014.6132664200079
20
-2054.1218951938245
30
0
40
1.1689662933349609
210
0
220
0
230
1
100
AcDbArc
50
-97.768841296148153
51
7.7683972124858078
0
ARC
5
257
100
AcDbEntity
8
0
100
AcDbCircle
10
-1014.9032417234844
20
-2053.7872990781589
30
0
40
1.4589405059814453
210
0
220
0
230
1
100
AcDbArc
50
-6.9520469773290596
51
79.006348180162732
0
ARC
5
258
100
AcDbEntity
8
0
100
AcDbCircle
10
-1014.8754695886227
20
-2054.1094929869159
30
0
40
1.1752662807703018
210
0
220
0
230
1
100
AcDbArc
50
218.5165000156664
51
275.08588145392395
0
LINE
5
259
100
AcDbEntity
8
0
100
AcDbLine
10
-1018.720047439255
20
-2058.9363671640895
30
0
11
-1015.2100557786705
21
-2061.2763810035326
31
0
0
LINE
5
260
100
AcDbEntity
8
0
100
AcDbLine
10
-1015.2100467335623
20
-2058.9363807317532
30
0
11
-1018.7200564843633
21
-2061.2763674358694
31
0
0
LINE
5
261
100
AcDbEntity
8
0
100
AcDbLine
10
-1014.6250693966691
20
-2064.9326329071564
30
0
11
-1013.4550764040877
21
-2066.3951375250613
31
0
0
LINE
5
262
100
AcDbEntity
8
0
100
AcDbLine
10
-1013.4550764040877
20
-2066.3951375250613
30
0
11
-1018.7200762705339
21
-2066.3951171735707
31
0
0
LINE
5
263
100
AcDbEntity
8
0
100
AcDbLine
10
-1018.7200706173417
20
-2064.9326170782142
30
0
11
-1018.7200819237263
21
-2067.8576172689272
31
0
0
LINE
5
264
100
AcDbEntity
8
0
100
AcDbLine
10
-1015.7950969966288
20
-2071.8063778791002
30
0
11
-1018.7200875769186
21
-2069.3201173642838
31
0
0
LINE
5
265
100
AcDbEntity
8
0
100
AcDbLine
10
-1018.7200875769186
20
-2069.3201173642838
30
0
11
-1018.7200988833079
21
-2072.2451187470897
31
0
0
ARC
5
266
100
AcDbEntity
8
0
100
AcDbCircle
10
-1014.6133319970374
20
-2071.0868959721342
30
0
40
1.1689662933349609
210
0
220
0
230
1
100
AcDbArc
50
-97.768841296153653
51
7.7683972124865601
0
ARC
5
267
100
AcDbEntity
8
0
100
AcDbCircle
10
-1014.9033073005121
20
-2070.7522994094343
30
0
40
1.4589405059814453
210
0
220
0
230
1
100
AcDbArc
50
-6.9520469773118592
51
79.006348180166142
0
ARC
5
268
100
AcDbEntity
8
0
100
AcDbCircle
10
-1014.8755351656517
20
-2071.0744936162141
30
0
40
1.1752662807703018
210
0
220
0
230
1
100
AcDbArc
50
218.5165000156664
51
275.08588145392196
0
LINE
5
269
100
AcDbEntity
8
0
100
AcDbLine
10
-1018.7201141469187
20
-2076.193866858785
30
0
11
-1015.210113441226
21
-2076.1938804264487
31
0
0
LINE
5
270
100
AcDbEntity
8
0
100
AcDbLine
10
-1015.210113441226
20
-2076.1938804264482
30
0
11
-1015.2101236169758
21
-2078.8263815517644
31
0
0
LINE
5
271
100
AcDbEntity
8
0
100
AcDbLine
10
-1016.0876265892661
20
-2079.7038777402277
30
0
11
-1018.7201277145822
21
-2079.7038675644776
31
0
0
LINE
5
272
100
AcDbEntity
8
0
100
AcDbLine
10
-1018.720120930755
20
-2077.9488684037242
30
0
11
-1015.2101202250623
21
-2077.9488819713879
31
0
0
ARC
5
273
100
AcDbEntity
8
0
100
AcDbCircle
10
-1015.9822831237352
20
-2078.9317190478409
30
0
40
0.77931083738803864
210
0
220
0
230
1
100
AcDbArc
50
-97.768841296141801
51
7.7683972124882548
0
LINE
5
274
100
AcDbEntity
8
0
100
AcDbLine
10
-1018.7201344984092
20
-2081.458866725231
30
0
11
-1015.2101337927165
21
-2081.4588802928947
31
0
0
LINE
5
275
100
AcDbEntity
8
0
100
AcDbLine
10
-1015.2101337927163
20
-2081.4588802928947
30
0
11
-1015.2101439684662
21
-2084.0913814182109
31
0
0
LINE
5
276
100
AcDbEntity
8
0
100
AcDbLine
10
-1016.0876469407566
20
-2084.9688776066741
30
0
11
-1018.7201480660726
21
-2084.9688674309241
31
0
0
LINE
5
277
100
AcDbEntity
8
0
100
AcDbLine
10
-1018.7201412822455
20
-2083.2138682701707
30
0
11
-1015.2101405765528
21
-2083.2138818378339
31
0
0
ARC
5
278
100
AcDbEntity
8
0
100
AcDbCircle
10
-1015.9823034752255
20
-2084.196718914287
30
0
40
0.77931083738803864
210
0
220
0
230
1
100
AcDbArc
50
-97.768841296150086
51
7.7683972124562537
0
LINE
5
279
100
AcDbEntity
8
0
100
AcDbLine
10
-1020.4751630557589
20
-2089.0638594835837
30
0
11
-1015.2101631893128
21
-2089.0638798350742
31
0
0
LINE
5
280
100
AcDbEntity
8
0
100
AcDbLine
10
-1015.2101631893128
20
-2089.0638798350742
30
0
11
-1015.210168842505
21
-2090.5263799304307
31
0
0
LINE
5
281
100
AcDbEntity
8
0
100
AcDbLine
10
-1016.0876718147954
20
-2091.403876118894
30
0
11
-1017.8426733597347
21
-2091.4038693350576
31
0
0
LINE
5
282
100
AcDbEntity
8
0
100
AcDbLine
10
-1018.7201695481979
20
-2090.5263663627675
30
0
11
-1018.7201638950056
21
-2089.0638662674105
31
0
0
ARC
5
283
100
AcDbEntity
8
0
100
AcDbCircle
10
-1015.9823283492735
20
-2090.6317198106931
30
0
40
0.77931083738803864
210
0
220
0
230
1
100
AcDbArc
50
-97.768841296150086
51
7.7683972124562537
0
ARC
5
284
100
AcDbEntity
8
0
100
AcDbCircle
10
-1017.9480108558203
20
-2090.6317122124842
30
0
40
0.77931083738803864
210
0
220
0
230
1
100
AcDbArc
50
172.23114936917901
51
277.76839470800167
0
LINE
5
285
100
AcDbEntity
8
0
100
AcDbLine
10
-1013.4551792921795
20
-2093.0126371147826
30
0
11
-1017.842679578249
21
-2093.0126201552052
31
0
0
ARC
5
286
100
AcDbEntity
8
0
100
AcDbCircle
10
-1017.9480230437706
20
-2093.7847764634066
30
0
40
0.77931083738803864
210
0
220
0
230
1
100
AcDbArc
50
82.231167355268681
51
187.76838173087347
0
LINE
5
287
100
AcDbEntity
8
0
100
AcDbLine
10
-1020.4751862338503
20
-2095.0601105898013
30
0
11
-1020.4751884951384
21
-2095.6451134889667
31
0
0
LINE
5
288
100
AcDbEntity
8
0
100
AcDbLine
10
-1020.4751884951382
20
-2095.6451134889667
30
0
11
-1015.2101954125191
21
-2097.4001330012106
31
0
0
LINE
5
289
100
AcDbEntity
8
0
100
AcDbLine
10
-1015.2101863674039
20
-2095.0601309412918
30
0
11
-1018.7201915956542
21
-2096.2301184035878
31
0
0
ENDSEC
0
SECTION
2
OBJECTS
0
DICTIONARY
5
C
100
AcDbDictionary
3
ACAD_GROUP
350
D
3
ACAD_MLINESTYLE
350
17
0
DICTIONARY
5
D
100
AcDbDictionary
0
DICTIONARY
5
1A
330
C
100
AcDbDictionary
0
DICTIONARY
5
17
100
AcDbDictionary
0
ENDSEC
0
EOF
