0
SECTION
2
HEADER
9
$INSUNITS
70
4
9
$ACADVER
1
AC1014
9
$HANDSEED
5
FFFF
0
ENDSEC
0
SECTION
2
TABLES
0
TABLE
2
VPORT
5
8
100
AcDbSymbolTable
0
ENDTAB
0
TABLE
2
LTYPE
5
5
100
AcDbSymbolTable
0
LTYPE
5
14
100
AcDbSymbolTableRecord
100
AcDbLinetypeTableRecord
2
BYBLOCK
70
0
0
LTYPE
5
15
100
AcDbSymbolTableRecord
100
AcDbLinetypeTableRecord
2
BYLAYER
70
0
0
LTYPE
5
16
100
AcDbSymbolTableRecord
100
AcDbLinetypeTableRecord
2
DASHED
70
0
3
Dashed __ __ __ __ __ __ __ __ __ __ __ __ __ _
72
65
73
2
40
0.75
49
0.5
74
0
49
-0.25
74
0
0
ENDTAB
0
TABLE
2
LAYER
5
2
100
AcDbSymbolTable
70
3
0
LAYER
5
50
100
AcDbSymbolTableRecord
100
AcDbLayerTableRecord
2
1
70
0
62
7
6
DASHED
0
LAYER
5
51
100
AcDbSymbolTableRecord
100
AcDbLayerTableRecord
2
0
70
0
62
7
6
CONTINUOUS
0
ENDTAB
0
TABLE
2
STYLE
5
3
100
AcDbSymbolTable
70
1
0
STYLE
5
11
100
AcDbSymbolTableRecord
100
AcDbTextStyleTableRecord
2
STANDARD
70
0
0
ENDTAB
0
TABLE
2
VIEW
5
6
100
AcDbSymbolTable
70
0
0
ENDTAB
0
TABLE
2
UCS
5
7
100
AcDbSymbolTable
70
0
0
ENDTAB
0
TABLE
2
APPID
5
9
100
AcDbSymbolTable
70
2
0
APPID
5
12
100
AcDbSymbolTableRecord
100
AcDbRegAppTableRecord
2
ACAD
70
0
0
ENDTAB
0
TABLE
2
DIMSTYLE
5
A
100
AcDbSymbolTable
70
1
0
ENDTAB
0
TABLE
2
BLOCK_RECORD
5
1
100
AcDbSymbolTable
70
1
0
BLOCK_RECORD
5
1F
100
AcDbSymbolTableRecord
100
AcDbBlockTableRecord
2
*MODEL_SPACE
0
BLOCK_RECORD
5
1B
100
AcDbSymbolTableRecord
100
AcDbBlockTableRecord
2
*PAPER_SPACE
0
ENDTAB
0
ENDSEC
0
SECTION
2
BLOCKS
0
BLOCK
5
20
100
AcDbEntity
100
AcDbBlockBegin
2
*MODEL_SPACE
0
ENDBLK
5
21
100
AcDbEntity
100
AcDbBlockEnd
0
BLOCK
5
1C
100
AcDbEntity
100
AcDbBlockBegin
2
*PAPER_SPACE
0
ENDBLK
5
1D
100
AcDbEntity
100
AcDbBlockEnd
0
ENDSEC
0
SECTION
2
ENTITIES
0
CIRCLE
5
100
100
AcDbEntity
8
0
100
AcDbCircle
10
-545.56924958835259
20
-2384.924910355141
30
0
40
1.4999999999999858
210
0
220
-0
230
1
0
CIRCLE
5
101
100
AcDbEntity
8
0
100
AcDbCircle
10
-438.56924958835265
20
-1493.424910355141
30
0
40
1.4999999999999858
210
0
220
-0
230
1
0
CIRCLE
5
102
100
AcDbEntity
8
0
100
AcDbCircle
10
-579.56924958835259
20
-1493.424910355141
30
0
40
1.4999999999999858
210
0
220
-0
230
1
0
CIRCLE
5
103
100
AcDbEntity
8
0
100
AcDbCircle
10
-472.56924958835265
20
-1493.424910355141
30
0
40
1.4999999999999858
210
0
220
-0
230
1
0
CIRCLE
5
104
100
AcDbEntity
8
0
100
AcDbCircle
10
-545.56924958835259
20
-1493.424910355141
30
0
40
1.4999999999999858
210
0
220
-0
230
1
0
LWPOLYLINE
5
105
100
AcDbEntity
8
0
100
AcDbPolyline
90
9
70
1
43
0.0
10
-591.56924958835259
20
-1487.924910355141
10
-591.56924958835259
20
-2390.424910355141
42
0.4142135623730534
10
-589.56924958835259
20
-2392.424910355141
10
-428.56924958835265
20
-2392.424910355141
42
0.4142135623730534
10
-426.56924958835248
20
-2390.424910355141
10
-426.56924958835259
20
-1487.924910355141
42
0.4142135623730534
10
-428.56924958835265
20
-1485.924910355141
10
-558.07024958835268
20
-1485.924910355141
10
-589.56924958835259
20
-1485.924910355141
42
0.4142135623730534
0
CIRCLE
5
106
100
AcDbEntity
8
0
100
AcDbCircle
10
-579.56924958835259
20
-2384.924910355141
30
0
40
1.4999999999999858
210
0
220
-0
230
1
0
CIRCLE
5
107
100
AcDbEntity
8
0
100
AcDbCircle
10
-438.56924958835265
20
-2384.924910355141
30
0
40
1.4999999999999858
210
0
220
-0
230
1
0
CIRCLE
5
108
100
AcDbEntity
8
0
100
AcDbCircle
10
-472.56924958835248
20
-2384.924910355141
30
0
40
1.4999999999999858
210
0
220
-0
230
1
0
LINE
5
109
100
AcDbEntity
8
1
100
AcDbLine
10
-585.56924958835259
20
-1543.5093725412012
30
0
11
-434.89781448389931
21
-1543.5093725412014
31
0
0
LINE
5
110
100
AcDbEntity
8
1
100
AcDbLine
10
-434.89781448389931
20
-1543.5093725412014
30
0
11
-434.89781448389931
21
-1517.4249103551413
31
0
0
LINE
5
111
100
AcDbEntity
8
1
100
AcDbLine
10
-434.89781448389931
20
-1517.4249103551413
30
0
11
-585.5692495883527
21
-1517.4249103551413
31
0
0
LINE
5
112
100
AcDbEntity
8
1
100
AcDbLine
10
-585.5692495883527
20
-1517.4249103551413
30
0
11
-585.56924958835259
21
-1543.5093725412012
31
0
0
LINE
5
113
100
AcDbEntity
8
0
100
AcDbLine
10
-584.30915911803856
20
-1520.0913819556736
30
0
11
-582.84665902267113
21
-1520.0913819556736
31
0
0
LINE
5
114
100
AcDbEntity
8
0
100
AcDbLine
10
-582.84665902267113
20
-1523.0163821464084
30
0
11
-584.30915911803856
21
-1523.0163821464084
31
0
0
LINE
5
115
100
AcDbEntity
8
0
100
AcDbLine
10
-584.30915911803856
20
-1523.0163821464084
30
0
11
-584.30915911803856
21
-1517.7513816838764
31
0
0
LINE
5
116
100
AcDbEntity
8
0
100
AcDbLine
10
-584.30915911803856
20
-1517.7513816838764
30
0
11
-582.84665902267113
21
-1517.7513816838764
31
0
0
ARC
5
117
100
AcDbEntity
8
0
100
AcDbCircle
10
-582.84665902267113
20
-1521.553882051041
30
0
40
1.4625000953674316
210
-0
220
0
230
1
100
AcDbArc
50
-89.99999931675508
51
90.000002504478786
0
ARC
5
118
100
AcDbEntity
8
0
100
AcDbCircle
10
-582.84665902267113
20
-1518.921381819775
30
0
40
1.1700000613927841
210
-0
220
0
230
1
100
AcDbArc
50
-89.99999931675508
51
90.000002504479937
0
LINE
5
119
100
AcDbEntity
8
0
100
AcDbLine
10
-580.0679089606823
20
-1518.3363819008373
30
0
11
-580.0679089606823
21
-1517.7513816838764
31
0
0
LINE
5
120
100
AcDbEntity
8
0
100
AcDbLine
10
-580.0679089606823
20
-1517.7513816838764
30
0
11
-577.14290876994744
21
-1517.7513816838764
31
0
0
LINE
5
121
100
AcDbEntity
8
0
100
AcDbLine
10
-577.14290876994744
20
-1517.7513816838764
30
0
11
-578.60540886531487
21
-1523.0163821464084
31
0
0
LINE
5
122
100
AcDbEntity
8
0
100
AcDbLine
10
-575.38790841708794
20
-1523.0163821464084
30
0
11
-575.68040867458001
21
-1523.0163821464084
31
0
0
LINE
5
123
100
AcDbEntity
8
0
100
AcDbLine
10
-575.68040867458001
20
-1523.0163821464084
30
0
11
-575.68040867458001
21
-1522.7238818889164
31
0
0
LINE
5
124
100
AcDbEntity
8
0
100
AcDbLine
10
-575.68040867458001
20
-1522.7238818889164
30
0
11
-575.38790841708794
21
-1522.7238818889164
31
0
0
LINE
5
125
100
AcDbEntity
8
0
100
AcDbLine
10
-575.38790841708794
20
-1522.7238818889164
30
0
11
-575.38790841708794
21
-1523.0163821464084
31
0
0
LINE
5
126
100
AcDbEntity
8
0
100
AcDbLine
10
-575.38790841708794
20
-1523.0163821464084
30
0
11
-575.82665880332604
21
-1524.1863819842838
31
0
0
LINE
5
127
100
AcDbEntity
8
0
100
AcDbLine
10
-569.6841587604107
20
-1521.553882051041
30
0
11
-571.14665885577813
21
-1520.9688821321033
31
0
0
ARC
5
128
100
AcDbEntity
8
0
100
AcDbCircle
10
-570.9082569659771
20
-1520.2560624366306
30
0
40
0.75162976980209339
210
-0
220
0
230
1
100
AcDbArc
50
85.87258749093435
51
251.50753671300296
0
ARC
5
129
100
AcDbEntity
8
0
100
AcDbCircle
10
-570.76725025783196
20
-1522.2231086974643
30
0
40
2.7181166410446167
210
-0
220
0
230
1
100
AcDbArc
50
63.110121478028965
51
91.832262221038604
0
ARC
5
130
100
AcDbEntity
8
0
100
AcDbCircle
10
-569.929174381596
20
-1522.2653791194462
30
0
40
0.75250290334224701
210
-0
220
0
230
1
100
AcDbArc
50
-93.617868557842215
51
70.998006422155228
0
ARC
5
131
100
AcDbEntity
8
0
100
AcDbCircle
10
-570.24453540454522
20
-1519.9193909650348
30
0
40
3.1085547804832454
210
-0
220
0
230
1
100
AcDbArc
50
244.44676035660888
51
274.94352767996111
0
LINE
5
132
100
AcDbEntity
8
0
100
AcDbLine
10
-568.07540913234368
20
-1519.5063817387127
30
0
11
-566.32040877948418
21
-1519.5063817387127
31
0
0
LINE
5
133
100
AcDbEntity
8
0
100
AcDbLine
10
-567.49040861735955
20
-1517.7513816838764
30
0
11
-567.49040861735955
21
-1522.1388819699787
31
0
0
LINE
5
134
100
AcDbEntity
8
0
100
AcDbLine
10
-566.61290903697625
20
-1523.0163821464084
30
0
11
-566.32040877948418
21
-1523.0163821464084
31
0
0
ARC
5
135
100
AcDbEntity
8
0
100
AcDbCircle
10
-566.71825070987359
20
-1522.244223642876
30
0
40
0.77931083738803864
210
-0
220
0
230
1
100
AcDbArc
50
172.23138882811151
51
277.76860320370986
0
LINE
5
136
100
AcDbEntity
8
0
100
AcDbLine
10
-564.85790868411675
20
-1523.0163821464084
30
0
11
-564.85790868411675
21
-1519.5063817387127
31
0
0
LINE
5
137
100
AcDbEntity
8
0
100
AcDbLine
10
-565.00415940890923
20
-1518.0438816433452
30
0
11
-565.00415940890923
21
-1517.7513816838764
31
0
0
LINE
5
138
100
AcDbEntity
8
0
100
AcDbLine
10
-565.00415940890923
20
-1517.7513816838764
30
0
11
-564.71165795932427
21
-1517.7513816838764
31
0
0
LINE
5
139
100
AcDbEntity
8
0
100
AcDbLine
10
-564.71165795932427
20
-1517.7513816838764
30
0
11
-564.71165795932427
21
-1518.0438816433452
31
0
0
LINE
5
140
100
AcDbEntity
8
0
100
AcDbLine
10
-564.71165795932427
20
-1518.0438816433452
30
0
11
-565.00415940890923
21
-1518.0438816433452
31
0
0
LINE
5
141
100
AcDbEntity
8
0
100
AcDbLine
10
-561.20165963779107
20
-1523.0163821464084
30
0
11
-562.37165828357354
21
-1523.0163821464084
31
0
0
LINE
5
142
100
AcDbEntity
8
0
100
AcDbLine
10
-563.24916024814263
20
-1522.1388819699787
30
0
11
-563.24916024814263
21
-1520.3838819151424
31
0
0
LINE
5
143
100
AcDbEntity
8
0
100
AcDbLine
10
-562.37165828357354
20
-1519.5063817387127
30
0
11
-561.20165963779107
21
-1519.5063817387127
31
0
0
ARC
5
144
100
AcDbEntity
8
0
100
AcDbCircle
10
-562.47700114856377
20
-1522.244223642876
30
0
40
0.77931083738803864
210
-0
220
0
230
1
100
AcDbArc
50
172.23138882811151
51
277.76860320370986
0
ARC
5
145
100
AcDbEntity
8
0
100
AcDbCircle
10
-562.47700114856377
20
-1520.2785402422451
30
0
40
0.77931083738803864
210
-0
220
0
230
1
100
AcDbArc
50
82.231386323640308
51
187.76862118979204
0
LINE
5
146
100
AcDbEntity
8
0
100
AcDbLine
10
-559.73915954242364
20
-1523.0163821464084
30
0
11
-559.73915954242364
21
-1517.7513816838764
31
0
0
LINE
5
147
100
AcDbEntity
8
0
100
AcDbLine
10
-557.3991598666729
20
-1519.5063817387127
30
0
11
-559.73915954242364
21
-1521.2613817935489
31
0
0
LINE
5
148
100
AcDbEntity
8
0
100
AcDbLine
10
-557.3991598666729
20
-1523.0163821464084
30
0
11
-558.71540923724785
21
-1520.5301317458652
31
0
0
LINE
5
149
100
AcDbEntity
8
0
100
AcDbLine
10
-551.4029087604107
20
-1520.9688821321033
30
0
11
-552.71916051517144
21
-1520.9688821321033
31
0
0
LINE
5
150
100
AcDbEntity
8
0
100
AcDbLine
10
-552.71916051517144
20
-1523.0163821464084
30
0
11
-551.4029087604107
21
-1523.0163821464084
31
0
0
LINE
5
151
100
AcDbEntity
8
0
100
AcDbLine
10
-551.4029087604107
20
-1523.0163821464084
30
0
11
-551.4029087604107
21
-1520.3838819151424
31
0
0
LINE
5
152
100
AcDbEntity
8
0
100
AcDbLine
10
-552.280408340794
20
-1519.5063817387127
30
0
11
-553.45040937076226
21
-1519.5063817387127
31
0
0
ARC
5
153
100
AcDbEntity
8
0
100
AcDbCircle
10
-552.71916051517144
20
-1521.9926321392559
30
0
40
1.0237500816583633
210
-0
220
0
230
1
100
AcDbArc
50
90.000002504477479
51
270.00000068324812
0
ARC
5
154
100
AcDbEntity
8
0
100
AcDbCircle
10
-552.17506785998955
20
-1520.2785402422451
30
0
40
0.77931083738803864
210
-0
220
0
230
1
100
AcDbArc
50
-7.7686198232944514
51
97.76861868532086
0
LINE
5
155
100
AcDbEntity
8
0
100
AcDbLine
10
-547.8929080546917
20
-1521.553882051041
30
0
11
-549.35540815005913
21
-1520.9688821321033
31
0
0
ARC
5
156
100
AcDbEntity
8
0
100
AcDbCircle
10
-549.1170086444439
20
-1520.2560624366306
30
0
40
0.75162976980209351
210
-0
220
0
230
1
100
AcDbArc
50
85.87258749093435
51
251.50753671300296
0
ARC
5
157
100
AcDbEntity
8
0
100
AcDbCircle
10
-548.97600074420586
20
-1522.2231086974643
30
0
40
2.7181166410446163
210
-0
220
0
230
1
100
AcDbArc
50
63.110121478028965
51
91.832262221038604
0
ARC
5
158
100
AcDbEntity
8
0
100
AcDbCircle
10
-548.137923675877
20
-1522.2653791194462
30
0
40
0.75250290334224701
210
-0
220
0
230
1
100
AcDbArc
50
-93.617868557842215
51
70.998006422155228
0
ARC
5
159
100
AcDbEntity
8
0
100
AcDbCircle
10
-548.45328469882622
20
-1519.9193909650348
30
0
40
3.1085547804832458
210
-0
220
0
230
1
100
AcDbArc
50
244.44676035660888
51
274.94352767996111
0
LINE
5
160
100
AcDbEntity
8
0
100
AcDbLine
10
-544.09041066775933
20
-1521.553882051041
30
0
11
-545.55290837894097
21
-1520.9688821321033
31
0
0
ARC
5
161
100
AcDbEntity
8
0
100
AcDbCircle
10
-545.31450887332574
20
-1520.2560624366306
30
0
40
0.75162976980209351
210
-0
220
0
230
1
100
AcDbArc
50
85.87258749093435
51
251.50753671300296
0
ARC
5
162
100
AcDbEntity
8
0
100
AcDbCircle
10
-545.17350335727349
20
-1522.2231086974643
30
0
40
2.7181166410446167
210
-0
220
0
230
1
100
AcDbArc
50
63.110121478028965
51
91.832262221038604
0
ARC
5
163
100
AcDbEntity
8
0
100
AcDbCircle
10
-544.33542390475884
20
-1522.2653791194462
30
0
40
0.75250290334224701
210
-0
220
0
230
1
100
AcDbArc
50
-93.617868557842215
51
70.998006422155228
0
ARC
5
164
100
AcDbEntity
8
0
100
AcDbCircle
10
-544.65078492770806
20
-1519.9193909650348
30
0
40
3.1085547804832458
210
-0
220
0
230
1
100
AcDbArc
50
244.44676035660888
51
274.94352767996111
0
LINE
5
165
100
AcDbEntity
8
0
100
AcDbLine
10
-539.84915872226372
20
-1523.0163821464084
30
0
11
-541.31166120181695
21
-1523.0163821464084
31
0
0
LINE
5
166
100
AcDbEntity
8
0
100
AcDbLine
10
-542.18916078220025
20
-1522.1388819699787
30
0
11
-542.18916078220025
21
-1520.6763818746113
31
0
0
LINE
5
167
100
AcDbEntity
8
0
100
AcDbLine
10
-539.84915872226372
20
-1520.6763818746113
30
0
11
-539.84915872226372
21
-1521.2613817935489
31
0
0
LINE
5
168
100
AcDbEntity
8
0
100
AcDbLine
10
-539.84915872226372
20
-1521.2613817935489
30
0
11
-542.18916078220025
21
-1521.2613817935489
31
0
0
ARC
5
169
100
AcDbEntity
8
0
100
AcDbCircle
10
-541.4169992984356
20
-1522.244223642876
30
0
40
0.77931083738803864
210
-0
220
0
230
1
100
AcDbArc
50
172.23138882811151
51
277.76860320370986
0
ARC
5
170
100
AcDbEntity
8
0
100
AcDbCircle
10
-541.01915975223199
20
-1520.6763818746113
30
0
40
1.1700000613927841
210
-0
220
0
230
1
100
AcDbArc
50
0
51
180.00000497831306
0
LINE
5
171
100
AcDbEntity
8
0
100
AcDbLine
10
-538.2404102862896
20
-1523.0163821464084
30
0
11
-538.2404102862896
21
-1519.5063817387127
31
0
0
LINE
5
172
100
AcDbEntity
8
0
100
AcDbLine
10
-538.2404102862896
20
-1519.5063817387127
30
0
11
-535.6079115451397
21
-1519.5063817387127
31
0
0
LINE
5
173
100
AcDbEntity
8
0
100
AcDbLine
10
-534.73040719638482
20
-1520.3838819151424
30
0
11
-534.73040719638482
21
-1523.0163821464084
31
0
0
LINE
5
174
100
AcDbEntity
8
0
100
AcDbLine
10
-536.485411125523
20
-1523.0163821464084
30
0
11
-536.485411125523
21
-1519.5063817387127
31
0
0
ARC
5
175
100
AcDbEntity
8
0
100
AcDbCircle
10
-535.50256868014947
20
-1520.2785402422451
30
0
40
0.77931083738803864
210
-0
220
0
230
1
100
AcDbArc
50
-7.7686198232944514
51
97.76861868532086
0
LINE
5
176
100
AcDbEntity
8
0
100
AcDbLine
10
-532.97540803561822
20
-1517.7513816838764
30
0
11
-532.97540803561822
21
-1523.0163821464084
31
0
0
LINE
5
177
100
AcDbEntity
8
0
100
AcDbLine
10
-532.97540803561822
20
-1523.0163821464084
30
0
11
-531.51290555606499
21
-1523.0163821464084
31
0
0
LINE
5
178
100
AcDbEntity
8
0
100
AcDbLine
10
-530.63540597568169
20
-1522.1388819699787
30
0
11
-530.63540597568169
21
-1520.3838819151424
31
0
0
LINE
5
179
100
AcDbEntity
8
0
100
AcDbLine
10
-531.51290555606499
20
-1519.5063817387127
30
0
11
-532.97540803561822
21
-1519.5063817387127
31
0
0
ARC
5
180
100
AcDbEntity
8
0
100
AcDbCircle
10
-531.40756745944634
20
-1522.244223642876
30
0
40
0.77931083738803864
210
-0
220
0
230
1
100
AcDbArc
50
-97.76862915797517
51
7.7686161808485608
0
ARC
5
181
100
AcDbEntity
8
0
100
AcDbCircle
10
-531.40756745944634
20
-1520.2785402422451
30
0
40
0.77931083738803864
210
-0
220
0
230
1
100
AcDbArc
50
-7.7686198232944514
51
97.76861868532086
0
LINE
5
182
100
AcDbEntity
8
0
100
AcDbLine
10
-529.02665753970757
20
-1517.7513816838764
30
0
11
-529.02665753970757
21
-1522.1388819699787
31
0
0
ARC
5
183
100
AcDbEntity
8
0
100
AcDbCircle
10
-528.2545008243145
20
-1522.244223642876
30
0
40
0.77931083738803864
210
-0
220
0
230
1
100
AcDbArc
50
172.23138882811151
51
277.76860320370986
0
LINE
5
184
100
AcDbEntity
8
0
100
AcDbLine
10
-526.97915692935601
20
-1524.7713824992679
30
0
11
-526.39415403018609
21
-1524.7713824992679
31
0
0
LINE
5
185
100
AcDbEntity
8
0
100
AcDbLine
10
-526.39415403018609
20
-1524.7713824992679
30
0
11
-524.63915486941949
21
-1519.5063817387127
31
0
0
LINE
5
186
100
AcDbEntity
8
0
100
AcDbLine
10
-526.97915692935601
20
-1519.5063817387127
30
0
11
-525.80915589938775
21
-1523.0163821464084
31
0
0
LINE
5
187
100
AcDbEntity
8
0
100
AcDbLine
10
-520.83665509830132
20
-1517.7513816838764
30
0
11
-520.83665509830132
21
-1523.0163821464084
31
0
0
LINE
5
188
100
AcDbEntity
8
0
100
AcDbLine
10
-520.83665509830132
20
-1523.0163821464084
30
0
11
-519.3741526187481
21
-1523.0163821464084
31
0
0
LINE
5
189
100
AcDbEntity
8
0
100
AcDbLine
10
-518.4966530383648
20
-1522.1388819699787
30
0
11
-518.4966530383648
21
-1520.3838819151424
31
0
0
LINE
5
190
100
AcDbEntity
8
0
100
AcDbLine
10
-519.3741526187481
20
-1519.5063817387127
30
0
11
-520.83665509830132
21
-1519.5063817387127
31
0
0
ARC
5
191
100
AcDbEntity
8
0
100
AcDbCircle
10
-519.26881452212945
20
-1522.244223642876
30
0
40
0.77931083738803864
210
-0
220
0
230
1
100
AcDbArc
50
-97.76862915797517
51
7.7686161808485608
0
ARC
5
192
100
AcDbEntity
8
0
100
AcDbCircle
10
-519.26881452212945
20
-1520.2785402422451
30
0
40
0.77931083738803864
210
-0
220
0
230
1
100
AcDbArc
50
-7.7686198232944514
51
97.76861868532086
0
LINE
5
193
100
AcDbEntity
8
0
100
AcDbLine
10
-517.03415532718316
20
-1521.8463820105098
30
0
11
-517.03415532718316
21
-1520.6763818746113
31
0
0
LINE
5
194
100
AcDbEntity
8
0
100
AcDbLine
10
-514.69415326724663
20
-1520.6763818746113
30
0
11
-514.69415326724663
21
-1521.8463820105098
31
0
0
ARC
5
195
100
AcDbEntity
8
0
100
AcDbCircle
10
-515.8641542972149
20
-1520.6763818746113
30
0
40
1.1700000613927841
210
-0
220
0
230
1
100
AcDbArc
50
0
51
180.00000497831306
0
ARC
5
196
100
AcDbEntity
8
0
100
AcDbCircle
10
-515.8641542972149
20
-1521.8463820105098
30
0
40
1.1700000613927841
210
-0
220
0
230
1
100
AcDbArc
50
-179.99999502168694
51
0
0
LINE
5
197
100
AcDbEntity
8
0
100
AcDbLine
10
-513.37790628085747
20
-1523.0163821464084
30
0
11
-511.03790422092095
21
-1519.5063817387127
31
0
0
LINE
5
198
100
AcDbEntity
8
0
100
AcDbLine
10
-513.37790628085747
20
-1519.5063817387127
30
0
11
-511.03790422092095
21
-1523.0163821464084
31
0
0
LINE
5
199
100
AcDbEntity
8
0
100
AcDbLine
10
-507.23540444980279
20
-1517.7513816838766
30
0
11
-507.23540444980279
21
-1523.0163821464087
31
0
0
LINE
5
200
100
AcDbEntity
8
0
100
AcDbLine
10
-507.23540444980279
20
-1523.0163821464087
30
0
11
-505.77290197024956
21
-1523.0163821464087
31
0
0
LINE
5
201
100
AcDbEntity
8
0
100
AcDbLine
10
-504.89540238986626
20
-1522.1388819699789
30
0
11
-504.89540238986626
21
-1520.3838819151426
31
0
0
LINE
5
202
100
AcDbEntity
8
0
100
AcDbLine
10
-505.77290197024956
20
-1519.5063817387129
30
0
11
-507.23540444980279
21
-1519.5063817387129
31
0
0
ARC
5
203
100
AcDbEntity
8
0
100
AcDbCircle
10
-505.66756387363091
20
-1522.2442236428762
30
0
40
0.77931083738803864
210
-0
220
0
230
1
100
AcDbArc
50
-97.76862915797517
51
7.7686161808319962
0
ARC
5
204
100
AcDbEntity
8
0
100
AcDbCircle
10
-505.66756387363091
20
-1520.2785402422453
30
0
40
0.77931083738803864
210
-0
220
0
230
1
100
AcDbArc
50
-7.7686198233110417
51
97.768618685316738
0
LINE
5
205
100
AcDbEntity
8
0
100
AcDbLine
10
-503.43291421542779
20
-1521.8463820105101
30
0
11
-503.43291421542779
21
-1520.6763818746115
31
0
0
LINE
5
206
100
AcDbEntity
8
0
100
AcDbLine
10
-501.09291215549126
20
-1520.6763818746115
30
0
11
-501.09291215549126
21
-1521.8463820105101
31
0
0
ARC
5
207
100
AcDbEntity
8
0
100
AcDbCircle
10
-502.26290841708794
20
-1520.6763818746115
30
0
40
1.1700000613927841
210
-0
220
0
230
1
100
AcDbArc
50
0
51
180.00000497831306
0
ARC
5
208
100
AcDbEntity
8
0
100
AcDbCircle
10
-502.26290841708794
20
-1521.8463820105101
30
0
40
1.1700000613927841
210
-0
220
0
230
1
100
AcDbArc
50
-179.99999502168694
51
0
0
LINE
5
209
100
AcDbEntity
8
0
100
AcDbLine
10
-499.92290635715142
20
-1519.5063817387129
30
0
11
-498.16790719638482
21
-1519.5063817387129
31
0
0
LINE
5
210
100
AcDbEntity
8
0
100
AcDbLine
10
-499.3379034579815
20
-1517.7513816838766
30
0
11
-499.3379034579815
21
-1522.1388819699789
31
0
0
LINE
5
211
100
AcDbEntity
8
0
100
AcDbLine
10
-498.46039910922661
20
-1523.0163821464087
30
0
11
-498.16790719638482
21
-1523.0163821464087
31
0
0
ARC
5
212
100
AcDbEntity
8
0
100
AcDbCircle
10
-498.56574197421685
20
-1522.2442236428762
30
0
40
0.77931083738803864
210
-0
220
0
230
1
100
AcDbArc
50
172.23138882811151
51
277.76860320370344
0
LINE
5
213
100
AcDbEntity
8
0
100
AcDbLine
10
-497.1441664279522
20
-1519.5063817387129
30
0
11
-495.3891672671856
21
-1519.5063817387129
31
0
0
LINE
5
214
100
AcDbEntity
8
0
100
AcDbLine
10
-496.55916352878228
20
-1517.7513816838766
30
0
11
-496.55916352878228
21
-1522.1388819699789
31
0
0
LINE
5
215
100
AcDbEntity
8
0
100
AcDbLine
10
-495.6816591800274
20
-1523.0163821464087
30
0
11
-495.3891672671856
21
-1523.0163821464087
31
0
0
ARC
5
216
100
AcDbEntity
8
0
100
AcDbCircle
10
-495.78700204501763
20
-1522.2442236428762
30
0
40
0.77931083738803864
210
-0
220
0
230
1
100
AcDbArc
50
172.23138882811151
51
277.76860320370344
0
LINE
5
217
100
AcDbEntity
8
0
100
AcDbLine
10
-494.07290597568169
20
-1521.8463820105101
30
0
11
-494.07290597568169
21
-1520.6763818746115
31
0
0
LINE
5
218
100
AcDbEntity
8
0
100
AcDbLine
10
-491.73290391574517
20
-1520.6763818746115
30
0
11
-491.73290391574517
21
-1521.8463820105101
31
0
0
ARC
5
219
100
AcDbEntity
8
0
100
AcDbCircle
10
-492.90290017734185
20
-1520.6763818746115
30
0
40
1.1700000613927841
210
-0
220
0
230
1
100
AcDbArc
50
0
51
180.00000497831306
0
ARC
5
220
100
AcDbEntity
8
0
100
AcDbCircle
10
-492.90290017734185
20
-1521.8463820105101
30
0
40
1.1700000613927841
210
-0
220
0
230
1
100
AcDbArc
50
-179.99999502168694
51
0
0
LINE
5
221
100
AcDbEntity
8
0
100
AcDbLine
10
-490.12416024814263
20
-1523.0163821464087
30
0
11
-490.12416024814263
21
-1519.5063817387129
31
0
0
LINE
5
222
100
AcDbEntity
8
0
100
AcDbLine
10
-490.12416024814263
20
-1519.5063817387129
30
0
11
-487.49166627536431
21
-1519.5063817387129
31
0
0
LINE
5
223
100
AcDbEntity
8
0
100
AcDbLine
10
-486.61416192660943
20
-1520.3838819151426
30
0
11
-486.61416192660943
21
-1523.0163821464087
31
0
0
LINE
5
224
100
AcDbEntity
8
0
100
AcDbLine
10
-488.36916108737603
20
-1523.0163821464087
30
0
11
-488.36916108737603
21
-1519.5063817387129
31
0
0
ARC
5
225
100
AcDbEntity
8
0
100
AcDbCircle
10
-487.38632341037408
20
-1520.2785402422453
30
0
40
0.77931083738803864
210
-0
220
0
230
1
100
AcDbArc
50
-7.7686198233110417
51
97.768618685316738
0
LINE
5
226
100
AcDbEntity
8
0
100
AcDbLine
10
-484.71290727267876
20
-1523.0163821464087
30
0
11
-485.00540872226372
21
-1523.0163821464087
31
0
0
LINE
5
227
100
AcDbEntity
8
0
100
AcDbLine
10
-485.00540872226372
20
-1523.0163821464087
30
0
11
-485.00540872226372
21
-1522.7238818889166
31
0
0
LINE
5
228
100
AcDbEntity
8
0
100
AcDbLine
10
-485.00540872226372
20
-1522.7238818889166
30
0
11
-484.71290727267876
21
-1522.7238818889166
31
0
0
LINE
5
229
100
AcDbEntity
8
0
100
AcDbLine
10
-484.71290727267876
20
-1522.7238818889166
30
0
11
-484.71290727267876
21
-1523.0163821464087
31
0
0
LINE
5
230
100
AcDbEntity
8
0
100
AcDbLine
10
-484.71290727267876
20
-1523.0163821464087
30
0
11
-485.15165467868462
21
-1524.186381984284
31
0
0
LINE
5
231
100
AcDbEntity
8
0
100
AcDbLine
10
-480.9104075015606
20
-1518.9213818197752
30
0
11
-479.44790979037896
21
-1517.7513816838766
31
0
0
LINE
5
232
100
AcDbEntity
8
0
100
AcDbLine
10
-479.44790979037896
20
-1517.7513816838766
30
0
11
-479.44790979037896
21
-1523.0163821464087
31
0
0
LINE
5
233
100
AcDbEntity
8
0
100
AcDbLine
10
-480.9104075015606
20
-1523.0163821464087
30
0
11
-477.98540254245415
21
-1523.0163821464087
31
0
0
LINE
5
234
100
AcDbEntity
8
0
100
AcDbLine
10
-474.32914872775689
20
-1523.0163821464087
30
0
11
-471.98915620456353
21
-1519.5063817387129
31
0
0
LINE
5
235
100
AcDbEntity
8
0
100
AcDbLine
10
-474.32914872775689
20
-1519.5063817387129
30
0
11
-471.98915620456353
21
-1523.0163821464087
31
0
0
LINE
5
236
100
AcDbEntity
8
0
100
AcDbLine
10
-468.33291192660943
20
-1518.9213818197752
30
0
11
-466.87041421542779
21
-1517.7513816838766
31
0
0
LINE
5
237
100
AcDbEntity
8
0
100
AcDbLine
10
-466.87041421542779
20
-1517.7513816838766
30
0
11
-466.87041421542779
21
-1523.0163821464087
31
0
0
LINE
5
238
100
AcDbEntity
8
0
100
AcDbLine
10
-468.33291192660943
20
-1523.0163821464087
30
0
11
-465.40790696750298
21
-1523.0163821464087
31
0
0
LINE
5
239
100
AcDbEntity
8
0
100
AcDbLine
10
-461.45915170322075
20
-1520.0913819556738
30
0
11
-463.94539971957818
21
-1523.0163821464087
31
0
0
LINE
5
240
100
AcDbEntity
8
0
100
AcDbLine
10
-463.94539971957818
20
-1523.0163821464087
30
0
11
-461.02039476047173
21
-1523.0163821464087
31
0
0
ARC
5
241
100
AcDbEntity
8
0
100
AcDbCircle
10
-462.17863221774712
20
-1518.9096194391752
30
0
40
1.1689662933349609
210
-0
220
0
230
1
100
AcDbArc
50
-7.7686198233081409
51
97.768618685316
0
ARC
5
242
100
AcDbEntity
8
0
100
AcDbCircle
10
-462.51322885165825
20
-1519.199596632054
30
0
40
1.4589405059814451
210
-0
220
0
230
1
100
AcDbArc
50
83.048174495538589
51
169.00656965300902
0
ARC
5
243
100
AcDbEntity
8
0
100
AcDbCircle
10
-462.19103952060357
20
-1519.1718223577047
30
0
40
1.1752662807703018
210
-0
220
0
230
1
100
AcDbArc
50
-51.483278511491143
51
5.0861029267654381
0
LINE
5
244
100
AcDbEntity
8
0
100
AcDbLine
10
-457.0716394961895
20
-1523.0163821464087
30
0
11
-457.0716394961895
21
-1519.5063817387129
31
0
0
LINE
5
245
100
AcDbEntity
8
0
100
AcDbLine
10
-457.0716394961895
20
-1519.5063817387129
30
0
11
-454.43914552341118
21
-1519.5063817387129
31
0
0
LINE
5
246
100
AcDbEntity
8
0
100
AcDbLine
10
-453.5616411746563
20
-1520.3838819151426
30
0
11
-453.5616411746563
21
-1523.0163821464087
31
0
0
LINE
5
247
100
AcDbEntity
8
0
100
AcDbLine
10
-455.3166403354229
20
-1523.0163821464087
30
0
11
-455.3166403354229
21
-1519.5063817387129
31
0
0
ARC
5
248
100
AcDbEntity
8
0
100
AcDbCircle
10
-454.33380265842095
20
-1520.2785402422453
30
0
40
0.77931083738803864
210
-0
220
0
230
1
100
AcDbArc
50
-7.7686198233110417
51
97.768618685316738
0
LINE
5
249
100
AcDbEntity
8
0
100
AcDbLine
10
-451.80665155063286
20
-1523.0163821464087
30
0
11
-451.80665155063286
21
-1519.5063817387129
31
0
0
LINE
5
250
100
AcDbEntity
8
0
100
AcDbLine
10
-451.80665155063286
20
-1519.5063817387129
30
0
11
-449.17415757785454
21
-1519.5063817387129
31
0
0
LINE
5
251
100
AcDbEntity
8
0
100
AcDbLine
10
-448.29665322909966
20
-1520.3838819151426
30
0
11
-448.29665322909966
21
-1523.0163821464087
31
0
0
LINE
5
252
100
AcDbEntity
8
0
100
AcDbLine
10
-450.05165238986626
20
-1523.0163821464087
30
0
11
-450.05165238986626
21
-1519.5063817387129
31
0
0
ARC
5
253
100
AcDbEntity
8
0
100
AcDbCircle
10
-449.06881471286431
20
-1520.2785402422453
30
0
40
0.77931083738803864
210
-0
220
0
230
1
100
AcDbArc
50
-7.7686198233110417
51
97.768618685316738
0
LINE
5
254
100
AcDbEntity
8
0
100
AcDbLine
10
-444.20165200839654
20
-1524.7713824992682
30
0
11
-444.20165200839654
21
-1519.5063817387129
31
0
0
LINE
5
255
100
AcDbEntity
8
0
100
AcDbLine
10
-444.20165200839654
20
-1519.5063817387129
30
0
11
-442.7391542972149
21
-1519.5063817387129
31
0
0
LINE
5
256
100
AcDbEntity
8
0
100
AcDbLine
10
-441.86165948520318
20
-1520.3838819151426
30
0
11
-441.86165948520318
21
-1522.1388819699789
31
0
0
LINE
5
257
100
AcDbEntity
8
0
100
AcDbLine
10
-442.7391542972149
20
-1523.0163821464087
30
0
11
-444.20165200839654
21
-1523.0163821464087
31
0
0
ARC
5
258
100
AcDbEntity
8
0
100
AcDbCircle
10
-442.63381143222466
20
-1520.2785402422453
30
0
40
0.77931083738803864
210
-0
220
0
230
1
100
AcDbArc
50
-7.7686198233110417
51
97.768618685316738
0
ARC
5
259
100
AcDbEntity
8
0
100
AcDbCircle
10
-442.63381143222466
20
-1522.2442236428762
30
0
40
0.77931083738803864
210
-0
220
0
230
1
100
AcDbArc
50
-97.76862915797517
51
7.7686161808319962
0
LINE
5
260
100
AcDbEntity
8
0
100
AcDbLine
10
-440.25290628085747
20
-1517.7513816838766
30
0
11
-440.25290628085747
21
-1522.1388819699789
31
0
0
ARC
5
261
100
AcDbEntity
8
0
100
AcDbCircle
10
-439.48075433383599
20
-1522.2442236428762
30
0
40
0.77931083738803864
210
-0
220
0
230
1
100
AcDbArc
50
172.23138882811151
51
277.76860320370344
0
LINE
5
262
100
AcDbEntity
8
0
100
AcDbLine
10
-438.20539613376275
20
-1524.7713824992682
30
0
11
-437.62040277133599
21
-1524.7713824992682
31
0
0
LINE
5
263
100
AcDbEntity
8
0
100
AcDbLine
10
-437.62040277133599
20
-1524.7713824992682
30
0
11
-435.86540361056939
21
-1519.5063817387129
31
0
0
LINE
5
264
100
AcDbEntity
8
0
100
AcDbLine
10
-438.20539613376275
20
-1519.5063817387129
30
0
11
-437.03539987216607
21
-1523.0163821464087
31
0
0
ENDSEC
0
SECTION
2
OBJECTS
0
DICTIONARY
5
C
100
AcDbDictionary
3
ACAD_GROUP
350
D
3
ACAD_MLINESTYLE
350
17
0
DICTIONARY
5
D
100
AcDbDictionary
0
DICTIONARY
5
1A
330
C
100
AcDbDictionary
0
DICTIONARY
5
17
100
AcDbDictionary
0
ENDSEC
0
EOF
