0
SECTION
2
HEADER
9
$INSUNITS
70
4
9
$ACADVER
1
AC1014
9
$HANDSEED
5
FFFF
0
ENDSEC
0
SECTION
2
TABLES
0
TABLE
2
VPORT
5
8
100
AcDbSymbolTable
0
ENDTAB
0
TABLE
2
LTYPE
5
5
100
AcDbSymbolTable
0
LTYPE
5
14
100
AcDbSymbolTableRecord
100
AcDbLinetypeTableRecord
2
BYBLOCK
70
0
0
LTYPE
5
15
100
AcDbSymbolTableRecord
100
AcDbLinetypeTableRecord
2
BYLAYER
70
0
0
LTYPE
5
16
100
AcDbSymbolTableRecord
100
AcDbLinetypeTableRecord
2
DASHED
70
0
3
Dashed __ __ __ __ __ __ __ __ __ __ __ __ __ _
72
65
73
2
40
0.75
49
0.5
74
0
49
-0.25
74
0
0
ENDTAB
0
TABLE
2
LAYER
5
2
100
AcDbSymbolTable
70
3
0
LAYER
5
50
100
AcDbSymbolTableRecord
100
AcDbLayerTableRecord
2
1
70
0
62
7
6
DASHED
0
LAYER
5
51
100
AcDbSymbolTableRecord
100
AcDbLayerTableRecord
2
0
70
0
62
7
6
CONTINUOUS
0
ENDTAB
0
TABLE
2
STYLE
5
3
100
AcDbSymbolTable
70
1
0
STYLE
5
11
100
AcDbSymbolTableRecord
100
AcDbTextStyleTableRecord
2
STANDARD
70
0
0
ENDTAB
0
TABLE
2
VIEW
5
6
100
AcDbSymbolTable
70
0
0
ENDTAB
0
TABLE
2
UCS
5
7
100
AcDbSymbolTable
70
0
0
ENDTAB
0
TABLE
2
APPID
5
9
100
AcDbSymbolTable
70
2
0
APPID
5
12
100
AcDbSymbolTableRecord
100
AcDbRegAppTableRecord
2
ACAD
70
0
0
ENDTAB
0
TABLE
2
DIMSTYLE
5
A
100
AcDbSymbolTable
70
1
0
ENDTAB
0
TABLE
2
BLOCK_RECORD
5
1
100
AcDbSymbolTable
70
1
0
BLOCK_RECORD
5
1F
100
AcDbSymbolTableRecord
100
AcDbBlockTableRecord
2
*MODEL_SPACE
0
BLOCK_RECORD
5
1B
100
AcDbSymbolTableRecord
100
AcDbBlockTableRecord
2
*PAPER_SPACE
0
ENDTAB
0
ENDSEC
0
SECTION
2
BLOCKS
0
BLOCK
5
20
100
AcDbEntity
100
AcDbBlockBegin
2
*MODEL_SPACE
0
ENDBLK
5
21
100
AcDbEntity
100
AcDbBlockEnd
0
BLOCK
5
1C
100
AcDbEntity
100
AcDbBlockBegin
2
*PAPER_SPACE
0
ENDBLK
5
1D
100
AcDbEntity
100
AcDbBlockEnd
0
ENDSEC
0
SECTION
2
ENTITIES
0
CIRCLE
5
100
100
AcDbEntity
8
0
100
AcDbCircle
10
-701.17481135597404
20
-1014.8261712501716
30
0
40
1.5000000000000036
210
1.0718964825017229e-32
220
-3.0640630866918059e-28
230
1
0
CIRCLE
5
101
100
AcDbEntity
8
0
100
AcDbCircle
10
-705.7218656137137
20
-1028.8299934351421
30
0
40
1.5000000000000036
210
1.0718964825017229e-32
220
-3.0640630866918059e-28
230
1
0
LWPOLYLINE
5
102
100
AcDbEntity
8
0
100
AcDbPolyline
90
4
70
1
43
0.0
10
-723.66346445749843
20
-1038.8450599633536
10
-695.71347381438284
20
-1038.821595035075
10
-683.36703436315145
20
-1004.8112175168014
10
-723.69200855604618
20
-1004.8450716471791
0
LINE
5
103
100
AcDbEntity
8
1
100
AcDbLine
10
-722.66998078064648
20
-1031.0827937152017
30
0
11
-684.68382318633758
21
-1031.0509030976009
31
0
0
LINE
5
104
100
AcDbEntity
8
1
100
AcDbLine
10
-684.68382318633758
20
-1031.0509030976009
30
0
11
-684.70417224953871
21
-1006.812340792461
31
0
0
LINE
5
105
100
AcDbEntity
8
1
100
AcDbLine
10
-684.70417224953871
20
-1006.812340792461
30
0
11
-722.69032984384785
21
-1006.8442314100616
31
0
0
LINE
5
106
100
AcDbEntity
8
1
100
AcDbLine
10
-722.69032984384785
20
-1006.8442314100616
30
0
11
-722.66998078064648
21
-1031.0827937152017
31
0
0
LINE
5
107
100
AcDbEntity
8
0
100
AcDbLine
10
-722.10402038626808
20
-1008.4037396170893
30
0
11
-721.12902069112226
21
-1008.4029210730615
31
0
0
LINE
5
108
100
AcDbEntity
8
0
100
AcDbLine
10
-721.12738360319167
20
-1010.3529203143416
30
0
11
-722.1023832983376
21
-1010.3537388583695
31
0
0
LINE
5
109
100
AcDbEntity
8
0
100
AcDbLine
10
-722.1023832983376
20
-1010.3537388583695
30
0
11
-722.10533005656248
21
-1006.8437402836697
31
0
0
LINE
5
110
100
AcDbEntity
8
0
100
AcDbLine
10
-722.10533005656248
20
-1006.8437402836697
30
0
11
-721.13033036141655
21
-1006.842921739642
31
0
0
ARC
5
111
100
AcDbEntity
8
0
100
AcDbCircle
10
-721.12820214715703
20
-1009.3779206937016
30
0
40
0.97499996423721313
210
0
220
-0
230
1
100
AcDbArc
50
-89.951897653380385
51
90.048104167845366
0
ARC
5
112
100
AcDbEntity
8
0
100
AcDbCircle
10
-721.12967552614441
20
-1007.6229215553633
30
0
40
0.78000001609325409
210
0
220
-0
230
1
100
AcDbArc
50
-89.951897653378026
51
90.048104167840904
0
ARC
5
113
100
AcDbEntity
8
0
100
AcDbCircle
10
-718.30070348571905
20
-1009.3755469164024
30
0
40
0.97499996423721313
210
0
220
-0
230
1
100
AcDbArc
50
0.048101663363318607
51
180.04810667231936
0
ARC
5
114
100
AcDbEntity
8
0
100
AcDbCircle
10
-718.30070348571905
20
-1009.3755469164024
30
0
40
0.97499996423721313
210
0
220
-0
230
1
100
AcDbArc
50
-179.95189332768064
51
0.048101663363318607
0
ARC
5
115
100
AcDbEntity
8
0
100
AcDbCircle
10
-718.30217686470644
20
-1007.6205477780641
30
0
40
0.78000001609325409
210
0
220
-0
230
1
100
AcDbArc
50
0.048101663355741647
51
180.04810667232698
0
ARC
5
116
100
AcDbEntity
8
0
100
AcDbCircle
10
-718.30217686470644
20
-1007.6205477780641
30
0
40
0.78000001609325409
210
0
220
-0
230
1
100
AcDbArc
50
-179.95189332767305
51
0.048101663355741647
0
LINE
5
117
100
AcDbEntity
8
0
100
AcDbLine
10
-716.1548855975318
20
-1010.3487457401689
30
0
11
-716.34988570047369
21
-1010.3489094491119
31
0
0
LINE
5
118
100
AcDbEntity
8
0
100
AcDbLine
10
-716.34988570047369
20
-1010.3489094491122
30
0
11
-716.35004940916679
21
-1010.1539096441934
31
0
0
LINE
5
119
100
AcDbEntity
8
0
100
AcDbLine
10
-716.35004940916656
20
-1010.1539096441933
30
0
11
-716.15504930622467
21
-1010.1537459352501
31
0
0
LINE
5
120
100
AcDbEntity
8
0
100
AcDbLine
10
-716.15504930622478
20
-1010.1537459352501
30
0
11
-716.1548855975318
21
-1010.3487457401689
31
0
0
LINE
5
121
100
AcDbEntity
8
0
100
AcDbLine
10
-716.1548855975318
20
-1010.3487457401689
30
0
11
-716.44673091667232
21
-1011.1289911193048
31
0
0
LINE
5
122
100
AcDbEntity
8
0
100
AcDbLine
10
-713.52238659200111
20
-1010.3465356714377
30
0
11
-713.52435109756789
21
-1008.0065365222968
31
0
0
LINE
5
123
100
AcDbEntity
8
0
100
AcDbLine
10
-713.52435109756789
20
-1008.0065365222968
30
0
11
-712.35435167200887
21
-1008.0055542696384
31
0
0
LINE
5
124
100
AcDbEntity
8
0
100
AcDbLine
10
-712.35435167200899
20
-1008.0055542696385
30
0
11
-712.35402425437292
21
-1008.3955541774992
31
0
0
LINE
5
125
100
AcDbEntity
8
0
100
AcDbLine
10
-710.01238831532464
20
-1010.3435889134629
30
0
11
-710.98738763794154
21
-1010.3444074571779
31
0
0
LINE
5
126
100
AcDbEntity
8
0
100
AcDbLine
10
-711.57287788100393
20
-1009.7598988702272
30
0
11
-711.57369642509423
21
-1008.7848991005756
31
0
0
LINE
5
127
100
AcDbEntity
8
0
100
AcDbLine
10
-710.01369798574399
20
-1008.7835894310318
30
0
11
-710.01337056798275
21
-1009.1735894879041
31
0
0
LINE
5
128
100
AcDbEntity
8
0
100
AcDbLine
10
-710.01337056798275
20
-1009.1735894879041
30
0
11
-711.57336900733299
21
-1009.1748991574478
31
0
0
ARC
5
129
100
AcDbEntity
8
0
100
AcDbCircle
10
-711.05804716568116
20
-1009.8296943603982
30
0
40
0.51954049617052078
210
0
220
-0
230
1
100
AcDbArc
50
172.27949049147989
51
277.81670486707787
0
ARC
5
130
100
AcDbEntity
8
0
100
AcDbCircle
10
-710.79369720541922
20
-1008.7842442658036
30
0
40
0.78000001609325409
210
0
220
-0
230
1
100
AcDbArc
50
0.048101663355741647
51
180.04810667232698
0
LINE
5
131
100
AcDbEntity
8
0
100
AcDbLine
10
-707.47853532286626
20
-1008.9764611707026
30
0
11
-708.35603459401227
21
-1008.9771978599459
31
0
0
LINE
5
132
100
AcDbEntity
8
0
100
AcDbLine
10
-708.35488863241096
20
-1010.3421973884467
30
0
11
-707.47738936126495
21
-1010.3414606992033
31
0
0
LINE
5
133
100
AcDbEntity
8
0
100
AcDbLine
10
-707.47738936126495
20
-1010.3414606992033
30
0
11
-707.47886274037739
21
-1008.5864614118533
31
0
0
LINE
5
134
100
AcDbEntity
8
0
100
AcDbLine
10
-708.06435298356473
20
-1008.0019526758912
30
0
11
-708.84435339533229
21
-1008.0026075116639
31
0
0
ARC
5
135
100
AcDbEntity
8
0
100
AcDbCircle
10
-708.35546161321167
20
-1009.6596976241963
30
0
40
0.68249993026256561
210
0
220
-0
230
1
100
AcDbArc
50
90.048104167840933
51
270.04810234661699
0
ARC
5
136
100
AcDbEntity
8
0
100
AcDbCircle
10
-707.99369345582522
20
-1008.516665772671
30
0
40
0.51954049617052078
210
0
220
-0
230
1
100
AcDbArc
50
-7.7205181599441826
51
97.816720348680136
0
LINE
5
137
100
AcDbEntity
8
0
100
AcDbLine
10
-706.3073887436135
20
-1010.3404784455442
30
0
11
-706.30935324918028
21
-1008.0004792964032
31
0
0
LINE
5
138
100
AcDbEntity
8
0
100
AcDbLine
10
-706.30935324918028
20
-1008.0004792964032
30
0
11
-705.13935382362138
21
-1007.999497043745
31
0
0
LINE
5
139
100
AcDbEntity
8
0
100
AcDbLine
10
-705.13935382362138
20
-1007.9994970437451
30
0
11
-705.13902640598519
21
-1008.3894969516058
31
0
0
LINE
5
140
100
AcDbEntity
8
0
100
AcDbLine
10
-701.23739083549424
20
-1010.3362220170249
30
0
11
-702.21239135020369
21
-1010.3370405617408
31
0
0
LINE
5
141
100
AcDbEntity
8
0
100
AcDbLine
10
-702.79788159326597
20
-1009.75253197479
30
0
11
-702.79870013735626
21
-1008.7775322051384
31
0
0
LINE
5
142
100
AcDbEntity
8
0
100
AcDbLine
10
-701.23870050591381
20
-1008.7762225345938
30
0
11
-701.23837308815257
21
-1009.1662225914661
31
0
0
LINE
5
143
100
AcDbEntity
8
0
100
AcDbLine
10
-701.23837308815257
20
-1009.1662225914661
30
0
11
-702.79837271959525
21
-1009.1675322620107
31
0
0
ARC
5
144
100
AcDbEntity
8
0
100
AcDbCircle
10
-702.28305207003586
20
-1009.8223274659618
30
0
40
0.51954049617052078
210
0
220
-0
230
1
100
AcDbArc
50
172.27949049147989
51
277.81670486707787
0
ARC
5
145
100
AcDbEntity
8
0
100
AcDbCircle
10
-702.01870091768126
20
-1008.7768773703665
30
0
40
0.78000001609325409
210
0
220
-0
230
1
100
AcDbArc
50
0.048101663355741647
51
180.04810667232698
0
LINE
5
146
100
AcDbEntity
8
0
100
AcDbLine
10
-700.16783821963134
20
-1006.8253230441385
30
0
11
-700.16538258773551
21
-1009.7503219060588
31
0
0
ARC
5
147
100
AcDbEntity
8
0
100
AcDbCircle
10
-699.65055187241273
20
-1009.8201173962298
30
0
40
0.51954049617052078
210
0
220
-0
230
1
100
AcDbArc
50
172.27949049148168
51
277.81670486706543
0
LINE
5
148
100
AcDbEntity
8
0
100
AcDbLine
10
-697.14239344208454
20
-1010.3327841332215
30
0
11
-698.11739395679399
21
-1010.3336026779374
31
0
0
LINE
5
149
100
AcDbEntity
8
0
100
AcDbLine
10
-698.70288539194871
20
-1009.7490940919874
30
0
11
-698.70370393603912
21
-1008.7740943223357
31
0
0
LINE
5
150
100
AcDbEntity
8
0
100
AcDbLine
10
-697.14370311250389
20
-1008.7727846507903
30
0
11
-697.14337569474264
21
-1009.1627847076626
31
0
0
LINE
5
151
100
AcDbEntity
8
0
100
AcDbLine
10
-697.14337569474264
20
-1009.1627847076626
30
0
11
-698.70337651827776
21
-1009.1640943792079
31
0
0
ARC
5
152
100
AcDbEntity
8
0
100
AcDbCircle
10
-698.18805467662605
20
-1009.8188895821584
30
0
40
0.51954049617052078
210
0
220
-0
230
1
100
AcDbArc
50
172.27949049147989
51
277.81670486707952
0
ARC
5
153
100
AcDbEntity
8
0
100
AcDbCircle
10
-697.92370352427156
20
-1008.773439486563
30
0
40
0.78000001609325409
210
0
220
-0
230
1
100
AcDbArc
50
0.048101663370895574
51
180.04810667232698
0
LINE
5
154
100
AcDbEntity
8
0
100
AcDbLine
10
-696.26685867650508
20
-1007.9920482948371
30
0
11
-695.48489375917086
21
-1010.3313926082053
31
0
0
LINE
5
155
100
AcDbEntity
8
0
100
AcDbLine
10
-695.48489375917086
20
-1010.3313926082053
30
0
11
-694.70686023715484
21
-1007.9907386252934
31
0
0
LINE
5
156
100
AcDbEntity
8
0
100
AcDbLine
10
-692.26854159850848
20
-1008.9636918851445
30
0
11
-693.14604086965448
21
-1008.964428574388
31
0
0
LINE
5
157
100
AcDbEntity
8
0
100
AcDbLine
10
-693.14489490805317
20
-1010.3294281028889
30
0
11
-692.26739563690717
21
-1010.3286914136454
31
0
0
LINE
5
158
100
AcDbEntity
8
0
100
AcDbLine
10
-692.26739563690694
20
-1010.3286914136453
30
0
11
-692.26886901601938
21
-1008.5736921262953
31
0
0
LINE
5
159
100
AcDbEntity
8
0
100
AcDbLine
10
-692.85436045129939
20
-1007.9891833913339
30
0
11
-693.63436086306695
21
-1007.9898382271067
31
0
0
ARC
5
160
100
AcDbEntity
8
0
100
AcDbCircle
10
-693.14546788885377
20
-1009.6469283386384
30
0
40
0.68249993026256561
210
0
220
-0
230
1
100
AcDbArc
50
90.048104167840933
51
270.04810234660738
0
ARC
5
161
100
AcDbEntity
8
0
100
AcDbCircle
10
-692.78369973146721
20
-1008.503896487113
30
0
40
0.51954049617052078
210
0
220
-0
230
1
100
AcDbArc
50
-7.7205181599458612
51
97.81672034869257
0
LINE
5
162
100
AcDbEntity
8
0
100
AcDbLine
10
-691.39186325551259
20
-1007.9879555772627
30
0
11
-690.22186263786125
21
-1007.9869733236036
31
0
0
LINE
5
163
100
AcDbEntity
8
0
100
AcDbLine
10
-691.00284530228703
20
-1006.8176287338174
30
0
11
-691.00038967039131
21
-1009.7426275957378
31
0
0
LINE
5
164
100
AcDbEntity
8
0
100
AcDbLine
10
-690.41489823523648
20
-1010.3271361816876
30
0
11
-690.21989813229447
21
-1010.3269724727444
31
0
0
ARC
5
165
100
AcDbEntity
8
0
100
AcDbCircle
10
-690.48555895506865
20
-1009.8124230859087
30
0
40
0.51954049617052078
210
0
220
-0
230
1
100
AcDbArc
50
172.27949049147989
51
277.81670486707952
0
LINE
5
166
100
AcDbEntity
8
0
100
AcDbLine
10
-689.34305369642084
20
-1009.5462359677797
30
0
11
-689.34370853156804
21
-1008.76623630107
31
0
0
LINE
5
167
100
AcDbEntity
8
0
100
AcDbLine
10
-687.78370770803292
20
-1008.7649266295244
30
0
11
-687.78305287288572
21
-1009.5449262962342
31
0
0
ARC
5
168
100
AcDbEntity
8
0
100
AcDbCircle
10
-688.56370811980037
20
-1008.7655814652971
30
0
40
0.78000001609325409
210
0
220
-0
230
1
100
AcDbArc
50
0.048101663355741647
51
180.04810667232698
0
ARC
5
169
100
AcDbEntity
8
0
100
AcDbCircle
10
-688.56305328465328
20
-1009.5455811320069
30
0
40
0.78000001609325409
210
0
220
-0
230
1
100
AcDbArc
50
-179.95189332767305
51
0.048101663355741647
0
LINE
5
170
100
AcDbEntity
8
0
100
AcDbLine
10
-686.70989866352556
20
-1010.3240257137689
30
0
11
-686.71186316909234
21
-1007.984026564628
31
0
0
LINE
5
171
100
AcDbEntity
8
0
100
AcDbLine
10
-686.71186316909211
20
-1007.984026564628
30
0
11
-685.54186493562565
21
-1007.9830443129706
31
0
0
LINE
5
172
100
AcDbEntity
8
0
100
AcDbLine
10
-685.54186493562588
20
-1007.9830443129706
30
0
11
-685.54153751798958
21
-1008.3730442208312
31
0
0
LINE
5
173
100
AcDbEntity
8
0
100
AcDbLine
10
-720.92883677417319
20
-1014.577755259779
30
0
11
-721.90416373819392
21
-1014.1885735977979
31
0
0
ARC
5
174
100
AcDbEntity
8
0
100
AcDbCircle
10
-721.74562830662126
20
-1013.7132274030334
30
0
40
0.50108645111322403
210
0
220
-0
230
1
100
AcDbArc
50
85.92068915430032
51
251.55563837635432
0
ARC
5
175
100
AcDbEntity
8
0
100
AcDbCircle
10
-721.65052335726705
20
-1015.0245121953519
30
0
40
1.8120776116847992
210
0
220
-0
230
1
100
AcDbArc
50
63.158223141392867
51
91.880363884402897
0
ARC
5
176
100
AcDbEntity
8
0
100
AcDbCircle
10
-721.09178234739318
20
-1015.0522230079475
30
0
40
0.5016685277223587
210
0
220
-0
230
1
100
AcDbArc
50
-93.569766894470163
51
71.046108085527464
0
ARC
5
177
100
AcDbEntity
8
0
100
AcDbCircle
10
-721.30333577831175
20
-1013.488408158528
30
0
40
2.0723696053028107
210
0
220
-0
230
1
100
AcDbArc
50
244.49486201997823
51
274.99162934332492
0
LINE
5
178
100
AcDbEntity
8
0
100
AcDbLine
10
-719.85748321267511
20
-1013.2118553329665
30
0
11
-718.6874834890931
21
-1013.210873080058
31
0
0
LINE
5
179
100
AcDbEntity
8
0
100
AcDbLine
10
-719.46846555747265
20
-1012.0415284897715
30
0
11
-719.46600992582717
21
-1014.9665270536686
31
0
0
LINE
5
180
100
AcDbEntity
8
0
100
AcDbLine
10
-718.88051908671855
20
-1015.5510356401189
30
0
11
-718.68551898377655
21
-1015.5508719311757
31
0
0
ARC
5
181
100
AcDbEntity
8
0
100
AcDbCircle
10
-718.95117891223106
20
-1015.0363228416124
30
0
40
0.51954049617052078
210
0
220
-0
230
1
100
AcDbArc
50
172.27949049147989
51
277.81670486707952
0
LINE
5
182
100
AcDbEntity
8
0
100
AcDbLine
10
-717.80867454790291
20
-1014.7701354262109
30
0
11
-717.80932938317517
21
-1013.9901356104896
31
0
0
LINE
5
183
100
AcDbEntity
8
0
100
AcDbLine
10
-716.24932975173249
20
-1013.9888259399449
30
0
11
-716.24867491646023
21
-1014.7688257556663
31
0
0
ARC
5
184
100
AcDbEntity
8
0
100
AcDbCircle
10
-717.02932956745383
20
-1013.9894807752173
30
0
40
0.78000001609325409
210
0
220
-0
230
1
100
AcDbArc
50
0.048101663355741647
51
180.04810667232698
0
ARC
5
185
100
AcDbEntity
8
0
100
AcDbCircle
10
-717.02867473218157
20
-1014.7694805909387
30
0
40
0.78000001609325409
210
0
220
-0
230
1
100
AcDbArc
50
-179.95189332767305
51
0.048101663355741647
0
LINE
5
186
100
AcDbEntity
8
0
100
AcDbLine
10
-715.17453845444174
20
-1016.7179245987599
30
0
11
-715.17748521241651
21
-1013.2079263220833
31
0
0
LINE
5
187
100
AcDbEntity
8
0
100
AcDbLine
10
-715.17748521241651
20
-1013.2079263220833
30
0
11
-714.20248529375328
21
-1013.2071077778677
31
0
0
LINE
5
188
100
AcDbEntity
8
0
100
AcDbLine
10
-713.61699445464467
20
-1013.7916163643182
30
0
11
-713.61601220198634
21
-1014.9616157898771
31
0
0
LINE
5
189
100
AcDbEntity
8
0
100
AcDbLine
10
-714.20052078843685
20
-1015.5471066289856
30
0
11
-715.17552070710008
21
-1015.5479251732011
31
0
0
ARC
5
190
100
AcDbEntity
8
0
100
AcDbCircle
10
-714.13182576626377
20
-1013.7218205766246
30
0
40
0.51954049617052078
210
0
220
-0
230
1
100
AcDbArc
50
-7.720518159933496
51
97.81672034869257
0
ARC
5
191
100
AcDbEntity
8
0
100
AcDbCircle
10
-714.13072559628904
20
-1015.0322759139131
30
0
40
0.51954049617052078
210
0
220
-0
230
1
100
AcDbArc
50
-97.720527494595899
51
7.8167178442127465
0
LINE
5
192
100
AcDbEntity
8
0
100
AcDbLine
10
-712.4455216500985
20
-1015.5456332499982
30
0
11
-712.6405217530405
21
-1015.5457969589413
31
0
0
LINE
5
193
100
AcDbEntity
8
0
100
AcDbLine
10
-712.6405217530405
20
-1015.5457969589413
30
0
11
-712.64068546198359
21
-1015.3507968559994
31
0
0
LINE
5
194
100
AcDbEntity
8
0
100
AcDbLine
10
-712.64068546198359
20
-1015.3507968559995
30
0
11
-712.44568535904159
21
-1015.3506331470564
31
0
0
LINE
5
195
100
AcDbEntity
8
0
100
AcDbLine
10
-712.44568535904159
20
-1015.3506331470562
30
0
11
-712.4455216500985
21
-1015.5456332499982
31
0
0
LINE
5
196
100
AcDbEntity
8
0
100
AcDbLine
10
-712.4455216500985
20
-1015.5456332499982
30
0
11
-712.73736696923902
21
-1016.3258786291342
31
0
0
LINE
5
197
100
AcDbEntity
8
0
100
AcDbLine
10
-720.5352898432136
20
-1018.8024253041806
30
0
11
-722.19115213967314
21
-1020.753816666273
31
0
0
LINE
5
198
100
AcDbEntity
8
0
100
AcDbLine
10
-722.19115213967325
20
-1020.753816666273
30
0
11
-720.24115289839301
21
-1020.7521795783424
31
0
0
ARC
5
199
100
AcDbEntity
8
0
100
AcDbCircle
10
-721.01560948726797
20
-1018.0149871889192
30
0
40
0.77931083738803864
210
0
220
-0
230
1
100
AcDbArc
50
-7.7205181599241826
51
97.81672034868825
0
ARC
5
200
100
AcDbEntity
8
0
100
AcDbCircle
10
-721.23851034235986
20
-1018.2084925181659
30
0
40
0.97262687981128693
210
0
220
-0
230
1
100
AcDbArc
50
83.096276158896714
51
169.05467131637522
0
ARC
5
201
100
AcDbEntity
8
0
100
AcDbCircle
10
-721.02373019422771
20
-1018.1897966098519
30
0
40
0.78351080417633057
210
0
220
-0
230
1
100
AcDbArc
50
-51.435176848119347
51
5.1342045901361848
0
LINE
5
202
100
AcDbEntity
8
0
100
AcDbLine
10
-717.80365384679271
20
-1020.7501332184293
30
0
11
-716.24561901868958
21
-1018.4088246970171
31
0
0
LINE
5
203
100
AcDbEntity
8
0
100
AcDbLine
10
-717.80561835210915
20
-1018.4101343673115
30
0
11
-716.24365451337314
21
-1020.7488235481349
31
0
0
LINE
5
204
100
AcDbEntity
8
0
100
AcDbLine
10
-713.80779210316916
20
-1018.79677735052
30
0
11
-712.63779208156404
21
-1018.7957950973613
31
0
0
LINE
5
205
100
AcDbEntity
8
0
100
AcDbLine
10
-711.85713802611633
20
-1019.5751406743569
30
0
11
-711.85697431717313
21
-1019.7701407772989
31
0
0
LINE
5
206
100
AcDbEntity
8
0
100
AcDbLine
10
-713.80697355845336
20
-1019.7717778652294
30
0
11
-713.80779210316928
21
-1018.79677735052
31
0
0
ARC
5
207
100
AcDbEntity
8
0
100
AcDbCircle
10
-712.54357937791133
20
-1019.4820792264011
30
0
40
0.69272071123123169
210
0
220
-0
230
1
100
AcDbArc
50
-7.7205181599417907
51
97.816720348683049
0
ARC
5
208
100
AcDbEntity
8
0
100
AcDbCircle
10
-712.83197363979014
20
-1019.7709593210139
30
0
40
0.97499996423721313
210
0
220
-0
230
1
100
AcDbArc
50
-179.95189332768064
51
0.048101663363318607
0
ARC
5
209
100
AcDbEntity
8
0
100
AcDbCircle
10
-712.43522324904347
20
-1018.6083519427139
30
0
40
1.3854414224624634
210
0
220
-0
230
1
100
AcDbArc
50
82.279487987012629
51
187.81672285317057
0
LINE
5
210
100
AcDbEntity
8
0
100
AcDbLine
10
-709.22365557583498
20
-1020.7429300301839
30
0
11
-709.22562008115153
21
-1018.4029311790662
31
0
0
LINE
5
211
100
AcDbEntity
8
0
100
AcDbLine
10
-709.22562008115153
20
-1018.4029311790662
30
0
11
-707.47062153885952
21
-1018.4014578005791
31
0
0
LINE
5
212
100
AcDbEntity
8
0
100
AcDbLine
10
-706.88513010420502
20
-1018.9859657904829
30
0
11
-706.8836567247173
21
-1020.7409655248673
31
0
0
LINE
5
213
100
AcDbEntity
8
0
100
AcDbLine
10
-708.05365615027608
20
-1020.7419477775256
30
0
11
-708.05562065559252
21
-1018.401948926408
31
0
0
ARC
5
214
100
AcDbEntity
8
0
100
AcDbCircle
10
-707.39996201137001
20
-1018.9161705993358
30
0
40
0.51954049617052078
210
0
220
-0
230
1
100
AcDbArc
50
-7.7205181599458612
51
97.81672034869257
0
LINE
5
215
100
AcDbEntity
8
0
100
AcDbLine
10
-705.7136572991584
20
-1020.7399832722091
30
0
11
-705.71562180447484
21
-1018.3999844210914
31
0
0
LINE
5
216
100
AcDbEntity
8
0
100
AcDbLine
10
-705.71562180447484
20
-1018.3999844210914
30
0
11
-703.96062326218282
21
-1018.3985110426044
31
0
0
LINE
5
217
100
AcDbEntity
8
0
100
AcDbLine
10
-703.37513182752843
20
-1018.9830190325081
30
0
11
-703.37365844804071
21
-1020.7380187668925
31
0
0
LINE
5
218
100
AcDbEntity
8
0
100
AcDbLine
10
-704.5436578735995
20
-1020.7390010195509
30
0
11
-704.54562237891594
21
-1018.3990021684332
31
0
0
ARC
5
219
100
AcDbEntity
8
0
100
AcDbCircle
10
-703.88996254260087
20
-1018.9132238403603
30
0
40
0.51954049617052078
210
0
220
-0
230
1
100
AcDbArc
50
-7.7205181599458612
51
97.81672034869429
0
LINE
5
220
100
AcDbEntity
8
0
100
AcDbLine
10
-700.64267713838092
20
-1021.9057262692488
30
0
11
-700.64562389635569
21
-1018.3957279925721
31
0
0
LINE
5
221
100
AcDbEntity
8
0
100
AcDbLine
10
-700.64562389635557
20
-1018.3957279925721
30
0
11
-699.67062576583101
21
-1018.3949094498578
31
0
0
LINE
5
222
100
AcDbEntity
8
0
100
AcDbLine
10
-699.08513433117662
20
-1018.9794174397615
30
0
11
-699.08415207851829
21
-1020.1494168653204
31
0
0
LINE
5
223
100
AcDbEntity
8
0
100
AcDbLine
10
-699.66866126051457
20
-1020.7349083009756
30
0
11
-700.64365939103914
21
-1020.7357268436898
31
0
0
ARC
5
224
100
AcDbEntity
8
0
100
AcDbCircle
10
-699.59996504624905
20
-1018.9096222476137
30
0
40
0.51954049617052078
210
0
220
-0
230
1
100
AcDbArc
50
-7.7205181599458612
51
97.81672034869257
0
ARC
5
225
100
AcDbEntity
8
0
100
AcDbCircle
10
-699.59886487627432
20
-1020.2200775849024
30
0
40
0.51954049617052078
210
0
220
-0
230
1
100
AcDbArc
50
-97.720527494597576
51
7.8167178442251872
0
LINE
5
226
100
AcDbEntity
8
0
100
AcDbLine
10
-698.01410833557566
20
-1017.2235184992827
30
0
11
-698.0116527044305
21
-1020.1485164671337
31
0
0
ARC
5
227
100
AcDbEntity
8
0
100
AcDbCircle
10
-697.49682198835728
20
-1020.218312851374
30
0
40
0.51954049617052078
210
0
220
-0
230
1
100
AcDbArc
50
172.27949049147989
51
277.81670486707787
0
LINE
5
228
100
AcDbEntity
8
0
100
AcDbLine
10
-696.64518098853455
20
-1021.9023702409175
30
0
11
-696.25518078265077
21
-1021.9020428230313
31
0
0
LINE
5
229
100
AcDbEntity
8
0
100
AcDbLine
10
-696.25518078265077
20
-1021.9020428230313
30
0
11
-695.08812930715908
21
-1018.3910622946972
31
0
0
LINE
5
230
100
AcDbEntity
8
0
100
AcDbLine
10
-696.64812774650909
20
-1018.3923719642411
30
0
11
-695.86616282942498
21
-1020.7317159795862
31
0
0
ENDSEC
0
SECTION
2
OBJECTS
0
DICTIONARY
5
C
100
AcDbDictionary
3
ACAD_GROUP
350
D
3
ACAD_MLINESTYLE
350
17
0
DICTIONARY
5
D
100
AcDbDictionary
0
DICTIONARY
5
1A
330
C
100
AcDbDictionary
0
DICTIONARY
5
17
100
AcDbDictionary
0
ENDSEC
0
EOF
