0
SECTION
2
HEADER
9
$INSUNITS
70
4
9
$ACADVER
1
AC1014
9
$HANDSEED
5
FFFF
0
ENDSEC
0
SECTION
2
TABLES
0
TABLE
2
VPORT
5
8
100
AcDbSymbolTable
0
ENDTAB
0
TABLE
2
LTYPE
5
5
100
AcDbSymbolTable
0
LTYPE
5
14
100
AcDbSymbolTableRecord
100
AcDbLinetypeTableRecord
2
BYBLOCK
70
0
0
LTYPE
5
15
100
AcDbSymbolTableRecord
100
AcDbLinetypeTableRecord
2
BYLAYER
70
0
0
LTYPE
5
16
100
AcDbSymbolTableRecord
100
AcDbLinetypeTableRecord
2
DASHED
70
0
3
Dashed __ __ __ __ __ __ __ __ __ __ __ __ __ _
72
65
73
2
40
0.75
49
0.5
74
0
49
-0.25
74
0
0
ENDTAB
0
TABLE
2
LAYER
5
2
100
AcDbSymbolTable
70
3
0
LAYER
5
50
100
AcDbSymbolTableRecord
100
AcDbLayerTableRecord
2
1
70
0
62
7
6
DASHED
0
LAYER
5
51
100
AcDbSymbolTableRecord
100
AcDbLayerTableRecord
2
0
70
0
62
7
6
CONTINUOUS
0
ENDTAB
0
TABLE
2
STYLE
5
3
100
AcDbSymbolTable
70
1
0
STYLE
5
11
100
AcDbSymbolTableRecord
100
AcDbTextStyleTableRecord
2
STANDARD
70
0
0
ENDTAB
0
TABLE
2
VIEW
5
6
100
AcDbSymbolTable
70
0
0
ENDTAB
0
TABLE
2
UCS
5
7
100
AcDbSymbolTable
70
0
0
ENDTAB
0
TABLE
2
APPID
5
9
100
AcDbSymbolTable
70
2
0
APPID
5
12
100
AcDbSymbolTableRecord
100
AcDbRegAppTableRecord
2
ACAD
70
0
0
ENDTAB
0
TABLE
2
DIMSTYLE
5
A
100
AcDbSymbolTable
70
1
0
ENDTAB
0
TABLE
2
BLOCK_RECORD
5
1
100
AcDbSymbolTable
70
1
0
BLOCK_RECORD
5
1F
100
AcDbSymbolTableRecord
100
AcDbBlockTableRecord
2
*MODEL_SPACE
0
BLOCK_RECORD
5
1B
100
AcDbSymbolTableRecord
100
AcDbBlockTableRecord
2
*PAPER_SPACE
0
ENDTAB
0
ENDSEC
0
SECTION
2
BLOCKS
0
BLOCK
5
20
100
AcDbEntity
100
AcDbBlockBegin
2
*MODEL_SPACE
0
ENDBLK
5
21
100
AcDbEntity
100
AcDbBlockEnd
0
BLOCK
5
1C
100
AcDbEntity
100
AcDbBlockBegin
2
*PAPER_SPACE
0
ENDBLK
5
1D
100
AcDbEntity
100
AcDbBlockEnd
0
ENDSEC
0
SECTION
2
ENTITIES
0
LWPOLYLINE
5
100
100
AcDbEntity
8
0
100
AcDbPolyline
90
31
70
1
43
0.0
10
-509.17036207653246
20
-2105.4917806200533
42
0.99999999999999989
10
-511.62162193349724
20
-2110.968214232691
10
-511.62162193349718
20
-2124.2663388999749
42
0.99999999999999989
10
-509.05947788172466
20
-2129.6917806200531
10
-499.62162193349712
20
-2129.6917806200531
10
-499.6216219334969
20
-2349.2825472996578
42
-0.12904440678688978
10
-507.22620378733069
20
-2378.2568634016943
10
-510.38141432379541
20
-2383.8536603818097
42
-0.27739151512253868
10
-520.09512212931463
20
-2389.6918893031016
10
-569.62162193349718
20
-2389.6918893031011
42
-0.4142135623730992
10
-579.62162193349718
20
-2379.6918893031016
10
-579.62162193349718
20
-1835.1320915376364
42
-0.248369495726907
10
-575.24344643305062
20
-1826.861959174958
10
-568.02000560016813
20
-1821.9516488117729
10
-552.53241150406984
20
-1809.0453203983577
10
-538.80428124478362
20
-1793.5888628713433
10
-519.55422665942058
20
-1767.1440204476969
42
-0.72853074373476023
10
-499.62162193446034
20
-1773.563556419308
10
-499.62162193349712
20
-1809.4917806200535
10
-509.04746716549334
20
-1809.4917806200535
42
1.0000000074505806
10
-511.62162193349718
20
-1814.9115340489802
10
-511.62162193349718
20
-1828.2067186919348
42
0.99999999999999989
10
-509.18973056160144
20
-1833.6917806200538
10
-499.62162193349712
20
-1833.6917806200538
10
-499.62162193420909
20
-1927.5919412958597
10
-507.37898124708664
20
-1927.5919412958597
42
0.99999999999999989
10
-511.62162193420227
20
-1931.8345819829824
10
-511.62162193407914
20
-2007.556376100845
42
0.99999999999999989
10
-507.37191753509126
20
-2011.7919412958599
10
-499.62162193407221
20
-2011.7919412958599
10
-499.62162193349712
20
-2105.4917806200529
0
CIRCLE
5
101
100
AcDbEntity
8
0
100
AcDbCircle
10
-505.62162193349718
20
-2095.5917806200532
30
0
40
0.99999999999994316
210
0
220
-0
230
1
0
CIRCLE
5
102
100
AcDbEntity
8
0
100
AcDbCircle
10
-505.62162193349718
20
-1843.5917806200539
30
0
40
0.99999999999994316
210
0
220
-0
230
1
0
CIRCLE
5
103
100
AcDbEntity
8
0
100
AcDbCircle
10
-510.62162193349678
20
-1773.5634108245476
30
0
40
1.0000000000000142
210
-3.2713114522815311e-49
220
1.2325951644078309e-32
230
1
0
CIRCLE
5
104
100
AcDbEntity
8
0
100
AcDbCircle
10
-564.62162193349718
20
-2378.6918893031016
30
0
40
1.0000000000000142
210
-3.2713114522815311e-49
220
1.2325951644078309e-32
230
1
0
CIRCLE
5
105
100
AcDbEntity
8
0
100
AcDbCircle
10
-564.62162193349718
20
-1832.9423898855214
30
0
40
1.0000000000000142
210
-3.2713114522815311e-49
220
1.2325951644078309e-32
230
1
0
CIRCLE
5
106
100
AcDbEntity
8
0
100
AcDbCircle
10
-520.09512212931463
20
-2378.6918893031016
30
0
40
1.0000000000000142
210
-3.2713114522815311e-49
220
1.2325951644078309e-32
230
1
0
CIRCLE
5
107
100
AcDbEntity
8
0
100
AcDbCircle
10
-505.62162193404345
20
-2021.6919412958696
30
0
40
1.0000000000000142
210
3.081487911019578e-33
220
1.2325951644078309e-32
230
1
0
CIRCLE
5
108
100
AcDbEntity
8
0
100
AcDbCircle
10
-505.62162193413326
20
-1917.6919412958694
30
0
40
1.0000000000000142
210
3.081487911019578e-33
220
1.2325951644078309e-32
230
1
0
LINE
5
109
100
AcDbEntity
8
1
100
AcDbLine
10
-573.62162193349707
20
-2366.691889303102
30
0
11
-516.00000768899918
21
-2366.691889303102
31
0
0
LINE
5
110
100
AcDbEntity
8
1
100
AcDbLine
10
-516.00000768899918
20
-2366.691889303102
30
0
11
-516.00000768899918
21
-2320.6918886176486
31
0
0
LINE
5
111
100
AcDbEntity
8
1
100
AcDbLine
10
-516.00000768899918
20
-2320.6918886176486
30
0
11
-573.62162193349707
21
-2320.6918886176486
31
0
0
LINE
5
112
100
AcDbEntity
8
1
100
AcDbLine
10
-573.62162193349707
20
-2320.6918886176486
30
0
11
-573.62162193349707
21
-2366.691889303102
31
0
0
LINE
5
113
100
AcDbEntity
8
0
100
AcDbLine
10
-570.5503719120394
20
-2351.0918882361789
30
0
11
-571.72037189892637
21
-2351.0918882361789
31
0
0
LINE
5
114
100
AcDbEntity
8
0
100
AcDbLine
10
-572.89037188581335
20
-2349.9218872062106
30
0
11
-572.89037188581335
21
-2346.9968870154757
31
0
0
LINE
5
115
100
AcDbEntity
8
0
100
AcDbLine
10
-571.72037189892637
20
-2345.8268883696933
30
0
11
-570.5503719120394
21
-2345.8268883696933
31
0
0
ARC
5
116
100
AcDbEntity
8
0
100
AcDbCircle
10
-571.86082741311895
20
-2350.0623443595309
30
0
40
1.0390811413526535
210
0
220
0
230
1
100
AcDbArc
50
172.23138882810133
51
277.76860320370434
0
ARC
5
117
100
AcDbEntity
8
0
100
AcDbCircle
10
-571.86082741311895
20
-2346.8564322463412
30
0
40
1.0390811413526535
210
0
220
0
230
1
100
AcDbArc
50
82.231386323644031
51
187.76862118978593
0
LINE
5
118
100
AcDbEntity
8
0
100
AcDbLine
10
-569.23412164739477
20
-2346.9968870154757
30
0
11
-567.77162155202734
21
-2345.8268883696933
31
0
0
LINE
5
119
100
AcDbEntity
8
0
100
AcDbLine
10
-567.77162155202734
20
-2345.8268883696933
30
0
11
-567.77162155202734
21
-2351.0918882361789
31
0
0
LINE
5
120
100
AcDbEntity
8
0
100
AcDbLine
10
-569.23412164739477
20
-2351.0918882361789
30
0
11
-566.30912145665991
21
-2351.0918882361789
31
0
0
LINE
5
121
100
AcDbEntity
8
0
100
AcDbLine
10
-562.50662168554175
20
-2349.0443876258273
30
0
11
-563.8228710561167
21
-2349.0443876258273
31
0
0
LINE
5
122
100
AcDbEntity
8
0
100
AcDbLine
10
-563.8228710561167
20
-2351.0918882361789
30
0
11
-562.50662168554175
21
-2351.0918882361789
31
0
0
LINE
5
123
100
AcDbEntity
8
0
100
AcDbLine
10
-562.50662168554175
20
-2351.0918882361789
30
0
11
-562.50662168554175
21
-2348.4593871108432
31
0
0
LINE
5
124
100
AcDbEntity
8
0
100
AcDbLine
10
-563.38412126592505
20
-2347.5818875304599
30
0
11
-564.55412110380041
21
-2347.5818875304599
31
0
0
ARC
5
125
100
AcDbEntity
8
0
100
AcDbCircle
10
-563.8228710561167
20
-2350.0681379310031
30
0
40
1.0237500816583633
210
0
220
0
230
1
100
AcDbArc
50
90.000002504483845
51
270.00000068324181
0
ARC
5
126
100
AcDbEntity
8
0
100
AcDbCircle
10
-563.27877959302771
20
-2348.3540466300387
30
0
40
0.77931083738803864
210
0
220
0
230
1
100
AcDbArc
50
-7.7686198232944514
51
97.76861868532086
0
LINE
5
127
100
AcDbEntity
8
0
100
AcDbLine
10
-560.60537060788977
20
-2351.0918882361789
30
0
11
-560.89787086538183
21
-2351.0918882361789
31
0
0
LINE
5
128
100
AcDbEntity
8
0
100
AcDbLine
10
-560.89787086538183
20
-2351.0918882361789
30
0
11
-560.89787086538183
21
-2350.7993891707797
31
0
0
LINE
5
129
100
AcDbEntity
8
0
100
AcDbLine
10
-560.89787086538183
20
-2350.7993891707797
30
0
11
-560.60537060788977
21
-2350.7993891707797
31
0
0
LINE
5
130
100
AcDbEntity
8
0
100
AcDbLine
10
-560.60537060788977
20
-2350.7993891707797
30
0
11
-560.60537060788977
21
-2351.0918882361789
31
0
0
LINE
5
131
100
AcDbEntity
8
0
100
AcDbLine
10
-560.60537060788977
20
-2351.0918882361789
30
0
11
-561.04412039808142
21
-2352.2618892661471
31
0
0
LINE
5
132
100
AcDbEntity
8
0
100
AcDbLine
10
-556.65662130407202
20
-2351.0918882361789
30
0
11
-556.65662130407202
21
-2347.5818875304599
31
0
0
LINE
5
133
100
AcDbEntity
8
0
100
AcDbLine
10
-556.65662130407202
20
-2347.5818875304599
30
0
11
-554.90162095121252
21
-2347.5818875304599
31
0
0
LINE
5
134
100
AcDbEntity
8
0
100
AcDbLine
10
-554.90162095121252
20
-2347.5818875304599
30
0
11
-554.90162095121252
21
-2348.166888045444
31
0
0
LINE
5
135
100
AcDbEntity
8
0
100
AcDbLine
10
-551.39162143758642
20
-2351.0918882361789
30
0
11
-552.85412153295385
21
-2351.0918882361789
31
0
0
LINE
5
136
100
AcDbEntity
8
0
100
AcDbLine
10
-553.73162111333716
20
-2350.2143886557956
30
0
11
-553.73162111333716
21
-2348.7518885604281
31
0
0
LINE
5
137
100
AcDbEntity
8
0
100
AcDbLine
10
-551.39162143758642
20
-2348.7518885604281
30
0
11
-551.39162143758642
21
-2349.3368890754123
31
0
0
LINE
5
138
100
AcDbEntity
8
0
100
AcDbLine
10
-551.39162143758642
20
-2349.3368890754123
30
0
11
-553.73162111333716
21
-2349.3368890754123
31
0
0
ARC
5
139
100
AcDbEntity
8
0
100
AcDbCircle
10
-552.9594620137583
20
-2350.3197291366
30
0
40
0.77931083738803864
210
0
220
0
230
1
100
AcDbArc
50
172.2313888280961
51
277.76860320370162
0
ARC
5
140
100
AcDbEntity
8
0
100
AcDbCircle
10
-552.56162008336889
20
-2348.7518885604281
30
0
40
1.1700000613927841
210
0
220
0
230
1
100
AcDbArc
50
0
51
180.00000497831306
0
LINE
5
141
100
AcDbEntity
8
0
100
AcDbLine
10
-547.58911928228247
20
-2349.0443876258273
30
0
11
-548.90537103704321
21
-2349.0443876258273
31
0
0
LINE
5
142
100
AcDbEntity
8
0
100
AcDbLine
10
-548.90537103704321
20
-2351.0918882361789
30
0
11
-547.58911928228247
21
-2351.0918882361789
31
0
0
LINE
5
143
100
AcDbEntity
8
0
100
AcDbLine
10
-547.58911928228247
20
-2351.0918882361789
30
0
11
-547.58911928228247
21
-2348.4593871108432
31
0
0
LINE
5
144
100
AcDbEntity
8
0
100
AcDbLine
10
-548.46662124685156
20
-2347.5818875304599
30
0
11
-549.63661989263403
21
-2347.5818875304599
31
0
0
ARC
5
145
100
AcDbEntity
8
0
100
AcDbCircle
10
-548.90537103704321
20
-2350.0681379310031
30
0
40
1.0237500816583633
210
0
220
0
230
1
100
AcDbArc
50
90.000002504483845
51
270.00000068324181
0
ARC
5
146
100
AcDbEntity
8
0
100
AcDbCircle
10
-548.36127838186133
20
-2348.3540466300387
30
0
40
0.77931083738803864
210
0
220
0
230
1
100
AcDbArc
50
-7.7686198232944514
51
97.76861868532086
0
LINE
5
147
100
AcDbEntity
8
0
100
AcDbLine
10
-545.83412012151587
20
-2351.0918882361789
30
0
11
-545.83412012151587
21
-2347.5818875304599
31
0
0
LINE
5
148
100
AcDbEntity
8
0
100
AcDbLine
10
-545.83412012151587
20
-2347.5818875304599
30
0
11
-544.07911857656347
21
-2347.5818875304599
31
0
0
LINE
5
149
100
AcDbEntity
8
0
100
AcDbLine
10
-544.07911857656347
20
-2347.5818875304599
30
0
11
-544.07911857656347
21
-2348.166888045444
31
0
0
LINE
5
150
100
AcDbEntity
8
0
100
AcDbLine
10
-538.52161964467871
20
-2351.0918882361789
30
0
11
-539.69161829046118
21
-2351.0918882361789
31
0
0
LINE
5
151
100
AcDbEntity
8
0
100
AcDbLine
10
-540.56912025503027
20
-2350.2143886557956
30
0
11
-540.56912025503027
21
-2348.4593871108432
31
0
0
LINE
5
152
100
AcDbEntity
8
0
100
AcDbLine
10
-539.69161829046118
20
-2347.5818875304599
30
0
11
-538.52161964467871
21
-2347.5818875304599
31
0
0
ARC
5
153
100
AcDbEntity
8
0
100
AcDbCircle
10
-539.79696115545141
20
-2350.3197291366
30
0
40
0.77931083738803864
210
0
220
0
230
1
100
AcDbArc
50
172.2313888280961
51
277.76860320370162
0
ARC
5
154
100
AcDbEntity
8
0
100
AcDbCircle
10
-539.79696115545141
20
-2348.3540466300387
30
0
40
0.77931083738803864
210
0
220
0
230
1
100
AcDbArc
50
82.231386323650852
51
187.76862118979204
0
LINE
5
155
100
AcDbEntity
8
0
100
AcDbLine
10
-537.20536788991797
20
-2349.9218872062106
30
0
11
-537.20536788991797
21
-2348.7518885604281
31
0
0
LINE
5
156
100
AcDbEntity
8
0
100
AcDbLine
10
-534.86536821416723
20
-2348.7518885604281
30
0
11
-534.86536821416723
21
-2349.9218872062106
31
0
0
ARC
5
157
100
AcDbEntity
8
0
100
AcDbCircle
10
-536.0353692441355
20
-2348.7518885604281
30
0
40
1.1700000613927841
210
0
220
0
230
1
100
AcDbArc
50
0
51
180.00000497831306
0
ARC
5
158
100
AcDbEntity
8
0
100
AcDbCircle
10
-536.0353692441355
20
-2349.9218872062106
30
0
40
1.1700000613927841
210
0
220
0
230
1
100
AcDbArc
50
-179.99999502168694
51
0
0
LINE
5
159
100
AcDbEntity
8
0
100
AcDbLine
10
-533.25661739400732
20
-2351.0918882361789
30
0
11
-533.25661739400732
21
-2347.5818875304599
31
0
0
LINE
5
160
100
AcDbEntity
8
0
100
AcDbLine
10
-533.25661739400732
20
-2347.5818875304599
30
0
11
-531.79411968282568
21
-2347.5818875304599
31
0
0
LINE
5
161
100
AcDbEntity
8
0
100
AcDbLine
10
-530.91662010244238
20
-2348.4593871108432
30
0
11
-530.91662010244238
21
-2351.0918882361789
31
0
0
ARC
5
162
100
AcDbEntity
8
0
100
AcDbCircle
10
-531.68877681783545
20
-2348.3540466300387
30
0
40
0.77931083738803864
210
0
220
0
230
1
100
AcDbArc
50
-7.7686198232944514
51
97.76861868532086
0
LINE
5
163
100
AcDbEntity
8
0
100
AcDbLine
10
-529.60036834768164
20
-2347.5818875304599
30
0
11
-527.84536918691504
21
-2347.5818875304599
31
0
0
LINE
5
164
100
AcDbEntity
8
0
100
AcDbLine
10
-529.0153702168833
20
-2345.8268883696933
30
0
11
-529.0153702168833
21
-2350.2143886557956
31
0
0
LINE
5
165
100
AcDbEntity
8
0
100
AcDbLine
10
-528.1378706365
20
-2351.0918882361789
30
0
11
-527.84536918691504
21
-2351.0918882361789
31
0
0
ARC
5
166
100
AcDbEntity
8
0
100
AcDbCircle
10
-528.24321350149023
20
-2350.3197291366
30
0
40
0.77931083738803864
210
0
220
0
230
1
100
AcDbArc
50
172.2313888280961
51
277.76860320370162
0
LINE
5
167
100
AcDbEntity
8
0
100
AcDbLine
10
-526.3828714757334
20
-2351.0918882361789
30
0
11
-526.3828714757334
21
-2347.5818875304599
31
0
0
LINE
5
168
100
AcDbEntity
8
0
100
AcDbLine
10
-526.3828714757334
20
-2347.5818875304599
30
0
11
-524.62787231496679
21
-2347.5818875304599
31
0
0
LINE
5
169
100
AcDbEntity
8
0
100
AcDbLine
10
-524.62787231496679
20
-2347.5818875304599
30
0
11
-524.62787231496679
21
-2348.166888045444
31
0
0
LINE
5
170
100
AcDbEntity
8
0
100
AcDbLine
10
-523.45787128499853
20
-2349.9218872062106
30
0
11
-523.45787128499853
21
-2348.7518885604281
31
0
0
LINE
5
171
100
AcDbEntity
8
0
100
AcDbLine
10
-521.11786922506201
20
-2348.7518885604281
30
0
11
-521.11786922506201
21
-2349.9218872062106
31
0
0
ARC
5
172
100
AcDbEntity
8
0
100
AcDbCircle
10
-522.28787025503027
20
-2348.7518885604281
30
0
40
1.1700000613927841
210
0
220
0
230
1
100
AcDbArc
50
0
51
180.00000497831306
0
ARC
5
173
100
AcDbEntity
8
0
100
AcDbCircle
10
-522.28787025503027
20
-2349.9218872062106
30
0
40
1.1700000613927841
210
0
220
0
230
1
100
AcDbArc
50
-179.99999502168694
51
0
0
LINE
5
174
100
AcDbEntity
8
0
100
AcDbLine
10
-519.50912078908789
20
-2345.8268883696933
30
0
11
-519.50912078908789
21
-2350.2143886557956
31
0
0
ARC
5
175
100
AcDbEntity
8
0
100
AcDbCircle
10
-518.73696407369482
20
-2350.3197291366
30
0
40
0.77931083738803864
210
0
220
0
230
1
100
AcDbArc
50
172.2313888280961
51
277.76860320370162
0
LINE
5
176
100
AcDbEntity
8
0
100
AcDbLine
10
-570.5503719120394
20
-2356.8443897239108
30
0
11
-571.86662172964918
21
-2356.8443897239108
31
0
0
LINE
5
177
100
AcDbEntity
8
0
100
AcDbLine
10
-571.86662172964918
20
-2358.8918903342624
30
0
11
-570.5503719120394
21
-2358.8918903342624
31
0
0
LINE
5
178
100
AcDbEntity
8
0
100
AcDbLine
10
-570.5503719120394
20
-2358.8918903342624
30
0
11
-570.5503719120394
21
-2356.2593892089267
31
0
0
LINE
5
179
100
AcDbEntity
8
0
100
AcDbLine
10
-571.42787179044592
20
-2355.3818896285434
30
0
11
-572.5978718518387
21
-2355.3818896285434
31
0
0
ARC
5
180
100
AcDbEntity
8
0
100
AcDbCircle
10
-571.86662172964918
20
-2357.8681400290866
30
0
40
1.0237500816583633
210
0
220
0
230
1
100
AcDbArc
50
90.000002504483845
51
270.00000068324181
0
ARC
5
181
100
AcDbEntity
8
0
100
AcDbCircle
10
-571.32253011754858
20
-2356.1540487281222
30
0
40
0.77931083738803864
210
0
220
0
230
1
100
AcDbArc
50
-7.7686198232944514
51
97.76861868532086
0
LINE
5
182
100
AcDbEntity
8
0
100
AcDbLine
10
-567.04037150434363
20
-2357.4293902388949
30
0
11
-568.50287159971106
21
-2356.8443897239108
31
0
0
ARC
5
183
100
AcDbEntity
8
0
100
AcDbCircle
10
-568.26446970991003
20
-2356.1315706244845
30
0
40
0.75162976980209339
210
0
220
0
230
1
100
AcDbArc
50
85.87258749093435
51
251.50753671299475
0
ARC
5
184
100
AcDbEntity
8
0
100
AcDbCircle
10
-568.12346359781134
20
-2358.0986168853183
30
0
40
2.7181166410446167
210
0
220
0
230
1
100
AcDbArc
50
63.110121478033257
51
91.832262221038604
0
ARC
5
185
100
AcDbEntity
8
0
100
AcDbCircle
10
-567.28538712552893
20
-2358.1408861152072
30
0
40
0.75250290334224701
210
0
220
0
230
1
100
AcDbArc
50
-93.617868557842215
51
70.998006422155228
0
ARC
5
186
100
AcDbEntity
8
0
100
AcDbCircle
10
-567.60074814847815
20
-2355.7948997489352
30
0
40
3.1085547804832454
210
0
220
0
230
1
100
AcDbArc
50
244.44676035660888
51
274.94352767996111
0
LINE
5
187
100
AcDbEntity
8
0
100
AcDbLine
10
-563.23787173322546
20
-2357.4293902388949
30
0
11
-564.70037182859289
21
-2356.8443897239108
31
0
0
ARC
5
188
100
AcDbEntity
8
0
100
AcDbCircle
10
-564.46196993879187
20
-2356.1315706244845
30
0
40
0.75162976980209339
210
0
220
0
230
1
100
AcDbArc
50
85.87258749093435
51
251.50753671299475
0
ARC
5
189
100
AcDbEntity
8
0
100
AcDbCircle
10
-564.32096382669317
20
-2358.0986168853183
30
0
40
2.7181166410446167
210
0
220
0
230
1
100
AcDbArc
50
63.110121478033257
51
91.832262221038604
0
ARC
5
190
100
AcDbEntity
8
0
100
AcDbCircle
10
-563.48288735441076
20
-2358.1408861152072
30
0
40
0.75250290334224701
210
0
220
0
230
1
100
AcDbArc
50
-93.617868557842215
51
70.998006422155228
0
ARC
5
191
100
AcDbEntity
8
0
100
AcDbCircle
10
-563.79824837735998
20
-2355.7948997489352
30
0
40
3.1085547804832454
210
0
220
0
230
1
100
AcDbArc
50
244.44676035660888
51
274.94352767996111
0
LINE
5
192
100
AcDbEntity
8
0
100
AcDbLine
10
-558.99662217191565
20
-2358.8918903342624
30
0
11
-560.45912226728308
21
-2358.8918903342624
31
0
0
LINE
5
193
100
AcDbEntity
8
0
100
AcDbLine
10
-561.33662184766638
20
-2358.0143907538791
30
0
11
-561.33662184766638
21
-2356.5518906585116
31
0
0
LINE
5
194
100
AcDbEntity
8
0
100
AcDbLine
10
-558.99662217191565
20
-2356.5518906585116
30
0
11
-558.99662217191565
21
-2357.1368911734958
31
0
0
LINE
5
195
100
AcDbEntity
8
0
100
AcDbLine
10
-558.99662217191565
20
-2357.1368911734958
30
0
11
-561.33662184766638
21
-2357.1368911734958
31
0
0
ARC
5
196
100
AcDbEntity
8
0
100
AcDbCircle
10
-560.56446394018042
20
-2358.1197312346835
30
0
40
0.77931083738803864
210
0
220
0
230
1
100
AcDbArc
50
172.2313888280961
51
277.76860320370162
0
ARC
5
197
100
AcDbEntity
8
0
100
AcDbCircle
10
-560.16662200979101
20
-2356.5518906585116
30
0
40
1.1700000613927839
210
0
220
0
230
1
100
AcDbArc
50
0
51
180.00000497831306
0
LINE
5
198
100
AcDbEntity
8
0
100
AcDbLine
10
-557.38787254384863
20
-2358.8918903342624
30
0
11
-557.38787254384863
21
-2355.3818896285434
31
0
0
LINE
5
199
100
AcDbEntity
8
0
100
AcDbLine
10
-557.38787254384863
20
-2355.3818896285434
30
0
11
-554.75537141851294
21
-2355.3818896285434
31
0
0
LINE
5
200
100
AcDbEntity
8
0
100
AcDbLine
10
-553.87787183812964
20
-2356.2593892089267
30
0
11
-553.87787183812964
21
-2358.8918903342624
31
0
0
LINE
5
201
100
AcDbEntity
8
0
100
AcDbLine
10
-555.63287219098913
20
-2358.8918903342624
30
0
11
-555.63287219098913
21
-2355.3818896285434
31
0
0
ARC
5
202
100
AcDbEntity
8
0
100
AcDbCircle
10
-554.65003093770849
20
-2356.1540487281222
30
0
40
0.77931083738803864
210
0
220
0
230
1
100
AcDbArc
50
-7.7686198232944514
51
97.76861868532086
0
LINE
5
203
100
AcDbEntity
8
0
100
AcDbLine
10
-552.12287267736303
20
-2353.6268904677768
30
0
11
-552.12287267736303
21
-2358.8918903342624
31
0
0
LINE
5
204
100
AcDbEntity
8
0
100
AcDbLine
10
-552.12287267736303
20
-2358.8918903342624
30
0
11
-550.6603725819956
21
-2358.8918903342624
31
0
0
LINE
5
205
100
AcDbEntity
8
0
100
AcDbLine
10
-549.7828730016123
20
-2358.0143907538791
30
0
11
-549.7828730016123
21
-2356.2593892089267
31
0
0
LINE
5
206
100
AcDbEntity
8
0
100
AcDbLine
10
-550.6603725819956
20
-2355.3818896285434
30
0
11
-552.12287267736303
21
-2355.3818896285434
31
0
0
ARC
5
207
100
AcDbEntity
8
0
100
AcDbCircle
10
-550.55502971700537
20
-2358.1197312346835
30
0
40
0.77931083738803864
210
0
220
0
230
1
100
AcDbArc
50
-97.768629157977472
51
7.7686161808485608
0
ARC
5
208
100
AcDbEntity
8
0
100
AcDbCircle
10
-550.55502971700537
20
-2356.1540487281222
30
0
40
0.77931083738803864
210
0
220
0
230
1
100
AcDbArc
50
-7.7686198232944514
51
97.76861868532086
0
LINE
5
209
100
AcDbEntity
8
0
100
AcDbLine
10
-548.17412218145239
20
-2353.6268904677768
30
0
11
-548.17412218145239
21
-2358.0143907538791
31
0
0
ARC
5
210
100
AcDbEntity
8
0
100
AcDbCircle
10
-547.40196308187353
20
-2358.1197312346835
30
0
40
0.77931083738803864
210
0
220
0
230
1
100
AcDbArc
50
172.2313888280961
51
277.76860320370162
0
LINE
5
211
100
AcDbEntity
8
0
100
AcDbLine
10
-546.12662157110083
20
-2360.646889495029
30
0
11
-545.5416210561167
21
-2360.646889495029
31
0
0
LINE
5
212
100
AcDbEntity
8
0
100
AcDbLine
10
-545.5416210561167
20
-2360.646889495029
30
0
11
-543.78662189535009
21
-2355.3818896285434
31
0
0
LINE
5
213
100
AcDbEntity
8
0
100
AcDbLine
10
-546.12662157110083
20
-2355.3818896285434
30
0
11
-544.95662292531836
21
-2358.8918903342624
31
0
0
LINE
5
214
100
AcDbEntity
8
0
100
AcDbLine
10
-538.22912057927954
20
-2357.4293902388949
30
0
11
-539.69162067464697
21
-2356.8443897239108
31
0
0
ARC
5
215
100
AcDbEntity
8
0
100
AcDbCircle
10
-539.45322116903174
20
-2356.1315706244845
30
0
40
0.75162976980209351
210
0
220
0
230
1
100
AcDbArc
50
85.87258749093435
51
251.50753671299475
0
ARC
5
216
100
AcDbEntity
8
0
100
AcDbCircle
10
-539.3122132687937
20
-2358.0986168853183
30
0
40
2.7181166410446163
210
0
220
0
230
1
100
AcDbArc
50
63.110121478033257
51
91.832262221038604
0
ARC
5
217
100
AcDbEntity
8
0
100
AcDbCircle
10
-538.47413620046484
20
-2358.1408861152072
30
0
40
0.75250290334224701
210
0
220
0
230
1
100
AcDbArc
50
-93.617868557842215
51
70.998006422155228
0
ARC
5
218
100
AcDbEntity
8
0
100
AcDbCircle
10
-538.78949722341406
20
-2355.7948997489352
30
0
40
3.1085547804832458
210
0
220
0
230
1
100
AcDbArc
50
244.44676035660888
51
274.94352767996111
0
LINE
5
219
100
AcDbEntity
8
0
100
AcDbLine
10
-536.18162235311377
20
-2358.8918903342624
30
0
11
-536.18162235311377
21
-2355.3818896285434
31
0
0
LINE
5
220
100
AcDbEntity
8
0
100
AcDbLine
10
-536.32787307790625
20
-2353.9193895331759
30
0
11
-536.32787307790625
21
-2353.6268904677768
31
0
0
LINE
5
221
100
AcDbEntity
8
0
100
AcDbLine
10
-536.32787307790625
20
-2353.6268904677768
30
0
11
-536.03537162832129
21
-2353.6268904677768
31
0
0
LINE
5
222
100
AcDbEntity
8
0
100
AcDbLine
10
-536.03537162832129
20
-2353.6268904677768
30
0
11
-536.03537162832129
21
-2353.9193895331759
31
0
0
LINE
5
223
100
AcDbEntity
8
0
100
AcDbLine
10
-536.03537162832129
20
-2353.9193895331759
30
0
11
-536.32787307790625
21
-2353.9193895331759
31
0
0
LINE
5
224
100
AcDbEntity
8
0
100
AcDbLine
10
-532.23287185720312
20
-2353.6268904677768
30
0
11
-532.23287185720312
21
-2358.8918903342624
31
0
0
LINE
5
225
100
AcDbEntity
8
0
100
AcDbLine
10
-532.23287185720312
20
-2358.8918903342624
30
0
11
-533.69537195257055
21
-2358.8918903342624
31
0
0
LINE
5
226
100
AcDbEntity
8
0
100
AcDbLine
10
-534.57287391713965
20
-2358.0143907538791
30
0
11
-534.57287391713965
21
-2356.2593892089267
31
0
0
LINE
5
227
100
AcDbEntity
8
0
100
AcDbLine
10
-533.69537195257055
20
-2355.3818896285434
30
0
11
-532.23287185720312
21
-2355.3818896285434
31
0
0
ARC
5
228
100
AcDbEntity
8
0
100
AcDbCircle
10
-533.80071481756079
20
-2358.1197312346835
30
0
40
0.77931083738803864
210
0
220
0
230
1
100
AcDbArc
50
172.2313888280961
51
277.76860320370162
0
ARC
5
229
100
AcDbEntity
8
0
100
AcDbCircle
10
-533.80071481756079
20
-2356.1540487281222
30
0
40
0.77931083738803864
210
0
220
0
230
1
100
AcDbArc
50
82.231386323650852
51
187.76862118979204
0
LINE
5
230
100
AcDbEntity
8
0
100
AcDbLine
10
-528.28412136129248
20
-2358.8918903342624
30
0
11
-529.7466238408457
21
-2358.8918903342624
31
0
0
LINE
5
231
100
AcDbEntity
8
0
100
AcDbLine
10
-530.624123421229
20
-2358.0143907538791
30
0
11
-530.624123421229
21
-2356.5518906585116
31
0
0
LINE
5
232
100
AcDbEntity
8
0
100
AcDbLine
10
-528.28412136129248
20
-2356.5518906585116
30
0
11
-528.28412136129248
21
-2357.1368911734958
31
0
0
LINE
5
233
100
AcDbEntity
8
0
100
AcDbLine
10
-528.28412136129248
20
-2357.1368911734958
30
0
11
-530.624123421229
21
-2357.1368911734958
31
0
0
ARC
5
234
100
AcDbEntity
8
0
100
AcDbCircle
10
-529.85196193746435
20
-2358.1197312346835
30
0
40
0.77931083738803864
210
0
220
0
230
1
100
AcDbArc
50
172.2313888280961
51
277.76860320370162
0
ARC
5
235
100
AcDbEntity
8
0
100
AcDbCircle
10
-529.45412239126074
20
-2356.5518906585116
30
0
40
1.1700000613927841
210
0
220
0
230
1
100
AcDbArc
50
0
51
180.00000497831306
0
LINE
5
236
100
AcDbEntity
8
0
100
AcDbLine
10
-526.52912220052588
20
-2358.8918903342624
30
0
11
-526.82162365011084
21
-2358.8918903342624
31
0
0
LINE
5
237
100
AcDbEntity
8
0
100
AcDbLine
10
-526.82162365011084
20
-2358.8918903342624
30
0
11
-526.82162365011084
21
-2358.5993912688632
31
0
0
LINE
5
238
100
AcDbEntity
8
0
100
AcDbLine
10
-526.82162365011084
20
-2358.5993912688632
30
0
11
-526.52912220052588
21
-2358.5993912688632
31
0
0
LINE
5
239
100
AcDbEntity
8
0
100
AcDbLine
10
-526.52912220052588
20
-2358.5993912688632
30
0
11
-526.52912220052588
21
-2358.8918903342624
31
0
0
LINE
5
240
100
AcDbEntity
8
0
100
AcDbLine
10
-526.52912220052588
20
-2358.8918903342624
30
0
11
-526.96787437490332
21
-2360.0618913642306
31
0
0
LINE
5
241
100
AcDbEntity
8
0
100
AcDbLine
10
-570.40412178329336
20
-2363.7668874732394
30
0
11
-572.89037188581335
21
-2366.6918876639743
31
0
0
LINE
5
242
100
AcDbEntity
8
0
100
AcDbLine
10
-572.89037188581335
20
-2366.6918876639743
30
0
11
-569.96537169507849
21
-2366.6918876639743
31
0
0
ARC
5
243
100
AcDbEntity
8
0
100
AcDbCircle
10
-571.12360930136549
20
-2362.5851228705783
30
0
40
1.1689662933349609
210
0
220
0
230
1
100
AcDbArc
50
-7.7686198233081409
51
97.768618685317264
0
ARC
5
244
100
AcDbEntity
8
0
100
AcDbCircle
10
-571.45820429614889
20
-2362.8751018515964
30
0
40
1.4589405059814451
210
0
220
0
230
1
100
AcDbArc
50
83.048174495540806
51
169.00656965300018
0
ARC
5
245
100
AcDbEntity
8
0
100
AcDbCircle
10
-571.13601049474585
20
-2362.847326087131
30
0
40
1.1752662807703018
210
0
220
0
230
1
100
AcDbArc
50
-51.483278511486418
51
5.0861029267764879
0
LINE
5
246
100
AcDbEntity
8
0
100
AcDbLine
10
-566.30912145665991
20
-2366.6918876639743
30
0
11
-563.96912118486273
21
-2363.1818893424411
31
0
0
LINE
5
247
100
AcDbEntity
8
0
100
AcDbLine
10
-566.30912145665991
20
-2363.1818893424411
30
0
11
-563.96912118486273
21
-2366.6918876639743
31
0
0
LINE
5
248
100
AcDbEntity
8
0
100
AcDbLine
10
-560.3128715424906
20
-2362.5968864432712
30
0
11
-558.85037144712317
21
-2361.4268854133029
31
0
0
LINE
5
249
100
AcDbEntity
8
0
100
AcDbLine
10
-558.85037144712317
20
-2361.4268854133029
30
0
11
-558.85037144712317
21
-2366.6918876639743
31
0
0
LINE
5
250
100
AcDbEntity
8
0
100
AcDbLine
10
-560.3128715424906
20
-2366.6918876639743
30
0
11
-557.38787135175573
21
-2366.6918876639743
31
0
0
LINE
5
251
100
AcDbEntity
8
0
100
AcDbLine
10
-553.43912204793799
20
-2363.7668874732394
30
0
11
-555.9253712563883
21
-2366.6918876639743
31
0
0
LINE
5
252
100
AcDbEntity
8
0
100
AcDbLine
10
-555.9253712563883
20
-2366.6918876639743
30
0
11
-553.00036987356054
21
-2366.6918876639743
31
0
0
ARC
5
253
100
AcDbEntity
8
0
100
AcDbCircle
10
-554.15860852292883
20
-2362.5851228705783
30
0
40
1.1689662933349609
210
0
220
0
230
1
100
AcDbArc
50
-7.7686198233081409
51
97.768618685317264
0
ARC
5
254
100
AcDbEntity
8
0
100
AcDbCircle
10
-554.49320396474707
20
-2362.8751018515964
30
0
40
1.4589405059814451
210
0
220
0
230
1
100
AcDbArc
50
83.048174495540806
51
169.00656965300018
0
ARC
5
255
100
AcDbEntity
8
0
100
AcDbCircle
10
-554.1710098653208
20
-2362.847326087131
30
0
40
1.1752662807703018
210
0
220
0
230
1
100
AcDbArc
50
-51.483278511486418
51
5.0861029267764879
0
LINE
5
256
100
AcDbEntity
8
0
100
AcDbLine
10
-549.05162176183569
20
-2366.6918876639743
30
0
11
-549.05162176183569
21
-2363.1818893424411
31
0
0
LINE
5
257
100
AcDbEntity
8
0
100
AcDbLine
10
-549.05162176183569
20
-2363.1818893424411
30
0
11
-546.4191206365
21
-2363.1818893424411
31
0
0
LINE
5
258
100
AcDbEntity
8
0
100
AcDbLine
10
-545.5416210561167
20
-2364.0593889228244
30
0
11
-545.5416210561167
21
-2366.6918876639743
31
0
0
LINE
5
259
100
AcDbEntity
8
0
100
AcDbLine
10
-547.2966202168833
20
-2366.6918876639743
30
0
11
-547.2966202168833
21
-2363.1818893424411
31
0
0
ARC
5
260
100
AcDbEntity
8
0
100
AcDbCircle
10
-546.31378015569555
20
-2363.9540460578341
30
0
40
0.77931083738803864
210
0
220
0
230
1
100
AcDbArc
50
-7.7686198232944514
51
97.76861868532086
0
LINE
5
261
100
AcDbEntity
8
0
100
AcDbLine
10
-543.78662189535009
20
-2366.6918876639743
30
0
11
-543.78662189535009
21
-2363.1818893424411
31
0
0
LINE
5
262
100
AcDbEntity
8
0
100
AcDbLine
10
-543.78662189535009
20
-2363.1818893424411
30
0
11
-541.1541207700144
21
-2363.1818893424411
31
0
0
LINE
5
263
100
AcDbEntity
8
0
100
AcDbLine
10
-540.2766211896311
20
-2364.0593889228244
30
0
11
-540.2766211896311
21
-2366.6918876639743
31
0
0
LINE
5
264
100
AcDbEntity
8
0
100
AcDbLine
10
-542.0316203503977
20
-2366.6918876639743
30
0
11
-542.0316203503977
21
-2363.1818893424411
31
0
0
ARC
5
265
100
AcDbEntity
8
0
100
AcDbCircle
10
-541.04878028920996
20
-2363.9540460578341
30
0
40
0.77931083738803864
210
0
220
0
230
1
100
AcDbArc
50
-7.7686198232944514
51
97.76861868532086
0
LINE
5
266
100
AcDbEntity
8
0
100
AcDbLine
10
-536.18162235311377
20
-2368.4468868247409
30
0
11
-536.18162235311377
21
-2363.1818893424411
31
0
0
LINE
5
267
100
AcDbEntity
8
0
100
AcDbLine
10
-536.18162235311377
20
-2363.1818893424411
30
0
11
-534.71912225774633
21
-2363.1818893424411
31
0
0
LINE
5
268
100
AcDbEntity
8
0
100
AcDbLine
10
-533.84162267736303
20
-2364.0593889228244
30
0
11
-533.84162267736303
21
-2365.814388083591
31
0
0
LINE
5
269
100
AcDbEntity
8
0
100
AcDbLine
10
-534.71912225774633
20
-2366.6918876639743
30
0
11
-536.18162235311377
21
-2366.6918876639743
31
0
0
ARC
5
270
100
AcDbEntity
8
0
100
AcDbCircle
10
-534.6137793927561
20
-2363.9540460578341
30
0
40
0.77931083738803864
210
0
220
0
230
1
100
AcDbArc
50
-7.7686198232944514
51
97.76861868532086
0
ARC
5
271
100
AcDbEntity
8
0
100
AcDbCircle
10
-534.6137793927561
20
-2365.9197309485812
30
0
40
0.77931083738803864
210
0
220
0
230
1
100
AcDbArc
50
-97.768629157977472
51
7.7686161808485608
0
LINE
5
272
100
AcDbEntity
8
0
100
AcDbLine
10
-532.23287185720312
20
-2361.4268854133029
30
0
11
-532.23287185720312
21
-2365.814388083591
31
0
0
ARC
5
273
100
AcDbEntity
8
0
100
AcDbCircle
10
-531.46071514181006
20
-2365.9197309485812
30
0
40
0.77931083738803864
210
0
220
0
230
1
100
AcDbArc
50
172.2313888280961
51
277.76860320370162
0
LINE
5
274
100
AcDbEntity
8
0
100
AcDbLine
10
-530.18537124685156
20
-2368.4468868247409
30
0
11
-529.60036834768164
21
-2368.4468868247409
31
0
0
LINE
5
275
100
AcDbEntity
8
0
100
AcDbLine
10
-529.60036834768164
20
-2368.4468868247409
30
0
11
-527.84536918691504
21
-2363.1818893424411
31
0
0
LINE
5
276
100
AcDbEntity
8
0
100
AcDbLine
10
-530.18537124685156
20
-2363.1818893424411
30
0
11
-529.0153702168833
21
-2366.6918876639743
31
0
0
ENDSEC
0
SECTION
2
OBJECTS
0
DICTIONARY
5
C
100
AcDbDictionary
3
ACAD_GROUP
350
D
3
ACAD_MLINESTYLE
350
17
0
DICTIONARY
5
D
100
AcDbDictionary
0
DICTIONARY
5
1A
330
C
100
AcDbDictionary
0
DICTIONARY
5
17
100
AcDbDictionary
0
ENDSEC
0
EOF
