0
SECTION
2
HEADER
9
$INSUNITS
70
4
9
$ACADVER
1
AC1014
9
$HANDSEED
5
FFFF
0
ENDSEC
0
SECTION
2
TABLES
0
TABLE
2
VPORT
5
8
100
AcDbSymbolTable
0
ENDTAB
0
TABLE
2
LTYPE
5
5
100
AcDbSymbolTable
0
LTYPE
5
14
100
AcDbSymbolTableRecord
100
AcDbLinetypeTableRecord
2
BYBLOCK
70
0
0
LTYPE
5
15
100
AcDbSymbolTableRecord
100
AcDbLinetypeTableRecord
2
BYLAYER
70
0
0
LTYPE
5
16
100
AcDbSymbolTableRecord
100
AcDbLinetypeTableRecord
2
DASHED
70
0
3
Dashed __ __ __ __ __ __ __ __ __ __ __ __ __ _
72
65
73
2
40
0.75
49
0.5
74
0
49
-0.25
74
0
0
ENDTAB
0
TABLE
2
LAYER
5
2
100
AcDbSymbolTable
70
3
0
LAYER
5
50
100
AcDbSymbolTableRecord
100
AcDbLayerTableRecord
2
1
70
0
62
7
6
DASHED
0
LAYER
5
51
100
AcDbSymbolTableRecord
100
AcDbLayerTableRecord
2
0
70
0
62
7
6
CONTINUOUS
0
ENDTAB
0
TABLE
2
STYLE
5
3
100
AcDbSymbolTable
70
1
0
STYLE
5
11
100
AcDbSymbolTableRecord
100
AcDbTextStyleTableRecord
2
STANDARD
70
0
0
ENDTAB
0
TABLE
2
VIEW
5
6
100
AcDbSymbolTable
70
0
0
ENDTAB
0
TABLE
2
UCS
5
7
100
AcDbSymbolTable
70
0
0
ENDTAB
0
TABLE
2
APPID
5
9
100
AcDbSymbolTable
70
2
0
APPID
5
12
100
AcDbSymbolTableRecord
100
AcDbRegAppTableRecord
2
ACAD
70
0
0
ENDTAB
0
TABLE
2
DIMSTYLE
5
A
100
AcDbSymbolTable
70
1
0
ENDTAB
0
TABLE
2
BLOCK_RECORD
5
1
100
AcDbSymbolTable
70
1
0
BLOCK_RECORD
5
1F
100
AcDbSymbolTableRecord
100
AcDbBlockTableRecord
2
*MODEL_SPACE
0
BLOCK_RECORD
5
1B
100
AcDbSymbolTableRecord
100
AcDbBlockTableRecord
2
*PAPER_SPACE
0
ENDTAB
0
ENDSEC
0
SECTION
2
BLOCKS
0
BLOCK
5
20
100
AcDbEntity
100
AcDbBlockBegin
2
*MODEL_SPACE
0
ENDBLK
5
21
100
AcDbEntity
100
AcDbBlockEnd
0
BLOCK
5
1C
100
AcDbEntity
100
AcDbBlockBegin
2
*PAPER_SPACE
0
ENDBLK
5
1D
100
AcDbEntity
100
AcDbBlockEnd
0
ENDSEC
0
SECTION
2
ENTITIES
0
POINT
5
100
100
AcDbEntity
8
0
100
AcDbPoint
10
-486.00018167311964
20
-311.00019321823663
30
0
0
LWPOLYLINE
5
101
100
AcDbEntity
8
0
100
AcDbPolyline
90
17
70
1
43
0.0
10
-470.00018167311976
20
-44.93701124033619
42
0.41421356237309503
10
-476.00018167311981
20
-38.937011240336176
10
-524.00017979404356
20
-38.937011240336204
42
-0.41421356237309503
10
-530.00017979404356
20
-32.93701124033619
10
-530.00017979404356
20
-15.000193218236255
42
0.41421356237308887
10
-536.00017979404356
20
-9.000193218236225
10
-584.00018167311953
20
-9.0001932182362498
42
0.41421356237308915
10
-590.00018167311953
20
-15.000193218236282
10
-590.00018167311976
20
-359.00019321823663
10
-576.30054689010785
20
-359.00019321823692
42
-0.99999999999999989
10
-571.90018167311985
20
-363.07901485654355
10
-571.90018167311973
20
-371.00019321823663
10
-488.10018167311972
20
-371.00019321823663
10
-488.10018167311966
20
-363.22245839928371
42
-0.99999999999999989
10
-483.83726286778017
20
-359.00019321823663
10
-470.0001816731197
20
-359.00019321823663
10
-470.00018167311964
20
-89.010193218236367
0
CIRCLE
5
102
100
AcDbEntity
8
0
100
AcDbCircle
10
-574.00018167311964
20
-223.00019321823638
30
0
40
1.0000000000000142
210
0
220
-0
230
1
0
CIRCLE
5
103
100
AcDbEntity
8
0
100
AcDbCircle
10
-486.00018167311964
20
-311.00019321823663
30
0
40
0.99999999999999645
210
0
220
-0
230
1
0
CIRCLE
5
104
100
AcDbEntity
8
0
100
AcDbCircle
10
-574.00018167311964
20
-311.00019321823663
30
0
40
0.99999999999999645
210
0
220
-0
230
1
0
CIRCLE
5
105
100
AcDbEntity
8
0
100
AcDbCircle
10
-486.00018167311964
20
-223.00019321823638
30
0
40
1.0000000000000142
210
0
220
-0
230
1
0
CIRCLE
5
106
100
AcDbEntity
8
0
100
AcDbCircle
10
-503.0001816731197
20
-365.00019321823657
30
0
40
0.99999999999999645
210
0
220
-0
230
1
0
CIRCLE
5
107
100
AcDbEntity
8
0
100
AcDbCircle
10
-557.00018167311964
20
-365.00019321823675
30
0
40
0.99999999999999645
210
0
220
-0
230
1
0
LWPOLYLINE
5
108
100
AcDbEntity
8
0
100
AcDbPolyline
90
16
70
1
43
0.0
10
-578.06581748471967
20
-204.00000303983688
10
-481.54000713761957
20
-204.00000303983637
42
-0.41421356237309503
10
-479.0000071376196
20
-206.54000303983636
10
-479.00000713761972
20
-326.12667156418178
42
-0.41421356237334905
10
-481.54000713761957
20
-328.66667156418174
10
-578.06629818995373
20
-328.66667156413661
42
-0.41421356237284107
10
-580.60629818995369
20
-326.12667156413659
10
-580.60629818995358
20
-308.31276012979572
42
-0.4142135623731073
10
-578.06629818995373
20
-305.7727601297957
10
-570.31829818995357
20
-305.7727601297957
42
0.41421356237308682
10
-567.7782981899536
20
-303.23276012979568
10
-567.7782981899536
20
-254.85533454341129
42
0.4142135623731073
10
-570.31829818995357
20
-252.3153345434113
10
-578.06581748471967
20
-252.31533454341132
42
-0.41421356237308682
10
-580.60581748471964
20
-249.77533454341128
10
-580.60581748471964
20
-206.5400030398369
42
-0.41421356237307044
0
LINE
5
109
100
AcDbEntity
8
1
100
AcDbLine
10
-481.00000713761966
20
-305.00019321823663
30
0
11
-481.00000713761972
21
-229.90615820275164
31
0
0
LINE
5
110
100
AcDbEntity
8
1
100
AcDbLine
10
-481.00000713761972
20
-229.90615820275164
30
0
11
-495.00000737607479
21
-229.90615820275164
31
0
0
LINE
5
111
100
AcDbEntity
8
1
100
AcDbLine
10
-495.00000737607479
20
-229.90615820275164
30
0
11
-495.00000737607479
21
-305.00019321823663
31
0
0
LINE
5
112
100
AcDbEntity
8
1
100
AcDbLine
10
-495.00000737607479
20
-305.00019321823663
30
0
11
-481.00000713761966
21
-305.00019321823663
31
0
0
LINE
5
113
100
AcDbEntity
8
1
100
AcDbLine
10
-476.00018167311964
20
-198.00000303983691
30
0
11
-476.00018167311964
21
-61.80593669668891
31
0
0
LINE
5
114
100
AcDbEntity
8
1
100
AcDbLine
10
-476.00018167311964
20
-61.80593669668891
30
0
11
-511.88009954814879
21
-61.80593669668891
31
0
0
LINE
5
115
100
AcDbEntity
8
1
100
AcDbLine
10
-511.88009954814879
20
-61.80593669668891
30
0
11
-511.88009954814879
21
-198.00000303983691
31
0
0
LINE
5
116
100
AcDbEntity
8
1
100
AcDbLine
10
-511.88009954814879
20
-198.00000303983691
30
0
11
-476.00018167311964
21
-198.00000303983691
31
0
0
LINE
5
117
100
AcDbEntity
8
0
100
AcDbLine
10
-481.00000761449331
20
-304.70769322151489
30
0
11
-484.51000712811941
21
-303.53769327188081
31
0
0
LINE
5
118
100
AcDbEntity
8
0
100
AcDbLine
10
-484.51000712811941
20
-303.53769327188081
30
0
11
-481.00000761449331
21
-302.36769328499383
31
0
0
LINE
5
119
100
AcDbEntity
8
0
100
AcDbLine
10
-481.87750719487661
20
-302.66019324446268
30
0
11
-481.87750719487661
21
-304.41519322479314
31
0
0
LINE
5
120
100
AcDbEntity
8
0
100
AcDbLine
10
-481.00000761449331
20
-301.49019340658731
30
0
11
-483.34000729024405
21
-301.49019340658731
31
0
0
LINE
5
121
100
AcDbEntity
8
0
100
AcDbLine
10
-483.34000729024405
20
-301.49019340658731
30
0
11
-483.34000729024405
21
-300.32019327068872
31
0
0
LINE
5
122
100
AcDbEntity
8
0
100
AcDbLine
10
-483.34000729024405
20
-300.32019327068872
30
0
11
-482.95000813901419
21
-300.32019327068872
31
0
0
LINE
5
123
100
AcDbEntity
8
0
100
AcDbLine
10
-484.51000712811941
20
-297.98019359493799
30
0
11
-481.00000761449331
21
-297.98019359493799
31
0
0
LINE
5
124
100
AcDbEntity
8
0
100
AcDbLine
10
-481.00000761449331
20
-297.98019359493799
30
0
11
-481.00000761449331
21
-298.95519385719842
31
0
0
LINE
5
125
100
AcDbEntity
8
0
100
AcDbLine
10
-481.58500812947744
20
-299.54019377613611
30
0
11
-482.75500796735281
21
-299.54019377613611
31
0
0
LINE
5
126
100
AcDbEntity
8
0
100
AcDbLine
10
-483.34000729024405
20
-298.95519385719842
30
0
11
-483.34000729024405
21
-297.98019359493799
31
0
0
ARC
5
127
100
AcDbEntity
8
0
100
AcDbCircle
10
-481.51477955281729
20
-299.02542124176568
30
0
40
0.51954049617052078
210
0
220
0
230
1
100
AcDbArc
50
-97.768611171878604
51
7.7686032037062986
0
ARC
5
128
100
AcDbEntity
8
0
100
AcDbCircle
10
-482.82523535192007
20
-299.02542124176568
30
0
40
0.51954049617052078
210
0
220
0
230
1
100
AcDbArc
50
172.2313863236372
51
277.76862118979841
0
LINE
5
129
100
AcDbEntity
8
0
100
AcDbLine
10
-483.34000729024405
20
-296.81019375706262
30
0
11
-481.58500812947744
21
-296.81019375706262
31
0
0
LINE
5
130
100
AcDbEntity
8
0
100
AcDbLine
10
-481.00000761449331
20
-296.22519383812494
30
0
11
-481.00000761449331
21
-295.2501935758645
31
0
0
LINE
5
131
100
AcDbEntity
8
0
100
AcDbLine
10
-481.00000761449331
20
-295.2501935758645
30
0
11
-483.34000729024405
21
-295.2501935758645
31
0
0
ARC
5
132
100
AcDbEntity
8
0
100
AcDbCircle
10
-481.51477955281729
20
-296.2954212226922
30
0
40
0.51954049617052078
210
0
220
0
230
1
100
AcDbArc
50
-97.768611171878604
51
7.7686032037062986
0
LINE
5
133
100
AcDbEntity
8
0
100
AcDbLine
10
-481.00000761449331
20
-294.08019314194269
30
0
11
-483.34000729024405
21
-294.08019314194269
31
0
0
LINE
5
134
100
AcDbEntity
8
0
100
AcDbLine
10
-484.31500695645803
20
-294.17769322777337
30
0
11
-484.51000712811941
21
-294.17769322777337
31
0
0
LINE
5
135
100
AcDbEntity
8
0
100
AcDbLine
10
-484.51000712811941
20
-294.17769322777337
30
0
11
-484.51000712811941
21
-293.98269424820489
31
0
0
LINE
5
136
100
AcDbEntity
8
0
100
AcDbLine
10
-484.51000712811941
20
-293.98269424820489
30
0
11
-484.31500695645803
21
-293.98269424820489
31
0
0
LINE
5
137
100
AcDbEntity
8
0
100
AcDbLine
10
-484.31500695645803
20
-293.98269424820489
30
0
11
-484.31500695645803
21
-294.17769322777337
31
0
0
LINE
5
138
100
AcDbEntity
8
0
100
AcDbLine
10
-481.00000761449331
20
-292.91019330406732
30
0
11
-483.34000729024405
21
-292.91019330406732
31
0
0
LINE
5
139
100
AcDbEntity
8
0
100
AcDbLine
10
-483.34000729024405
20
-292.91019330406732
30
0
11
-483.34000729024405
21
-291.93519363785333
31
0
0
LINE
5
140
100
AcDbEntity
8
0
100
AcDbLine
10
-482.75500796735281
20
-291.3501943149621
30
0
11
-481.00000761449331
21
-291.3501943149621
31
0
0
ARC
5
141
100
AcDbEntity
8
0
100
AcDbCircle
10
-482.82523535192007
20
-291.86496625328607
30
0
40
0.51954049617052078
210
0
220
0
230
1
100
AcDbArc
50
82.231380176694813
51
187.76861868531418
0
LINE
5
142
100
AcDbEntity
8
0
100
AcDbLine
10
-481.78000710904593
20
-290.27769337082452
30
0
11
-482.56000779569143
21
-290.27769337082452
31
0
0
LINE
5
143
100
AcDbEntity
8
0
100
AcDbLine
10
-482.56000779569143
20
-288.7176943817193
30
0
11
-481.78000710904593
21
-288.7176943817193
31
0
0
ARC
5
144
100
AcDbEntity
8
0
100
AcDbCircle
10
-482.56000779569143
20
-289.49769387627191
30
0
40
0.78000001609325409
210
0
220
0
230
1
100
AcDbArc
50
90
51
270.00000500895999
0
ARC
5
145
100
AcDbEntity
8
0
100
AcDbCircle
10
-481.78000710904593
20
-289.49769387627191
30
0
40
0.78000001609325409
210
0
220
0
230
1
100
AcDbArc
50
-89.999994991039998
51
90
0
LINE
5
146
100
AcDbEntity
8
0
100
AcDbLine
10
-481.00000761449331
20
-286.0851932563836
30
0
11
-484.51000712811941
21
-286.0851932563836
31
0
0
LINE
5
147
100
AcDbEntity
8
0
100
AcDbLine
10
-484.51000712811941
20
-286.0851932563836
30
0
11
-484.51000712811941
21
-285.11019359016962
31
0
0
LINE
5
148
100
AcDbEntity
8
0
100
AcDbLine
10
-482.56000779569143
20
-285.11019359016962
30
0
11
-482.56000779569143
21
-286.0851932563836
31
0
0
ARC
5
149
100
AcDbEntity
8
0
100
AcDbCircle
10
-483.53500746190542
20
-285.11019359016962
30
0
40
0.97499996423721313
210
0
220
0
230
1
100
AcDbArc
50
0
51
180.0000024148365
0
LINE
5
150
100
AcDbEntity
8
0
100
AcDbLine
10
-481.00000761449331
20
-281.69769297028131
30
0
11
-481.00000761449331
21
-282.47769365692682
31
0
0
LINE
5
151
100
AcDbEntity
8
0
100
AcDbLine
10
-481.78000710904593
20
-283.25769434357233
30
0
11
-483.7300076335668
21
-283.25769434357233
31
0
0
LINE
5
152
100
AcDbEntity
8
0
100
AcDbLine
10
-484.51000712811941
20
-282.47769365692682
30
0
11
-484.51000712811941
21
-281.69769297028131
31
0
0
ARC
5
153
100
AcDbEntity
8
0
100
AcDbCircle
10
-481.68637059628958
20
-282.57133016968316
30
0
40
0.69272071123123169
210
0
220
0
230
1
100
AcDbArc
50
-97.768611171878206
51
7.7686032037066282
0
ARC
5
154
100
AcDbEntity
8
0
100
AcDbCircle
10
-483.82364533841604
20
-282.57133016968316
30
0
40
0.69272071123123169
210
0
220
0
230
1
100
AcDbArc
50
172.23138632363785
51
277.7686211897975
0
LINE
5
155
100
AcDbEntity
8
0
100
AcDbLine
10
-482.95000813901419
20
-280.72269211197442
30
0
11
-482.95000813901419
21
-279.74769363785333
31
0
0
LINE
5
156
100
AcDbEntity
8
0
100
AcDbLine
10
-481.00000761449331
20
-279.74769363785333
30
0
11
-481.00000761449331
21
-280.72269211197442
31
0
0
LINE
5
157
100
AcDbEntity
8
0
100
AcDbLine
10
-481.00000761449331
20
-280.72269211197442
30
0
11
-484.51000712811941
21
-280.72269211197442
31
0
0
LINE
5
158
100
AcDbEntity
8
0
100
AcDbLine
10
-484.51000712811941
20
-280.72269211197442
30
0
11
-484.51000712811941
21
-279.74769363785333
31
0
0
ARC
5
159
100
AcDbEntity
8
0
100
AcDbCircle
10
-481.9750072807073
20
-279.74769363785333
30
0
40
0.97499996423721313
210
0
220
0
230
1
100
AcDbArc
50
0
51
180.0000024148365
0
ARC
5
160
100
AcDbEntity
8
0
100
AcDbCircle
10
-483.7300076335668
20
-279.74769363785333
30
0
40
0.78000001609325409
210
0
220
0
230
1
100
AcDbArc
50
0
51
180.0000024148365
0
LINE
5
161
100
AcDbEntity
8
0
100
AcDbLine
10
-479.83000777661795
20
-276.23769293213434
30
0
11
-483.34000729024405
21
-276.23769293213434
31
0
0
LINE
5
162
100
AcDbEntity
8
0
100
AcDbLine
10
-483.34000729024405
20
-276.23769293213434
30
0
11
-483.34000729024405
21
-275.26269445801324
31
0
0
LINE
5
163
100
AcDbEntity
8
0
100
AcDbLine
10
-482.75500796735281
20
-274.67769394302911
30
0
11
-481.58500812947744
21
-274.67769394302911
31
0
0
LINE
5
164
100
AcDbEntity
8
0
100
AcDbLine
10
-481.00000761449331
20
-275.26269445801324
30
0
11
-481.00000761449331
21
-276.23769293213434
31
0
0
ARC
5
165
100
AcDbEntity
8
0
100
AcDbCircle
10
-482.82523535192007
20
-275.19246588135309
30
0
40
0.51954049617052078
210
0
220
0
230
1
100
AcDbArc
50
82.231380176694813
51
187.76861868531418
0
ARC
5
166
100
AcDbEntity
8
0
100
AcDbCircle
10
-481.51477955281729
20
-275.19246588135309
30
0
40
0.51954049617052078
210
0
220
0
230
1
100
AcDbArc
50
-7.7686291579644866
51
97.768616180835409
0
LINE
5
167
100
AcDbEntity
8
0
100
AcDbLine
10
-481.00000761449331
20
-272.33769426727838
30
0
11
-481.00000761449331
21
-273.11769495392389
31
0
0
LINE
5
168
100
AcDbEntity
8
0
100
AcDbLine
10
-481.58500812947744
20
-273.70269546890802
30
0
11
-482.75500796735281
21
-273.70269546890802
31
0
0
LINE
5
169
100
AcDbEntity
8
0
100
AcDbLine
10
-483.34000729024405
20
-273.11769495392389
30
0
11
-483.34000729024405
21
-272.33769426727838
31
0
0
ARC
5
170
100
AcDbEntity
8
0
100
AcDbCircle
10
-481.51477955281729
20
-273.18792353058404
30
0
40
0.51954049617052078
210
0
220
0
230
1
100
AcDbArc
50
-97.768611171878604
51
7.7686032037062986
0
ARC
5
171
100
AcDbEntity
8
0
100
AcDbCircle
10
-482.82523535192007
20
-273.18792353058404
30
0
40
0.51954049617052078
210
0
220
0
230
1
100
AcDbArc
50
172.2313863236372
51
277.76862118979841
0
LINE
5
172
100
AcDbEntity
8
0
100
AcDbLine
10
-484.51000712811941
20
-271.3626934089715
30
0
11
-481.00000761449331
21
-271.3626934089715
31
0
0
LINE
5
173
100
AcDbEntity
8
0
100
AcDbLine
10
-481.00000761449331
20
-271.3626934089715
30
0
11
-481.00000761449331
21
-270.3876949348504
31
0
0
LINE
5
174
100
AcDbEntity
8
0
100
AcDbLine
10
-481.58500812947744
20
-269.80269441986627
30
0
11
-482.75500796735281
21
-269.80269441986627
31
0
0
LINE
5
175
100
AcDbEntity
8
0
100
AcDbLine
10
-483.34000729024405
20
-270.3876949348504
30
0
11
-483.34000729024405
21
-271.3626934089715
31
0
0
ARC
5
176
100
AcDbEntity
8
0
100
AcDbCircle
10
-481.51477955281729
20
-270.31746635819025
30
0
40
0.51954049617052078
210
0
220
0
230
1
100
AcDbArc
50
-7.7686291579644866
51
97.768616180835409
0
ARC
5
177
100
AcDbEntity
8
0
100
AcDbCircle
10
-482.82523535192007
20
-270.31746635819025
30
0
40
0.51954049617052078
210
0
220
0
230
1
100
AcDbArc
50
82.231380176694813
51
187.76861868531418
0
LINE
5
178
100
AcDbEntity
8
0
100
AcDbLine
10
-484.51000712811947
20
-267.17019329453058
30
0
11
-481.00000761449337
21
-267.17019329453058
31
0
0
LINE
5
179
100
AcDbEntity
8
0
100
AcDbLine
10
-481.00000761449337
20
-267.17019329453058
30
0
11
-481.00000761449337
21
-266.19519482040948
31
0
0
LINE
5
180
100
AcDbEntity
8
0
100
AcDbLine
10
-481.5850081294775
20
-265.61019430542535
30
0
11
-482.75500796735287
21
-265.61019430542535
31
0
0
LINE
5
181
100
AcDbEntity
8
0
100
AcDbLine
10
-483.3400072902441
20
-266.19519482040948
30
0
11
-483.3400072902441
21
-267.17019329453058
31
0
0
ARC
5
182
100
AcDbEntity
8
0
100
AcDbCircle
10
-481.51477955281734
20
-266.12496624374933
30
0
40
0.51954049617052078
210
0
220
0
230
1
100
AcDbArc
50
-7.7686291579644866
51
97.768616180835409
0
ARC
5
183
100
AcDbEntity
8
0
100
AcDbCircle
10
-482.82523535192013
20
-266.12496624374933
30
0
40
0.51954049617052078
210
0
220
0
230
1
100
AcDbArc
50
82.231380176694813
51
187.76861868531418
0
LINE
5
184
100
AcDbEntity
8
0
100
AcDbLine
10
-481.78000710904598
20
-264.63519344711847
30
0
11
-482.56000779569149
21
-264.63519344711847
31
0
0
LINE
5
185
100
AcDbEntity
8
0
100
AcDbLine
10
-482.56000779569149
20
-263.07519207382745
30
0
11
-481.78000710904598
21
-263.07519207382745
31
0
0
ARC
5
186
100
AcDbEntity
8
0
100
AcDbCircle
10
-482.56000779569149
20
-263.85519276047296
30
0
40
0.78000001609325409
210
0
220
0
230
1
100
AcDbArc
50
90
51
270.00000500895999
0
ARC
5
187
100
AcDbEntity
8
0
100
AcDbCircle
10
-481.78000710904598
20
-263.85519276047296
30
0
40
0.78000001609325409
210
0
220
0
230
1
100
AcDbArc
50
-89.999994991039998
51
90
0
LINE
5
188
100
AcDbEntity
8
0
100
AcDbLine
10
-482.36500762403011
20
-260.54019222641534
30
0
11
-482.36500762403011
21
-261.41769180679864
31
0
0
LINE
5
189
100
AcDbEntity
8
0
100
AcDbLine
10
-481.00000761449337
20
-261.41769180679864
30
0
11
-481.00000761449337
21
-260.54019222641534
31
0
0
LINE
5
190
100
AcDbEntity
8
0
100
AcDbLine
10
-481.00000761449337
20
-260.54019222641534
30
0
11
-482.75500796735287
21
-260.54019222641534
31
0
0
LINE
5
191
100
AcDbEntity
8
0
100
AcDbLine
10
-483.3400072902441
20
-261.12519512558526
30
0
11
-483.3400072902441
21
-261.90519104385919
31
0
0
ARC
5
192
100
AcDbEntity
8
0
100
AcDbCircle
10
-481.68250702321529
20
-261.41769180679864
30
0
40
0.68249993026256561
210
0
220
0
230
1
100
AcDbArc
50
-179.99999758516347
51
0
0
ARC
5
193
100
AcDbEntity
8
0
100
AcDbCircle
10
-482.82523535192013
20
-261.05496654892511
30
0
40
0.51954049617052067
210
0
220
0
230
1
100
AcDbArc
50
82.231380176694813
51
187.76861868531418
0
LINE
5
194
100
AcDbEntity
8
0
100
AcDbLine
10
-481.00000761449337
20
-259.37019596481866
30
0
11
-483.3400072902441
21
-259.37019596481866
31
0
0
LINE
5
195
100
AcDbEntity
8
0
100
AcDbLine
10
-483.3400072902441
20
-259.37019596481866
30
0
11
-483.3400072902441
21
-258.2001949348504
31
0
0
LINE
5
196
100
AcDbEntity
8
0
100
AcDbLine
10
-483.3400072902441
20
-258.2001949348504
30
0
11
-482.95000813901424
21
-258.2001949348504
31
0
0
LINE
5
197
100
AcDbEntity
8
0
100
AcDbLine
10
-484.51000712811947
20
-255.86019287491385
30
0
11
-481.00000761449337
21
-255.86019287491385
31
0
0
LINE
5
198
100
AcDbEntity
8
0
100
AcDbLine
10
-481.00000761449337
20
-255.86019287491385
30
0
11
-481.00000761449337
21
-256.83519134903497
31
0
0
LINE
5
199
100
AcDbEntity
8
0
100
AcDbLine
10
-481.5850081294775
20
-257.42019424820489
30
0
11
-482.75500796735287
21
-257.42019424820489
31
0
0
LINE
5
200
100
AcDbEntity
8
0
100
AcDbLine
10
-483.3400072902441
20
-256.83519134903497
30
0
11
-483.3400072902441
21
-255.86019287491385
31
0
0
ARC
5
201
100
AcDbEntity
8
0
100
AcDbCircle
10
-481.51477955281734
20
-256.90541992569513
30
0
40
0.51954049617052067
210
0
220
0
230
1
100
AcDbArc
50
-97.768611171878604
51
7.7686032037062986
0
ARC
5
202
100
AcDbEntity
8
0
100
AcDbCircle
10
-482.82523535192013
20
-256.90541992569513
30
0
40
0.51954049617052067
210
0
220
0
230
1
100
AcDbArc
50
172.2313863236372
51
277.76862118979841
0
LINE
5
203
100
AcDbEntity
8
0
100
AcDbLine
10
-483.80018271331755
20
-194.92875301837924
30
0
11
-483.80018271331755
21
-196.09875300526622
31
0
0
LINE
5
204
100
AcDbEntity
8
0
100
AcDbLine
10
-484.97018374328582
20
-197.2687529921532
30
0
11
-487.89518393402068
21
-197.2687529921532
31
0
0
LINE
5
205
100
AcDbEntity
8
0
100
AcDbLine
10
-489.06518257980315
20
-196.09875300526622
30
0
11
-489.06518257980315
21
-194.92875301837924
31
0
0
ARC
5
206
100
AcDbEntity
8
0
100
AcDbCircle
10
-484.8297265899655
20
-196.2392085194588
30
0
40
1.0390811413526533
210
0
220
-0
230
1
100
AcDbArc
50
-97.768611171880281
51
7.7686032037050277
0
ARC
5
207
100
AcDbEntity
8
0
100
AcDbCircle
10
-488.0356387031552
20
-196.2392085194588
30
0
40
1.0390811413526533
210
0
220
-0
230
1
100
AcDbArc
50
172.23138632364038
51
277.76862118979301
0
LINE
5
208
100
AcDbEntity
8
0
100
AcDbLine
10
-486.72518290405242
20
-191.1262523531914
30
0
11
-483.80018271331755
21
-193.61250275373462
31
0
0
LINE
5
209
100
AcDbEntity
8
0
100
AcDbLine
10
-483.80018271331755
20
-193.61250275373462
30
0
11
-483.80018271331755
21
-190.68750256299975
31
0
0
ARC
5
210
100
AcDbEntity
8
0
100
AcDbCircle
10
-487.90694512252776
20
-191.84574002027514
30
0
40
1.1689662933349607
210
0
220
-0
230
1
100
AcDbArc
50
82.23138017669757
51
187.76861868531694
0
ARC
5
211
100
AcDbEntity
8
0
100
AcDbCircle
10
-487.61696852569548
20
-192.18033546209338
30
0
40
1.4589405059814451
210
0
220
-0
230
1
100
AcDbArc
50
173.04817449553701
51
259.00656965301073
0
ARC
5
212
100
AcDbEntity
8
0
100
AcDbCircle
10
-487.64474190597502
20
-191.85814136266711
30
0
40
1.1752662807703016
210
0
220
-0
230
1
100
AcDbArc
50
38.516721488511216
51
95.086102926771133
0
LINE
5
213
100
AcDbEntity
8
0
100
AcDbLine
10
-483.80018271331755
20
-188.93250221014026
30
0
11
-483.80018271331755
21
-189.22500246763232
31
0
0
LINE
5
214
100
AcDbEntity
8
0
100
AcDbLine
10
-483.80018271331755
20
-189.22500246763232
30
0
11
-484.09268177871672
21
-189.22500246763232
31
0
0
LINE
5
215
100
AcDbEntity
8
0
100
AcDbLine
10
-484.09268177871672
20
-189.22500246763232
30
0
11
-484.09268177871672
21
-188.93250221014026
31
0
0
LINE
5
216
100
AcDbEntity
8
0
100
AcDbLine
10
-484.09268177871672
20
-188.93250221014026
30
0
11
-483.80018271331755
21
-188.93250221014026
31
0
0
LINE
5
217
100
AcDbEntity
8
0
100
AcDbLine
10
-483.80018271331755
20
-188.93250221014026
30
0
11
-482.63018168334929
21
-189.37125259637835
31
0
0
LINE
5
218
100
AcDbEntity
8
0
100
AcDbLine
10
-483.80018271331755
20
-184.98375290632251
30
0
11
-487.31018341903655
21
-184.98375290632251
31
0
0
LINE
5
219
100
AcDbEntity
8
0
100
AcDbLine
10
-487.31018341903655
20
-184.98375290632251
30
0
11
-487.31018341903655
21
-183.22875255346301
31
0
0
LINE
5
220
100
AcDbEntity
8
0
100
AcDbLine
10
-487.31018341903655
20
-183.22875255346301
30
0
11
-486.72518290405242
21
-183.22875255346301
31
0
0
LINE
5
221
100
AcDbEntity
8
0
100
AcDbLine
10
-483.80018271331755
20
-179.71875303983691
30
0
11
-483.80018271331755
21
-181.18125313520434
31
0
0
LINE
5
222
100
AcDbEntity
8
0
100
AcDbLine
10
-484.67768229370085
20
-182.05875271558764
30
0
11
-486.14018238906829
21
-182.05875271558764
31
0
0
LINE
5
223
100
AcDbEntity
8
0
100
AcDbLine
10
-486.14018238906829
20
-179.71875303983691
30
0
11
-485.55518187408416
21
-179.71875303983691
31
0
0
LINE
5
224
100
AcDbEntity
8
0
100
AcDbLine
10
-485.55518187408416
20
-179.71875303983691
30
0
11
-485.55518187408416
21
-182.05875271558764
31
0
0
ARC
5
225
100
AcDbEntity
8
0
100
AcDbCircle
10
-484.57234181289641
20
-181.28659480810168
30
0
40
0.77931083738803852
210
0
220
-0
230
1
100
AcDbArc
50
-97.768611171879982
51
7.7686032037049335
0
ARC
5
226
100
AcDbEntity
8
0
100
AcDbCircle
10
-486.14018238906829
20
-180.88875287771228
30
0
40
1.1700000613927839
210
0
220
-0
230
1
100
AcDbArc
50
90
51
270.00000500895703
0
LINE
5
227
100
AcDbEntity
8
0
100
AcDbLine
10
-485.84768332366912
20
-175.91625326871875
30
0
11
-485.84768332366912
21
-177.2325026392937
31
0
0
LINE
5
228
100
AcDbEntity
8
0
100
AcDbLine
10
-483.80018271331755
20
-177.2325026392937
30
0
11
-483.80018271331755
21
-175.91625326871875
31
0
0
LINE
5
229
100
AcDbEntity
8
0
100
AcDbLine
10
-483.80018271331755
20
-175.91625326871875
30
0
11
-486.43268383865325
21
-175.91625326871875
31
0
0
LINE
5
230
100
AcDbEntity
8
0
100
AcDbLine
10
-487.31018341903655
20
-176.79375284910205
30
0
11
-487.31018341903655
21
-177.96375387907031
31
0
0
ARC
5
231
100
AcDbEntity
8
0
100
AcDbCircle
10
-484.82393301849334
20
-177.2325026392937
30
0
40
1.0237500816583631
210
0
220
-0
230
1
100
AcDbArc
50
-179.99999758516347
51
0
0
ARC
5
232
100
AcDbEntity
8
0
100
AcDbCircle
10
-486.53802431945769
20
-176.68840998411181
30
0
40
0.77931083738803852
210
0
220
-0
230
1
100
AcDbArc
50
82.231380176697527
51
187.76861868531668
0
LINE
5
233
100
AcDbEntity
8
0
100
AcDbLine
10
-483.80018271331755
20
-174.16125410795215
30
0
11
-487.31018341903655
21
-174.16125410795215
31
0
0
LINE
5
234
100
AcDbEntity
8
0
100
AcDbLine
10
-487.31018341903655
20
-174.16125410795215
30
0
11
-487.31018341903655
21
-172.40625256299975
31
0
0
LINE
5
235
100
AcDbEntity
8
0
100
AcDbLine
10
-487.31018341903655
20
-172.40625256299975
30
0
11
-486.72518290405242
21
-172.40625256299975
31
0
0
LINE
5
236
100
AcDbEntity
8
0
100
AcDbLine
10
-483.80018271331755
20
-166.84875363111499
30
0
11
-483.80018271331755
21
-168.01875227689746
31
0
0
LINE
5
237
100
AcDbEntity
8
0
100
AcDbLine
10
-484.67768229370085
20
-168.89625185728076
30
0
11
-486.43268383865325
21
-168.89625185728076
31
0
0
LINE
5
238
100
AcDbEntity
8
0
100
AcDbLine
10
-487.31018341903655
20
-168.01875227689746
30
0
11
-487.31018341903655
21
-166.84875363111499
31
0
0
ARC
5
239
100
AcDbEntity
8
0
100
AcDbCircle
10
-484.57234181289641
20
-168.12409514188769
30
0
40
0.77931083738803852
210
0
220
-0
230
1
100
AcDbArc
50
-97.768611171879982
51
7.7686032037049335
0
ARC
5
240
100
AcDbEntity
8
0
100
AcDbCircle
10
-486.53802431945769
20
-168.12409514188769
30
0
40
0.77931083738803852
210
0
220
-0
230
1
100
AcDbArc
50
172.2313863236424
51
277.7686211897929
0
LINE
5
241
100
AcDbEntity
8
0
100
AcDbLine
10
-484.97018374328582
20
-165.53250426054004
30
0
11
-486.14018238906829
21
-165.53250426054004
31
0
0
LINE
5
242
100
AcDbEntity
8
0
100
AcDbLine
10
-486.14018238906829
20
-163.19250220060351
30
0
11
-484.97018374328582
21
-163.19250220060351
31
0
0
ARC
5
243
100
AcDbEntity
8
0
100
AcDbCircle
10
-486.14018238906829
20
-164.36250323057178
30
0
40
1.1700000613927839
210
0
220
-0
230
1
100
AcDbArc
50
90
51
270.00000500895703
0
ARC
5
244
100
AcDbEntity
8
0
100
AcDbCircle
10
-484.97018374328582
20
-164.36250323057178
30
0
40
1.1700000613927839
210
0
220
-0
230
1
100
AcDbArc
50
-89.999994991042954
51
90
0
LINE
5
245
100
AcDbEntity
8
0
100
AcDbLine
10
-483.80018271331755
20
-161.58375376462939
30
0
11
-487.31018341903655
21
-161.58375376462939
31
0
0
LINE
5
246
100
AcDbEntity
8
0
100
AcDbLine
10
-487.31018341903655
20
-161.58375376462939
30
0
11
-487.31018341903655
21
-160.12125366926196
31
0
0
LINE
5
247
100
AcDbEntity
8
0
100
AcDbLine
10
-486.43268383865325
20
-159.24375408887866
30
0
11
-483.80018271331755
21
-159.24375408887866
31
0
0
ARC
5
248
100
AcDbEntity
8
0
100
AcDbCircle
10
-486.53802431945769
20
-160.01591080427173
30
0
40
0.77931083738803852
210
0
220
-0
230
1
100
AcDbArc
50
82.231380176697797
51
187.76861868531668
0
LINE
5
249
100
AcDbEntity
8
0
100
AcDbLine
10
-487.31018341903655
20
-157.92749994993213
30
0
11
-487.31018341903655
21
-156.17250078916553
31
0
0
LINE
5
250
100
AcDbEntity
8
0
100
AcDbLine
10
-489.06518257980315
20
-157.34250181913379
30
0
11
-484.67768229370085
21
-157.34250181913379
31
0
0
LINE
5
251
100
AcDbEntity
8
0
100
AcDbLine
10
-483.80018271331755
20
-156.46500223875049
30
0
11
-483.80018271331755
21
-156.17250078916553
31
0
0
ARC
5
252
100
AcDbEntity
8
0
100
AcDbCircle
10
-484.57234181289641
20
-156.57034510374072
30
0
40
0.77931083738803852
210
0
220
-0
230
1
100
AcDbArc
50
-97.768611171879982
51
7.7686032037049335
0
LINE
5
253
100
AcDbEntity
8
0
100
AcDbLine
10
-483.80018271331755
20
-154.71000307798388
30
0
11
-487.31018341903655
21
-154.71000307798388
31
0
0
LINE
5
254
100
AcDbEntity
8
0
100
AcDbLine
10
-487.31018341903655
20
-154.71000307798388
30
0
11
-487.31018341903655
21
-152.95500391721728
31
0
0
LINE
5
255
100
AcDbEntity
8
0
100
AcDbLine
10
-487.31018341903655
20
-152.95500391721728
30
0
11
-486.72518290405242
21
-152.95500391721728
31
0
0
LINE
5
256
100
AcDbEntity
8
0
100
AcDbLine
10
-484.97018374328582
20
-151.78500288724902
30
0
11
-486.14018238906829
21
-151.78500288724902
31
0
0
LINE
5
257
100
AcDbEntity
8
0
100
AcDbLine
10
-486.14018238906829
20
-149.4450008273125
30
0
11
-484.97018374328582
21
-149.4450008273125
31
0
0
ARC
5
258
100
AcDbEntity
8
0
100
AcDbCircle
10
-486.14018238906829
20
-150.61500185728076
30
0
40
1.1700000613927839
210
0
220
-0
230
1
100
AcDbArc
50
90
51
270.00000500895703
0
ARC
5
259
100
AcDbEntity
8
0
100
AcDbCircle
10
-484.97018374328582
20
-150.61500185728076
30
0
40
1.1700000613927839
210
0
220
-0
230
1
100
AcDbArc
50
-89.999994991042954
51
90
0
LINE
5
260
100
AcDbEntity
8
0
100
AcDbLine
10
-489.06518257980315
20
-147.83625239133838
30
0
11
-484.67768229370085
21
-147.83625239133838
31
0
0
ARC
5
261
100
AcDbEntity
8
0
100
AcDbCircle
10
-484.57234181289641
20
-147.06409567594531
30
0
40
0.77931083738803852
210
0
220
-0
230
1
100
AcDbArc
50
-97.768611171879982
51
7.7686032037049335
0
LINE
5
262
100
AcDbEntity
8
0
100
AcDbLine
10
-485.84768332366912
20
-140.96249693632129
30
0
11
-485.84768332366912
21
-142.27874869108203
31
0
0
LINE
5
263
100
AcDbEntity
8
0
100
AcDbLine
10
-483.80018271331755
20
-142.27874869108203
30
0
11
-483.80018271331755
21
-140.96249693632129
31
0
0
LINE
5
264
100
AcDbEntity
8
0
100
AcDbLine
10
-483.80018271331755
20
-140.96249693632129
30
0
11
-486.43268383865325
21
-140.96249693632129
31
0
0
LINE
5
265
100
AcDbEntity
8
0
100
AcDbLine
10
-487.31018341903655
20
-141.83999651670459
30
0
11
-487.31018341903655
21
-143.00999754667285
31
0
0
ARC
5
266
100
AcDbEntity
8
0
100
AcDbCircle
10
-484.82393301849334
20
-142.27874869108203
30
0
40
1.0237500816583631
210
0
220
-0
230
1
100
AcDbArc
50
-179.99999758516347
51
0
0
ARC
5
267
100
AcDbEntity
8
0
100
AcDbCircle
10
-486.53802431945769
20
-141.73465842008594
30
0
40
0.77931083738803852
210
0
220
-0
230
1
100
AcDbArc
50
82.231380176697797
51
187.76861868531464
0
LINE
5
268
100
AcDbEntity
8
0
100
AcDbLine
10
-485.26268280868499
20
-137.45249861478808
30
0
11
-485.84768332366912
21
-138.91499632596972
31
0
0
ARC
5
269
100
AcDbEntity
8
0
100
AcDbCircle
10
-486.56050242309539
20
-138.67659682035449
30
0
40
0.75162976980209339
210
0
220
-0
230
1
100
AcDbArc
50
175.87258749093127
51
341.50753671300305
0
ARC
5
270
100
AcDbEntity
8
0
100
AcDbCircle
10
-484.59345616226165
20
-138.53559130430224
30
0
40
2.7181166410446163
210
0
220
-0
230
1
100
AcDbArc
50
153.11012147802839
51
181.8322622210367
0
ARC
5
271
100
AcDbEntity
8
0
100
AcDbCircle
10
-484.55118693237273
20
-137.6975118517876
30
0
40
0.7525029033422469
210
0
220
-0
230
1
100
AcDbArc
50
-3.6178685578394663
51
160.99800642215118
0
ARC
5
272
100
AcDbEntity
8
0
100
AcDbCircle
10
-486.8971732986447
20
-138.01287287473681
30
0
40
3.1085547804832454
210
0
220
-0
230
1
100
AcDbArc
50
-25.553239643389769
51
4.943527679960698
0
LINE
5
273
100
AcDbEntity
8
0
100
AcDbLine
10
-485.26268280868499
20
-133.64999884366992
30
0
11
-485.84768332366912
21
-135.11249655485156
31
0
0
ARC
5
274
100
AcDbEntity
8
0
100
AcDbCircle
10
-486.56050242309539
20
-134.87409704923633
30
0
40
0.75162976980209339
210
0
220
-0
230
1
100
AcDbArc
50
175.87258749093127
51
341.50753671300305
0
ARC
5
275
100
AcDbEntity
8
0
100
AcDbCircle
10
-484.59345616226165
20
-134.73309153318408
30
0
40
2.7181166410446163
210
0
220
-0
230
1
100
AcDbArc
50
153.11012147802839
51
181.8322622210367
0
ARC
5
276
100
AcDbEntity
8
0
100
AcDbCircle
10
-484.55118693237273
20
-133.89501208066943
30
0
40
0.7525029033422469
210
0
220
-0
230
1
100
AcDbArc
50
-3.6178685578394663
51
160.99800642215118
0
ARC
5
277
100
AcDbEntity
8
0
100
AcDbCircle
10
-486.8971732986447
20
-134.21037310361865
30
0
40
3.1085547804832454
210
0
220
-0
230
1
100
AcDbArc
50
-25.553239643389769
51
4.943527679960698
0
LINE
5
278
100
AcDbEntity
8
0
100
AcDbLine
10
-483.80018271331755
20
-129.40874689817431
30
0
11
-483.80018271331755
21
-130.87124937772754
31
0
0
LINE
5
279
100
AcDbEntity
8
0
100
AcDbLine
10
-484.67768229370085
20
-131.74874895811084
30
0
11
-486.14018238906829
21
-131.74874895811084
31
0
0
LINE
5
280
100
AcDbEntity
8
0
100
AcDbLine
10
-486.14018238906829
20
-129.40874689817431
30
0
11
-485.55518187408416
21
-129.40874689817431
31
0
0
LINE
5
281
100
AcDbEntity
8
0
100
AcDbLine
10
-485.55518187408416
20
-129.40874689817431
30
0
11
-485.55518187408416
21
-131.74874895811084
31
0
0
ARC
5
282
100
AcDbEntity
8
0
100
AcDbCircle
10
-484.57234181289641
20
-130.97658747434619
30
0
40
0.77931083738803852
210
0
220
-0
230
1
100
AcDbArc
50
-97.768611171879982
51
7.7686032037049335
0
ARC
5
283
100
AcDbEntity
8
0
100
AcDbCircle
10
-486.14018238906829
20
-130.57874792814258
30
0
40
1.1700000613927839
210
0
220
-0
230
1
100
AcDbArc
50
90
51
270.00000500895703
0
LINE
5
284
100
AcDbEntity
8
0
100
AcDbLine
10
-483.80018271331755
20
-127.79999846220019
30
0
11
-487.31018341903655
21
-127.79999846220019
31
0
0
LINE
5
285
100
AcDbEntity
8
0
100
AcDbLine
10
-487.31018341903655
20
-127.79999846220019
30
0
11
-487.31018341903655
21
-125.16749972105029
31
0
0
LINE
5
286
100
AcDbEntity
8
0
100
AcDbLine
10
-486.43268383865325
20
-124.29000014066699
30
0
11
-483.80018271331755
21
-124.29000014066699
31
0
0
LINE
5
287
100
AcDbEntity
8
0
100
AcDbLine
10
-483.80018271331755
20
-126.04499930143359
30
0
11
-487.31018341903655
21
-126.04499930143359
31
0
0
ARC
5
288
100
AcDbEntity
8
0
100
AcDbCircle
10
-486.53802431945769
20
-125.06215685606006
30
0
40
0.77931083738803852
210
0
220
-0
230
1
100
AcDbArc
50
82.231380176697797
51
187.76861868531464
0
LINE
5
289
100
AcDbEntity
8
0
100
AcDbLine
10
-489.06518257980315
20
-122.53499621152881
30
0
11
-483.80018271331755
21
-122.53499621152881
31
0
0
LINE
5
290
100
AcDbEntity
8
0
100
AcDbLine
10
-483.80018271331755
20
-122.53499621152881
30
0
11
-483.80018271331755
21
-121.07249373197558
31
0
0
LINE
5
291
100
AcDbEntity
8
0
100
AcDbLine
10
-484.67768229370085
20
-120.19499415159228
30
0
11
-486.43268383865325
21
-120.19499415159228
31
0
0
LINE
5
292
100
AcDbEntity
8
0
100
AcDbLine
10
-487.31018341903655
20
-121.07249373197558
30
0
11
-487.31018341903655
21
-122.53499621152881
31
0
0
ARC
5
293
100
AcDbEntity
8
0
100
AcDbCircle
10
-484.57234181289641
20
-120.96715563535693
30
0
40
0.77931083738803852
210
0
220
-0
230
1
100
AcDbArc
50
-7.7686291579688627
51
97.768616180840411
0
ARC
5
294
100
AcDbEntity
8
0
100
AcDbCircle
10
-486.53802431945769
20
-120.96715563535693
30
0
40
0.77931083738803852
210
0
220
-0
230
1
100
AcDbArc
50
82.231380176697797
51
187.76861868531464
0
LINE
5
295
100
AcDbEntity
8
0
100
AcDbLine
10
-489.06518257980315
20
-118.58624571561816
30
0
11
-484.67768229370085
21
-118.58624571561816
31
0
0
ARC
5
296
100
AcDbEntity
8
0
100
AcDbCircle
10
-484.57234181289641
20
-117.81408423185353
30
0
40
0.77931083738803852
210
0
220
-0
230
1
100
AcDbArc
50
-97.768611171879982
51
7.7686032037060162
0
LINE
5
297
100
AcDbEntity
8
0
100
AcDbLine
10
-482.04518355255095
20
-116.53874510526661
30
0
11
-482.04518355255095
21
-115.95375174283986
31
0
0
LINE
5
298
100
AcDbEntity
8
0
100
AcDbLine
10
-482.04518355255095
20
-115.95375174283986
30
0
11
-487.31018341903655
21
-114.19875258207325
31
0
0
LINE
5
299
100
AcDbEntity
8
0
100
AcDbLine
10
-487.31018341903655
20
-116.53874510526661
30
0
11
-483.80018271331755
21
-115.36874884366993
31
0
0
LINE
5
300
100
AcDbEntity
8
0
100
AcDbLine
10
-483.80018271331755
20
-108.49499815702443
30
0
11
-483.80018271331755
21
-109.66499441862111
31
0
0
LINE
5
301
100
AcDbEntity
8
0
100
AcDbLine
10
-484.67768229370085
20
-110.54249876737599
30
0
11
-486.43268383865325
21
-110.54249876737599
31
0
0
LINE
5
302
100
AcDbEntity
8
0
100
AcDbLine
10
-487.31018341903655
20
-109.66499441862111
30
0
11
-487.31018341903655
21
-108.49499815702443
31
0
0
ARC
5
303
100
AcDbEntity
8
0
100
AcDbCircle
10
-484.57234181289641
20
-109.77033728361134
30
0
40
0.77931083738803852
210
0
220
-0
230
1
100
AcDbArc
50
-97.768611171879982
51
7.7686032037060162
0
ARC
5
304
100
AcDbEntity
8
0
100
AcDbCircle
10
-486.53802431945769
20
-109.77033728361134
30
0
40
0.77931083738803852
210
0
220
-0
230
1
100
AcDbArc
50
172.23138632364132
51
277.76862118979273
0
LINE
5
305
100
AcDbEntity
8
0
100
AcDbLine
10
-483.80018271331755
20
-107.03249090909962
30
0
11
-487.31018341903655
21
-107.03249090909962
31
0
0
LINE
5
306
100
AcDbEntity
8
0
100
AcDbLine
10
-487.31018341903655
20
-107.03249090909962
30
0
11
-487.31018341903655
21
-105.27749174833302
31
0
0
LINE
5
307
100
AcDbEntity
8
0
100
AcDbLine
10
-487.31018341903655
20
-105.27749174833302
30
0
11
-486.72518290405242
21
-105.27749174833302
31
0
0
LINE
5
308
100
AcDbEntity
8
0
100
AcDbLine
10
-484.97018374328582
20
-104.10749548673634
30
0
11
-486.14018238906829
21
-104.10749548673634
31
0
0
LINE
5
309
100
AcDbEntity
8
0
100
AcDbLine
10
-486.14018238906829
20
-101.76749342679982
30
0
11
-484.97018374328582
21
-101.76749342679982
31
0
0
ARC
5
310
100
AcDbEntity
8
0
100
AcDbCircle
10
-486.14018238906829
20
-102.9374896883965
30
0
40
1.1700000613927839
210
0
220
-0
230
1
100
AcDbArc
50
90
51
270.00000500895703
0
ARC
5
311
100
AcDbEntity
8
0
100
AcDbCircle
10
-484.97018374328582
20
-102.9374896883965
30
0
40
1.1700000613927839
210
0
220
-0
230
1
100
AcDbArc
50
-89.999994991042954
51
90
0
LINE
5
312
100
AcDbEntity
8
0
100
AcDbLine
10
-485.26268280868499
20
-98.403741061687512
30
0
11
-485.84768332366912
21
-99.866248309612317
31
0
0
ARC
5
313
100
AcDbEntity
8
0
100
AcDbCircle
10
-486.56050242309539
20
-99.627839267253918
30
0
40
0.75162976980209339
210
0
220
-0
230
1
100
AcDbArc
50
175.87258749093127
51
341.50753671300305
0
ARC
5
314
100
AcDbEntity
8
0
100
AcDbCircle
10
-484.59345616226165
20
-99.486838519573254
30
0
40
2.7181166410446163
210
0
220
-0
230
1
100
AcDbArc
50
153.11012147802839
51
181.83226222103636
0
ARC
5
315
100
AcDbEntity
8
0
100
AcDbCircle
10
-484.55118693237273
20
-98.648759067058606
30
0
40
0.7525029033422469
210
0
220
-0
230
1
100
AcDbArc
50
-3.6178685578394663
51
160.99800642215217
0
ARC
5
316
100
AcDbEntity
8
0
100
AcDbCircle
10
-486.8971732986447
20
-98.964120090007825
30
0
40
3.1085547804832454
210
0
220
-0
230
1
100
AcDbArc
50
-25.553239643389769
51
4.943527679960698
0
LINE
5
317
100
AcDbEntity
8
0
100
AcDbLine
10
-485.26268280868499
20
-94.601241290569348
30
0
11
-485.84768332366912
21
-96.063748538494153
31
0
0
ARC
5
318
100
AcDbEntity
8
0
100
AcDbCircle
10
-486.56050242309539
20
-95.825339496135754
30
0
40
0.75162976980209339
210
0
220
-0
230
1
100
AcDbArc
50
175.87258749093127
51
341.50753671300305
0
ARC
5
319
100
AcDbEntity
8
0
100
AcDbCircle
10
-484.59345616226165
20
-95.68433874845509
30
0
40
2.7181166410446163
210
0
220
-0
230
1
100
AcDbArc
50
153.11012147802839
51
181.83226222103636
0
ARC
5
320
100
AcDbEntity
8
0
100
AcDbCircle
10
-484.55118693237273
20
-94.846259295940442
30
0
40
0.7525029033422469
210
0
220
-0
230
1
100
AcDbArc
50
-3.6178685578394663
51
160.99800642215217
0
ARC
5
321
100
AcDbEntity
8
0
100
AcDbCircle
10
-486.8971732986447
20
-95.161620318889661
30
0
40
3.1085547804832454
210
0
220
-0
230
1
100
AcDbArc
50
-25.553239643389769
51
4.943527679960698
0
LINE
5
322
100
AcDbEntity
8
0
100
AcDbLine
10
-483.80018271331755
20
-90.213738620281262
30
0
11
-487.31018341903655
21
-90.213738620281262
31
0
0
LINE
5
323
100
AcDbEntity
8
0
100
AcDbLine
10
-487.31018341903655
20
-90.213738620281262
30
0
11
-487.31018341903655
21
-87.581244647502942
31
0
0
LINE
5
324
100
AcDbEntity
8
0
100
AcDbLine
10
-486.43268383865325
20
-86.703740298748059
30
0
11
-483.80018271331755
21
-86.703740298748059
31
0
0
LINE
5
325
100
AcDbEntity
8
0
100
AcDbLine
10
-483.80018271331755
20
-88.458739459514661
30
0
11
-487.31018341903655
21
-88.458739459514661
31
0
0
ARC
5
326
100
AcDbEntity
8
0
100
AcDbCircle
10
-486.53802431945769
20
-87.475901782512707
30
0
40
0.77931083738803852
210
0
220
-0
230
1
100
AcDbArc
50
82.231380176697655
51
187.76861868531563
0
LINE
5
327
100
AcDbEntity
8
0
100
AcDbLine
10
-483.80018271331755
20
-82.754994571208996
30
0
11
-483.80018271331755
21
-84.217492282390637
31
0
0
LINE
5
328
100
AcDbEntity
8
0
100
AcDbLine
10
-484.67768229370085
20
-85.09499663114552
30
0
11
-486.14018238906829
21
-85.09499663114552
31
0
0
LINE
5
329
100
AcDbEntity
8
0
100
AcDbLine
10
-486.14018238906829
20
-82.754994571208996
30
0
11
-485.55518187408416
21
-82.754994571208996
31
0
0
LINE
5
330
100
AcDbEntity
8
0
100
AcDbLine
10
-485.55518187408416
20
-82.754994571208996
30
0
11
-485.55518187408416
21
-85.09499663114552
31
0
0
ARC
5
331
100
AcDbEntity
8
0
100
AcDbCircle
10
-484.57234181289641
20
-84.322835147380871
30
0
40
0.77931083738803852
210
0
220
-0
230
1
100
AcDbArc
50
-97.768611171879982
51
7.7686032037060162
0
ARC
5
332
100
AcDbEntity
8
0
100
AcDbCircle
10
-486.14018238906829
20
-83.924990832805676
30
0
40
1.1700000613927839
210
0
220
-0
230
1
100
AcDbArc
50
90
51
270.00000500895703
0
LINE
5
333
100
AcDbEntity
8
0
100
AcDbLine
10
-483.80018271331755
20
-81.146241366863293
30
0
11
-487.31018341903655
21
-81.146241366863293
31
0
0
LINE
5
334
100
AcDbEntity
8
0
100
AcDbLine
10
-487.31018341903655
20
-81.146241366863293
30
0
11
-487.31018341903655
21
-78.513747394084973
31
0
0
LINE
5
335
100
AcDbEntity
8
0
100
AcDbLine
10
-486.43268383865325
20
-77.63624304533009
30
0
11
-483.80018271331755
21
-77.63624304533009
31
0
0
LINE
5
336
100
AcDbEntity
8
0
100
AcDbLine
10
-483.80018271331755
20
-79.391242206096692
30
0
11
-487.31018341903655
21
-79.391242206096692
31
0
0
ARC
5
337
100
AcDbEntity
8
0
100
AcDbCircle
10
-486.53802431945769
20
-78.408404529094739
30
0
40
0.77931083738803852
210
0
220
-0
230
1
100
AcDbArc
50
82.231380176697655
51
187.76861868531563
0
LINE
5
338
100
AcDbEntity
8
0
100
AcDbLine
10
-489.06518257980315
20
-75.881243884563489
30
0
11
-483.80018271331755
21
-75.881243884563489
31
0
0
LINE
5
339
100
AcDbEntity
8
0
100
AcDbLine
10
-483.80018271331755
20
-75.881243884563489
30
0
11
-483.80018271331755
21
-74.418746173381848
31
0
0
LINE
5
340
100
AcDbEntity
8
0
100
AcDbLine
10
-484.67768229370085
20
-73.541251361370129
30
0
11
-486.43268383865325
21
-73.541251361370129
31
0
0
LINE
5
341
100
AcDbEntity
8
0
100
AcDbLine
10
-487.31018341903655
20
-74.418746173381848
30
0
11
-487.31018341903655
21
-75.881243884563489
31
0
0
ARC
5
342
100
AcDbEntity
8
0
100
AcDbCircle
10
-484.57234181289641
20
-74.313403308391614
30
0
40
0.77931083738803852
210
0
220
-0
230
1
100
AcDbArc
50
-7.7686291579698805
51
97.768616180840411
0
ARC
5
343
100
AcDbEntity
8
0
100
AcDbCircle
10
-486.53802431945769
20
-74.313403308391614
30
0
40
0.77931083738803852
210
0
220
-0
230
1
100
AcDbArc
50
82.231380176697655
51
187.76861868531563
0
LINE
5
344
100
AcDbEntity
8
0
100
AcDbLine
10
-483.80018271331755
20
-69.738751590251965
30
0
11
-483.80018271331755
21
-71.201249301433606
31
0
0
LINE
5
345
100
AcDbEntity
8
0
100
AcDbLine
10
-484.67768229370085
20
-72.078753650188489
30
0
11
-486.14018238906829
21
-72.078753650188489
31
0
0
LINE
5
346
100
AcDbEntity
8
0
100
AcDbLine
10
-486.14018238906829
20
-69.738751590251965
30
0
11
-485.55518187408416
21
-69.738751590251965
31
0
0
LINE
5
347
100
AcDbEntity
8
0
100
AcDbLine
10
-485.55518187408416
20
-69.738751590251965
30
0
11
-485.55518187408416
21
-72.078753650188489
31
0
0
ARC
5
348
100
AcDbEntity
8
0
100
AcDbCircle
10
-484.57234181289641
20
-71.30659216642384
30
0
40
0.77931083738803852
210
0
220
-0
230
1
100
AcDbArc
50
-97.76861117187984
51
7.7686032037049335
0
ARC
5
349
100
AcDbEntity
8
0
100
AcDbCircle
10
-486.14018238906829
20
-70.908747851848645
30
0
40
1.1700000613927839
210
0
220
-0
230
1
100
AcDbArc
50
90
51
270.00000500895703
0
LINE
5
350
100
AcDbEntity
8
0
100
AcDbLine
10
-483.80018271331755
20
-68.129998385906262
30
0
11
-487.31018341903655
21
-68.129998385906262
31
0
0
LINE
5
351
100
AcDbEntity
8
0
100
AcDbLine
10
-487.31018341903655
20
-68.129998385906262
30
0
11
-487.31018341903655
21
-66.374999225139661
31
0
0
LINE
5
352
100
AcDbEntity
8
0
100
AcDbLine
10
-487.31018341903655
20
-66.374999225139661
30
0
11
-486.72518290405242
21
-66.374999225139661
31
0
0
LINE
5
353
100
AcDbEntity
8
0
100
AcDbLine
10
-483.80018271331755
20
-64.91250151395802
30
0
11
-483.80018271331755
21
-65.205002963542981
31
0
0
LINE
5
354
100
AcDbEntity
8
0
100
AcDbLine
10
-483.80018271331755
20
-65.205002963542981
30
0
11
-484.09268177871672
21
-65.205002963542981
31
0
0
LINE
5
355
100
AcDbEntity
8
0
100
AcDbLine
10
-484.09268177871672
20
-65.205002963542981
30
0
11
-484.09268177871672
21
-64.91250151395802
31
0
0
LINE
5
356
100
AcDbEntity
8
0
100
AcDbLine
10
-484.09268177871672
20
-64.91250151395802
30
0
11
-483.80018271331755
21
-64.91250151395802
31
0
0
LINE
5
357
100
AcDbEntity
8
0
100
AcDbLine
10
-483.80018271331755
20
-64.91250151395802
30
0
11
-482.63018168334929
21
-65.351248919963879
31
0
0
LINE
5
358
100
AcDbEntity
8
0
100
AcDbLine
10
-478.92518080596892
20
-194.78250288963321
30
0
11
-476.00018061523406
21
-197.2687529921532
31
0
0
LINE
5
359
100
AcDbEntity
8
0
100
AcDbLine
10
-476.00018061523406
20
-197.2687529921532
30
0
11
-476.00018061523406
21
-194.34375280141833
31
0
0
ARC
5
360
100
AcDbEntity
8
0
100
AcDbCircle
10
-480.10694302444426
20
-195.50199040770534
30
0
40
1.1689662933349607
210
0
220
-0
230
1
100
AcDbArc
50
82.23138017669757
51
187.76861868531694
0
ARC
5
361
100
AcDbEntity
8
0
100
AcDbCircle
10
-479.81696642761199
20
-195.83658540248874
30
0
40
1.4589405059814451
210
0
220
-0
230
1
100
AcDbArc
50
173.04817449553701
51
259.00656965301073
0
ARC
5
362
100
AcDbEntity
8
0
100
AcDbCircle
10
-479.84473980789153
20
-195.51439160108569
30
0
40
1.1752662807703016
210
0
220
-0
230
1
100
AcDbArc
50
38.516721488511216
51
95.086102926771133
0
LINE
5
363
100
AcDbEntity
8
0
100
AcDbLine
10
-476.00018061523406
20
-190.68750256299975
30
0
11
-479.51018132095305
21
-188.34750229120257
31
0
0
LINE
5
364
100
AcDbEntity
8
0
100
AcDbLine
10
-479.51018132095305
20
-190.68750256299975
30
0
11
-476.00018061523406
21
-188.34750229120257
31
0
0
LINE
5
365
100
AcDbEntity
8
0
100
AcDbLine
10
-480.09518183593718
20
-184.69125264883044
30
0
11
-481.26518048171965
21
-183.22875255346301
31
0
0
LINE
5
366
100
AcDbEntity
8
0
100
AcDbLine
10
-481.26518048171965
20
-183.22875255346301
30
0
11
-476.00018061523406
21
-183.22875255346301
31
0
0
LINE
5
367
100
AcDbEntity
8
0
100
AcDbLine
10
-476.00018061523406
20
-184.69125264883044
30
0
11
-476.00018061523406
21
-181.76625245809558
31
0
0
LINE
5
368
100
AcDbEntity
8
0
100
AcDbLine
10
-478.92518080596892
20
-177.81750315427783
30
0
11
-476.00018061523406
21
-180.30375236272815
31
0
0
LINE
5
369
100
AcDbEntity
8
0
100
AcDbLine
10
-476.00018061523406
20
-180.30375236272815
30
0
11
-476.00018061523406
21
-177.37875097990039
31
0
0
ARC
5
370
100
AcDbEntity
8
0
100
AcDbCircle
10
-480.10694302444426
20
-178.53698962926867
30
0
40
1.1689662933349607
210
0
220
-0
230
1
100
AcDbArc
50
82.23138017669757
51
187.76861868531694
0
ARC
5
371
100
AcDbEntity
8
0
100
AcDbCircle
10
-479.81696642761199
20
-178.87158507108691
30
0
40
1.4589405059814451
210
0
220
-0
230
1
100
AcDbArc
50
173.04817449553701
51
259.00656965301073
0
ARC
5
372
100
AcDbEntity
8
0
100
AcDbCircle
10
-479.84473980789153
20
-178.54939097166064
30
0
40
1.1752662807703016
210
0
220
-0
230
1
100
AcDbArc
50
38.516721488511216
51
95.086102926771133
0
LINE
5
373
100
AcDbEntity
8
0
100
AcDbLine
10
-476.00018061523406
20
-173.43000286817554
30
0
11
-479.51018132095305
21
-173.43000286817554
31
0
0
LINE
5
374
100
AcDbEntity
8
0
100
AcDbLine
10
-479.51018132095305
20
-173.43000286817554
30
0
11
-479.51018132095305
21
-170.79750174283984
31
0
0
LINE
5
375
100
AcDbEntity
8
0
100
AcDbLine
10
-478.63268174056975
20
-169.92000216245654
30
0
11
-476.00018061523406
21
-169.92000216245654
31
0
0
LINE
5
376
100
AcDbEntity
8
0
100
AcDbLine
10
-476.00018061523406
20
-171.67500132322314
30
0
11
-479.51018132095305
21
-171.67500132322314
31
0
0
ARC
5
377
100
AcDbEntity
8
0
100
AcDbCircle
10
-478.73802222137419
20
-170.6921612620354
30
0
40
0.77931083738803852
210
0
220
-0
230
1
100
AcDbArc
50
82.231380176697527
51
187.76861868531668
0
LINE
5
378
100
AcDbEntity
8
0
100
AcDbLine
10
-476.00018061523406
20
-168.16500300168994
30
0
11
-479.51018132095305
21
-168.16500300168994
31
0
0
LINE
5
379
100
AcDbEntity
8
0
100
AcDbLine
10
-479.51018132095305
20
-168.16500300168994
30
0
11
-479.51018132095305
21
-165.53250187635425
31
0
0
LINE
5
380
100
AcDbEntity
8
0
100
AcDbLine
10
-478.63268174056975
20
-164.65500229597095
30
0
11
-476.00018061523406
21
-164.65500229597095
31
0
0
LINE
5
381
100
AcDbEntity
8
0
100
AcDbLine
10
-476.00018061523406
20
-166.41000145673755
30
0
11
-479.51018132095305
21
-166.41000145673755
31
0
0
ARC
5
382
100
AcDbEntity
8
0
100
AcDbCircle
10
-478.73802222137419
20
-165.4271613955498
30
0
40
0.77931083738803852
210
0
220
-0
230
1
100
AcDbArc
50
82.231380176697527
51
187.76861868531668
0
LINE
5
383
100
AcDbEntity
8
0
100
AcDbLine
10
-474.24518145446746
20
-160.56000345945361
30
0
11
-479.51018132095305
21
-160.56000345945361
31
0
0
LINE
5
384
100
AcDbEntity
8
0
100
AcDbLine
10
-479.51018132095305
20
-160.56000345945361
30
0
11
-479.51018132095305
21
-159.09750336408618
31
0
0
LINE
5
385
100
AcDbEntity
8
0
100
AcDbLine
10
-478.63268174056975
20
-158.22000378370288
30
0
11
-476.87768019561736
21
-158.22000378370288
31
0
0
LINE
5
386
100
AcDbEntity
8
0
100
AcDbLine
10
-476.00018061523406
20
-159.09750336408618
30
0
11
-476.00018061523406
21
-160.56000345945361
31
0
0
ARC
5
387
100
AcDbEntity
8
0
100
AcDbCircle
10
-478.73802222137419
20
-158.99216049909595
30
0
40
0.77931083738803852
210
0
220
-0
230
1
100
AcDbArc
50
82.231380176697797
51
187.76861868531464
0
ARC
5
388
100
AcDbEntity
8
0
100
AcDbCircle
10
-476.77233971481292
20
-158.99216049909595
30
0
40
0.77931083738803852
210
0
220
-0
230
1
100
AcDbArc
50
-7.7686291579698805
51
97.768616180840567
0
LINE
5
389
100
AcDbEntity
8
0
100
AcDbLine
10
-481.26518048171965
20
-156.61125296354297
30
0
11
-476.87768019561736
21
-156.61125296354297
31
0
0
ARC
5
390
100
AcDbEntity
8
0
100
AcDbCircle
10
-476.77233971481292
20
-155.8390962481499
30
0
40
0.77931083738803852
210
0
220
-0
230
1
100
AcDbArc
50
-97.768611171879982
51
7.7686032037049335
0
LINE
5
391
100
AcDbEntity
8
0
100
AcDbLine
10
-474.24518145446746
20
-154.5637523531914
30
0
11
-474.24518145446746
21
-153.97874945402148
31
0
0
LINE
5
392
100
AcDbEntity
8
0
100
AcDbLine
10
-474.24518145446746
20
-153.97874945402148
30
0
11
-479.51018132095305
21
-152.22375029325488
31
0
0
LINE
5
393
100
AcDbEntity
8
0
100
AcDbLine
10
-479.51018132095305
20
-154.5637523531914
30
0
11
-476.00018061523406
21
-153.39375132322314
31
0
0
ENDSEC
0
SECTION
2
OBJECTS
0
DICTIONARY
5
C
100
AcDbDictionary
3
ACAD_GROUP
350
D
3
ACAD_MLINESTYLE
350
17
0
DICTIONARY
5
D
100
AcDbDictionary
0
DICTIONARY
5
1A
330
C
100
AcDbDictionary
0
DICTIONARY
5
17
100
AcDbDictionary
0
ENDSEC
0
EOF
