0
SECTION
2
HEADER
9
$INSUNITS
70
4
9
$ACADVER
1
AC1014
9
$HANDSEED
5
FFFF
0
ENDSEC
0
SECTION
2
TABLES
0
TABLE
2
VPORT
5
8
100
AcDbSymbolTable
0
ENDTAB
0
TABLE
2
LTYPE
5
5
100
AcDbSymbolTable
0
LTYPE
5
14
100
AcDbSymbolTableRecord
100
AcDbLinetypeTableRecord
2
BYBLOCK
70
0
0
LTYPE
5
15
100
AcDbSymbolTableRecord
100
AcDbLinetypeTableRecord
2
BYLAYER
70
0
0
LTYPE
5
16
100
AcDbSymbolTableRecord
100
AcDbLinetypeTableRecord
2
DASHED
70
0
3
Dashed __ __ __ __ __ __ __ __ __ __ __ __ __ _
72
65
73
2
40
0.75
49
0.5
74
0
49
-0.25
74
0
0
ENDTAB
0
TABLE
2
LAYER
5
2
100
AcDbSymbolTable
70
3
0
LAYER
5
50
100
AcDbSymbolTableRecord
100
AcDbLayerTableRecord
2
1
70
0
62
7
6
DASHED
0
LAYER
5
51
100
AcDbSymbolTableRecord
100
AcDbLayerTableRecord
2
0
70
0
62
7
6
CONTINUOUS
0
ENDTAB
0
TABLE
2
STYLE
5
3
100
AcDbSymbolTable
70
1
0
STYLE
5
11
100
AcDbSymbolTableRecord
100
AcDbTextStyleTableRecord
2
STANDARD
70
0
0
ENDTAB
0
TABLE
2
VIEW
5
6
100
AcDbSymbolTable
70
0
0
ENDTAB
0
TABLE
2
UCS
5
7
100
AcDbSymbolTable
70
0
0
ENDTAB
0
TABLE
2
APPID
5
9
100
AcDbSymbolTable
70
2
0
APPID
5
12
100
AcDbSymbolTableRecord
100
AcDbRegAppTableRecord
2
ACAD
70
0
0
ENDTAB
0
TABLE
2
DIMSTYLE
5
A
100
AcDbSymbolTable
70
1
0
ENDTAB
0
TABLE
2
BLOCK_RECORD
5
1
100
AcDbSymbolTable
70
1
0
BLOCK_RECORD
5
1F
100
AcDbSymbolTableRecord
100
AcDbBlockTableRecord
2
*MODEL_SPACE
0
BLOCK_RECORD
5
1B
100
AcDbSymbolTableRecord
100
AcDbBlockTableRecord
2
*PAPER_SPACE
0
ENDTAB
0
ENDSEC
0
SECTION
2
BLOCKS
0
BLOCK
5
20
100
AcDbEntity
100
AcDbBlockBegin
2
*MODEL_SPACE
0
ENDBLK
5
21
100
AcDbEntity
100
AcDbBlockEnd
0
BLOCK
5
1C
100
AcDbEntity
100
AcDbBlockBegin
2
*PAPER_SPACE
0
ENDBLK
5
1D
100
AcDbEntity
100
AcDbBlockEnd
0
ENDSEC
0
SECTION
2
ENTITIES
0
CIRCLE
5
100
100
AcDbEntity
8
0
100
AcDbCircle
10
-766.5293306391344
20
-885.28821893385521
30
0
40
1.0000000000000142
210
0
220
0
230
1
0
CIRCLE
5
101
100
AcDbEntity
8
0
100
AcDbCircle
10
-790.52933063913451
20
-975.28821893385521
30
0
40
1.0000000000000142
210
0
220
0
230
1
0
CIRCLE
5
102
100
AcDbEntity
8
0
100
AcDbCircle
10
-730.52932876005843
20
-885.29821893385497
30
0
40
1.0000000000000142
210
0
220
0
230
1
0
CIRCLE
5
103
100
AcDbEntity
8
0
100
AcDbCircle
10
-826.52932876005843
20
-975.28821893385521
30
0
40
1.0000000000000142
210
0
220
0
230
1
0
CIRCLE
5
104
100
AcDbEntity
8
0
100
AcDbCircle
10
-928.52933063913497
20
-1003.2882189338554
30
0
40
5.2499999999999858
210
0
220
0
230
1
0
CIRCLE
5
105
100
AcDbEntity
8
0
100
AcDbCircle
10
-766.52933063913497
20
-1121.2882189338554
30
0
40
1.0000000000000142
210
0
220
0
230
1
0
CIRCLE
5
106
100
AcDbEntity
8
0
100
AcDbCircle
10
-790.52933063913486
20
-1031.2882189338554
30
0
40
1.0000000000000142
210
0
220
0
230
1
0
CIRCLE
5
107
100
AcDbEntity
8
0
100
AcDbCircle
10
-730.52932876005866
20
-1121.2782189338557
30
0
40
1.0000000000000142
210
0
220
0
230
1
0
CIRCLE
5
108
100
AcDbEntity
8
0
100
AcDbCircle
10
-826.52932876005866
20
-1031.2882189338554
30
0
40
1.0000000000000142
210
0
220
0
230
1
0
CIRCLE
5
109
100
AcDbEntity
8
0
100
AcDbCircle
10
-826.52932876005843
20
-1121.2882189338554
30
0
40
1.0000000000000142
210
0
220
0
230
1
0
CIRCLE
5
110
100
AcDbEntity
8
0
100
AcDbCircle
10
-826.52932876005832
20
-885.29821893385497
30
0
40
1.0000000000000142
210
0
220
0
230
1
0
CIRCLE
5
111
100
AcDbEntity
8
0
100
AcDbCircle
10
-766.52933063915816
20
-1031.2782189338557
30
0
40
1.0000000000000142
210
0
220
0
230
1
0
CIRCLE
5
112
100
AcDbEntity
8
0
100
AcDbCircle
10
-790.52932876005855
20
-1121.2882189338554
30
0
40
1.0000000000000142
210
0
220
0
230
1
0
CIRCLE
5
113
100
AcDbEntity
8
0
100
AcDbCircle
10
-790.52932876005809
20
-885.29821893385497
30
0
40
1.0000000000000142
210
0
220
0
230
1
0
CIRCLE
5
114
100
AcDbEntity
8
0
100
AcDbCircle
10
-766.52933063916407
20
-975.29821893385497
30
0
40
1.0000000000000142
210
0
220
0
230
1
0
LWPOLYLINE
5
115
100
AcDbEntity
8
0
100
AcDbPolyline
90
16
70
1
43
0.0
10
-718.52932876005809
20
-879.29821893385588
42
0.41421356237310897
10
-724.52932876005798
20
-873.29821893385599
10
-830.52932876005843
20
-873.2982189338552
42
0.41421356237310025
10
-838.52932876005821
20
-881.2982189338552
10
-838.52932876005866
20
-956.11377689197548
42
-0.38272225785903058
10
-845.6614255956016
20
-964.06655905277478
10
-931.7839675058475
20
-973.46528583085819
42
0.89680525523492682
10
-931.78396750584761
20
-1033.1111520368522
10
-845.66142559560171
20
-1042.5098788149355
42
-0.38272225785904013
10
-838.52932876005855
20
-1050.4626609757347
10
-838.52932876005889
20
-1125.2782189338554
42
0.41421356237309503
10
-830.52932876005866
20
-1133.2782189338554
10
-724.52932876005832
20
-1133.2782189338552
42
0.41421356237310897
10
-718.52932876005843
20
-1127.2782189338554
10
-718.52933063913486
20
-1004.9490313290332
42
-0.30151134457774115
10
-718.52933063913486
20
-1001.6324065386777
0
LINE
5
116
100
AcDbEntity
8
1
100
AcDbLine
10
-744.99999974874208
20
-891.29821893385497
30
0
11
-744.99999974874208
21
-1097.1636963037322
31
0
0
LINE
5
117
100
AcDbEntity
8
1
100
AcDbLine
10
-744.99999974874208
20
-1097.1636963037322
30
0
11
-724.52933026799928
21
-1097.1636963037322
31
0
0
LINE
5
118
100
AcDbEntity
8
1
100
AcDbLine
10
-724.52933026799928
20
-1097.1636963037322
30
0
11
-724.52933026799928
21
-891.29821893385497
31
0
0
LINE
5
119
100
AcDbEntity
8
1
100
AcDbLine
10
-724.52933026799928
20
-891.29821893385497
30
0
11
-744.99999974874208
21
-891.29821893385497
31
0
0
LINE
5
120
100
AcDbEntity
8
0
100
AcDbLine
10
-719.02933063913474
20
-1003.2907189338555
30
0
11
-723.52933063913486
21
-1003.2907189338555
31
0
0
LINE
5
121
100
AcDbEntity
8
0
100
AcDbLine
10
-954.02933063913508
20
-1003.2907189338555
30
0
11
-958.52933063913508
21
-1003.2882189338554
31
0
0
LINE
5
122
100
AcDbEntity
8
0
100
AcDbLine
10
-730.37472440252077
20
-894.36946895531264
30
0
11
-730.37472440252077
21
-893.19946896842566
31
0
0
LINE
5
123
100
AcDbEntity
8
0
100
AcDbLine
10
-729.20472426662218
20
-892.02946898153868
30
0
11
-726.27972407588732
21
-892.02946898153868
31
0
0
LINE
5
124
100
AcDbEntity
8
0
100
AcDbLine
10
-725.10972393998873
20
-893.19946896842566
30
0
11
-725.10972393998873
21
-894.36946895531264
31
0
0
ARC
5
125
100
AcDbEntity
8
0
100
AcDbCircle
10
-729.34517992982637
20
-893.05901345423308
30
0
40
1.0390811413526533
210
-0
220
0
230
1
100
AcDbArc
50
82.23138882811908
51
187.76860320371054
0
ARC
5
126
100
AcDbEntity
8
0
100
AcDbCircle
10
-726.13926841268312
20
-893.05901345423308
30
0
40
1.0390811413526533
210
-0
220
0
230
1
100
AcDbArc
50
-7.7686136763585019
51
97.768621189793038
0
LINE
5
127
100
AcDbEntity
8
0
100
AcDbLine
10
-730.37472440252077
20
-895.68571921995726
30
0
11
-730.37472440252077
21
-897.1482193153247
31
0
0
LINE
5
128
100
AcDbEntity
8
0
100
AcDbLine
10
-725.10972393998873
20
-895.68571921995726
30
0
11
-725.10972393998873
21
-897.44071957281676
31
0
0
LINE
5
129
100
AcDbEntity
8
0
100
AcDbLine
10
-727.44972421178591
20
-897.44071957281676
30
0
11
-727.44972421178591
21
-896.27071913889495
31
0
0
ARC
5
130
100
AcDbEntity
8
0
100
AcDbCircle
10
-728.91222430715334
20
-897.1482193153247
30
0
40
1.4625000953674314
210
-0
220
0
230
1
100
AcDbArc
50
-180
51
2.4148365394514667e-06
0
ARC
5
131
100
AcDbEntity
8
0
100
AcDbCircle
10
-726.27972407588732
20
-897.44071957281676
30
0
40
1.1700000613927839
210
-0
220
0
230
1
100
AcDbArc
50
-180
51
2.4148365394514667e-06
0
LINE
5
132
100
AcDbEntity
8
0
100
AcDbLine
10
-730.37472440252077
20
-900.36571976355162
30
0
11
-730.37472440252077
21
-900.07321950605956
31
0
0
LINE
5
133
100
AcDbEntity
8
0
100
AcDbLine
10
-730.37472440252077
20
-900.07321950605956
30
0
11
-730.0822241450287
21
-900.07321950605956
31
0
0
LINE
5
134
100
AcDbEntity
8
0
100
AcDbLine
10
-730.0822241450287
20
-900.07321950605956
30
0
11
-730.0822241450287
21
-900.36571976355162
31
0
0
LINE
5
135
100
AcDbEntity
8
0
100
AcDbLine
10
-730.0822241450287
20
-900.36571976355162
30
0
11
-730.37472440252077
21
-900.36571976355162
31
0
0
LINE
5
136
100
AcDbEntity
8
0
100
AcDbLine
10
-730.37472440252077
20
-900.36571976355162
30
0
11
-731.54472424039614
21
-899.92696937731353
31
0
0
LINE
5
137
100
AcDbEntity
8
0
100
AcDbLine
10
-730.37472440252077
20
-904.31446906736937
30
0
11
-726.864723994825
21
-904.31446906736937
31
0
0
LINE
5
138
100
AcDbEntity
8
0
100
AcDbLine
10
-726.864723994825
20
-904.31446906736937
30
0
11
-726.864723994825
21
-906.06946942022887
31
0
0
LINE
5
139
100
AcDbEntity
8
0
100
AcDbLine
10
-726.864723994825
20
-906.06946942022887
30
0
11
-727.44972421178591
21
-906.06946942022887
31
0
0
LINE
5
140
100
AcDbEntity
8
0
100
AcDbLine
10
-730.37472440252077
20
-909.57946893385497
30
0
11
-730.37472440252077
21
-908.11696883848754
31
0
0
LINE
5
141
100
AcDbEntity
8
0
100
AcDbLine
10
-729.49722422609102
20
-907.23946925810424
30
0
11
-728.03472413072359
21
-907.23946925810424
31
0
0
LINE
5
142
100
AcDbEntity
8
0
100
AcDbLine
10
-728.03472413072359
20
-909.57946893385497
30
0
11
-728.61972404966127
21
-909.57946893385497
31
0
0
LINE
5
143
100
AcDbEntity
8
0
100
AcDbLine
10
-728.61972404966127
20
-909.57946893385497
30
0
11
-728.61972404966127
21
-907.23946925810424
31
0
0
ARC
5
144
100
AcDbEntity
8
0
100
AcDbCircle
10
-729.60256589898836
20
-908.0116271655902
30
0
40
0.77931083738803852
210
-0
220
0
230
1
100
AcDbArc
50
82.231388828112614
51
187.76860320370645
0
ARC
5
145
100
AcDbEntity
8
0
100
AcDbCircle
10
-728.03472413072359
20
-908.4094690959796
30
0
40
1.1700000613927839
210
-0
220
0
230
1
100
AcDbArc
50
-90
51
90.00000500895429
0
LINE
5
146
100
AcDbEntity
8
0
100
AcDbLine
10
-728.32722438821565
20
-913.38196870497313
30
0
11
-728.32722438821565
21
-912.06571933439818
31
0
0
LINE
5
147
100
AcDbEntity
8
0
100
AcDbLine
10
-730.37472440252077
20
-912.06571933439818
30
0
11
-730.37472440252077
21
-913.38196870497313
31
0
0
LINE
5
148
100
AcDbEntity
8
0
100
AcDbLine
10
-730.37472440252077
20
-913.38196870497313
30
0
11
-727.74222417125475
21
-913.38196870497313
31
0
0
LINE
5
149
100
AcDbEntity
8
0
100
AcDbLine
10
-726.864723994825
20
-912.50446912458983
30
0
11
-726.864723994825
21
-911.33446809462157
31
0
0
ARC
5
150
100
AcDbEntity
8
0
100
AcDbCircle
10
-729.35097439536821
20
-912.06571933439818
30
0
40
1.0237500816583631
210
-0
220
0
230
1
100
AcDbArc
50
2.4148365394514667e-06
51
180
0
ARC
5
151
100
AcDbEntity
8
0
100
AcDbCircle
10
-727.63688249835741
20
-912.60981198958007
30
0
40
0.77931083738803852
210
-0
220
0
230
1
100
AcDbArc
50
-97.768619823302743
51
7.7686186853208445
0
LINE
5
152
100
AcDbEntity
8
0
100
AcDbLine
10
-730.37472440252077
20
-915.13696786573973
30
0
11
-726.864723994825
21
-915.13696786573973
31
0
0
LINE
5
153
100
AcDbEntity
8
0
100
AcDbLine
10
-726.864723994825
20
-915.13696786573973
30
0
11
-726.864723994825
21
-916.89196941069213
31
0
0
LINE
5
154
100
AcDbEntity
8
0
100
AcDbLine
10
-726.864723994825
20
-916.89196941069213
30
0
11
-727.44972421178591
21
-916.89196941069213
31
0
0
LINE
5
155
100
AcDbEntity
8
0
100
AcDbLine
10
-730.37472440252077
20
-922.44946834257689
30
0
11
-730.37472440252077
21
-921.27946969679442
31
0
0
LINE
5
156
100
AcDbEntity
8
0
100
AcDbLine
10
-729.49722422609102
20
-920.40197011641112
30
0
11
-727.74222417125475
21
-920.40197011641112
31
0
0
LINE
5
157
100
AcDbEntity
8
0
100
AcDbLine
10
-726.864723994825
20
-921.27946969679442
30
0
11
-726.864723994825
21
-922.44946834257689
31
0
0
ARC
5
158
100
AcDbEntity
8
0
100
AcDbCircle
10
-729.60256589898836
20
-921.17412683180419
30
0
40
0.77931083738803852
210
-0
220
0
230
1
100
AcDbArc
50
82.231388828112614
51
187.76860320370645
0
ARC
5
159
100
AcDbEntity
8
0
100
AcDbCircle
10
-727.63688249835741
20
-921.17412683180419
30
0
40
0.77931083738803852
210
-0
220
0
230
1
100
AcDbArc
50
-7.7686136763608422
51
97.768621189792043
0
LINE
5
160
100
AcDbEntity
8
0
100
AcDbLine
10
-729.20472426662218
20
-923.76571771315184
30
0
11
-728.03472413072359
21
-923.76571771315184
31
0
0
LINE
5
161
100
AcDbEntity
8
0
100
AcDbLine
10
-728.03472413072359
20
-926.10571977308837
30
0
11
-729.20472426662218
21
-926.10571977308837
31
0
0
ARC
5
162
100
AcDbEntity
8
0
100
AcDbCircle
10
-728.03472413072359
20
-924.93571874312011
30
0
40
1.1700000613927839
210
-0
220
0
230
1
100
AcDbArc
50
-90
51
90.00000500895429
0
ARC
5
163
100
AcDbEntity
8
0
100
AcDbCircle
10
-729.20472426662218
20
-924.93571874312011
30
0
40
1.1700000613927839
210
-0
220
0
230
1
100
AcDbArc
50
90.00000500895429
51
270
0
LINE
5
164
100
AcDbEntity
8
0
100
AcDbLine
10
-730.37472440252077
20
-927.71446820906249
30
0
11
-726.864723994825
21
-927.71446820906249
31
0
0
LINE
5
165
100
AcDbEntity
8
0
100
AcDbLine
10
-726.864723994825
20
-927.71446820906249
30
0
11
-726.864723994825
21
-929.17696830442992
31
0
0
LINE
5
166
100
AcDbEntity
8
0
100
AcDbLine
10
-727.74222417125475
20
-930.05446788481322
30
0
11
-730.37472440252077
21
-930.05446788481322
31
0
0
ARC
5
167
100
AcDbEntity
8
0
100
AcDbCircle
10
-727.63688249835741
20
-929.28231116942015
30
0
40
0.77931083738803852
210
-0
220
0
230
1
100
AcDbArc
50
-97.768619823302743
51
7.7686186853208445
0
LINE
5
168
100
AcDbEntity
8
0
100
AcDbLine
10
-726.864723994825
20
-931.37072202375975
30
0
11
-726.864723994825
21
-933.12572118452636
31
0
0
LINE
5
169
100
AcDbEntity
8
0
100
AcDbLine
10
-725.10972393998873
20
-931.95572015455809
30
0
11
-729.49722422609102
21
-931.95572015455809
31
0
0
LINE
5
170
100
AcDbEntity
8
0
100
AcDbLine
10
-730.37472440252077
20
-932.83321973494139
30
0
11
-730.37472440252077
21
-933.12572118452636
31
0
0
ARC
5
171
100
AcDbEntity
8
0
100
AcDbCircle
10
-729.60256589898836
20
-932.72787686995116
30
0
40
0.77931083738803852
210
-0
220
0
230
1
100
AcDbArc
50
82.231388828112614
51
187.76860320370645
0
LINE
5
172
100
AcDbEntity
8
0
100
AcDbLine
10
-730.37472440252077
20
-934.588218895708
30
0
11
-726.864723994825
21
-934.588218895708
31
0
0
LINE
5
173
100
AcDbEntity
8
0
100
AcDbLine
10
-726.864723994825
20
-934.588218895708
30
0
11
-726.864723994825
21
-936.3432180564746
31
0
0
LINE
5
174
100
AcDbEntity
8
0
100
AcDbLine
10
-726.864723994825
20
-936.3432180564746
30
0
11
-727.44972421178591
21
-936.3432180564746
31
0
0
LINE
5
175
100
AcDbEntity
8
0
100
AcDbLine
10
-729.20472426662218
20
-937.51321908644286
30
0
11
-728.03472413072359
21
-937.51321908644286
31
0
0
LINE
5
176
100
AcDbEntity
8
0
100
AcDbLine
10
-728.03472413072359
20
-939.85322114637938
30
0
11
-729.20472426662218
21
-939.85322114637938
31
0
0
ARC
5
177
100
AcDbEntity
8
0
100
AcDbCircle
10
-728.03472413072359
20
-938.68322011641112
30
0
40
1.1700000613927839
210
-0
220
0
230
1
100
AcDbArc
50
-90
51
90.00000500895429
0
ARC
5
178
100
AcDbEntity
8
0
100
AcDbCircle
10
-729.20472426662218
20
-938.68322011641112
30
0
40
1.1700000613927839
210
-0
220
0
230
1
100
AcDbArc
50
90.00000500895429
51
270
0
LINE
5
179
100
AcDbEntity
8
0
100
AcDbLine
10
-725.10972393998873
20
-941.4619695823535
30
0
11
-729.49722422609102
21
-941.4619695823535
31
0
0
ARC
5
180
100
AcDbEntity
8
0
100
AcDbCircle
10
-729.60256589898836
20
-942.23412629774657
30
0
40
0.77931083738803852
210
-0
220
0
230
1
100
AcDbArc
50
82.231388828112614
51
187.76860320370645
0
LINE
5
181
100
AcDbEntity
8
0
100
AcDbLine
10
-728.32722438821565
20
-948.33572503737059
30
0
11
-728.32722438821565
21
-947.01947328260985
31
0
0
LINE
5
182
100
AcDbEntity
8
0
100
AcDbLine
10
-730.37472440252077
20
-947.01947328260985
30
0
11
-730.37472440252077
21
-948.33572503737059
31
0
0
LINE
5
183
100
AcDbEntity
8
0
100
AcDbLine
10
-730.37472440252077
20
-948.33572503737059
30
0
11
-727.74222417125475
21
-948.33572503737059
31
0
0
LINE
5
184
100
AcDbEntity
8
0
100
AcDbLine
10
-726.864723994825
20
-947.45822545698729
30
0
11
-726.864723994825
21
-946.28822442701903
31
0
0
ARC
5
185
100
AcDbEntity
8
0
100
AcDbCircle
10
-729.35097439536821
20
-947.01947328260985
30
0
40
1.0237500816583631
210
-0
220
0
230
1
100
AcDbArc
50
2.4148365394514667e-06
51
180
0
ARC
5
186
100
AcDbEntity
8
0
100
AcDbCircle
10
-727.63688249835741
20
-947.56356355360595
30
0
40
0.77931083738803852
210
-0
220
0
230
1
100
AcDbArc
50
-97.768619823302743
51
7.7686186853208445
0
LINE
5
187
100
AcDbEntity
8
0
100
AcDbLine
10
-728.91222430715334
20
-951.8457233589038
30
0
11
-728.32722438821565
21
-950.38322564772216
31
0
0
ARC
5
188
100
AcDbEntity
8
0
100
AcDbCircle
10
-727.61440469274294
20
-950.62162515333739
30
0
40
0.75162976980209339
210
-0
220
0
230
1
100
AcDbArc
50
-4.1274125090748432
51
161.50753671300578
0
ARC
5
189
100
AcDbEntity
8
0
100
AcDbCircle
10
-729.58145095357668
20
-950.76263066938964
30
0
40
2.7181166410446163
210
-0
220
0
230
1
100
AcDbArc
50
-26.88987852197323
51
1.8322622210385222
0
ARC
5
190
100
AcDbEntity
8
0
100
AcDbCircle
10
-729.62372137555849
20
-951.60071012190429
30
0
40
0.7525029033422469
210
-0
220
0
230
1
100
AcDbArc
50
176.38213144215783
51
340.99800642215524
0
ARC
5
191
100
AcDbEntity
8
0
100
AcDbCircle
10
-727.27773322114717
20
-951.28534909895507
30
0
40
3.1085547804832454
210
-0
220
0
230
1
100
AcDbArc
50
154.44676035660979
51
184.94352767995895
0
LINE
5
192
100
AcDbEntity
8
0
100
AcDbLine
10
-728.91222430715334
20
-955.64822313002196
30
0
11
-728.32722438821565
21
-954.18572541884032
31
0
0
ARC
5
193
100
AcDbEntity
8
0
100
AcDbCircle
10
-727.61440469274294
20
-954.42412492445555
30
0
40
0.75162976980209339
210
-0
220
0
230
1
100
AcDbArc
50
-4.1274125090748432
51
161.50753671300578
0
ARC
5
194
100
AcDbEntity
8
0
100
AcDbCircle
10
-729.58145095357668
20
-954.5651304405078
30
0
40
2.7181166410446163
210
-0
220
0
230
1
100
AcDbArc
50
-26.88987852197323
51
1.8322622210385222
0
ARC
5
195
100
AcDbEntity
8
0
100
AcDbCircle
10
-729.62372137555849
20
-955.40320989302245
30
0
40
0.7525029033422469
210
-0
220
0
230
1
100
AcDbArc
50
176.38213144215783
51
340.99800642215524
0
ARC
5
196
100
AcDbEntity
8
0
100
AcDbCircle
10
-727.27773322114717
20
-955.08784887007323
30
0
40
3.1085547804832454
210
-0
220
0
230
1
100
AcDbArc
50
154.44676035660979
51
184.94352767995895
0
LINE
5
197
100
AcDbEntity
8
0
100
AcDbLine
10
-730.37472440252077
20
-959.88947507551757
30
0
11
-730.37472440252077
21
-958.42697259596434
31
0
0
LINE
5
198
100
AcDbEntity
8
0
100
AcDbLine
10
-729.49722422609102
20
-957.54947301558104
30
0
11
-728.03472413072359
21
-957.54947301558104
31
0
0
LINE
5
199
100
AcDbEntity
8
0
100
AcDbLine
10
-728.03472413072359
20
-959.88947507551757
30
0
11
-728.61972404966127
21
-959.88947507551757
31
0
0
LINE
5
200
100
AcDbEntity
8
0
100
AcDbLine
10
-728.61972404966127
20
-959.88947507551757
30
0
11
-728.61972404966127
21
-957.54947301558104
31
0
0
ARC
5
201
100
AcDbEntity
8
0
100
AcDbCircle
10
-729.60256589898836
20
-958.32163449934569
30
0
40
0.77931083738803852
210
-0
220
0
230
1
100
AcDbArc
50
82.231388828112614
51
187.76860320370645
0
ARC
5
202
100
AcDbEntity
8
0
100
AcDbCircle
10
-728.03472413072359
20
-958.7194740455493
30
0
40
1.1700000613927839
210
-0
220
0
230
1
100
AcDbArc
50
-90
51
90.00000500895429
0
LINE
5
203
100
AcDbEntity
8
0
100
AcDbLine
10
-730.37472440252077
20
-961.49822351149169
30
0
11
-726.864723994825
21
-961.49822351149169
31
0
0
LINE
5
204
100
AcDbEntity
8
0
100
AcDbLine
10
-726.864723994825
20
-961.49822351149169
30
0
11
-726.864723994825
21
-964.13072225264159
31
0
0
LINE
5
205
100
AcDbEntity
8
0
100
AcDbLine
10
-727.74222417125475
20
-965.00822183302489
30
0
11
-730.37472440252077
21
-965.00822183302489
31
0
0
LINE
5
206
100
AcDbEntity
8
0
100
AcDbLine
10
-730.37472440252077
20
-963.25322267225829
30
0
11
-726.864723994825
21
-963.25322267225829
31
0
0
ARC
5
207
100
AcDbEntity
8
0
100
AcDbCircle
10
-727.63688249835741
20
-964.23606511763182
30
0
40
0.77931083738803852
210
-0
220
0
230
1
100
AcDbArc
50
-97.768619823302743
51
7.7686186853208445
0
LINE
5
208
100
AcDbEntity
8
0
100
AcDbLine
10
-725.10972393998873
20
-966.76322576216307
30
0
11
-730.37472440252077
21
-966.76322576216307
31
0
0
LINE
5
209
100
AcDbEntity
8
0
100
AcDbLine
10
-730.37472440252077
20
-966.76322576216307
30
0
11
-730.37472440252077
21
-968.2257282417163
31
0
0
LINE
5
210
100
AcDbEntity
8
0
100
AcDbLine
10
-729.49722422609102
20
-969.1032278220996
30
0
11
-727.74222417125475
21
-969.1032278220996
31
0
0
LINE
5
211
100
AcDbEntity
8
0
100
AcDbLine
10
-726.864723994825
20
-968.2257282417163
30
0
11
-726.864723994825
21
-966.76322576216307
31
0
0
ARC
5
212
100
AcDbEntity
8
0
100
AcDbCircle
10
-729.60256589898836
20
-968.33106633833495
30
0
40
0.77931083738803852
210
-0
220
0
230
1
100
AcDbArc
50
172.23137084203424
51
277.76861618084968
0
ARC
5
213
100
AcDbEntity
8
0
100
AcDbCircle
10
-727.63688249835741
20
-968.33106633833495
30
0
40
0.77931083738803852
210
-0
220
0
230
1
100
AcDbArc
50
-97.768619823302743
51
7.7686186853208445
0
LINE
5
214
100
AcDbEntity
8
0
100
AcDbLine
10
-725.10972393998873
20
-970.71197625807372
30
0
11
-729.49722422609102
21
-970.71197625807372
31
0
0
ARC
5
215
100
AcDbEntity
8
0
100
AcDbCircle
10
-729.60256589898836
20
-971.48413774183837
30
0
40
0.77931083738803852
210
-0
220
0
230
1
100
AcDbArc
50
82.231388828112614
51
187.76860320370645
0
LINE
5
216
100
AcDbEntity
8
0
100
AcDbLine
10
-732.12972475538027
20
-972.75947686842528
30
0
11
-732.12972475538027
21
-973.34447023085204
31
0
0
LINE
5
217
100
AcDbEntity
8
0
100
AcDbLine
10
-732.12972475538027
20
-973.34447023085204
30
0
11
-726.864723994825
21
-975.09946939161864
31
0
0
LINE
5
218
100
AcDbEntity
8
0
100
AcDbLine
10
-726.864723994825
20
-972.75947686842528
30
0
11
-730.37472440252077
21
-973.92947313002196
31
0
0
LINE
5
219
100
AcDbEntity
8
0
100
AcDbLine
10
-730.37472440252077
20
-980.80322381666747
30
0
11
-730.37472440252077
21
-979.63322755507079
31
0
0
LINE
5
220
100
AcDbEntity
8
0
100
AcDbLine
10
-729.49722422609102
20
-978.75572320631591
30
0
11
-727.74222417125475
21
-978.75572320631591
31
0
0
LINE
5
221
100
AcDbEntity
8
0
100
AcDbLine
10
-726.864723994825
20
-979.63322755507079
30
0
11
-726.864723994825
21
-980.80322381666747
31
0
0
ARC
5
222
100
AcDbEntity
8
0
100
AcDbCircle
10
-729.60256589898836
20
-979.52788469008055
30
0
40
0.77931083738803852
210
-0
220
0
230
1
100
AcDbArc
50
82.231388828112614
51
187.76860320370645
0
ARC
5
223
100
AcDbEntity
8
0
100
AcDbCircle
10
-727.63688249835741
20
-979.52788469008055
30
0
40
0.77931083738803852
210
-0
220
0
230
1
100
AcDbArc
50
-7.7686136763608422
51
97.768621189792043
0
LINE
5
224
100
AcDbEntity
8
0
100
AcDbLine
10
-730.37472440252077
20
-984.45947763136473
30
0
11
-730.37472440252077
21
-982.99697992018309
31
0
0
LINE
5
225
100
AcDbEntity
8
0
100
AcDbLine
10
-729.49722422609102
20
-982.11947557142821
30
0
11
-728.03472413072359
21
-982.11947557142821
31
0
0
LINE
5
226
100
AcDbEntity
8
0
100
AcDbLine
10
-728.03472413072359
20
-984.45947763136473
30
0
11
-728.61972404966127
21
-984.45947763136473
31
0
0
LINE
5
227
100
AcDbEntity
8
0
100
AcDbLine
10
-728.61972404966127
20
-984.45947763136473
30
0
11
-728.61972404966127
21
-982.11947557142821
31
0
0
ARC
5
228
100
AcDbEntity
8
0
100
AcDbCircle
10
-729.60256589898836
20
-982.89163705519286
30
0
40
0.77931083738803852
210
-0
220
0
230
1
100
AcDbArc
50
82.231388828112614
51
187.76860320370645
0
ARC
5
229
100
AcDbEntity
8
0
100
AcDbCircle
10
-728.03472413072359
20
-983.28948136976805
30
0
40
1.1700000613927839
210
-0
220
0
230
1
100
AcDbArc
50
-90
51
90.00000500895429
0
LINE
5
230
100
AcDbEntity
8
0
100
AcDbLine
10
-730.37472440252077
20
-986.06823083571044
30
0
11
-726.864723994825
21
-986.06823083571044
31
0
0
LINE
5
231
100
AcDbEntity
8
0
100
AcDbLine
10
-726.864723994825
20
-986.06823083571044
30
0
11
-726.864723994825
21
-987.53072854689208
31
0
0
LINE
5
232
100
AcDbEntity
8
0
100
AcDbLine
10
-727.74222417125475
20
-988.4082233589038
30
0
11
-730.37472440252077
21
-988.4082233589038
31
0
0
ARC
5
233
100
AcDbEntity
8
0
100
AcDbCircle
10
-727.63688249835741
20
-987.63607141188231
30
0
40
0.77931083738803852
210
-0
220
0
230
1
100
AcDbArc
50
-97.768619823302743
51
7.7686186853208445
0
LINE
5
234
100
AcDbEntity
8
0
100
AcDbLine
10
-726.864723994825
20
-989.72447511366454
30
0
11
-726.864723994825
21
-991.47947427443114
31
0
0
LINE
5
235
100
AcDbEntity
8
0
100
AcDbLine
10
-725.10972393998873
20
-990.30947801283446
30
0
11
-729.49722422609102
21
-990.30947801283446
31
0
0
LINE
5
236
100
AcDbEntity
8
0
100
AcDbLine
10
-730.37472440252077
20
-991.18698236158934
30
0
11
-730.37472440252077
21
-991.47947427443114
31
0
0
ARC
5
237
100
AcDbEntity
8
0
100
AcDbCircle
10
-729.60256589898836
20
-991.08163949659911
30
0
40
0.77931083738803852
210
-0
220
0
230
1
100
AcDbArc
50
82.231388828112614
51
187.76860320370645
0
LINE
5
238
100
AcDbEntity
8
0
100
AcDbLine
10
-730.37472440252077
20
-995.13572808912841
30
0
11
-730.37472440252077
21
-993.67323037794677
31
0
0
LINE
5
239
100
AcDbEntity
8
0
100
AcDbLine
10
-729.49722422609102
20
-992.79572602919188
30
0
11
-728.03472413072359
21
-992.79572602919188
31
0
0
LINE
5
240
100
AcDbEntity
8
0
100
AcDbLine
10
-728.03472413072359
20
-995.13572808912841
30
0
11
-728.61972404966127
21
-995.13572808912841
31
0
0
LINE
5
241
100
AcDbEntity
8
0
100
AcDbLine
10
-728.61972404966127
20
-995.13572808912841
30
0
11
-728.61972404966127
21
-992.79572602919188
31
0
0
ARC
5
242
100
AcDbEntity
8
0
100
AcDbCircle
10
-729.60256589898836
20
-993.56788751295653
30
0
40
0.77931083738803852
210
-0
220
0
230
1
100
AcDbArc
50
82.231388828112614
51
187.76860320370645
0
ARC
5
243
100
AcDbEntity
8
0
100
AcDbCircle
10
-728.03472413072359
20
-993.96573182753173
30
0
40
1.1700000613927839
210
-0
220
0
230
1
100
AcDbArc
50
-90
51
90.00000500895429
0
LINE
5
244
100
AcDbEntity
8
0
100
AcDbLine
10
-730.37472440252077
20
-996.74448129347411
30
0
11
-726.864723994825
21
-996.74448129347411
31
0
0
LINE
5
245
100
AcDbEntity
8
0
100
AcDbLine
10
-726.864723994825
20
-996.74448129347411
30
0
11
-726.864723994825
21
-998.49948045424071
31
0
0
LINE
5
246
100
AcDbEntity
8
0
100
AcDbLine
10
-726.864723994825
20
-998.49948045424071
30
0
11
-727.44972421178591
21
-998.49948045424071
31
0
0
LINE
5
247
100
AcDbEntity
8
0
100
AcDbLine
10
-732.12972475538027
20
-1002.155734268938
30
0
11
-726.864723994825
21
-1002.155734268938
31
0
0
LINE
5
248
100
AcDbEntity
8
0
100
AcDbLine
10
-726.864723994825
20
-1002.155734268938
30
0
11
-726.864723994825
21
-1003.6182319801196
31
0
0
LINE
5
249
100
AcDbEntity
8
0
100
AcDbLine
10
-727.74222417125475
20
-1004.4957267921313
30
0
11
-729.49722422609102
21
-1004.4957267921313
31
0
0
LINE
5
250
100
AcDbEntity
8
0
100
AcDbLine
10
-730.37472440252077
20
-1003.6182319801196
30
0
11
-730.37472440252077
21
-1002.155734268938
31
0
0
ARC
5
251
100
AcDbEntity
8
0
100
AcDbCircle
10
-727.63688249835741
20
-1003.7235748451099
30
0
40
0.77931083738803852
210
-0
220
0
230
1
100
AcDbArc
50
-97.768619823302743
51
7.7686186853208445
0
ARC
5
252
100
AcDbEntity
8
0
100
AcDbCircle
10
-729.60256589898836
20
-1003.7235748451099
30
0
40
0.77931083738803852
210
-0
220
0
230
1
100
AcDbArc
50
172.23137084203424
51
277.76861618084968
0
LINE
5
253
100
AcDbEntity
8
0
100
AcDbLine
10
-730.37472440252077
20
-1006.104479996477
30
0
11
-726.864723994825
21
-1006.104479996477
31
0
0
LINE
5
254
100
AcDbEntity
8
0
100
AcDbLine
10
-725.40222389945757
20
-1005.958224503313
30
0
11
-725.10972393998873
21
-1005.958224503313
31
0
0
LINE
5
255
100
AcDbEntity
8
0
100
AcDbLine
10
-725.10972393998873
20
-1005.958224503313
30
0
11
-725.10972393998873
21
-1006.2507259528979
31
0
0
LINE
5
256
100
AcDbEntity
8
0
100
AcDbLine
10
-725.10972393998873
20
-1006.2507259528979
30
0
11
-725.40222389945757
21
-1006.2507259528979
31
0
0
LINE
5
257
100
AcDbEntity
8
0
100
AcDbLine
10
-725.40222389945757
20
-1006.2507259528979
30
0
11
-725.40222389945757
21
-1005.958224503313
31
0
0
LINE
5
258
100
AcDbEntity
8
0
100
AcDbLine
10
-730.37472440252077
20
-1010.0532257240161
30
0
11
-730.37472440252077
21
-1008.5907280128345
31
0
0
LINE
5
259
100
AcDbEntity
8
0
100
AcDbLine
10
-729.49722422609102
20
-1007.7132236640796
30
0
11
-728.03472413072359
21
-1007.7132236640796
31
0
0
LINE
5
260
100
AcDbEntity
8
0
100
AcDbLine
10
-728.03472413072359
20
-1010.0532257240161
30
0
11
-728.61972404966127
21
-1010.0532257240161
31
0
0
LINE
5
261
100
AcDbEntity
8
0
100
AcDbLine
10
-728.61972404966127
20
-1010.0532257240161
30
0
11
-728.61972404966127
21
-1007.7132236640796
31
0
0
ARC
5
262
100
AcDbEntity
8
0
100
AcDbCircle
10
-729.60256589898836
20
-1008.4853851478442
30
0
40
0.77931083738803852
210
-0
220
0
230
1
100
AcDbArc
50
82.231388828112614
51
187.76860320370645
0
ARC
5
263
100
AcDbEntity
8
0
100
AcDbCircle
10
-728.03472413072359
20
-1008.8832294624194
30
0
40
1.1700000613927839
210
-0
220
0
230
1
100
AcDbArc
50
-90
51
90.00000500895429
0
LINE
5
264
100
AcDbEntity
8
0
100
AcDbLine
10
-730.37472440252077
20
-1013.5632240455493
30
0
11
-730.37472440252077
21
-1012.3932277839526
31
0
0
LINE
5
265
100
AcDbEntity
8
0
100
AcDbLine
10
-729.49722422609102
20
-1011.5157234351977
30
0
11
-727.74222417125475
21
-1011.5157234351977
31
0
0
LINE
5
266
100
AcDbEntity
8
0
100
AcDbLine
10
-726.864723994825
20
-1012.3932277839526
30
0
11
-726.864723994825
21
-1013.5632240455493
31
0
0
ARC
5
267
100
AcDbEntity
8
0
100
AcDbCircle
10
-729.60256589898836
20
-1012.2878849189624
30
0
40
0.77931083738803852
210
-0
220
0
230
1
100
AcDbArc
50
82.231388828112614
51
187.76860320370645
0
ARC
5
268
100
AcDbEntity
8
0
100
AcDbCircle
10
-727.63688249835741
20
-1012.2878849189624
30
0
40
0.77931083738803852
210
-0
220
0
230
1
100
AcDbArc
50
-7.7686136763608422
51
97.768621189792043
0
LINE
5
269
100
AcDbEntity
8
0
100
AcDbLine
10
-730.37472440252077
20
-1017.2194778602466
30
0
11
-730.37472440252077
21
-1015.7569801490649
31
0
0
LINE
5
270
100
AcDbEntity
8
0
100
AcDbLine
10
-729.49722422609102
20
-1014.87947580031
30
0
11
-728.03472413072359
21
-1014.87947580031
31
0
0
LINE
5
271
100
AcDbEntity
8
0
100
AcDbLine
10
-728.03472413072359
20
-1017.2194778602466
30
0
11
-728.61972404966127
21
-1017.2194778602466
31
0
0
LINE
5
272
100
AcDbEntity
8
0
100
AcDbLine
10
-728.61972404966127
20
-1017.2194778602466
30
0
11
-728.61972404966127
21
-1014.87947580031
31
0
0
ARC
5
273
100
AcDbEntity
8
0
100
AcDbCircle
10
-729.60256589898836
20
-1015.6516372840747
30
0
40
0.77931083738803852
210
-0
220
0
230
1
100
AcDbArc
50
82.231388828112614
51
187.76860320370645
0
ARC
5
274
100
AcDbEntity
8
0
100
AcDbCircle
10
-728.03472413072359
20
-1016.0494815986499
30
0
40
1.1700000613927839
210
-0
220
0
230
1
100
AcDbArc
50
-90
51
90.00000500895429
0
LINE
5
275
100
AcDbEntity
8
0
100
AcDbLine
10
-730.37472440252077
20
-1018.9744770210132
30
0
11
-730.37472440252077
21
-1018.6819755714282
31
0
0
LINE
5
276
100
AcDbEntity
8
0
100
AcDbLine
10
-730.37472440252077
20
-1018.6819755714282
30
0
11
-730.0822241450287
21
-1018.6819755714282
31
0
0
LINE
5
277
100
AcDbEntity
8
0
100
AcDbLine
10
-730.0822241450287
20
-1018.6819755714282
30
0
11
-730.0822241450287
21
-1018.9744770210132
31
0
0
LINE
5
278
100
AcDbEntity
8
0
100
AcDbLine
10
-730.0822241450287
20
-1018.9744770210132
30
0
11
-730.37472440252077
21
-1018.9744770210132
31
0
0
LINE
5
279
100
AcDbEntity
8
0
100
AcDbLine
10
-730.37472440252077
20
-1018.9744770210132
30
0
11
-731.54472424039614
21
-1018.5357296150073
31
0
0
LINE
5
280
100
AcDbEntity
8
0
100
AcDbLine
10
-726.27972407588732
20
-1022.7769767921313
30
0
11
-725.10972393998873
21
-1024.239474503313
31
0
0
LINE
5
281
100
AcDbEntity
8
0
100
AcDbLine
10
-725.10972393998873
20
-1024.239474503313
30
0
11
-730.37472440252077
21
-1024.239474503313
31
0
0
LINE
5
282
100
AcDbEntity
8
0
100
AcDbLine
10
-730.37472440252077
20
-1022.7769767921313
30
0
11
-730.37472440252077
21
-1025.7019817512378
31
0
0
LINE
5
283
100
AcDbEntity
8
0
100
AcDbLine
10
-730.37472440252077
20
-1029.358235565935
30
0
11
-726.864723994825
21
-1031.6982280891284
31
0
0
LINE
5
284
100
AcDbEntity
8
0
100
AcDbLine
10
-726.864723994825
20
-1029.358235565935
30
0
11
-730.37472440252077
21
-1031.6982280891284
31
0
0
LINE
5
285
100
AcDbEntity
8
0
100
AcDbLine
10
-727.44972421178591
20
-1035.3544819038257
30
0
11
-727.44972421178591
21
-1037.1094810645923
31
0
0
LINE
5
286
100
AcDbEntity
8
0
100
AcDbLine
10
-728.61972404966127
20
-1038.2794868629321
30
0
11
-728.91222430715334
21
-1038.2794868629321
31
0
0
LINE
5
287
100
AcDbEntity
8
0
100
AcDbLine
10
-728.91222430715334
20
-1035.3544819038257
30
0
11
-727.44972421178591
21
-1035.3544819038257
31
0
0
ARC
5
288
100
AcDbEntity
8
0
100
AcDbCircle
10
-728.4792686844803
20
-1037.2499382179126
30
0
40
1.0390811413526533
210
-0
220
0
230
1
100
AcDbArc
50
-97.7686198233
51
7.7686186853145864
0
ARC
5
289
100
AcDbEntity
8
0
100
AcDbCircle
10
-728.91222430715334
20
-1036.8169796150073
30
0
40
1.4625000953674314
210
-0
220
0
230
1
100
AcDbArc
50
90.00000500895311
51
270
0
ARC
5
290
100
AcDbEntity
8
0
100
AcDbCircle
10
-727.16881318340074
20
-1037.4135696571216
30
0
40
2.0781622827053066
210
-0
220
0
230
1
100
AcDbArc
50
-7.7686136763580436
51
97.768621189793038
0
LINE
5
291
100
AcDbEntity
8
0
100
AcDbLine
10
-730.37472440252077
20
-1042.2282421272143
30
0
11
-726.864723994825
21
-1042.2282421272143
31
0
0
LINE
5
292
100
AcDbEntity
8
0
100
AcDbLine
10
-726.864723994825
20
-1042.2282421272143
30
0
11
-726.864723994825
21
-1044.8607360999927
31
0
0
LINE
5
293
100
AcDbEntity
8
0
100
AcDbLine
10
-727.74222417125475
20
-1045.7382404487475
30
0
11
-730.37472440252077
21
-1045.7382404487475
31
0
0
LINE
5
294
100
AcDbEntity
8
0
100
AcDbLine
10
-730.37472440252077
20
-1043.9832412879809
30
0
11
-726.864723994825
21
-1043.9832412879809
31
0
0
ARC
5
295
100
AcDbEntity
8
0
100
AcDbCircle
10
-727.63688249835741
20
-1044.9660789649829
30
0
40
0.77931083738803852
210
-0
220
0
230
1
100
AcDbArc
50
-97.768619823302743
51
7.7686186853208445
0
LINE
5
296
100
AcDbEntity
8
0
100
AcDbLine
10
-730.37472440252077
20
-1047.4932396095141
30
0
11
-726.864723994825
21
-1047.4932396095141
31
0
0
LINE
5
297
100
AcDbEntity
8
0
100
AcDbLine
10
-726.864723994825
20
-1047.4932396095141
30
0
11
-726.864723994825
21
-1050.1257335822925
31
0
0
LINE
5
298
100
AcDbEntity
8
0
100
AcDbLine
10
-727.74222417125475
20
-1051.0032379310474
30
0
11
-730.37472440252077
21
-1051.0032379310474
31
0
0
LINE
5
299
100
AcDbEntity
8
0
100
AcDbLine
10
-730.37472440252077
20
-1049.2482387702808
30
0
11
-726.864723994825
21
-1049.2482387702808
31
0
0
ARC
5
300
100
AcDbEntity
8
0
100
AcDbCircle
10
-727.63688249835741
20
-1050.2310764472827
30
0
40
0.77931083738803852
210
-0
220
0
230
1
100
AcDbArc
50
-97.768619823302743
51
7.7686186853208445
0
LINE
5
301
100
AcDbEntity
8
0
100
AcDbLine
10
-732.12972475538027
20
-1055.0982296150073
30
0
11
-726.864723994825
21
-1055.0982296150073
31
0
0
LINE
5
302
100
AcDbEntity
8
0
100
AcDbLine
10
-726.864723994825
20
-1055.0982296150073
30
0
11
-726.864723994825
21
-1056.560727326189
31
0
0
LINE
5
303
100
AcDbEntity
8
0
100
AcDbLine
10
-727.74222417125475
20
-1057.438241211687
30
0
11
-729.49722422609102
21
-1057.438241211687
31
0
0
LINE
5
304
100
AcDbEntity
8
0
100
AcDbLine
10
-730.37472440252077
20
-1056.560727326189
30
0
11
-730.37472440252077
21
-1055.0982296150073
31
0
0
ARC
5
305
100
AcDbEntity
8
0
100
AcDbCircle
10
-727.63688249835741
20
-1056.6660701911792
30
0
40
0.77931083738803852
210
-0
220
0
230
1
100
AcDbArc
50
-97.768619823302743
51
7.7686186853208445
0
ARC
5
306
100
AcDbEntity
8
0
100
AcDbCircle
10
-729.60256589898836
20
-1056.6660701911792
30
0
40
0.77931083738803852
210
-0
220
0
230
1
100
AcDbArc
50
172.23137084203424
51
277.76861618084968
0
LINE
5
307
100
AcDbEntity
8
0
100
AcDbLine
10
-725.10972393998873
20
-1059.0469753425464
30
0
11
-729.49722422609102
21
-1059.0469753425464
31
0
0
ARC
5
308
100
AcDbEntity
8
0
100
AcDbCircle
10
-729.60256589898836
20
-1059.8191463630542
30
0
40
0.77931083738803852
210
-0
220
0
230
1
100
AcDbArc
50
82.231388828111463
51
187.76860320371478
0
LINE
5
309
100
AcDbEntity
8
0
100
AcDbLine
10
-732.12972475538027
20
-1061.0944759528979
30
0
11
-732.12972475538027
21
-1061.6794788520679
31
0
0
LINE
5
310
100
AcDbEntity
8
0
100
AcDbLine
10
-732.12972475538027
20
-1061.6794788520679
30
0
11
-726.864723994825
21
-1063.4344684760913
31
0
0
LINE
5
311
100
AcDbEntity
8
0
100
AcDbLine
10
-726.864723994825
20
-1061.0944759528979
30
0
11
-730.37472440252077
21
-1062.2644817512378
31
0
0
ENDSEC
0
SECTION
2
OBJECTS
0
DICTIONARY
5
C
100
AcDbDictionary
3
ACAD_GROUP
350
D
3
ACAD_MLINESTYLE
350
17
0
DICTIONARY
5
D
100
AcDbDictionary
0
DICTIONARY
5
1A
330
C
100
AcDbDictionary
0
DICTIONARY
5
17
100
AcDbDictionary
0
ENDSEC
0
EOF
