0
SECTION
2
HEADER
9
$INSUNITS
70
4
9
$ACADVER
1
AC1014
9
$HANDSEED
5
FFFF
0
ENDSEC
0
SECTION
2
TABLES
0
TABLE
2
VPORT
5
8
100
AcDbSymbolTable
0
ENDTAB
0
TABLE
2
LTYPE
5
5
100
AcDbSymbolTable
0
LTYPE
5
14
100
AcDbSymbolTableRecord
100
AcDbLinetypeTableRecord
2
BYBLOCK
70
0
0
LTYPE
5
15
100
AcDbSymbolTableRecord
100
AcDbLinetypeTableRecord
2
BYLAYER
70
0
0
LTYPE
5
16
100
AcDbSymbolTableRecord
100
AcDbLinetypeTableRecord
2
DASHED
70
0
3
Dashed __ __ __ __ __ __ __ __ __ __ __ __ __ _
72
65
73
2
40
0.75
49
0.5
74
0
49
-0.25
74
0
0
ENDTAB
0
TABLE
2
LAYER
5
2
100
AcDbSymbolTable
70
3
0
LAYER
5
50
100
AcDbSymbolTableRecord
100
AcDbLayerTableRecord
2
1
70
0
62
7
6
DASHED
0
LAYER
5
51
100
AcDbSymbolTableRecord
100
AcDbLayerTableRecord
2
0
70
0
62
7
6
CONTINUOUS
0
ENDTAB
0
TABLE
2
STYLE
5
3
100
AcDbSymbolTable
70
1
0
STYLE
5
11
100
AcDbSymbolTableRecord
100
AcDbTextStyleTableRecord
2
STANDARD
70
0
0
ENDTAB
0
TABLE
2
VIEW
5
6
100
AcDbSymbolTable
70
0
0
ENDTAB
0
TABLE
2
UCS
5
7
100
AcDbSymbolTable
70
0
0
ENDTAB
0
TABLE
2
APPID
5
9
100
AcDbSymbolTable
70
2
0
APPID
5
12
100
AcDbSymbolTableRecord
100
AcDbRegAppTableRecord
2
ACAD
70
0
0
ENDTAB
0
TABLE
2
DIMSTYLE
5
A
100
AcDbSymbolTable
70
1
0
ENDTAB
0
TABLE
2
BLOCK_RECORD
5
1
100
AcDbSymbolTable
70
1
0
BLOCK_RECORD
5
1F
100
AcDbSymbolTableRecord
100
AcDbBlockTableRecord
2
*MODEL_SPACE
0
BLOCK_RECORD
5
1B
100
AcDbSymbolTableRecord
100
AcDbBlockTableRecord
2
*PAPER_SPACE
0
ENDTAB
0
ENDSEC
0
SECTION
2
BLOCKS
0
BLOCK
5
20
100
AcDbEntity
100
AcDbBlockBegin
2
*MODEL_SPACE
0
ENDBLK
5
21
100
AcDbEntity
100
AcDbBlockEnd
0
BLOCK
5
1C
100
AcDbEntity
100
AcDbBlockBegin
2
*PAPER_SPACE
0
ENDBLK
5
1D
100
AcDbEntity
100
AcDbBlockEnd
0
ENDSEC
0
SECTION
2
ENTITIES
0
CIRCLE
5
100
100
AcDbEntity
8
0
100
AcDbCircle
10
-674.96064480352641
20
-835.13225814601856
30
0
40
3.2500000000000284
210
-2.4074124304840448e-35
220
1.3363823550460978e-51
230
1
0
CIRCLE
5
101
100
AcDbEntity
8
0
100
AcDbCircle
10
-642.76287457793103
20
-406.33813407844258
30
0
40
1.4999999999999858
210
-1.8055224417383952e-32
220
1.1540396727978654e-34
230
1
0
CIRCLE
5
102
100
AcDbEntity
8
0
100
AcDbCircle
10
-734.2205754806464
20
-406.23807301723531
30
0
40
1.4999999999999858
210
-1.8055224417383952e-32
220
1.1540396727978654e-34
230
1
0
LWPOLYLINE
5
103
100
AcDbEntity
8
0
100
AcDbPolyline
90
16
70
1
43
0.0
10
-612.20780625572627
20
-404.63018852346408
42
0.41576603600173972
10
-618.70056203787442
20
-398.08864707213434
10
-734.21152117886459
20
-397.96227007994412
10
-736.25442099611962
20
-397.94921243312587
42
0.41421356237309825
10
-742.79583356588375
20
-404.40753431981813
10
-743.12797491478614
20
-456.3718361898413
10
-742.40253248510487
20
-462.61574785639908
42
0.024994107053334155
10
-742.00714454718855
20
-464.98086238848686
10
-742.11715742490935
20
-465.07198227941444
10
-694.40084784702492
20
-875.768144880921
42
-0.2178054631906774
10
-699.52699235363013
20
-891.59391311549018
42
0.37466254867174498
10
-699.79200229356411
20
-902.10398509772574
10
-676.66128578278619
20
-930.03067224799497
42
0.41421356237310236
10
-665.39716203771945
20
-931.08874420009761
10
-628.23595846049204
20
-900.30939466540462
42
0.22169466264293994
10
-615.20031034601186
20
-872.81455162297323
0
CIRCLE
5
104
100
AcDbEntity
8
0
100
AcDbCircle
10
-693.46380446837043
20
-897.20270603288213
30
0
40
1.4999999999999993
210
-2.0029262287017929e-32
220
1.2802146770237654e-34
230
1
0
CIRCLE
5
105
100
AcDbEntity
8
0
100
AcDbCircle
10
-673.84298258047363
20
-919.90554913536994
30
0
40
1.4999999999999993
210
-2.0029262287017929e-32
220
1.2802146770237654e-34
230
1
0
CIRCLE
5
106
100
AcDbEntity
8
0
100
AcDbCircle
10
-638.95498856387189
20
-834.36237584864432
30
0
40
1.5000000000000038
210
2.0415671383573104e-32
220
6.2105641447750147e-35
230
1
0
CIRCLE
5
107
100
AcDbEntity
8
0
100
AcDbCircle
10
-631.31425643925706
20
-881.99583607052216
30
0
40
0.99999999999999645
210
-9.0986021307105289e-33
220
2.5075265996110797e-34
230
1
0
LINE
5
108
100
AcDbEntity
8
1
100
AcDbLine
10
-619.34514312582837
20
-582.55006462790902
30
0
11
-618.25819775862351
21
-412.49488371078775
31
0
0
LINE
5
109
100
AcDbEntity
8
1
100
AcDbLine
10
-618.25819775862351
20
-412.49488371078775
30
0
11
-646.96415633341758
21
-412.31140321630494
31
0
0
LINE
5
110
100
AcDbEntity
8
1
100
AcDbLine
10
-646.96415633341758
20
-412.31140321630494
30
0
11
-648.05110170062244
21
-582.36658413342616
31
0
0
LINE
5
111
100
AcDbEntity
8
1
100
AcDbLine
10
-648.05110170062244
20
-582.36658413342616
30
0
11
-619.34514312582837
21
-582.55006462790902
31
0
0
LINE
5
112
100
AcDbEntity
8
0
100
AcDbLine
10
-619.30327112120744
20
-575.99904180259864
30
0
11
-624.56816344256072
21
-575.96539007680792
31
0
0
LINE
5
113
100
AcDbEntity
8
0
100
AcDbLine
10
-624.56816344256072
20
-575.96539007680792
30
0
11
-624.55881574010562
21
-574.50291985509102
31
0
0
LINE
5
114
100
AcDbEntity
8
0
100
AcDbLine
10
-623.08699781974326
20
-573.04979793186362
30
0
11
-620.74704594182367
21
-573.06475425274414
31
0
0
LINE
5
115
100
AcDbEntity
8
0
100
AcDbLine
10
-619.29392341875234
20
-574.53657158088185
30
0
11
-619.30327112120744
21
-575.99904180259864
31
0
0
ARC
5
116
100
AcDbEntity
8
0
100
AcDbCircle
10
-623.27078882018668
20
-574.33557932468727
30
0
40
1.2988513708114624
210
0
220
-0
230
1
100
AcDbArc
50
81.865166494222933
51
187.40240500283912
0
ARC
5
117
100
AcDbEntity
8
0
100
AcDbCircle
10
-620.5797059998348
20
-574.35277997678486
30
0
40
1.2988513708114624
210
0
220
-0
230
1
100
AcDbArc
50
-8.1348428404447954
51
97.402402498363614
0
LINE
5
118
100
AcDbEntity
8
0
100
AcDbLine
10
-623.36921081729668
20
-571.43921042309967
30
0
11
-624.52983786173274
21
-569.96926204856197
31
0
0
LINE
5
119
100
AcDbEntity
8
0
100
AcDbLine
10
-624.52983786173274
20
-569.96926204856197
30
0
11
-619.26494554037947
21
-570.00291377435269
31
0
0
LINE
5
120
100
AcDbEntity
8
0
100
AcDbLine
10
-619.27429324283457
20
-571.46538399606959
30
0
11
-619.25559783792426
21
-568.54044355263591
31
0
0
LINE
5
121
100
AcDbEntity
8
0
100
AcDbLine
10
-619.24438059345425
20
-566.78547904816196
30
0
11
-619.24625013546904
21
-567.07797333091901
31
0
0
LINE
5
122
100
AcDbEntity
8
0
100
AcDbLine
10
-619.24625013546915
20
-567.07797333091901
30
0
11
-619.53874322615764
21
-567.07610379652351
31
0
0
LINE
5
123
100
AcDbEntity
8
0
100
AcDbLine
10
-619.53874322615764
20
-567.07610379652351
30
0
11
-619.53687368414285
21
-566.78360951376646
31
0
0
LINE
5
124
100
AcDbEntity
8
0
100
AcDbLine
10
-619.53687368414285
20
-566.78360951376635
30
0
11
-619.24438059345425
21
-566.78547904816196
31
0
0
LINE
5
125
100
AcDbEntity
8
0
100
AcDbLine
10
-619.24438059345425
20
-566.78547904816196
30
0
11
-618.07720777163854
21
-567.23169804432291
31
0
0
LINE
5
126
100
AcDbEntity
8
0
100
AcDbLine
10
-621.25257902884971
20
-560.63001709205241
30
0
11
-621.26099197172653
21
-561.94624196049358
31
0
0
LINE
5
127
100
AcDbEntity
8
0
100
AcDbLine
10
-619.21353318449542
20
-561.9593287469786
30
0
11
-619.20512024161872
21
-560.64310387853743
31
0
0
LINE
5
128
100
AcDbEntity
8
0
100
AcDbLine
10
-619.20512024161872
20
-560.64310387853743
30
0
11
-621.83756759436392
21
-560.62627800802272
31
0
0
LINE
5
129
100
AcDbEntity
8
0
100
AcDbLine
10
-622.72065788423072
20
-561.49815342993713
30
0
11
-622.72813603705163
21
-562.6681281768283
31
0
0
ARC
5
130
100
AcDbEntity
8
0
100
AcDbCircle
10
-620.23726257811097
20
-561.95278535373609
30
0
40
1.0237500816583633
210
0
220
-0
230
1
100
AcDbArc
50
179.63378882200655
51
359.63378700077169
0
ARC
5
131
100
AcDbEntity
8
0
100
AcDbCircle
10
-621.9478412485945
20
-561.39774804188085
30
0
40
0.77931083738803864
210
0
220
-0
230
1
100
AcDbArc
50
81.865166494226173
51
187.40240500284122
0
LINE
5
132
100
AcDbEntity
8
0
100
AcDbLine
10
-619.19390300476812
20
-558.88814056613205
30
0
11
-622.7038320137159
21
-558.86570607719193
31
0
0
LINE
5
133
100
AcDbEntity
8
0
100
AcDbLine
10
-624.16723699501119
20
-559.00260372801245
30
0
11
-624.45973008569968
21
-559.00073419361695
31
0
0
LINE
5
134
100
AcDbEntity
8
0
100
AcDbLine
10
-624.45973008569968
20
-559.00073419361695
30
0
11
-624.45786055130418
21
-558.70824110292847
31
0
0
LINE
5
135
100
AcDbEntity
8
0
100
AcDbLine
10
-624.45786055130418
20
-558.70824110292847
30
0
11
-624.1653674606157
21
-558.71011063732396
31
0
0
LINE
5
136
100
AcDbEntity
8
0
100
AcDbLine
10
-624.1653674606157
20
-558.71011063732396
30
0
11
-624.16723699501119
21
-559.00260372801245
31
0
0
LINE
5
137
100
AcDbEntity
8
0
100
AcDbLine
10
-619.18268575267859
20
-557.13317486958954
30
0
11
-622.69261476162649
21
-557.11074038064942
31
0
0
LINE
5
138
100
AcDbEntity
8
0
100
AcDbLine
10
-622.69261476162649
20
-557.11074038064942
30
0
11
-622.68139750953708
21
-555.3557746841069
31
0
0
LINE
5
139
100
AcDbEntity
8
0
100
AcDbLine
10
-622.68139750953708
20
-555.3557746841069
30
0
11
-622.09640894402287
21
-555.35951376813671
31
0
0
LINE
5
140
100
AcDbEntity
8
0
100
AcDbLine
10
-624.41299158866275
20
-551.6883854691697
30
0
11
-619.14809926730948
21
-551.72203719496054
31
0
0
LINE
5
141
100
AcDbEntity
8
0
100
AcDbLine
10
-619.14809926730936
20
-551.72203719496054
30
0
11
-619.13875156485426
21
-550.25956697324364
31
0
0
LINE
5
142
100
AcDbEntity
8
0
100
AcDbLine
10
-620.01062460263165
20
-549.37647669861565
30
0
11
-621.76559029917416
21
-549.36525944652624
31
0
0
LINE
5
143
100
AcDbEntity
8
0
100
AcDbLine
10
-622.64868057380215
20
-550.23713248430363
30
0
11
-622.65802827625726
21
-551.69960270602041
31
0
0
ARC
5
144
100
AcDbEntity
8
0
100
AcDbCircle
10
-619.91022158347369
20
-550.14929093487603
30
0
40
0.77931083738803864
210
0
220
-0
230
1
100
AcDbArc
50
-8.1348428404425572
51
97.402402498358683
0
ARC
5
145
100
AcDbEntity
8
0
100
AcDbCircle
10
-621.87586393816593
20
-550.13672709624734
30
0
40
0.77931083738803864
210
0
220
-0
230
1
100
AcDbArc
50
81.865166494226173
51
187.40240500284122
0
LINE
5
146
100
AcDbEntity
8
0
100
AcDbLine
10
-619.12286046915665
20
-547.7733673579113
30
0
11
-622.63278947810454
21
-547.75093286897118
31
0
0
LINE
5
147
100
AcDbEntity
8
0
100
AcDbLine
10
-622.63278947810454
20
-547.75093286897129
30
0
11
-622.62157222601513
21
-545.99596717242878
31
0
0
LINE
5
148
100
AcDbEntity
8
0
100
AcDbLine
10
-622.62157222601513
20
-545.99596717242878
30
0
11
-622.03658366050092
21
-545.99970625645847
31
0
0
LINE
5
149
100
AcDbEntity
8
0
100
AcDbLine
10
-619.08920872812712
20
-542.50847265242101
30
0
11
-619.09855643058222
21
-543.9709428741379
31
0
0
LINE
5
150
100
AcDbEntity
8
0
100
AcDbLine
10
-619.98164672044902
20
-544.84281829605231
30
0
11
-621.44411694216592
21
-544.83347059359721
31
0
0
LINE
5
151
100
AcDbEntity
8
0
100
AcDbLine
10
-621.42916060604659
20
-542.49351633154049
30
0
11
-620.8441720405325
21
-542.49725541557029
31
0
0
LINE
5
152
100
AcDbEntity
8
0
100
AcDbLine
10
-620.8441720405325
20
-542.49725541557029
30
0
11
-620.85912837665171
21
-544.8372096776269
31
0
0
ARC
5
153
100
AcDbEntity
8
0
100
AcDbCircle
10
-619.87137306621844
20
-544.07134826219408
30
0
40
0.77931083738803864
210
0
220
-0
230
1
100
AcDbArc
50
-98.134824854359167
51
7.402389521233192
0
ARC
5
154
100
AcDbEntity
8
0
100
AcDbCircle
10
-621.4366387741062
20
-543.66349346256879
30
0
40
1.1700000613927841
210
0
220
-0
230
1
100
AcDbArc
50
89.633786317530834
51
269.63379132648168
0
LINE
5
155
100
AcDbEntity
8
0
100
AcDbLine
10
-621.1123634920225
20
-538.69296376629961
30
0
11
-621.1207764348992
21
-540.00918863474078
31
0
0
LINE
5
156
100
AcDbEntity
8
0
100
AcDbLine
10
-619.0733176476682
20
-540.02227542122569
30
0
11
-619.0649047047915
21
-538.70605055278452
31
0
0
LINE
5
157
100
AcDbEntity
8
0
100
AcDbLine
10
-619.06490470479139
20
-538.70605055278452
30
0
11
-621.69735205753659
21
-538.68922468226981
31
0
0
LINE
5
158
100
AcDbEntity
8
0
100
AcDbLine
10
-622.58044233216469
20
-539.5610977200472
30
0
11
-622.5879205002243
21
-540.7310748510755
31
0
0
ARC
5
159
100
AcDbEntity
8
0
100
AcDbCircle
10
-620.09704704128376
20
-540.01573202798318
30
0
40
1.0237500816583633
210
0
220
-0
230
1
100
AcDbArc
50
179.63378882200655
51
359.63378700077169
0
ARC
5
160
100
AcDbEntity
8
0
100
AcDbCircle
10
-621.80762572700598
20
-539.46069710026507
30
0
40
0.77931083738803864
210
0
220
-0
230
1
100
AcDbArc
50
81.865166494226173
51
187.40240500284122
0
LINE
5
161
100
AcDbEntity
8
0
100
AcDbLine
10
-619.05368746794079
20
-536.95108724037914
30
0
11
-624.31857978929406
21
-536.91743551458831
31
0
0
LINE
5
162
100
AcDbEntity
8
0
100
AcDbLine
10
-622.54866014076936
20
-534.58869848938241
30
0
11
-620.80865078034617
21
-536.93987000352854
31
0
0
LINE
5
163
100
AcDbEntity
8
0
100
AcDbLine
10
-619.03873113182146
20
-534.61113297832253
30
0
11
-621.53334369003062
21
-535.91146675106597
31
0
0
LINE
5
164
100
AcDbEntity
8
0
100
AcDbLine
10
-621.04786433441484
20
-528.60191756755728
30
0
11
-621.05627727729154
21
-529.91814243599845
31
0
0
LINE
5
165
100
AcDbEntity
8
0
100
AcDbLine
10
-619.00881849006055
20
-529.93122922248335
30
0
11
-619.00040554718385
21
-528.61500435404218
31
0
0
LINE
5
166
100
AcDbEntity
8
0
100
AcDbLine
10
-619.00040554718385
20
-528.61500435404218
30
0
11
-621.63285289992905
21
-528.59817848352748
31
0
0
LINE
5
167
100
AcDbEntity
8
0
100
AcDbLine
10
-622.51594317455692
20
-529.47005152130487
30
0
11
-622.52342134261664
21
-530.64002865233317
31
0
0
ARC
5
168
100
AcDbEntity
8
0
100
AcDbCircle
10
-620.0325478836761
20
-529.92468582924084
30
0
40
1.0237500816583633
210
0
220
-0
230
1
100
AcDbArc
50
179.63378882200655
51
359.6337870007668
0
ARC
5
169
100
AcDbEntity
8
0
100
AcDbCircle
10
-621.74312653892082
20
-529.36964613324858
30
0
40
0.77931083738803864
210
0
220
-0
230
1
100
AcDbArc
50
81.865166494224979
51
187.40240500284946
0
LINE
5
170
100
AcDbEntity
8
0
100
AcDbLine
10
-620.44044129519921
20
-525.09573002677632
30
0
11
-621.03477754792982
21
-526.55445878032629
31
0
0
ARC
5
171
100
AcDbEntity
8
0
100
AcDbCircle
10
-621.7460583348734
20
-526.31150809621647
30
0
40
0.75162976980209351
210
0
220
-0
230
1
100
AcDbArc
50
175.50637380846811
51
341.14132303053037
0
ARC
5
172
100
AcDbEntity
8
0
100
AcDbCircle
10
-619.77815100417718
20
-526.18307801559138
30
0
40
2.7181166410446167
210
0
220
-0
230
1
100
AcDbArc
50
152.74390779555497
51
181.46604853856067
0
ARC
5
173
100
AcDbEntity
8
0
100
AcDbCircle
10
-619.73052597660705
20
-525.3452858496745
30
0
40
0.75250290334224701
210
0
220
-0
230
1
100
AcDbArc
50
-3.9840822403107174
51
160.6317927396737
0
ARC
5
174
100
AcDbEntity
8
0
100
AcDbCircle
10
-622.0784800814389
20
-525.64564584556717
30
0
40
3.1085547804832458
210
0
220
-0
230
1
100
AcDbArc
50
-25.919453325865092
51
4.5773139974863737
0
LINE
5
175
100
AcDbEntity
8
0
100
AcDbLine
10
-620.4161372718637
20
-521.29330792713995
30
0
11
-621.0104735245942
21
-522.75203668068991
31
0
0
ARC
5
176
100
AcDbEntity
8
0
100
AcDbCircle
10
-621.72175431153778
20
-522.5090859965801
30
0
40
0.75162976980209351
210
0
220
-0
230
1
100
AcDbArc
50
175.50637380845885
51
341.1413230305331
0
ARC
5
177
100
AcDbEntity
8
0
100
AcDbCircle
10
-619.75384698084167
20
-522.38065591595489
30
0
40
2.7181166410446167
210
0
220
-0
230
1
100
AcDbArc
50
152.74390779555392
51
181.46604853856067
0
ARC
5
178
100
AcDbEntity
8
0
100
AcDbCircle
10
-619.70622195327132
20
-521.54286375003812
30
0
40
0.75250290334224701
210
0
220
-0
230
1
100
AcDbArc
50
-3.9840822403107174
51
160.63179273967657
0
ARC
5
179
100
AcDbEntity
8
0
100
AcDbCircle
10
-622.05417605810328
20
-521.8432237459308
30
0
40
3.1085547804832458
210
0
220
-0
230
1
100
AcDbArc
50
-25.919453325862349
51
4.5773139974863737
0
LINE
5
180
100
AcDbEntity
8
0
100
AcDbLine
10
-618.92655870235967
20
-517.0614903177202
30
0
11
-618.93590642005358
21
-518.52396292357423
31
0
0
LINE
5
181
100
AcDbEntity
8
0
100
AcDbLine
10
-619.81899669468157
20
-519.39583596135151
30
0
11
-621.28146691639847
21
-519.38648825889641
31
0
0
LINE
5
182
100
AcDbEntity
8
0
100
AcDbLine
10
-621.26651058027926
20
-517.04653399683968
30
0
11
-620.68152201476505
21
-517.05027308086949
31
0
0
LINE
5
183
100
AcDbEntity
8
0
100
AcDbLine
10
-620.68152201476505
20
-517.0502730808696
30
0
11
-620.69647835088426
21
-519.39022734292621
31
0
0
ARC
5
184
100
AcDbEntity
8
0
100
AcDbCircle
10
-619.70872302521229
20
-518.62436354335625
30
0
40
0.77931083738803864
210
0
220
-0
230
1
100
AcDbArc
50
-98.134824854359167
51
7.402389521233192
0
ARC
5
185
100
AcDbEntity
8
0
100
AcDbCircle
10
-621.27398874833887
20
-518.21651112786799
30
0
40
1.1700000613927841
210
0
220
-0
230
1
100
AcDbArc
50
89.633786317525264
51
269.63379132648168
0
LINE
5
186
100
AcDbEntity
8
0
100
AcDbLine
10
-618.91627624032617
20
-515.45277474272768
30
0
11
-622.42620524927406
21
-515.43034025378756
31
0
0
LINE
5
187
100
AcDbEntity
8
0
100
AcDbLine
10
-622.42620524927406
20
-515.43034025378756
30
0
11
-622.40937939399805
21
-512.79789528517949
31
0
0
LINE
5
188
100
AcDbEntity
8
0
100
AcDbLine
10
-621.52628908889244
20
-511.92601747912789
30
0
11
-618.89384173614735
21
-511.94284334964266
31
0
0
LINE
5
189
100
AcDbEntity
8
0
100
AcDbLine
10
-618.90505900347546
20
-513.6978114303223
30
0
11
-622.41498801242335
21
-513.67537694138218
31
0
0
ARC
5
190
100
AcDbEntity
8
0
100
AcDbCircle
10
-621.63656275836183
20
-512.69748989712321
30
0
40
0.77931083738803864
210
0
220
-0
230
1
100
AcDbArc
50
81.865166494226173
51
187.40240500284122
0
LINE
5
191
100
AcDbEntity
8
0
100
AcDbLine
10
-624.14751682064991
20
-510.15422831144645
30
0
11
-618.88262449929664
21
-510.18788003723728
31
0
0
LINE
5
192
100
AcDbEntity
8
0
100
AcDbLine
10
-618.88262449929664
20
-510.18788003723728
30
0
11
-618.87327678160273
21
-508.7254074313833
31
0
0
LINE
5
193
100
AcDbEntity
8
0
100
AcDbLine
10
-619.74514981938012
20
-507.84231715675531
30
0
11
-621.50011551592252
21
-507.8310999046659
31
0
0
LINE
5
194
100
AcDbEntity
8
0
100
AcDbLine
10
-622.38320579055062
20
-508.70297294244324
30
0
11
-622.39255350824453
21
-510.16544554829721
31
0
0
ARC
5
195
100
AcDbEntity
8
0
100
AcDbCircle
10
-619.64474683069966
20
-508.6151361612898
30
0
40
0.77931083738803864
210
0
220
-0
230
1
100
AcDbArc
50
-8.1348428404425572
51
97.402402498359208
0
ARC
5
196
100
AcDbEntity
8
0
100
AcDbCircle
10
-621.61038918539191
20
-508.60257232266116
30
0
40
0.77931083738803864
210
0
220
-0
230
1
100
AcDbArc
50
81.865166494226173
51
187.40240500284122
0
LINE
5
197
100
AcDbEntity
8
0
100
AcDbLine
10
-624.12227802249708
20
-506.20555847439726
30
0
11
-619.7348673573465
21
-506.23360158176268
31
0
0
ARC
5
198
100
AcDbEntity
8
0
100
AcDbCircle
10
-619.62459371835473
20
-505.46213393204152
30
0
40
0.77931083738803864
210
0
220
-0
230
1
100
AcDbArc
50
-98.134824854349702
51
7.4023895212290443
0
LINE
5
199
100
AcDbEntity
8
0
100
AcDbLine
10
-617.08933560225341
20
-504.2029686498077
30
0
11
-617.08559650298491
21
-503.61797770015642
31
0
0
LINE
5
200
100
AcDbEntity
8
0
100
AcDbLine
10
-617.08559650298503
20
-503.61797770015647
30
0
11
-622.33927155701008
21
-501.82935789368616
31
0
0
LINE
5
201
100
AcDbEntity
8
0
100
AcDbLine
10
-622.35422792360669
20
-504.16931692401693
30
0
11
-618.83682074659919
21
-503.02177428192869
31
0
0
LINE
5
202
100
AcDbEntity
8
0
100
AcDbLine
10
-620.25629150959264
20
-496.2850592681292
30
0
11
-620.85062782327827
21
-497.74379755822747
31
0
0
ARC
5
203
100
AcDbEntity
8
0
100
AcDbCircle
10
-621.56190854926683
20
-497.50083733756946
30
0
40
0.75162976980209351
210
0
220
-0
230
1
100
AcDbArc
50
175.5063738084595
51
341.14132303053037
0
ARC
5
204
100
AcDbEntity
8
0
100
AcDbCircle
10
-619.59400124904823
20
-497.37241202521841
30
0
40
2.7181166410446167
210
0
220
-0
230
1
100
AcDbArc
50
152.74390779555497
51
181.46604853856317
0
ARC
5
205
100
AcDbEntity
8
0
100
AcDbCircle
10
-619.54637622147789
20
-496.53461985930159
30
0
40
0.75250290334224701
210
0
220
-0
230
1
100
AcDbArc
50
-3.9840822403150429
51
160.63179273967779
0
ARC
5
206
100
AcDbEntity
8
0
100
AcDbCircle
10
-621.89433032630984
20
-496.83497985519432
30
0
40
3.1085547804832458
210
0
220
-0
230
1
100
AcDbArc
50
-25.919453325862349
51
4.5773139974863737
0
LINE
5
207
100
AcDbEntity
8
0
100
AcDbLine
10
-618.78073450139095
20
-494.24694818335342
30
0
11
-622.29066351033885
21
-494.22451369441325
31
0
0
LINE
5
208
100
AcDbEntity
8
0
100
AcDbLine
10
-623.75406853735024
20
-494.3614184976451
30
0
11
-624.04656162803872
21
-494.35954896324961
31
0
0
LINE
5
209
100
AcDbEntity
8
0
100
AcDbLine
10
-624.04656162803872
20
-494.35954896324961
30
0
11
-624.04469207840452
21
-494.06705348842394
31
0
0
LINE
5
210
100
AcDbEntity
8
0
100
AcDbLine
10
-624.04469207840452
20
-494.06705348842394
30
0
11
-623.75219898771593
21
-494.06892302281949
31
0
0
LINE
5
211
100
AcDbEntity
8
0
100
AcDbLine
10
-623.75219898771593
20
-494.06892302281949
30
0
11
-623.75406853735024
21
-494.3614184976451
31
0
0
LINE
5
212
100
AcDbEntity
8
0
100
AcDbLine
10
-624.02038805506879
20
-490.26463138878751
30
0
11
-618.75549573371563
21
-490.29828311457834
31
0
0
LINE
5
213
100
AcDbEntity
8
0
100
AcDbLine
10
-618.75549573371563
20
-490.29828311457834
30
0
11
-618.76484342093204
21
-491.76075095215811
31
0
0
LINE
5
214
100
AcDbEntity
8
0
100
AcDbLine
10
-619.64793372603754
20
-492.63262875820965
30
0
11
-621.40289942258005
21
-492.62141150612024
31
0
0
LINE
5
215
100
AcDbEntity
8
0
100
AcDbLine
10
-622.27477242987993
20
-491.73831646321798
30
0
11
-622.26542474266341
21
-490.27584862563828
31
0
0
ARC
5
216
100
AcDbEntity
8
0
100
AcDbCircle
10
-619.53766005656814
20
-491.86115634021434
30
0
40
0.77931083738803864
210
0
220
-0
230
1
100
AcDbArc
50
-98.134824854358556
51
7.402389521233192
0
ARC
5
217
100
AcDbEntity
8
0
100
AcDbCircle
10
-621.50330241126039
20
-491.8485925015857
30
0
40
0.77931083738803864
210
0
220
-0
230
1
100
AcDbArc
50
171.86517264116574
51
277.40240750731499
0
LINE
5
218
100
AcDbEntity
8
0
100
AcDbLine
10
-618.7302569660402
20
-486.34961804580325
30
0
11
-618.73960465325672
21
-487.81208588338302
31
0
0
LINE
5
219
100
AcDbEntity
8
0
100
AcDbLine
10
-619.62269495836222
20
-488.68396368943456
30
0
11
-621.085165180079
21
-488.67461598697946
31
0
0
LINE
5
220
100
AcDbEntity
8
0
100
AcDbLine
10
-621.0702088439599
20
-486.33466172492274
30
0
11
-620.48522027844569
21
-486.33840080895254
31
0
0
LINE
5
221
100
AcDbEntity
8
0
100
AcDbLine
10
-620.48522027844569
20
-486.3384008089526
30
0
11
-620.50017661456491
21
-488.67835507100926
31
0
0
ARC
5
222
100
AcDbEntity
8
0
100
AcDbCircle
10
-619.51242128889294
20
-487.91249127143931
30
0
40
0.77931083738803864
210
0
220
-0
230
1
100
AcDbArc
50
-98.13482485435091
51
7.402389521233192
0
ARC
5
223
100
AcDbEntity
8
0
100
AcDbCircle
10
-621.077686981542
20
-487.50463408767695
30
0
40
1.1700000613927841
210
0
220
-0
230
1
100
AcDbArc
50
89.633786317525264
51
269.63379132648726
0
LINE
5
224
100
AcDbEntity
8
0
100
AcDbLine
10
-623.96991045876325
20
-482.36729171468909
30
0
11
-618.70501813740998
21
-482.40094344047986
31
0
0
LINE
5
225
100
AcDbEntity
8
0
100
AcDbLine
10
-618.70501813740998
20
-482.40094344047986
30
0
11
-618.69567045019357
21
-480.93847560290016
31
0
0
LINE
5
226
100
AcDbEntity
8
0
100
AcDbLine
10
-619.56754351844847
20
-480.05539009654626
30
0
11
-621.32250921499099
21
-480.04417284445685
31
0
0
LINE
5
227
100
AcDbEntity
8
0
100
AcDbLine
10
-622.20559945914147
20
-480.91604111395998
30
0
11
-622.21494714635787
21
-482.37850895153969
31
0
0
ARC
5
228
100
AcDbEntity
8
0
100
AcDbCircle
10
-619.467140468813
20
-480.82819956453244
30
0
40
0.77931083738803864
210
0
220
-0
230
1
100
AcDbArc
50
-8.1348428404425572
51
97.402402498367508
0
ARC
5
229
100
AcDbEntity
8
0
100
AcDbCircle
10
-621.43278282350525
20
-480.81563572590375
30
0
40
0.77931083738803864
210
0
220
-0
230
1
100
AcDbArc
50
81.865166494225576
51
187.40240500284426
0
LINE
5
230
100
AcDbEntity
8
0
100
AcDbLine
10
-618.67977936973466
20
-478.45227837170484
30
0
11
-622.18970837868255
21
-478.42984388276471
31
0
0
LINE
5
231
100
AcDbEntity
8
0
100
AcDbLine
10
-622.18970837868255
20
-478.42984388276471
30
0
11
-622.17849114183184
21
-476.67488057035933
31
0
0
LINE
5
232
100
AcDbEntity
8
0
100
AcDbLine
10
-622.17849114183184
20
-476.67488057035933
30
0
11
-621.59350257631775
21
-476.67861965438908
31
0
0
LINE
5
233
100
AcDbEntity
8
0
100
AcDbLine
10
-620.69358644641375
20
-473.17430164800373
30
0
11
-620.70199938929045
21
-474.49052651644485
31
0
0
LINE
5
234
100
AcDbEntity
8
0
100
AcDbLine
10
-618.65454060205946
20
-474.50361330292981
30
0
11
-618.64612765918264
21
-473.18738843448864
31
0
0
LINE
5
235
100
AcDbEntity
8
0
100
AcDbLine
10
-618.64612765918264
20
-473.18738843448864
30
0
11
-621.27857501192784
21
-473.17056256397387
31
0
0
LINE
5
236
100
AcDbEntity
8
0
100
AcDbLine
10
-622.16166531703334
20
-474.04244037002542
30
0
11
-622.16914345461555
21
-475.21241273277957
31
0
0
ARC
5
237
100
AcDbEntity
8
0
100
AcDbCircle
10
-619.6782699956749
20
-474.4970699096873
30
0
40
1.0237500816583633
210
0
220
-0
230
1
100
AcDbArc
50
179.63378882200357
51
359.63378700077169
0
ARC
5
238
100
AcDbEntity
8
0
100
AcDbCircle
10
-621.38884868139712
20
-473.94203498196919
30
0
40
0.77931083738803864
210
0
220
-0
230
1
100
AcDbArc
50
81.865166494226173
51
187.40240500284122
0
LINE
5
239
100
AcDbEntity
8
0
100
AcDbLine
10
-618.62275844114163
20
-469.53121884053922
30
0
11
-618.63023657872384
21
-470.70119120329338
31
0
0
LINE
5
240
100
AcDbEntity
8
0
100
AcDbLine
10
-619.51332688382922
20
-471.57306900934486
30
0
11
-621.26829258037174
21
-471.56185175725545
31
0
0
LINE
5
241
100
AcDbEntity
8
0
100
AcDbLine
10
-622.14016558767162
20
-470.67875671435326
30
0
11
-622.13268745008941
21
-469.50878435159905
31
0
0
ARC
5
242
100
AcDbEntity
8
0
100
AcDbCircle
10
-619.40305321435994
20
-470.80159659134961
30
0
40
0.77931083738803864
210
0
220
-0
230
1
100
AcDbArc
50
-98.134824854349702
51
7.4023895212290443
0
ARC
5
243
100
AcDbEntity
8
0
100
AcDbCircle
10
-621.36869556905219
20
-470.78903275272097
30
0
40
0.77931083738803864
210
0
220
-0
230
1
100
AcDbArc
50
171.86517264116455
51
277.40240750732272
0
LINE
5
244
100
AcDbEntity
8
0
100
AcDbLine
10
-618.61341069297032
20
-468.0687414664111
30
0
11
-623.87830301432348
21
-468.03508974062026
31
0
0
LINE
5
245
100
AcDbEntity
8
0
100
AcDbLine
10
-622.1083834267539
20
-465.70636225196267
30
0
11
-620.3683740053757
21
-468.05752422956039
31
0
0
LINE
5
246
100
AcDbEntity
8
0
100
AcDbLine
10
-618.59845441780601
20
-465.72879674090279
30
0
11
-621.09306691506015
21
-467.02912097709793
31
0
0
LINE
5
247
100
AcDbEntity
8
0
100
AcDbLine
10
-618.57508513880998
20
-462.07261761040502
30
0
11
-618.58443282602639
21
-463.53508544798473
31
0
0
LINE
5
248
100
AcDbEntity
8
0
100
AcDbLine
10
-619.46752313113188
20
-464.40696325403633
30
0
11
-620.92999335284878
21
-464.39761555158123
31
0
0
LINE
5
249
100
AcDbEntity
8
0
100
AcDbLine
10
-620.91503701672957
20
-462.05766128952456
30
0
11
-620.33004845121536
21
-462.06140037355431
31
0
0
LINE
5
250
100
AcDbEntity
8
0
100
AcDbLine
10
-620.33004845121536
20
-462.06140037355442
30
0
11
-620.34500478733457
21
-464.40135463561103
31
0
0
ARC
5
251
100
AcDbEntity
8
0
100
AcDbCircle
10
-619.3572494616626
20
-463.63549083604107
30
0
40
0.77931083738803864
210
0
220
-0
230
1
100
AcDbArc
50
-98.134824854358556
51
7.402389521233192
0
ARC
5
252
100
AcDbEntity
8
0
100
AcDbCircle
10
-620.92251515431167
20
-463.22763365227871
30
0
40
1.1700000613927841
210
0
220
-0
230
1
100
AcDbArc
50
89.633786317525264
51
269.63379132648168
0
LINE
5
253
100
AcDbEntity
8
0
100
AcDbLine
10
-622.07753601017566
20
-460.88021075871075
30
0
11
-622.06631877332507
21
-459.12524744630537
31
0
0
LINE
5
254
100
AcDbEntity
8
0
100
AcDbLine
10
-623.82876022331266
20
-460.28400257220881
30
0
11
-619.44134955816207
21
-460.31204567957423
31
0
0
LINE
5
255
100
AcDbEntity
8
0
100
AcDbLine
10
-618.55825925305646
20
-459.44016787352274
30
0
11
-618.55638976437706
21
-459.14768193524549
31
0
0
ARC
5
256
100
AcDbEntity
8
0
100
AcDbCircle
10
-619.33107588869268
20
-459.54057326157903
30
0
40
0.77931083738803864
210
0
220
-0
230
1
100
AcDbArc
50
-98.134824854358556
51
7.402389521233192
0
LINE
5
257
100
AcDbEntity
8
0
100
AcDbLine
10
-618.54610727186605
20
-457.5389615919787
30
0
11
-618.54797682150036
21
-457.83145706680438
31
0
0
LINE
5
258
100
AcDbEntity
8
0
100
AcDbLine
10
-618.54797682150047
20
-457.83145706680438
30
0
11
-618.84046991218895
21
-457.82958753240882
31
0
0
LINE
5
259
100
AcDbEntity
8
0
100
AcDbLine
10
-618.84046991218895
20
-457.82958753240882
30
0
11
-618.83860036255464
21
-457.53709205758321
31
0
0
LINE
5
260
100
AcDbEntity
8
0
100
AcDbLine
10
-618.83860036255464
20
-457.53709205758321
30
0
11
-618.54610727186616
21
-457.5389615919787
31
0
0
LINE
5
261
100
AcDbEntity
8
0
100
AcDbLine
10
-618.54610727186605
20
-457.5389615919787
30
0
11
-617.37893443481175
21
-457.98517820400258
31
0
0
LINE
5
262
100
AcDbEntity
8
0
100
AcDbLine
10
-622.61672082299253
20
-453.71036591937241
30
0
11
-623.7773478826673
21
-452.24041992897179
31
0
0
LINE
5
263
100
AcDbEntity
8
0
100
AcDbLine
10
-623.7773478826673
20
-452.24041992897179
30
0
11
-618.51245556131414
21
-452.27407165476257
31
0
0
LINE
5
264
100
AcDbEntity
8
0
100
AcDbLine
10
-618.52180324853055
20
-453.73653949234233
30
0
11
-618.50310781314272
21
-450.81159428063444
31
0
0
LINE
5
265
100
AcDbEntity
8
0
100
AcDbLine
10
-618.47973853414669
20
-447.15541515013661
30
0
11
-621.97471126793039
21
-444.79303593568824
31
0
0
LINE
5
266
100
AcDbEntity
8
0
100
AcDbLine
10
-621.98966754309458
20
-447.13298066119648
30
0
11
-618.4647822589825
21
-444.8154704246283
31
0
0
LINE
5
267
100
AcDbEntity
8
0
100
AcDbLine
10
-621.36635342342015
20
-441.14059588922026
30
0
11
-621.35513618656955
21
-439.38563257681488
31
0
0
LINE
5
268
100
AcDbEntity
8
0
100
AcDbLine
10
-620.17768085700402
20
-438.22312884557198
30
0
11
-619.88518776631554
21
-438.22499837996753
31
0
0
LINE
5
269
100
AcDbEntity
8
0
100
AcDbLine
10
-619.90388320170337
20
-441.14994359167542
30
0
11
-621.36635342342015
21
-441.14059588922026
31
0
0
ARC
5
270
100
AcDbEntity
8
0
100
AcDbCircle
10
-620.32471559514602
20
-439.25175871591409
30
0
40
1.0390811413526533
210
0
220
-0
230
1
100
AcDbArc
50
81.865166494222663
51
187.4024050028446
0
ARC
5
271
100
AcDbEntity
8
0
100
AcDbCircle
10
-619.89453551448696
20
-439.68747575409566
30
0
40
1.4625000953674316
210
0
220
-0
230
1
100
AcDbArc
50
-90.366208673514151
51
89.633786317523942
0
ARC
5
272
100
AcDbEntity
8
0
100
AcDbCircle
10
-621.63409876108472
20
-439.07975472161189
30
0
40
2.078162282705307
210
0
220
-0
230
1
100
AcDbArc
50
171.86517264116773
51
277.4024075073213
0
LINE
5
273
100
AcDbEntity
8
0
100
AcDbLine
10
-618.39747871596842
20
-434.2856714770993
30
0
11
-621.90740772491631
21
-434.26323698815912
31
0
0
LINE
5
274
100
AcDbEntity
8
0
100
AcDbLine
10
-621.90740772491631
20
-434.26323698815912
30
0
11
-621.89058190011781
21
-431.63079678782526
31
0
0
LINE
5
275
100
AcDbEntity
8
0
100
AcDbLine
10
-621.0074915950122
20
-430.75891898177372
30
0
11
-618.37504424226699
21
-430.77574485228854
31
0
0
LINE
5
276
100
AcDbEntity
8
0
100
AcDbLine
10
-618.38626147911771
20
-432.53070816469392
30
0
11
-621.8961904880656
21
-432.50827367575374
31
0
0
ARC
5
277
100
AcDbEntity
8
0
100
AcDbCircle
10
-621.11776526448148
20
-431.53039139976897
30
0
40
0.77931083738803864
210
0
220
-0
230
1
100
AcDbArc
50
81.865166494234444
51
187.40240500284014
0
LINE
5
278
100
AcDbEntity
8
0
100
AcDbLine
10
-618.3638270054164
20
-429.02078153988305
30
0
11
-621.87375601436418
21
-428.99834705094293
31
0
0
LINE
5
279
100
AcDbEntity
8
0
100
AcDbLine
10
-621.87375601436418
20
-428.99834705094298
30
0
11
-621.85693018956567
21
-426.36590685060912
31
0
0
LINE
5
280
100
AcDbEntity
8
0
100
AcDbLine
10
-620.97383988446018
20
-425.49402904455752
30
0
11
-618.34139253171497
21
-425.51085491507229
31
0
0
LINE
5
281
100
AcDbEntity
8
0
100
AcDbLine
10
-618.35260976856569
20
-427.26581822747767
30
0
11
-621.86253877751358
21
-427.24338373853755
31
0
0
ARC
5
282
100
AcDbEntity
8
0
100
AcDbCircle
10
-621.08411355392946
20
-426.26550146255283
30
0
40
0.77931083738803864
210
0
220
-0
230
1
100
AcDbArc
50
81.865166494226173
51
187.40240500284122
0
LINE
5
283
100
AcDbEntity
8
0
100
AcDbLine
10
-616.56025570729457
20
-421.42716411400926
30
0
11
-621.82514802864785
21
-421.39351238821848
31
0
0
LINE
5
284
100
AcDbEntity
8
0
100
AcDbLine
10
-621.82514802864785
20
-421.39351238821848
30
0
11
-621.81580034143144
21
-419.93104455063872
31
0
0
LINE
5
285
100
AcDbEntity
8
0
100
AcDbLine
10
-620.93270997537104
20
-419.05915720803887
30
0
11
-619.17774427882853
21
-419.07037446012828
31
0
0
LINE
5
286
100
AcDbEntity
8
0
100
AcDbLine
10
-618.30587133248355
20
-419.95347903957884
30
0
11
-618.31521901969995
21
-421.4159468771586
31
0
0
ARC
5
287
100
AcDbEntity
8
0
100
AcDbCircle
10
-621.04298370579522
20
-419.83063916258243
30
0
40
0.77931083738803864
210
0
220
-0
230
1
100
AcDbArc
50
81.865166494233847
51
187.40240500284426
0
ARC
5
288
100
AcDbEntity
8
0
100
AcDbCircle
10
-619.07734135110309
20
-419.84320300121112
30
0
40
0.77931083738803864
210
0
220
-0
230
1
100
AcDbArc
50
-8.1348428404425572
51
97.402402498359208
0
LINE
5
289
100
AcDbEntity
8
0
100
AcDbLine
10
-623.55487257337802
20
-417.4336300825928
30
0
11
-619.16746190822744
21
-417.46167318995822
31
0
0
ARC
5
290
100
AcDbEntity
8
0
100
AcDbCircle
10
-619.05718817780314
20
-416.6901912354146
30
0
40
0.77931083738803864
210
0
220
-0
230
1
100
AcDbArc
50
-98.134824854350313
51
7.402389521233192
0
LINE
5
291
100
AcDbEntity
8
0
100
AcDbLine
10
-616.52193015313435
20
-415.43104025800318
30
0
11
-616.51819105386585
21
-414.84604930835189
31
0
0
LINE
5
292
100
AcDbEntity
8
0
100
AcDbLine
10
-616.51819105386585
20
-414.84604930835195
30
0
11
-621.77186619932331
21
-413.0574438067041
31
0
0
LINE
5
293
100
AcDbEntity
8
0
100
AcDbLine
10
-621.78682247448762
20
-415.3973885322124
30
0
11
-618.26941526700261
21
-414.24984112185001
31
0
0
ENDSEC
0
SECTION
2
OBJECTS
0
DICTIONARY
5
C
100
AcDbDictionary
3
ACAD_GROUP
350
D
3
ACAD_MLINESTYLE
350
17
0
DICTIONARY
5
D
100
AcDbDictionary
0
DICTIONARY
5
1A
330
C
100
AcDbDictionary
0
DICTIONARY
5
17
100
AcDbDictionary
0
ENDSEC
0
EOF
