0
SECTION
2
HEADER
9
$INSUNITS
70
4
9
$ACADVER
1
AC1014
9
$HANDSEED
5
FFFF
0
ENDSEC
0
SECTION
2
TABLES
0
TABLE
2
VPORT
5
8
100
AcDbSymbolTable
0
ENDTAB
0
TABLE
2
LTYPE
5
5
100
AcDbSymbolTable
0
LTYPE
5
14
100
AcDbSymbolTableRecord
100
AcDbLinetypeTableRecord
2
BYBLOCK
70
0
0
LTYPE
5
15
100
AcDbSymbolTableRecord
100
AcDbLinetypeTableRecord
2
BYLAYER
70
0
0
LTYPE
5
16
100
AcDbSymbolTableRecord
100
AcDbLinetypeTableRecord
2
DASHED
70
0
3
Dashed __ __ __ __ __ __ __ __ __ __ __ __ __ _
72
65
73
2
40
0.75
49
0.5
74
0
49
-0.25
74
0
0
ENDTAB
0
TABLE
2
LAYER
5
2
100
AcDbSymbolTable
70
3
0
LAYER
5
50
100
AcDbSymbolTableRecord
100
AcDbLayerTableRecord
2
1
70
0
62
7
6
DASHED
0
LAYER
5
51
100
AcDbSymbolTableRecord
100
AcDbLayerTableRecord
2
0
70
0
62
7
6
CONTINUOUS
0
ENDTAB
0
TABLE
2
STYLE
5
3
100
AcDbSymbolTable
70
1
0
STYLE
5
11
100
AcDbSymbolTableRecord
100
AcDbTextStyleTableRecord
2
STANDARD
70
0
0
ENDTAB
0
TABLE
2
VIEW
5
6
100
AcDbSymbolTable
70
0
0
ENDTAB
0
TABLE
2
UCS
5
7
100
AcDbSymbolTable
70
0
0
ENDTAB
0
TABLE
2
APPID
5
9
100
AcDbSymbolTable
70
2
0
APPID
5
12
100
AcDbSymbolTableRecord
100
AcDbRegAppTableRecord
2
ACAD
70
0
0
ENDTAB
0
TABLE
2
DIMSTYLE
5
A
100
AcDbSymbolTable
70
1
0
ENDTAB
0
TABLE
2
BLOCK_RECORD
5
1
100
AcDbSymbolTable
70
1
0
BLOCK_RECORD
5
1F
100
AcDbSymbolTableRecord
100
AcDbBlockTableRecord
2
*MODEL_SPACE
0
BLOCK_RECORD
5
1B
100
AcDbSymbolTableRecord
100
AcDbBlockTableRecord
2
*PAPER_SPACE
0
ENDTAB
0
ENDSEC
0
SECTION
2
BLOCKS
0
BLOCK
5
20
100
AcDbEntity
100
AcDbBlockBegin
2
*MODEL_SPACE
0
ENDBLK
5
21
100
AcDbEntity
100
AcDbBlockEnd
0
BLOCK
5
1C
100
AcDbEntity
100
AcDbBlockBegin
2
*PAPER_SPACE
0
ENDBLK
5
1D
100
AcDbEntity
100
AcDbBlockEnd
0
ENDSEC
0
SECTION
2
ENTITIES
0
LWPOLYLINE
5
100
100
AcDbEntity
8
0
100
AcDbPolyline
90
15
70
1
43
0.0
10
-855.4597912702809
20
-935.85844228752819
10
-873.23789509327878
20
-921.47936734017435
42
-0.22169466264293008
10
-882.1413003166748
20
-903.25196903243227
10
-885.87749718702139
20
-696.20233211689481
42
-0.41421356237310847
10
-874.09595438019528
20
-683.98778140510285
10
-870.5405331905215
20
-683.92362406718405
10
-871.10018854781742
20
-652.90908105799474
10
-886.6536564968012
20
-653.18974234839686
10
-895.98385960312896
20
-645.64339820080932
10
-972.51447774033772
20
-740.26487279935623
10
-945.26768615079402
20
-762.30229941366758
42
-0.22169466264294058
10
-936.3642809273972
20
-780.52969772141046
10
-934.2673553575778
20
-896.73547941242475
42
0.22169466264294113
10
-920.9122475224824
20
-924.07657687403923
10
-875.58335275792183
20
-960.73895558380491
0
CIRCLE
5
101
100
AcDbEntity
8
0
100
AcDbCircle
10
-947.66982277037664
20
-747.27576237718404
30
0
40
1.5000000000000053
210
-1.9167272053058944e-32
220
1.5502645508836647e-32
230
1
0
CIRCLE
5
102
100
AcDbEntity
8
0
100
AcDbCircle
10
-961.45210480128753
20
-736.12854059014182
30
0
40
1.5000000000000053
210
-1.9167272053058944e-32
220
1.5502645508836647e-32
230
1
0
CIRCLE
5
103
100
AcDbEntity
8
0
100
AcDbCircle
10
-933.78217626004903
20
-701.9177958668422
30
0
40
0.99999999999999767
210
-1.9167272053058947e-32
220
1.5502645508836636e-32
230
1
0
CIRCLE
5
104
100
AcDbEntity
8
0
100
AcDbCircle
10
-891.14509232821342
20
-847.69678203664569
30
0
40
1.5000000000000011
210
-1.9167272053058941e-32
220
1.5502645508836639e-32
230
1
0
CIRCLE
5
105
100
AcDbEntity
8
0
100
AcDbCircle
10
-921.12885944144841
20
-848.8670154287837
30
0
40
1.5000000000000011
210
-1.9167272053058941e-32
220
1.5502645508836639e-32
230
1
0
CIRCLE
5
106
100
AcDbEntity
8
0
100
AcDbCircle
10
-902.82101004069341
20
-696.5740249843011
30
0
40
1.5000000000000053
210
-1.9167272053058944e-32
220
1.5502645508836647e-32
230
1
0
CIRCLE
5
107
100
AcDbEntity
8
0
100
AcDbCircle
10
-923.99882009661064
20
-689.8217797985069
30
0
40
1.5000000000000053
210
-1.9167272053058944e-32
220
1.5502645508836647e-32
230
1
0
CIRCLE
5
108
100
AcDbEntity
8
0
100
AcDbCircle
10
-897.58661564948989
20
-657.16606887004161
30
0
40
1.5000000000000053
210
-1.9167272053058944e-32
220
1.5502645508836647e-32
230
1
0
CIRCLE
5
109
100
AcDbEntity
8
0
100
AcDbCircle
10
-918.03444709129224
20
-905.7551820723038
30
0
40
0.99999999999999767
210
-1.9167272053058947e-32
220
1.5502645508836636e-32
230
1
0
CIRCLE
5
110
100
AcDbEntity
8
0
100
AcDbCircle
10
-876.04102587927798
20
-929.50133744574691
30
0
40
1.5000000000000053
210
-1.9167272053058944e-32
220
1.5502645508836647e-32
230
1
0
CIRCLE
5
111
100
AcDbEntity
8
0
100
AcDbCircle
10
-880.14572723294032
20
-937.75668547944576
30
0
40
1.5000000000000053
210
-1.9167272053058944e-32
220
1.5502645508836647e-32
230
1
0
CIRCLE
5
112
100
AcDbEntity
8
0
100
AcDbCircle
10
-923.72819015600703
20
-704.81933824764326
30
0
40
0.99999999999999767
210
-1.9167272053058947e-32
220
1.5502645508836636e-32
230
1
0
CIRCLE
5
113
100
AcDbEntity
8
0
100
AcDbCircle
10
-923.45756021540353
20
-719.81689669677871
30
0
40
0.99999999999999767
210
-1.9167272053058947e-32
220
1.5502645508836636e-32
230
1
0
LINE
5
114
100
AcDbEntity
8
1
100
AcDbLine
10
-911.89670569483042
20
-702.73877208559634
30
0
11
-909.54805092162826
21
-832.89468594841094
31
0
0
LINE
5
115
100
AcDbEntity
8
1
100
AcDbLine
10
-909.54805092162826
20
-832.89468594841094
30
0
11
-889.41842417176372
21
-832.53144817806515
31
0
0
LINE
5
116
100
AcDbEntity
8
1
100
AcDbLine
10
-889.41842417176372
20
-832.53144817806515
30
0
11
-891.76707894496599
21
-702.37553431525055
31
0
0
LINE
5
117
100
AcDbEntity
8
1
100
AcDbLine
10
-891.76707894496599
20
-702.37553431525055
30
0
11
-911.89670569483042
21
-702.73877208559634
31
0
0
LINE
5
118
100
AcDbEntity
8
0
100
AcDbLine
10
-897.37807764499746
20
-703.35442736798097
30
0
11
-892.11393416689407
21
-703.25943625048399
31
0
0
LINE
5
119
100
AcDbEntity
8
0
100
AcDbLine
10
-892.11393416689407
20
-703.25943625048399
30
0
11
-892.0875477473088
21
-704.72169822013302
31
0
0
LINE
5
120
100
AcDbEntity
8
0
100
AcDbLine
10
-893.52342367118513
20
-706.21034654159473
30
0
11
-895.86304276302849
21
-706.25256481185579
31
0
0
LINE
5
121
100
AcDbEntity
8
0
100
AcDbLine
10
-897.3516912254122
20
-704.81668933763001
30
0
11
-897.37807764499746
21
-703.35442736798097
31
0
0
ARC
5
122
100
AcDbEntity
8
0
100
AcDbCircle
10
-893.37110138909281
20
-704.92045794648698
30
0
40
1.2988513708114622
210
-0
220
0
230
1
100
AcDbArc
50
-96.734833505775399
51
8.8024050028469816
0
ARC
5
123
100
AcDbEntity
8
0
100
AcDbCircle
10
-896.06180263299302
20
-704.96901147073504
30
0
40
1.2988513708114622
210
-0
220
0
230
1
100
AcDbArc
50
173.26515715955614
51
278.80240249836277
0
LINE
5
124
100
AcDbEntity
8
0
100
AcDbLine
10
-894.32689873920799
20
-710.32051217412072
30
0
11
-897.29627973662105
21
-707.88743989850684
31
0
0
LINE
5
125
100
AcDbEntity
8
0
100
AcDbLine
10
-897.29627973662105
20
-707.88743989850684
30
0
11
-897.24350689476205
21
-710.81196398679231
31
0
0
ARC
5
126
100
AcDbEntity
8
0
100
AcDbCircle
10
-893.15830957190269
20
-709.5798202634428
30
0
40
1.1689662933349607
210
-0
220
0
230
1
100
AcDbArc
50
-96.734833505780657
51
8.8024050028453189
0
ARC
5
127
100
AcDbEntity
8
0
100
AcDbCircle
10
-893.45427632405961
20
-709.25051164705894
30
0
40
1.4589405059814451
210
-0
220
0
230
1
100
AcDbArc
50
-5.9180391869355953
51
80.040355970538172
0
ARC
5
128
100
AcDbEntity
8
0
100
AcDbCircle
10
-893.42069354586454
20
-709.57215219958528
30
0
40
1.1752662807703016
210
-0
220
0
230
1
100
AcDbArc
50
219.55050780603733
51
276.11988924429778
0
LINE
5
129
100
AcDbEntity
8
0
100
AcDbLine
10
-897.21184318534506
20
-712.56667867814315
30
0
11
-897.21712047383244
21
-712.27422603093487
31
0
0
LINE
5
130
100
AcDbEntity
8
0
100
AcDbLine
10
-897.21712047383267
20
-712.27422603093487
30
0
11
-896.92466782662439
21
-712.26894874244749
31
0
0
LINE
5
131
100
AcDbEntity
8
0
100
AcDbLine
10
-896.92466782662427
20
-712.26894874244738
30
0
11
-896.91939053813689
21
-712.56140138965566
31
0
0
LINE
5
132
100
AcDbEntity
8
0
100
AcDbLine
10
-896.91939053813689
20
-712.56140138965566
30
0
11
-897.21184318534506
21
-712.56667867814303
31
0
0
LINE
5
133
100
AcDbEntity
8
0
100
AcDbLine
10
-897.21184318534506
20
-712.56667867814315
30
0
11
-898.38956851501064
21
-712.14910883977268
31
0
0
LINE
5
134
100
AcDbEntity
8
0
100
AcDbLine
10
-895.05385349203766
20
-718.67123732287268
30
0
11
-895.07760125796949
21
-717.35520219828356
31
0
0
LINE
5
135
100
AcDbEntity
8
0
100
AcDbLine
10
-897.12476800057925
20
-717.39214318543418
30
0
11
-897.10102023464742
21
-718.7081783100233
31
0
0
LINE
5
136
100
AcDbEntity
8
0
100
AcDbLine
10
-897.10102023464742
20
-718.7081783100233
30
0
11
-894.46894849559567
21
-718.66068275127475
31
0
0
LINE
5
137
100
AcDbEntity
8
0
100
AcDbLine
10
-893.60742299387482
20
-717.76749414684014
30
0
11
-893.62853212631694
21
-716.59768474990585
31
0
0
ARC
5
138
100
AcDbEntity
8
0
100
AcDbCircle
10
-896.10118462927448
20
-717.37367269185881
30
0
40
1.0237500816583631
210
-0
220
0
230
1
100
AcDbArc
50
1.0337888220104274
51
181.03378700077735
0
ARC
5
139
100
AcDbEntity
8
0
100
AcDbCircle
10
-894.37755523907776
20
-717.88674995393058
30
0
40
0.77931083738803852
210
-0
220
0
230
1
100
AcDbArc
50
-96.734833505781467
51
8.8024050028511382
0
LINE
5
140
100
AcDbEntity
8
0
100
AcDbLine
10
-897.06935652523043
20
-720.46289300137414
30
0
11
-893.55992744050332
21
-720.3995655879171
31
0
0
LINE
5
141
100
AcDbEntity
8
0
100
AcDbLine
10
-892.10030402985035
20
-720.22695343933287
30
0
11
-891.80785168061675
21
-720.22167615622243
31
0
0
LINE
5
142
100
AcDbEntity
8
0
100
AcDbLine
10
-891.80785168061686
20
-720.22167615622254
30
0
11
-891.80257439212949
21
-720.51412880343082
31
0
0
LINE
5
143
100
AcDbEntity
8
0
100
AcDbLine
10
-891.80257439212937
20
-720.51412880343082
30
0
11
-892.09502674136297
21
-720.51940608654138
31
0
0
LINE
5
144
100
AcDbEntity
8
0
100
AcDbLine
10
-892.09502674136297
20
-720.51940608654138
30
0
11
-892.10030402985035
21
-720.2269534393331
31
0
0
LINE
5
145
100
AcDbEntity
8
0
100
AcDbLine
10
-897.03769281581356
20
-722.21760769272521
30
0
11
-893.52826373108644
21
-722.15428027926816
31
0
0
LINE
5
146
100
AcDbEntity
8
0
100
AcDbLine
10
-893.52826373108633
20
-722.15428027926816
30
0
11
-893.49660002166934
21
-723.90899497061912
31
0
0
LINE
5
147
100
AcDbEntity
8
0
100
AcDbLine
10
-893.49660002166945
20
-723.90899497061912
30
0
11
-894.08150501811133
21
-723.91954954221706
31
0
0
LINE
5
148
100
AcDbEntity
8
0
100
AcDbLine
10
-891.71813786236112
20
-725.19336639116818
30
0
11
-896.98228134046462
21
-725.28835750866517
31
0
0
LINE
5
149
100
AcDbEntity
8
0
100
AcDbLine
10
-896.98228134046462
20
-725.28835750866517
30
0
11
-896.95589491953513
21
-726.75061955280785
31
0
0
LINE
5
150
100
AcDbEntity
8
0
100
AcDbLine
10
-896.06270572990513
20
-727.61214444782536
30
0
11
-894.30799133652886
21
-727.5804807437853
31
0
0
LINE
5
151
100
AcDbEntity
8
0
100
AcDbLine
10
-893.4464658348079
20
-726.68729213935092
30
0
11
-893.47285225573739
21
-725.22503009520835
31
0
0
ARC
5
152
100
AcDbEntity
8
0
100
AcDbCircle
10
-896.18196150473386
20
-726.84201399047072
30
0
40
0.77931083738803852
210
-0
220
0
230
1
100
AcDbArc
50
173.26515715954963
51
278.80240249836277
0
ARC
5
153
100
AcDbEntity
8
0
100
AcDbCircle
10
-894.21659805850322
20
-726.80654913834007
30
0
40
0.77931083738803852
210
-0
220
0
230
1
100
AcDbArc
50
-96.734833505780486
51
8.8024050028511382
0
LINE
5
154
100
AcDbEntity
8
0
100
AcDbLine
10
-896.91103799965344
20
-729.2364652662302
30
0
11
-893.40160891492633
21
-729.17313785277315
31
0
0
LINE
5
155
100
AcDbEntity
8
0
100
AcDbLine
10
-893.40160891492633
20
-729.17313785277315
30
0
11
-893.36994518400161
21
-730.92785373602294
31
0
0
LINE
5
156
100
AcDbEntity
8
0
100
AcDbLine
10
-893.36994518400161
20
-730.92785373602294
30
0
11
-893.9548501804436
21
-730.93840830762088
31
0
0
LINE
5
157
100
AcDbEntity
8
0
100
AcDbLine
10
-896.81604684989497
20
-734.50061053218189
30
0
11
-896.84243327082436
21
-733.03834848803933
31
0
0
LINE
5
158
100
AcDbEntity
8
0
100
AcDbLine
10
-895.98090776910351
20
-732.14515988360472
30
0
11
-894.51864572496095
21
-732.11877346267534
31
0
0
LINE
5
159
100
AcDbEntity
8
0
100
AcDbLine
10
-894.47642746007671
20
-734.4583922565439
30
0
11
-895.06133215854391
21
-734.46894682276491
31
0
0
LINE
5
160
100
AcDbEntity
8
0
100
AcDbLine
10
-895.06133215854391
20
-734.46894682276491
30
0
11
-895.10355042342792
21
-732.12932802889623
31
0
0
ARC
5
161
100
AcDbEntity
8
0
100
AcDbCircle
10
-896.07230104712914
20
-732.91909148905006
30
0
40
0.77931083738803852
210
-0
220
0
230
1
100
AcDbArc
50
83.265175145646282
51
188.80238952122971
0
ARC
5
162
100
AcDbEntity
8
0
100
AcDbCircle
10
-894.49753661402656
20
-733.28858166771067
30
0
40
1.1700000613927839
210
-0
220
0
230
1
100
AcDbArc
50
-88.966213682475512
51
91.03379132647575
0
LINE
5
163
100
AcDbEntity
8
0
100
AcDbLine
10
-894.70027542147147
20
-738.26555038304275
30
0
11
-894.72402323041888
21
-736.94951287465597
31
0
0
LINE
5
164
100
AcDbEntity
8
0
100
AcDbLine
10
-896.77118997302864
20
-736.98645386180647
30
0
11
-896.74744216408135
21
-738.30249137019325
31
0
0
LINE
5
165
100
AcDbEntity
8
0
100
AcDbLine
10
-896.74744216408135
20
-738.30249137019325
30
0
11
-894.1153704250296
21
-738.2549958114447
31
0
0
LINE
5
166
100
AcDbEntity
8
0
100
AcDbLine
10
-893.2538449663241
20
-737.36180482321265
30
0
11
-893.27495407725837
21
-736.19199661817697
31
0
0
ARC
5
167
100
AcDbEntity
8
0
100
AcDbCircle
10
-895.74760660172376
20
-736.96798336823122
30
0
40
1.0237500816583631
210
-0
220
0
230
1
100
AcDbArc
50
1.0337888220104274
51
181.03378700077704
0
ARC
5
168
100
AcDbEntity
8
0
100
AcDbCircle
10
-894.02397719001942
20
-737.4810618222017
30
0
40
0.77931083738803852
210
-0
220
0
230
1
100
AcDbArc
50
-96.734833505772201
51
8.8024050028428675
0
LINE
5
169
100
AcDbEntity
8
0
100
AcDbLine
10
-896.71577847617198
20
-740.05720486964537
30
0
11
-891.45163499806858
21
-739.96221375214827
31
0
0
LINE
5
170
100
AcDbEntity
8
0
100
AcDbLine
10
-893.16413112656073
20
-742.33349625005712
30
0
11
-894.96106378482114
21
-740.0255411602285
31
0
0
LINE
5
171
100
AcDbEntity
8
0
100
AcDbLine
10
-896.67356021128796
20
-742.39682366351417
30
0
11
-894.21146226379756
21
-741.03593161904337
31
0
0
LINE
5
172
100
AcDbEntity
8
0
100
AcDbLine
10
-894.51820904393162
20
-748.35516254008326
30
0
11
-894.54195685287903
21
-747.03912503169647
31
0
0
LINE
5
173
100
AcDbEntity
8
0
100
AcDbLine
10
-896.58912359548879
20
-747.07606601884686
30
0
11
-896.56537578654138
21
-748.39210352723376
31
0
0
LINE
5
174
100
AcDbEntity
8
0
100
AcDbLine
10
-896.56537578654138
20
-748.39210352723376
30
0
11
-893.93330404748963
21
-748.34460796848521
31
0
0
LINE
5
175
100
AcDbEntity
8
0
100
AcDbLine
10
-893.07177854576878
20
-747.45141936405071
30
0
11
-893.09288769971863
21
-746.28160877521748
31
0
0
ARC
5
176
100
AcDbEntity
8
0
100
AcDbCircle
10
-895.56554022418391
20
-747.05759552527172
30
0
40
1.0237500816583631
210
-0
220
0
230
1
100
AcDbArc
50
1.0337888220167739
51
181.03378700077704
0
ARC
5
177
100
AcDbEntity
8
0
100
AcDbCircle
10
-893.84191085549503
20
-747.57067159544454
30
0
40
0.77931083738803852
210
-0
220
0
230
1
100
AcDbArc
50
-96.734833505781467
51
8.8024050028511382
0
LINE
5
178
100
AcDbEntity
8
0
100
AcDbLine
10
-895.0397863665803
20
-751.87514410520851
30
0
11
-894.48126804602725
21
-750.40232987864238
31
0
0
ARC
5
179
100
AcDbEntity
8
0
100
AcDbCircle
10
-893.76426317332107
20
-750.62782988983327
30
0
40
0.75162976980209339
210
-0
220
0
230
1
100
AcDbArc
50
-3.0936261915479113
51
162.54132303052458
0
ARC
5
180
100
AcDbEntity
8
0
100
AcDbCircle
10
-895.72844523695937
20
-750.8043018952585
30
0
40
2.7181166410446163
210
-0
220
0
230
1
100
AcDbArc
50
-25.856092204444771
51
2.8660485385616101
0
ARC
5
181
100
AcDbEntity
8
0
100
AcDbCircle
10
-895.75558815241845
20
-751.6430075763185
30
0
40
0.7525029033422469
210
-0
220
0
230
1
100
AcDbArc
50
177.41591775967999
51
342.03179273967345
0
ARC
5
182
100
AcDbEntity
8
0
100
AcDbCircle
10
-893.41567159696137
20
-751.28537157570872
30
0
40
3.1085547804832454
210
-0
220
0
230
1
100
AcDbArc
50
155.48054667413803
51
185.97731399749023
0
LINE
5
183
100
AcDbEntity
8
0
100
AcDbLine
10
-894.97118168076668
20
-755.67702494321998
30
0
11
-894.41266336021363
21
-754.20421071665396
31
0
0
ARC
5
184
100
AcDbEntity
8
0
100
AcDbCircle
10
-893.69565848750744
20
-754.42971072784474
30
0
40
0.75162976980209339
210
-0
220
0
230
1
100
AcDbArc
50
-3.0936261915479113
51
162.54132303052458
0
ARC
5
185
100
AcDbEntity
8
0
100
AcDbCircle
10
-895.65984055114563
20
-754.60618273326997
30
0
40
2.7181166410446163
210
-0
220
0
230
1
100
AcDbArc
50
-25.85609220444584
51
2.8660485385616101
0
ARC
5
186
100
AcDbEntity
8
0
100
AcDbCircle
10
-895.68698346660483
20
-755.44488841432997
30
0
40
0.7525029033422469
210
-0
220
0
230
1
100
AcDbArc
50
177.4159177596797
51
342.03179273968169
0
ARC
5
187
100
AcDbEntity
8
0
100
AcDbCircle
10
-893.34706691114786
20
-755.08725241372019
30
0
40
3.1085547804832454
210
-0
220
0
230
1
100
AcDbArc
50
155.48054667413803
51
185.97731399748815
0
LINE
5
188
100
AcDbEntity
8
0
100
AcDbLine
10
-896.35692307410307
20
-759.94397296082161
30
0
11
-896.38330953804814
21
-758.48170853288127
31
0
0
LINE
5
189
100
AcDbEntity
8
0
100
AcDbLine
10
-895.52178403632706
20
-757.58851992844654
30
0
11
-894.0595219921845
21
-757.56213350751705
31
0
0
LINE
5
190
100
AcDbEntity
8
0
100
AcDbLine
10
-894.01730368428491
20
-759.9017546851835
30
0
11
-894.602208382752
21
-759.91230925140439
31
0
0
LINE
5
191
100
AcDbEntity
8
0
100
AcDbLine
10
-894.602208382752
20
-759.91230925140462
30
0
11
-894.6444266906517
21
-757.57268807373816
31
0
0
ARC
5
192
100
AcDbEntity
8
0
100
AcDbCircle
10
-895.61317722832177
20
-758.36245630148733
30
0
40
0.77931083738803852
210
-0
220
0
230
1
100
AcDbArc
50
83.265175145637016
51
188.80238952123798
0
ARC
5
193
100
AcDbEntity
8
0
100
AcDbCircle
10
-894.03841283823465
20
-758.73194409635039
30
0
40
1.1700000613927839
210
-0
220
0
230
1
100
AcDbArc
50
-88.966213682475413
51
91.033791326481222
0
LINE
5
194
100
AcDbEntity
8
0
100
AcDbLine
10
-896.32789804119147
20
-761.55245954072006
30
0
11
-892.81846895646424
21
-761.48913212726302
31
0
0
LINE
5
195
100
AcDbEntity
8
0
100
AcDbLine
10
-892.81846895646424
20
-761.48913212726302
30
0
11
-892.77097342460036
21
-764.12120237644115
31
0
0
LINE
5
196
100
AcDbEntity
8
0
100
AcDbLine
10
-893.6324989263212
20
-765.01439098087576
30
0
11
-896.26457066537296
21
-765.06188653962431
31
0
0
LINE
5
197
100
AcDbEntity
8
0
100
AcDbLine
10
-896.2962343532821
20
-763.30717304017207
30
0
11
-892.78680526855499
21
-763.24384562671514
31
0
0
ARC
5
198
100
AcDbEntity
8
0
100
AcDbCircle
10
-893.54110564829568
20
-764.24045937543042
30
0
40
0.77931083738803852
210
-0
220
0
230
1
100
AcDbArc
50
-96.734833505780486
51
8.8024050028511382
0
LINE
5
199
100
AcDbEntity
8
0
100
AcDbLine
10
-890.96876341332927
20
-766.72161368917489
30
0
11
-896.23290689143278
21
-766.81660480667188
31
0
0
LINE
5
200
100
AcDbEntity
8
0
100
AcDbLine
10
-896.23290689143289
20
-766.81660480667176
30
0
11
-896.20652042748793
21
-768.2788692346121
31
0
0
LINE
5
201
100
AcDbEntity
8
0
100
AcDbLine
10
-895.31333123785771
20
-769.14039412962984
30
0
11
-893.55861684448143
21
-769.10873042558978
31
0
0
LINE
5
202
100
AcDbEntity
8
0
100
AcDbLine
10
-892.6970913427607
20
-768.21554182115517
30
0
11
-892.72347780670566
21
-766.75327739321483
31
0
0
ARC
5
203
100
AcDbEntity
8
0
100
AcDbCircle
10
-895.43258709871748
20
-768.37025890467953
30
0
40
0.77931083738803852
210
-0
220
0
230
1
100
AcDbArc
50
173.2651571595506
51
278.80240249835316
0
ARC
5
204
100
AcDbEntity
8
0
100
AcDbCircle
10
-893.46722365248684
20
-768.33479405254889
30
0
40
0.77931083738803852
210
-0
220
0
230
1
100
AcDbArc
50
-96.734833505772201
51
8.8024050028428675
0
LINE
5
205
100
AcDbEntity
8
0
100
AcDbLine
10
-890.8975200725182
20
-770.66972144673969
30
0
11
-895.28430620494623
21
-770.74888070952829
31
0
0
ARC
5
206
100
AcDbEntity
8
0
100
AcDbCircle
10
-895.37569948297175
20
-771.52281231497352
30
0
40
0.77931083738803852
210
-0
220
0
230
1
100
AcDbArc
50
83.265175145645301
51
188.80238952123798
0
LINE
5
207
100
AcDbEntity
8
0
100
AcDbLine
10
-897.87943724406819
20
-772.8435436122129
30
0
11
-897.86888262407786
21
-773.42845129042735
31
0
0
LINE
5
208
100
AcDbEntity
8
0
100
AcDbLine
10
-897.86888262407786
20
-773.42845129042735
30
0
11
-892.57307516009053
21
-775.08817366700555
31
0
0
LINE
5
209
100
AcDbEntity
8
0
100
AcDbLine
10
-892.61529346799011
20
-772.74855248933909
30
0
11
-896.10361339876749
21
-773.98169049162914
31
0
0
LINE
5
210
100
AcDbEntity
8
0
100
AcDbLine
10
-896.01126090400635
20
-779.09960883802739
30
0
11
-891.62447477157843
21
-779.0204495752389
31
0
0
LINE
5
211
100
AcDbEntity
8
0
100
AcDbLine
10
-890.73128558194844
20
-779.88197447025641
30
0
11
-890.72600827195311
21
-780.17442830936363
31
0
0
LINE
5
212
100
AcDbEntity
8
0
100
AcDbLine
10
-892.51238635323875
20
-778.45137851395157
30
0
11
-892.48072266532961
21
-780.20609201340358
31
0
0
ARC
5
213
100
AcDbEntity
8
0
100
AcDbCircle
10
-891.5052189967497
20
-779.79058003259365
30
0
40
0.77931083738803852
210
-0
220
0
230
1
100
AcDbArc
50
-6.7348273588307555
51
98.802407507324332
0
LINE
5
214
100
AcDbEntity
8
0
100
AcDbLine
10
-895.9690426821378
20
-781.43922524809841
30
0
11
-892.45961359741057
21
-781.37589783464136
31
0
0
LINE
5
215
100
AcDbEntity
8
0
100
AcDbLine
10
-892.45961359741057
20
-781.37589783464136
30
0
11
-892.42794990950142
21
-783.13061133409349
31
0
0
LINE
5
216
100
AcDbEntity
8
0
100
AcDbLine
10
-892.42794990950142
20
-783.13061133409349
30
0
11
-893.01285490594341
21
-783.14116590569142
31
0
0
LINE
5
217
100
AcDbEntity
8
0
100
AcDbLine
10
-894.74646023140065
20
-784.34263543096927
30
0
11
-893.57665053649157
21
-784.32152629315033
31
0
0
LINE
5
218
100
AcDbEntity
8
0
100
AcDbLine
10
-893.53443222859198
20
-786.66114747081679
30
0
11
-894.70424192350106
21
-786.68225660863584
31
0
0
ARC
5
219
100
AcDbEntity
8
0
100
AcDbCircle
10
-893.5555412965108
20
-785.49134164957889
30
0
40
1.1700000613927839
210
-0
220
0
230
1
100
AcDbArc
50
-88.966213682475512
51
91.033791326481321
0
ARC
5
220
100
AcDbEntity
8
0
100
AcDbCircle
10
-894.72535099141987
20
-785.51245078739794
30
0
40
1.1700000613927839
210
-0
220
0
230
1
100
AcDbArc
50
91.033791326481321
51
271.03378631752446
0
LINE
5
221
100
AcDbEntity
8
0
100
AcDbLine
10
-895.84502649946762
20
-788.31185709394867
30
0
11
-892.33559741474039
21
-788.24852968049174
31
0
0
LINE
5
222
100
AcDbEntity
8
0
100
AcDbLine
10
-892.33559741474039
20
-788.24852968049174
30
0
11
-892.30921103682635
21
-789.71078934083664
31
0
0
LINE
5
223
100
AcDbEntity
8
0
100
AcDbLine
10
-893.17073662457813
20
-790.60397317767581
30
0
11
-895.80280836362988
21
-790.65146873642436
31
0
0
ARC
5
224
100
AcDbEntity
8
0
100
AcDbCircle
10
-893.07934326052168
20
-789.83004633982591
30
0
40
0.77931083738803852
210
-0
220
0
230
1
100
AcDbArc
50
-96.734833505773167
51
8.8024050028511382
0
LINE
5
225
100
AcDbEntity
8
0
100
AcDbLine
10
-892.26963146995536
20
-791.9041788313541
30
0
11
-892.2379677820461
21
-793.65889233080622
31
0
0
LINE
5
226
100
AcDbEntity
8
0
100
AcDbLine
10
-890.50436245658875
20
-792.45742280552827
30
0
11
-894.89114858901667
21
-792.53658206831687
31
0
0
LINE
5
227
100
AcDbEntity
8
0
100
AcDbLine
10
-895.75267400470671
20
-793.42977544034682
30
0
11
-895.74739686677333
21
-793.72221974426316
31
0
0
ARC
5
228
100
AcDbEntity
8
0
100
AcDbCircle
10
-894.98254178101138
20
-793.31051844135754
30
0
40
0.77931083738803852
210
-0
220
0
230
1
100
AcDbArc
50
83.265175145646282
51
188.80238952122971
0
LINE
5
229
100
AcDbEntity
8
0
100
AcDbLine
10
-895.67879200889797
20
-797.5241101174654
30
0
11
-892.16936292417074
21
-797.46078270400847
31
0
0
LINE
5
230
100
AcDbEntity
8
0
100
AcDbLine
10
-890.70973962105654
20
-797.28816459592986
30
0
11
-890.41728727182294
21
-797.28288731281941
31
0
0
LINE
5
231
100
AcDbEntity
8
0
100
AcDbLine
10
-890.41728727182294
20
-797.28288731281941
30
0
11
-890.41200996182761
21
-797.57534115192652
31
0
0
LINE
5
232
100
AcDbEntity
8
0
100
AcDbLine
10
-890.41200996182783
20
-797.57534115192652
30
0
11
-890.70446231106143
21
-797.58061843503708
31
0
0
LINE
5
233
100
AcDbEntity
8
0
100
AcDbLine
10
-890.70446231106132
20
-797.58061843503708
30
0
11
-890.70973962105654
21
-797.28816459592986
31
0
0
LINE
5
234
100
AcDbEntity
8
0
100
AcDbLine
10
-895.6471283209886
20
-799.27882361691763
30
0
11
-892.13769923626148
21
-799.21549620346059
31
0
0
LINE
5
235
100
AcDbEntity
8
0
100
AcDbLine
10
-892.13769923626148
20
-799.21549620346059
30
0
11
-892.11131285834745
21
-800.67775586380549
31
0
0
LINE
5
236
100
AcDbEntity
8
0
100
AcDbLine
10
-892.97283844609922
20
-801.57093970064466
30
0
11
-895.60491018515097
21
-801.61843525939321
31
0
0
ARC
5
237
100
AcDbEntity
8
0
100
AcDbCircle
10
-892.88144508204266
20
-800.79701286279476
30
0
40
0.77931083738803852
210
-0
220
0
230
1
100
AcDbArc
50
-96.734833505780486
51
8.8024050028511382
0
LINE
5
238
100
AcDbEntity
8
0
100
AcDbLine
10
-894.07932059312793
20
-805.10148537255873
30
0
11
-893.52080244463673
21
-803.62866161080194
31
0
0
ARC
5
239
100
AcDbEntity
8
0
100
AcDbCircle
10
-892.8037973998687
20
-803.8541711571836
30
0
40
0.75162976980209339
210
-0
220
0
230
1
100
AcDbArc
50
-3.0936261915393111
51
162.54132303052458
0
ARC
5
240
100
AcDbEntity
8
0
100
AcDbCircle
10
-894.76797954953793
20
-804.03063839501328
30
0
40
2.7181166410446163
210
-0
220
0
230
1
100
AcDbArc
50
-25.856092204443652
51
2.8660485385640273
0
ARC
5
241
100
AcDbEntity
8
0
100
AcDbCircle
10
-894.79512246499712
20
-804.86934407607328
30
0
40
0.7525029033422469
210
-0
220
0
230
1
100
AcDbArc
50
177.4159177596797
51
342.03179273968169
0
ARC
5
242
100
AcDbEntity
8
0
100
AcDbCircle
10
-892.45520590954004
20
-804.5117080754635
30
0
40
3.1085547804832454
210
-0
220
0
230
1
100
AcDbArc
50
155.48054667413803
51
185.97731399748835
0
LINE
5
243
100
AcDbEntity
8
0
100
AcDbLine
10
-895.50464163936624
20
-807.17503913204735
30
0
11
-891.99521255463901
21
-807.11171171859041
31
0
0
LINE
5
244
100
AcDbEntity
8
0
100
AcDbLine
10
-890.53558925152493
20
-806.93909361051192
30
0
11
-890.24313690229121
21
-806.93381632740147
31
0
0
LINE
5
245
100
AcDbEntity
8
0
100
AcDbLine
10
-890.24313690229133
20
-806.93381632740147
30
0
11
-890.2378595922961
21
-807.22627016650858
31
0
0
LINE
5
246
100
AcDbEntity
8
0
100
AcDbLine
10
-890.2378595922961
20
-807.22627016650858
30
0
11
-890.53031194152982
21
-807.23154744961914
31
0
0
LINE
5
247
100
AcDbEntity
8
0
100
AcDbLine
10
-890.53031194152982
20
-807.23154744961903
30
0
11
-890.53558925152504
21
-806.9390936105118
31
0
0
LINE
5
248
100
AcDbEntity
8
0
100
AcDbLine
10
-890.16925490648248
20
-811.02815100451994
30
0
11
-895.43339838458587
21
-811.12314212201693
31
0
0
LINE
5
249
100
AcDbEntity
8
0
100
AcDbLine
10
-895.43339838458587
20
-811.12314212201693
30
0
11
-895.45978476250002
21
-809.66088246167203
31
0
0
LINE
5
250
100
AcDbEntity
8
0
100
AcDbLine
10
-894.5982593468101
20
-808.76768908964209
30
0
11
-892.84354495343382
21
-808.73602538560203
31
0
0
LINE
5
251
100
AcDbEntity
8
0
100
AcDbLine
10
-891.95035567777279
20
-809.59755504821499
30
0
11
-891.92396929985875
21
-811.05981470856
31
0
0
ARC
5
252
100
AcDbEntity
8
0
100
AcDbCircle
10
-894.68965253880469
20
-809.54162546268276
30
0
40
0.77931083738803852
210
-0
220
0
230
1
100
AcDbArc
50
83.265175145646282
51
188.80238952122971
0
ARC
5
253
100
AcDbEntity
8
0
100
AcDbCircle
10
-892.72428909257417
20
-809.50616061055212
30
0
40
0.77931083738803852
210
-0
220
0
230
1
100
AcDbArc
50
-6.7348273588307555
51
98.802407507324332
0
LINE
5
254
100
AcDbEntity
8
0
100
AcDbLine
10
-895.36215512980573
20
-815.0712451119864
30
0
11
-895.38854150771976
21
-813.6089854516415
31
0
0
LINE
5
255
100
AcDbEntity
8
0
100
AcDbLine
10
-894.52701609202995
20
-812.71579207961156
30
0
11
-893.06475404788728
21
-812.68940565868206
31
0
0
LINE
5
256
100
AcDbEntity
8
0
100
AcDbLine
10
-893.02253573998757
20
-815.02902683634852
30
0
11
-893.60744043845466
21
-815.03958140256952
31
0
0
LINE
5
257
100
AcDbEntity
8
0
100
AcDbLine
10
-893.60744043845466
20
-815.03958140256952
30
0
11
-893.64965874635436
21
-812.69996022490318
31
0
0
ARC
5
258
100
AcDbEntity
8
0
100
AcDbCircle
10
-894.61840928402455
20
-813.48972845265234
30
0
40
0.77931083738803852
210
-0
220
0
230
1
100
AcDbArc
50
83.265175145646282
51
188.80238952122971
0
ARC
5
259
100
AcDbEntity
8
0
100
AcDbCircle
10
-893.04364480790639
20
-813.85922101511073
30
0
40
1.1700000613927839
210
-0
220
0
230
1
100
AcDbArc
50
-88.966213682475413
51
91.033791326481321
0
LINE
5
260
100
AcDbEntity
8
0
100
AcDbLine
10
-899.91266546628799
20
-703.40016383594389
30
0
11
-905.17680894439138
21
-703.49515495344099
31
0
0
LINE
5
261
100
AcDbEntity
8
0
100
AcDbLine
10
-905.17680894439138
20
-703.49515495344099
30
0
11
-905.15042252480612
21
-704.95741692309002
31
0
0
LINE
5
262
100
AcDbEntity
8
0
100
AcDbLine
10
-904.25723392305997
20
-705.81894227582336
30
0
11
-902.50251923170913
21
-705.78727856640637
31
0
0
LINE
5
263
100
AcDbEntity
8
0
100
AcDbLine
10
-901.64099314210421
20
-704.89408950425604
30
0
11
-901.66737956168947
21
-703.43182753460701
31
0
0
ARC
5
264
100
AcDbEntity
8
0
100
AcDbCircle
10
-904.37648972477348
20
-705.04881032859521
30
0
40
0.77931083738803852
210
-0
220
0
230
1
100
AcDbArc
50
173.2651571595506
51
278.80240249836277
0
ARC
5
265
100
AcDbEntity
8
0
100
AcDbCircle
10
-902.41112598056816
20
-705.01334547108752
30
0
40
0.77931083738803852
210
-0
220
0
230
1
100
AcDbArc
50
-96.734833505772201
51
8.8024050028428675
0
LINE
5
266
100
AcDbEntity
8
0
100
AcDbLine
10
-905.1055656076129
20
-707.44326248752486
30
0
11
-901.59613622491088
21
-707.379935068691
31
0
0
LINE
5
267
100
AcDbEntity
8
0
100
AcDbLine
10
-901.59613622491088
20
-707.37993506869088
30
0
11
-901.56447252087094
21
-709.13464946206716
31
0
0
LINE
5
268
100
AcDbEntity
8
0
100
AcDbLine
10
-901.56447252087094
20
-709.13464946206716
30
0
11
-902.14937781528749
21
-709.14520403904203
31
0
0
LINE
5
269
100
AcDbEntity
8
0
100
AcDbLine
10
-902.96340716768736
20
-712.67046407379985
30
0
11
-902.98715493361919
21
-711.35442894921073
31
0
0
LINE
5
270
100
AcDbEntity
8
0
100
AcDbLine
10
-905.03432227217854
20
-711.39136994711509
30
0
11
-905.01057450624671
21
-712.70740507170422
31
0
0
LINE
5
271
100
AcDbEntity
8
0
100
AcDbLine
10
-905.01057450624671
20
-712.70740507170422
30
0
11
-902.37850306516975
21
-712.6599095183326
31
0
0
LINE
5
272
100
AcDbEntity
8
0
100
AcDbLine
10
-901.51697696749932
20
-711.76672090314423
30
0
11
-901.53808609994144
21
-710.59691150620995
31
0
0
ARC
5
273
100
AcDbEntity
8
0
100
AcDbCircle
10
-904.01073860289898
20
-711.37289944816291
30
0
40
1.0237500816583631
210
-0
220
0
230
1
100
AcDbArc
50
1.0337888220164213
51
181.03378700077704
0
ARC
5
274
100
AcDbEntity
8
0
100
AcDbCircle
10
-902.28710980865173
20
-711.88597672098854
30
0
40
0.77931083738803852
210
-0
220
0
230
1
100
AcDbArc
50
-96.734833505781467
51
8.8024050028511382
0
LINE
5
275
100
AcDbEntity
8
0
100
AcDbLine
10
-904.94460843241518
20
-716.36306137395968
30
0
11
-904.96571758636492
21
-715.19325078512634
31
0
0
LINE
5
276
100
AcDbEntity
8
0
100
AcDbLine
10
-904.10419268059354
20
-714.30006219144593
30
0
11
-902.3494779892427
21
-714.26839848202894
31
0
0
LINE
5
277
100
AcDbEntity
8
0
100
AcDbLine
10
-901.45628820366301
20
-715.12992336629259
30
0
11
-901.43517904971316
21
-716.29973395512582
31
0
0
ARC
5
278
100
AcDbEntity
8
0
100
AcDbCircle
10
-904.19558593711145
20
-715.07399498878999
30
0
40
0.77931083738803852
210
-0
220
0
230
1
100
AcDbArc
50
83.265175145646282
51
188.80238952122971
0
ARC
5
279
100
AcDbEntity
8
0
100
AcDbCircle
10
-902.23022219290613
20
-715.03853013128253
30
0
40
0.77931083738803852
210
-0
220
0
230
1
100
AcDbArc
50
-6.7348273588224608
51
98.802407507323053
0
LINE
5
280
100
AcDbEntity
8
0
100
AcDbLine
10
-904.91822203299353
20
-717.82532222620353
30
0
11
-899.65407855489002
21
-717.73033110870642
31
0
0
LINE
5
281
100
AcDbEntity
8
0
100
AcDbLine
10
-901.36657436389964
20
-720.10161479313729
30
0
11
-903.16350734164246
21
-717.79365851678665
31
0
0
LINE
5
282
100
AcDbEntity
8
0
100
AcDbLine
10
-904.87600374660155
20
-720.16494221197104
30
0
11
-902.41390582061899
21
-718.8040489756014
31
0
0
LINE
5
283
100
AcDbEntity
8
0
100
AcDbLine
10
-904.8100377157856
20
-723.82059613042884
30
0
11
-904.8364241367151
21
-722.35833408628628
31
0
0
LINE
5
284
100
AcDbEntity
8
0
100
AcDbLine
10
-903.97489923094372
20
-721.46514549260564
30
0
11
-902.51263718680104
21
-721.43875907167615
31
0
0
LINE
5
285
100
AcDbEntity
8
0
100
AcDbLine
10
-902.47041892191692
20
-723.77837786554483
30
0
11
-903.05532302443464
21
-723.78893242101196
31
0
0
LINE
5
286
100
AcDbEntity
8
0
100
AcDbLine
10
-903.05532302443464
20
-723.78893242101185
30
0
11
-903.09754128931877
21
-721.44931362714317
31
0
0
ARC
5
287
100
AcDbEntity
8
0
100
AcDbCircle
10
-904.0662924874614
20
-722.2390782899497
30
0
40
0.77931083738803852
210
-0
220
0
230
1
100
AcDbArc
50
83.265175145646282
51
188.80238952122846
0
ARC
5
288
100
AcDbEntity
8
0
100
AcDbCircle
10
-902.49152803285119
20
-722.60856966050926
30
0
40
1.1700000613927839
210
-0
220
0
230
1
100
AcDbArc
50
-88.966213682475413
51
91.03379132647575
0
LINE
5
289
100
AcDbEntity
8
0
100
AcDbLine
10
-901.27949917913384
20
-724.9270793004282
30
0
11
-901.24783549122469
21
-726.68179279988044
31
0
0
LINE
5
290
100
AcDbEntity
8
0
100
AcDbLine
10
-899.51423050675749
20
-725.48032089618175
30
0
11
-903.90101723513476
21
-725.55948016972411
31
0
0
LINE
5
291
100
AcDbEntity
8
0
100
AcDbLine
10
-904.76254214090636
20
-726.45266876340474
30
0
11
-904.7572648739266
21
-726.74512021871419
31
0
0
ARC
5
292
100
AcDbEntity
8
0
100
AcDbCircle
10
-903.99241047014493
20
-726.33341415896712
30
0
40
0.77931083738803852
210
-0
220
0
230
1
100
AcDbArc
50
83.265175145654609
51
188.80238952122846
0
LINE
5
293
100
AcDbEntity
8
0
100
AcDbLine
10
-904.72823979799955
20
-728.35360918241031
30
0
11
-904.7335170649792
21
-728.06115772710086
31
0
0
LINE
5
294
100
AcDbEntity
8
0
100
AcDbLine
10
-904.7335170649792
20
-728.06115772710098
30
0
11
-904.44106441777092
21
-728.0558804386136
31
0
0
LINE
5
295
100
AcDbEntity
8
0
100
AcDbLine
10
-904.44106441777092
20
-728.05588043861349
30
0
11
-904.43578715079127
21
-728.34833189392293
31
0
0
LINE
5
296
100
AcDbEntity
8
0
100
AcDbLine
10
-904.43578715079116
20
-728.34833189392293
30
0
11
-904.72823979799944
21
-728.35360918241031
31
0
0
LINE
5
297
100
AcDbEntity
8
0
100
AcDbLine
10
-904.72823979799955
20
-728.35360918241031
30
0
11
-905.90596511691115
21
-727.93603993998943
31
0
0
LINE
5
298
100
AcDbEntity
8
0
100
AcDbLine
10
-900.56530166998175
20
-732.08160566232311
30
0
11
-899.36910521315303
21
-733.52276094706758
31
0
0
LINE
5
299
100
AcDbEntity
8
0
100
AcDbLine
10
-899.36910521315281
20
-733.52276094706758
30
0
11
-904.63324869125631
21
-733.61775206456457
31
0
0
LINE
5
300
100
AcDbEntity
8
0
100
AcDbLine
10
-904.65963515520127
20
-732.15548763662412
30
0
11
-904.60686231334239
21
-735.08001172490947
31
0
0
LINE
5
301
100
AcDbEntity
8
0
100
AcDbLine
10
-904.54089623951086
20
-738.73566802716493
30
0
11
-900.98924859192493
21
-741.01195940219986
31
0
0
LINE
5
302
100
AcDbEntity
8
0
100
AcDbLine
10
-901.03146685680895
20
-738.67234060833096
30
0
11
-904.49867797462684
21
-741.07528682103361
31
0
0
LINE
5
303
100
AcDbEntity
8
0
100
AcDbLine
10
-901.50818785552542
20
-744.67816789763242
30
0
11
-901.47652416761628
21
-746.43288139708466
31
0
0
LINE
5
304
100
AcDbEntity
8
0
100
AcDbLine
10
-902.62522441060071
20
-747.62380111835978
30
0
11
-902.91767705780899
21
-747.62907840684716
31
0
0
LINE
5
305
100
AcDbEntity
8
0
100
AcDbLine
10
-902.9704498996681
20
-744.70455431856192
30
0
11
-901.50818785552542
21
-744.67816789763242
31
0
0
ARC
5
306
100
AcDbEntity
8
0
100
AcDbCircle
10
-902.50336633794404
20
-746.59189071473168
30
0
40
1.0390811413526533
210
-0
220
0
230
1
100
AcDbArc
50
-96.734833505768833
51
8.8024050028481877
0
ARC
5
307
100
AcDbEntity
8
0
100
AcDbCircle
10
-902.94406343572302
20
-746.16681874650226
30
0
40
1.4625000953674314
210
-0
220
0
230
1
100
AcDbArc
50
91.033791326484604
51
271.03378631752685
0
ARC
5
308
100
AcDbEntity
8
0
100
AcDbCircle
10
-901.19017279592765
20
-746.73185230281115
30
0
40
2.0781622827053066
210
-0
220
0
230
1
100
AcDbArc
50
-6.7348273588315193
51
98.80240750732203
0
LINE
5
309
100
AcDbEntity
8
0
100
AcDbLine
10
-904.30869567510967
20
-751.60357735293712
30
0
11
-900.79926629240776
21
-751.54024993410326
31
0
0
LINE
5
310
100
AcDbEntity
8
0
100
AcDbLine
10
-900.79926629240776
20
-751.54024993410326
30
0
11
-900.75177076054388
21
-754.1723201832815
31
0
0
LINE
5
311
100
AcDbEntity
8
0
100
AcDbLine
10
-901.61329677218316
20
-755.06551356606519
30
0
11
-904.24536821326012
21
-755.11300911943681
31
0
0
LINE
5
312
100
AcDbEntity
8
0
100
AcDbLine
10
-904.27703198720042
20
-753.35829085238925
30
0
11
-900.76760260449851
21
-753.29496343355549
31
0
0
ARC
5
313
100
AcDbEntity
8
0
100
AcDbCircle
10
-901.52190358018856
20
-754.29157719302452
30
0
40
0.77931083738803852
210
-0
220
0
230
1
100
AcDbArc
50
-96.734833505772201
51
8.8024050028511382
0
LINE
5
314
100
AcDbEntity
8
0
100
AcDbLine
10
-904.21370452535098
20
-756.86772261888893
30
0
11
-900.70427514264907
21
-756.80439520005507
31
0
0
LINE
5
315
100
AcDbEntity
8
0
100
AcDbLine
10
-900.70427514264907
20
-756.80439520005507
30
0
11
-900.65677961078518
21
-759.43646544923331
31
0
0
LINE
5
316
100
AcDbEntity
8
0
100
AcDbLine
10
-901.51830570845561
20
-760.32965406442156
30
0
11
-904.15037714953257
21
-760.37714961779318
31
0
0
LINE
5
317
100
AcDbEntity
8
0
100
AcDbLine
10
-904.18204083744183
20
-758.62243611834106
30
0
11
-900.67261145473992
21
-758.55910869950719
31
0
0
ARC
5
318
100
AcDbEntity
8
0
100
AcDbCircle
10
-901.42691243043009
20
-759.55572245897633
30
0
40
0.77931083738803852
210
-0
220
0
230
1
100
AcDbArc
50
-96.734833505773167
51
8.8024050028511382
0
LINE
5
319
100
AcDbEntity
8
0
100
AcDbLine
10
-905.83120975904376
20
-764.50315277192408
30
0
11
-900.56706568499089
21
-764.40816164367322
31
0
0
LINE
5
320
100
AcDbEntity
8
0
100
AcDbLine
10
-900.56706568499089
20
-764.40816164367322
30
0
11
-900.54067922104593
21
-765.87042607161357
31
0
0
LINE
5
321
100
AcDbEntity
8
0
100
AcDbLine
10
-901.40220531871637
20
-766.76361468680193
30
0
11
-903.15692001006721
21
-766.79527839621892
31
0
0
LINE
5
322
100
AcDbEntity
8
0
100
AcDbLine
10
-904.05010860374784
20
-765.93375349044754
30
0
11
-904.07649506769292
21
-764.4714890625072
31
0
0
ARC
5
323
100
AcDbEntity
8
0
100
AcDbCircle
10
-901.31081212672154
20
-765.98967831376126
30
0
40
0.77931083738803852
210
-0
220
0
230
1
100
AcDbArc
50
-96.734833505780486
51
8.8024050028428675
0
ARC
5
324
100
AcDbEntity
8
0
100
AcDbCircle
10
-903.27617587092686
20
-766.02514317126872
30
0
40
0.77931083738803852
210
-0
220
0
230
1
100
AcDbArc
50
173.2651571595506
51
278.80240249835316
0
LINE
5
325
100
AcDbEntity
8
0
100
AcDbLine
10
-898.74110824877812
20
-768.32460570257513
30
0
11
-903.12789497715562
21
-768.40376497611737
31
0
0
ARC
5
326
100
AcDbEntity
8
0
100
AcDbCircle
10
-903.21928825518125
20
-769.17769658156271
30
0
40
0.77931083738803852
210
-0
220
0
230
1
100
AcDbArc
50
83.265175145646282
51
188.80238952122846
0
LINE
5
327
100
AcDbEntity
8
0
100
AcDbLine
10
-905.72302542032833
20
-770.49842786804834
30
0
11
-905.712470800338
21
-771.08333554626267
31
0
0
LINE
5
328
100
AcDbEntity
8
0
100
AcDbLine
10
-905.71247080033788
20
-771.08333554626256
30
0
11
-900.41666303837576
21
-772.74305791746383
31
0
0
LINE
5
329
100
AcDbEntity
8
0
100
AcDbLine
10
-900.45888134627535
20
-770.40343673979748
30
0
11
-903.94720157502752
21
-771.63657474746458
31
0
0
ENDSEC
0
SECTION
2
OBJECTS
0
DICTIONARY
5
C
100
AcDbDictionary
3
ACAD_GROUP
350
D
3
ACAD_MLINESTYLE
350
17
0
DICTIONARY
5
D
100
AcDbDictionary
0
DICTIONARY
5
1A
330
C
100
AcDbDictionary
0
DICTIONARY
5
17
100
AcDbDictionary
0
ENDSEC
0
EOF
