0
SECTION
2
HEADER
9
$INSUNITS
70
4
9
$ACADVER
1
AC1014
9
$HANDSEED
5
FFFF
0
ENDSEC
0
SECTION
2
TABLES
0
TABLE
2
VPORT
5
8
100
AcDbSymbolTable
0
ENDTAB
0
TABLE
2
LTYPE
5
5
100
AcDbSymbolTable
0
LTYPE
5
14
100
AcDbSymbolTableRecord
100
AcDbLinetypeTableRecord
2
BYBLOCK
70
0
0
LTYPE
5
15
100
AcDbSymbolTableRecord
100
AcDbLinetypeTableRecord
2
BYLAYER
70
0
0
LTYPE
5
16
100
AcDbSymbolTableRecord
100
AcDbLinetypeTableRecord
2
DASHED
70
0
3
Dashed __ __ __ __ __ __ __ __ __ __ __ __ __ _
72
65
73
2
40
0.75
49
0.5
74
0
49
-0.25
74
0
0
ENDTAB
0
TABLE
2
LAYER
5
2
100
AcDbSymbolTable
70
3
0
LAYER
5
50
100
AcDbSymbolTableRecord
100
AcDbLayerTableRecord
2
1
70
0
62
7
6
DASHED
0
LAYER
5
51
100
AcDbSymbolTableRecord
100
AcDbLayerTableRecord
2
0
70
0
62
7
6
CONTINUOUS
0
ENDTAB
0
TABLE
2
STYLE
5
3
100
AcDbSymbolTable
70
1
0
STYLE
5
11
100
AcDbSymbolTableRecord
100
AcDbTextStyleTableRecord
2
STANDARD
70
0
0
ENDTAB
0
TABLE
2
VIEW
5
6
100
AcDbSymbolTable
70
0
0
ENDTAB
0
TABLE
2
UCS
5
7
100
AcDbSymbolTable
70
0
0
ENDTAB
0
TABLE
2
APPID
5
9
100
AcDbSymbolTable
70
2
0
APPID
5
12
100
AcDbSymbolTableRecord
100
AcDbRegAppTableRecord
2
ACAD
70
0
0
ENDTAB
0
TABLE
2
DIMSTYLE
5
A
100
AcDbSymbolTable
70
1
0
ENDTAB
0
TABLE
2
BLOCK_RECORD
5
1
100
AcDbSymbolTable
70
1
0
BLOCK_RECORD
5
1F
100
AcDbSymbolTableRecord
100
AcDbBlockTableRecord
2
*MODEL_SPACE
0
BLOCK_RECORD
5
1B
100
AcDbSymbolTableRecord
100
AcDbBlockTableRecord
2
*PAPER_SPACE
0
ENDTAB
0
ENDSEC
0
SECTION
2
BLOCKS
0
BLOCK
5
20
100
AcDbEntity
100
AcDbBlockBegin
2
*MODEL_SPACE
0
ENDBLK
5
21
100
AcDbEntity
100
AcDbBlockEnd
0
BLOCK
5
1C
100
AcDbEntity
100
AcDbBlockBegin
2
*PAPER_SPACE
0
ENDBLK
5
1D
100
AcDbEntity
100
AcDbBlockEnd
0
ENDSEC
0
SECTION
2
ENTITIES
0
LWPOLYLINE
5
100
100
AcDbEntity
8
0
100
AcDbPolyline
90
23
70
1
43
0.0
10
-951.42834216169433
20
-927.30437285000733
10
-969.20644598469369
20
-912.92529790265303
42
-0.22169466264293416
10
-978.10985120808959
20
-894.6978995949105
10
-981.84604807843652
20
-687.6482626793736
42
-0.41421356237309859
10
-970.06450527161087
20
-675.43371196758153
10
-966.50908408193516
20
-675.3695546296625
10
-967.06873943923256
20
-644.35501162047331
10
-982.62220738821554
20
-644.63567291087566
10
-991.95241049454296
20
-637.08932876328743
10
-1022.0924523994569
20
-674.35408996503156
10
-1018.2378594993219
20
-887.96490548825534
42
0.2216946684815797
10
-1009.3344542662863
20
-906.19230433016241
10
-972.55824568255036
20
-935.93720090461932
42
-0.99999999999999989
10
-976.33141775635579
20
-940.60230245779633
10
-1013.1076263400919
20
-910.85740588333942
42
-0.22169466846252664
10
-1024.2368828813469
20
-888.07315733313419
10
-1027.9624660975201
20
-681.61169960603286
10
-1068.4830286317515
20
-731.71080336183434
10
-1041.2362370422079
20
-753.74822997614638
42
-0.22169466264293464
10
-1032.3328318188114
20
-771.97562828388868
10
-1030.2359062489927
20
-888.18140997490343
42
0.22169466264293569
10
-1016.8807984138971
20
-915.52250743651666
10
-971.55190364933617
20
-952.18488614628325
0
CIRCLE
5
101
100
AcDbEntity
8
0
100
AcDbCircle
10
-1043.6383736617909
20
-738.72169293966158
30
0
40
1.5000000000000044
210
-1.5502645508836641e-32
220
-1.9167272053058939e-32
230
1
0
CIRCLE
5
102
100
AcDbEntity
8
0
100
AcDbCircle
10
-1057.420655692702
20
-727.57447115262016
30
0
40
1.5000000000000044
210
-1.5502645508836641e-32
220
-1.9167272053058939e-32
230
1
0
CIRCLE
5
103
100
AcDbEntity
8
0
100
AcDbCircle
10
-1029.7507271514633
20
-693.36372642932076
30
0
40
0.999999999999997
210
0
220
0
230
1
0
CIRCLE
5
104
100
AcDbEntity
8
0
100
AcDbCircle
10
-987.11364321962776
20
-839.14271259912437
30
0
40
1.5000000000000002
210
0
220
0
230
1
0
CIRCLE
5
105
100
AcDbEntity
8
0
100
AcDbCircle
10
-1017.0974103328621
20
-840.31294599126238
30
0
40
1.5000000000000002
210
0
220
0
230
1
0
CIRCLE
5
106
100
AcDbEntity
8
0
100
AcDbCircle
10
-998.78956093210775
20
-688.01995554677887
30
0
40
1.5000000000000044
210
-1.5502645508836641e-32
220
-1.9167272053058939e-32
230
1
0
CIRCLE
5
107
100
AcDbEntity
8
0
100
AcDbCircle
10
-1019.9673709880256
20
-681.26771036098546
30
0
40
1.5000000000000044
210
-1.5502645508836641e-32
220
-1.9167272053058939e-32
230
1
0
CIRCLE
5
108
100
AcDbEntity
8
0
100
AcDbCircle
10
-993.55516654090309
20
-648.61199943252018
30
0
40
1.5000000000000044
210
-1.5502645508836641e-32
220
-1.9167272053058939e-32
230
1
0
CIRCLE
5
109
100
AcDbEntity
8
0
100
AcDbCircle
10
-1014.0029979827062
20
-897.20111263478213
30
0
40
0.999999999999997
210
0
220
0
230
1
0
CIRCLE
5
110
100
AcDbEntity
8
0
100
AcDbCircle
10
-972.00957677069368
20
-920.94726800822571
30
0
40
1.5000000000000044
210
-1.5502645508836641e-32
220
-1.9167272053058939e-32
230
1
0
CIRCLE
5
111
100
AcDbEntity
8
0
100
AcDbCircle
10
-976.11427812435466
20
-929.20261604192444
30
0
40
1.5000000000000044
210
-1.5502645508836641e-32
220
-1.9167272053058939e-32
230
1
0
CIRCLE
5
112
100
AcDbEntity
8
0
100
AcDbCircle
10
-1019.6967410474218
20
-696.26526881012114
30
0
40
0.999999999999997
210
0
220
0
230
1
0
CIRCLE
5
113
100
AcDbEntity
8
0
100
AcDbCircle
10
-1019.426111106817
20
-711.26282725925716
30
0
40
0.999999999999997
210
0
220
0
230
1
0
LINE
5
114
100
AcDbEntity
8
1
100
AcDbLine
10
-1002.9757964464559
20
-694.09647266639377
30
0
11
-1000.4714757615825
21
-832.87895831067419
31
0
0
LINE
5
115
100
AcDbEntity
8
1
100
AcDbLine
10
-1000.4714757615825
20
-832.87895831067419
30
0
11
-985.23130915150648
21
-832.60395052200874
31
0
0
LINE
5
116
100
AcDbEntity
8
1
100
AcDbLine
10
-985.23130915150648
20
-832.60395052200874
30
0
11
-987.73562983637999
21
-693.82146487772843
31
0
0
LINE
5
117
100
AcDbEntity
8
1
100
AcDbLine
10
-987.73562983637999
20
-693.82146487772843
30
0
11
-1002.9757964464559
21
-694.09647266639377
31
0
0
LINE
5
118
100
AcDbEntity
8
0
100
AcDbLine
10
-993.34662853641146
20
-694.80035793045886
30
0
11
-988.08248505830807
21
-694.70536681296198
31
0
0
LINE
5
119
100
AcDbEntity
8
0
100
AcDbLine
10
-988.08248505830807
20
-694.70536681296176
30
0
11
-988.0560986387228
21
-696.16762878261079
31
0
0
LINE
5
120
100
AcDbEntity
8
0
100
AcDbLine
10
-989.49197456259913
20
-697.65627710407261
30
0
11
-991.83159365444249
21
-697.69849537433356
31
0
0
LINE
5
121
100
AcDbEntity
8
0
100
AcDbLine
10
-993.32024211682619
20
-696.26261990010778
30
0
11
-993.34662853641146
21
-694.80035793045874
31
0
0
ARC
5
122
100
AcDbEntity
8
0
100
AcDbCircle
10
-989.33965228050681
20
-696.36638850896486
30
0
40
1.2988513708114624
210
-0
220
0
230
1
100
AcDbArc
50
-96.734833505775967
51
8.8024050028420344
0
ARC
5
123
100
AcDbEntity
8
0
100
AcDbCircle
10
-992.03035352440702
20
-696.41494203321281
30
0
40
1.2988513708114624
210
-0
220
0
230
1
100
AcDbArc
50
173.26515715955614
51
278.80240249836197
0
LINE
5
124
100
AcDbEntity
8
0
100
AcDbLine
10
-993.26483062803504
20
-699.33337046098461
30
0
11
-993.23844420710554
21
-700.79563250512717
31
0
0
LINE
5
125
100
AcDbEntity
8
0
100
AcDbLine
10
-988.00068714993154
20
-699.23837934348762
30
0
11
-987.96902345126853
21
-700.99309343888922
31
0
0
LINE
5
126
100
AcDbEntity
8
0
100
AcDbLine
10
-990.30864284108679
20
-701.0353117145271
30
0
11
-990.3297519735288
21
-699.86550231759281
31
0
0
ARC
5
127
100
AcDbEntity
8
0
100
AcDbCircle
10
-991.77618216296298
20
-700.76924608419768
30
0
40
1.4625000953674316
210
-0
220
0
230
1
100
AcDbArc
50
-178.96621299922862
51
1.0337888219987927
0
ARC
5
128
100
AcDbEntity
8
0
100
AcDbCircle
10
-989.1388331461776
20
-701.01420257670827
30
0
40
1.1700000613927839
210
-0
220
0
230
1
100
AcDbArc
50
-178.9662129992364
51
1.0337888220054914
0
LINE
5
129
100
AcDbEntity
8
0
100
AcDbLine
10
-993.18039407675906
20
-704.0126092406208
30
0
11
-993.18567136524644
21
-703.72015659341264
31
0
0
LINE
5
130
100
AcDbEntity
8
0
100
AcDbLine
10
-993.18567136524666
20
-703.72015659341264
30
0
11
-992.89321871803838
21
-703.71487930492526
31
0
0
LINE
5
131
100
AcDbEntity
8
0
100
AcDbLine
10
-992.89321871803838
20
-703.71487930492526
30
0
11
-992.88794142955101
21
-704.00733195213343
31
0
0
LINE
5
132
100
AcDbEntity
8
0
100
AcDbLine
10
-992.88794142955089
20
-704.00733195213343
30
0
11
-993.18039407675906
21
-704.0126092406208
31
0
0
LINE
5
133
100
AcDbEntity
8
0
100
AcDbLine
10
-993.18039407675906
20
-704.0126092406208
30
0
11
-994.35811940642463
21
-703.59503940225045
31
0
0
LINE
5
134
100
AcDbEntity
8
0
100
AcDbLine
10
-991.02240438345166
20
-710.11716788535057
30
0
11
-991.04615214938349
21
-708.80113276076145
31
0
0
LINE
5
135
100
AcDbEntity
8
0
100
AcDbLine
10
-993.09331889199348
20
-708.83807374791195
30
0
11
-993.06957112606153
21
-710.15410887250096
31
0
0
LINE
5
136
100
AcDbEntity
8
0
100
AcDbLine
10
-993.06957112606142
20
-710.15410887250096
30
0
11
-990.43749938700967
21
-710.1066133137524
31
0
0
LINE
5
137
100
AcDbEntity
8
0
100
AcDbLine
10
-989.57597388528882
20
-709.21342470931802
30
0
11
-989.59708301773094
21
-708.04361531238374
31
0
0
ARC
5
138
100
AcDbEntity
8
0
100
AcDbCircle
10
-992.06973552068848
20
-708.8196032543367
30
0
40
1.0237500816583633
210
-0
220
0
230
1
100
AcDbArc
50
1.0337888220040812
51
181.03378700077101
0
ARC
5
139
100
AcDbEntity
8
0
100
AcDbCircle
10
-990.34610613049176
20
-709.33268051640835
30
0
40
0.77931083738803864
210
-0
220
0
230
1
100
AcDbArc
50
-96.734833505780486
51
8.8024050028428675
0
LINE
5
140
100
AcDbEntity
8
0
100
AcDbLine
10
-993.03790741664454
20
-711.90882356385202
30
0
11
-989.52847833191743
21
-711.84549615039509
31
0
0
LINE
5
141
100
AcDbEntity
8
0
100
AcDbLine
10
-988.06885492126457
20
-711.67288400181076
30
0
11
-987.77640257203086
21
-711.6676067187002
31
0
0
LINE
5
142
100
AcDbEntity
8
0
100
AcDbLine
10
-987.77640257203086
20
-711.66760671870043
30
0
11
-987.77112528354348
21
-711.96005936590859
31
0
0
LINE
5
143
100
AcDbEntity
8
0
100
AcDbLine
10
-987.77112528354348
20
-711.96005936590859
30
0
11
-988.0635776327772
21
-711.96533664901926
31
0
0
LINE
5
144
100
AcDbEntity
8
0
100
AcDbLine
10
-988.06357763277697
20
-711.96533664901926
30
0
11
-988.06885492126435
21
-711.67288400181087
31
0
0
LINE
5
145
100
AcDbEntity
8
0
100
AcDbLine
10
-993.00624370722755
20
-713.66353825520287
30
0
11
-989.49681462250044
21
-713.60021084174605
31
0
0
LINE
5
146
100
AcDbEntity
8
0
100
AcDbLine
10
-989.49681462250044
20
-713.60021084174605
30
0
11
-989.46515091308345
21
-715.354925533097
31
0
0
LINE
5
147
100
AcDbEntity
8
0
100
AcDbLine
10
-989.46515091308345
20
-715.354925533097
30
0
11
-990.05005590952533
21
-715.36548010469483
31
0
0
LINE
5
148
100
AcDbEntity
8
0
100
AcDbLine
10
-987.68668875377534
20
-716.63929695364595
30
0
11
-992.95083223187874
21
-716.73428807114294
31
0
0
LINE
5
149
100
AcDbEntity
8
0
100
AcDbLine
10
-992.95083223187874
20
-716.73428807114306
30
0
11
-992.92444581094924
21
-718.19655011528562
31
0
0
LINE
5
150
100
AcDbEntity
8
0
100
AcDbLine
10
-992.03125662131913
20
-719.05807501030324
30
0
11
-990.27654222794285
21
-719.02641130626318
31
0
0
LINE
5
151
100
AcDbEntity
8
0
100
AcDbLine
10
-989.41501672622189
20
-718.13322270182869
30
0
11
-989.44140314715139
21
-716.67096065768601
31
0
0
ARC
5
152
100
AcDbEntity
8
0
100
AcDbCircle
10
-992.15051239614797
20
-718.2879445529486
30
0
40
0.77931083738803864
210
-0
220
0
230
1
100
AcDbArc
50
173.2651571595506
51
278.80240249836277
0
ARC
5
153
100
AcDbEntity
8
0
100
AcDbCircle
10
-990.18514894991722
20
-718.25247970081796
30
0
40
0.77931083738803864
210
-0
220
0
230
1
100
AcDbArc
50
-96.734833505781467
51
8.8024050028511382
0
LINE
5
154
100
AcDbEntity
8
0
100
AcDbLine
10
-992.87958889106744
20
-720.68239582870797
30
0
11
-989.37015980634033
21
-720.61906841525115
31
0
0
LINE
5
155
100
AcDbEntity
8
0
100
AcDbLine
10
-989.37015980634033
20
-720.61906841525104
30
0
11
-989.33849607541561
21
-722.37378429850082
31
0
0
LINE
5
156
100
AcDbEntity
8
0
100
AcDbLine
10
-989.33849607541561
20
-722.37378429850082
30
0
11
-989.9234010718576
21
-722.38433887009876
31
0
0
LINE
5
157
100
AcDbEntity
8
0
100
AcDbLine
10
-992.78459774130897
20
-725.94654109465978
30
0
11
-992.81098416223836
21
-724.48427905051722
31
0
0
LINE
5
158
100
AcDbEntity
8
0
100
AcDbLine
10
-991.94945866051751
20
-723.5910904460826
30
0
11
-990.48719661637494
21
-723.56470402515311
31
0
0
LINE
5
159
100
AcDbEntity
8
0
100
AcDbLine
10
-990.44497835149082
20
-725.90432281902179
30
0
11
-991.02988304995802
21
-725.91487738524279
31
0
0
LINE
5
160
100
AcDbEntity
8
0
100
AcDbLine
10
-991.02988304995802
20
-725.91487738524279
30
0
11
-991.07210131484203
21
-723.57525859137411
31
0
0
ARC
5
161
100
AcDbEntity
8
0
100
AcDbCircle
10
-992.04085193854314
20
-724.36502205152783
30
0
40
0.77931083738803864
210
-0
220
0
230
1
100
AcDbArc
50
83.265175145646282
51
188.8023895212132
0
ARC
5
162
100
AcDbEntity
8
0
100
AcDbCircle
10
-990.46608750544067
20
-724.73451223018856
30
0
40
1.1700000613927841
210
-0
220
0
230
1
100
AcDbArc
50
-88.966213682475512
51
91.033791326481321
0
LINE
5
163
100
AcDbEntity
8
0
100
AcDbLine
10
-990.66882631288547
20
-729.71148094552063
30
0
11
-990.69257412183288
21
-728.39544343713385
31
0
0
LINE
5
164
100
AcDbEntity
8
0
100
AcDbLine
10
-992.73974086444264
20
-728.43238442428424
30
0
11
-992.71599305549535
21
-729.74842193267114
31
0
0
LINE
5
165
100
AcDbEntity
8
0
100
AcDbLine
10
-992.71599305549546
20
-729.74842193267114
30
0
11
-990.08392131644371
21
-729.70092637392258
31
0
0
LINE
5
166
100
AcDbEntity
8
0
100
AcDbLine
10
-989.22239585773821
20
-728.80773538569042
30
0
11
-989.24350496867248
21
-727.63792718065486
31
0
0
ARC
5
167
100
AcDbEntity
8
0
100
AcDbCircle
10
-991.71615749313787
20
-728.4139139307091
30
0
40
1.0237500816583633
210
-0
220
0
230
1
100
AcDbArc
50
1.0337888220040812
51
181.03378700076433
0
ARC
5
168
100
AcDbEntity
8
0
100
AcDbCircle
10
-989.99252808143353
20
-728.92699238467958
30
0
40
0.77931083738803864
210
-0
220
0
230
1
100
AcDbArc
50
-96.734833505781467
51
8.8024050028511382
0
LINE
5
169
100
AcDbEntity
8
0
100
AcDbLine
10
-992.68432936758609
20
-731.50313543212314
30
0
11
-987.4201858894827
21
-731.40814431462627
31
0
0
LINE
5
170
100
AcDbEntity
8
0
100
AcDbLine
10
-989.13268201797473
20
-733.77942681253501
30
0
11
-990.92961467623513
21
-731.47147172270638
31
0
0
LINE
5
171
100
AcDbEntity
8
0
100
AcDbLine
10
-992.64211110270207
20
-733.84275422599194
30
0
11
-990.18001315521178
21
-732.48186218152114
31
0
0
LINE
5
172
100
AcDbEntity
8
0
100
AcDbLine
10
-990.48675993534573
20
-739.80109310256114
30
0
11
-990.51050774429314
21
-738.48505559417436
31
0
0
LINE
5
173
100
AcDbEntity
8
0
100
AcDbLine
10
-992.5576744869029
20
-738.52199658132474
30
0
11
-992.53392667795549
21
-739.83803408971153
31
0
0
LINE
5
174
100
AcDbEntity
8
0
100
AcDbLine
10
-992.53392667795549
20
-739.83803408971153
30
0
11
-989.90185493890385
21
-739.79053853096298
31
0
0
LINE
5
175
100
AcDbEntity
8
0
100
AcDbLine
10
-989.04032943718289
20
-738.89734992652859
30
0
11
-989.06143859113274
21
-737.72753933769536
31
0
0
ARC
5
176
100
AcDbEntity
8
0
100
AcDbCircle
10
-991.5340911155979
20
-738.50352608774961
30
0
40
1.0237500816583633
210
-0
220
0
230
1
100
AcDbArc
50
1.0337888220104274
51
181.03378700076433
0
ARC
5
177
100
AcDbEntity
8
0
100
AcDbCircle
10
-989.81046174690914
20
-739.01660215792231
30
0
40
0.77931083738803864
210
-0
220
0
230
1
100
AcDbArc
50
-96.734833505780486
51
8.8024050028428675
0
LINE
5
178
100
AcDbEntity
8
0
100
AcDbLine
10
-991.00833725799453
20
-743.32107466768639
30
0
11
-990.44981893744136
21
-741.84826044112037
31
0
0
ARC
5
179
100
AcDbEntity
8
0
100
AcDbCircle
10
-989.73281406473518
20
-742.07376045231115
30
0
40
0.75162976980209351
210
-0
220
0
230
1
100
AcDbArc
50
-3.0936261915479113
51
162.5413230305272
0
ARC
5
180
100
AcDbEntity
8
0
100
AcDbCircle
10
-991.69699612837348
20
-742.25023245773639
30
0
40
2.7181166410446167
210
-0
220
0
230
1
100
AcDbArc
50
-25.856092204446956
51
2.8660485385616101
0
ARC
5
181
100
AcDbEntity
8
0
100
AcDbCircle
10
-991.72413904383257
20
-743.08893813879638
30
0
40
0.75250290334224701
210
-0
220
0
230
1
100
AcDbArc
50
177.41591775967999
51
342.03179273968169
0
ARC
5
182
100
AcDbEntity
8
0
100
AcDbCircle
10
-989.3842224883756
20
-742.73130213818661
30
0
40
3.1085547804832458
210
-0
220
0
230
1
100
AcDbArc
50
155.48054667413714
51
185.97731399748628
0
LINE
5
183
100
AcDbEntity
8
0
100
AcDbLine
10
-990.93973257218079
20
-747.12295550569763
30
0
11
-990.38121425162774
21
-745.65014127913173
31
0
0
ARC
5
184
100
AcDbEntity
8
0
100
AcDbCircle
10
-989.66420937892156
20
-745.87564129032262
30
0
40
0.75162976980209351
210
-0
220
0
230
1
100
AcDbArc
50
-3.0936261915393111
51
162.54132303052458
0
ARC
5
185
100
AcDbEntity
8
0
100
AcDbCircle
10
-991.62839144255986
20
-746.05211329574786
30
0
40
2.7181166410446167
210
-0
220
0
230
1
100
AcDbArc
50
-25.856092204446956
51
2.8660485385640273
0
ARC
5
186
100
AcDbEntity
8
0
100
AcDbCircle
10
-991.65553435801894
20
-746.89081897680762
30
0
40
0.75250290334224701
210
-0
220
0
230
1
100
AcDbArc
50
177.41591775968874
51
342.03179273967345
0
ARC
5
187
100
AcDbEntity
8
0
100
AcDbCircle
10
-989.31561780256197
20
-746.53318297619785
30
0
40
3.1085547804832458
210
-0
220
0
230
1
100
AcDbArc
50
155.48054667413993
51
185.97731399748815
0
LINE
5
188
100
AcDbEntity
8
0
100
AcDbLine
10
-992.32547396551718
20
-751.38990352329927
30
0
11
-992.35186042946225
21
-749.92763909535893
31
0
0
LINE
5
189
100
AcDbEntity
8
0
100
AcDbLine
10
-991.49033492774129
20
-749.03445049092443
30
0
11
-990.02807288359861
21
-749.00806406999493
31
0
0
LINE
5
190
100
AcDbEntity
8
0
100
AcDbLine
10
-989.98585457569902
20
-751.34768524766127
30
0
11
-990.57075927416622
21
-751.35823981388228
31
0
0
LINE
5
191
100
AcDbEntity
8
0
100
AcDbLine
10
-990.57075927416622
20
-751.35823981388239
30
0
11
-990.61297758206581
21
-749.01861863621605
31
0
0
ARC
5
192
100
AcDbEntity
8
0
100
AcDbCircle
10
-991.58172811973589
20
-749.8083868639651
30
0
40
0.77931083738803864
210
-0
220
0
230
1
100
AcDbArc
50
83.265175145646282
51
188.80238952122147
0
ARC
5
193
100
AcDbEntity
8
0
100
AcDbCircle
10
-990.00696372964876
20
-750.17787465882816
30
0
40
1.1700000613927841
210
-0
220
0
230
1
100
AcDbArc
50
-88.966213682475512
51
91.033791326481321
0
LINE
5
194
100
AcDbEntity
8
0
100
AcDbLine
10
-992.29644893260559
20
-752.99839010319783
30
0
11
-988.78701984787835
21
-752.93506268974102
31
0
0
LINE
5
195
100
AcDbEntity
8
0
100
AcDbLine
10
-988.78701984787835
20
-752.93506268974079
30
0
11
-988.73952431601447
21
-755.56713293891903
31
0
0
LINE
5
196
100
AcDbEntity
8
0
100
AcDbLine
10
-989.60104981773543
20
-756.46032154335353
30
0
11
-992.23312155678718
21
-756.50781710210208
31
0
0
LINE
5
197
100
AcDbEntity
8
0
100
AcDbLine
10
-992.26478524469621
20
-754.75310360264996
30
0
11
-988.7553561599691
21
-754.68977618919314
31
0
0
ARC
5
198
100
AcDbEntity
8
0
100
AcDbCircle
10
-989.50965653970979
20
-755.6863899379083
30
0
40
0.77931083738803864
210
-0
220
0
230
1
100
AcDbArc
50
-96.734833505780486
51
8.8024050028511382
0
LINE
5
199
100
AcDbEntity
8
0
100
AcDbLine
10
-986.93731430474361
20
-758.16754425165277
30
0
11
-992.201457782847
21
-758.26253536914965
31
0
0
LINE
5
200
100
AcDbEntity
8
0
100
AcDbLine
10
-992.201457782847
20
-758.26253536914965
30
0
11
-992.17507131890204
21
-759.72479979708987
31
0
0
LINE
5
201
100
AcDbEntity
8
0
100
AcDbLine
10
-991.28188212927193
20
-760.5863246921075
30
0
11
-989.52716773589577
21
-760.55466098806744
31
0
0
LINE
5
202
100
AcDbEntity
8
0
100
AcDbLine
10
-988.66564223417481
20
-759.66147238363305
30
0
11
-988.69202869811988
21
-758.19920795569271
31
0
0
ARC
5
203
100
AcDbEntity
8
0
100
AcDbCircle
10
-991.4011379901317
20
-759.81618946715741
30
0
40
0.77931083738803864
210
-0
220
0
230
1
100
AcDbArc
50
173.26515715954963
51
278.8024024983614
0
ARC
5
204
100
AcDbEntity
8
0
100
AcDbCircle
10
-989.43577454390106
20
-759.78072461502677
30
0
40
0.77931083738803864
210
-0
220
0
230
1
100
AcDbArc
50
-96.734833505780486
51
8.8024050028428675
0
LINE
5
205
100
AcDbEntity
8
0
100
AcDbLine
10
-986.86607096393232
20
-762.11565200921768
30
0
11
-991.25285709636034
21
-762.19481127200606
31
0
0
ARC
5
206
100
AcDbEntity
8
0
100
AcDbCircle
10
-991.34425037438587
20
-762.9687428774514
30
0
40
0.77931083738803864
210
-0
220
0
230
1
100
AcDbArc
50
83.265175145646282
51
188.80238952122019
0
LINE
5
207
100
AcDbEntity
8
0
100
AcDbLine
10
-993.84798813548241
20
-764.28947417469078
30
0
11
-993.83743351549219
21
-764.87438185290512
31
0
0
LINE
5
208
100
AcDbEntity
8
0
100
AcDbLine
10
-993.83743351549197
20
-764.874381852905
30
0
11
-988.54162605150464
21
-766.53410422948332
31
0
0
LINE
5
209
100
AcDbEntity
8
0
100
AcDbLine
10
-988.58384435940422
20
-764.19448305181686
30
0
11
-992.0721642901816
21
-765.42762105410702
31
0
0
LINE
5
210
100
AcDbEntity
8
0
100
AcDbLine
10
-991.97981179542069
20
-770.54553940050528
30
0
11
-987.59302566299266
21
-770.4663801377169
31
0
0
LINE
5
211
100
AcDbEntity
8
0
100
AcDbLine
10
-986.69983647336255
20
-771.32790503273441
30
0
11
-986.69455916336733
21
-771.62035887184163
31
0
0
LINE
5
212
100
AcDbEntity
8
0
100
AcDbLine
10
-988.48093724465286
20
-769.89730907642934
30
0
11
-988.44927355674372
21
-771.65202257588146
31
0
0
ARC
5
213
100
AcDbEntity
8
0
100
AcDbCircle
10
-987.47376988816382
20
-771.23651059507154
30
0
40
0.77931083738803864
210
-0
220
0
230
1
100
AcDbArc
50
-6.7348273588307555
51
98.802407507324332
0
LINE
5
214
100
AcDbEntity
8
0
100
AcDbLine
10
-991.93759357355202
20
-772.88515581057618
30
0
11
-988.4281644888249
21
-772.82182839711936
31
0
0
LINE
5
215
100
AcDbEntity
8
0
100
AcDbLine
10
-988.42816448882468
20
-772.82182839711925
30
0
11
-988.39650080091565
21
-774.57654189657137
31
0
0
LINE
5
216
100
AcDbEntity
8
0
100
AcDbLine
10
-988.39650080091565
20
-774.57654189657137
30
0
11
-988.98140579735752
21
-774.58709646816931
31
0
0
LINE
5
217
100
AcDbEntity
8
0
100
AcDbLine
10
-990.71501112281499
20
-775.78856599344715
30
0
11
-989.54520142790579
21
-775.76745685562832
31
0
0
LINE
5
218
100
AcDbEntity
8
0
100
AcDbLine
10
-989.50298312000632
20
-778.10707803329467
30
0
11
-990.6727928149154
21
-778.1281871711135
31
0
0
ARC
5
219
100
AcDbEntity
8
0
100
AcDbCircle
10
-989.52409218792513
20
-776.93727221205677
30
0
40
1.1700000613927841
210
-0
220
0
230
1
100
AcDbArc
50
-88.966213682475512
51
91.03379132647575
0
ARC
5
220
100
AcDbEntity
8
0
100
AcDbCircle
10
-990.69390188283421
20
-776.95838134987582
30
0
40
1.1700000613927841
210
-0
220
0
230
1
100
AcDbArc
50
91.033791326481321
51
271.03378631752457
0
LINE
5
221
100
AcDbEntity
8
0
100
AcDbLine
10
-991.81357739088185
20
-779.75778765642644
30
0
11
-988.30414830615473
21
-779.69446024296963
31
0
0
LINE
5
222
100
AcDbEntity
8
0
100
AcDbLine
10
-988.30414830615473
20
-779.69446024296963
30
0
11
-988.27776192824058
21
-781.15671990331452
31
0
0
LINE
5
223
100
AcDbEntity
8
0
100
AcDbLine
10
-989.13928751599246
20
-782.04990374015347
30
0
11
-991.77135925504422
21
-782.09739929890202
31
0
0
ARC
5
224
100
AcDbEntity
8
0
100
AcDbCircle
10
-989.04789415193591
20
-781.27597690230368
30
0
40
0.77931083738803864
210
-0
220
0
230
1
100
AcDbArc
50
-96.734833505772201
51
8.8024050028428675
0
LINE
5
225
100
AcDbEntity
8
0
100
AcDbLine
10
-988.23818236136958
20
-783.35010939383199
30
0
11
-988.20651867346044
21
-785.10482289328411
31
0
0
LINE
5
226
100
AcDbEntity
8
0
100
AcDbLine
10
-986.47291334800298
20
-783.90335336800626
30
0
11
-990.859699480431
21
-783.98251263079476
31
0
0
LINE
5
227
100
AcDbEntity
8
0
100
AcDbLine
10
-991.72122489612093
20
-784.8757060028247
30
0
11
-991.71594775818767
21
-785.16815030674093
31
0
0
ARC
5
228
100
AcDbEntity
8
0
100
AcDbCircle
10
-990.9510926724256
20
-784.75644900383543
30
0
40
0.77931083738803864
210
-0
220
0
230
1
100
AcDbArc
50
83.265175145646282
51
188.80238952122019
0
LINE
5
229
100
AcDbEntity
8
0
100
AcDbLine
10
-990.48017194643148
20
-788.80269985497523
30
0
11
-989.31036225152241
21
-788.78159071715629
31
0
0
LINE
5
230
100
AcDbEntity
8
0
100
AcDbLine
10
-989.26814394362293
20
-791.12121189482264
30
0
11
-990.43795363853201
21
-791.14232103264158
31
0
0
ARC
5
231
100
AcDbEntity
8
0
100
AcDbCircle
10
-989.28925301154186
20
-789.95140607358496
30
0
40
1.1700000613927841
210
-0
220
0
230
1
100
AcDbArc
50
-88.966213682475413
51
91.03379132647575
0
ARC
5
232
100
AcDbEntity
8
0
100
AcDbCircle
10
-990.45906270645082
20
-789.97251521140379
30
0
40
1.1700000613927841
210
-0
220
0
230
1
100
AcDbArc
50
91.033791326475836
51
271.03378631752446
0
LINE
5
233
100
AcDbEntity
8
0
100
AcDbLine
10
-988.06930912977123
20
-792.70859410449759
30
0
11
-990.70138086882298
21
-792.75608966324614
31
0
0
LINE
5
234
100
AcDbEntity
8
0
100
AcDbLine
10
-991.56290645657475
20
-793.6492735000852
30
0
11
-991.53652007866071
21
-795.1115331604301
31
0
0
LINE
5
235
100
AcDbEntity
8
0
100
AcDbLine
10
-991.53652007866083
20
-795.11153316043021
30
0
11
-988.02709099393371
21
-795.04820574697328
31
0
0
ARC
5
236
100
AcDbEntity
8
0
100
AcDbCircle
10
-990.79277423287954
20
-793.53001650109604
30
0
40
0.77931083738803864
210
-0
220
0
230
1
100
AcDbArc
50
83.265175145637997
51
188.80238952122147
0
LINE
5
237
100
AcDbEntity
8
0
100
AcDbLine
10
-988.00334318498631
20
-796.36424325535995
30
0
11
-987.97167949707716
21
-798.11895675481207
31
0
0
LINE
5
238
100
AcDbEntity
8
0
100
AcDbLine
10
-986.23807417161959
20
-796.91748722953434
30
0
11
-990.62486030404762
21
-796.99664649232272
31
0
0
LINE
5
239
100
AcDbEntity
8
0
100
AcDbLine
10
-991.48638571973743
20
-797.88983986435278
30
0
11
-991.48110858180416
21
-798.18228416826912
31
0
0
ARC
5
240
100
AcDbEntity
8
0
100
AcDbCircle
10
-990.71625349604221
20
-797.77058286536362
30
0
40
0.77931083738803864
210
-0
220
0
230
1
100
AcDbArc
50
83.265175145646282
51
188.80238952122147
0
LINE
5
241
100
AcDbEntity
8
0
100
AcDbLine
10
-989.96079629977646
20
-801.37288044232741
30
0
11
-989.40227815128526
21
-799.90005668057063
31
0
0
ARC
5
242
100
AcDbEntity
8
0
100
AcDbCircle
10
-988.68527310651712
20
-800.1255662269524
30
0
40
0.75162976980209351
210
-0
220
0
230
1
100
AcDbArc
50
-3.0936261915479113
51
162.54132303053544
0
ARC
5
243
100
AcDbEntity
8
0
100
AcDbCircle
10
-990.64945525618646
20
-800.3020334647822
30
0
40
2.7181166410446167
210
-0
220
0
230
1
100
AcDbArc
50
-25.856092204446956
51
2.8660485385640273
0
ARC
5
244
100
AcDbEntity
8
0
100
AcDbCircle
10
-990.67659817164554
20
-801.14073914584208
30
0
40
0.75250290334224701
210
-0
220
0
230
1
100
AcDbArc
50
177.41591775968874
51
342.03179273967345
0
ARC
5
245
100
AcDbEntity
8
0
100
AcDbCircle
10
-988.33668161618846
20
-800.78310314523242
30
0
40
3.1085547804832458
210
-0
220
0
230
1
100
AcDbArc
50
155.48054667413612
51
185.97731399748628
0
LINE
5
246
100
AcDbEntity
8
0
100
AcDbLine
10
-991.38611734601466
20
-803.44643420181626
30
0
11
-987.87668826128754
21
-803.38310678835933
31
0
0
LINE
5
247
100
AcDbEntity
8
0
100
AcDbLine
10
-986.41706495817334
20
-803.21048868028083
30
0
11
-986.12461260893963
21
-803.20521139717027
31
0
0
LINE
5
248
100
AcDbEntity
8
0
100
AcDbLine
10
-986.12461260893974
20
-803.20521139717027
30
0
11
-986.11933529894463
21
-803.4976652362775
31
0
0
LINE
5
249
100
AcDbEntity
8
0
100
AcDbLine
10
-986.11933529894463
20
-803.4976652362775
30
0
11
-986.41178764817823
21
-803.50294251938806
31
0
0
LINE
5
250
100
AcDbEntity
8
0
100
AcDbLine
10
-986.41178764817823
20
-803.50294251938806
30
0
11
-986.41706495817346
21
-803.21048868028083
31
0
0
LINE
5
251
100
AcDbEntity
8
0
100
AcDbLine
10
-986.05073061313101
20
-807.29954607428886
30
0
11
-991.31487409123451
21
-807.39453719178573
31
0
0
LINE
5
252
100
AcDbEntity
8
0
100
AcDbLine
10
-991.31487409123451
20
-807.39453719178584
30
0
11
-991.34126046914855
21
-805.93227753144095
31
0
0
LINE
5
253
100
AcDbEntity
8
0
100
AcDbLine
10
-990.47973505345851
20
-805.03908415941078
30
0
11
-988.72502066008224
21
-805.00742045537083
31
0
0
LINE
5
254
100
AcDbEntity
8
0
100
AcDbLine
10
-987.83183138442132
20
-805.8689501179839
30
0
11
-987.80544500650717
21
-807.3312097783288
31
0
0
ARC
5
255
100
AcDbEntity
8
0
100
AcDbCircle
10
-990.57112824545334
20
-805.81302053245167
30
0
40
0.77931083738803864
210
-0
220
0
230
1
100
AcDbArc
50
83.265175145637997
51
188.80238952122147
0
ARC
5
256
100
AcDbEntity
8
0
100
AcDbCircle
10
-988.60576479922258
20
-805.77755568032103
30
0
40
0.77931083738803864
210
-0
220
0
230
1
100
AcDbArc
50
-6.7348273588307555
51
98.802407507323053
0
LINE
5
257
100
AcDbEntity
8
0
100
AcDbLine
10
-991.24363083645426
20
-811.34264018175531
30
0
11
-991.27001721436829
21
-809.88038052141042
31
0
0
LINE
5
258
100
AcDbEntity
8
0
100
AcDbLine
10
-990.40849179867837
20
-808.98718714938036
30
0
11
-988.94622975453569
21
-808.96080072845098
31
0
0
LINE
5
259
100
AcDbEntity
8
0
100
AcDbLine
10
-988.9040114466361
20
-811.30042190611732
30
0
11
-989.4889161451033
21
-811.31097647233833
31
0
0
LINE
5
260
100
AcDbEntity
8
0
100
AcDbLine
10
-989.4889161451033
20
-811.31097647233844
30
0
11
-989.53113445300289
21
-808.97135529467209
31
0
0
ARC
5
261
100
AcDbEntity
8
0
100
AcDbCircle
10
-990.49988499067297
20
-809.76112352242114
30
0
40
0.77931083738803864
210
-0
220
0
230
1
100
AcDbArc
50
83.265175145646282
51
188.80238952122147
0
ARC
5
262
100
AcDbEntity
8
0
100
AcDbCircle
10
-988.92512051455492
20
-810.13061608487965
30
0
40
1.1700000613927841
210
-0
220
0
230
1
100
AcDbArc
50
-88.966213682475413
51
91.033791326481222
0
LINE
5
263
100
AcDbEntity
8
0
100
AcDbLine
10
-995.88121635770199
20
-694.84609439842177
30
0
11
-1001.1453598358054
21
-694.94108551591864
31
0
0
LINE
5
264
100
AcDbEntity
8
0
100
AcDbLine
10
-1001.1453598358054
20
-694.94108551591864
30
0
11
-1001.1189734162201
21
-696.40334748556768
31
0
0
LINE
5
265
100
AcDbEntity
8
0
100
AcDbLine
10
-1000.225784814474
20
-697.26487283830113
30
0
11
-998.47107012312313
21
-697.23320912888414
31
0
0
LINE
5
266
100
AcDbEntity
8
0
100
AcDbLine
10
-997.6095440335182
20
-696.34002006673381
30
0
11
-997.63593045310347
21
-694.87775809708478
31
0
0
ARC
5
267
100
AcDbEntity
8
0
100
AcDbCircle
10
-1000.3450406161875
20
-696.49474089107287
30
0
40
0.77931083738803864
210
-0
220
0
230
1
100
AcDbArc
50
173.2651571595506
51
278.8024024983614
0
ARC
5
268
100
AcDbEntity
8
0
100
AcDbCircle
10
-998.37967687198216
20
-696.4592760335654
30
0
40
0.77931083738803864
210
-0
220
0
230
1
100
AcDbArc
50
-96.734833505772201
51
8.8024050028511382
0
LINE
5
269
100
AcDbEntity
8
0
100
AcDbLine
10
-1001.0741164990269
20
-698.88919305000263
30
0
11
-997.56468711632488
21
-698.82586563116877
31
0
0
LINE
5
270
100
AcDbEntity
8
0
100
AcDbLine
10
-997.56468711632488
20
-698.82586563116877
30
0
11
-997.53302341228493
21
-700.58058002454504
31
0
0
LINE
5
271
100
AcDbEntity
8
0
100
AcDbLine
10
-997.53302341228493
20
-700.58058002454504
30
0
11
-998.11792870670149
21
-700.59113460151991
31
0
0
LINE
5
272
100
AcDbEntity
8
0
100
AcDbLine
10
-998.93195805910136
20
-704.11639463627751
30
0
11
-998.95570582503319
21
-702.80035951168838
31
0
0
LINE
5
273
100
AcDbEntity
8
0
100
AcDbLine
10
-1001.0028731635925
20
-702.83730050959275
30
0
11
-1000.9791253976607
21
-704.15333563418187
31
0
0
LINE
5
274
100
AcDbEntity
8
0
100
AcDbLine
10
-1000.9791253976607
20
-704.15333563418187
30
0
11
-998.34705395658375
21
-704.10584008081037
31
0
0
LINE
5
275
100
AcDbEntity
8
0
100
AcDbLine
10
-997.48552785891331
20
-703.212651465622
30
0
11
-997.50663699135544
21
-702.04284206868761
31
0
0
ARC
5
276
100
AcDbEntity
8
0
100
AcDbCircle
10
-999.97928949431298
20
-702.81883001064057
30
0
40
1.0237500816583633
210
-0
220
0
230
1
100
AcDbArc
50
1.0337888220040812
51
181.03378700077067
0
ARC
5
277
100
AcDbEntity
8
0
100
AcDbCircle
10
-998.25566070006585
20
-703.33190728346619
30
0
40
0.77931083738803864
210
-0
220
0
230
1
100
AcDbArc
50
-96.734833505780486
51
8.8024050028428675
0
LINE
5
278
100
AcDbEntity
8
0
100
AcDbLine
10
-1000.9131593238293
20
-707.80899193643745
30
0
11
-1000.934268477779
21
-706.63918134760422
31
0
0
LINE
5
279
100
AcDbEntity
8
0
100
AcDbLine
10
-1000.0727435720075
20
-705.74599275392359
30
0
11
-998.3180288806567
21
-705.7143290445066
31
0
0
LINE
5
280
100
AcDbEntity
8
0
100
AcDbLine
10
-997.42483909507712
20
-706.57585392877036
30
0
11
-997.40372994112727
21
-707.7456645176037
31
0
0
ARC
5
281
100
AcDbEntity
8
0
100
AcDbCircle
10
-1000.1641368285254
20
-706.51992555126765
30
0
40
0.77931083738803864
210
-0
220
0
230
1
100
AcDbArc
50
83.265175145645301
51
188.80238952122147
0
ARC
5
282
100
AcDbEntity
8
0
100
AcDbCircle
10
-998.19877308432012
20
-706.48446069376018
30
0
40
0.77931083738803864
210
-0
220
0
230
1
100
AcDbArc
50
-6.7348273588307555
51
98.802407507324332
0
LINE
5
283
100
AcDbEntity
8
0
100
AcDbLine
10
-1000.8867729244075
20
-709.27125278868118
30
0
11
-995.62262944630402
21
-709.17626167118431
31
0
0
LINE
5
284
100
AcDbEntity
8
0
100
AcDbLine
10
-997.33512525531364
20
-711.54754535561494
30
0
11
-999.13205823305645
21
-709.23958907926431
31
0
0
LINE
5
285
100
AcDbEntity
8
0
100
AcDbLine
10
-1000.8445546380156
20
-711.61087277444881
30
0
11
-998.38245671203299
21
-710.24997953807906
31
0
0
LINE
5
286
100
AcDbEntity
8
0
100
AcDbLine
10
-1000.7785886071996
20
-715.26652669290661
30
0
11
-1000.8049750281291
21
-713.80426464876393
31
0
0
LINE
5
287
100
AcDbEntity
8
0
100
AcDbLine
10
-999.94345012235772
20
-712.9110760550833
30
0
11
-998.48118807821504
21
-712.8846896341538
31
0
0
LINE
5
288
100
AcDbEntity
8
0
100
AcDbLine
10
-998.43896981333091
20
-715.22430842802248
30
0
11
-999.02387391584864
21
-715.23486298348973
31
0
0
LINE
5
289
100
AcDbEntity
8
0
100
AcDbLine
10
-999.02387391584864
20
-715.23486298348973
30
0
11
-999.06609218073277
21
-712.89524418962105
31
0
0
ARC
5
290
100
AcDbEntity
8
0
100
AcDbCircle
10
-1000.0348433788756
20
-713.68500885242736
30
0
40
0.77931083738803864
210
-0
220
0
230
1
100
AcDbArc
50
83.265175145637016
51
188.80238952122147
0
ARC
5
291
100
AcDbEntity
8
0
100
AcDbCircle
10
-998.4600789242653
20
-714.05450022298714
30
0
40
1.1700000613927841
210
-0
220
0
230
1
100
AcDbArc
50
-88.966213682475413
51
91.033791326481222
0
LINE
5
292
100
AcDbEntity
8
0
100
AcDbLine
10
-997.24805007054783
20
-716.37300986290597
30
0
11
-997.21638638263869
21
-718.1277233623581
31
0
0
LINE
5
293
100
AcDbEntity
8
0
100
AcDbLine
10
-995.48278139817148
20
-716.92625145865941
30
0
11
-999.86956812654876
21
-717.00541073220177
31
0
0
LINE
5
294
100
AcDbEntity
8
0
100
AcDbLine
10
-1000.7310930323204
20
-717.8985993258824
30
0
11
-1000.7258157653406
21
-718.19105078119196
31
0
0
ARC
5
295
100
AcDbEntity
8
0
100
AcDbCircle
10
-999.96096136155893
20
-717.77934472144477
30
0
40
0.77931083738803864
210
-0
220
0
230
1
100
AcDbArc
50
83.265175145653615
51
188.80238952122019
0
LINE
5
296
100
AcDbEntity
8
0
100
AcDbLine
10
-1000.6967906894135
20
-719.79953974488819
30
0
11
-1000.7020679563932
21
-719.50708828957875
31
0
0
LINE
5
297
100
AcDbEntity
8
0
100
AcDbLine
10
-1000.7020679563932
20
-719.50708828957875
30
0
11
-1000.4096153091849
21
-719.50181100109137
31
0
0
LINE
5
298
100
AcDbEntity
8
0
100
AcDbLine
10
-1000.4096153091849
20
-719.50181100109137
30
0
11
-1000.4043380422053
21
-719.79426245640082
31
0
0
LINE
5
299
100
AcDbEntity
8
0
100
AcDbLine
10
-1000.4043380422053
20
-719.7942624564007
30
0
11
-1000.6967906894135
21
-719.79953974488808
31
0
0
LINE
5
300
100
AcDbEntity
8
0
100
AcDbLine
10
-1000.6967906894135
20
-719.79953974488819
30
0
11
-1001.8745160083251
21
-719.38197050246731
31
0
0
LINE
5
301
100
AcDbEntity
8
0
100
AcDbLine
10
-996.53385256139575
20
-723.52753622480077
30
0
11
-995.33765610456703
21
-724.96869150954524
31
0
0
LINE
5
302
100
AcDbEntity
8
0
100
AcDbLine
10
-995.33765610456703
20
-724.96869150954524
30
0
11
-1000.6017995826704
21
-725.06368262704211
31
0
0
LINE
5
303
100
AcDbEntity
8
0
100
AcDbLine
10
-1000.6281860466154
20
-723.60141819910177
30
0
11
-1000.5754132047565
21
-726.52594228738724
31
0
0
LINE
5
304
100
AcDbEntity
8
0
100
AcDbLine
10
-1000.5094471309249
20
-730.1815985896427
30
0
11
-996.95779948333893
21
-732.45788996467752
31
0
0
LINE
5
305
100
AcDbEntity
8
0
100
AcDbLine
10
-997.00001774822294
20
-730.11827117080884
30
0
11
-1000.4672288660408
21
-732.52121738351138
31
0
0
LINE
5
306
100
AcDbEntity
8
0
100
AcDbLine
10
-997.47673874693965
20
-736.12409846011019
30
0
11
-997.44507505903039
21
-737.87881195956231
31
0
0
LINE
5
307
100
AcDbEntity
8
0
100
AcDbLine
10
-998.59377530201482
20
-739.06973168083755
30
0
11
-998.8862279492231
21
-739.07500896932493
31
0
0
LINE
5
308
100
AcDbEntity
8
0
100
AcDbLine
10
-998.93900079108221
20
-736.15048488103969
30
0
11
-997.47673874693965
21
-736.12409846011019
31
0
0
ARC
5
309
100
AcDbEntity
8
0
100
AcDbCircle
10
-998.47191722935816
20
-738.03782127720956
30
0
40
1.0390811413526535
210
-0
220
0
230
1
100
AcDbArc
50
-96.734833505768833
51
8.8024050028491025
0
ARC
5
310
100
AcDbEntity
8
0
100
AcDbCircle
10
-998.91261432713713
20
-737.61274930898014
30
0
40
1.4625000953674316
210
-0
220
0
230
1
100
AcDbArc
50
91.033791326484504
51
271.03378631752236
0
ARC
5
311
100
AcDbEntity
8
0
100
AcDbCircle
10
-997.15872368734176
20
-738.17778286528903
30
0
40
2.078162282705307
210
-0
220
0
230
1
100
AcDbArc
50
-6.7348273588346741
51
98.802407507325142
0
LINE
5
312
100
AcDbEntity
8
0
100
AcDbLine
10
-1000.2772465665237
20
-743.04950791541489
30
0
11
-996.76781718382176
21
-742.98618049658103
31
0
0
LINE
5
313
100
AcDbEntity
8
0
100
AcDbLine
10
-996.76781718382176
20
-742.98618049658103
30
0
11
-996.72032165195787
21
-745.61825074575927
31
0
0
LINE
5
314
100
AcDbEntity
8
0
100
AcDbLine
10
-997.58184766359727
20
-746.51144412854308
30
0
11
-1000.2139191046742
21
-746.55893968191458
31
0
0
LINE
5
315
100
AcDbEntity
8
0
100
AcDbLine
10
-1000.2455828786145
20
-744.80422141486702
30
0
11
-996.73615349591262
21
-744.74089399603315
31
0
0
ARC
5
316
100
AcDbEntity
8
0
100
AcDbCircle
10
-997.49045447160267
20
-745.73750775550229
30
0
40
0.77931083738803864
210
-0
220
0
230
1
100
AcDbArc
50
-96.734833505781467
51
8.8024050028511382
0
LINE
5
317
100
AcDbEntity
8
0
100
AcDbLine
10
-1000.1822554167652
20
-748.31365318136659
30
0
11
-996.67282603406318
21
-748.25032576253284
31
0
0
LINE
5
318
100
AcDbEntity
8
0
100
AcDbLine
10
-996.67282603406318
20
-748.25032576253284
30
0
11
-996.6253305021994
21
-750.88239601171097
31
0
0
LINE
5
319
100
AcDbEntity
8
0
100
AcDbLine
10
-997.48685659986972
20
-751.77558462689933
30
0
11
-1000.1189280409467
21
-751.82308018027084
31
0
0
LINE
5
320
100
AcDbEntity
8
0
100
AcDbLine
10
-1000.1505917288559
20
-750.06836668081871
30
0
11
-996.64116234615403
21
-750.00503926198485
31
0
0
ARC
5
321
100
AcDbEntity
8
0
100
AcDbCircle
10
-997.3954633218442
20
-751.00165302145399
30
0
40
0.77931083738803864
210
-0
220
0
230
1
100
AcDbArc
50
-96.734833505772201
51
8.8024050028428675
0
LINE
5
322
100
AcDbEntity
8
0
100
AcDbLine
10
-1001.799760650458
20
-755.94908333440173
30
0
11
-996.53561657640512
21
-755.85409220615088
31
0
0
LINE
5
323
100
AcDbEntity
8
0
100
AcDbLine
10
-996.53561657640512
20
-755.85409220615111
30
0
11
-996.50923011246005
21
-757.31635663409133
31
0
0
LINE
5
324
100
AcDbEntity
8
0
100
AcDbLine
10
-997.37075621013048
20
-758.2095452492797
30
0
11
-999.12547090148132
21
-758.24120895869669
31
0
0
LINE
5
325
100
AcDbEntity
8
0
100
AcDbLine
10
-1000.018659495162
20
-757.3796840529252
30
0
11
-1000.045045959107
21
-755.91741962498486
31
0
0
ARC
5
326
100
AcDbEntity
8
0
100
AcDbCircle
10
-997.27936301813565
20
-757.43560887623903
30
0
40
0.77931083738803864
210
-0
220
0
230
1
100
AcDbArc
50
-96.734833505781467
51
8.8024050028511382
0
ARC
5
327
100
AcDbEntity
8
0
100
AcDbCircle
10
-999.24472676234109
20
-757.47107373374649
30
0
40
0.77931083738803864
210
-0
220
0
230
1
100
AcDbArc
50
173.26515715954963
51
278.80240249836277
0
LINE
5
328
100
AcDbEntity
8
0
100
AcDbLine
10
-994.70965914019234
20
-759.7705362650529
30
0
11
-999.09644586856973
21
-759.84969553859526
31
0
0
ARC
5
329
100
AcDbEntity
8
0
100
AcDbCircle
10
-999.18783914659548
20
-760.6236271440406
30
0
40
0.77931083738803864
210
-0
220
0
230
1
100
AcDbArc
50
83.265175145637997
51
188.80238952122147
0
LINE
5
330
100
AcDbEntity
8
0
100
AcDbLine
10
-1001.6915763117424
20
-761.94435843052599
30
0
11
-1001.6810216917521
21
-762.52926610874044
31
0
0
LINE
5
331
100
AcDbEntity
8
0
100
AcDbLine
10
-1001.681021691752
20
-762.52926610874044
30
0
11
-996.38521392978987
21
-764.18898847994171
31
0
0
LINE
5
332
100
AcDbEntity
8
0
100
AcDbLine
10
-996.42743223768946
20
-761.84936730227514
30
0
11
-999.91575246644163
21
-763.08250530994223
31
0
0
ENDSEC
0
SECTION
2
OBJECTS
0
DICTIONARY
5
C
100
AcDbDictionary
3
ACAD_GROUP
350
D
3
ACAD_MLINESTYLE
350
17
0
DICTIONARY
5
D
100
AcDbDictionary
0
DICTIONARY
5
1A
330
C
100
AcDbDictionary
0
DICTIONARY
5
17
100
AcDbDictionary
0
ENDSEC
0
EOF
