0
SECTION
2
HEADER
9
$INSUNITS
70
4
9
$ACADVER
1
AC1014
9
$HANDSEED
5
FFFF
0
ENDSEC
0
SECTION
2
TABLES
0
TABLE
2
VPORT
5
8
100
AcDbSymbolTable
0
ENDTAB
0
TABLE
2
LTYPE
5
5
100
AcDbSymbolTable
0
LTYPE
5
14
100
AcDbSymbolTableRecord
100
AcDbLinetypeTableRecord
2
BYBLOCK
70
0
0
LTYPE
5
15
100
AcDbSymbolTableRecord
100
AcDbLinetypeTableRecord
2
BYLAYER
70
0
0
LTYPE
5
16
100
AcDbSymbolTableRecord
100
AcDbLinetypeTableRecord
2
DASHED
70
0
3
Dashed __ __ __ __ __ __ __ __ __ __ __ __ __ _
72
65
73
2
40
0.75
49
0.5
74
0
49
-0.25
74
0
0
ENDTAB
0
TABLE
2
LAYER
5
2
100
AcDbSymbolTable
70
3
0
LAYER
5
50
100
AcDbSymbolTableRecord
100
AcDbLayerTableRecord
2
1
70
0
62
7
6
DASHED
0
LAYER
5
51
100
AcDbSymbolTableRecord
100
AcDbLayerTableRecord
2
0
70
0
62
7
6
CONTINUOUS
0
ENDTAB
0
TABLE
2
STYLE
5
3
100
AcDbSymbolTable
70
1
0
STYLE
5
11
100
AcDbSymbolTableRecord
100
AcDbTextStyleTableRecord
2
STANDARD
70
0
0
ENDTAB
0
TABLE
2
VIEW
5
6
100
AcDbSymbolTable
70
0
0
ENDTAB
0
TABLE
2
UCS
5
7
100
AcDbSymbolTable
70
0
0
ENDTAB
0
TABLE
2
APPID
5
9
100
AcDbSymbolTable
70
2
0
APPID
5
12
100
AcDbSymbolTableRecord
100
AcDbRegAppTableRecord
2
ACAD
70
0
0
ENDTAB
0
TABLE
2
DIMSTYLE
5
A
100
AcDbSymbolTable
70
1
0
ENDTAB
0
TABLE
2
BLOCK_RECORD
5
1
100
AcDbSymbolTable
70
1
0
BLOCK_RECORD
5
1F
100
AcDbSymbolTableRecord
100
AcDbBlockTableRecord
2
*MODEL_SPACE
0
BLOCK_RECORD
5
1B
100
AcDbSymbolTableRecord
100
AcDbBlockTableRecord
2
*PAPER_SPACE
0
ENDTAB
0
ENDSEC
0
SECTION
2
BLOCKS
0
BLOCK
5
20
100
AcDbEntity
100
AcDbBlockBegin
2
*MODEL_SPACE
0
ENDBLK
5
21
100
AcDbEntity
100
AcDbBlockEnd
0
BLOCK
5
1C
100
AcDbEntity
100
AcDbBlockBegin
2
*PAPER_SPACE
0
ENDBLK
5
1D
100
AcDbEntity
100
AcDbBlockEnd
0
ENDSEC
0
SECTION
2
ENTITIES
0
CIRCLE
5
100
100
AcDbEntity
8
0
100
AcDbCircle
10
-345.88919044066984
20
-282.00072763445144
30
0
40
1.499999999999986
210
2.1895288505075267e-47
220
-8.6736173798840374e-19
230
1
0
CIRCLE
5
101
100
AcDbEntity
8
0
100
AcDbCircle
10
-383.68919044066968
20
-282.00072763445138
30
0
40
1.499999999999986
210
2.1895288505075267e-47
220
-8.6736173798840374e-19
230
1
0
CIRCLE
5
102
100
AcDbEntity
8
0
100
AcDbCircle
10
-358.68919044066968
20
-501.79654112895923
30
0
40
1.5000000000000571
210
-9.6296497219361793e-35
220
1.1792919708879349e-50
230
1
0
LWPOLYLINE
5
103
100
AcDbEntity
8
0
100
AcDbPolyline
90
10
70
1
43
0.0
10
-346.68919044066979
20
-471.69772417777943
10
-333.88919044066984
20
-471.69772417777938
10
-333.88919044066984
20
-270.00072763445144
10
-395.68919044066973
20
-270.00072763445138
10
-395.68919044066973
20
-391.69772417777938
10
-383.68919044066968
20
-391.69772417777921
10
-383.68919044066968
20
-471.69772417777938
10
-370.68919044066973
20
-471.69772417777943
10
-370.68919044066973
20
-501.79654112895918
42
0.99999999999999989
10
-346.68919044066968
20
-501.79654112895918
0
LINE
5
104
100
AcDbEntity
8
1
100
AcDbLine
10
-336.88919044066978
20
-288.00072763445144
30
0
11
-392.59743886708759
21
-288.00072763445144
31
0
0
LINE
5
105
100
AcDbEntity
8
1
100
AcDbLine
10
-392.59743886708759
20
-288.00072763445144
30
0
11
-392.59743886708759
21
-326.92357493785465
31
0
0
LINE
5
106
100
AcDbEntity
8
1
100
AcDbLine
10
-392.59743886708759
20
-326.92357493785465
30
0
11
-336.88919044066978
21
-326.92357493785465
31
0
0
LINE
5
107
100
AcDbEntity
8
1
100
AcDbLine
10
-336.88919044066978
20
-326.92357493785465
30
0
11
-336.88919044066978
21
-288.00072763445144
31
0
0
LINE
5
108
100
AcDbEntity
8
0
100
AcDbLine
10
-337.76669054259372
20
-303.60073162463749
30
0
11
-337.76669054259372
21
-308.86573149112309
31
0
0
LINE
5
109
100
AcDbEntity
8
0
100
AcDbLine
10
-337.76669054259372
20
-308.86573149112309
30
0
11
-339.22919056345535
21
-308.86573149112309
31
0
0
LINE
5
110
100
AcDbEntity
8
0
100
AcDbLine
10
-340.69169050981117
20
-307.40323139575565
30
0
11
-340.69169050981117
21
-305.06323172000492
31
0
0
LINE
5
111
100
AcDbEntity
8
0
100
AcDbLine
10
-339.22919056345535
20
-303.60073162463749
30
0
11
-337.76669054259372
21
-303.60073162463749
31
0
0
ARC
5
112
100
AcDbEntity
8
0
100
AcDbCircle
10
-339.40476006795478
20
-307.57880164531315
30
0
40
1.2988513708114624
210
0
220
0
230
1
100
AcDbArc
50
172.23138017669609
51
277.76861868531563
0
ARC
5
113
100
AcDbEntity
8
0
100
AcDbCircle
10
-339.40476006795478
20
-304.88766266254032
30
0
40
1.2988513708114624
210
0
220
0
230
1
100
AcDbArc
50
82.231370842029818
51
187.76861618083606
0
LINE
5
114
100
AcDbEntity
8
0
100
AcDbLine
10
-343.47044086982322
20
-308.86573149112309
30
0
11
-342.30044103194786
21
-304.77073265460575
31
0
0
LINE
5
115
100
AcDbEntity
8
0
100
AcDbLine
10
-342.30044103194786
20
-304.77073265460575
30
0
11
-345.22544122268272
21
-304.77073265460575
31
0
0
LINE
5
116
100
AcDbEntity
8
0
100
AcDbLine
10
-344.34794045020652
20
-305.94073130038822
30
0
11
-344.34794045020652
21
-303.60073162463749
31
0
0
LINE
5
117
100
AcDbEntity
8
0
100
AcDbLine
10
-346.98044157554222
20
-303.60073162463749
30
0
11
-346.68794131805015
21
-303.60073162463749
31
0
0
LINE
5
118
100
AcDbEntity
8
0
100
AcDbLine
10
-346.68794131805015
20
-303.60073162463749
30
0
11
-346.68794131805015
21
-303.89323069003666
31
0
0
LINE
5
119
100
AcDbEntity
8
0
100
AcDbLine
10
-346.68794131805015
20
-303.89323069003666
30
0
11
-346.98044157554222
21
-303.89323069003666
31
0
0
LINE
5
120
100
AcDbEntity
8
0
100
AcDbLine
10
-346.98044157554222
20
-303.89323069003666
30
0
11
-346.98044157554222
21
-303.60073162463749
31
0
0
LINE
5
121
100
AcDbEntity
8
0
100
AcDbLine
10
-346.98044157554222
20
-303.60073162463749
30
0
11
-346.54169118930412
21
-302.43073059466923
31
0
0
LINE
5
122
100
AcDbEntity
8
0
100
AcDbLine
10
-350.49044108916831
20
-307.11073233035648
30
0
11
-352.24544144202781
21
-307.11073233035648
31
0
0
LINE
5
123
100
AcDbEntity
8
0
100
AcDbLine
10
-351.07544160415245
20
-308.86573149112309
30
0
11
-351.07544160415245
21
-304.47823120502079
31
0
0
LINE
5
124
100
AcDbEntity
8
0
100
AcDbLine
10
-351.95294118453575
20
-303.60073162463749
30
0
11
-352.24544144202781
21
-303.60073162463749
31
0
0
ARC
5
125
100
AcDbEntity
8
0
100
AcDbCircle
10
-351.84759951163841
20
-304.37289072421635
30
0
40
0.77931083738803864
210
0
220
0
230
1
100
AcDbArc
50
-7.7686111718802326
51
97.768603203702909
0
LINE
5
126
100
AcDbEntity
8
0
100
AcDbLine
10
-353.56169081260276
20
-304.77073265460575
30
0
11
-353.56169081260276
21
-305.94073130038822
31
0
0
LINE
5
127
100
AcDbEntity
8
0
100
AcDbLine
10
-355.90169048835349
20
-305.94073130038822
30
0
11
-355.90169048835349
21
-304.77073265460575
31
0
0
ARC
5
128
100
AcDbEntity
8
0
100
AcDbCircle
10
-354.73169065047813
20
-305.94073130038822
30
0
40
1.1700000613927839
210
0
220
0
230
1
100
AcDbArc
50
-180
51
4.9783130603797136e-06
0
ARC
5
129
100
AcDbEntity
8
0
100
AcDbCircle
10
-354.73169065047813
20
-304.77073265460575
30
0
40
1.1700000613927839
210
0
220
0
230
1
100
AcDbArc
50
4.9783130603797136e-06
51
180
0
LINE
5
130
100
AcDbEntity
8
0
100
AcDbLine
10
-357.21794105102134
20
-307.11073233035648
30
0
11
-358.09544063140464
21
-303.60073162463749
31
0
0
LINE
5
131
100
AcDbEntity
8
0
100
AcDbLine
10
-358.09544063140464
20
-303.60073162463749
30
0
11
-358.97294021178794
21
-305.94073130038822
31
0
0
LINE
5
132
100
AcDbEntity
8
0
100
AcDbLine
10
-358.97294021178794
20
-305.94073130038822
30
0
11
-359.85043979217124
21
-303.60073162463749
31
0
0
LINE
5
133
100
AcDbEntity
8
0
100
AcDbLine
10
-359.85043979217124
20
-303.60073162463749
30
0
11
-360.72794175674034
21
-307.11073233035648
31
0
0
LINE
5
134
100
AcDbEntity
8
0
100
AcDbLine
10
-366.43168902923179
20
-303.60073162463749
30
0
11
-365.26169038344932
21
-303.60073162463749
31
0
0
LINE
5
135
100
AcDbEntity
8
0
100
AcDbLine
10
-364.38418841888023
20
-304.47823120502079
30
0
11
-364.38418841888023
21
-306.23323274997318
31
0
0
LINE
5
136
100
AcDbEntity
8
0
100
AcDbLine
10
-365.26169038344932
20
-307.11073233035648
30
0
11
-366.43168902923179
21
-307.11073233035648
31
0
0
ARC
5
137
100
AcDbEntity
8
0
100
AcDbCircle
10
-365.15634751845909
20
-304.37289072421635
30
0
40
0.77931083738803864
210
0
220
0
230
1
100
AcDbArc
50
-7.7686111718802326
51
97.768603203702909
0
ARC
5
138
100
AcDbEntity
8
0
100
AcDbCircle
10
-365.15634751845909
20
-306.33857323077763
30
0
40
0.77931083738803864
210
0
220
0
230
1
100
AcDbArc
50
-97.768613676356111
51
7.7686211897926087
0
LINE
5
139
100
AcDbEntity
8
0
100
AcDbLine
10
-370.08794045974327
20
-305.64823223498905
30
0
11
-368.77168870498252
21
-305.64823223498905
31
0
0
LINE
5
140
100
AcDbEntity
8
0
100
AcDbLine
10
-368.77168870498252
20
-303.60073162463749
30
0
11
-370.08794045974327
21
-303.60073162463749
31
0
0
LINE
5
141
100
AcDbEntity
8
0
100
AcDbLine
10
-370.08794045974327
20
-303.60073162463749
30
0
11
-370.08794045974327
21
-306.23323274997318
31
0
0
LINE
5
142
100
AcDbEntity
8
0
100
AcDbLine
10
-369.21043849517417
20
-307.11073233035648
30
0
11
-368.0404398493917
21
-307.11073233035648
31
0
0
ARC
5
143
100
AcDbEntity
8
0
100
AcDbCircle
10
-368.77168870498252
20
-304.62448192981327
30
0
40
1.0237500816583633
210
0
220
0
230
1
100
AcDbArc
50
-89.999997495519338
51
90.000000683244949
0
ARC
5
144
100
AcDbEntity
8
0
100
AcDbCircle
10
-369.31578136016441
20
-306.33857323077763
30
0
40
0.77931083738803864
210
0
220
0
230
1
100
AcDbArc
50
172.23138017669783
51
277.76861868531671
0
LINE
5
145
100
AcDbEntity
8
0
100
AcDbLine
10
-371.84293962050987
20
-308.86573149112309
30
0
11
-371.84293962050987
21
-303.60073162463749
31
0
0
LINE
5
146
100
AcDbEntity
8
0
100
AcDbLine
10
-371.84293962050987
20
-303.60073162463749
30
0
11
-373.3054397158773
21
-303.60073162463749
31
0
0
LINE
5
147
100
AcDbEntity
8
0
100
AcDbLine
10
-374.1829392962606
20
-304.47823120502079
30
0
11
-374.1829392962606
21
-306.23323274997318
31
0
0
LINE
5
148
100
AcDbEntity
8
0
100
AcDbLine
10
-373.3054397158773
20
-307.11073233035648
30
0
11
-371.84293962050987
21
-307.11073233035648
31
0
0
ARC
5
149
100
AcDbEntity
8
0
100
AcDbCircle
10
-373.41078258086753
20
-304.37289072421635
30
0
40
0.77931083738803864
210
0
220
0
230
1
100
AcDbArc
50
82.231370842029506
51
187.76861618083615
0
ARC
5
150
100
AcDbEntity
8
0
100
AcDbCircle
10
-373.41078258086753
20
-306.33857323077763
30
0
40
0.77931083738803864
210
0
220
0
230
1
100
AcDbArc
50
172.23138017669783
51
277.76861868531671
0
LINE
5
151
100
AcDbEntity
8
0
100
AcDbLine
10
-375.79169011642051
20
-308.86573149112309
30
0
11
-375.79169011642051
21
-304.47823120502079
31
0
0
ARC
5
152
100
AcDbEntity
8
0
100
AcDbCircle
10
-376.56384921599937
20
-304.37289072421635
30
0
40
0.77931083738803864
210
0
220
0
230
1
100
AcDbArc
50
-7.7686111718802326
51
97.768603203702909
0
LINE
5
153
100
AcDbEntity
8
0
100
AcDbLine
10
-380.32544112731529
20
-303.60073162463749
30
0
11
-378.86293864776206
21
-303.60073162463749
31
0
0
LINE
5
154
100
AcDbEntity
8
0
100
AcDbLine
10
-377.98543906737876
20
-304.47823120502079
30
0
11
-377.98543906737876
21
-305.94073130038822
31
0
0
LINE
5
155
100
AcDbEntity
8
0
100
AcDbLine
10
-380.32544112731529
20
-305.94073130038822
30
0
11
-380.32544112731529
21
-305.35573078540409
31
0
0
LINE
5
156
100
AcDbEntity
8
0
100
AcDbLine
10
-380.32544112731529
20
-305.35573078540409
30
0
11
-377.98543906737876
21
-305.35573078540409
31
0
0
ARC
5
157
100
AcDbEntity
8
0
100
AcDbCircle
10
-378.75760055114341
20
-304.37289072421635
30
0
40
0.77931083738803864
210
0
220
0
230
1
100
AcDbArc
50
-7.7686111718802326
51
97.768603203702909
0
ARC
5
158
100
AcDbEntity
8
0
100
AcDbCircle
10
-379.15544009734703
20
-305.94073130038822
30
0
40
1.1700000613927841
210
0
220
0
230
1
100
AcDbArc
50
-180
51
4.9783130603797136e-06
0
LINE
5
159
100
AcDbEntity
8
0
100
AcDbLine
10
-337.76669054259372
20
-295.80072952655399
30
0
11
-337.76669054259372
21
-299.31073023227299
31
0
0
LINE
5
160
100
AcDbEntity
8
0
100
AcDbLine
10
-337.76669054259372
20
-299.31073023227299
30
0
11
-339.5216906719358
21
-299.31073023227299
31
0
0
LINE
5
161
100
AcDbEntity
8
0
100
AcDbLine
10
-339.5216906719358
20
-299.31073023227299
30
0
11
-339.5216906719358
21
-298.72572971728886
31
0
0
LINE
5
162
100
AcDbEntity
8
0
100
AcDbLine
10
-343.03169048358512
20
-295.80072952655399
30
0
11
-341.56919038821769
21
-295.80072952655399
31
0
0
LINE
5
163
100
AcDbEntity
8
0
100
AcDbLine
10
-340.69169050981117
20
-296.67822910693729
30
0
11
-340.69169050981117
21
-298.14072920230473
31
0
0
LINE
5
164
100
AcDbEntity
8
0
100
AcDbLine
10
-343.03169048358512
20
-298.14072920230473
30
0
11
-343.03169048358512
21
-297.5557286873206
31
0
0
LINE
5
165
100
AcDbEntity
8
0
100
AcDbLine
10
-343.03169048358512
20
-297.5557286873206
30
0
11
-340.69169050981117
21
-297.5557286873206
31
0
0
ARC
5
166
100
AcDbEntity
8
0
100
AcDbCircle
10
-341.46384871532035
20
-296.57288862613285
30
0
40
0.77931083738803864
210
0
220
0
230
1
100
AcDbArc
50
-7.7686111718802326
51
97.768603203702909
0
ARC
5
167
100
AcDbEntity
8
0
100
AcDbCircle
10
-341.86169064570976
20
-298.14072920230473
30
0
40
1.1700000613927839
210
0
220
0
230
1
100
AcDbArc
50
-180
51
4.9783130603797136e-06
0
LINE
5
168
100
AcDbEntity
8
0
100
AcDbLine
10
-344.64044070769859
20
-301.06572939303959
30
0
11
-344.64044070769859
21
-296.67822910693729
31
0
0
ARC
5
169
100
AcDbEntity
8
0
100
AcDbCircle
10
-345.412599211231
20
-296.57288862613285
30
0
40
0.77931083738803864
210
0
220
0
230
1
100
AcDbArc
50
-7.7686111718802326
51
97.768603203702909
0
LINE
5
170
100
AcDbEntity
8
0
100
AcDbLine
10
-349.17419052650047
20
-295.80072952655399
30
0
11
-347.71169043113304
21
-295.80072952655399
31
0
0
LINE
5
171
100
AcDbEntity
8
0
100
AcDbLine
10
-346.83419085074974
20
-296.67822910693729
30
0
11
-346.83419085074974
21
-298.14072920230473
31
0
0
LINE
5
172
100
AcDbEntity
8
0
100
AcDbLine
10
-349.17419052650047
20
-298.14072920230473
30
0
11
-349.17419052650047
21
-297.5557286873206
31
0
0
LINE
5
173
100
AcDbEntity
8
0
100
AcDbLine
10
-349.17419052650047
20
-297.5557286873206
30
0
11
-346.83419085074974
21
-297.5557286873206
31
0
0
ARC
5
174
100
AcDbEntity
8
0
100
AcDbCircle
10
-347.6063487582357
20
-296.57288862613285
30
0
40
0.77931083738803864
210
0
220
0
230
1
100
AcDbArc
50
-7.7686111718802326
51
97.768603203702909
0
ARC
5
175
100
AcDbEntity
8
0
100
AcDbCircle
10
-348.0041906886251
20
-298.14072920230473
30
0
40
1.1700000613927839
210
0
220
0
230
1
100
AcDbArc
50
-180
51
4.9783130603797136e-06
0
LINE
5
176
100
AcDbEntity
8
0
100
AcDbLine
10
-352.97669029761863
20
-297.84823013690556
30
0
11
-351.66044092704368
21
-297.84823013690556
31
0
0
LINE
5
177
100
AcDbEntity
8
0
100
AcDbLine
10
-351.66044092704368
20
-295.80072952655399
30
0
11
-352.97669029761863
21
-295.80072952655399
31
0
0
LINE
5
178
100
AcDbEntity
8
0
100
AcDbLine
10
-352.97669029761863
20
-295.80072952655399
30
0
11
-352.97669029761863
21
-298.43323065188969
31
0
0
LINE
5
179
100
AcDbEntity
8
0
100
AcDbLine
10
-352.09919071723533
20
-299.31073023227299
30
0
11
-350.92919087935996
21
-299.31073023227299
31
0
0
ARC
5
180
100
AcDbEntity
8
0
100
AcDbCircle
10
-351.66044092704368
20
-296.82447983172978
30
0
40
1.0237500816583633
210
0
220
0
230
1
100
AcDbArc
50
-89.999997495519338
51
90.000000683244949
0
ARC
5
181
100
AcDbEntity
8
0
100
AcDbCircle
10
-352.20453239013267
20
-298.53857113269413
30
0
40
0.77931083738803864
210
0
220
0
230
1
100
AcDbArc
50
172.23138017669783
51
277.76861868531671
0
LINE
5
182
100
AcDbEntity
8
0
100
AcDbLine
10
-356.48669100333763
20
-297.26322962192143
30
0
11
-355.02419090797019
21
-297.84823013690556
31
0
0
ARC
5
183
100
AcDbEntity
8
0
100
AcDbCircle
10
-355.26259279777122
20
-298.56104923633183
30
0
40
0.75162976980209339
210
0
220
0
230
1
100
AcDbArc
50
-94.127412509070922
51
71.507536713003006
0
ARC
5
184
100
AcDbEntity
8
0
100
AcDbCircle
10
-355.40359950591636
20
-296.59400297549809
30
0
40
2.7181166410446163
210
0
220
0
230
1
100
AcDbArc
50
243.11012147802899
51
271.83226222103735
0
ARC
5
185
100
AcDbEntity
8
0
100
AcDbCircle
10
-356.24167538215232
20
-296.55173374560917
30
0
40
0.75250290334224701
210
0
220
0
230
1
100
AcDbArc
50
86.382131442162688
51
250.99800642215112
0
ARC
5
186
100
AcDbEntity
8
0
100
AcDbCircle
10
-355.9263143592031
20
-298.89772011188114
30
0
40
3.1085547804832454
210
0
220
0
230
1
100
AcDbArc
50
64.446760356610227
51
94.943527679961178
0
LINE
5
187
100
AcDbEntity
8
0
100
AcDbLine
10
-360.72794175674034
20
-295.80072952655399
30
0
11
-359.2654416613729
21
-295.80072952655399
31
0
0
LINE
5
188
100
AcDbEntity
8
0
100
AcDbLine
10
-358.3879420809896
20
-296.67822910693729
30
0
11
-358.3879420809896
21
-298.14072920230473
31
0
0
LINE
5
189
100
AcDbEntity
8
0
100
AcDbLine
10
-360.72794175674034
20
-298.14072920230473
30
0
11
-360.72794175674034
21
-297.5557286873206
31
0
0
LINE
5
190
100
AcDbEntity
8
0
100
AcDbLine
10
-360.72794175674034
20
-297.5557286873206
30
0
11
-358.3879420809896
21
-297.5557286873206
31
0
0
ARC
5
191
100
AcDbEntity
8
0
100
AcDbCircle
10
-359.16009879638267
20
-296.57288862613285
30
0
40
0.77931083738803864
210
0
220
0
230
1
100
AcDbArc
50
-7.7686111718802326
51
97.768603203702909
0
ARC
5
192
100
AcDbEntity
8
0
100
AcDbCircle
10
-359.55794072677207
20
-298.14072920230473
30
0
40
1.1700000613927841
210
0
220
0
230
1
100
AcDbArc
50
-180
51
4.9783130603797136e-06
0
LINE
5
193
100
AcDbEntity
8
0
100
AcDbLine
10
-364.67668986846519
20
-301.06572939303959
30
0
11
-364.67668986846519
21
-295.80072952655399
31
0
0
LINE
5
194
100
AcDbEntity
8
0
100
AcDbLine
10
-364.67668986846519
20
-295.80072952655399
30
0
11
-366.13918996383262
21
-295.80072952655399
31
0
0
LINE
5
195
100
AcDbEntity
8
0
100
AcDbLine
10
-367.01668954421592
20
-296.67822910693729
30
0
11
-367.01668954421592
21
-298.43323065188969
31
0
0
LINE
5
196
100
AcDbEntity
8
0
100
AcDbLine
10
-366.13918996383262
20
-299.31073023227299
30
0
11
-364.67668986846519
21
-299.31073023227299
31
0
0
ARC
5
197
100
AcDbEntity
8
0
100
AcDbCircle
10
-366.24453282882286
20
-296.57288862613285
30
0
40
0.77931083738803864
210
0
220
0
230
1
100
AcDbArc
50
82.231370842029506
51
187.76861618083615
0
ARC
5
198
100
AcDbEntity
8
0
100
AcDbCircle
10
-366.24453282882286
20
-298.53857113269413
30
0
40
0.77931083738803864
210
0
220
0
230
1
100
AcDbArc
50
172.23138017669783
51
277.76861868531671
0
LINE
5
199
100
AcDbEntity
8
0
100
AcDbLine
10
-368.62544036437583
20
-295.80072952655399
30
0
11
-368.62544036437583
21
-299.31073023227299
31
0
0
LINE
5
200
100
AcDbEntity
8
0
100
AcDbLine
10
-368.62544036437583
20
-299.31073023227299
30
0
11
-370.38044190932823
21
-299.31073023227299
31
0
0
LINE
5
201
100
AcDbEntity
8
0
100
AcDbLine
10
-370.38044190932823
20
-299.31073023227299
30
0
11
-370.38044190932823
21
-298.72572971728886
31
0
0
LINE
5
202
100
AcDbEntity
8
0
100
AcDbLine
10
-373.89044261504722
20
-297.84823013690556
30
0
11
-372.57419086028648
21
-297.84823013690556
31
0
0
LINE
5
203
100
AcDbEntity
8
0
100
AcDbLine
10
-372.57419086028648
20
-295.80072952655399
30
0
11
-373.89044261504722
21
-295.80072952655399
31
0
0
LINE
5
204
100
AcDbEntity
8
0
100
AcDbLine
10
-373.89044261504722
20
-295.80072952655399
30
0
11
-373.89044261504722
21
-298.43323065188969
31
0
0
LINE
5
205
100
AcDbEntity
8
0
100
AcDbLine
10
-373.01294303466392
20
-299.31073023227299
30
0
11
-371.84294200469566
21
-299.31073023227299
31
0
0
ARC
5
206
100
AcDbEntity
8
0
100
AcDbCircle
10
-372.57419086028648
20
-296.82447983172978
30
0
40
1.0237500816583633
210
0
220
0
230
1
100
AcDbArc
50
-89.999997495519338
51
90.000000683244949
0
ARC
5
207
100
AcDbEntity
8
0
100
AcDbCircle
10
-373.11828351546836
20
-298.53857113269413
30
0
40
0.77931083738803864
210
0
220
0
230
1
100
AcDbArc
50
172.23138017669783
51
277.76861868531671
0
LINE
5
208
100
AcDbEntity
8
0
100
AcDbLine
10
-377.5466916613729
20
-295.80072952655399
30
0
11
-376.37669301559043
21
-295.80072952655399
31
0
0
LINE
5
209
100
AcDbEntity
8
0
100
AcDbLine
10
-375.49919105102134
20
-296.67822910693729
30
0
11
-375.49919105102134
21
-298.43323065188969
31
0
0
LINE
5
210
100
AcDbEntity
8
0
100
AcDbLine
10
-376.37669301559043
20
-299.31073023227299
30
0
11
-377.5466916613729
21
-299.31073023227299
31
0
0
ARC
5
211
100
AcDbEntity
8
0
100
AcDbCircle
10
-376.2713501506002
20
-296.57288862613285
30
0
40
0.77931083738803864
210
0
220
0
230
1
100
AcDbArc
50
-7.7686111718802326
51
97.768603203702909
0
ARC
5
212
100
AcDbEntity
8
0
100
AcDbCircle
10
-376.2713501506002
20
-298.53857113269413
30
0
40
0.77931083738803864
210
0
220
0
230
1
100
AcDbArc
50
-97.768613676356111
51
7.7686211897926087
0
LINE
5
213
100
AcDbEntity
8
0
100
AcDbLine
10
-379.00919414092613
20
-295.80072952655399
30
0
11
-379.00919414092613
21
-301.06572939303959
31
0
0
LINE
5
214
100
AcDbEntity
8
0
100
AcDbLine
10
-381.34919620086265
20
-299.31073023227299
30
0
11
-379.00919414092613
21
-297.5557286873206
31
0
0
LINE
5
215
100
AcDbEntity
8
0
100
AcDbLine
10
-381.34919620086265
20
-295.80072952655399
30
0
11
-380.03294444610191
21
-298.28697992709721
31
0
0
LINE
5
216
100
AcDbEntity
8
0
100
AcDbLine
10
-385.00544524718833
20
-295.80072952655399
30
0
11
-383.54294276763511
21
-295.80072952655399
31
0
0
LINE
5
217
100
AcDbEntity
8
0
100
AcDbLine
10
-382.66544318725181
20
-296.67822910693729
30
0
11
-382.66544318725181
21
-298.14072920230473
31
0
0
LINE
5
218
100
AcDbEntity
8
0
100
AcDbLine
10
-385.00544524718833
20
-298.14072920230473
30
0
11
-385.00544524718833
21
-297.5557286873206
31
0
0
LINE
5
219
100
AcDbEntity
8
0
100
AcDbLine
10
-385.00544524718833
20
-297.5557286873206
30
0
11
-382.66544318725181
21
-297.5557286873206
31
0
0
ARC
5
220
100
AcDbEntity
8
0
100
AcDbCircle
10
-383.43760467101646
20
-296.57288862613285
30
0
40
0.77931083738803864
210
0
220
0
230
1
100
AcDbArc
50
-7.7686111718802326
51
97.768603203702909
0
ARC
5
221
100
AcDbEntity
8
0
100
AcDbCircle
10
-383.83544421722007
20
-298.14072920230473
30
0
40
1.1700000613927841
210
0
220
0
230
1
100
AcDbArc
50
-180
51
4.9783130603797136e-06
0
LINE
5
222
100
AcDbEntity
8
0
100
AcDbLine
10
-386.1754462771566
20
-299.31073023227299
30
0
11
-387.9304454379232
21
-299.31073023227299
31
0
0
LINE
5
223
100
AcDbEntity
8
0
100
AcDbLine
10
-386.76044440795494
20
-301.06572939303959
30
0
11
-386.76044440795494
21
-296.67822910693729
31
0
0
LINE
5
224
100
AcDbEntity
8
0
100
AcDbLine
10
-387.63794398833824
20
-295.80072952655399
30
0
11
-387.9304454379232
21
-295.80072952655399
31
0
0
ARC
5
225
100
AcDbEntity
8
0
100
AcDbCircle
10
-387.532601123348
20
-296.57288862613285
30
0
40
0.77931083738803864
210
0
220
0
230
1
100
AcDbArc
50
-7.7686111718802326
51
97.768603203702909
0
LINE
5
226
100
AcDbEntity
8
0
100
AcDbLine
10
-389.53919387389732
20
-295.80072952655399
30
0
11
-389.24669242431236
21
-295.80072952655399
31
0
0
LINE
5
227
100
AcDbEntity
8
0
100
AcDbLine
10
-389.24669242431236
20
-295.80072952655399
30
0
11
-389.24669242431236
21
-296.09322859195316
31
0
0
LINE
5
228
100
AcDbEntity
8
0
100
AcDbLine
10
-389.24669242431236
20
-296.09322859195316
30
0
11
-389.53919387389732
21
-296.09322859195316
31
0
0
LINE
5
229
100
AcDbEntity
8
0
100
AcDbLine
10
-389.53919387389732
20
-296.09322859195316
30
0
11
-389.53919387389732
21
-295.80072952655399
31
0
0
LINE
5
230
100
AcDbEntity
8
0
100
AcDbLine
10
-389.53919387389732
20
-295.80072952655399
30
0
11
-389.10044169951988
21
-294.63072849658573
31
0
0
LINE
5
231
100
AcDbEntity
8
0
100
AcDbLine
10
-337.62044048835349
20
-292.0957334175452
30
0
11
-339.08294058372093
21
-293.26573206332768
31
0
0
LINE
5
232
100
AcDbEntity
8
0
100
AcDbLine
10
-339.08294058372093
20
-293.26573206332768
30
0
11
-339.08294058372093
21
-288.00073219684208
31
0
0
LINE
5
233
100
AcDbEntity
8
0
100
AcDbLine
10
-337.62044048835349
20
-288.00073219684208
30
0
11
-340.54544067908836
21
-288.00073219684208
31
0
0
LINE
5
234
100
AcDbEntity
8
0
100
AcDbLine
10
-344.20169091750694
20
-288.00073219684208
30
0
11
-346.54169118930412
21
-291.51073290256107
31
0
0
LINE
5
235
100
AcDbEntity
8
0
100
AcDbLine
10
-344.20169091750694
20
-291.51073290256107
30
0
11
-346.54169118930412
21
-288.00073219684208
31
0
0
LINE
5
236
100
AcDbEntity
8
0
100
AcDbLine
10
-350.19794083167625
20
-292.0957334175452
30
0
11
-351.66044092704368
21
-293.26573206332768
31
0
0
LINE
5
237
100
AcDbEntity
8
0
100
AcDbLine
10
-351.66044092704368
20
-293.26573206332768
30
0
11
-351.66044092704368
21
-288.00073219684208
31
0
0
LINE
5
238
100
AcDbEntity
8
0
100
AcDbLine
10
-350.19794083167625
20
-288.00073219684208
30
0
11
-353.12294102241111
21
-288.00073219684208
31
0
0
LINE
5
239
100
AcDbEntity
8
0
100
AcDbLine
10
-357.07169032622886
20
-290.92573238757694
30
0
11
-354.58544111777854
21
-288.00073219684208
31
0
0
LINE
5
240
100
AcDbEntity
8
0
100
AcDbLine
10
-354.58544111777854
20
-288.00073219684208
30
0
11
-357.5104425006063
21
-288.00073219684208
31
0
0
ARC
5
241
100
AcDbEntity
8
0
100
AcDbCircle
10
-356.35220385123802
20
-292.10749460605228
30
0
40
1.1689662933349609
210
0
220
0
230
1
100
AcDbArc
50
172.23138017669743
51
277.76861868531523
0
ARC
5
242
100
AcDbEntity
8
0
100
AcDbCircle
10
-356.01760840941978
20
-291.81751800922001
30
0
40
1.4589405059814451
210
0
220
0
230
1
100
AcDbArc
50
263.04817449553803
51
349.00656965301079
0
ARC
5
243
100
AcDbEntity
8
0
100
AcDbCircle
10
-356.33980250884605
20
-291.84529138949955
30
0
40
1.1752662807703018
210
0
220
0
230
1
100
AcDbArc
50
128.5167214885123
51
185.08610292677096
0
LINE
5
244
100
AcDbEntity
8
0
100
AcDbLine
10
-361.45919061233116
20
-288.00073219684208
30
0
11
-361.45919061233116
21
-291.51073290256107
31
0
0
LINE
5
245
100
AcDbEntity
8
0
100
AcDbLine
10
-361.45919061233116
20
-291.51073290256107
30
0
11
-364.09169173766685
21
-291.51073290256107
31
0
0
LINE
5
246
100
AcDbEntity
8
0
100
AcDbLine
10
-364.96919131805015
20
-290.63323332217777
30
0
11
-364.96919131805015
21
-288.00073219684208
31
0
0
LINE
5
247
100
AcDbEntity
8
0
100
AcDbLine
10
-363.21419215728355
20
-288.00073219684208
30
0
11
-363.21419215728355
21
-291.51073290256107
31
0
0
ARC
5
248
100
AcDbEntity
8
0
100
AcDbCircle
10
-364.19703221847129
20
-290.73857380298222
30
0
40
0.77931083738803864
210
0
220
0
230
1
100
AcDbArc
50
172.23138017669783
51
277.76861868531671
0
LINE
5
249
100
AcDbEntity
8
0
100
AcDbLine
10
-366.72419047881675
20
-288.00073219684208
30
0
11
-366.72419047881675
21
-291.51073290256107
31
0
0
LINE
5
250
100
AcDbEntity
8
0
100
AcDbLine
10
-366.72419047881675
20
-291.51073290256107
30
0
11
-369.35669160415245
21
-291.51073290256107
31
0
0
LINE
5
251
100
AcDbEntity
8
0
100
AcDbLine
10
-370.23419118453575
20
-290.63323332217777
30
0
11
-370.23419118453575
21
-288.00073219684208
31
0
0
LINE
5
252
100
AcDbEntity
8
0
100
AcDbLine
10
-368.47919202376914
20
-288.00073219684208
30
0
11
-368.47919202376914
21
-291.51073290256107
31
0
0
ARC
5
253
100
AcDbEntity
8
0
100
AcDbCircle
10
-369.46203208495689
20
-290.73857380298222
30
0
40
0.77931083738803864
210
0
220
0
230
1
100
AcDbArc
50
172.23138017669783
51
277.76861868531671
0
LINE
5
254
100
AcDbEntity
8
0
100
AcDbLine
10
-374.32919002105308
20
-286.24573303607548
30
0
11
-374.32919002105308
21
-291.51073290256107
31
0
0
LINE
5
255
100
AcDbEntity
8
0
100
AcDbLine
10
-374.32919002105308
20
-291.51073290256107
30
0
11
-375.79169011642051
21
-291.51073290256107
31
0
0
LINE
5
256
100
AcDbEntity
8
0
100
AcDbLine
10
-376.66918969680381
20
-290.63323332217777
30
0
11
-376.66918969680381
21
-288.87823177722538
31
0
0
LINE
5
257
100
AcDbEntity
8
0
100
AcDbLine
10
-375.79169011642051
20
-288.00073219684208
30
0
11
-374.32919002105308
21
-288.00073219684208
31
0
0
ARC
5
258
100
AcDbEntity
8
0
100
AcDbCircle
10
-375.89703298141075
20
-290.73857380298222
30
0
40
0.77931083738803864
210
0
220
0
230
1
100
AcDbArc
50
172.23138017669783
51
277.76861868531671
0
ARC
5
259
100
AcDbEntity
8
0
100
AcDbCircle
10
-375.89703298141075
20
-288.77289129642094
30
0
40
0.77931083738803864
210
0
220
0
230
1
100
AcDbArc
50
82.231370842029506
51
187.76861618083615
0
LINE
5
260
100
AcDbEntity
8
0
100
AcDbLine
10
-378.27794051696372
20
-293.26573206332768
30
0
11
-378.27794051696372
21
-288.87823177722538
31
0
0
ARC
5
261
100
AcDbEntity
8
0
100
AcDbCircle
10
-379.05009723235679
20
-288.77289129642094
30
0
40
0.77931083738803864
210
0
220
0
230
1
100
AcDbArc
50
-7.7686111718802326
51
97.768603203702909
0
LINE
5
262
100
AcDbEntity
8
0
100
AcDbLine
10
-380.32544112731529
20
-286.24573303607548
30
0
11
-380.91044402648521
21
-286.24573303607548
31
0
0
LINE
5
263
100
AcDbEntity
8
0
100
AcDbLine
10
-380.91044402648521
20
-286.24573303607548
30
0
11
-382.66544318725181
21
-291.51073290256107
31
0
0
LINE
5
264
100
AcDbEntity
8
0
100
AcDbLine
10
-380.32544112731529
20
-291.51073290256107
30
0
11
-381.49544215728355
21
-288.00073219684208
31
0
0
ENDSEC
0
SECTION
2
OBJECTS
0
DICTIONARY
5
C
100
AcDbDictionary
3
ACAD_GROUP
350
D
3
ACAD_MLINESTYLE
350
17
0
DICTIONARY
5
D
100
AcDbDictionary
0
DICTIONARY
5
1A
330
C
100
AcDbDictionary
0
DICTIONARY
5
17
100
AcDbDictionary
0
ENDSEC
0
EOF
