0
SECTION
2
HEADER
9
$INSUNITS
70
4
9
$ACADVER
1
AC1014
9
$HANDSEED
5
FFFF
0
ENDSEC
0
SECTION
2
TABLES
0
TABLE
2
VPORT
5
8
100
AcDbSymbolTable
0
ENDTAB
0
TABLE
2
LTYPE
5
5
100
AcDbSymbolTable
0
LTYPE
5
14
100
AcDbSymbolTableRecord
100
AcDbLinetypeTableRecord
2
BYBLOCK
70
0
0
LTYPE
5
15
100
AcDbSymbolTableRecord
100
AcDbLinetypeTableRecord
2
BYLAYER
70
0
0
LTYPE
5
16
100
AcDbSymbolTableRecord
100
AcDbLinetypeTableRecord
2
DASHED
70
0
3
Dashed __ __ __ __ __ __ __ __ __ __ __ __ __ _
72
65
73
2
40
0.75
49
0.5
74
0
49
-0.25
74
0
0
ENDTAB
0
TABLE
2
LAYER
5
2
100
AcDbSymbolTable
70
3
0
LAYER
5
50
100
AcDbSymbolTableRecord
100
AcDbLayerTableRecord
2
1
70
0
62
7
6
DASHED
0
LAYER
5
51
100
AcDbSymbolTableRecord
100
AcDbLayerTableRecord
2
0
70
0
62
7
6
CONTINUOUS
0
ENDTAB
0
TABLE
2
STYLE
5
3
100
AcDbSymbolTable
70
1
0
STYLE
5
11
100
AcDbSymbolTableRecord
100
AcDbTextStyleTableRecord
2
STANDARD
70
0
0
ENDTAB
0
TABLE
2
VIEW
5
6
100
AcDbSymbolTable
70
0
0
ENDTAB
0
TABLE
2
UCS
5
7
100
AcDbSymbolTable
70
0
0
ENDTAB
0
TABLE
2
APPID
5
9
100
AcDbSymbolTable
70
2
0
APPID
5
12
100
AcDbSymbolTableRecord
100
AcDbRegAppTableRecord
2
ACAD
70
0
0
ENDTAB
0
TABLE
2
DIMSTYLE
5
A
100
AcDbSymbolTable
70
1
0
ENDTAB
0
TABLE
2
BLOCK_RECORD
5
1
100
AcDbSymbolTable
70
1
0
BLOCK_RECORD
5
1F
100
AcDbSymbolTableRecord
100
AcDbBlockTableRecord
2
*MODEL_SPACE
0
BLOCK_RECORD
5
1B
100
AcDbSymbolTableRecord
100
AcDbBlockTableRecord
2
*PAPER_SPACE
0
ENDTAB
0
ENDSEC
0
SECTION
2
BLOCKS
0
BLOCK
5
20
100
AcDbEntity
100
AcDbBlockBegin
2
*MODEL_SPACE
0
ENDBLK
5
21
100
AcDbEntity
100
AcDbBlockEnd
0
BLOCK
5
1C
100
AcDbEntity
100
AcDbBlockBegin
2
*PAPER_SPACE
0
ENDBLK
5
1D
100
AcDbEntity
100
AcDbBlockEnd
0
ENDSEC
0
SECTION
2
ENTITIES
0
LWPOLYLINE
5
100
100
AcDbEntity
8
0
100
AcDbPolyline
90
18
70
1
43
0.0
10
-644.48035601383003
20
-1888.1131090687174
10
-644.48035601383003
20
-2077.1131090687172
10
-644.68035601382996
20
-2077.1131090687172
10
-644.68035601382996
20
-2089.1131090687172
10
-634.48035601383003
20
-2089.1131090687177
42
0.4142135623731783
10
-632.48035601383003
20
-2087.1131090687172
10
-632.48035601383003
20
-2077.1131090687168
42
-0.41421356237306733
10
-629.48035601383003
20
-2074.1131090687172
10
-614.48035601383003
20
-2074.1131090687172
42
0.41421356237306034
10
-608.48035601382992
20
-2068.1131090687177
10
-608.48035601382992
20
-1828.1131090687174
42
0.41421356237307422
10
-614.48035601383003
20
-1822.1131090687174
10
-641.68035601382996
20
-1822.1131090687174
42
-0.41421356237309503
10
-644.68035601382996
20
-1819.1131090687177
10
-644.68035601382996
20
-1809.1131090687179
42
0.41421356237313667
10
-646.68035601382996
20
-1807.1131090687174
10
-656.68035601382996
20
-1807.1131090687174
10
-656.68035601382996
20
-1888.1131090687174
0
CIRCLE
5
101
100
AcDbEntity
8
0
100
AcDbCircle
10
-637.48035601382992
20
-1829.1131090538165
30
0
40
1.5000000000000568
210
3.0814878370142384e-33
220
-5.5511151231257839e-17
230
1
0
CIRCLE
5
102
100
AcDbEntity
8
0
100
AcDbCircle
10
-615.48035601382992
20
-1936.1131090687172
30
0
40
1.5000000000000568
210
3.0814878370142384e-33
220
-5.5511151231257839e-17
230
1
0
CIRCLE
5
103
100
AcDbEntity
8
0
100
AcDbCircle
10
-637.48035601382992
20
-2007.3631090687174
30
0
40
1.5000000000000568
210
3.0814878370142384e-33
220
-5.5511151231257839e-17
230
1
0
CIRCLE
5
104
100
AcDbEntity
8
0
100
AcDbCircle
10
-637.48035601382992
20
-2066.1131090687172
30
0
40
1.5000000000000568
210
3.0814878370142384e-33
220
-5.5511151231257839e-17
230
1
0
CIRCLE
5
105
100
AcDbEntity
8
0
100
AcDbCircle
10
-637.48035601382992
20
-1948.613109068717
30
-7.1054273576010019e-14
40
1.5000000000000568
210
3.0814878370142384e-33
220
-5.5511151231257839e-17
230
1
0
CIRCLE
5
106
100
AcDbEntity
8
0
100
AcDbCircle
10
-615.48035601382992
20
-1882.6131090687172
30
-7.1054273576010019e-14
40
1.5000000000000568
210
3.0814878370142384e-33
220
-5.5511151231257839e-17
230
1
0
CIRCLE
5
107
100
AcDbEntity
8
0
100
AcDbCircle
10
-615.48035601382992
20
-1829.1131090538165
30
0
40
1.5000000000000568
210
3.0814878370142384e-33
220
-5.5511151231257839e-17
230
1
0
CIRCLE
5
108
100
AcDbEntity
8
0
100
AcDbCircle
10
-637.48035601382992
20
-1936.1131090687172
30
0
40
1.5000000000000568
210
3.0814878370142384e-33
220
-5.5511151231257839e-17
230
1
0
CIRCLE
5
109
100
AcDbEntity
8
0
100
AcDbCircle
10
-615.48035601382992
20
-2007.3631090687174
30
0
40
1.5000000000000568
210
3.0814878370142384e-33
220
-5.5511151231257839e-17
230
1
0
CIRCLE
5
110
100
AcDbEntity
8
0
100
AcDbCircle
10
-615.48035601382992
20
-2066.1131090687172
30
0
40
1.5000000000000568
210
3.0814878370142384e-33
220
-5.5511151231257839e-17
230
1
0
CIRCLE
5
111
100
AcDbEntity
8
0
100
AcDbCircle
10
-615.48035601382992
20
-1948.613109068717
30
-7.1054273576010019e-14
40
1.5000000000000568
210
3.0814878370142384e-33
220
-5.5511151231257839e-17
230
1
0
CIRCLE
5
112
100
AcDbEntity
8
0
100
AcDbCircle
10
-637.48035601382992
20
-1882.6131090687172
30
-7.1054273576010019e-14
40
1.5000000000000568
210
3.0814878370142384e-33
220
-5.5511151231257839e-17
230
1
0
LWPOLYLINE
5
113
100
AcDbEntity
8
0
100
AcDbPolyline
90
8
70
1
43
0.0
10
-632.70666495292699
20
-1833.1131090538165
10
-620.13700041303821
20
-1833.113109060735
42
-1.0000000105367122
10
-619.48035599892864
20
-1833.8673093745899
10
-619.48035599892921
20
-2062.4342417201469
42
-0.99999999999999989
10
-620.16504073292413
20
-2063.1630810817587
10
-632.7182340446434
20
-2063.1630810817596
42
-0.99999999999999989
10
-633.48035602873108
20
-2062.5156476246611
10
-633.48035603540677
20
-1833.7466720805874
42
-0.99999998946328783
0
LINE
5
114
100
AcDbEntity
8
1
100
AcDbLine
10
-617.48035599892876
20
-1835.1131090538163
30
0
11
-617.48035599892876
21
-1931.9717042386378
31
0
0
LINE
5
115
100
AcDbEntity
8
1
100
AcDbLine
10
-617.48035599892876
20
-1931.9717042386378
30
0
11
-607.48035601382992
21
-1931.9717042386378
31
0
0
LINE
5
116
100
AcDbEntity
8
1
100
AcDbLine
10
-607.48035601382992
20
-1931.9717042386378
30
0
11
-607.48035601382992
21
-1835.1131090538163
31
0
0
LINE
5
117
100
AcDbEntity
8
1
100
AcDbLine
10
-607.48035601382992
20
-1835.1131090538163
30
0
11
-617.48035599892876
21
-1835.1131090538163
31
0
0
LINE
5
118
100
AcDbEntity
8
0
100
AcDbLine
10
-617.48035541778347
20
-1835.6981090472598
30
0
11
-613.97035590415737
21
-1835.6981090472598
31
0
0
LINE
5
119
100
AcDbEntity
8
0
100
AcDbLine
10
-613.97035590415737
20
-1835.6981090472598
30
0
11
-613.97035590415737
21
-1836.6731090860028
31
0
0
LINE
5
120
100
AcDbEntity
8
0
100
AcDbLine
10
-614.94535557037136
20
-1837.6481089012284
30
0
11
-616.50535575156948
21
-1837.6481089012284
31
0
0
LINE
5
121
100
AcDbEntity
8
0
100
AcDbLine
10
-617.48035541778347
20
-1836.6731090860028
30
0
11
-617.48035541778347
21
-1835.6981090472598
31
0
0
ARC
5
122
100
AcDbEntity
8
0
100
AcDbCircle
10
-614.82830933337948
20
-1836.7901553229947
30
0
40
0.8659008890390395
210
-0
220
0
230
1
100
AcDbArc
50
-97.768619823298067
51
7.7686186853079038
0
ARC
5
123
100
AcDbEntity
8
0
100
AcDbCircle
10
-616.62240198856136
20
-1836.7901553229947
30
0
40
0.8659008890390395
210
-0
220
0
230
1
100
AcDbArc
50
172.23137084203933
51
277.76861618083728
0
LINE
5
124
100
AcDbEntity
8
0
100
AcDbLine
10
-617.48035541778347
20
-1838.7206092493195
30
0
11
-617.48035541778347
21
-1839.8906090871949
31
0
0
LINE
5
125
100
AcDbEntity
8
0
100
AcDbLine
10
-616.70035532718441
20
-1840.6706091777939
30
0
11
-616.31035557990811
21
-1840.6706091777939
31
0
0
LINE
5
126
100
AcDbEntity
8
0
100
AcDbLine
10
-615.53035548930904
20
-1839.8906090871949
30
0
11
-615.53035548930904
21
-1838.7206092493195
31
0
0
LINE
5
127
100
AcDbEntity
8
0
100
AcDbLine
10
-615.53035548930904
20
-1838.7206092493195
30
0
11
-613.97035590415737
21
-1838.7206092493195
31
0
0
LINE
5
128
100
AcDbEntity
8
0
100
AcDbLine
10
-613.97035590415737
20
-1838.7206092493195
30
0
11
-613.97035590415737
21
-1840.6706091777939
31
0
0
ARC
5
129
100
AcDbEntity
8
0
100
AcDbCircle
10
-616.79399243598721
20
-1839.9842461959977
30
0
40
0.69272071123123169
210
-0
220
0
230
1
100
AcDbArc
50
172.23137084203569
51
277.76861618084155
0
ARC
5
130
100
AcDbEntity
8
0
100
AcDbCircle
10
-616.21671847110531
20
-1839.9842461959977
30
0
40
0.69272071123123169
210
-0
220
0
230
1
100
AcDbArc
50
-97.768619823294713
51
7.7686186853255501
0
LINE
5
131
100
AcDbEntity
8
0
100
AcDbLine
10
-617.48035541778347
20
-1841.8406090156693
30
0
11
-617.48035541778347
21
-1841.6456088440079
31
0
0
LINE
5
132
100
AcDbEntity
8
0
100
AcDbLine
10
-617.48035541778347
20
-1841.6456088440079
30
0
11
-617.28535524612209
21
-1841.6456088440079
31
0
0
LINE
5
133
100
AcDbEntity
8
0
100
AcDbLine
10
-617.28535524612209
20
-1841.6456088440079
30
0
11
-617.28535524612209
21
-1841.8406090156693
31
0
0
LINE
5
134
100
AcDbEntity
8
0
100
AcDbLine
10
-617.28535524612209
20
-1841.8406090156693
30
0
11
-617.48035541778347
21
-1841.8406090156693
31
0
0
LINE
5
135
100
AcDbEntity
8
0
100
AcDbLine
10
-617.48035541778347
20
-1841.8406090156693
30
0
11
-618.26035491233608
21
-1841.5481087581772
31
0
0
LINE
5
136
100
AcDbEntity
8
0
100
AcDbLine
10
-616.11535540824673
20
-1845.9356090442795
30
0
11
-616.11535540824673
21
-1845.0581088678498
31
0
0
LINE
5
137
100
AcDbEntity
8
0
100
AcDbLine
10
-617.48035541778347
20
-1845.0581088678498
30
0
11
-617.48035541778347
21
-1845.9356090442795
31
0
0
LINE
5
138
100
AcDbEntity
8
0
100
AcDbLine
10
-617.48035541778347
20
-1845.9356090442795
30
0
11
-615.72535566097042
21
-1845.9356090442795
31
0
0
LINE
5
139
100
AcDbEntity
8
0
100
AcDbLine
10
-615.14035574203274
20
-1845.3506085292954
30
0
11
-615.14035574203274
21
-1844.5706090347428
31
0
0
ARC
5
140
100
AcDbEntity
8
0
100
AcDbCircle
10
-616.7978554130151
20
-1845.0581088678498
30
0
40
0.68249993026256561
210
-0
220
0
230
1
100
AcDbArc
50
2.4148365394514667e-06
51
180
0
ARC
5
141
100
AcDbEntity
8
0
100
AcDbCircle
10
-615.65512768035671
20
-1845.4208371059556
30
0
40
0.51954049617052078
210
-0
220
0
230
1
100
AcDbArc
50
-97.7686198232973
51
7.7686186853257846
0
LINE
5
142
100
AcDbEntity
8
0
100
AcDbLine
10
-617.48035541778347
20
-1847.1056088821549
30
0
11
-615.14035574203274
21
-1847.1056088821549
31
0
0
LINE
5
143
100
AcDbEntity
8
0
100
AcDbLine
10
-614.1653554797723
20
-1847.0081087963242
30
0
11
-613.97035590415737
21
-1847.0081087963242
31
0
0
LINE
5
144
100
AcDbEntity
8
0
100
AcDbLine
10
-613.97035590415737
20
-1847.0081087963242
30
0
11
-613.97035590415737
21
-1847.2031077758927
31
0
0
LINE
5
145
100
AcDbEntity
8
0
100
AcDbLine
10
-613.97035590415737
20
-1847.2031077758927
30
0
11
-614.1653554797723
21
-1847.2031077758927
31
0
0
LINE
5
146
100
AcDbEntity
8
0
100
AcDbLine
10
-614.1653554797723
20
-1847.2031077758927
30
0
11
-614.1653554797723
21
-1847.0081087963242
31
0
0
LINE
5
147
100
AcDbEntity
8
0
100
AcDbLine
10
-617.48035541778347
20
-1848.2756087200303
30
0
11
-615.14035574203274
21
-1848.2756087200303
31
0
0
LINE
5
148
100
AcDbEntity
8
0
100
AcDbLine
10
-615.14035574203274
20
-1848.2756087200303
30
0
11
-615.14035574203274
21
-1849.4456085579056
31
0
0
LINE
5
149
100
AcDbEntity
8
0
100
AcDbLine
10
-615.14035574203274
20
-1849.4456085579056
30
0
11
-615.53035548930904
21
-1849.4456085579056
31
0
0
LINE
5
150
100
AcDbEntity
8
0
100
AcDbLine
10
-613.97035590415737
20
-1850.3231081382889
30
0
11
-617.48035541778347
21
-1850.3231081382889
31
0
0
LINE
5
151
100
AcDbEntity
8
0
100
AcDbLine
10
-617.48035541778347
20
-1850.3231081382889
30
0
11
-617.48035541778347
21
-1851.2981078045029
31
0
0
LINE
5
152
100
AcDbEntity
8
0
100
AcDbLine
10
-616.89535549884579
20
-1851.8831071273942
30
0
11
-615.72535566097042
21
-1851.8831071273942
31
0
0
LINE
5
153
100
AcDbEntity
8
0
100
AcDbLine
10
-615.14035574203274
20
-1851.2981078045029
30
0
11
-615.14035574203274
21
-1850.3231081382889
31
0
0
ARC
5
154
100
AcDbEntity
8
0
100
AcDbCircle
10
-616.9655834794595
20
-1851.3683351890702
30
0
40
0.51954049617052078
210
-0
220
0
230
1
100
AcDbArc
50
172.23137084203464
51
277.76861618084075
0
ARC
5
155
100
AcDbEntity
8
0
100
AcDbCircle
10
-615.65512768035671
20
-1851.3683351890702
30
0
40
0.51954049617052078
210
-0
220
0
230
1
100
AcDbArc
50
-97.7686198232973
51
7.7686186853257846
0
LINE
5
156
100
AcDbEntity
8
0
100
AcDbLine
10
-617.48035541778347
20
-1852.9556080715317
30
0
11
-615.14035574203274
21
-1852.9556080715317
31
0
0
LINE
5
157
100
AcDbEntity
8
0
100
AcDbLine
10
-615.14035574203274
20
-1852.9556080715317
30
0
11
-615.14035574203274
21
-1854.1256079094071
31
0
0
LINE
5
158
100
AcDbEntity
8
0
100
AcDbLine
10
-615.14035574203274
20
-1854.1256079094071
30
0
11
-615.53035548930904
21
-1854.1256079094071
31
0
0
LINE
5
159
100
AcDbEntity
8
0
100
AcDbLine
10
-617.48035541778347
20
-1856.4656075851578
30
0
11
-617.48035541778347
21
-1855.490606726851
31
0
0
LINE
5
160
100
AcDbEntity
8
0
100
AcDbLine
10
-616.89535549884579
20
-1854.9056074039597
30
0
11
-615.92035523658535
21
-1854.9056074039597
31
0
0
LINE
5
161
100
AcDbEntity
8
0
100
AcDbLine
10
-615.92035523658535
20
-1856.4656075851578
30
0
11
-616.31035557990811
21
-1856.4656075851578
31
0
0
LINE
5
162
100
AcDbEntity
8
0
100
AcDbLine
10
-616.31035557990811
20
-1856.4656075851578
30
0
11
-616.31035557990811
21
-1854.9056074039597
31
0
0
ARC
5
163
100
AcDbEntity
8
0
100
AcDbCircle
10
-616.9655834794595
20
-1855.4203781501908
30
0
40
0.51954049617052078
210
-0
220
0
230
1
100
AcDbArc
50
82.231388828116863
51
187.76860320371952
0
ARC
5
164
100
AcDbEntity
8
0
100
AcDbCircle
10
-615.92035523658535
20
-1855.6856068985123
30
0
40
0.78000001609325409
210
-0
220
0
230
1
100
AcDbArc
50
-90
51
90.000005008951661
0
LINE
5
165
100
AcDbEntity
8
0
100
AcDbLine
10
-616.11535540824673
20
-1859.00060743257
30
0
11
-616.11535540824673
21
-1858.1231078521866
31
0
0
LINE
5
166
100
AcDbEntity
8
0
100
AcDbLine
10
-617.48035541778347
20
-1858.1231078521866
30
0
11
-617.48035541778347
21
-1859.00060743257
31
0
0
LINE
5
167
100
AcDbEntity
8
0
100
AcDbLine
10
-617.48035541778347
20
-1859.00060743257
30
0
11
-615.72535566097042
21
-1859.00060743257
31
0
0
LINE
5
168
100
AcDbEntity
8
0
100
AcDbLine
10
-615.14035574203274
20
-1858.4156069175858
30
0
11
-615.14035574203274
21
-1857.6356062309403
31
0
0
ARC
5
169
100
AcDbEntity
8
0
100
AcDbCircle
10
-616.7978554130151
20
-1858.1231078521866
30
0
40
0.68249993026256561
210
-0
220
0
230
1
100
AcDbArc
50
2.4148365394514667e-06
51
180
0
ARC
5
170
100
AcDbEntity
8
0
100
AcDbCircle
10
-615.65512768035671
20
-1858.485835494246
30
0
40
0.51954049617052078
210
-0
220
0
230
1
100
AcDbArc
50
-97.7686198232973
51
7.7686186853257846
0
LINE
5
171
100
AcDbEntity
8
0
100
AcDbLine
10
-617.48035541778347
20
-1860.1706084625382
30
0
11
-613.97035590415737
21
-1860.1706084625382
31
0
0
LINE
5
172
100
AcDbEntity
8
0
100
AcDbLine
10
-615.14035574203274
20
-1861.7306074516434
30
0
11
-616.31035557990811
21
-1860.1706084625382
31
0
0
LINE
5
173
100
AcDbEntity
8
0
100
AcDbLine
10
-617.48035541778347
20
-1861.7306074516434
30
0
11
-615.82285515075466
21
-1860.8531078712601
31
0
0
LINE
5
174
100
AcDbEntity
8
0
100
AcDbLine
10
-617.48035541778347
20
-1865.728107394423
30
0
11
-617.48035541778347
21
-1864.7531065361161
31
0
0
LINE
5
175
100
AcDbEntity
8
0
100
AcDbLine
10
-616.89535549884579
20
-1864.168106021132
30
0
11
-615.72535566097042
21
-1864.168106021132
31
0
0
LINE
5
176
100
AcDbEntity
8
0
100
AcDbLine
10
-615.14035574203274
20
-1864.7531065361161
30
0
11
-615.14035574203274
21
-1865.728107394423
31
0
0
LINE
5
177
100
AcDbEntity
8
0
100
AcDbLine
10
-615.14035574203274
20
-1865.728107394423
30
0
11
-618.0653559327676
21
-1865.728107394423
31
0
0
LINE
5
178
100
AcDbEntity
8
0
100
AcDbLine
10
-618.65035525565884
20
-1865.1431068794388
30
0
11
-618.65035525565884
21
-1864.3631061927933
31
0
0
ARC
5
179
100
AcDbEntity
8
0
100
AcDbCircle
10
-616.9655834794595
20
-1864.6828779594559
30
0
40
0.51954049617052078
210
-0
220
0
230
1
100
AcDbArc
50
82.231388828116863
51
187.76860320371952
0
ARC
5
180
100
AcDbEntity
8
0
100
AcDbCircle
10
-615.65512768035671
20
-1864.6828779594559
30
0
40
0.51954049617052078
210
-0
220
0
230
1
100
AcDbArc
50
-7.7686136763557538
51
97.768621189785975
0
ARC
5
181
100
AcDbEntity
8
0
100
AcDbCircle
10
-618.13558331733486
20
-1865.213335456099
30
0
40
0.51954049617052078
210
-0
220
0
230
1
100
AcDbArc
50
172.23137084203464
51
277.76861618084075
0
LINE
5
182
100
AcDbEntity
8
0
100
AcDbLine
10
-615.14035574203274
20
-1866.8981084243912
30
0
11
-616.89535549884579
21
-1866.8981084243912
31
0
0
LINE
5
183
100
AcDbEntity
8
0
100
AcDbLine
10
-617.48035541778347
20
-1867.4831089393754
30
0
11
-617.48035541778347
21
-1868.4581074134965
31
0
0
LINE
5
184
100
AcDbEntity
8
0
100
AcDbLine
10
-617.48035541778347
20
-1868.4581074134965
30
0
11
-615.14035574203274
21
-1868.4581074134965
31
0
0
ARC
5
185
100
AcDbEntity
8
0
100
AcDbCircle
10
-616.9655834794595
20
-1867.4128803627152
30
0
40
0.51954049617052078
210
-0
220
0
230
1
100
AcDbArc
50
82.231388828116863
51
187.76860320371952
0
LINE
5
186
100
AcDbEntity
8
0
100
AcDbLine
10
-617.48035541778347
20
-1869.6281084434647
30
0
11
-615.14035574203274
21
-1869.6281084434647
31
0
0
LINE
5
187
100
AcDbEntity
8
0
100
AcDbLine
10
-614.1653554797723
20
-1869.5306071655411
30
0
11
-613.97035590415737
21
-1869.5306071655411
31
0
0
LINE
5
188
100
AcDbEntity
8
0
100
AcDbLine
10
-613.97035590415737
20
-1869.5306071655411
30
0
11
-613.97035590415737
21
-1869.7256073372025
31
0
0
LINE
5
189
100
AcDbEntity
8
0
100
AcDbLine
10
-613.97035590415737
20
-1869.7256073372025
30
0
11
-614.1653554797723
21
-1869.7256073372025
31
0
0
LINE
5
190
100
AcDbEntity
8
0
100
AcDbLine
10
-614.1653554797723
20
-1869.7256073372025
30
0
11
-614.1653554797723
21
-1869.5306071655411
31
0
0
LINE
5
191
100
AcDbEntity
8
0
100
AcDbLine
10
-613.97035590415737
20
-1872.2606095688004
30
0
11
-617.48035541778347
21
-1872.2606095688004
31
0
0
LINE
5
192
100
AcDbEntity
8
0
100
AcDbLine
10
-617.48035541778347
20
-1872.2606095688004
30
0
11
-617.48035541778347
21
-1871.2856087104935
31
0
0
LINE
5
193
100
AcDbEntity
8
0
100
AcDbLine
10
-616.89535549884579
20
-1870.7006081955094
30
0
11
-615.72535566097042
21
-1870.7006081955094
31
0
0
LINE
5
194
100
AcDbEntity
8
0
100
AcDbLine
10
-615.14035574203274
20
-1871.2856087104935
30
0
11
-615.14035574203274
21
-1872.2606095688004
31
0
0
ARC
5
195
100
AcDbEntity
8
0
100
AcDbCircle
10
-616.9655834794595
20
-1871.2153801338334
30
0
40
0.51954049617052078
210
-0
220
0
230
1
100
AcDbArc
50
82.231388828116863
51
187.76860320371952
0
ARC
5
196
100
AcDbEntity
8
0
100
AcDbCircle
10
-615.65512768035671
20
-1871.2153801338334
30
0
40
0.51954049617052078
210
-0
220
0
230
1
100
AcDbArc
50
-7.7686136763557538
51
97.768621189785975
0
LINE
5
197
100
AcDbEntity
8
0
100
AcDbLine
10
-617.48035541778347
20
-1874.8931106941361
30
0
11
-617.48035541778347
21
-1873.9181098358292
31
0
0
LINE
5
198
100
AcDbEntity
8
0
100
AcDbLine
10
-616.89535549884579
20
-1873.3331093208451
30
0
11
-615.92035523658535
21
-1873.3331093208451
31
0
0
LINE
5
199
100
AcDbEntity
8
0
100
AcDbLine
10
-615.92035523658535
20
-1874.8931106941361
30
0
11
-616.31035557990811
21
-1874.8931106941361
31
0
0
LINE
5
200
100
AcDbEntity
8
0
100
AcDbLine
10
-616.31035557990811
20
-1874.8931106941361
30
0
11
-616.31035557990811
21
-1873.3331093208451
31
0
0
ARC
5
201
100
AcDbEntity
8
0
100
AcDbCircle
10
-616.9655834794595
20
-1873.8478812591691
30
0
40
0.51954049617052078
210
-0
220
0
230
1
100
AcDbArc
50
82.231388828116863
51
187.76860320371952
0
ARC
5
202
100
AcDbEntity
8
0
100
AcDbCircle
10
-615.92035523658535
20
-1874.1131100074906
30
0
40
0.78000001609325409
210
-0
220
0
230
1
100
AcDbArc
50
-90
51
90.000005008951661
0
LINE
5
203
100
AcDbEntity
8
0
100
AcDbLine
10
-617.48035541778347
20
-1876.0631117241044
30
0
11
-617.48035541778347
21
-1875.8681091682572
31
0
0
LINE
5
204
100
AcDbEntity
8
0
100
AcDbLine
10
-617.48035541778347
20
-1875.8681091682572
30
0
11
-617.28535524612209
21
-1875.8681091682572
31
0
0
LINE
5
205
100
AcDbEntity
8
0
100
AcDbLine
10
-617.28535524612209
20
-1875.8681091682572
30
0
11
-617.28535524612209
21
-1876.0631117241044
31
0
0
LINE
5
206
100
AcDbEntity
8
0
100
AcDbLine
10
-617.28535524612209
20
-1876.0631117241044
30
0
11
-617.48035541778347
21
-1876.0631117241044
31
0
0
LINE
5
207
100
AcDbEntity
8
0
100
AcDbLine
10
-617.48035541778347
20
-1876.0631117241044
30
0
11
-618.26035491233608
21
-1875.7706102745194
31
0
0
LINE
5
208
100
AcDbEntity
8
0
100
AcDbLine
10
-614.75035539870998
20
-1889.5181211845536
30
0
11
-613.97035590415737
21
-1890.4931196586747
31
0
0
LINE
5
209
100
AcDbEntity
8
0
100
AcDbLine
10
-613.97035590415737
20
-1890.4931196586747
30
0
11
-617.48035541778347
21
-1890.4931196586747
31
0
0
LINE
5
210
100
AcDbEntity
8
0
100
AcDbLine
10
-617.48035541778347
20
-1889.5181211845536
30
0
11
-617.48035541778347
21
-1891.4681229011674
31
0
0
LINE
5
211
100
AcDbEntity
8
0
100
AcDbLine
10
-617.48035541778347
20
-1893.9056238548417
30
0
11
-615.14035574203274
21
-1895.4656252281327
31
0
0
LINE
5
212
100
AcDbEntity
8
0
100
AcDbLine
10
-615.14035574203274
20
-1893.9056238548417
30
0
11
-617.48035541778347
21
-1895.4656252281327
31
0
0
LINE
5
213
100
AcDbEntity
8
0
100
AcDbLine
10
-614.75035539870998
20
-1897.903126181807
30
0
11
-613.97035590415737
21
-1898.8781246559281
31
0
0
LINE
5
214
100
AcDbEntity
8
0
100
AcDbLine
10
-613.97035590415737
20
-1898.8781246559281
30
0
11
-617.48035541778347
21
-1898.8781246559281
31
0
0
LINE
5
215
100
AcDbEntity
8
0
100
AcDbLine
10
-617.48035541778347
20
-1897.903126181807
30
0
11
-617.48035541778347
21
-1899.8531278984208
31
0
0
LINE
5
216
100
AcDbEntity
8
0
100
AcDbLine
10
-615.53035548930904
20
-1902.4856266395707
30
0
11
-617.48035541778347
21
-1900.8281263725419
31
0
0
LINE
5
217
100
AcDbEntity
8
0
100
AcDbLine
10
-617.48035541778347
20
-1900.8281263725419
30
0
11
-617.48035541778347
21
-1902.7781280891556
31
0
0
ARC
5
218
100
AcDbEntity
8
0
100
AcDbCircle
10
-614.74251381164333
20
-1902.005966605391
30
0
40
0.77931083738803864
210
-0
220
0
230
1
100
AcDbArc
50
-97.768619823300511
51
7.7686186853208445
0
ARC
5
219
100
AcDbEntity
8
0
100
AcDbCircle
10
-614.93583194022915
20
-1901.7829069511552
30
0
40
0.97262687981128693
210
-0
220
0
230
1
100
AcDbArc
50
-6.9518255044607962
51
79.006569653004732
0
ARC
5
220
100
AcDbEntity
8
0
100
AcDbCircle
10
-614.91731575732967
20
-1901.9977030174393
30
0
40
0.78351080417633057
210
-0
220
0
230
1
100
AcDbArc
50
218.51672148852427
51
275.08610292677184
0
LINE
5
221
100
AcDbEntity
8
0
100
AcDbLine
10
-617.48035541778347
20
-1905.4106268303055
30
0
11
-615.14035574203274
21
-1905.4106268303055
31
0
0
LINE
5
222
100
AcDbEntity
8
0
100
AcDbLine
10
-615.14035574203274
20
-1905.4106268303055
30
0
11
-615.14035574203274
21
-1907.1656307594437
31
0
0
LINE
5
223
100
AcDbEntity
8
0
100
AcDbLine
10
-615.72535566097042
20
-1907.7506288902421
30
0
11
-617.48035541778347
21
-1907.7506288902421
31
0
0
LINE
5
224
100
AcDbEntity
8
0
100
AcDbLine
10
-617.48035541778347
20
-1906.5806278602738
30
0
11
-615.14035574203274
21
-1906.5806278602738
31
0
0
ARC
5
225
100
AcDbEntity
8
0
100
AcDbCircle
10
-615.65512768035671
20
-1907.2358545677323
30
0
40
0.51954049617052067
210
-0
220
0
230
1
100
AcDbArc
50
-97.7686198232973
51
7.7686186853257846
0
LINE
5
226
100
AcDbEntity
8
0
100
AcDbLine
10
-617.48035541778347
20
-1908.9206251518387
30
0
11
-615.14035574203274
21
-1908.9206251518387
31
0
0
LINE
5
227
100
AcDbEntity
8
0
100
AcDbLine
10
-615.14035574203274
20
-1908.9206251518387
30
0
11
-615.14035574203274
21
-1910.6756290809769
31
0
0
LINE
5
228
100
AcDbEntity
8
0
100
AcDbLine
10
-615.72535566097042
20
-1911.2606272117753
30
0
11
-617.48035541778347
21
-1911.2606272117753
31
0
0
LINE
5
229
100
AcDbEntity
8
0
100
AcDbLine
10
-617.48035541778347
20
-1910.090626181807
30
0
11
-615.14035574203274
21
-1910.090626181807
31
0
0
ARC
5
230
100
AcDbEntity
8
0
100
AcDbCircle
10
-615.65512768035671
20
-1910.7458528892655
30
0
40
0.51954049617052067
210
-0
220
0
230
1
100
AcDbArc
50
-97.7686198232973
51
7.7686186853257846
0
LINE
5
231
100
AcDbEntity
8
0
100
AcDbLine
10
-618.65035525565884
20
-1913.990624846663
30
0
11
-615.14035574203274
21
-1913.990624846663
31
0
0
LINE
5
232
100
AcDbEntity
8
0
100
AcDbLine
10
-615.14035574203274
20
-1913.990624846663
30
0
11
-615.14035574203274
21
-1914.9656280891556
31
0
0
LINE
5
233
100
AcDbEntity
8
0
100
AcDbLine
10
-615.72535566097042
20
-1915.550626219954
30
0
11
-616.89535549884579
21
-1915.550626219954
31
0
0
LINE
5
234
100
AcDbEntity
8
0
100
AcDbLine
10
-617.48035541778347
20
-1914.9656280891556
30
0
11
-617.48035541778347
21
-1913.990624846663
31
0
0
ARC
5
235
100
AcDbEntity
8
0
100
AcDbCircle
10
-615.65512768035671
20
-1915.0358566658158
30
0
40
0.51954049617052078
210
-0
220
0
230
1
100
AcDbArc
50
-97.7686198232973
51
7.7686186853257846
0
ARC
5
236
100
AcDbEntity
8
0
100
AcDbCircle
10
-616.9655834794595
20
-1915.0358566658158
30
0
40
0.51954049617052078
210
-0
220
0
230
1
100
AcDbArc
50
172.23137084203464
51
277.76861618084075
0
LINE
5
237
100
AcDbEntity
8
0
100
AcDbLine
10
-613.97035590415737
20
-1916.6231283561845
30
0
11
-616.89535549884579
21
-1916.6231283561845
31
0
0
ARC
5
238
100
AcDbEntity
8
0
100
AcDbCircle
10
-616.9655834794595
20
-1917.1378931419511
30
0
40
0.51954049617052067
210
-0
220
0
230
1
100
AcDbArc
50
82.231388828116863
51
187.76860320371952
0
LINE
5
239
100
AcDbEntity
8
0
100
AcDbLine
10
-618.65035525565884
20
-1917.9881224052567
30
0
11
-618.65035525565884
21
-1918.3781275169511
31
0
0
LINE
5
240
100
AcDbEntity
8
0
100
AcDbLine
10
-618.65035525565884
20
-1918.3781275169511
30
0
11
-615.14035574203274
21
-1919.5481237785477
31
0
0
LINE
5
241
100
AcDbEntity
8
0
100
AcDbLine
10
-615.14035574203274
20
-1917.9881224052567
30
0
11
-617.48035541778347
21
-1918.7681230919022
31
0
0
ENDSEC
0
SECTION
2
OBJECTS
0
DICTIONARY
5
C
100
AcDbDictionary
3
ACAD_GROUP
350
D
3
ACAD_MLINESTYLE
350
17
0
DICTIONARY
5
D
100
AcDbDictionary
0
DICTIONARY
5
1A
330
C
100
AcDbDictionary
0
DICTIONARY
5
17
100
AcDbDictionary
0
ENDSEC
0
EOF
