0
SECTION
2
HEADER
9
$INSUNITS
70
4
9
$ACADVER
1
AC1014
9
$HANDSEED
5
FFFF
0
ENDSEC
0
SECTION
2
TABLES
0
TABLE
2
VPORT
5
8
100
AcDbSymbolTable
0
ENDTAB
0
TABLE
2
LTYPE
5
5
100
AcDbSymbolTable
0
LTYPE
5
14
100
AcDbSymbolTableRecord
100
AcDbLinetypeTableRecord
2
BYBLOCK
70
0
0
LTYPE
5
15
100
AcDbSymbolTableRecord
100
AcDbLinetypeTableRecord
2
BYLAYER
70
0
0
LTYPE
5
16
100
AcDbSymbolTableRecord
100
AcDbLinetypeTableRecord
2
DASHED
70
0
3
Dashed __ __ __ __ __ __ __ __ __ __ __ __ __ _
72
65
73
2
40
0.75
49
0.5
74
0
49
-0.25
74
0
0
ENDTAB
0
TABLE
2
LAYER
5
2
100
AcDbSymbolTable
70
3
0
LAYER
5
50
100
AcDbSymbolTableRecord
100
AcDbLayerTableRecord
2
1
70
0
62
7
6
DASHED
0
LAYER
5
51
100
AcDbSymbolTableRecord
100
AcDbLayerTableRecord
2
0
70
0
62
7
6
CONTINUOUS
0
ENDTAB
0
TABLE
2
STYLE
5
3
100
AcDbSymbolTable
70
1
0
STYLE
5
11
100
AcDbSymbolTableRecord
100
AcDbTextStyleTableRecord
2
STANDARD
70
0
0
ENDTAB
0
TABLE
2
VIEW
5
6
100
AcDbSymbolTable
70
0
0
ENDTAB
0
TABLE
2
UCS
5
7
100
AcDbSymbolTable
70
0
0
ENDTAB
0
TABLE
2
APPID
5
9
100
AcDbSymbolTable
70
2
0
APPID
5
12
100
AcDbSymbolTableRecord
100
AcDbRegAppTableRecord
2
ACAD
70
0
0
ENDTAB
0
TABLE
2
DIMSTYLE
5
A
100
AcDbSymbolTable
70
1
0
ENDTAB
0
TABLE
2
BLOCK_RECORD
5
1
100
AcDbSymbolTable
70
1
0
BLOCK_RECORD
5
1F
100
AcDbSymbolTableRecord
100
AcDbBlockTableRecord
2
*MODEL_SPACE
0
BLOCK_RECORD
5
1B
100
AcDbSymbolTableRecord
100
AcDbBlockTableRecord
2
*PAPER_SPACE
0
ENDTAB
0
ENDSEC
0
SECTION
2
BLOCKS
0
BLOCK
5
20
100
AcDbEntity
100
AcDbBlockBegin
2
*MODEL_SPACE
0
ENDBLK
5
21
100
AcDbEntity
100
AcDbBlockEnd
0
BLOCK
5
1C
100
AcDbEntity
100
AcDbBlockBegin
2
*PAPER_SPACE
0
ENDBLK
5
1D
100
AcDbEntity
100
AcDbBlockEnd
0
ENDSEC
0
SECTION
2
ENTITIES
0
LWPOLYLINE
5
100
100
AcDbEntity
8
0
100
AcDbPolyline
90
8
70
1
43
0.0
10
784.76155476162489
20
-2373.1998107257173
10
784.76155481717205
20
-2333.6077366318582
42
-1.0000000129047841
10
788.94154396119552
20
-2329.3033562169967
10
792.74190212000519
20
-2329.3033562169962
42
-0.99999999999999989
10
796.96155476162494
20
-2333.5688610621551
10
796.96155476162471
20
-2373.274578240781
42
-0.99999999999999989
10
792.70509651234352
20
-2377.5033562169965
10
788.94240347168102
20
-2377.5033562481458
42
-0.9999999925494194
0
LWPOLYLINE
5
101
100
AcDbEntity
8
0
100
AcDbPolyline
90
8
70
1
43
0.0
10
792.7905950745203
20
-2490.5033610598966
42
0.99999999999999989
10
796.96155476162505
20
-2486.1902304928321
10
796.96155476162505
20
-2446.5392415476376
42
0.9999999925494194
10
792.71216462966754
20
-2442.3033610598968
10
789.03581758228813
20
-2442.3033610598968
42
0.9999999925494194
10
784.76155476162489
20
-2446.5141421441967
10
784.76155476162512
20
-2486.1562678708019
42
0.99999999999999989
10
788.89710560828667
20
-2490.5033610598971
0
CIRCLE
5
102
100
AcDbEntity
8
0
100
AcDbCircle
10
790.8615547616248
20
-2496.5033610598971
30
0
40
1.5000000000000568
210
0
220
-0
230
1
0
CIRCLE
5
103
100
AcDbEntity
8
0
100
AcDbCircle
10
790.86155476162594
20
-2408.8572028438962
30
0
40
1.5000000000000568
210
0
220
-0
230
1
0
CIRCLE
5
104
100
AcDbEntity
8
0
100
AcDbCircle
10
790.86155476162548
20
-2323.3033562169967
30
0
40
1.5000000000000568
210
0
220
-0
230
1
0
CIRCLE
5
105
100
AcDbEntity
8
0
100
AcDbCircle
10
790.86156599499259
20
-2265.7228996777703
30
0
40
1.5000000000000036
210
0
220
0
230
1
0
CIRCLE
5
106
100
AcDbEntity
8
0
100
AcDbCircle
10
790.86157731020853
20
-2207.7228996777699
30
0
40
1.5000000000000036
210
0
220
0
230
1
0
LWPOLYLINE
5
107
100
AcDbEntity
8
0
100
AcDbPolyline
90
8
70
1
43
0.0
10
784.76158864492982
20
-2197.5824890035083
10
784.76158864492982
20
-2169.4723750301737
42
-0.99999999999999989
10
789.2784066001675
20
-2165.5228996777705
10
792.66518988536052
20
-2165.5228996777705
42
-0.99999999999999989
10
796.96158864492998
20
-2169.7110923307855
10
796.96158864492986
20
-2197.113672445606
42
-0.99999999999999989
10
793.12036171564409
20
-2201.7228996777699
10
789.10405331933498
20
-2201.7228996777703
42
-0.99999999999999989
0
CIRCLE
5
108
100
AcDbEntity
8
0
100
AcDbCircle
10
790.86158708421397
20
-2157.6228996777677
30
0
40
1.5000000000000036
210
0
220
0
230
1
0
CIRCLE
5
109
100
AcDbEntity
8
0
100
AcDbCircle
10
1122.8615902056529
20
-2157.6228996777677
30
0
40
1.5000000000000036
210
0
220
0
230
1
0
LWPOLYLINE
5
110
100
AcDbEntity
8
0
100
AcDbPolyline
90
8
70
1
43
0.0
10
1128.9615886449369
20
-2169.4723750301737
10
1128.9615886449371
20
-2197.5824890035083
42
-0.99999999999999989
10
1124.6191239705317
20
-2201.7228996777703
10
1120.6028155742226
20
-2201.7228996777699
42
-0.99999999999999989
10
1116.7615886449371
20
-2197.1136724456055
10
1116.7615886449371
20
-2169.7110923307855
42
-0.99999999999999989
10
1121.0579874045063
20
-2165.5228996777705
10
1124.4447706896992
20
-2165.5228996777705
42
-0.99999999999999989
0
CIRCLE
5
111
100
AcDbEntity
8
0
100
AcDbCircle
10
1122.8615999796584
20
-2207.7228996777699
30
0
40
1.5000000000000036
210
0
220
0
230
1
0
CIRCLE
5
112
100
AcDbEntity
8
0
100
AcDbCircle
10
1122.8616112948744
20
-2265.7228996777703
30
0
40
1.5000000000000036
210
0
220
0
230
1
0
CIRCLE
5
113
100
AcDbEntity
8
0
100
AcDbCircle
10
1122.8616225282415
20
-2323.3033562169967
30
0
40
1.5000000000000568
210
3.0385816786431356e-64
220
-1.3034973824172582e-79
230
1
0
CIRCLE
5
114
100
AcDbEntity
8
0
100
AcDbCircle
10
1122.8616225282408
20
-2408.8572028438962
30
0
40
1.5000000000000568
210
0
220
-0
230
1
0
CIRCLE
5
115
100
AcDbEntity
8
0
100
AcDbCircle
10
1122.8616225282419
20
-2496.5033610598971
30
0
40
1.5000000000000568
210
0
220
-0
230
1
0
LWPOLYLINE
5
116
100
AcDbEntity
8
0
100
AcDbPolyline
90
8
70
1
43
0.0
10
1116.7616225282418
20
-2486.1902304928321
42
0.99999999999999989
10
1120.9325822153464
20
-2490.5033610598966
10
1124.8260716815801
20
-2490.5033610598971
42
0.99999999999999989
10
1128.9616225282416
20
-2486.1562678708019
10
1128.9616225282416
20
-2446.5141421441967
42
0.99999999999999989
10
1124.6873597075787
20
-2442.3033610598968
10
1121.0110126601992
20
-2442.3033610598968
42
0.9999999925494194
10
1116.7616225282416
20
-2446.5392415476376
0
LWPOLYLINE
5
117
100
AcDbEntity
8
0
100
AcDbPolyline
90
8
70
1
43
0.0
10
1128.9616225282418
20
-2333.6077365779165
10
1128.9616225282416
20
-2373.1998107257168
42
-0.99999999999999989
10
1124.7807737861219
20
-2377.5033562169965
10
1121.0180807775232
20
-2377.5033562169965
42
-0.99999999999999989
10
1116.761622528242
20
-2373.274578240781
10
1116.7616225282422
20
-2333.5688610621551
42
-0.99999999999999989
10
1120.9812751698614
20
-2329.3033562169962
10
1124.7816332966015
20
-2329.3033562481396
42
-1.0000000074505806
0
CIRCLE
5
118
100
AcDbEntity
8
0
100
AcDbCircle
10
946.3615886449146
20
-2355.7009591570181
30
0
40
1.5000000000000002
210
1.3817869688151111e-76
220
-3.1393086308412094e-104
230
1
0
CIRCLE
5
119
100
AcDbEntity
8
0
100
AcDbCircle
10
977.86158864491483
20
-2373.8874926364911
30
0
40
1.5000000000000002
210
1.3817869688151111e-76
220
-3.1393086308412094e-104
230
1
0
CIRCLE
5
120
100
AcDbEntity
8
0
100
AcDbCircle
10
946.36158864491517
20
-2392.0740261159649
30
0
40
1.5000000000000002
210
1.3817869688151111e-76
220
-3.1393086308412094e-104
230
1
0
CIRCLE
5
121
100
AcDbEntity
8
0
100
AcDbCircle
10
956.86158864491495
20
-2373.8874926364911
30
0
40
5.2500000000000568
210
0
220
0
230
1
0
LWPOLYLINE
5
122
100
AcDbEntity
8
0
100
AcDbPolyline
90
22
70
1
43
0.0
10
736.86158864493359
20
-2502.3030222796988
42
0.41421356237308815
10
760.8615886449337
20
-2526.3030222796992
10
955.2863195864968
20
-2526.3030222796992
10
956.86158864496849
20
-2524.8744522260249
10
958.43685770337004
20
-2526.3030222796992
10
1152.8615886449336
20
-2526.3030222796992
42
0.41421356237308815
10
1176.8615886449336
20
-2502.3030222796988
10
1176.8615886449336
20
-2161.6228996777791
42
0.41421356237308815
10
1152.8615886449336
20
-2137.6228996777791
10
1090.8616027172166
20
-2137.6228996777791
42
0.41421356237309503
10
1066.8616027172166
20
-2161.6228996777791
10
1066.8616027172168
20
-2281.8874894137662
42
-0.41421356237308815
10
1042.8616027172168
20
-2305.8874894137662
10
958.51990104011122
20
-2305.8874894137662
10
956.86158864493359
20
-2307.5458018089439
10
955.20327624975562
20
-2305.8874894137662
10
870.86157457265017
20
-2305.8874894137662
42
-0.41421356237309503
10
846.86157457265017
20
-2281.8874894137662
10
846.86157457265028
20
-2161.6228996777791
42
0.41421356237308815
10
822.86157457265017
20
-2137.6228996777791
10
760.8615886449337
20
-2137.6228996777791
42
0.41421356237308815
10
736.86158864493359
20
-2161.6228996777791
0
LINE
5
123
100
AcDbEntity
8
1
100
AcDbLine
10
766.86158864493393
20
-2520.3030222796992
30
0
11
948.51981863307083
21
-2520.3030222796992
31
0
0
LINE
5
124
100
AcDbEntity
8
1
100
AcDbLine
10
948.51981863307083
20
-2520.3030222796992
30
0
11
948.51981863307083
21
-2500.7987678916325
31
0
0
LINE
5
125
100
AcDbEntity
8
1
100
AcDbLine
10
948.51981863307083
20
-2500.7987678916325
30
0
11
766.86158864493393
21
-2500.7987678916325
31
0
0
LINE
5
126
100
AcDbEntity
8
1
100
AcDbLine
10
766.86158864493393
20
-2500.7987678916325
30
0
11
766.86158864493393
21
-2520.3030222796992
31
0
0
LINE
5
127
100
AcDbEntity
8
0
100
AcDbLine
10
736.86158864493359
20
-2466.3030222796992
30
3.3162887251562648e-75
11
772.86158864493359
21
-2466.3030222796992
31
3.3162887251562648e-75
0
LINE
5
128
100
AcDbEntity
8
0
100
AcDbLine
10
736.86158864493359
20
-2466.3030222796992
30
3.3162887251562648e-75
11
742.3069250592057
21
-2463.7834367313599
31
0
0
LINE
5
129
100
AcDbEntity
8
0
100
AcDbLine
10
736.86158864493359
20
-2466.3030222796992
30
3.3162887251562648e-75
11
742.49974436964919
21
-2468.3551431396527
31
0
0
LINE
5
130
100
AcDbEntity
8
0
100
AcDbLine
10
1176.8615886449336
20
-2486.3030222796992
30
-1.6581443625781312e-75
11
1140.8615886449338
21
-2486.3030222796992
31
-1.6581443625781312e-75
0
LINE
5
131
100
AcDbEntity
8
0
100
AcDbLine
10
1176.8615886449336
20
-2486.3030222796992
30
-1.6581443625781312e-75
11
1171.2234329202181
21
-2484.2509014197449
31
0
0
LINE
5
132
100
AcDbEntity
8
0
100
AcDbLine
10
1176.8615886449336
20
-2486.3030222796992
30
-1.6581443625781312e-75
11
1171.2234329202181
21
-2488.3551431396527
31
0
0
LINE
5
133
100
AcDbEntity
8
0
100
AcDbLine
10
956.86158864496849
20
-2524.8744522260249
30
0
11
956.86158864496849
21
-2478.8744522260249
31
0
0
LINE
5
134
100
AcDbEntity
8
0
100
AcDbLine
10
956.86158864496849
20
-2486.3030222796992
30
0
11
992.86158864496838
21
-2486.3030222796992
31
0
0
LINE
5
135
100
AcDbEntity
8
0
100
AcDbLine
10
956.86158864496849
20
-2486.3030222796992
30
0
11
962.49974436968364
21
-2484.2509014197449
31
0
0
LINE
5
136
100
AcDbEntity
8
0
100
AcDbLine
10
962.49974436968398
20
-2488.3551431396527
30
0
11
956.86158864496849
21
-2486.3030222796992
31
0
0
LINE
5
137
100
AcDbEntity
8
0
100
AcDbLine
10
1176.8615886449336
20
-2466.3030222796992
30
-1.6581443625781312e-75
11
1140.8615886449338
21
-2466.3030222796992
31
-1.6581443625781312e-75
0
LINE
5
138
100
AcDbEntity
8
0
100
AcDbLine
10
1176.8615886449336
20
-2466.3030222796992
30
-1.6581443625781312e-75
11
1171.2234329202181
21
-2464.2509014197449
31
0
0
LINE
5
139
100
AcDbEntity
8
0
100
AcDbLine
10
1171.2234329202181
20
-2468.3551431396531
30
0
11
1176.8615886449336
21
-2466.3030222796992
31
-1.6581443625781312e-75
0
LINE
5
140
100
AcDbEntity
8
1
100
AcDbLine
10
744.86158864493359
20
-2465.0707251396088
30
0
11
781.94912701526175
21
-2465.0707251396088
31
0
0
LINE
5
141
100
AcDbEntity
8
1
100
AcDbLine
10
781.94912701526175
20
-2465.0707251396088
30
0
11
781.94912701526175
21
-2456.9538970933118
31
0
0
LINE
5
142
100
AcDbEntity
8
1
100
AcDbLine
10
781.94912701526175
20
-2456.9538970933118
30
0
11
744.86158864493359
21
-2456.9538970933118
31
0
0
LINE
5
143
100
AcDbEntity
8
1
100
AcDbLine
10
744.86158864493359
20
-2456.9538970933118
30
0
11
744.86158864493359
21
-2465.0707251396088
31
0
0
LINE
5
144
100
AcDbEntity
8
1
100
AcDbLine
10
964.86158864496838
20
-2484.3030222796992
30
0
11
997.3577102454185
21
-2484.3030222796992
31
0
0
LINE
5
145
100
AcDbEntity
8
1
100
AcDbLine
10
997.3577102454185
20
-2484.3030222796992
30
0
11
997.3577102454185
21
-2476.5105411639306
31
0
0
LINE
5
146
100
AcDbEntity
8
1
100
AcDbLine
10
997.3577102454185
20
-2476.5105411639306
30
0
11
964.86158864496838
21
-2476.5105411639306
31
0
0
LINE
5
147
100
AcDbEntity
8
1
100
AcDbLine
10
964.86158864496838
20
-2476.5105411639306
30
0
11
964.86158864496838
21
-2484.3030222796992
31
0
0
LINE
5
148
100
AcDbEntity
8
0
100
AcDbLine
10
770.07908879513764
20
-2520.3030217559208
30
0
11
767.73908874685787
21
-2520.3030217559208
31
0
0
LINE
5
149
100
AcDbEntity
8
0
100
AcDbLine
10
767.73908874685787
20
-2520.3030217559208
30
0
11
767.73908874685787
21
-2515.0380206973423
31
0
0
LINE
5
150
100
AcDbEntity
8
0
100
AcDbLine
10
767.73908874685787
20
-2515.0380206973423
30
0
11
770.07908879513764
21
-2515.0380206973423
31
0
0
LINE
5
151
100
AcDbEntity
8
0
100
AcDbLine
10
767.73908874685787
20
-2517.3780215651859
30
0
11
769.49408887619995
21
-2517.3780215651859
31
0
0
LINE
5
152
100
AcDbEntity
8
0
100
AcDbLine
10
771.39533876175904
20
-2516.2080217273106
30
0
11
772.85783855910324
21
-2515.0380206973423
31
0
0
LINE
5
153
100
AcDbEntity
8
0
100
AcDbLine
10
772.85783855910324
20
-2515.0380206973423
30
0
11
772.85783855910324
21
-2520.3030217559208
31
0
0
LINE
5
154
100
AcDbEntity
8
0
100
AcDbLine
10
771.39533876175904
20
-2520.3030217559208
30
0
11
774.32033865447067
21
-2520.3030217559208
31
0
0
LINE
5
155
100
AcDbEntity
8
0
100
AcDbLine
10
776.07533900733017
20
-2520.3030217559208
30
0
11
775.78283874983811
21
-2520.3030217559208
31
0
0
LINE
5
156
100
AcDbEntity
8
0
100
AcDbLine
10
775.78283874983811
20
-2520.3030217559208
30
0
11
775.78283874983811
21
-2520.0105214984287
31
0
0
LINE
5
157
100
AcDbEntity
8
0
100
AcDbLine
10
775.78283874983811
20
-2520.0105214984287
30
0
11
776.07533900733017
21
-2520.0105214984287
31
0
0
LINE
5
158
100
AcDbEntity
8
0
100
AcDbLine
10
776.07533900733017
20
-2520.0105214984287
30
0
11
776.07533900733017
21
-2520.3030217559208
31
0
0
LINE
5
159
100
AcDbEntity
8
0
100
AcDbLine
10
776.07533900733017
20
-2520.3030217559208
30
0
11
775.63658862109207
21
-2521.4730215937961
31
0
0
LINE
5
160
100
AcDbEntity
8
0
100
AcDbLine
10
780.02408831114792
20
-2520.3030217559208
30
0
11
780.02408831114792
21
-2516.7930210502018
31
0
0
LINE
5
161
100
AcDbEntity
8
0
100
AcDbLine
10
780.02408831114792
20
-2516.7930210502018
30
0
11
781.77908866400742
21
-2516.7930210502018
31
0
0
LINE
5
162
100
AcDbEntity
8
0
100
AcDbLine
10
781.77908866400742
20
-2516.7930210502018
30
0
11
781.77908866400742
21
-2517.3780215651859
31
0
0
LINE
5
163
100
AcDbEntity
8
0
100
AcDbLine
10
785.28908817763352
20
-2520.3030217559208
30
0
11
783.82658808226608
21
-2520.3030217559208
31
0
0
LINE
5
164
100
AcDbEntity
8
0
100
AcDbLine
10
782.94908850188278
20
-2519.4255221755375
30
0
11
782.94908850188278
21
-2517.96302208017
31
0
0
LINE
5
165
100
AcDbEntity
8
0
100
AcDbLine
10
785.28908817763352
20
-2517.96302208017
30
0
11
785.28908817763352
21
-2518.5480214030613
31
0
0
LINE
5
166
100
AcDbEntity
8
0
100
AcDbLine
10
785.28908817763352
20
-2518.5480214030613
30
0
11
782.94908850188278
21
-2518.5480214030613
31
0
0
ARC
5
167
100
AcDbEntity
8
0
100
AcDbCircle
10
783.72124640936875
20
-2519.5308638484348
30
0
40
0.77931083738803852
210
0
220
0
230
1
100
AcDbArc
50
172.2313888280961
51
277.76860320370986
0
ARC
5
168
100
AcDbEntity
8
0
100
AcDbCircle
10
784.11908833975815
20
-2517.96302208017
30
0
40
1.1700000613927839
210
0
220
0
230
1
100
AcDbArc
50
0
51
180.00000497831306
0
LINE
5
169
100
AcDbEntity
8
0
100
AcDbLine
10
789.09158914084458
20
-2518.2555211455692
30
0
11
787.77533738608383
21
-2518.2555211455692
31
0
0
LINE
5
170
100
AcDbEntity
8
0
100
AcDbLine
10
787.77533738608383
20
-2520.3030217559208
30
0
11
789.09158914084458
21
-2520.3030217559208
31
0
0
LINE
5
171
100
AcDbEntity
8
0
100
AcDbLine
10
789.09158914084458
20
-2520.3030217559208
30
0
11
789.09158914084458
21
-2517.670521822678
31
0
0
LINE
5
172
100
AcDbEntity
8
0
100
AcDbLine
10
788.21408956046128
20
-2516.7930210502018
30
0
11
787.04408853049301
21
-2516.7930210502018
31
0
0
ARC
5
173
100
AcDbEntity
8
0
100
AcDbCircle
10
787.77533738608383
20
-2519.279271450745
30
0
40
1.0237500816583631
210
0
220
0
230
1
100
AcDbArc
50
90.000002504477479
51
270.00000068324812
0
ARC
5
174
100
AcDbEntity
8
0
100
AcDbCircle
10
788.31943004126572
20
-2517.5651801497806
30
0
40
0.77931083738803852
210
0
220
0
230
1
100
AcDbArc
50
-7.7686198232944514
51
97.76861868530807
0
LINE
5
175
100
AcDbEntity
8
0
100
AcDbLine
10
790.84658830161118
20
-2520.3030217559208
30
0
11
790.84658830161118
21
-2516.7930210502018
31
0
0
LINE
5
176
100
AcDbEntity
8
0
100
AcDbLine
10
790.84658830161118
20
-2516.7930210502018
30
0
11
792.60158984656357
21
-2516.7930210502018
31
0
0
LINE
5
177
100
AcDbEntity
8
0
100
AcDbLine
10
792.60158984656357
20
-2516.7930210502018
30
0
11
792.60158984656357
21
-2517.3780215651859
31
0
0
LINE
5
178
100
AcDbEntity
8
0
100
AcDbLine
10
796.25783889288925
20
-2522.0580221087803
30
0
11
796.25783889288925
21
-2516.7930210502018
31
0
0
LINE
5
179
100
AcDbEntity
8
0
100
AcDbLine
10
796.25783889288925
20
-2516.7930210502018
30
0
11
797.72033898825669
21
-2516.7930210502018
31
0
0
LINE
5
180
100
AcDbEntity
8
0
100
AcDbLine
10
798.59783856863999
20
-2517.670521822678
30
0
11
798.59783856863999
21
-2519.4255221755375
31
0
0
LINE
5
181
100
AcDbEntity
8
0
100
AcDbLine
10
797.72033898825669
20
-2520.3030217559208
30
0
11
796.25783889288925
21
-2520.3030217559208
31
0
0
ARC
5
182
100
AcDbEntity
8
0
100
AcDbCircle
10
797.82568185324692
20
-2517.5651801497806
30
0
40
0.77931083738803852
210
0
220
0
230
1
100
AcDbArc
50
-7.7686198232944514
51
97.76861868530807
0
ARC
5
183
100
AcDbEntity
8
0
100
AcDbCircle
10
797.82568185324692
20
-2519.5308638484348
30
0
40
0.77931083738803852
210
0
220
0
230
1
100
AcDbArc
50
-97.768629157969158
51
7.7686161808485608
0
LINE
5
184
100
AcDbEntity
8
0
100
AcDbLine
10
802.40034072394394
20
-2520.3030217559208
30
0
11
800.93784062857651
21
-2520.3030217559208
31
0
0
LINE
5
185
100
AcDbEntity
8
0
100
AcDbLine
10
800.06034104819321
20
-2519.4255221755375
30
0
11
800.06034104819321
21
-2517.96302208017
31
0
0
LINE
5
186
100
AcDbEntity
8
0
100
AcDbLine
10
802.40034072394394
20
-2517.96302208017
30
0
11
802.40034072394394
21
-2518.5480214030613
31
0
0
LINE
5
187
100
AcDbEntity
8
0
100
AcDbLine
10
802.40034072394394
20
-2518.5480214030613
30
0
11
800.06034104819321
21
-2518.5480214030613
31
0
0
ARC
5
188
100
AcDbEntity
8
0
100
AcDbCircle
10
800.83249776358628
20
-2519.5308638484348
30
0
40
0.77931083738803852
210
0
220
0
230
1
100
AcDbArc
50
172.2313888280961
51
277.76860320370986
0
ARC
5
189
100
AcDbEntity
8
0
100
AcDbCircle
10
801.23033969397568
20
-2517.96302208017
30
0
40
1.1700000613927839
210
0
220
0
230
1
100
AcDbArc
50
0
51
180.00000497831306
0
LINE
5
190
100
AcDbEntity
8
0
100
AcDbLine
10
806.20284049506211
20
-2515.0380206973423
30
0
11
806.20284049506211
21
-2520.3030217559208
31
0
0
LINE
5
191
100
AcDbEntity
8
0
100
AcDbLine
10
806.20284049506211
20
-2520.3030217559208
30
0
11
804.74034039969467
21
-2520.3030217559208
31
0
0
LINE
5
192
100
AcDbEntity
8
0
100
AcDbLine
10
803.86284081931137
20
-2519.4255221755375
30
0
11
803.86284081931137
21
-2517.670521822678
31
0
0
LINE
5
193
100
AcDbEntity
8
0
100
AcDbLine
10
804.74034039969467
20
-2516.7930210502018
30
0
11
806.20284049506211
21
-2516.7930210502018
31
0
0
ARC
5
194
100
AcDbEntity
8
0
100
AcDbCircle
10
804.63499753470444
20
-2519.5308638484348
30
0
40
0.77931083738803852
210
0
220
0
230
1
100
AcDbArc
50
172.2313888280961
51
277.76860320370986
0
ARC
5
195
100
AcDbEntity
8
0
100
AcDbCircle
10
804.63499753470444
20
-2517.5651801497806
30
0
40
0.77931083738803852
210
0
220
0
230
1
100
AcDbArc
50
82.231386323642568
51
187.76862118979309
0
LINE
5
196
100
AcDbEntity
8
0
100
AcDbLine
10
810.15158860678696
20
-2518.2555211455692
30
0
11
808.83533685202622
21
-2518.2555211455692
31
0
0
LINE
5
197
100
AcDbEntity
8
0
100
AcDbLine
10
808.83533685202622
20
-2520.3030217559208
30
0
11
810.15158860678696
21
-2520.3030217559208
31
0
0
LINE
5
198
100
AcDbEntity
8
0
100
AcDbLine
10
810.15158860678696
20
-2520.3030217559208
30
0
11
810.15158860678696
21
-2517.670521822678
31
0
0
LINE
5
199
100
AcDbEntity
8
0
100
AcDbLine
10
809.27408902640366
20
-2516.7930210502018
30
0
11
808.1040879964354
21
-2516.7930210502018
31
0
0
ARC
5
200
100
AcDbEntity
8
0
100
AcDbCircle
10
808.83533685202622
20
-2519.279271450745
30
0
40
1.0237500816583631
210
0
220
0
230
1
100
AcDbArc
50
90.000002504477479
51
270.00000068324812
0
ARC
5
201
100
AcDbEntity
8
0
100
AcDbCircle
10
809.37943189139389
20
-2517.5651801497806
30
0
40
0.77931083738803852
210
0
220
0
230
1
100
AcDbArc
50
-7.7686198232944514
51
97.76861868530807
0
LINE
5
202
100
AcDbEntity
8
0
100
AcDbLine
10
811.90658776755356
20
-2515.0380206973423
30
0
11
811.90658776755356
21
-2519.4255221755375
31
0
0
ARC
5
203
100
AcDbEntity
8
0
100
AcDbCircle
10
812.67874448294663
20
-2519.5308638484348
30
0
40
0.77931083738803852
210
0
220
0
230
1
100
AcDbArc
50
172.2313888280961
51
277.76860320370986
0
LINE
5
204
100
AcDbEntity
8
0
100
AcDbLine
10
816.58659188742661
20
-2522.0580221087803
30
0
11
816.58659188742661
21
-2516.7930210502018
31
0
0
LINE
5
205
100
AcDbEntity
8
0
100
AcDbLine
10
816.58659188742661
20
-2516.7930210502018
30
0
11
818.04909436697983
21
-2516.7930210502018
31
0
0
LINE
5
206
100
AcDbEntity
8
0
100
AcDbLine
10
818.92659394736313
20
-2517.670521822678
30
0
11
818.92659394736313
21
-2519.4255221755375
31
0
0
LINE
5
207
100
AcDbEntity
8
0
100
AcDbLine
10
818.04909436697983
20
-2520.3030217559208
30
0
11
816.58659188742661
21
-2520.3030217559208
31
0
0
ARC
5
208
100
AcDbEntity
8
0
100
AcDbCircle
10
818.15443246359848
20
-2517.5651801497806
30
0
40
0.77931083738803852
210
0
220
0
230
1
100
AcDbArc
50
-7.7686198232944514
51
97.76861868530807
0
ARC
5
209
100
AcDbEntity
8
0
100
AcDbCircle
10
818.15443246359848
20
-2519.5308638484348
30
0
40
0.77931083738803852
210
0
220
0
230
1
100
AcDbArc
50
-97.768629157969158
51
7.7686161808485608
0
LINE
5
210
100
AcDbEntity
8
0
100
AcDbLine
10
820.53534238333725
20
-2515.0380206973423
30
0
11
820.53534238333725
21
-2519.4255221755375
31
0
0
ARC
5
211
100
AcDbEntity
8
0
100
AcDbCircle
10
821.30749909873032
20
-2519.5308638484348
30
0
40
0.77931083738803852
210
0
220
0
230
1
100
AcDbArc
50
172.2313888280961
51
277.76860320370986
0
LINE
5
212
100
AcDbEntity
8
0
100
AcDbLine
10
825.06909577841782
20
-2518.2555211455692
30
0
11
823.75284402365708
21
-2518.2555211455692
31
0
0
LINE
5
213
100
AcDbEntity
8
0
100
AcDbLine
10
823.75284402365708
20
-2520.3030217559208
30
0
11
825.06909577841782
21
-2520.3030217559208
31
0
0
LINE
5
214
100
AcDbEntity
8
0
100
AcDbLine
10
825.06909577841782
20
-2520.3030217559208
30
0
11
825.06909577841782
21
-2517.670521822678
31
0
0
LINE
5
215
100
AcDbEntity
8
0
100
AcDbLine
10
824.19159619803452
20
-2516.7930210502018
30
0
11
823.02159516806626
21
-2516.7930210502018
31
0
0
ARC
5
216
100
AcDbEntity
8
0
100
AcDbCircle
10
823.75284402365708
20
-2519.279271450745
30
0
40
1.0237500816583631
210
0
220
0
230
1
100
AcDbArc
50
90.000002504477479
51
270.00000068324812
0
ARC
5
217
100
AcDbEntity
8
0
100
AcDbCircle
10
824.29693906302475
20
-2517.5651801497806
30
0
40
0.77931083738803852
210
0
220
0
230
1
100
AcDbArc
50
-7.7686198232944514
51
97.76861868530807
0
LINE
5
218
100
AcDbEntity
8
0
100
AcDbLine
10
826.38534753317856
20
-2516.7930210502018
30
0
11
828.14034669394516
21
-2516.7930210502018
31
0
0
LINE
5
219
100
AcDbEntity
8
0
100
AcDbLine
10
826.9703456639769
20
-2515.0380206973423
30
0
11
826.9703456639769
21
-2519.4255221755375
31
0
0
LINE
5
220
100
AcDbEntity
8
0
100
AcDbLine
10
827.8478452443602
20
-2520.3030217559208
30
0
11
828.14034669394516
21
-2520.3030217559208
31
0
0
ARC
5
221
100
AcDbEntity
8
0
100
AcDbCircle
10
827.74250237936997
20
-2519.5308638484348
30
0
40
0.77931083738803852
210
0
220
0
230
1
100
AcDbArc
50
172.2313888280961
51
277.76860320370986
0
LINE
5
222
100
AcDbEntity
8
0
100
AcDbLine
10
831.79659574027085
20
-2520.3030217559208
30
0
11
830.33409326071762
21
-2520.3030217559208
31
0
0
LINE
5
223
100
AcDbEntity
8
0
100
AcDbLine
10
829.45659368033432
20
-2519.4255221755375
30
0
11
829.45659368033432
21
-2517.96302208017
31
0
0
LINE
5
224
100
AcDbEntity
8
0
100
AcDbLine
10
831.79659574027085
20
-2517.96302208017
30
0
11
831.79659574027085
21
-2518.5480214030613
31
0
0
LINE
5
225
100
AcDbEntity
8
0
100
AcDbLine
10
831.79659574027085
20
-2518.5480214030613
30
0
11
829.45659368033432
21
-2518.5480214030613
31
0
0
ARC
5
226
100
AcDbEntity
8
0
100
AcDbCircle
10
830.22875516409897
20
-2519.5308638484348
30
0
40
0.77931083738803852
210
0
220
0
230
1
100
AcDbArc
50
172.2313888280961
51
277.76860320370986
0
ARC
5
227
100
AcDbEntity
8
0
100
AcDbCircle
10
830.62659471030258
20
-2517.96302208017
30
0
40
1.1700000613927839
210
0
220
0
230
1
100
AcDbArc
50
0
51
180.00000497831306
0
LINE
5
228
100
AcDbEntity
8
0
100
AcDbLine
10
833.55159490103745
20
-2520.3030217559208
30
0
11
833.25909345145249
21
-2520.3030217559208
31
0
0
LINE
5
229
100
AcDbEntity
8
0
100
AcDbLine
10
833.25909345145249
20
-2520.3030217559208
30
0
11
833.25909345145249
21
-2520.0105214984287
31
0
0
LINE
5
230
100
AcDbEntity
8
0
100
AcDbLine
10
833.25909345145249
20
-2520.0105214984287
30
0
11
833.55159490103745
21
-2520.0105214984287
31
0
0
LINE
5
231
100
AcDbEntity
8
0
100
AcDbLine
10
833.55159490103745
20
-2520.0105214984287
30
0
11
833.55159490103745
21
-2520.3030217559208
31
0
0
LINE
5
232
100
AcDbEntity
8
0
100
AcDbLine
10
833.55159490103745
20
-2520.3030217559208
30
0
11
833.11284272666001
21
-2521.4730215937961
31
0
0
LINE
5
233
100
AcDbEntity
8
0
100
AcDbLine
10
837.35409467215561
20
-2516.2080217273106
30
0
11
838.81659715170883
21
-2515.0380206973423
31
0
0
LINE
5
234
100
AcDbEntity
8
0
100
AcDbLine
10
838.81659715170883
20
-2515.0380206973423
30
0
11
838.81659715170883
21
-2520.3030217559208
31
0
0
LINE
5
235
100
AcDbEntity
8
0
100
AcDbLine
10
837.35409467215561
20
-2520.3030217559208
30
0
11
840.27909486289047
21
-2520.3030217559208
31
0
0
LINE
5
236
100
AcDbEntity
8
0
100
AcDbLine
10
843.93534867758774
20
-2520.3030217559208
30
0
11
846.27535073752426
21
-2516.7930210502018
31
0
0
LINE
5
237
100
AcDbEntity
8
0
100
AcDbLine
10
843.93534867758774
20
-2516.7930210502018
30
0
11
846.27535073752426
21
-2520.3030217559208
31
0
0
LINE
5
238
100
AcDbEntity
8
0
100
AcDbLine
10
849.93159978384995
20
-2517.3780215651859
30
0
11
851.68659894461655
21
-2517.3780215651859
31
0
0
LINE
5
239
100
AcDbEntity
8
0
100
AcDbLine
10
852.85660474295639
20
-2518.5480214030613
30
0
11
852.85660474295639
21
-2518.8405216605533
31
0
0
LINE
5
240
100
AcDbEntity
8
0
100
AcDbLine
10
849.93159978384995
20
-2518.8405216605533
30
0
11
849.93159978384995
21
-2517.3780215651859
31
0
0
ARC
5
241
100
AcDbEntity
8
0
100
AcDbCircle
10
851.82705609793686
20
-2518.4075666339268
30
0
40
1.0390811413526533
210
0
220
0
230
1
100
AcDbArc
50
-7.7686198232875823
51
97.768618685319083
0
ARC
5
242
100
AcDbEntity
8
0
100
AcDbCircle
10
851.39409749503159
20
-2518.8405216605533
30
0
40
1.4625000953674314
210
0
220
0
230
1
100
AcDbArc
50
-179.99999502168694
51
0
0
ARC
5
243
100
AcDbEntity
8
0
100
AcDbCircle
10
851.99068753714585
20
-2517.097110834824
30
0
40
2.0781622827053066
210
0
220
0
230
1
100
AcDbArc
50
82.231386323639242
51
187.76862118978684
0
LINE
5
244
100
AcDbEntity
8
0
100
AcDbLine
10
856.80536000723862
20
-2520.3030217559208
30
0
11
856.80536000723862
21
-2516.7930210502018
31
0
0
LINE
5
245
100
AcDbEntity
8
0
100
AcDbLine
10
856.80536000723862
20
-2516.7930210502018
30
0
11
859.43785398001694
21
-2516.7930210502018
31
0
0
LINE
5
246
100
AcDbEntity
8
0
100
AcDbLine
10
860.31535832877182
20
-2517.670521822678
30
0
11
860.31535832877182
21
-2520.3030217559208
31
0
0
LINE
5
247
100
AcDbEntity
8
0
100
AcDbLine
10
858.56035916800522
20
-2520.3030217559208
30
0
11
858.56035916800522
21
-2516.7930210502018
31
0
0
ARC
5
248
100
AcDbEntity
8
0
100
AcDbCircle
10
859.54319684500717
20
-2517.5651801497806
30
0
40
0.77931083738803852
210
0
220
0
230
1
100
AcDbArc
50
-7.7686198232944514
51
97.76861868530807
0
LINE
5
249
100
AcDbEntity
8
0
100
AcDbLine
10
862.07035748953842
20
-2520.3030217559208
30
0
11
862.07035748953842
21
-2516.7930210502018
31
0
0
LINE
5
250
100
AcDbEntity
8
0
100
AcDbLine
10
862.07035748953842
20
-2516.7930210502018
30
0
11
864.70285146231674
21
-2516.7930210502018
31
0
0
LINE
5
251
100
AcDbEntity
8
0
100
AcDbLine
10
865.58035581107163
20
-2517.670521822678
30
0
11
865.58035581107163
21
-2520.3030217559208
31
0
0
LINE
5
252
100
AcDbEntity
8
0
100
AcDbLine
10
863.82535665030503
20
-2520.3030217559208
30
0
11
863.82535665030503
21
-2516.7930210502018
31
0
0
ARC
5
253
100
AcDbEntity
8
0
100
AcDbCircle
10
864.80819432730698
20
-2517.5651801497806
30
0
40
0.77931083738803852
210
0
220
0
230
1
100
AcDbArc
50
-7.7686198232944514
51
97.76861868530807
0
LINE
5
254
100
AcDbEntity
8
0
100
AcDbLine
10
869.67535703177475
20
-2522.0580221087803
30
0
11
869.67535703177475
21
-2516.7930210502018
31
0
0
LINE
5
255
100
AcDbEntity
8
0
100
AcDbLine
10
869.67535703177475
20
-2516.7930210502018
30
0
11
871.13785474295639
21
-2516.7930210502018
31
0
0
LINE
5
256
100
AcDbEntity
8
0
100
AcDbLine
10
872.01534955496811
20
-2517.670521822678
30
0
11
872.01534955496811
21
-2519.4255221755375
31
0
0
LINE
5
257
100
AcDbEntity
8
0
100
AcDbLine
10
871.13785474295639
20
-2520.3030217559208
30
0
11
869.67535703177475
21
-2520.3030217559208
31
0
0
ARC
5
258
100
AcDbEntity
8
0
100
AcDbCircle
10
871.24319760794663
20
-2517.5651801497806
30
0
40
0.77931083738803852
210
0
220
0
230
1
100
AcDbArc
50
-7.7686198232944514
51
97.76861868530807
0
ARC
5
259
100
AcDbEntity
8
0
100
AcDbCircle
10
871.24319760794663
20
-2519.5308638484348
30
0
40
0.77931083738803852
210
0
220
0
230
1
100
AcDbArc
50
-97.768629157969158
51
7.7686161808485608
0
LINE
5
260
100
AcDbEntity
8
0
100
AcDbLine
10
873.62410275931381
20
-2515.0380206973423
30
0
11
873.62410275931381
21
-2519.4255221755375
31
0
0
ARC
5
261
100
AcDbEntity
8
0
100
AcDbCircle
10
874.3962547063353
20
-2519.5308638484348
30
0
40
0.77931083738803852
210
0
220
0
230
1
100
AcDbArc
50
172.2313888280961
51
277.76860320370986
0
LINE
5
262
100
AcDbEntity
8
0
100
AcDbLine
10
875.67160336966538
20
-2522.0580221087803
30
0
11
876.25659673209213
21
-2522.0580221087803
31
0
0
LINE
5
263
100
AcDbEntity
8
0
100
AcDbLine
10
876.25659673209213
20
-2522.0580221087803
30
0
11
878.0116054296019
21
-2516.7930210502018
31
0
0
LINE
5
264
100
AcDbEntity
8
0
100
AcDbLine
10
875.67160336966538
20
-2516.7930210502018
30
0
11
876.84159963126206
21
-2520.3030217559208
31
0
0
LINE
5
265
100
AcDbEntity
8
0
100
AcDbLine
10
746.12908856863965
20
-2461.5607254848637
30
0
11
745.3490886270522
21
-2464.290725205914
31
0
0
LINE
5
266
100
AcDbEntity
8
0
100
AcDbLine
10
745.3490886270522
20
-2464.290725205914
30
0
11
747.29908855552662
21
-2464.290725205914
31
0
0
LINE
5
267
100
AcDbEntity
8
0
100
AcDbLine
10
746.71408848757733
20
-2463.5107251153149
30
0
11
746.71408848757733
21
-2465.070725296513
31
0
0
LINE
5
268
100
AcDbEntity
8
0
100
AcDbLine
10
749.05408846135128
20
-2461.5607254848637
30
0
11
748.27408866877545
21
-2464.290725205914
31
0
0
LINE
5
269
100
AcDbEntity
8
0
100
AcDbLine
10
748.27408866877545
20
-2464.290725205914
30
0
11
750.22408859724987
21
-2464.290725205914
31
0
0
LINE
5
270
100
AcDbEntity
8
0
100
AcDbLine
10
749.63908838028897
20
-2463.5107251153149
30
0
11
749.63908838028897
21
-2465.070725296513
31
0
0
LINE
5
271
100
AcDbEntity
8
0
100
AcDbLine
10
751.39408843512524
20
-2464.290725205914
30
0
11
752.95408861632336
21
-2462.340725873486
31
0
0
ARC
5
272
100
AcDbEntity
8
0
100
AcDbCircle
10
753.53615598673809
20
-2463.1875487313428
30
0
40
2.3405799269676204
210
0
220
0
230
1
100
AcDbArc
50
150.87151582165023
51
183.13924191375486
0
ARC
5
273
100
AcDbEntity
8
0
100
AcDbCircle
10
752.09441857333172
20
-2462.1706881270566
30
0
40
0.6151432916522025
210
0
220
0
230
1
100
AcDbArc
50
82.558477252805446
51
168.5168724102769
0
ARC
5
274
100
AcDbEntity
8
0
100
AcDbCircle
10
752.25375788207043
20
-2462.1706881270566
30
0
40
0.6151432916522025
210
0
220
0
230
1
100
AcDbArc
50
11.483124914754239
51
97.441520925947117
0
ARC
5
275
100
AcDbEntity
8
0
100
AcDbCircle
10
750.81202046866406
20
-2463.1875487313428
30
0
40
2.3405799269676204
210
0
220
0
230
1
100
AcDbArc
50
-3.1392542076397492
51
29.128478942024543
0
ARC
5
276
100
AcDbEntity
8
0
100
AcDbCircle
10
753.53615598673809
20
-2463.4439017520108
30
0
40
2.3405799269676204
210
0
220
0
230
1
100
AcDbArc
50
176.86075444376453
51
209.12848053587865
0
ARC
5
277
100
AcDbEntity
8
0
100
AcDbCircle
10
752.09441857333172
20
-2464.4607629523434
30
0
40
0.6151432916522025
210
0
220
0
230
1
100
AcDbArc
50
191.48312394724897
51
277.44151910472618
0
ARC
5
278
100
AcDbEntity
8
0
100
AcDbCircle
10
750.81202046866406
20
-2463.4439017520108
30
0
40
2.3405799269676204
210
0
220
0
230
1
100
AcDbArc
50
-29.128479169385184
51
3.1392467232071799
0
ARC
5
279
100
AcDbEntity
8
0
100
AcDbCircle
10
752.25375788207043
20
-2464.4607629523434
30
0
40
0.6151432916522025
210
0
220
0
230
1
100
AcDbArc
50
262.55848226175436
51
348.51687741923848
0
LINE
5
280
100
AcDbEntity
8
0
100
AcDbLine
10
755.78158872122754
20
-2465.070725296513
30
0
11
755.78158872122754
21
-2462.7307250247159
31
0
0
LINE
5
281
100
AcDbEntity
8
0
100
AcDbLine
10
755.78158872122754
20
-2462.7307250247159
30
0
11
757.53658788199414
21
-2462.7307250247159
31
0
0
LINE
5
282
100
AcDbEntity
8
0
100
AcDbLine
10
758.12158839697827
20
-2463.3157255397
30
0
11
758.12158839697827
21
-2465.070725296513
31
0
0
LINE
5
283
100
AcDbEntity
8
0
100
AcDbLine
10
756.9515885591029
20
-2465.070725296513
30
0
11
756.9515885591029
21
-2462.7307250247159
31
0
0
ARC
5
284
100
AcDbEntity
8
0
100
AcDbCircle
10
757.60681645865429
20
-2463.2454975590863
30
0
40
0.51954049617052067
210
0
220
0
230
1
100
AcDbArc
50
-7.7686198232757757
51
97.768618685297554
0
LINE
5
285
100
AcDbEntity
8
0
100
AcDbLine
10
759.29158823485363
20
-2465.070725296513
30
0
11
759.29158823485363
21
-2462.7307250247159
31
0
0
LINE
5
286
100
AcDbEntity
8
0
100
AcDbLine
10
759.29158823485363
20
-2462.7307250247159
30
0
11
761.04658739562024
21
-2462.7307250247159
31
0
0
LINE
5
287
100
AcDbEntity
8
0
100
AcDbLine
10
761.63158791060437
20
-2463.3157255397
30
0
11
761.63158791060437
21
-2465.070725296513
31
0
0
LINE
5
288
100
AcDbEntity
8
0
100
AcDbLine
10
760.461588072729
20
-2465.070725296513
30
0
11
760.461588072729
21
-2462.7307250247159
31
0
0
ARC
5
289
100
AcDbEntity
8
0
100
AcDbCircle
10
761.1168147801875
20
-2463.2454975590863
30
0
40
0.51954049617052067
210
0
220
0
230
1
100
AcDbArc
50
-7.7686198232757757
51
97.768618685297554
0
LINE
5
290
100
AcDbEntity
8
0
100
AcDbLine
10
967.00658859609257
20
-2482.3530224194619
30
0
11
965.34908862708699
21
-2484.3030223479363
31
0
0
LINE
5
291
100
AcDbEntity
8
0
100
AcDbLine
10
965.34908862708699
20
-2484.3030223479363
30
0
11
967.29908855556141
21
-2484.3030223479363
31
0
0
ARC
5
292
100
AcDbEntity
8
0
100
AcDbCircle
10
966.52693020104061
20
-2481.5651807417962
30
0
40
0.77931083738803864
210
0
220
0
230
1
100
AcDbArc
50
-7.7686198232933323
51
97.768618685312589
0
ARC
5
293
100
AcDbEntity
8
0
100
AcDbCircle
10
966.30386697052609
20
-2481.758498870382
30
0
40
0.97262687981128693
210
0
220
0
230
1
100
AcDbArc
50
83.048174495540806
51
169.0065696530126
0
ARC
5
294
100
AcDbEntity
8
0
100
AcDbCircle
10
966.51866273878704
20
-2481.7399826874826
30
0
40
0.78351080417633057
210
0
220
0
230
1
100
AcDbArc
50
-51.483278511483562
51
5.086102926795216
0
LINE
5
295
100
AcDbEntity
8
0
100
AcDbLine
10
969.9315883397926
20
-2482.3530224194619
30
0
11
968.27408866881024
21
-2484.3030223479363
31
0
0
LINE
5
296
100
AcDbEntity
8
0
100
AcDbLine
10
968.27408866881024
20
-2484.3030223479363
30
0
11
970.22408859728466
21
-2484.3030223479363
31
0
0
ARC
5
297
100
AcDbEntity
8
0
100
AcDbCircle
10
969.45193009375225
20
-2481.5651807417962
30
0
40
0.77931083738803864
210
0
220
0
230
1
100
AcDbArc
50
-7.7686198232933323
51
97.768618685312589
0
ARC
5
298
100
AcDbEntity
8
0
100
AcDbCircle
10
969.22886686323773
20
-2481.758498870382
30
0
40
0.97262687981128693
210
0
220
0
230
1
100
AcDbArc
50
83.048174495540806
51
169.0065696530126
0
ARC
5
299
100
AcDbEntity
8
0
100
AcDbCircle
10
969.44366263149868
20
-2481.7399826874826
30
0
40
0.78351080417633057
210
0
220
0
230
1
100
AcDbArc
50
-51.483278511483562
51
5.086102926795216
0
LINE
5
300
100
AcDbEntity
8
0
100
AcDbLine
10
971.39408843516003
20
-2483.5230222573373
30
0
11
972.95408861635815
21
-2481.5730229249093
31
0
0
ARC
5
301
100
AcDbEntity
8
0
100
AcDbCircle
10
973.53615598677288
20
-2482.4198457827661
30
0
40
2.3405799269676208
210
0
220
0
230
1
100
AcDbArc
50
150.87151582165023
51
183.13924191375486
0
ARC
5
302
100
AcDbEntity
8
0
100
AcDbCircle
10
972.09441857336651
20
-2481.4029851784799
30
0
40
0.61514329165220261
210
0
220
0
230
1
100
AcDbArc
50
82.558477252805446
51
168.5168724102769
0
ARC
5
303
100
AcDbEntity
8
0
100
AcDbCircle
10
972.25375788210522
20
-2481.4029851784799
30
0
40
0.61514329165220261
210
0
220
0
230
1
100
AcDbArc
50
11.483124914712732
51
97.441520925947117
0
ARC
5
304
100
AcDbEntity
8
0
100
AcDbCircle
10
970.81202046869885
20
-2482.4198457827661
30
0
40
2.3405799269676208
210
0
220
0
230
1
100
AcDbArc
50
-3.1392542076508936
51
29.128478942014837
0
ARC
5
305
100
AcDbEntity
8
0
100
AcDbCircle
10
973.53615598677288
20
-2482.6761988034341
30
0
40
2.3405799269676208
210
0
220
0
230
1
100
AcDbArc
50
176.86075444376453
51
209.12848053587865
0
ARC
5
306
100
AcDbEntity
8
0
100
AcDbCircle
10
972.09441857336651
20
-2483.6930600037667
30
0
40
0.61514329165220261
210
0
220
0
230
1
100
AcDbArc
50
191.48312394724897
51
277.44151910473664
0
ARC
5
307
100
AcDbEntity
8
0
100
AcDbCircle
10
970.81202046869885
20
-2482.6761988034341
30
0
40
2.3405799269676208
210
0
220
0
230
1
100
AcDbArc
50
-29.128479169385184
51
3.1392467232071799
0
ARC
5
308
100
AcDbEntity
8
0
100
AcDbCircle
10
972.25375788210522
20
-2483.6930600037667
30
0
40
0.61514329165220261
210
0
220
0
230
1
100
AcDbArc
50
262.55848226177034
51
348.51687741923848
0
LINE
5
309
100
AcDbEntity
8
0
100
AcDbLine
10
975.78158872126232
20
-2484.3030223479363
30
0
11
975.78158872126232
21
-2481.9630220761392
31
0
0
LINE
5
310
100
AcDbEntity
8
0
100
AcDbLine
10
975.78158872126232
20
-2481.9630220761392
30
0
11
977.53658788202893
21
-2481.9630220761392
31
0
0
LINE
5
311
100
AcDbEntity
8
0
100
AcDbLine
10
978.12158839701306
20
-2482.5480225911233
30
0
11
978.12158839701306
21
-2484.3030223479363
31
0
0
LINE
5
312
100
AcDbEntity
8
0
100
AcDbLine
10
976.95158855913769
20
-2484.3030223479363
30
0
11
976.95158855913769
21
-2481.9630220761392
31
0
0
ARC
5
313
100
AcDbEntity
8
0
100
AcDbCircle
10
977.60681645868908
20
-2482.4777946105096
30
0
40
0.51954049617052078
210
0
220
0
230
1
100
AcDbArc
50
-7.7686198232741468
51
97.768618685304347
0
LINE
5
314
100
AcDbEntity
8
0
100
AcDbLine
10
979.29158823488842
20
-2484.3030223479363
30
0
11
979.29158823488842
21
-2481.9630220761392
31
0
0
LINE
5
315
100
AcDbEntity
8
0
100
AcDbLine
10
979.29158823488842
20
-2481.9630220761392
30
0
11
981.04658739565502
21
-2481.9630220761392
31
0
0
LINE
5
316
100
AcDbEntity
8
0
100
AcDbLine
10
981.63158791063915
20
-2482.5480225911233
30
0
11
981.63158791063915
21
-2484.3030223479363
31
0
0
LINE
5
317
100
AcDbEntity
8
0
100
AcDbLine
10
980.46158807276379
20
-2484.3030223479363
30
0
11
980.46158807276379
21
-2481.9630220761392
31
0
0
ARC
5
318
100
AcDbEntity
8
0
100
AcDbCircle
10
981.11681478022228
20
-2482.4777946105096
30
0
40
0.51954049617052078
210
0
220
0
230
1
100
AcDbArc
50
-7.7686198232741468
51
97.768618685304347
0
ENDSEC
0
SECTION
2
OBJECTS
0
DICTIONARY
5
C
100
AcDbDictionary
3
ACAD_GROUP
350
D
3
ACAD_MLINESTYLE
350
17
0
DICTIONARY
5
D
100
AcDbDictionary
0
DICTIONARY
5
1A
330
C
100
AcDbDictionary
0
DICTIONARY
5
17
100
AcDbDictionary
0
ENDSEC
0
EOF
