0
SECTION
2
HEADER
9
$INSUNITS
70
4
9
$ACADVER
1
AC1014
9
$HANDSEED
5
FFFF
0
ENDSEC
0
SECTION
2
TABLES
0
TABLE
2
VPORT
5
8
100
AcDbSymbolTable
0
ENDTAB
0
TABLE
2
LTYPE
5
5
100
AcDbSymbolTable
0
LTYPE
5
14
100
AcDbSymbolTableRecord
100
AcDbLinetypeTableRecord
2
BYBLOCK
70
0
0
LTYPE
5
15
100
AcDbSymbolTableRecord
100
AcDbLinetypeTableRecord
2
BYLAYER
70
0
0
LTYPE
5
16
100
AcDbSymbolTableRecord
100
AcDbLinetypeTableRecord
2
DASHED
70
0
3
Dashed __ __ __ __ __ __ __ __ __ __ __ __ __ _
72
65
73
2
40
0.75
49
0.5
74
0
49
-0.25
74
0
0
ENDTAB
0
TABLE
2
LAYER
5
2
100
AcDbSymbolTable
70
3
0
LAYER
5
50
100
AcDbSymbolTableRecord
100
AcDbLayerTableRecord
2
1
70
0
62
7
6
DASHED
0
LAYER
5
51
100
AcDbSymbolTableRecord
100
AcDbLayerTableRecord
2
0
70
0
62
7
6
CONTINUOUS
0
ENDTAB
0
TABLE
2
STYLE
5
3
100
AcDbSymbolTable
70
1
0
STYLE
5
11
100
AcDbSymbolTableRecord
100
AcDbTextStyleTableRecord
2
STANDARD
70
0
0
ENDTAB
0
TABLE
2
VIEW
5
6
100
AcDbSymbolTable
70
0
0
ENDTAB
0
TABLE
2
UCS
5
7
100
AcDbSymbolTable
70
0
0
ENDTAB
0
TABLE
2
APPID
5
9
100
AcDbSymbolTable
70
2
0
APPID
5
12
100
AcDbSymbolTableRecord
100
AcDbRegAppTableRecord
2
ACAD
70
0
0
ENDTAB
0
TABLE
2
DIMSTYLE
5
A
100
AcDbSymbolTable
70
1
0
ENDTAB
0
TABLE
2
BLOCK_RECORD
5
1
100
AcDbSymbolTable
70
1
0
BLOCK_RECORD
5
1F
100
AcDbSymbolTableRecord
100
AcDbBlockTableRecord
2
*MODEL_SPACE
0
BLOCK_RECORD
5
1B
100
AcDbSymbolTableRecord
100
AcDbBlockTableRecord
2
*PAPER_SPACE
0
ENDTAB
0
ENDSEC
0
SECTION
2
BLOCKS
0
BLOCK
5
20
100
AcDbEntity
100
AcDbBlockBegin
2
*MODEL_SPACE
0
ENDBLK
5
21
100
AcDbEntity
100
AcDbBlockEnd
0
BLOCK
5
1C
100
AcDbEntity
100
AcDbBlockBegin
2
*PAPER_SPACE
0
ENDBLK
5
1D
100
AcDbEntity
100
AcDbBlockEnd
0
ENDSEC
0
SECTION
2
ENTITIES
0
CIRCLE
5
100
100
AcDbEntity
8
0
100
AcDbCircle
10
-1087.2234636208202
20
-1839.6258490857585
30
0
40
1.5000000000000568
210
0
220
0
230
1
0
CIRCLE
5
101
100
AcDbEntity
8
0
100
AcDbCircle
10
-752.54334101888901
20
-1839.6258490857608
30
0
40
1.5000000000000568
210
0
220
0
230
1
0
LWPOLYLINE
5
102
100
AcDbEntity
8
0
100
AcDbPolyline
90
44
70
1
43
0.0
10
-1102.2234636208218
20
-1844.4673182858073
42
0.30774434344008617
10
-1094.6367108260383
20
-1855.6263168567214
10
-832.93749245508411
20
-1959.1251511601317
42
-0.30774434902576669
10
-821.55736326290889
20
-1975.8636493838781
10
-821.55736389075832
20
-2006.6258533114976
10
-801.70108230576511
20
-2006.6258527366022
42
-1.0000007070599559
10
-797.55736491724088
20
-2010.9651621521684
10
-797.55736389075764
20
-2018.6258529153586
10
-761.64334137649064
20
-2018.6258529153588
10
-761.64334137655885
20
-2011.0455677703367
42
-1.0000004804325942
10
-757.58549477767633
20
-2006.6258527365449
10
-737.54334101889049
20
-2006.6258527365451
10
-737.54334137648868
20
-1994.7258487206009
10
-741.40657762049295
20
-1994.7258487206011
42
-0.99999999999999989
10
-743.54334137648812
20
-1989.1192240095052
10
-743.54334137648823
20
-1976.0785335726316
42
-0.67116080218200769
10
-743.54334137648857
20
-1970.5258487206011
10
-737.54334137648868
20
-1970.5258487206011
10
-737.54334137648868
20
-1934.7258487206009
10
-741.31441966568059
20
-1934.7258487206013
42
-0.99999999999999989
10
-743.54334137648789
20
-1929.1552196711043
10
-743.54334133536804
20
-1916.0448733050587
42
-1.0000000074505806
10
-741.18954278066008
20
-1910.5258487206011
10
-737.54334137648868
20
-1910.5258487206011
10
-737.54334101888901
20
-1824.6258490857608
10
-757.48657677861979
20
-1824.6258490857613
42
-0.99999999999999989
10
-761.54334101888958
20
-1820.2051405567054
10
-761.54334101888912
20
-1818.6258490857608
10
-809.5433410188889
20
-1818.6258490857604
10
-809.54334098913341
20
-1820.631997774776
42
-0.9999999925494194
10
-814.0209688997295
20
-1824.6258490857601
10
-869.57519463124322
20
-1824.6258490857597
42
-0.99999999999999989
10
-874.64334101888903
20
-1821.4143241841916
10
-874.64334101888903
20
-1818.6258490857599
10
-922.44334101888876
20
-1818.6258490857597
10
-922.44334101888876
20
-1821.2918361723064
42
-0.99999999999999989
10
-927.43176340406512
20
-1824.6258490857595
10
-1044.7684237553663
20
-1824.6258490857481
42
-0.99999999999999989
10
-1050.3234636208199
20
-1822.3583544124972
10
-1050.3234636208199
20
-1818.6258490857481
10
-1086.1234636208198
20
-1818.6258490857481
10
-1086.1234636208228
20
-1823.0913803626986
42
-0.99999999999999989
10
-1091.9239296139954
20
-1824.6258490857588
10
-1102.2234636208202
20
-1824.6258490857585
0
CIRCLE
5
103
100
AcDbEntity
8
0
100
AcDbCircle
10
-779.6003526336242
20
-2012.6258518511597
30
0
40
0.99999999999994316
210
0
220
-0
230
1
0
LINE
5
104
100
AcDbEntity
8
1
100
AcDbLine
10
-767.5433410188981
20
-1830.6258490857599
30
0
11
-878.53234415518705
21
-1830.6258490857599
31
0
0
LINE
5
105
100
AcDbEntity
8
1
100
AcDbLine
10
-878.53234415518705
20
-1830.6258490857599
30
0
11
-878.53234415518705
21
-1857.2647568965792
31
0
0
LINE
5
106
100
AcDbEntity
8
1
100
AcDbLine
10
-878.53234415518705
20
-1857.2647568965792
30
0
11
-767.5433410188981
21
-1857.2647568965792
31
0
0
LINE
5
107
100
AcDbEntity
8
1
100
AcDbLine
10
-767.5433410188981
20
-1857.2647568965792
30
0
11
-767.5433410188981
21
-1830.6258490857599
31
0
0
LINE
5
108
100
AcDbEntity
8
0
100
AcDbLine
10
-769.6883409700223
20
-1830.6258502984881
30
0
11
-768.12834101234159
21
-1830.6258502984881
31
0
0
LINE
5
109
100
AcDbEntity
8
0
100
AcDbLine
10
-768.12834101234159
20
-1830.6258502984881
30
0
11
-768.12834101234159
21
-1834.1358510042071
31
0
0
LINE
5
110
100
AcDbEntity
8
0
100
AcDbLine
10
-768.12834101234159
20
-1834.1358510042071
30
0
11
-769.6883409700223
21
-1834.1358510042071
31
0
0
LINE
5
111
100
AcDbEntity
8
0
100
AcDbLine
10
-768.12834101234159
20
-1832.5758496309161
30
0
11
-769.29834092472277
21
-1832.5758496309161
31
0
0
LINE
5
112
100
AcDbEntity
8
0
100
AcDbLine
10
-772.22334096644602
20
-1832.5758496309161
30
0
11
-770.56584069941721
21
-1830.6258502984881
31
0
0
LINE
5
113
100
AcDbEntity
8
0
100
AcDbLine
10
-770.56584069941721
20
-1830.6258502984881
30
0
11
-772.51584062789163
21
-1830.6258502984881
31
0
0
ARC
5
114
100
AcDbEntity
8
0
100
AcDbCircle
10
-771.74368242238245
20
-1833.3636919046282
30
0
40
0.77931083738803864
210
0
220
0
230
1
100
AcDbArc
50
172.23138017668896
51
277.76861868531256
0
ARC
5
115
100
AcDbEntity
8
0
100
AcDbCircle
10
-771.52061919186792
20
-1833.1703725839495
30
0
40
0.97262687981128693
210
0
220
0
230
1
100
AcDbArc
50
263.04817449553917
51
349.00656965302579
0
ARC
5
116
100
AcDbEntity
8
0
100
AcDbCircle
10
-771.73541496012888
20
-1833.1888905549883
30
0
40
0.78351080417633057
210
0
220
0
230
1
100
AcDbArc
50
128.51672148850611
51
185.08610292677864
0
LINE
5
117
100
AcDbEntity
8
0
100
AcDbLine
10
-773.68584106181345
20
-1830.6258502984881
30
0
11
-773.49084089015207
21
-1830.6258502984881
31
0
0
LINE
5
118
100
AcDbEntity
8
0
100
AcDbLine
10
-773.49084089015207
20
-1830.6258502984881
30
0
11
-773.49084089015207
21
-1830.8208504701495
31
0
0
LINE
5
119
100
AcDbEntity
8
0
100
AcDbLine
10
-773.49084089015207
20
-1830.8208504701495
30
0
11
-773.68584106181345
21
-1830.8208504701495
31
0
0
LINE
5
120
100
AcDbEntity
8
0
100
AcDbLine
10
-773.68584106181345
20
-1830.8208504701495
30
0
11
-773.68584106181345
21
-1830.6258502984881
31
0
0
LINE
5
121
100
AcDbEntity
8
0
100
AcDbLine
10
-773.68584106181345
20
-1830.6258502984881
30
0
11
-773.39334080432138
21
-1829.8458496118426
31
0
0
LINE
5
122
100
AcDbEntity
8
0
100
AcDbLine
10
-776.31834099505625
20
-1830.6258502984881
30
0
11
-776.31834099505625
21
-1832.9658499742388
31
0
0
LINE
5
123
100
AcDbEntity
8
0
100
AcDbLine
10
-776.31834099505625
20
-1832.9658499742388
30
0
11
-777.48834083293161
21
-1832.9658499742388
31
0
0
LINE
5
124
100
AcDbEntity
8
0
100
AcDbLine
10
-777.48834083293161
20
-1832.9658499742388
30
0
11
-777.48834083293161
21
-1832.5758496309161
31
0
0
LINE
5
125
100
AcDbEntity
8
0
100
AcDbLine
10
-779.8283399126359
20
-1830.6258502984881
30
0
11
-778.85334024642191
21
-1830.6258502984881
31
0
0
LINE
5
126
100
AcDbEntity
8
0
100
AcDbLine
10
-778.26834092353067
20
-1831.2108508134722
30
0
11
-778.26834092353067
21
-1832.1858492875933
31
0
0
LINE
5
127
100
AcDbEntity
8
0
100
AcDbLine
10
-779.8283399126359
20
-1832.1858492875933
30
0
11
-779.8283399126359
21
-1831.7958513284564
31
0
0
LINE
5
128
100
AcDbEntity
8
0
100
AcDbLine
10
-779.8283399126359
20
-1831.7958513284564
30
0
11
-778.26834092353067
21
-1831.7958513284564
31
0
0
ARC
5
129
100
AcDbEntity
8
0
100
AcDbCircle
10
-778.78311286185465
20
-1831.1406222368121
30
0
40
0.51954049617052078
210
0
220
0
230
1
100
AcDbArc
50
-7.7686111718599786
51
97.768603203705453
0
ARC
5
130
100
AcDbEntity
8
0
100
AcDbCircle
10
-779.04834041808328
20
-1832.1858492875933
30
0
40
0.78000001609325409
210
0
220
0
230
1
100
AcDbArc
50
-180
51
4.9783130603797136e-06
0
LINE
5
131
100
AcDbEntity
8
0
100
AcDbLine
10
-782.36333976004801
20
-1831.990849115932
30
0
11
-781.48584017966471
21
-1831.990849115932
31
0
0
LINE
5
132
100
AcDbEntity
8
0
100
AcDbLine
10
-781.48584017966471
20
-1830.6258502984881
30
0
11
-782.36333976004801
21
-1830.6258502984881
31
0
0
LINE
5
133
100
AcDbEntity
8
0
100
AcDbLine
10
-782.36333976004801
20
-1830.6258502984881
30
0
11
-782.36333976004801
21
-1832.3808494592547
31
0
0
LINE
5
134
100
AcDbEntity
8
0
100
AcDbLine
10
-781.77834043715677
20
-1832.9658499742388
30
0
11
-780.99833975051126
21
-1832.9658499742388
31
0
0
ARC
5
135
100
AcDbEntity
8
0
100
AcDbCircle
10
-781.48584017966471
20
-1831.30834970721
30
0
40
0.68249993026256561
210
0
220
0
230
1
100
AcDbArc
50
-89.999997495522095
51
90.000000683245062
0
ARC
5
136
100
AcDbEntity
8
0
100
AcDbCircle
10
-781.84856782172403
20
-1832.4510780359149
30
0
40
0.51954049617052078
210
0
220
0
230
1
100
AcDbArc
50
172.2313801766993
51
277.76861868531677
0
LINE
5
137
100
AcDbEntity
8
0
100
AcDbLine
10
-783.53334079001627
20
-1830.6258502984881
30
0
11
-783.53334079001627
21
-1832.9658499742388
31
0
0
LINE
5
138
100
AcDbEntity
8
0
100
AcDbLine
10
-783.53334079001627
20
-1832.9658499742388
30
0
11
-784.70334062789163
21
-1832.9658499742388
31
0
0
LINE
5
139
100
AcDbEntity
8
0
100
AcDbLine
10
-784.70334062789163
20
-1832.9658499742388
30
0
11
-784.70334062789163
21
-1832.5758496309161
31
0
0
LINE
5
140
100
AcDbEntity
8
0
100
AcDbLine
10
-787.14084038947306
20
-1829.4558492685198
30
0
11
-787.14084038947306
21
-1832.9658499742388
31
0
0
LINE
5
141
100
AcDbEntity
8
0
100
AcDbLine
10
-787.14084038947306
20
-1832.9658499742388
30
0
11
-788.11583886359415
21
-1832.9658499742388
31
0
0
LINE
5
142
100
AcDbEntity
8
0
100
AcDbLine
10
-788.70083937857828
20
-1832.3808494592547
30
0
11
-788.70083937857828
21
-1831.2108508134722
31
0
0
LINE
5
143
100
AcDbEntity
8
0
100
AcDbLine
10
-788.11583886359415
20
-1830.6258502984881
30
0
11
-787.14084038947306
21
-1830.6258502984881
31
0
0
ARC
5
144
100
AcDbEntity
8
0
100
AcDbCircle
10
-788.18606744025431
20
-1832.4510780359149
30
0
40
0.51954049617052078
210
0
220
0
230
1
100
AcDbArc
50
172.2313801766993
51
277.76861868531677
0
ARC
5
145
100
AcDbEntity
8
0
100
AcDbCircle
10
-788.18606744025431
20
-1831.1406222368121
30
0
40
0.51954049617052078
210
0
220
0
230
1
100
AcDbArc
50
82.231370842023892
51
187.76861618083007
0
LINE
5
146
100
AcDbEntity
8
0
100
AcDbLine
10
-791.23583922599039
20
-1830.6258502984881
30
0
11
-790.2608383676835
21
-1830.6258502984881
31
0
0
LINE
5
147
100
AcDbEntity
8
0
100
AcDbLine
10
-789.67583785269937
20
-1831.2108508134722
30
0
11
-789.67583785269937
21
-1832.1858492875933
31
0
0
LINE
5
148
100
AcDbEntity
8
0
100
AcDbLine
10
-791.23583922599039
20
-1832.1858492875933
30
0
11
-791.23583922599039
21
-1831.7958513284564
31
0
0
LINE
5
149
100
AcDbEntity
8
0
100
AcDbLine
10
-791.23583922599039
20
-1831.7958513284564
30
0
11
-789.67583785269937
21
-1831.7958513284564
31
0
0
ARC
5
150
100
AcDbEntity
8
0
100
AcDbCircle
10
-790.19060979102335
20
-1831.1406222368121
30
0
40
0.51954049617052078
210
0
220
0
230
1
100
AcDbArc
50
-7.7686111718599786
51
97.768603203705453
0
ARC
5
151
100
AcDbEntity
8
0
100
AcDbCircle
10
-790.45583853934488
20
-1832.1858492875933
30
0
40
0.78000001609325409
210
0
220
0
230
1
100
AcDbArc
50
-180
51
4.9783130603797136e-06
0
LINE
5
152
100
AcDbEntity
8
0
100
AcDbLine
10
-793.7708390734025
20
-1834.1358510042071
30
0
11
-793.7708390734025
21
-1830.6258502984881
31
0
0
LINE
5
153
100
AcDbEntity
8
0
100
AcDbLine
10
-793.7708390734025
20
-1830.6258502984881
30
0
11
-792.79583821509561
21
-1830.6258502984881
31
0
0
LINE
5
154
100
AcDbEntity
8
0
100
AcDbLine
10
-792.21083770011148
20
-1831.2108508134722
30
0
11
-792.21083770011148
21
-1832.3808494592547
31
0
0
LINE
5
155
100
AcDbEntity
8
0
100
AcDbLine
10
-792.79583821509561
20
-1832.9658499742388
30
0
11
-793.7708390734025
21
-1832.9658499742388
31
0
0
ARC
5
156
100
AcDbEntity
8
0
100
AcDbCircle
10
-792.72560963843546
20
-1831.1406222368121
30
0
40
0.51954049617052078
210
0
220
0
230
1
100
AcDbArc
50
-7.7686111718599786
51
97.768603203705453
0
ARC
5
157
100
AcDbEntity
8
0
100
AcDbCircle
10
-792.72560963843546
20
-1832.4510780359149
30
0
40
0.51954049617052078
210
0
220
0
230
1
100
AcDbArc
50
-97.768613676355756
51
7.7686211897983961
0
LINE
5
158
100
AcDbEntity
8
0
100
AcDbLine
10
-796.4033378145524
20
-1831.990849115932
30
0
11
-795.5258382341691
21
-1831.990849115932
31
0
0
LINE
5
159
100
AcDbEntity
8
0
100
AcDbLine
10
-795.5258382341691
20
-1830.6258502984881
30
0
11
-796.4033378145524
21
-1830.6258502984881
31
0
0
LINE
5
160
100
AcDbEntity
8
0
100
AcDbLine
10
-796.4033378145524
20
-1830.6258502984881
30
0
11
-796.4033378145524
21
-1832.3808494592547
31
0
0
LINE
5
161
100
AcDbEntity
8
0
100
AcDbLine
10
-795.81833729956827
20
-1832.9658499742388
30
0
11
-795.03833661292276
21
-1832.9658499742388
31
0
0
ARC
5
162
100
AcDbEntity
8
0
100
AcDbCircle
10
-795.5258382341691
20
-1831.30834970721
30
0
40
0.68249993026256561
210
0
220
0
230
1
100
AcDbArc
50
-89.999997495522095
51
90.000000683245062
0
ARC
5
163
100
AcDbEntity
8
0
100
AcDbCircle
10
-795.88856587622843
20
-1832.4510780359149
30
0
40
0.51954049617052078
210
0
220
0
230
1
100
AcDbArc
50
172.2313801766993
51
277.76861868531677
0
LINE
5
164
100
AcDbEntity
8
0
100
AcDbLine
10
-797.57333646033487
20
-1834.1358510042071
30
0
11
-797.57333646033487
21
-1831.2108508134722
31
0
0
ARC
5
165
100
AcDbEntity
8
0
100
AcDbCircle
10
-798.08810839865885
20
-1831.1406222368121
30
0
40
0.51954049617052078
210
0
220
0
230
1
100
AcDbArc
50
-7.7686111718599786
51
97.768603203705453
0
LINE
5
166
100
AcDbEntity
8
0
100
AcDbLine
10
-800.69333443854532
20
-1834.1358510042071
30
0
11
-800.69333443854532
21
-1830.6258502984881
31
0
0
LINE
5
167
100
AcDbEntity
8
0
100
AcDbLine
10
-800.69333443854532
20
-1830.6258502984881
30
0
11
-801.66833291266641
21
-1830.6258502984881
31
0
0
LINE
5
168
100
AcDbEntity
8
0
100
AcDbLine
10
-802.25333342765055
20
-1831.2108508134722
30
0
11
-802.25333342765055
21
-1832.3808494592547
31
0
0
LINE
5
169
100
AcDbEntity
8
0
100
AcDbLine
10
-801.66833291266641
20
-1832.9658499742388
30
0
11
-800.69333443854532
21
-1832.9658499742388
31
0
0
ARC
5
170
100
AcDbEntity
8
0
100
AcDbCircle
10
-801.73856148932657
20
-1831.1406222368121
30
0
40
0.51954049617052078
210
0
220
0
230
1
100
AcDbArc
50
82.231370842023892
51
187.76861618083007
0
ARC
5
171
100
AcDbEntity
8
0
100
AcDbCircle
10
-801.73856148932657
20
-1832.4510780359149
30
0
40
0.51954049617052078
210
0
220
0
230
1
100
AcDbArc
50
172.2313801766993
51
277.76861868531677
0
LINE
5
172
100
AcDbEntity
8
0
100
AcDbLine
10
-803.32583317969522
20
-1830.6258502984881
30
0
11
-803.32583317969522
21
-1832.9658499742388
31
0
0
LINE
5
173
100
AcDbEntity
8
0
100
AcDbLine
10
-803.32583317969522
20
-1832.9658499742388
30
0
11
-804.49583182547769
21
-1832.9658499742388
31
0
0
LINE
5
174
100
AcDbEntity
8
0
100
AcDbLine
10
-804.49583182547769
20
-1832.9658499742388
30
0
11
-804.49583182547769
21
-1832.5758496309161
31
0
0
LINE
5
175
100
AcDbEntity
8
0
100
AcDbLine
10
-806.83583388541422
20
-1831.990849115932
30
0
11
-805.95833430503092
21
-1831.990849115932
31
0
0
LINE
5
176
100
AcDbEntity
8
0
100
AcDbLine
10
-805.95833430503092
20
-1830.6258502984881
30
0
11
-806.83583388541422
21
-1830.6258502984881
31
0
0
LINE
5
177
100
AcDbEntity
8
0
100
AcDbLine
10
-806.83583388541422
20
-1830.6258502984881
30
0
11
-806.83583388541422
21
-1832.3808494592547
31
0
0
LINE
5
178
100
AcDbEntity
8
0
100
AcDbLine
10
-806.25083337043009
20
-1832.9658499742388
30
0
11
-805.47083268378458
21
-1832.9658499742388
31
0
0
ARC
5
179
100
AcDbEntity
8
0
100
AcDbCircle
10
-805.95833430503092
20
-1831.30834970721
30
0
40
0.68249993026256561
210
0
220
0
230
1
100
AcDbArc
50
-89.999997495522095
51
90.000000683245062
0
ARC
5
180
100
AcDbEntity
8
0
100
AcDbCircle
10
-806.32106194709024
20
-1832.4510780359149
30
0
40
0.51954049617052078
210
0
220
0
230
1
100
AcDbArc
50
172.2313801766993
51
277.76861868531677
0
LINE
5
181
100
AcDbEntity
8
0
100
AcDbLine
10
-809.27333007071695
20
-1830.6258502984881
30
0
11
-808.49333415244303
21
-1830.6258502984881
31
0
0
LINE
5
182
100
AcDbEntity
8
0
100
AcDbLine
10
-807.9083312532731
20
-1831.2108508134722
30
0
11
-807.9083312532731
21
-1832.3808494592547
31
0
0
LINE
5
183
100
AcDbEntity
8
0
100
AcDbLine
10
-808.49333415244303
20
-1832.9658499742388
30
0
11
-809.27333007071695
21
-1832.9658499742388
31
0
0
ARC
5
184
100
AcDbEntity
8
0
100
AcDbCircle
10
-808.42310557578287
20
-1831.1406222368121
30
0
40
0.51954049617052067
210
0
220
0
230
1
100
AcDbArc
50
-7.7686111718599786
51
97.768603203705453
0
ARC
5
185
100
AcDbEntity
8
0
100
AcDbCircle
10
-808.42310557578287
20
-1832.4510780359149
30
0
40
0.51954049617052067
210
0
220
0
230
1
100
AcDbArc
50
-97.768613676355756
51
7.7686211897983961
0
LINE
5
186
100
AcDbEntity
8
0
100
AcDbLine
10
-810.24832854483805
20
-1830.6258502984881
30
0
11
-810.24832854483805
21
-1834.1358510042071
31
0
0
LINE
5
187
100
AcDbEntity
8
0
100
AcDbLine
10
-811.80832991812906
20
-1832.9658499742388
30
0
11
-810.24832854483805
21
-1831.7958513284564
31
0
0
LINE
5
188
100
AcDbEntity
8
0
100
AcDbLine
10
-811.80832991812906
20
-1830.6258502984881
30
0
11
-810.93083033774576
21
-1832.2833505655169
31
0
0
LINE
5
189
100
AcDbEntity
8
0
100
AcDbLine
10
-814.24583087180338
20
-1830.6258502984881
30
0
11
-813.27083239768228
21
-1830.6258502984881
31
0
0
LINE
5
190
100
AcDbEntity
8
0
100
AcDbLine
10
-812.68582949851236
20
-1831.2108508134722
30
0
11
-812.68582949851236
21
-1832.1858492875933
31
0
0
LINE
5
191
100
AcDbEntity
8
0
100
AcDbLine
10
-814.24583087180338
20
-1832.1858492875933
30
0
11
-814.24583087180338
21
-1831.7958513284564
31
0
0
LINE
5
192
100
AcDbEntity
8
0
100
AcDbLine
10
-814.24583087180338
20
-1831.7958513284564
30
0
11
-812.68582949851236
21
-1831.7958513284564
31
0
0
ARC
5
193
100
AcDbEntity
8
0
100
AcDbCircle
10
-813.20060382102213
20
-1831.1406222368121
30
0
40
0.51954049617052067
210
0
220
0
230
1
100
AcDbArc
50
-7.7686111718599786
51
97.768603203705453
0
ARC
5
194
100
AcDbEntity
8
0
100
AcDbCircle
10
-813.46583018515787
20
-1832.1858492875933
30
0
40
0.78000001609325409
210
0
220
0
230
1
100
AcDbArc
50
-180
51
4.9783130603797136e-06
0
LINE
5
195
100
AcDbEntity
8
0
100
AcDbLine
10
-815.02583155844889
20
-1832.9658499742388
30
0
11
-816.19582782004557
21
-1832.9658499742388
31
0
0
LINE
5
196
100
AcDbEntity
8
0
100
AcDbLine
10
-815.41583190177164
20
-1834.1358510042071
30
0
11
-815.41583190177164
21
-1831.2108508134722
31
0
0
LINE
5
197
100
AcDbEntity
8
0
100
AcDbLine
10
-816.00083003256998
20
-1830.6258502984881
30
0
11
-816.19582782004557
21
-1830.6258502984881
31
0
0
ARC
5
198
100
AcDbEntity
8
0
100
AcDbCircle
10
-815.93060145590982
20
-1831.1406222368121
30
0
40
0.51954049617052067
210
0
220
0
230
1
100
AcDbArc
50
-7.7686111718599786
51
97.768603203705453
0
LINE
5
199
100
AcDbEntity
8
0
100
AcDbLine
10
-819.90082869742594
20
-1831.600851156795
30
0
11
-818.92583022330484
21
-1831.990849115932
31
0
0
ARC
5
200
100
AcDbEntity
8
0
100
AcDbCircle
10
-819.08476481650553
20
-1832.4660626436114
30
0
40
0.50108645111322392
210
0
220
0
230
1
100
AcDbArc
50
-94.127412509068421
51
71.507536712992234
0
ARC
5
201
100
AcDbEntity
8
0
100
AcDbCircle
10
-819.17876849387369
20
-1831.1546984697222
30
0
40
1.8120776116847992
210
0
220
0
230
1
100
AcDbArc
50
243.11012147802805
51
271.83226222103741
0
ARC
5
202
100
AcDbEntity
8
0
100
AcDbCircle
10
-819.73748336051187
20
-1831.1265197778582
30
0
40
0.5016685277223587
210
0
220
0
230
1
100
AcDbArc
50
86.382131442158865
51
250.99800642214817
0
ARC
5
203
100
AcDbEntity
8
0
100
AcDbCircle
10
-819.52724585746012
20
-1832.6905098939776
30
0
40
2.0723696053028107
210
0
220
0
230
1
100
AcDbArc
50
64.446760356613098
51
94.943527679958805
0
LINE
5
204
100
AcDbEntity
8
0
100
AcDbLine
10
-821.26582751486978
20
-1830.6258502984881
30
0
11
-821.26582751486978
21
-1832.9658499742388
31
0
0
LINE
5
205
100
AcDbEntity
8
0
100
AcDbLine
10
-821.16832862113199
20
-1833.9408508325457
30
0
11
-821.16832862113199
21
-1834.1358510042071
31
0
0
LINE
5
206
100
AcDbEntity
8
0
100
AcDbLine
10
-821.16832862113199
20
-1834.1358510042071
30
0
11
-821.36333117697916
21
-1834.1358510042071
31
0
0
LINE
5
207
100
AcDbEntity
8
0
100
AcDbLine
10
-821.36333117697916
20
-1834.1358510042071
30
0
11
-821.36333117697916
21
-1833.9408508325457
31
0
0
LINE
5
208
100
AcDbEntity
8
0
100
AcDbLine
10
-821.36333117697916
20
-1833.9408508325457
30
0
11
-821.16832862113199
21
-1833.9408508325457
31
0
0
LINE
5
209
100
AcDbEntity
8
0
100
AcDbLine
10
-823.89833102439127
20
-1834.1358510042071
30
0
11
-823.89833102439127
21
-1830.6258502984881
31
0
0
LINE
5
210
100
AcDbEntity
8
0
100
AcDbLine
10
-823.89833102439127
20
-1830.6258502984881
30
0
11
-822.92333255027017
21
-1830.6258502984881
31
0
0
LINE
5
211
100
AcDbEntity
8
0
100
AcDbLine
10
-822.33832965110025
20
-1831.2108508134722
30
0
11
-822.33832965110025
21
-1832.3808494592547
31
0
0
LINE
5
212
100
AcDbEntity
8
0
100
AcDbLine
10
-822.92333255027017
20
-1832.9658499742388
30
0
11
-823.89833102439127
21
-1832.9658499742388
31
0
0
ARC
5
213
100
AcDbEntity
8
0
100
AcDbCircle
10
-822.85310397361002
20
-1831.1406222368121
30
0
40
0.51954049617052067
210
0
220
0
230
1
100
AcDbArc
50
-7.7686111718599786
51
97.768603203705453
0
ARC
5
214
100
AcDbEntity
8
0
100
AcDbCircle
10
-822.85310397361002
20
-1832.4510780359149
30
0
40
0.51954049617052067
210
0
220
0
230
1
100
AcDbArc
50
-97.768613676355756
51
7.7686211897983961
0
LINE
5
215
100
AcDbEntity
8
0
100
AcDbLine
10
-826.53082976554117
20
-1830.6258502984881
30
0
11
-825.55583129142008
21
-1830.6258502984881
31
0
0
LINE
5
216
100
AcDbEntity
8
0
100
AcDbLine
10
-824.97082839225016
20
-1831.2108508134722
30
0
11
-824.97082839225016
21
-1832.1858492875933
31
0
0
LINE
5
217
100
AcDbEntity
8
0
100
AcDbLine
10
-826.53082976554117
20
-1832.1858492875933
30
0
11
-826.53082976554117
21
-1831.7958513284564
31
0
0
LINE
5
218
100
AcDbEntity
8
0
100
AcDbLine
10
-826.53082976554117
20
-1831.7958513284564
30
0
11
-824.97082839225016
21
-1831.7958513284564
31
0
0
ARC
5
219
100
AcDbEntity
8
0
100
AcDbCircle
10
-825.48560271475992
20
-1831.1406222368121
30
0
40
0.51954049617052067
210
0
220
0
230
1
100
AcDbArc
50
-7.7686111718599786
51
97.768603203705453
0
ARC
5
220
100
AcDbEntity
8
0
100
AcDbCircle
10
-825.75082907889566
20
-1832.1858492875933
30
0
40
0.78000001609325409
210
0
220
0
230
1
100
AcDbArc
50
-180
51
4.9783130603797136e-06
0
LINE
5
221
100
AcDbEntity
8
0
100
AcDbLine
10
-827.70083079550943
20
-1830.6258502984881
30
0
11
-827.50582823966226
21
-1830.6258502984881
31
0
0
LINE
5
222
100
AcDbEntity
8
0
100
AcDbLine
10
-827.50582823966226
20
-1830.6258502984881
30
0
11
-827.50582823966226
21
-1830.8208504701495
31
0
0
LINE
5
223
100
AcDbEntity
8
0
100
AcDbLine
10
-827.50582823966226
20
-1830.8208504701495
30
0
11
-827.70083079550943
21
-1830.8208504701495
31
0
0
LINE
5
224
100
AcDbEntity
8
0
100
AcDbLine
10
-827.70083079550943
20
-1830.8208504701495
30
0
11
-827.70083079550943
21
-1830.6258502984881
31
0
0
LINE
5
225
100
AcDbEntity
8
0
100
AcDbLine
10
-827.70083079550943
20
-1830.6258502984881
30
0
11
-827.40832934592447
21
-1829.8458496118426
31
0
0
LINE
5
226
100
AcDbEntity
8
0
100
AcDbLine
10
-831.89333090995035
20
-1832.5758496309161
30
0
11
-830.23583064292154
21
-1830.6258502984881
31
0
0
LINE
5
227
100
AcDbEntity
8
0
100
AcDbLine
10
-830.23583064292154
20
-1830.6258502984881
30
0
11
-832.18583235953531
21
-1830.6258502984881
31
0
0
ARC
5
228
100
AcDbEntity
8
0
100
AcDbCircle
10
-831.41367087577066
20
-1833.3636919046282
30
0
40
0.77931083738803864
210
0
220
0
230
1
100
AcDbArc
50
172.23138017668896
51
277.76861868531256
0
ARC
5
229
100
AcDbEntity
8
0
100
AcDbCircle
10
-831.19061122153482
20
-1833.1703725839495
30
0
40
0.97262687981128693
210
0
220
0
230
1
100
AcDbArc
50
263.04817449553917
51
349.00656965302579
0
ARC
5
230
100
AcDbEntity
8
0
100
AcDbCircle
10
-831.405407287819
20
-1833.1888905549883
30
0
40
0.78351080417633057
210
0
220
0
230
1
100
AcDbArc
50
128.51672148850611
51
185.08610292677864
0
LINE
5
231
100
AcDbEntity
8
0
100
AcDbLine
10
-834.62333331320963
20
-1830.6258502984881
30
0
11
-836.18333468650064
21
-1832.9658499742388
31
0
0
LINE
5
232
100
AcDbEntity
8
0
100
AcDbLine
10
-834.62333331320963
20
-1832.9658499742388
30
0
11
-836.18333468650064
21
-1830.6258502984881
31
0
0
LINE
5
233
100
AcDbEntity
8
0
100
AcDbLine
10
-838.62083564017496
20
-1833.3558503175616
30
0
11
-839.59583411429605
21
-1834.1358510042071
31
0
0
LINE
5
234
100
AcDbEntity
8
0
100
AcDbLine
10
-839.59583411429605
20
-1834.1358510042071
30
0
11
-839.59583411429605
21
-1830.6258502984881
31
0
0
LINE
5
235
100
AcDbEntity
8
0
100
AcDbLine
10
-838.62083564017496
20
-1830.6258502984881
30
0
11
-840.57083735678873
21
-1830.6258502984881
31
0
0
LINE
5
236
100
AcDbEntity
8
0
100
AcDbLine
10
-843.20333609793863
20
-1832.5758496309161
30
0
11
-841.54583583090982
21
-1830.6258502984881
31
0
0
LINE
5
237
100
AcDbEntity
8
0
100
AcDbLine
10
-841.54583583090982
20
-1830.6258502984881
30
0
11
-843.49583754752359
21
-1830.6258502984881
31
0
0
ARC
5
238
100
AcDbEntity
8
0
100
AcDbCircle
10
-842.72367606375894
20
-1833.3636919046282
30
0
40
0.77931083738803864
210
0
220
0
230
1
100
AcDbArc
50
172.23138017668896
51
277.76861868531256
0
ARC
5
239
100
AcDbEntity
8
0
100
AcDbCircle
10
-842.5006164095231
20
-1833.1703725839495
30
0
40
0.97262687981128693
210
0
220
0
230
1
100
AcDbArc
50
263.04817449553917
51
349.00656965302579
0
ARC
5
240
100
AcDbEntity
8
0
100
AcDbCircle
10
-842.71541247580728
20
-1833.1888905549883
30
0
40
0.78351080417633057
210
0
220
0
230
1
100
AcDbArc
50
128.51672148850611
51
185.08610292677864
0
LINE
5
241
100
AcDbEntity
8
0
100
AcDbLine
10
-846.12833628867349
20
-1830.6258502984881
30
0
11
-846.12833628867349
21
-1832.9658499742388
31
0
0
LINE
5
242
100
AcDbEntity
8
0
100
AcDbLine
10
-846.12833628867349
20
-1832.9658499742388
30
0
11
-847.8833354494401
21
-1832.9658499742388
31
0
0
LINE
5
243
100
AcDbEntity
8
0
100
AcDbLine
10
-848.46833834861002
20
-1832.3808494592547
30
0
11
-848.46833834861002
21
-1830.6258502984881
31
0
0
LINE
5
244
100
AcDbEntity
8
0
100
AcDbLine
10
-847.29833731864176
20
-1830.6258502984881
30
0
11
-847.29833731864176
21
-1832.9658499742388
31
0
0
ARC
5
245
100
AcDbEntity
8
0
100
AcDbCircle
10
-847.95356402610025
20
-1832.4510780359149
30
0
40
0.51954049617052067
210
0
220
0
230
1
100
AcDbArc
50
172.2313801766993
51
277.76861868531677
0
LINE
5
246
100
AcDbEntity
8
0
100
AcDbLine
10
-849.63834414694986
20
-1830.6258502984881
30
0
11
-849.63834414694986
21
-1832.9658499742388
31
0
0
LINE
5
247
100
AcDbEntity
8
0
100
AcDbLine
10
-849.63834414694986
20
-1832.9658499742388
30
0
11
-851.39334330771646
21
-1832.9658499742388
31
0
0
LINE
5
248
100
AcDbEntity
8
0
100
AcDbLine
10
-851.97833667014322
20
-1832.3808494592547
30
0
11
-851.97833667014322
21
-1830.6258502984881
31
0
0
LINE
5
249
100
AcDbEntity
8
0
100
AcDbLine
10
-850.80834040854654
20
-1830.6258502984881
30
0
11
-850.80834040854654
21
-1832.9658499742388
31
0
0
ARC
5
250
100
AcDbEntity
8
0
100
AcDbCircle
10
-851.46357188437662
20
-1832.4510780359149
30
0
40
0.51954049617052067
210
0
220
0
230
1
100
AcDbArc
50
172.2313801766993
51
277.76861868531677
0
LINE
5
251
100
AcDbEntity
8
0
100
AcDbLine
10
-854.70834384177408
20
-1829.4558492685198
30
0
11
-854.70834384177408
21
-1832.9658499742388
31
0
0
LINE
5
252
100
AcDbEntity
8
0
100
AcDbLine
10
-854.70834384177408
20
-1832.9658499742388
30
0
11
-855.68334231589517
21
-1832.9658499742388
31
0
0
LINE
5
253
100
AcDbEntity
8
0
100
AcDbLine
10
-856.2683452150651
20
-1832.3808494592547
30
0
11
-856.2683452150651
21
-1831.2108508134722
31
0
0
LINE
5
254
100
AcDbEntity
8
0
100
AcDbLine
10
-855.68334231589517
20
-1830.6258502984881
30
0
11
-854.70834384177408
21
-1830.6258502984881
31
0
0
ARC
5
255
100
AcDbEntity
8
0
100
AcDbCircle
10
-855.75357089255533
20
-1832.4510780359149
30
0
40
0.51954049617052067
210
0
220
0
230
1
100
AcDbArc
50
172.2313801766993
51
277.76861868531677
0
ARC
5
256
100
AcDbEntity
8
0
100
AcDbCircle
10
-855.75357089255533
20
-1831.1406222368121
30
0
40
0.51954049617052067
210
0
220
0
230
1
100
AcDbArc
50
82.231370842023892
51
187.76861618083007
0
LINE
5
257
100
AcDbEntity
8
0
100
AcDbLine
10
-857.34084735129557
20
-1834.1358510042071
30
0
11
-857.34084735129557
21
-1831.2108508134722
31
0
0
ARC
5
258
100
AcDbEntity
8
0
100
AcDbCircle
10
-857.85561213706217
20
-1831.1406222368121
30
0
40
0.51954049617052067
210
0
220
0
230
1
100
AcDbArc
50
-7.7686111718599786
51
97.768603203705453
0
LINE
5
259
100
AcDbEntity
8
0
100
AcDbLine
10
-858.70584140036783
20
-1829.4558492685198
30
0
11
-859.09584651206217
21
-1829.4558492685198
31
0
0
LINE
5
260
100
AcDbEntity
8
0
100
AcDbLine
10
-859.09584651206217
20
-1829.4558492685198
30
0
11
-860.26584277365885
21
-1832.9658499742388
31
0
0
LINE
5
261
100
AcDbEntity
8
0
100
AcDbLine
10
-858.70584140036783
20
-1832.9658499742388
30
0
11
-859.48584208701334
21
-1830.6258502984881
31
0
0
ENDSEC
0
SECTION
2
OBJECTS
0
DICTIONARY
5
C
100
AcDbDictionary
3
ACAD_GROUP
350
D
3
ACAD_MLINESTYLE
350
17
0
DICTIONARY
5
D
100
AcDbDictionary
0
DICTIONARY
5
1A
330
C
100
AcDbDictionary
0
DICTIONARY
5
17
100
AcDbDictionary
0
ENDSEC
0
EOF
