0
SECTION
2
HEADER
9
$INSUNITS
70
4
9
$ACADVER
1
AC1014
9
$HANDSEED
5
FFFF
0
ENDSEC
0
SECTION
2
TABLES
0
TABLE
2
VPORT
5
8
100
AcDbSymbolTable
0
ENDTAB
0
TABLE
2
LTYPE
5
5
100
AcDbSymbolTable
0
LTYPE
5
14
100
AcDbSymbolTableRecord
100
AcDbLinetypeTableRecord
2
BYBLOCK
70
0
0
LTYPE
5
15
100
AcDbSymbolTableRecord
100
AcDbLinetypeTableRecord
2
BYLAYER
70
0
0
LTYPE
5
16
100
AcDbSymbolTableRecord
100
AcDbLinetypeTableRecord
2
DASHED
70
0
3
Dashed __ __ __ __ __ __ __ __ __ __ __ __ __ _
72
65
73
2
40
0.75
49
0.5
74
0
49
-0.25
74
0
0
ENDTAB
0
TABLE
2
LAYER
5
2
100
AcDbSymbolTable
70
3
0
LAYER
5
50
100
AcDbSymbolTableRecord
100
AcDbLayerTableRecord
2
1
70
0
62
7
6
DASHED
0
LAYER
5
51
100
AcDbSymbolTableRecord
100
AcDbLayerTableRecord
2
0
70
0
62
7
6
CONTINUOUS
0
ENDTAB
0
TABLE
2
STYLE
5
3
100
AcDbSymbolTable
70
1
0
STYLE
5
11
100
AcDbSymbolTableRecord
100
AcDbTextStyleTableRecord
2
STANDARD
70
0
0
ENDTAB
0
TABLE
2
VIEW
5
6
100
AcDbSymbolTable
70
0
0
ENDTAB
0
TABLE
2
UCS
5
7
100
AcDbSymbolTable
70
0
0
ENDTAB
0
TABLE
2
APPID
5
9
100
AcDbSymbolTable
70
2
0
APPID
5
12
100
AcDbSymbolTableRecord
100
AcDbRegAppTableRecord
2
ACAD
70
0
0
ENDTAB
0
TABLE
2
DIMSTYLE
5
A
100
AcDbSymbolTable
70
1
0
ENDTAB
0
TABLE
2
BLOCK_RECORD
5
1
100
AcDbSymbolTable
70
1
0
BLOCK_RECORD
5
1F
100
AcDbSymbolTableRecord
100
AcDbBlockTableRecord
2
*MODEL_SPACE
0
BLOCK_RECORD
5
1B
100
AcDbSymbolTableRecord
100
AcDbBlockTableRecord
2
*PAPER_SPACE
0
ENDTAB
0
ENDSEC
0
SECTION
2
BLOCKS
0
BLOCK
5
20
100
AcDbEntity
100
AcDbBlockBegin
2
*MODEL_SPACE
0
ENDBLK
5
21
100
AcDbEntity
100
AcDbBlockEnd
0
BLOCK
5
1C
100
AcDbEntity
100
AcDbBlockBegin
2
*PAPER_SPACE
0
ENDBLK
5
1D
100
AcDbEntity
100
AcDbBlockEnd
0
ENDSEC
0
SECTION
2
ENTITIES
0
LWPOLYLINE
5
100
100
AcDbEntity
8
0
100
AcDbPolyline
90
39
70
1
43
0.0
10
-165.02606889372709
20
-1376.2518874676689
42
0.21142197506929855
10
-165.02606889372709
20
-1395.6799760555477
10
-93.193575646392048
20
-1557.9659317616085
10
-69.293575646392185
20
-1557.9659317616085
10
-69.293575646391773
20
-1550.006161091173
42
-0.99999999999999989
10
-64.950938072449404
20
-1545.8659317616089
10
-37.388062087059744
20
-1545.8659317616089
42
-0.99999999999999989
10
-33.09357564639177
20
-1550.0560852445874
10
-33.093575646392132
20
-1557.9659317616085
10
-9.3257879797858187
20
-1557.9659317616085
10
-9.2257879797862028
20
-1557.9659317616088
10
-9.2257879797861584
20
-1534.0659317616091
10
-12.981757888461532
20
-1534.0659317616091
42
-0.99999999999999989
10
-15.225787979786148
20
-1528.5013716757419
10
-15.225787979786178
20
-1515.2327334768747
42
-0.99999999999999989
10
-12.542983598355571
20
-1509.8659317616093
10
-9.2257879797861602
20
-1509.8659317616091
10
-9.2257879797861548
20
-1398.1659317616093
10
-13.002409083820325
20
-1398.1659317781748
42
-0.9999999925494194
10
-15.225787979786151
20
-1392.5930881337708
10
-15.225787979785814
20
-1385.9659317616092
10
-15.225787938265224
20
-1379.3387754060118
42
-1.0000000074505806
10
-13.002409042299474
20
-1373.7659317616078
10
-9.2257879797861602
20
-1373.7659317616078
10
-9.2257879797861584
20
-1262.0659317616078
10
-12.542983598355551
20
-1262.0659317616078
42
-0.99999999999999989
10
-15.225787979786141
20
-1256.6991300463424
10
-15.22578797978613
20
-1243.4304918474752
42
-0.99999999999999989
10
-12.981757888461487
20
-1237.8659317616077
10
-9.2257879797861602
20
-1237.8659317616077
10
-9.2257879797861087
20
-1213.9659317616083
10
-9.3257879797859928
20
-1213.9659317616079
10
-33.093575646392132
20
-1213.9659317616085
10
-33.093575677610772
20
-1221.8757782466332
42
-1.0000000074505806
10
-37.388062087059829
20
-1226.0659317616082
10
-64.950938072449432
20
-1226.0659317616082
42
-0.99999999999999989
10
-69.293575646391744
20
-1221.9257024320441
10
-69.293575646392185
20
-1213.9659317616085
10
-93.193575646392048
20
-1213.9659317616085
0
CIRCLE
5
101
100
AcDbEntity
8
0
100
AcDbCircle
10
-149.64132048814321
20
-1385.965931761609
30
0
40
5
210
2.1436864420327874e-48
220
9.6543054615380483e-33
230
1
0
CIRCLE
5
102
100
AcDbEntity
8
0
100
AcDbCircle
10
-81.193575646392162
20
-1219.8595037445866
30
0
40
1.0000000000000142
210
-9.4289127303048046e-64
220
-2.7369110631344083e-48
230
1
0
CIRCLE
5
103
100
AcDbEntity
8
0
100
AcDbCircle
10
-22.909494713260013
20
-1219.8595037445866
30
0
40
1.0000000000000142
210
-9.4289127303048046e-64
220
-2.7369110631344083e-48
230
1
0
CIRCLE
5
104
100
AcDbEntity
8
0
100
AcDbCircle
10
-22.909494713260013
20
-1552.0723597786305
30
0
40
1.0000000000000142
210
-0
220
0
230
1
0
CIRCLE
5
105
100
AcDbEntity
8
0
100
AcDbCircle
10
-81.193575646392162
20
-1552.0723597786305
30
0
40
1.0000000000000142
210
-0
220
0
230
1
0
LINE
5
106
100
AcDbEntity
8
1
100
AcDbLine
10
-21.225787979785974
20
-1528.0659317616094
30
0
11
-21.225787979785974
21
-1426.0659302416909
31
0
0
LINE
5
107
100
AcDbEntity
8
1
100
AcDbLine
10
-21.225787979785974
20
-1426.0659302416909
30
0
11
-47.000000700354562
21
-1426.0659302416909
31
0
0
LINE
5
108
100
AcDbEntity
8
1
100
AcDbLine
10
-47.000000700354562
20
-1426.0659302416909
30
0
11
-47.000000700354562
21
-1528.0659317616094
31
0
0
LINE
5
109
100
AcDbEntity
8
1
100
AcDbLine
10
-47.000000700354562
20
-1528.0659317616094
30
0
11
-21.225787979785974
21
-1528.0659317616094
31
0
0
LINE
5
110
100
AcDbEntity
8
0
100
AcDbLine
10
-21.225785836577398
20
-1525.9209318104852
30
0
11
-21.225785836577398
21
-1527.4809317681659
31
0
0
LINE
5
111
100
AcDbEntity
8
0
100
AcDbLine
10
-21.225785836577398
20
-1527.4809317681659
30
0
11
-24.735786542296392
21
-1527.4809317681659
31
0
0
LINE
5
112
100
AcDbEntity
8
0
100
AcDbLine
10
-24.735786542296392
20
-1527.4809317681659
30
0
11
-24.735786542296392
21
-1525.9209318104852
31
0
0
LINE
5
113
100
AcDbEntity
8
0
100
AcDbLine
10
-23.175785169005376
20
-1527.4809317681659
30
0
11
-23.175785169005376
21
-1526.3109318557847
31
0
0
LINE
5
114
100
AcDbEntity
8
0
100
AcDbLine
10
-21.225785836577398
20
-1525.0434320810903
30
0
11
-21.225785836577398
21
-1524.0684318188298
31
0
0
LINE
5
115
100
AcDbEntity
8
0
100
AcDbLine
10
-24.735786542296392
20
-1525.0434320810903
30
0
11
-24.735786542296392
21
-1523.8734319451917
31
0
0
LINE
5
116
100
AcDbEntity
8
0
100
AcDbLine
10
-23.175785169005376
20
-1523.8734319451917
30
0
11
-23.175785169005376
21
-1524.6534320357907
31
0
0
ARC
5
117
100
AcDbEntity
8
0
100
AcDbCircle
10
-22.200786694884282
20
-1524.0684318188298
30
0
40
0.97499996423721313
210
0
220
-0
230
1
100
AcDbArc
50
0
51
180.0000024148365
0
ARC
5
118
100
AcDbEntity
8
0
100
AcDbCircle
10
-23.955785855650884
20
-1523.8734319451917
30
0
40
0.78000001609325409
210
0
220
-0
230
1
100
AcDbArc
50
0
51
180.0000024148365
0
LINE
5
119
100
AcDbEntity
8
0
100
AcDbLine
10
-21.225785836577398
20
-1521.923431718694
30
0
11
-21.225785836577398
21
-1522.1184318903554
31
0
0
LINE
5
120
100
AcDbEntity
8
0
100
AcDbLine
10
-21.225785836577398
20
-1522.1184318903554
30
0
11
-21.420786008238775
21
-1522.1184318903554
31
0
0
LINE
5
121
100
AcDbEntity
8
0
100
AcDbLine
10
-21.420786008238775
20
-1522.1184318903554
30
0
11
-21.420786008238775
21
-1521.923431718694
31
0
0
LINE
5
122
100
AcDbEntity
8
0
100
AcDbLine
10
-21.420786008238775
20
-1521.923431718694
30
0
11
-21.225785836577398
21
-1521.923431718694
31
0
0
LINE
5
123
100
AcDbEntity
8
0
100
AcDbLine
10
-21.225785836577398
20
-1521.923431718694
30
0
11
-20.44578514993189
21
-1522.2159319761861
31
0
0
LINE
5
124
100
AcDbEntity
8
0
100
AcDbLine
10
-21.225785836577398
20
-1519.2909317854512
30
0
11
-23.56578551232813
21
-1519.2909317854512
31
0
0
LINE
5
125
100
AcDbEntity
8
0
100
AcDbLine
10
-23.56578551232813
20
-1519.2909317854512
30
0
11
-23.56578551232813
21
-1518.1209319475759
31
0
0
LINE
5
126
100
AcDbEntity
8
0
100
AcDbLine
10
-23.56578551232813
20
-1518.1209319475759
30
0
11
-23.175785169005376
21
-1518.1209319475759
31
0
0
LINE
5
127
100
AcDbEntity
8
0
100
AcDbLine
10
-21.225785836577398
20
-1515.7809328678716
30
0
11
-21.225785836577398
21
-1516.7559325340856
31
0
0
LINE
5
128
100
AcDbEntity
8
0
100
AcDbLine
10
-21.810786351561529
20
-1517.3409318569768
30
0
11
-22.785784825682622
21
-1517.3409318569768
31
0
0
LINE
5
129
100
AcDbEntity
8
0
100
AcDbLine
10
-22.785784825682622
20
-1515.7809328678716
30
0
11
-22.395786866545659
21
-1515.7809328678716
31
0
0
LINE
5
130
100
AcDbEntity
8
0
100
AcDbLine
10
-22.395786866545659
20
-1515.7809328678716
30
0
11
-22.395786866545659
21
-1517.3409318569768
31
0
0
ARC
5
131
100
AcDbEntity
8
0
100
AcDbCircle
10
-21.740557774901372
20
-1516.8261599186528
30
0
40
0.51954049617052078
210
0
220
-0
230
1
100
AcDbArc
50
-97.768611171880039
51
7.7686032037186736
0
ARC
5
132
100
AcDbEntity
8
0
100
AcDbCircle
10
-22.785784825682622
20
-1516.5609323624242
30
0
40
0.78000001609325409
210
0
220
-0
230
1
100
AcDbArc
50
90
51
270.00000500895629
0
LINE
5
133
100
AcDbEntity
8
0
100
AcDbLine
10
-22.590784654021245
20
-1513.2459330204595
30
0
11
-22.590784654021245
21
-1514.1234326008428
31
0
0
LINE
5
134
100
AcDbEntity
8
0
100
AcDbLine
10
-21.225785836577398
20
-1514.1234326008428
30
0
11
-21.225785836577398
21
-1513.2459330204595
31
0
0
LINE
5
135
100
AcDbEntity
8
0
100
AcDbLine
10
-21.225785836577398
20
-1513.2459330204595
30
0
11
-22.980784997343999
21
-1513.2459330204595
31
0
0
LINE
5
136
100
AcDbEntity
8
0
100
AcDbLine
10
-23.56578551232813
20
-1513.8309323433507
30
0
11
-23.56578551232813
21
-1514.6109330299962
31
0
0
ARC
5
137
100
AcDbEntity
8
0
100
AcDbCircle
10
-21.908285245299322
20
-1514.1234326008428
30
0
40
0.68249993026256561
210
0
220
-0
230
1
100
AcDbArc
50
-179.99999758516347
51
0
0
ARC
5
138
100
AcDbEntity
8
0
100
AcDbCircle
10
-23.051013574004156
20
-1513.7607049587834
30
0
40
0.51954049617052078
210
0
220
-0
230
1
100
AcDbArc
50
82.231380176698835
51
187.76861868532617
0
LINE
5
139
100
AcDbEntity
8
0
100
AcDbLine
10
-21.225785836577398
20
-1512.0759319904912
30
0
11
-23.56578551232813
21
-1512.0759319904912
31
0
0
LINE
5
140
100
AcDbEntity
8
0
100
AcDbLine
10
-23.56578551232813
20
-1512.0759319904912
30
0
11
-23.56578551232813
21
-1510.9059321526158
31
0
0
LINE
5
141
100
AcDbEntity
8
0
100
AcDbLine
10
-23.56578551232813
20
-1510.9059321526158
30
0
11
-23.175785169005376
21
-1510.9059321526158
31
0
0
LINE
5
142
100
AcDbEntity
8
0
100
AcDbLine
10
-20.055784806609136
20
-1508.4684323910344
30
0
11
-23.56578551232813
21
-1508.4684323910344
31
0
0
LINE
5
143
100
AcDbEntity
8
0
100
AcDbLine
10
-23.56578551232813
20
-1508.4684323910344
30
0
11
-23.56578551232813
21
-1507.4934339169133
31
0
0
LINE
5
144
100
AcDbEntity
8
0
100
AcDbLine
10
-22.980784997343999
20
-1506.9084334019292
30
0
11
-21.810786351561529
21
-1506.9084334019292
31
0
0
LINE
5
145
100
AcDbEntity
8
0
100
AcDbLine
10
-21.225785836577398
20
-1507.4934339169133
30
0
11
-21.225785836577398
21
-1508.4684323910344
31
0
0
ARC
5
146
100
AcDbEntity
8
0
100
AcDbCircle
10
-23.051013574004156
20
-1507.4232053402532
30
0
40
0.51954049617052078
210
0
220
-0
230
1
100
AcDbArc
50
82.231380176698835
51
187.76861868532617
0
ARC
5
147
100
AcDbEntity
8
0
100
AcDbCircle
10
-21.740557774901372
20
-1507.4232053402532
30
0
40
0.51954049617052078
210
0
220
-0
230
1
100
AcDbArc
50
-7.7686291579644351
51
97.768616180836887
0
LINE
5
148
100
AcDbEntity
8
0
100
AcDbLine
10
-21.225785836577398
20
-1504.3734335545171
30
0
11
-21.225785836577398
21
-1505.348434412824
31
0
0
LINE
5
149
100
AcDbEntity
8
0
100
AcDbLine
10
-21.810786351561529
20
-1505.9334349278081
30
0
11
-22.785784825682622
21
-1505.9334349278081
31
0
0
LINE
5
150
100
AcDbEntity
8
0
100
AcDbLine
10
-22.785784825682622
20
-1504.3734335545171
30
0
11
-22.395786866545659
21
-1504.3734335545171
31
0
0
LINE
5
151
100
AcDbEntity
8
0
100
AcDbLine
10
-22.395786866545659
20
-1504.3734335545171
30
0
11
-22.395786866545659
21
-1505.9334349278081
31
0
0
ARC
5
152
100
AcDbEntity
8
0
100
AcDbCircle
10
-21.740557774901372
20
-1505.4186629894841
30
0
40
0.51954049617052078
210
0
220
-0
230
1
100
AcDbArc
50
-97.768611171880039
51
7.7686032037186736
0
ARC
5
153
100
AcDbEntity
8
0
100
AcDbCircle
10
-22.785784825682622
20
-1505.1534342411626
30
0
40
0.78000001609325409
210
0
220
-0
230
1
100
AcDbArc
50
90
51
270.00000500895629
0
LINE
5
154
100
AcDbEntity
8
0
100
AcDbLine
10
-24.735786542296392
20
-1501.838433707105
30
0
11
-21.225785836577398
21
-1501.838433707105
31
0
0
LINE
5
155
100
AcDbEntity
8
0
100
AcDbLine
10
-21.225785836577398
20
-1501.838433707105
30
0
11
-21.225785836577398
21
-1502.8134345654119
31
0
0
LINE
5
156
100
AcDbEntity
8
0
100
AcDbLine
10
-21.810786351561529
20
-1503.398435080396
30
0
11
-22.980784997343999
21
-1503.398435080396
31
0
0
LINE
5
157
100
AcDbEntity
8
0
100
AcDbLine
10
-23.56578551232813
20
-1502.8134345654119
30
0
11
-23.56578551232813
21
-1501.838433707105
31
0
0
ARC
5
158
100
AcDbEntity
8
0
100
AcDbCircle
10
-21.740557774901372
20
-1502.883663142072
30
0
40
0.51954049617052078
210
0
220
-0
230
1
100
AcDbArc
50
-97.768611171880039
51
7.7686032037186736
0
ARC
5
159
100
AcDbEntity
8
0
100
AcDbCircle
10
-23.051013574004156
20
-1502.883663142072
30
0
40
0.51954049617052078
210
0
220
-0
230
1
100
AcDbArc
50
172.23138632364333
51
277.76862118979375
0
LINE
5
160
100
AcDbEntity
8
0
100
AcDbLine
10
-22.590784654021245
20
-1499.2059349659551
30
0
11
-22.590784654021245
21
-1500.0834345463384
31
0
0
LINE
5
161
100
AcDbEntity
8
0
100
AcDbLine
10
-21.225785836577398
20
-1500.0834345463384
30
0
11
-21.225785836577398
21
-1499.2059349659551
31
0
0
LINE
5
162
100
AcDbEntity
8
0
100
AcDbLine
10
-21.225785836577398
20
-1499.2059349659551
30
0
11
-22.980784997343999
21
-1499.2059349659551
31
0
0
LINE
5
163
100
AcDbEntity
8
0
100
AcDbLine
10
-23.56578551232813
20
-1499.7909354809392
30
0
11
-23.56578551232813
21
-1500.5709361675847
31
0
0
ARC
5
164
100
AcDbEntity
8
0
100
AcDbCircle
10
-21.908285245299322
20
-1500.0834345463384
30
0
40
0.68249993026256561
210
0
220
-0
230
1
100
AcDbArc
50
-179.99999758516347
51
0
0
ARC
5
165
100
AcDbEntity
8
0
100
AcDbCircle
10
-23.051013574004156
20
-1499.720706904279
30
0
40
0.51954049617052078
210
0
220
-0
230
1
100
AcDbArc
50
82.231380176698835
51
187.76861868532617
0
LINE
5
166
100
AcDbEntity
8
0
100
AcDbLine
10
-24.735786542296392
20
-1498.0359363201726
30
0
11
-21.810786351561529
21
-1498.0359363201726
31
0
0
ARC
5
167
100
AcDbEntity
8
0
100
AcDbCircle
10
-21.740557774901372
20
-1497.5211643818486
30
0
40
0.51954049617052078
210
0
220
-0
230
1
100
AcDbArc
50
-97.768611171880039
51
7.7686032037186736
0
LINE
5
168
100
AcDbEntity
8
0
100
AcDbLine
10
-23.56578551232813
20
-1495.2084397915471
30
0
11
-23.56578551232813
21
-1494.0384387615788
31
0
0
LINE
5
169
100
AcDbEntity
8
0
100
AcDbLine
10
-24.735786542296392
20
-1494.8184394482244
30
0
11
-21.810786351561529
21
-1494.8184394482244
31
0
0
LINE
5
170
100
AcDbEntity
8
0
100
AcDbLine
10
-21.225785836577398
20
-1494.2334389332402
30
0
11
-21.225785836577398
21
-1494.0384387615788
31
0
0
ARC
5
171
100
AcDbEntity
8
0
100
AcDbCircle
10
-21.740557774901372
20
-1494.3036675099004
30
0
40
0.51954049617052078
210
0
220
-0
230
1
100
AcDbArc
50
-97.768611171880039
51
7.7686032037186736
0
LINE
5
172
100
AcDbEntity
8
0
100
AcDbLine
10
-22.005786523222906
20
-1493.1609391811955
30
0
11
-22.785784825682622
21
-1493.1609391811955
31
0
0
LINE
5
173
100
AcDbEntity
8
0
100
AcDbLine
10
-22.785784825682622
20
-1491.6009378079045
30
0
11
-22.005786523222906
21
-1491.6009378079045
31
0
0
ARC
5
174
100
AcDbEntity
8
0
100
AcDbCircle
10
-22.785784825682622
20
-1492.38093849455
30
0
40
0.78000001609325409
210
0
220
-0
230
1
100
AcDbArc
50
90
51
270.00000500895629
0
ARC
5
175
100
AcDbEntity
8
0
100
AcDbCircle
10
-22.005786523222906
20
-1492.38093849455
30
0
40
0.78000001609325409
210
0
220
-0
230
1
100
AcDbArc
50
-89.999994991043678
51
90
0
LINE
5
176
100
AcDbEntity
8
0
100
AcDbLine
10
-20.055784806609136
20
-1490.5284380558599
30
0
11
-23.56578551232813
21
-1490.5284380558599
31
0
0
LINE
5
177
100
AcDbEntity
8
0
100
AcDbLine
10
-23.56578551232813
20
-1490.5284380558599
30
0
11
-23.56578551232813
21
-1489.5534395817388
31
0
0
LINE
5
178
100
AcDbEntity
8
0
100
AcDbLine
10
-22.980784997343999
20
-1488.9684390667546
30
0
11
-21.810786351561529
21
-1488.9684390667546
31
0
0
LINE
5
179
100
AcDbEntity
8
0
100
AcDbLine
10
-21.225785836577398
20
-1489.5534395817388
30
0
11
-21.225785836577398
21
-1490.5284380558599
31
0
0
ARC
5
180
100
AcDbEntity
8
0
100
AcDbCircle
10
-23.051013574004156
20
-1489.4832110050786
30
0
40
0.51954049617052078
210
0
220
-0
230
1
100
AcDbArc
50
82.231380176698835
51
187.76861868532617
0
ARC
5
181
100
AcDbEntity
8
0
100
AcDbCircle
10
-21.740557774901372
20
-1489.4832110050786
30
0
40
0.51954049617052078
210
0
220
-0
230
1
100
AcDbArc
50
-7.7686291579644351
51
97.768616180836887
0
LINE
5
182
100
AcDbEntity
8
0
100
AcDbLine
10
-24.735786542296392
20
-1486.3359379414189
30
0
11
-21.225785836577398
21
-1486.3359379414189
31
0
0
LINE
5
183
100
AcDbEntity
8
0
100
AcDbLine
10
-21.225785836577398
20
-1486.3359379414189
30
0
11
-21.225785836577398
21
-1485.3609346989263
31
0
0
LINE
5
184
100
AcDbEntity
8
0
100
AcDbLine
10
-21.810786351561529
20
-1484.7759365681279
30
0
11
-22.980784997343999
21
-1484.7759365681279
31
0
0
LINE
5
185
100
AcDbEntity
8
0
100
AcDbLine
10
-23.56578551232813
20
-1485.3609346989263
30
0
11
-23.56578551232813
21
-1486.3359379414189
31
0
0
ARC
5
186
100
AcDbEntity
8
0
100
AcDbCircle
10
-21.740557774901372
20
-1485.2907061222661
30
0
40
0.51954049617052067
210
0
220
-0
230
1
100
AcDbArc
50
-7.7686291579644351
51
97.768616180836887
0
ARC
5
187
100
AcDbEntity
8
0
100
AcDbCircle
10
-23.051013574004156
20
-1485.2907061222661
30
0
40
0.51954049617052067
210
0
220
-0
230
1
100
AcDbArc
50
82.231380176698835
51
187.76861868532617
0
LINE
5
188
100
AcDbEntity
8
0
100
AcDbLine
10
-21.225785836577398
20
-1483.703439200269
30
0
11
-23.56578551232813
21
-1483.703439200269
31
0
0
LINE
5
189
100
AcDbEntity
8
0
100
AcDbLine
10
-23.56578551232813
20
-1483.703439200269
30
0
11
-23.56578551232813
21
-1482.5334381703008
31
0
0
LINE
5
190
100
AcDbEntity
8
0
100
AcDbLine
10
-23.56578551232813
20
-1482.5334381703008
30
0
11
-23.175785169005376
21
-1482.5334381703008
31
0
0
LINE
5
191
100
AcDbEntity
8
0
100
AcDbLine
10
-22.590784654021245
20
-1480.1934361103642
30
0
11
-22.590784654021245
21
-1481.0709356907475
31
0
0
LINE
5
192
100
AcDbEntity
8
0
100
AcDbLine
10
-21.225785836577398
20
-1481.0709356907475
30
0
11
-21.225785836577398
21
-1480.1934361103642
31
0
0
LINE
5
193
100
AcDbEntity
8
0
100
AcDbLine
10
-21.225785836577398
20
-1480.1934361103642
30
0
11
-22.980784997343999
21
-1480.1934361103642
31
0
0
LINE
5
194
100
AcDbEntity
8
0
100
AcDbLine
10
-23.56578551232813
20
-1480.7784390095342
30
0
11
-23.56578551232813
21
-1481.5584349278081
31
0
0
ARC
5
195
100
AcDbEntity
8
0
100
AcDbCircle
10
-21.908285245299322
20
-1481.0709356907475
30
0
40
0.68249993026256561
210
0
220
-0
230
1
100
AcDbArc
50
-179.99999758516347
51
0
0
ARC
5
196
100
AcDbEntity
8
0
100
AcDbCircle
10
-23.051013574004156
20
-1480.708210432874
30
0
40
0.51954049617052067
210
0
220
-0
230
1
100
AcDbArc
50
82.231380176698835
51
187.76861868532617
0
LINE
5
197
100
AcDbEntity
8
0
100
AcDbLine
10
-21.225785836577398
20
-1477.7559399250615
30
0
11
-21.225785836577398
21
-1478.5359358433354
31
0
0
LINE
5
198
100
AcDbEntity
8
0
100
AcDbLine
10
-21.810786351561529
20
-1479.1209387425054
30
0
11
-22.980784997343999
21
-1479.1209387425054
31
0
0
LINE
5
199
100
AcDbEntity
8
0
100
AcDbLine
10
-23.56578551232813
20
-1478.5359358433354
30
0
11
-23.56578551232813
21
-1477.7559399250615
31
0
0
ARC
5
200
100
AcDbEntity
8
0
100
AcDbCircle
10
-21.740557774901372
20
-1478.6061644199956
30
0
40
0.51954049617052067
210
0
220
-0
230
1
100
AcDbArc
50
-97.768611171880039
51
7.7686032037186736
0
ARC
5
201
100
AcDbEntity
8
0
100
AcDbCircle
10
-23.051013574004156
20
-1478.6061644199956
30
0
40
0.51954049617052067
210
0
220
-0
230
1
100
AcDbArc
50
172.23138632364333
51
277.76862118979375
0
LINE
5
202
100
AcDbEntity
8
0
100
AcDbLine
10
-21.225785836577398
20
-1476.7809414509404
30
0
11
-24.735786542296392
21
-1476.7809414509404
31
0
0
LINE
5
203
100
AcDbEntity
8
0
100
AcDbLine
10
-23.56578551232813
20
-1475.2209400776494
30
0
11
-22.395786866545659
21
-1476.7809414509404
31
0
0
LINE
5
204
100
AcDbEntity
8
0
100
AcDbLine
10
-21.225785836577398
20
-1475.2209400776494
30
0
11
-22.883286103606206
21
-1476.0984396580327
31
0
0
LINE
5
205
100
AcDbEntity
8
0
100
AcDbLine
10
-21.225785836577398
20
-1472.7834391239751
30
0
11
-21.225785836577398
21
-1473.7584375980962
31
0
0
LINE
5
206
100
AcDbEntity
8
0
100
AcDbLine
10
-21.810786351561529
20
-1474.3434404972661
30
0
11
-22.785784825682622
21
-1474.3434404972661
31
0
0
LINE
5
207
100
AcDbEntity
8
0
100
AcDbLine
10
-22.785784825682622
20
-1472.7834391239751
30
0
11
-22.395786866545659
21
-1472.7834391239751
31
0
0
LINE
5
208
100
AcDbEntity
8
0
100
AcDbLine
10
-22.395786866545659
20
-1472.7834391239751
30
0
11
-22.395786866545659
21
-1474.3434404972661
31
0
0
ARC
5
209
100
AcDbEntity
8
0
100
AcDbCircle
10
-21.740557774901372
20
-1473.8286661747563
30
0
40
0.51954049617052067
210
0
220
-0
230
1
100
AcDbArc
50
-97.768611171880039
51
7.7686032037186736
0
ARC
5
210
100
AcDbEntity
8
0
100
AcDbCircle
10
-22.785784825682622
20
-1473.5634398106206
30
0
40
0.78000001609325409
210
0
220
-0
230
1
100
AcDbArc
50
90
51
270.00000500895629
0
LINE
5
211
100
AcDbEntity
8
0
100
AcDbLine
10
-23.56578551232813
20
-1472.0034384373296
30
0
11
-23.56578551232813
21
-1470.8334421757329
31
0
0
LINE
5
212
100
AcDbEntity
8
0
100
AcDbLine
10
-24.735786542296392
20
-1471.6134380940068
30
0
11
-21.810786351561529
21
-1471.6134380940068
31
0
0
LINE
5
213
100
AcDbEntity
8
0
100
AcDbLine
10
-21.225785836577398
20
-1471.0284399632085
30
0
11
-21.225785836577398
21
-1470.8334421757329
31
0
0
ARC
5
214
100
AcDbEntity
8
0
100
AcDbCircle
10
-21.740557774901372
20
-1471.0986685398686
30
0
40
0.51954049617052067
210
0
220
-0
230
1
100
AcDbArc
50
-97.768611171880039
51
7.7686032037186736
0
LINE
5
215
100
AcDbEntity
8
0
100
AcDbLine
10
-21.225785836577398
20
-1469.7609400395024
30
0
11
-21.225785836577398
21
-1469.9559425953496
31
0
0
LINE
5
216
100
AcDbEntity
8
0
100
AcDbLine
10
-21.225785836577398
20
-1469.9559425953496
30
0
11
-21.420786008238775
21
-1469.9559425953496
31
0
0
LINE
5
217
100
AcDbEntity
8
0
100
AcDbLine
10
-21.420786008238775
20
-1469.9559425953496
30
0
11
-21.420786008238775
21
-1469.7609400395024
31
0
0
LINE
5
218
100
AcDbEntity
8
0
100
AcDbLine
10
-21.420786008238775
20
-1469.7609400395024
30
0
11
-21.225785836577398
21
-1469.7609400395024
31
0
0
LINE
5
219
100
AcDbEntity
8
0
100
AcDbLine
10
-21.225785836577398
20
-1469.7609400395024
30
0
11
-20.44578514993189
21
-1470.0534414890874
31
0
0
LINE
5
220
100
AcDbEntity
8
0
100
AcDbLine
10
-23.955785855650884
20
-1467.2259401920903
30
0
11
-24.735786542296392
21
-1466.2509417179692
31
0
0
LINE
5
221
100
AcDbEntity
8
0
100
AcDbLine
10
-24.735786542296392
20
-1466.2509417179692
30
0
11
-21.225785836577398
21
-1466.2509417179692
31
0
0
LINE
5
222
100
AcDbEntity
8
0
100
AcDbLine
10
-21.225785836577398
20
-1467.2259401920903
30
0
11
-21.225785836577398
21
-1465.2759384754766
31
0
0
LINE
5
223
100
AcDbEntity
8
0
100
AcDbLine
10
-23.175785169005376
20
-1462.6434397343266
30
0
11
-21.225785836577398
21
-1464.3009400013555
31
0
0
LINE
5
224
100
AcDbEntity
8
0
100
AcDbLine
10
-21.225785836577398
20
-1464.3009400013555
30
0
11
-21.225785836577398
21
-1462.3509382847417
31
0
0
ARC
5
225
100
AcDbEntity
8
0
100
AcDbCircle
10
-23.963627442717534
20
-1463.1230997685063
30
0
40
0.77931083738803864
210
0
220
-0
230
1
100
AcDbArc
50
82.231380176698721
51
187.76861868532075
0
ARC
5
226
100
AcDbEntity
8
0
100
AcDbCircle
10
-23.770308122038823
20
-1463.3461594227422
30
0
40
0.97262687981128693
210
0
220
-0
230
1
100
AcDbArc
50
173.04817449553872
51
259.00656965300925
0
ARC
5
227
100
AcDbEntity
8
0
100
AcDbCircle
10
-23.788826093077642
20
-1463.131363356458
30
0
40
0.78351080417633057
210
0
220
-0
230
1
100
AcDbArc
50
38.516721488522663
51
95.086102926772114
0
LINE
5
228
100
AcDbEntity
8
0
100
AcDbLine
10
-21.225785836577398
20
-1459.7184395435918
30
0
11
-23.56578551232813
21
-1459.7184395435918
31
0
0
LINE
5
229
100
AcDbEntity
8
0
100
AcDbLine
10
-23.56578551232813
20
-1459.7184395435918
30
0
11
-23.56578551232813
21
-1457.9634356144536
31
0
0
LINE
5
230
100
AcDbEntity
8
0
100
AcDbLine
10
-22.980784997343999
20
-1457.3784374836553
30
0
11
-21.225785836577398
21
-1457.3784374836553
31
0
0
LINE
5
231
100
AcDbEntity
8
0
100
AcDbLine
10
-21.225785836577398
20
-1458.5484385136235
30
0
11
-23.56578551232813
21
-1458.5484385136235
31
0
0
ARC
5
232
100
AcDbEntity
8
0
100
AcDbCircle
10
-23.051013574004156
20
-1457.893211806165
30
0
40
0.51954049617052067
210
0
220
-0
230
1
100
AcDbArc
50
82.231380176698835
51
187.76861868532617
0
LINE
5
233
100
AcDbEntity
8
0
100
AcDbLine
10
-21.225785836577398
20
-1456.2084412220586
30
0
11
-23.56578551232813
21
-1456.2084412220586
31
0
0
LINE
5
234
100
AcDbEntity
8
0
100
AcDbLine
10
-23.56578551232813
20
-1456.2084412220586
30
0
11
-23.56578551232813
21
-1454.4534372929204
31
0
0
LINE
5
235
100
AcDbEntity
8
0
100
AcDbLine
10
-22.980784997343999
20
-1453.8684391621221
30
0
11
-21.225785836577398
21
-1453.8684391621221
31
0
0
LINE
5
236
100
AcDbEntity
8
0
100
AcDbLine
10
-21.225785836577398
20
-1455.0384401920903
30
0
11
-23.56578551232813
21
-1455.0384401920903
31
0
0
ARC
5
237
100
AcDbEntity
8
0
100
AcDbCircle
10
-23.051013574004156
20
-1454.3832134846318
30
0
40
0.51954049617052067
210
0
220
-0
230
1
100
AcDbArc
50
82.231380176698835
51
187.76861868532617
0
LINE
5
238
100
AcDbEntity
8
0
100
AcDbLine
10
-20.055784806609136
20
-1451.1384415272344
30
0
11
-23.56578551232813
21
-1451.1384415272344
31
0
0
LINE
5
239
100
AcDbEntity
8
0
100
AcDbLine
10
-23.56578551232813
20
-1451.1384415272344
30
0
11
-23.56578551232813
21
-1450.1634382847417
31
0
0
LINE
5
240
100
AcDbEntity
8
0
100
AcDbLine
10
-22.980784997343999
20
-1449.5784401539433
30
0
11
-21.810786351561529
21
-1449.5784401539433
31
0
0
LINE
5
241
100
AcDbEntity
8
0
100
AcDbLine
10
-21.225785836577398
20
-1450.1634382847417
30
0
11
-21.225785836577398
21
-1451.1384415272344
31
0
0
ARC
5
242
100
AcDbEntity
8
0
100
AcDbCircle
10
-23.051013574004156
20
-1450.0932097080815
30
0
40
0.51954049617052067
210
0
220
-0
230
1
100
AcDbArc
50
82.231380176698835
51
187.76861868532617
0
ARC
5
243
100
AcDbEntity
8
0
100
AcDbCircle
10
-21.740557774901372
20
-1450.0932097080815
30
0
40
0.51954049617052067
210
0
220
-0
230
1
100
AcDbArc
50
-7.7686291579644351
51
97.768616180836887
0
LINE
5
244
100
AcDbEntity
8
0
100
AcDbLine
10
-24.735786542296392
20
-1448.5059427860845
30
0
11
-21.810786351561529
21
-1448.5059427860845
31
0
0
ARC
5
245
100
AcDbEntity
8
0
100
AcDbCircle
10
-21.740557774901372
20
-1447.9911732319463
30
0
40
0.51954049617052067
210
0
220
-0
230
1
100
AcDbArc
50
-97.768611171880039
51
7.7686032037186736
0
LINE
5
246
100
AcDbEntity
8
0
100
AcDbLine
10
-20.055784806609136
20
-1447.1409439686406
30
0
11
-20.055784806609136
21
-1446.7509388569463
31
0
0
LINE
5
247
100
AcDbEntity
8
0
100
AcDbLine
10
-20.055784806609136
20
-1446.7509388569463
30
0
11
-23.56578551232813
21
-1445.5809425953496
31
0
0
LINE
5
248
100
AcDbEntity
8
0
100
AcDbLine
10
-23.56578551232813
20
-1447.1409439686406
30
0
11
-21.225785836577398
21
-1446.3609432819951
31
0
0
ENDSEC
0
SECTION
2
OBJECTS
0
DICTIONARY
5
C
100
AcDbDictionary
3
ACAD_GROUP
350
D
3
ACAD_MLINESTYLE
350
17
0
DICTIONARY
5
D
100
AcDbDictionary
0
DICTIONARY
5
1A
330
C
100
AcDbDictionary
0
DICTIONARY
5
17
100
AcDbDictionary
0
ENDSEC
0
EOF
