0
SECTION
2
HEADER
9
$INSUNITS
70
4
9
$ACADVER
1
AC1014
9
$HANDSEED
5
FFFF
0
ENDSEC
0
SECTION
2
TABLES
0
TABLE
2
VPORT
5
8
100
AcDbSymbolTable
0
ENDTAB
0
TABLE
2
LTYPE
5
5
100
AcDbSymbolTable
0
LTYPE
5
14
100
AcDbSymbolTableRecord
100
AcDbLinetypeTableRecord
2
BYBLOCK
70
0
0
LTYPE
5
15
100
AcDbSymbolTableRecord
100
AcDbLinetypeTableRecord
2
BYLAYER
70
0
0
LTYPE
5
16
100
AcDbSymbolTableRecord
100
AcDbLinetypeTableRecord
2
DASHED
70
0
3
Dashed __ __ __ __ __ __ __ __ __ __ __ __ __ _
72
65
73
2
40
0.75
49
0.5
74
0
49
-0.25
74
0
0
ENDTAB
0
TABLE
2
LAYER
5
2
100
AcDbSymbolTable
70
3
0
LAYER
5
50
100
AcDbSymbolTableRecord
100
AcDbLayerTableRecord
2
1
70
0
62
7
6
DASHED
0
LAYER
5
51
100
AcDbSymbolTableRecord
100
AcDbLayerTableRecord
2
0
70
0
62
7
6
CONTINUOUS
0
ENDTAB
0
TABLE
2
STYLE
5
3
100
AcDbSymbolTable
70
1
0
STYLE
5
11
100
AcDbSymbolTableRecord
100
AcDbTextStyleTableRecord
2
STANDARD
70
0
0
ENDTAB
0
TABLE
2
VIEW
5
6
100
AcDbSymbolTable
70
0
0
ENDTAB
0
TABLE
2
UCS
5
7
100
AcDbSymbolTable
70
0
0
ENDTAB
0
TABLE
2
APPID
5
9
100
AcDbSymbolTable
70
2
0
APPID
5
12
100
AcDbSymbolTableRecord
100
AcDbRegAppTableRecord
2
ACAD
70
0
0
ENDTAB
0
TABLE
2
DIMSTYLE
5
A
100
AcDbSymbolTable
70
1
0
ENDTAB
0
TABLE
2
BLOCK_RECORD
5
1
100
AcDbSymbolTable
70
1
0
BLOCK_RECORD
5
1F
100
AcDbSymbolTableRecord
100
AcDbBlockTableRecord
2
*MODEL_SPACE
0
BLOCK_RECORD
5
1B
100
AcDbSymbolTableRecord
100
AcDbBlockTableRecord
2
*PAPER_SPACE
0
ENDTAB
0
ENDSEC
0
SECTION
2
BLOCKS
0
BLOCK
5
20
100
AcDbEntity
100
AcDbBlockBegin
2
*MODEL_SPACE
0
ENDBLK
5
21
100
AcDbEntity
100
AcDbBlockEnd
0
BLOCK
5
1C
100
AcDbEntity
100
AcDbBlockBegin
2
*PAPER_SPACE
0
ENDBLK
5
1D
100
AcDbEntity
100
AcDbBlockEnd
0
ENDSEC
0
SECTION
2
ENTITIES
0
LWPOLYLINE
5
100
100
AcDbEntity
8
0
100
AcDbPolyline
90
15
70
1
43
0.0
10
-212.66863738130047
20
-1571.3975751729654
10
-141.04612838241204
20
-1571.3975751729658
42
-0.99999999999999989
10
-136.75738288185619
20
-1575.5936044902444
10
-136.75738288185619
20
-1583.5975751729663
10
-124.75738288185617
20
-1583.5975751729663
10
-124.75738288185617
20
-1555.4666867202045
42
0.11411261572365532
10
-128.41183537995951
20
-1539.6627139031389
10
-140.98107434094891
20
-1513.9376053762269
42
0.2861289818280241
10
-176.85738288185627
20
-1491.497625083118
42
0.28612898182802582
10
-212.73369142276357
20
-1513.9376053762262
10
-225.30293038375282
20
-1539.6627139031384
42
0.11411261572365718
10
-228.95738288185612
20
-1555.4666867202038
10
-228.95738288185618
20
-1583.5975751729657
10
-216.95738288185618
20
-1583.5975751729657
10
-216.95738288185618
20
-1575.5936044902446
42
-0.99999999999999989
0
LWPOLYLINE
5
101
100
AcDbEntity
8
0
100
AcDbPolyline
90
2
70
1
43
0.0
10
-173.85738288118378
20
-1511.7335453438591
42
1.1595735241064822
10
-173.85738288185635
20
-1551.2616050021716
42
0.85695131320121742
0
CIRCLE
5
102
100
AcDbEntity
8
0
100
AcDbCircle
10
-222.85738288185632
20
-1577.4975751729655
30
0
40
1.0000000000000142
210
0
220
0
230
1
0
CIRCLE
5
103
100
AcDbEntity
8
0
100
AcDbCircle
10
-130.85738288185615
20
-1577.4975751729662
30
0
40
1.0000000000000142
210
0
220
-0
230
1
0
LINE
5
104
100
AcDbEntity
8
1
100
AcDbLine
10
-210.95738288185663
20
-1565.3975751729658
30
0
11
-120.95738154075214
21
-1565.3975751729658
31
0
0
LINE
5
105
100
AcDbEntity
8
1
100
AcDbLine
10
-120.95738154075214
20
-1565.3975751729658
30
0
11
-120.95738154075214
21
-1545.000023022294
31
0
0
LINE
5
106
100
AcDbEntity
8
1
100
AcDbLine
10
-120.95738154075214
20
-1545.000023022294
30
0
11
-210.95738288185663
21
-1545.000023022294
31
0
0
LINE
5
107
100
AcDbEntity
8
1
100
AcDbLine
10
-210.95738288185663
20
-1545.000023022294
30
0
11
-210.95738288185663
21
-1565.3975751729658
31
0
0
LINE
5
108
100
AcDbEntity
8
0
100
AcDbLine
10
-208.81238293073244
20
-1560.1975754648447
30
0
11
-210.37238288841314
21
-1560.1975754648447
31
0
0
LINE
5
109
100
AcDbEntity
8
0
100
AcDbLine
10
-210.37238288841314
20
-1560.1975754648447
30
0
11
-210.37238288841314
21
-1556.6875759512186
31
0
0
LINE
5
110
100
AcDbEntity
8
0
100
AcDbLine
10
-210.37238288841314
20
-1556.6875759512186
30
0
11
-208.81238293073244
21
-1556.6875759512186
31
0
0
LINE
5
111
100
AcDbEntity
8
0
100
AcDbLine
10
-210.37238288841314
20
-1558.2475749403238
30
0
11
-209.20238297603197
21
-1558.2475749403238
31
0
0
LINE
5
112
100
AcDbEntity
8
0
100
AcDbLine
10
-207.93488320133753
20
-1558.2475749403238
30
0
11
-206.76488306543894
21
-1558.2475749403238
31
0
0
LINE
5
113
100
AcDbEntity
8
0
100
AcDbLine
10
-205.9848832728631
20
-1559.0275756269693
30
0
11
-205.9848832728631
21
-1559.2225757986307
31
0
0
LINE
5
114
100
AcDbEntity
8
0
100
AcDbLine
10
-207.93488320133753
20
-1559.2225757986307
30
0
11
-207.93488320133753
21
-1558.2475749403238
31
0
0
ARC
5
115
100
AcDbEntity
8
0
100
AcDbCircle
10
-206.67124595663614
20
-1558.9339379221201
30
0
40
0.69272071123123169
210
0
220
0
230
1
100
AcDbArc
50
-7.7686198233065129
51
97.768618685318785
0
ARC
5
116
100
AcDbEntity
8
0
100
AcDbCircle
10
-206.95988293907709
20
-1559.2225757986307
30
0
40
0.97499996423721313
210
0
220
0
230
1
100
AcDbArc
50
-179.99999502168694
51
0
0
ARC
5
117
100
AcDbEntity
8
0
100
AcDbCircle
10
-206.562157237745
20
-1558.0603019148111
30
0
40
1.3854414224624634
210
0
220
0
230
1
100
AcDbArc
50
82.231386323642454
51
187.76862118979258
0
LINE
5
118
100
AcDbEntity
8
0
100
AcDbLine
10
-204.81488283894129
20
-1560.1975754648447
30
0
11
-205.00988301060266
21
-1560.1975754648447
31
0
0
LINE
5
119
100
AcDbEntity
8
0
100
AcDbLine
10
-205.00988301060266
20
-1560.1975754648447
30
0
11
-205.00988301060266
21
-1560.0025752931833
31
0
0
LINE
5
120
100
AcDbEntity
8
0
100
AcDbLine
10
-205.00988301060266
20
-1560.0025752931833
30
0
11
-204.81488283894129
21
-1560.0025752931833
31
0
0
LINE
5
121
100
AcDbEntity
8
0
100
AcDbLine
10
-204.81488283894129
20
-1560.0025752931833
30
0
11
-204.81488283894129
21
-1560.1975754648447
31
0
0
LINE
5
122
100
AcDbEntity
8
0
100
AcDbLine
10
-204.81488283894129
20
-1560.1975754648447
30
0
11
-205.10738309643335
21
-1560.9775749593973
31
0
0
LINE
5
123
100
AcDbEntity
8
0
100
AcDbLine
10
-202.18238290569849
20
-1560.1975754648447
30
0
11
-202.18238290569849
21
-1557.857575789094
31
0
0
LINE
5
124
100
AcDbEntity
8
0
100
AcDbLine
10
-202.18238290569849
20
-1557.857575789094
30
0
11
-201.01238306782312
21
-1557.857575789094
31
0
0
LINE
5
125
100
AcDbEntity
8
0
100
AcDbLine
10
-201.01238306782312
20
-1557.857575789094
30
0
11
-201.01238306782312
21
-1558.2475749403238
31
0
0
LINE
5
126
100
AcDbEntity
8
0
100
AcDbLine
10
-198.67238398811884
20
-1560.1975754648447
30
0
11
-199.64738365433283
21
-1560.1975754648447
31
0
0
LINE
5
127
100
AcDbEntity
8
0
100
AcDbLine
10
-200.23238297722406
20
-1559.6125749498606
30
0
11
-200.23238297722406
21
-1558.6375752836466
31
0
0
LINE
5
128
100
AcDbEntity
8
0
100
AcDbLine
10
-198.67238398811884
20
-1558.6375752836466
30
0
11
-198.67238398811884
21
-1559.0275756269693
31
0
0
LINE
5
129
100
AcDbEntity
8
0
100
AcDbLine
10
-198.67238398811884
20
-1559.0275756269693
30
0
11
-200.23238297722406
21
-1559.0275756269693
31
0
0
ARC
5
130
100
AcDbEntity
8
0
100
AcDbCircle
10
-199.71761103890009
20
-1559.6828035265207
30
0
40
0.51954049617052078
210
0
220
0
230
1
100
AcDbArc
50
172.23138882811602
51
277.76860320370542
0
ARC
5
131
100
AcDbEntity
8
0
100
AcDbCircle
10
-199.45238348267145
20
-1558.6375752836466
30
0
40
0.78000001609325409
210
0
220
0
230
1
100
AcDbArc
50
0
51
180.00000497831306
0
LINE
5
132
100
AcDbEntity
8
0
100
AcDbLine
10
-196.13738414070673
20
-1558.832575455308
30
0
11
-197.01488372109003
21
-1558.832575455308
31
0
0
LINE
5
133
100
AcDbEntity
8
0
100
AcDbLine
10
-197.01488372109003
20
-1560.1975754648447
30
0
11
-196.13738414070673
21
-1560.1975754648447
31
0
0
LINE
5
134
100
AcDbEntity
8
0
100
AcDbLine
10
-196.13738414070673
20
-1560.1975754648447
30
0
11
-196.13738414070673
21
-1558.4425751119852
31
0
0
LINE
5
135
100
AcDbEntity
8
0
100
AcDbLine
10
-196.72238346359796
20
-1557.857575789094
30
0
11
-197.50238415024347
21
-1557.857575789094
31
0
0
ARC
5
136
100
AcDbEntity
8
0
100
AcDbCircle
10
-197.01488372109003
20
-1559.5150760561228
30
0
40
0.68249993026256561
210
0
220
0
230
1
100
AcDbArc
50
90.000002504480321
51
270.0000006832451
0
ARC
5
137
100
AcDbEntity
8
0
100
AcDbCircle
10
-196.6521560790307
20
-1558.3723477274179
30
0
40
0.51954049617052078
210
0
220
0
230
1
100
AcDbArc
50
-7.7686198232997956
51
97.768618685319865
0
LINE
5
138
100
AcDbEntity
8
0
100
AcDbLine
10
-194.96738311073847
20
-1560.1975754648447
30
0
11
-194.96738311073847
21
-1557.857575789094
31
0
0
LINE
5
139
100
AcDbEntity
8
0
100
AcDbLine
10
-194.96738311073847
20
-1557.857575789094
30
0
11
-193.7973832728631
21
-1557.857575789094
31
0
0
LINE
5
140
100
AcDbEntity
8
0
100
AcDbLine
10
-193.7973832728631
20
-1557.857575789094
30
0
11
-193.7973832728631
21
-1558.2475749403238
31
0
0
LINE
5
141
100
AcDbEntity
8
0
100
AcDbLine
10
-191.35988351128168
20
-1561.3675753027201
30
0
11
-191.35988351128168
21
-1557.857575789094
31
0
0
LINE
5
142
100
AcDbEntity
8
0
100
AcDbLine
10
-191.35988351128168
20
-1557.857575789094
30
0
11
-190.38488503716059
21
-1557.857575789094
31
0
0
LINE
5
143
100
AcDbEntity
8
0
100
AcDbLine
10
-189.79988452217646
20
-1558.4425751119852
30
0
11
-189.79988452217646
21
-1559.6125749498606
31
0
0
LINE
5
144
100
AcDbEntity
8
0
100
AcDbLine
10
-190.38488503716059
20
-1560.1975754648447
30
0
11
-191.35988351128168
21
-1560.1975754648447
31
0
0
ARC
5
145
100
AcDbEntity
8
0
100
AcDbCircle
10
-190.31465646050043
20
-1558.3723477274179
30
0
40
0.51954049617052078
210
0
220
0
230
1
100
AcDbArc
50
-7.7686198232997956
51
97.768618685319865
0
ARC
5
146
100
AcDbEntity
8
0
100
AcDbCircle
10
-190.31465646050043
20
-1559.6828035265207
30
0
40
0.51954049617052078
210
0
220
0
230
1
100
AcDbArc
50
-97.768629157969883
51
7.7686161808291718
0
LINE
5
147
100
AcDbEntity
8
0
100
AcDbLine
10
-187.26488467476435
20
-1560.1975754648447
30
0
11
-188.23988553307123
21
-1560.1975754648447
31
0
0
LINE
5
148
100
AcDbEntity
8
0
100
AcDbLine
10
-188.82488604805536
20
-1559.6125749498606
30
0
11
-188.82488604805536
21
-1558.6375752836466
31
0
0
LINE
5
149
100
AcDbEntity
8
0
100
AcDbLine
10
-187.26488467476435
20
-1558.6375752836466
30
0
11
-187.26488467476435
21
-1559.0275756269693
31
0
0
LINE
5
150
100
AcDbEntity
8
0
100
AcDbLine
10
-187.26488467476435
20
-1559.0275756269693
30
0
11
-188.82488604805536
21
-1559.0275756269693
31
0
0
ARC
5
151
100
AcDbEntity
8
0
100
AcDbCircle
10
-188.31011410973139
20
-1559.6828035265207
30
0
40
0.51954049617052078
210
0
220
0
230
1
100
AcDbArc
50
172.23138882811602
51
277.76860320370542
0
ARC
5
152
100
AcDbEntity
8
0
100
AcDbCircle
10
-188.04488536140985
20
-1558.6375752836466
30
0
40
0.78000001609325409
210
0
220
0
230
1
100
AcDbArc
50
0
51
180.00000497831306
0
LINE
5
153
100
AcDbEntity
8
0
100
AcDbLine
10
-184.72988482735224
20
-1556.6875759512186
30
0
11
-184.72988482735224
21
-1560.1975754648447
31
0
0
LINE
5
154
100
AcDbEntity
8
0
100
AcDbLine
10
-184.72988482735224
20
-1560.1975754648447
30
0
11
-185.70488568565912
21
-1560.1975754648447
31
0
0
LINE
5
155
100
AcDbEntity
8
0
100
AcDbLine
10
-186.28988620064325
20
-1559.6125749498606
30
0
11
-186.28988620064325
21
-1558.4425751119852
31
0
0
LINE
5
156
100
AcDbEntity
8
0
100
AcDbLine
10
-185.70488568565912
20
-1557.857575789094
30
0
11
-184.72988482735224
21
-1557.857575789094
31
0
0
ARC
5
157
100
AcDbEntity
8
0
100
AcDbCircle
10
-185.77511426231928
20
-1559.6828035265207
30
0
40
0.51954049617052078
210
0
220
0
230
1
100
AcDbArc
50
172.23138882811602
51
277.76860320370542
0
ARC
5
158
100
AcDbEntity
8
0
100
AcDbCircle
10
-185.77511426231928
20
-1558.3723477274179
30
0
40
0.51954049617052078
210
0
220
0
230
1
100
AcDbArc
50
82.231386323641161
51
187.76862118977311
0
LINE
5
159
100
AcDbEntity
8
0
100
AcDbLine
10
-182.09738608620233
20
-1558.832575455308
30
0
11
-182.97488566658564
21
-1558.832575455308
31
0
0
LINE
5
160
100
AcDbEntity
8
0
100
AcDbLine
10
-182.97488566658564
20
-1560.1975754648447
30
0
11
-182.09738608620233
21
-1560.1975754648447
31
0
0
LINE
5
161
100
AcDbEntity
8
0
100
AcDbLine
10
-182.09738608620233
20
-1560.1975754648447
30
0
11
-182.09738608620233
21
-1558.4425751119852
31
0
0
LINE
5
162
100
AcDbEntity
8
0
100
AcDbLine
10
-182.68238660118647
20
-1557.857575789094
30
0
11
-183.46238728783197
21
-1557.857575789094
31
0
0
ARC
5
163
100
AcDbEntity
8
0
100
AcDbCircle
10
-182.97488566658564
20
-1559.5150760561228
30
0
40
0.68249993026256561
210
0
220
0
230
1
100
AcDbArc
50
90.000002504480321
51
270.0000006832451
0
ARC
5
164
100
AcDbEntity
8
0
100
AcDbCircle
10
-182.61215802452631
20
-1558.3723477274179
30
0
40
0.51954049617052078
210
0
220
0
230
1
100
AcDbArc
50
-7.7686198232997956
51
97.768618685319865
0
LINE
5
165
100
AcDbEntity
8
0
100
AcDbLine
10
-180.92738744041986
20
-1556.6875759512186
30
0
11
-180.92738744041986
21
-1559.6125749498606
31
0
0
ARC
5
166
100
AcDbEntity
8
0
100
AcDbCircle
10
-180.41261550209589
20
-1559.6828035265207
30
0
40
0.51954049617052078
210
0
220
0
230
1
100
AcDbArc
50
172.23138882811602
51
277.76860320370542
0
LINE
5
167
100
AcDbEntity
8
0
100
AcDbLine
10
-176.63739081642694
20
-1559.2225757986307
30
0
11
-177.61238929054804
21
-1558.832575455308
31
0
0
ARC
5
168
100
AcDbEntity
8
0
100
AcDbCircle
10
-177.45345469734735
20
-1558.3573619276285
30
0
40
0.50108645111322403
210
0
220
0
230
1
100
AcDbArc
50
85.872587490931565
51
251.50753671299839
0
ARC
5
169
100
AcDbEntity
8
0
100
AcDbCircle
10
-177.35945101997919
20
-1559.6687272936106
30
0
40
1.8120776116847992
210
0
220
0
230
1
100
AcDbArc
50
63.110121478027281
51
91.832262221036544
0
ARC
5
170
100
AcDbEntity
8
0
100
AcDbCircle
10
-176.80073376915522
20
-1559.6969071775675
30
0
40
0.50166852772235859
210
0
220
0
230
1
100
AcDbArc
50
-93.617868557841149
51
70.998006422157374
0
ARC
5
171
100
AcDbEntity
8
0
100
AcDbCircle
10
-177.01097365639276
20
-1558.1329146772623
30
0
40
2.0723696053028107
210
0
220
0
230
1
100
AcDbArc
50
244.44676035661095
51
274.94352767996088
0
LINE
5
172
100
AcDbEntity
8
0
100
AcDbLine
10
-175.46738978645868
20
-1557.857575789094
30
0
11
-174.88238927147455
21
-1560.1975754648447
31
0
0
LINE
5
173
100
AcDbEntity
8
0
100
AcDbLine
10
-174.88238927147455
20
-1560.1975754648447
30
0
11
-174.29739114067621
21
-1558.6375752836466
31
0
0
LINE
5
174
100
AcDbEntity
8
0
100
AcDbLine
10
-174.29739114067621
20
-1558.6375752836466
30
0
11
-173.71239062569208
21
-1560.1975754648447
31
0
0
LINE
5
175
100
AcDbEntity
8
0
100
AcDbLine
10
-173.71239062569208
20
-1560.1975754648447
30
0
11
-173.12739011070795
21
-1557.857575789094
31
0
0
LINE
5
176
100
AcDbEntity
8
0
100
AcDbLine
10
-172.15238925240106
20
-1560.1975754648447
30
0
11
-172.15238925240106
21
-1557.857575789094
31
0
0
LINE
5
177
100
AcDbEntity
8
0
100
AcDbLine
10
-172.24989053032465
20
-1556.88257612288
30
0
11
-172.24989053032465
21
-1556.6875759512186
31
0
0
LINE
5
178
100
AcDbEntity
8
0
100
AcDbLine
10
-172.24989053032465
20
-1556.6875759512186
30
0
11
-172.05489035866327
21
-1556.6875759512186
31
0
0
LINE
5
179
100
AcDbEntity
8
0
100
AcDbLine
10
-172.05489035866327
20
-1556.6875759512186
30
0
11
-172.05489035866327
21
-1556.88257612288
31
0
0
LINE
5
180
100
AcDbEntity
8
0
100
AcDbLine
10
-172.05489035866327
20
-1556.88257612288
30
0
11
-172.24989053032465
21
-1556.88257612288
31
0
0
LINE
5
181
100
AcDbEntity
8
0
100
AcDbLine
10
-170.9823882224328
20
-1560.1975754648447
30
0
11
-170.9823882224328
21
-1557.857575789094
31
0
0
LINE
5
182
100
AcDbEntity
8
0
100
AcDbLine
10
-170.9823882224328
20
-1557.857575789094
30
0
11
-170.00738974831171
21
-1557.857575789094
31
0
0
LINE
5
183
100
AcDbEntity
8
0
100
AcDbLine
10
-169.42238684914179
20
-1558.4425751119852
30
0
11
-169.42238684914179
21
-1560.1975754648447
31
0
0
ARC
5
184
100
AcDbEntity
8
0
100
AcDbCircle
10
-169.93716117165155
20
-1558.3723477274179
30
0
40
0.51954049617052067
210
0
220
0
230
1
100
AcDbArc
50
-7.7686198232997956
51
97.768618685319865
0
LINE
5
185
100
AcDbEntity
8
0
100
AcDbLine
10
-166.78988810799189
20
-1560.1975754648447
30
0
11
-167.76488658211298
21
-1560.1975754648447
31
0
0
LINE
5
186
100
AcDbEntity
8
0
100
AcDbLine
10
-168.3498894812829
20
-1559.6125749498606
30
0
11
-168.3498894812829
21
-1558.4425751119852
31
0
0
LINE
5
187
100
AcDbEntity
8
0
100
AcDbLine
10
-167.76488658211298
20
-1557.857575789094
30
0
11
-166.78988810799189
21
-1557.857575789094
31
0
0
LINE
5
188
100
AcDbEntity
8
0
100
AcDbLine
10
-166.78988810799189
20
-1557.857575789094
30
0
11
-166.78988810799189
21
-1560.7825759798288
31
0
0
LINE
5
189
100
AcDbEntity
8
0
100
AcDbLine
10
-167.37489100716181
20
-1561.3675753027201
30
0
11
-168.15488692543573
21
-1561.3675753027201
31
0
0
ARC
5
190
100
AcDbEntity
8
0
100
AcDbCircle
10
-167.83511515877314
20
-1559.6828035265207
30
0
40
0.51954049617052067
210
0
220
0
230
1
100
AcDbArc
50
172.23138882811602
51
277.76860320370542
0
ARC
5
191
100
AcDbEntity
8
0
100
AcDbCircle
10
-167.83511515877314
20
-1558.3723477274179
30
0
40
0.51954049617052067
210
0
220
0
230
1
100
AcDbArc
50
82.231386323641161
51
187.76862118977311
0
ARC
5
192
100
AcDbEntity
8
0
100
AcDbCircle
10
-167.30466243050165
20
-1560.8528033643961
30
0
40
0.51954049617052067
210
0
220
0
230
1
100
AcDbArc
50
-97.768629157969883
51
7.7686161808291718
0
LINE
5
193
100
AcDbEntity
8
0
100
AcDbLine
10
-162.59738799355097
20
-1558.832575455308
30
0
11
-163.47488757393427
21
-1558.832575455308
31
0
0
LINE
5
194
100
AcDbEntity
8
0
100
AcDbLine
10
-163.47488757393427
20
-1560.1975754648447
30
0
11
-162.59738799355097
21
-1560.1975754648447
31
0
0
LINE
5
195
100
AcDbEntity
8
0
100
AcDbLine
10
-162.59738799355097
20
-1560.1975754648447
30
0
11
-162.59738799355097
21
-1558.4425751119852
31
0
0
LINE
5
196
100
AcDbEntity
8
0
100
AcDbLine
10
-163.18239089272089
20
-1557.857575789094
30
0
11
-163.96238681099481
21
-1557.857575789094
31
0
0
ARC
5
197
100
AcDbEntity
8
0
100
AcDbCircle
10
-163.47488757393427
20
-1559.5150760561228
30
0
40
0.68249993026256561
210
0
220
0
230
1
100
AcDbArc
50
90.000002504480321
51
270.0000006832451
0
ARC
5
198
100
AcDbEntity
8
0
100
AcDbCircle
10
-163.11216231606073
20
-1558.3723477274179
30
0
40
0.51954049617052067
210
0
220
0
230
1
100
AcDbArc
50
-7.7686198232997956
51
97.768618685319865
0
LINE
5
199
100
AcDbEntity
8
0
100
AcDbLine
10
-161.42739173195429
20
-1560.1975754648447
30
0
11
-161.42739173195429
21
-1557.857575789094
31
0
0
LINE
5
200
100
AcDbEntity
8
0
100
AcDbLine
10
-161.42739173195429
20
-1557.857575789094
30
0
11
-160.25739070198603
21
-1557.857575789094
31
0
0
LINE
5
201
100
AcDbEntity
8
0
100
AcDbLine
10
-160.25739070198603
20
-1557.857575789094
30
0
11
-160.25739070198603
21
-1558.2475749403238
31
0
0
LINE
5
202
100
AcDbEntity
8
0
100
AcDbLine
10
-159.37989112160272
20
-1560.1975754648447
30
0
11
-159.37989112160272
21
-1557.857575789094
31
0
0
LINE
5
203
100
AcDbEntity
8
0
100
AcDbLine
10
-159.37989112160272
20
-1557.857575789094
30
0
11
-157.62488719246454
21
-1557.857575789094
31
0
0
LINE
5
204
100
AcDbEntity
8
0
100
AcDbLine
10
-157.0398890616662
20
-1558.4425751119852
30
0
11
-157.0398890616662
21
-1560.1975754648447
31
0
0
LINE
5
205
100
AcDbEntity
8
0
100
AcDbLine
10
-158.20989009163446
20
-1560.1975754648447
30
0
11
-158.20989009163446
21
-1557.857575789094
31
0
0
ARC
5
206
100
AcDbEntity
8
0
100
AcDbCircle
10
-157.55466338417597
20
-1558.3723477274179
30
0
40
0.51954049617052067
210
0
220
0
230
1
100
AcDbArc
50
-7.7686198232997956
51
97.768618685319865
0
LINE
5
207
100
AcDbEntity
8
0
100
AcDbLine
10
-154.30989142677851
20
-1556.6875759512186
30
0
11
-154.30989142677851
21
-1560.1975754648447
31
0
0
LINE
5
208
100
AcDbEntity
8
0
100
AcDbLine
10
-154.30989142677851
20
-1560.1975754648447
30
0
11
-153.33488818428583
21
-1560.1975754648447
31
0
0
LINE
5
209
100
AcDbEntity
8
0
100
AcDbLine
10
-152.74989005348749
20
-1559.6125749498606
30
0
11
-152.74989005348749
21
-1558.4425751119852
31
0
0
LINE
5
210
100
AcDbEntity
8
0
100
AcDbLine
10
-153.33488818428583
20
-1557.857575789094
30
0
11
-154.30989142677851
21
-1557.857575789094
31
0
0
ARC
5
211
100
AcDbEntity
8
0
100
AcDbCircle
10
-153.26465960762567
20
-1559.6828035265207
30
0
40
0.51954049617052067
210
0
220
0
230
1
100
AcDbArc
50
-97.768629157972981
51
7.7686161808291718
0
ARC
5
212
100
AcDbEntity
8
0
100
AcDbCircle
10
-153.26465960762567
20
-1558.3723477274179
30
0
40
0.51954049617052067
210
0
220
0
230
1
100
AcDbArc
50
-7.7686198232997956
51
97.768618685319865
0
LINE
5
213
100
AcDbEntity
8
0
100
AcDbLine
10
-150.21489020607538
20
-1560.1975754648447
30
0
11
-151.18988868019647
21
-1560.1975754648447
31
0
0
LINE
5
214
100
AcDbEntity
8
0
100
AcDbLine
10
-151.7748915793664
20
-1559.6125749498606
30
0
11
-151.7748915793664
21
-1558.6375752836466
31
0
0
LINE
5
215
100
AcDbEntity
8
0
100
AcDbLine
10
-150.21489020607538
20
-1558.6375752836466
30
0
11
-150.21489020607538
21
-1559.0275756269693
31
0
0
LINE
5
216
100
AcDbEntity
8
0
100
AcDbLine
10
-150.21489020607538
20
-1559.0275756269693
30
0
11
-151.7748915793664
21
-1559.0275756269693
31
0
0
ARC
5
217
100
AcDbEntity
8
0
100
AcDbCircle
10
-151.26011725685663
20
-1559.6828035265207
30
0
40
0.51954049617052067
210
0
220
0
230
1
100
AcDbArc
50
172.23138882811602
51
277.76860320370236
0
ARC
5
218
100
AcDbEntity
8
0
100
AcDbCircle
10
-150.99489089272089
20
-1558.6375752836466
30
0
40
0.78000001609325409
210
0
220
0
230
1
100
AcDbArc
50
0
51
180.00000497831306
0
LINE
5
219
100
AcDbEntity
8
0
100
AcDbLine
10
-147.67989035866327
20
-1558.832575455308
30
0
11
-148.55738993904657
21
-1558.832575455308
31
0
0
LINE
5
220
100
AcDbEntity
8
0
100
AcDbLine
10
-148.55738993904657
20
-1560.1975754648447
30
0
11
-147.67989035866327
21
-1560.1975754648447
31
0
0
LINE
5
221
100
AcDbEntity
8
0
100
AcDbLine
10
-147.67989035866327
20
-1560.1975754648447
30
0
11
-147.67989035866327
21
-1558.4425751119852
31
0
0
LINE
5
222
100
AcDbEntity
8
0
100
AcDbLine
10
-148.26489325783319
20
-1557.857575789094
30
0
11
-149.04488917610712
21
-1557.857575789094
31
0
0
ARC
5
223
100
AcDbEntity
8
0
100
AcDbCircle
10
-148.55738993904657
20
-1559.5150760561228
30
0
40
0.68249993026256561
210
0
220
0
230
1
100
AcDbArc
50
90.000002504480321
51
270.0000006832451
0
ARC
5
224
100
AcDbEntity
8
0
100
AcDbCircle
10
-148.19466468117304
20
-1558.3723477274179
30
0
40
0.51954049617052067
210
0
220
0
230
1
100
AcDbArc
50
-7.7686198232997956
51
97.768618685319865
0
LINE
5
225
100
AcDbEntity
8
0
100
AcDbLine
10
-146.50989409706659
20
-1560.1975754648447
30
0
11
-146.50989409706659
21
-1557.857575789094
31
0
0
LINE
5
226
100
AcDbEntity
8
0
100
AcDbLine
10
-146.50989409706659
20
-1557.857575789094
30
0
11
-145.33989306709833
21
-1557.857575789094
31
0
0
LINE
5
227
100
AcDbEntity
8
0
100
AcDbLine
10
-145.33989306709833
20
-1557.857575789094
30
0
11
-145.33989306709833
21
-1558.2475749403238
31
0
0
LINE
5
228
100
AcDbEntity
8
0
100
AcDbLine
10
-144.46239348671503
20
-1560.1975754648447
30
0
11
-144.46239348671503
21
-1557.857575789094
31
0
0
LINE
5
229
100
AcDbEntity
8
0
100
AcDbLine
10
-144.55989238045282
20
-1556.88257612288
30
0
11
-144.55989238045282
21
-1556.6875759512186
31
0
0
LINE
5
230
100
AcDbEntity
8
0
100
AcDbLine
10
-144.55989238045282
20
-1556.6875759512186
30
0
11
-144.36488982460565
21
-1556.6875759512186
31
0
0
LINE
5
231
100
AcDbEntity
8
0
100
AcDbLine
10
-144.36488982460565
20
-1556.6875759512186
30
0
11
-144.36488982460565
21
-1556.88257612288
31
0
0
LINE
5
232
100
AcDbEntity
8
0
100
AcDbLine
10
-144.36488982460565
20
-1556.88257612288
30
0
11
-144.55989238045282
21
-1556.88257612288
31
0
0
LINE
5
233
100
AcDbEntity
8
0
100
AcDbLine
10
-143.29239245674677
20
-1560.1975754648447
30
0
11
-143.29239245674677
21
-1557.857575789094
31
0
0
LINE
5
234
100
AcDbEntity
8
0
100
AcDbLine
10
-143.29239245674677
20
-1557.857575789094
30
0
11
-142.31738921425409
21
-1557.857575789094
31
0
0
LINE
5
235
100
AcDbEntity
8
0
100
AcDbLine
10
-141.73239108345575
20
-1558.4425751119852
30
0
11
-141.73239108345575
21
-1560.1975754648447
31
0
0
ARC
5
236
100
AcDbEntity
8
0
100
AcDbCircle
10
-142.24716063759394
20
-1558.3723477274179
30
0
40
0.51954049617052067
210
0
220
0
230
1
100
AcDbArc
50
-7.7686198232997956
51
97.768618685319865
0
LINE
5
237
100
AcDbEntity
8
0
100
AcDbLine
10
-139.09989234230585
20
-1560.1975754648447
30
0
11
-140.07489081642694
21
-1560.1975754648447
31
0
0
LINE
5
238
100
AcDbEntity
8
0
100
AcDbLine
10
-140.65989371559687
20
-1559.6125749498606
30
0
11
-140.65989371559687
21
-1558.4425751119852
31
0
0
LINE
5
239
100
AcDbEntity
8
0
100
AcDbLine
10
-140.07489081642694
20
-1557.857575789094
30
0
11
-139.09989234230585
21
-1557.857575789094
31
0
0
LINE
5
240
100
AcDbEntity
8
0
100
AcDbLine
10
-139.09989234230585
20
-1557.857575789094
30
0
11
-139.09989234230585
21
-1560.7825759798288
31
0
0
LINE
5
241
100
AcDbEntity
8
0
100
AcDbLine
10
-139.68489524147577
20
-1561.3675753027201
30
0
11
-140.4648911597497
21
-1561.3675753027201
31
0
0
ARC
5
242
100
AcDbEntity
8
0
100
AcDbCircle
10
-140.1451193930871
20
-1559.6828035265207
30
0
40
0.51954049617052067
210
0
220
0
230
1
100
AcDbArc
50
172.23138882811602
51
277.76860320370236
0
ARC
5
243
100
AcDbEntity
8
0
100
AcDbCircle
10
-140.1451193930871
20
-1558.3723477274179
30
0
40
0.51954049617052067
210
0
220
0
230
1
100
AcDbArc
50
82.231386323644273
51
187.76862118977348
0
ARC
5
244
100
AcDbEntity
8
0
100
AcDbCircle
10
-139.61466666481562
20
-1560.8528033643961
30
0
40
0.51954049617052067
210
0
220
0
230
1
100
AcDbArc
50
-97.768629157972981
51
7.7686161808291718
0
LINE
5
245
100
AcDbEntity
8
0
100
AcDbLine
10
-210.37238288841314
20
-1561.8875745683908
30
0
11
-210.37238288841314
21
-1565.3975740820169
31
0
0
LINE
5
246
100
AcDbEntity
8
0
100
AcDbLine
10
-210.37238288841314
20
-1565.3975740820169
30
0
11
-209.39738284967012
21
-1565.3975740820169
31
0
0
LINE
5
247
100
AcDbEntity
8
0
100
AcDbLine
10
-208.81238293073244
20
-1564.8125735670328
30
0
11
-208.81238293073244
21
-1563.6425737291574
31
0
0
LINE
5
248
100
AcDbEntity
8
0
100
AcDbLine
10
-209.39738284967012
20
-1563.0575744062662
30
0
11
-210.37238288841314
21
-1563.0575744062662
31
0
0
ARC
5
249
100
AcDbEntity
8
0
100
AcDbCircle
10
-209.32715516707964
20
-1564.882802143693
30
0
40
0.51954049617052078
210
0
220
0
230
1
100
AcDbArc
50
-97.768629157969883
51
7.7686161808291718
0
ARC
5
250
100
AcDbEntity
8
0
100
AcDbCircle
10
-209.32715516707964
20
-1563.5723463445902
30
0
40
0.51954049617052078
210
0
220
0
230
1
100
AcDbArc
50
-7.7686198232997956
51
97.768618685319865
0
LINE
5
251
100
AcDbEntity
8
0
100
AcDbLine
10
-207.73988302967615
20
-1565.3975740820169
30
0
11
-207.73988302967615
21
-1563.0575744062662
31
0
0
LINE
5
252
100
AcDbEntity
8
0
100
AcDbLine
10
-207.73988302967615
20
-1563.0575744062662
30
0
11
-206.56988319180078
21
-1563.0575744062662
31
0
0
LINE
5
253
100
AcDbEntity
8
0
100
AcDbLine
10
-206.56988319180078
20
-1563.0575744062662
30
0
11
-206.56988319180078
21
-1563.447574749589
31
0
0
LINE
5
254
100
AcDbEntity
8
0
100
AcDbLine
10
-204.2298829200036
20
-1564.0325740724802
30
0
11
-205.10738309643335
21
-1564.0325740724802
31
0
0
LINE
5
255
100
AcDbEntity
8
0
100
AcDbLine
10
-205.10738309643335
20
-1565.3975740820169
30
0
11
-204.2298829200036
21
-1565.3975740820169
31
0
0
LINE
5
256
100
AcDbEntity
8
0
100
AcDbLine
10
-204.2298829200036
20
-1565.3975740820169
30
0
11
-204.2298829200036
21
-1563.6425737291574
31
0
0
LINE
5
257
100
AcDbEntity
8
0
100
AcDbLine
10
-204.81488283894129
20
-1563.0575744062662
30
0
11
-205.59488292954035
21
-1563.0575744062662
31
0
0
ARC
5
258
100
AcDbEntity
8
0
100
AcDbCircle
10
-205.10738309643335
20
-1564.715074673295
30
0
40
0.68249993026256561
210
0
220
0
230
1
100
AcDbArc
50
90.000002504480321
51
270.0000006832451
0
ARC
5
259
100
AcDbEntity
8
0
100
AcDbCircle
10
-204.74465485832758
20
-1563.5723463445902
30
0
40
0.51954049617052078
210
0
220
0
230
1
100
AcDbArc
50
-7.7686198232997956
51
97.768618685319865
0
LINE
5
260
100
AcDbEntity
8
0
100
AcDbLine
10
-201.79238315842218
20
-1565.3975740820169
30
0
11
-202.57238324902124
21
-1565.3975740820169
31
0
0
LINE
5
261
100
AcDbEntity
8
0
100
AcDbLine
10
-203.15738316795893
20
-1564.8125735670328
30
0
11
-203.15738316795893
21
-1563.6425737291574
31
0
0
LINE
5
262
100
AcDbEntity
8
0
100
AcDbLine
10
-202.57238324902124
20
-1563.0575744062662
30
0
11
-201.79238315842218
21
-1563.0575744062662
31
0
0
ARC
5
263
100
AcDbEntity
8
0
100
AcDbCircle
10
-202.6426106335885
20
-1564.882802143693
30
0
40
0.51954049617052078
210
0
220
0
230
1
100
AcDbArc
50
172.23138882811602
51
277.76860320370542
0
ARC
5
264
100
AcDbEntity
8
0
100
AcDbCircle
10
-202.6426106335885
20
-1563.5723463445902
30
0
40
0.51954049617052078
210
0
220
0
230
1
100
AcDbArc
50
82.231386323641161
51
187.76862118977311
0
LINE
5
265
100
AcDbEntity
8
0
100
AcDbLine
10
-200.8173823001153
20
-1565.3975740820169
30
0
11
-200.8173823001153
21
-1561.8875745683908
31
0
0
LINE
5
266
100
AcDbEntity
8
0
100
AcDbLine
10
-199.25738331101007
20
-1563.0575744062662
30
0
11
-200.8173823001153
21
-1564.2275742441416
31
0
0
LINE
5
267
100
AcDbEntity
8
0
100
AcDbLine
10
-199.25738331101007
20
-1565.3975740820169
30
0
11
-200.13488289139337
21
-1563.7400738149881
31
0
0
LINE
5
268
100
AcDbEntity
8
0
100
AcDbLine
10
-196.81988354942865
20
-1565.3975740820169
30
0
11
-197.79488321564264
21
-1565.3975740820169
31
0
0
LINE
5
269
100
AcDbEntity
8
0
100
AcDbLine
10
-198.37988253853388
20
-1564.8125735670328
30
0
11
-198.37988253853388
21
-1563.8375739008188
31
0
0
LINE
5
270
100
AcDbEntity
8
0
100
AcDbLine
10
-196.81988354942865
20
-1563.8375739008188
30
0
11
-196.81988354942865
21
-1564.2275742441416
31
0
0
LINE
5
271
100
AcDbEntity
8
0
100
AcDbLine
10
-196.81988354942865
20
-1564.2275742441416
30
0
11
-198.37988253853388
21
-1564.2275742441416
31
0
0
ARC
5
272
100
AcDbEntity
8
0
100
AcDbCircle
10
-197.8651106002099
20
-1564.882802143693
30
0
40
0.51954049617052078
210
0
220
0
230
1
100
AcDbArc
50
172.23138882811602
51
277.76860320370542
0
ARC
5
273
100
AcDbEntity
8
0
100
AcDbCircle
10
-197.59988304398127
20
-1563.8375739008188
30
0
40
0.78000001609325409
210
0
220
0
230
1
100
AcDbArc
50
0
51
180.00000497831306
0
LINE
5
274
100
AcDbEntity
8
0
100
AcDbLine
10
-196.03988286278314
20
-1563.0575744062662
30
0
11
-194.86988302490778
21
-1563.0575744062662
31
0
0
LINE
5
275
100
AcDbEntity
8
0
100
AcDbLine
10
-195.64988371155329
20
-1561.8875745683908
30
0
11
-195.64988371155329
21
-1564.8125735670328
31
0
0
LINE
5
276
100
AcDbEntity
8
0
100
AcDbLine
10
-195.06488319656916
20
-1565.3975740820169
30
0
11
-194.86988302490778
21
-1565.3975740820169
31
0
0
ARC
5
277
100
AcDbEntity
8
0
100
AcDbCircle
10
-195.13511058113642
20
-1564.882802143693
30
0
40
0.51954049617052078
210
0
220
0
230
1
100
AcDbArc
50
172.23138882811602
51
277.76860320370542
0
LINE
5
278
100
AcDbEntity
8
0
100
AcDbLine
10
-193.797384464956
20
-1565.3975740820169
30
0
11
-193.99238344452448
21
-1565.3975740820169
31
0
0
LINE
5
279
100
AcDbEntity
8
0
100
AcDbLine
10
-193.99238344452448
20
-1565.3975740820169
30
0
11
-193.99238344452448
21
-1565.2025739103556
31
0
0
LINE
5
280
100
AcDbEntity
8
0
100
AcDbLine
10
-193.99238344452448
20
-1565.2025739103556
30
0
11
-193.797384464956
21
-1565.2025739103556
31
0
0
LINE
5
281
100
AcDbEntity
8
0
100
AcDbLine
10
-193.797384464956
20
-1565.2025739103556
30
0
11
-193.797384464956
21
-1565.3975740820169
31
0
0
LINE
5
282
100
AcDbEntity
8
0
100
AcDbLine
10
-193.797384464956
20
-1565.3975740820169
30
0
11
-194.08988353035517
21
-1566.1775747686625
31
0
0
LINE
5
283
100
AcDbEntity
8
0
100
AcDbLine
10
-189.60488435051508
20
-1563.447574749589
30
0
11
-191.26238342545099
21
-1565.3975740820169
31
0
0
LINE
5
284
100
AcDbEntity
8
0
100
AcDbLine
10
-191.26238342545099
20
-1565.3975740820169
30
0
11
-189.31238290093012
21
-1565.3975740820169
31
0
0
ARC
5
285
100
AcDbEntity
8
0
100
AcDbCircle
10
-190.08454200050897
20
-1562.6597324758768
30
0
40
0.77931083738803864
210
0
220
0
230
1
100
AcDbArc
50
-7.7686198233110417
51
97.768618685316738
0
ARC
5
286
100
AcDbEntity
8
0
100
AcDbCircle
10
-190.3076064231164
20
-1562.8530506044626
30
0
40
0.97262687981128693
210
0
220
0
230
1
100
AcDbArc
50
83.048174495537509
51
169.00656965301323
0
ARC
5
287
100
AcDbEntity
8
0
100
AcDbCircle
10
-190.09281035683222
20
-1562.8345338255167
30
0
40
0.78351080417633057
210
0
220
0
230
1
100
AcDbArc
50
-51.483278511492266
51
5.0861029267792146
0
LINE
5
288
100
AcDbEntity
8
0
100
AcDbLine
10
-186.87488433144159
20
-1565.3975740820169
30
0
11
-185.31488534233637
21
-1563.0575744062662
31
0
0
LINE
5
289
100
AcDbEntity
8
0
100
AcDbLine
10
-186.87488433144159
20
-1563.0575744062662
30
0
11
-185.31488534233637
21
-1565.3975740820169
31
0
0
LINE
5
290
100
AcDbEntity
8
0
100
AcDbLine
10
-182.87738677284784
20
-1562.6675740629435
30
0
11
-181.90238591454096
21
-1561.8875745683908
31
0
0
LINE
5
291
100
AcDbEntity
8
0
100
AcDbLine
10
-181.90238591454096
20
-1561.8875745683908
30
0
11
-181.90238591454096
21
-1565.3975740820169
31
0
0
LINE
5
292
100
AcDbEntity
8
0
100
AcDbLine
10
-182.87738677284784
20
-1565.3975740820169
30
0
11
-180.92738505623407
21
-1565.3975740820169
31
0
0
LINE
5
293
100
AcDbEntity
8
0
100
AcDbLine
10
-178.29488631508417
20
-1563.447574749589
30
0
11
-179.95238658211298
21
-1565.3975740820169
31
0
0
LINE
5
294
100
AcDbEntity
8
0
100
AcDbLine
10
-179.95238658211298
20
-1565.3975740820169
30
0
11
-178.00238486549921
21
-1565.3975740820169
31
0
0
ARC
5
295
100
AcDbEntity
8
0
100
AcDbCircle
10
-178.77454396507807
20
-1562.6597324758768
30
0
40
0.77931083738803864
210
0
220
0
230
1
100
AcDbArc
50
-7.7686198233110417
51
97.768618685316738
0
ARC
5
296
100
AcDbEntity
8
0
100
AcDbCircle
10
-178.99760838768549
20
-1562.8530506044626
30
0
40
0.97262687981128693
210
0
220
0
230
1
100
AcDbArc
50
83.048174495537509
51
169.00656965301323
0
ARC
5
297
100
AcDbEntity
8
0
100
AcDbCircle
10
-178.78281232140131
20
-1562.8345338255167
30
0
40
0.78351080417633057
210
0
220
0
230
1
100
AcDbArc
50
-51.483278511492266
51
5.0861029267792146
0
LINE
5
298
100
AcDbEntity
8
0
100
AcDbLine
10
-175.36988612434931
20
-1565.3975740820169
30
0
11
-175.36988612434931
21
-1563.0575744062662
31
0
0
LINE
5
299
100
AcDbEntity
8
0
100
AcDbLine
10
-175.36988612434931
20
-1563.0575744062662
30
0
11
-173.61488696358271
21
-1563.0575744062662
31
0
0
LINE
5
300
100
AcDbEntity
8
0
100
AcDbLine
10
-173.02988644859857
20
-1563.6425737291574
30
0
11
-173.02988644859857
21
-1565.3975740820169
31
0
0
LINE
5
301
100
AcDbEntity
8
0
100
AcDbLine
10
-174.19988747856684
20
-1565.3975740820169
30
0
11
-174.19988747856684
21
-1563.0575744062662
31
0
0
ARC
5
302
100
AcDbEntity
8
0
100
AcDbCircle
10
-173.54465838692255
20
-1563.5723463445902
30
0
40
0.51954049617052078
210
0
220
0
230
1
100
AcDbArc
50
-7.7686198232997956
51
97.768618685319865
0
LINE
5
303
100
AcDbEntity
8
0
100
AcDbLine
10
-171.85988541863031
20
-1565.3975740820169
30
0
11
-171.85988541863031
21
-1563.0575744062662
31
0
0
LINE
5
304
100
AcDbEntity
8
0
100
AcDbLine
10
-171.85988541863031
20
-1563.0575744062662
30
0
11
-170.10488387367792
21
-1563.0575744062662
31
0
0
LINE
5
305
100
AcDbEntity
8
0
100
AcDbLine
10
-169.51988574287958
20
-1563.6425737291574
30
0
11
-169.51988574287958
21
-1565.3975740820169
31
0
0
LINE
5
306
100
AcDbEntity
8
0
100
AcDbLine
10
-170.68988677284784
20
-1565.3975740820169
30
0
11
-170.68988677284784
21
-1563.0575744062662
31
0
0
ARC
5
307
100
AcDbEntity
8
0
100
AcDbCircle
10
-170.03466006538935
20
-1563.5723463445902
30
0
40
0.51954049617052067
210
0
220
0
230
1
100
AcDbArc
50
-7.7686198232997956
51
97.768618685319865
0
LINE
5
308
100
AcDbEntity
8
0
100
AcDbLine
10
-166.78988810799189
20
-1566.5675751119852
30
0
11
-166.78988810799189
21
-1563.0575744062662
31
0
0
LINE
5
309
100
AcDbEntity
8
0
100
AcDbLine
10
-166.78988810799189
20
-1563.0575744062662
30
0
11
-165.81488486549921
21
-1563.0575744062662
31
0
0
LINE
5
310
100
AcDbEntity
8
0
100
AcDbLine
10
-165.22988673470087
20
-1563.6425737291574
30
0
11
-165.22988673470087
21
-1564.8125735670328
31
0
0
LINE
5
311
100
AcDbEntity
8
0
100
AcDbLine
10
-165.81488486549921
20
-1565.3975740820169
30
0
11
-166.78988810799189
21
-1565.3975740820169
31
0
0
ARC
5
312
100
AcDbEntity
8
0
100
AcDbCircle
10
-165.74465628883905
20
-1563.5723463445902
30
0
40
0.51954049617052067
210
0
220
0
230
1
100
AcDbArc
50
-7.7686198232997956
51
97.768618685319865
0
ARC
5
313
100
AcDbEntity
8
0
100
AcDbCircle
10
-165.74465628883905
20
-1564.882802143693
30
0
40
0.51954049617052067
210
0
220
0
230
1
100
AcDbArc
50
-97.768629157969883
51
7.7686161808291718
0
LINE
5
314
100
AcDbEntity
8
0
100
AcDbLine
10
-164.15738936684198
20
-1561.8875745683908
30
0
11
-164.15738936684198
21
-1564.8125735670328
31
0
0
ARC
5
315
100
AcDbEntity
8
0
100
AcDbCircle
10
-163.64261504433222
20
-1564.882802143693
30
0
40
0.51954049617052067
210
0
220
0
230
1
100
AcDbArc
50
172.23138882811602
51
277.76860320370542
0
LINE
5
316
100
AcDbEntity
8
0
100
AcDbLine
10
-162.79238578102655
20
-1566.5675751119852
30
0
11
-162.4023854377038
21
-1566.5675751119852
31
0
0
LINE
5
317
100
AcDbEntity
8
0
100
AcDbLine
10
-162.4023854377038
20
-1566.5675751119852
30
0
11
-161.23238440773554
21
-1563.0575744062662
31
0
0
LINE
5
318
100
AcDbEntity
8
0
100
AcDbLine
10
-162.79238578102655
20
-1563.0575744062662
30
0
11
-162.01238509438105
21
-1565.3975740820169
31
0
0
ENDSEC
0
SECTION
2
OBJECTS
0
DICTIONARY
5
C
100
AcDbDictionary
3
ACAD_GROUP
350
D
3
ACAD_MLINESTYLE
350
17
0
DICTIONARY
5
D
100
AcDbDictionary
0
DICTIONARY
5
1A
330
C
100
AcDbDictionary
0
DICTIONARY
5
17
100
AcDbDictionary
0
ENDSEC
0
EOF
