0
SECTION
2
HEADER
9
$INSUNITS
70
4
9
$ACADVER
1
AC1014
9
$HANDSEED
5
FFFF
0
ENDSEC
0
SECTION
2
TABLES
0
TABLE
2
VPORT
5
8
100
AcDbSymbolTable
0
ENDTAB
0
TABLE
2
LTYPE
5
5
100
AcDbSymbolTable
0
LTYPE
5
14
100
AcDbSymbolTableRecord
100
AcDbLinetypeTableRecord
2
BYBLOCK
70
0
0
LTYPE
5
15
100
AcDbSymbolTableRecord
100
AcDbLinetypeTableRecord
2
BYLAYER
70
0
0
LTYPE
5
16
100
AcDbSymbolTableRecord
100
AcDbLinetypeTableRecord
2
DASHED
70
0
3
Dashed __ __ __ __ __ __ __ __ __ __ __ __ __ _
72
65
73
2
40
0.75
49
0.5
74
0
49
-0.25
74
0
0
ENDTAB
0
TABLE
2
LAYER
5
2
100
AcDbSymbolTable
70
3
0
LAYER
5
50
100
AcDbSymbolTableRecord
100
AcDbLayerTableRecord
2
1
70
0
62
7
6
DASHED
0
LAYER
5
51
100
AcDbSymbolTableRecord
100
AcDbLayerTableRecord
2
0
70
0
62
7
6
CONTINUOUS
0
ENDTAB
0
TABLE
2
STYLE
5
3
100
AcDbSymbolTable
70
1
0
STYLE
5
11
100
AcDbSymbolTableRecord
100
AcDbTextStyleTableRecord
2
STANDARD
70
0
0
ENDTAB
0
TABLE
2
VIEW
5
6
100
AcDbSymbolTable
70
0
0
ENDTAB
0
TABLE
2
UCS
5
7
100
AcDbSymbolTable
70
0
0
ENDTAB
0
TABLE
2
APPID
5
9
100
AcDbSymbolTable
70
2
0
APPID
5
12
100
AcDbSymbolTableRecord
100
AcDbRegAppTableRecord
2
ACAD
70
0
0
ENDTAB
0
TABLE
2
DIMSTYLE
5
A
100
AcDbSymbolTable
70
1
0
ENDTAB
0
TABLE
2
BLOCK_RECORD
5
1
100
AcDbSymbolTable
70
1
0
BLOCK_RECORD
5
1F
100
AcDbSymbolTableRecord
100
AcDbBlockTableRecord
2
*MODEL_SPACE
0
BLOCK_RECORD
5
1B
100
AcDbSymbolTableRecord
100
AcDbBlockTableRecord
2
*PAPER_SPACE
0
ENDTAB
0
ENDSEC
0
SECTION
2
BLOCKS
0
BLOCK
5
20
100
AcDbEntity
100
AcDbBlockBegin
2
*MODEL_SPACE
0
ENDBLK
5
21
100
AcDbEntity
100
AcDbBlockEnd
0
BLOCK
5
1C
100
AcDbEntity
100
AcDbBlockBegin
2
*PAPER_SPACE
0
ENDBLK
5
1D
100
AcDbEntity
100
AcDbBlockEnd
0
ENDSEC
0
SECTION
2
ENTITIES
0
CIRCLE
5
100
100
AcDbEntity
8
0
100
AcDbCircle
10
-688.46884760240937
20
-1892.7760794525918
30
0
40
1.5000000000000568
210
-0
220
0
230
1
0
CIRCLE
5
101
100
AcDbEntity
8
0
100
AcDbCircle
10
-688.46884760240937
20
-2060.976079452591
30
0
40
1.5000000000000568
210
-0
220
0
230
1
0
LWPOLYLINE
5
102
100
AcDbEntity
8
0
100
AcDbPolyline
90
34
70
1
43
0.0
10
-669.6688476024093
20
-1960.4222336253204
42
0.031411285905116881
10
-670.6141833423186
20
-1945.3893723568508
10
-687.00614511859385
20
-1815.5711380908358
42
0.37788561406176546
10
-692.95887833159838
20
-1810.3227811542592
10
-699.6688476024093
20
-1810.3227811542592
10
-699.66884760240987
20
-1815.5661574469846
42
-0.99999999999999989
10
-702.26360074929062
20
-1820.9760794525916
10
-711.66884760240919
20
-1820.9760794525916
10
-711.66884760240919
20
-1844.7760794525916
10
-702.32306362273562
20
-1844.7760794525921
42
-0.23321470288472754
10
-699.66884760240885
20
-1844.7760794525916
10
-699.66884760240941
20
-1875.5767891685823
42
-0.99999999999999989
10
-702.2856518421263
20
-1880.9760794525916
10
-711.66884760240919
20
-1880.9760794525916
10
-711.66884760240919
20
-1904.7760794525916
10
-702.31141261448033
20
-1904.7760794525916
42
-0.99999999999999989
10
-699.66884760240941
20
-1910.1628085303323
10
-699.668847562275
20
-2043.589350394539
42
-0.9999999925494194
10
-702.31141261448045
20
-2048.9760794525914
10
-711.66884760240976
20
-2048.9760794525914
10
-711.66884760240976
20
-2072.7760794525916
10
-702.2856518421263
20
-2072.7760794525916
42
-0.99999999999999989
10
-699.66884760240941
20
-2078.1753697366012
10
-699.6688476024093
20
-2108.9760794525919
42
-0.23321470288484891
10
-702.32306362273584
20
-2108.9760794525919
10
-711.66884760240976
20
-2108.9760794525919
10
-711.66884760240976
20
-2132.7760794525916
10
-702.26360074929062
20
-2132.7760794525916
42
-0.99999999999999989
10
-699.66884760240987
20
-2138.1860014581989
10
-699.6688476024093
20
-2143.4293777509247
10
-692.95887833159838
20
-2143.4293777509247
42
0.37788561406176546
10
-687.00614511859385
20
-2138.1810208143479
10
-670.6141833423186
20
-2008.3627865483336
42
0.031411285905106459
10
-669.6688476024093
20
-1993.3299252798636
0
LINE
5
103
100
AcDbEntity
8
1
100
AcDbLine
10
-693.66884760240941
20
-1910.7760794525916
30
0
11
-693.66884760240941
21
-2025.7760811662251
31
0
0
LINE
5
104
100
AcDbEntity
8
1
100
AcDbLine
10
-693.66884760240941
20
-2025.7760811662251
30
0
11
-680.00001013278961
21
-2025.7760811662251
31
0
0
LINE
5
105
100
AcDbEntity
8
1
100
AcDbLine
10
-680.00001013278961
20
-2025.7760811662251
30
0
11
-680.00001013278961
21
-1910.7760794525916
31
0
0
LINE
5
106
100
AcDbEntity
8
1
100
AcDbLine
10
-680.00001013278961
20
-1910.7760794525916
30
0
11
-693.66884760240941
21
-1910.7760794525916
31
0
0
LINE
5
107
100
AcDbEntity
8
0
100
AcDbLine
10
-693.66884708404541
20
-1912.9210794037158
30
0
11
-693.66884708404541
21
-1911.3610794460351
31
0
0
LINE
5
108
100
AcDbEntity
8
0
100
AcDbLine
10
-693.66884708404541
20
-1911.3610794460351
30
0
11
-690.15884757041931
21
-1911.3610794460351
31
0
0
LINE
5
109
100
AcDbEntity
8
0
100
AcDbLine
10
-690.15884757041931
20
-1911.3610794460351
30
0
11
-690.15884757041931
21
-1912.9210794037158
31
0
0
LINE
5
110
100
AcDbEntity
8
0
100
AcDbLine
10
-691.71884655952454
20
-1911.3610794460351
30
0
11
-691.71884655952454
21
-1912.5310793584163
31
0
0
LINE
5
111
100
AcDbEntity
8
0
100
AcDbLine
10
-690.54884672164917
20
-1913.7985791331107
30
0
11
-690.15884757041931
21
-1913.7985791331107
31
0
0
LINE
5
112
100
AcDbEntity
8
0
100
AcDbLine
10
-690.15884757041931
20
-1913.7985791331107
30
0
11
-690.15884757041931
21
-1915.7485790615851
31
0
0
LINE
5
113
100
AcDbEntity
8
0
100
AcDbLine
10
-690.15884757041931
20
-1915.7485790615851
30
0
11
-693.66884708404541
21
-1914.7735793953711
31
0
0
LINE
5
114
100
AcDbEntity
8
0
100
AcDbLine
10
-693.66884708404541
20
-1916.9185794955069
30
0
11
-693.66884708404541
21
-1916.7235793238456
31
0
0
LINE
5
115
100
AcDbEntity
8
0
100
AcDbLine
10
-693.66884708404541
20
-1916.7235793238456
30
0
11
-693.47384691238403
21
-1916.7235793238456
31
0
0
LINE
5
116
100
AcDbEntity
8
0
100
AcDbLine
10
-693.47384691238403
20
-1916.7235793238456
30
0
11
-693.47384691238403
21
-1916.9185794955069
31
0
0
LINE
5
117
100
AcDbEntity
8
0
100
AcDbLine
10
-693.47384691238403
20
-1916.9185794955069
30
0
11
-693.66884708404541
21
-1916.9185794955069
31
0
0
LINE
5
118
100
AcDbEntity
8
0
100
AcDbLine
10
-693.66884708404541
20
-1916.9185794955069
30
0
11
-694.44884657859802
21
-1916.6260792380149
31
0
0
LINE
5
119
100
AcDbEntity
8
0
100
AcDbLine
10
-693.66884708404541
20
-1919.5510794287497
30
0
11
-691.32884740829468
21
-1919.5510794287497
31
0
0
LINE
5
120
100
AcDbEntity
8
0
100
AcDbLine
10
-691.32884740829468
20
-1919.5510794287497
30
0
11
-691.32884740829468
21
-1920.7210792666251
31
0
0
LINE
5
121
100
AcDbEntity
8
0
100
AcDbLine
10
-691.32884740829468
20
-1920.7210792666251
30
0
11
-691.71884655952454
21
-1920.7210792666251
31
0
0
LINE
5
122
100
AcDbEntity
8
0
100
AcDbLine
10
-693.66884708404541
20
-1923.0610783463294
30
0
11
-693.66884708404541
21
-1922.0860786801154
31
0
0
LINE
5
123
100
AcDbEntity
8
0
100
AcDbLine
10
-693.08384656906128
20
-1921.5010793572242
30
0
11
-692.10884690284729
21
-1921.5010793572242
31
0
0
LINE
5
124
100
AcDbEntity
8
0
100
AcDbLine
10
-692.10884690284729
20
-1923.0610783463294
30
0
11
-692.49884724617004
21
-1923.0610783463294
31
0
0
LINE
5
125
100
AcDbEntity
8
0
100
AcDbLine
10
-692.49884724617004
20
-1923.0610783463294
30
0
11
-692.49884724617004
21
-1921.5010793572242
31
0
0
ARC
5
126
100
AcDbEntity
8
0
100
AcDbCircle
10
-693.15407514572144
20
-1922.0158512955481
30
0
40
0.51954049617052078
210
-0
220
0
230
1
100
AcDbArc
50
82.231388828116863
51
187.76860320369298
0
ARC
5
127
100
AcDbEntity
8
0
100
AcDbCircle
10
-692.10884690284729
20
-1922.2810788517768
30
0
40
0.78000001609325409
210
-0
220
0
230
1
100
AcDbArc
50
-90
51
90.000005008960017
0
LINE
5
128
100
AcDbEntity
8
0
100
AcDbLine
10
-692.30384707450867
20
-1925.5960781937415
30
0
11
-692.30384707450867
21
-1924.7185786133582
31
0
0
LINE
5
129
100
AcDbEntity
8
0
100
AcDbLine
10
-693.66884708404541
20
-1924.7185786133582
30
0
11
-693.66884708404541
21
-1925.5960781937415
31
0
0
LINE
5
130
100
AcDbEntity
8
0
100
AcDbLine
10
-693.66884708404541
20
-1925.5960781937415
30
0
11
-691.91384673118591
21
-1925.5960781937415
31
0
0
LINE
5
131
100
AcDbEntity
8
0
100
AcDbLine
10
-691.32884740829468
20
-1925.0110788708503
30
0
11
-691.32884740829468
21
-1924.2310781842048
31
0
0
ARC
5
132
100
AcDbEntity
8
0
100
AcDbCircle
10
-692.98634767532349
20
-1924.7185786133582
30
0
40
0.68249993026256561
210
-0
220
0
230
1
100
AcDbArc
50
2.4148365394514667e-06
51
180
0
ARC
5
133
100
AcDbEntity
8
0
100
AcDbCircle
10
-691.84361934661865
20
-1925.0813062554175
30
0
40
0.51954049617052078
210
-0
220
0
230
1
100
AcDbArc
50
-97.7686198232973
51
7.7686186853257846
0
LINE
5
134
100
AcDbEntity
8
0
100
AcDbLine
10
-693.66884708404541
20
-1926.7660792237098
30
0
11
-691.32884740829468
21
-1926.7660792237098
31
0
0
LINE
5
135
100
AcDbEntity
8
0
100
AcDbLine
10
-691.32884740829468
20
-1926.7660792237098
30
0
11
-691.32884740829468
21
-1927.9360790615851
31
0
0
LINE
5
136
100
AcDbEntity
8
0
100
AcDbLine
10
-691.32884740829468
20
-1927.9360790615851
30
0
11
-691.71884655952454
21
-1927.9360790615851
31
0
0
LINE
5
137
100
AcDbEntity
8
0
100
AcDbLine
10
-694.83884692192078
20
-1930.3735788231666
30
0
11
-691.32884740829468
21
-1930.3735788231666
31
0
0
LINE
5
138
100
AcDbEntity
8
0
100
AcDbLine
10
-691.32884740829468
20
-1930.3735788231666
30
0
11
-691.32884740829468
21
-1931.3485772972876
31
0
0
LINE
5
139
100
AcDbEntity
8
0
100
AcDbLine
10
-691.91384673118591
20
-1931.9335778122718
30
0
11
-693.08384656906128
21
-1931.9335778122718
31
0
0
LINE
5
140
100
AcDbEntity
8
0
100
AcDbLine
10
-693.66884708404541
20
-1931.3485772972876
30
0
11
-693.66884708404541
21
-1930.3735788231666
31
0
0
ARC
5
141
100
AcDbEntity
8
0
100
AcDbCircle
10
-691.84361934661865
20
-1931.4188058739478
30
0
40
0.51954049617052078
210
-0
220
0
230
1
100
AcDbArc
50
-97.7686198232973
51
7.7686186853257846
0
ARC
5
142
100
AcDbEntity
8
0
100
AcDbCircle
10
-693.15407514572144
20
-1931.4188058739478
30
0
40
0.51954049617052078
210
-0
220
0
230
1
100
AcDbArc
50
172.23137084203464
51
277.76861618084075
0
LINE
5
143
100
AcDbEntity
8
0
100
AcDbLine
10
-693.66884708404541
20
-1934.4685776596839
30
0
11
-693.66884708404541
21
-1933.493576801377
31
0
0
LINE
5
144
100
AcDbEntity
8
0
100
AcDbLine
10
-693.08384656906128
20
-1932.9085762863929
30
0
11
-692.10884690284729
21
-1932.9085762863929
31
0
0
LINE
5
145
100
AcDbEntity
8
0
100
AcDbLine
10
-692.10884690284729
20
-1934.4685776596839
30
0
11
-692.49884724617004
21
-1934.4685776596839
31
0
0
LINE
5
146
100
AcDbEntity
8
0
100
AcDbLine
10
-692.49884724617004
20
-1934.4685776596839
30
0
11
-692.49884724617004
21
-1932.9085762863929
31
0
0
ARC
5
147
100
AcDbEntity
8
0
100
AcDbCircle
10
-693.15407514572144
20
-1933.4233482247168
30
0
40
0.51954049617052078
210
-0
220
0
230
1
100
AcDbArc
50
82.231388828116863
51
187.76860320369298
0
ARC
5
148
100
AcDbEntity
8
0
100
AcDbCircle
10
-692.10884690284729
20
-1933.6885769730384
30
0
40
0.78000001609325409
210
-0
220
0
230
1
100
AcDbArc
50
-90
51
90.000005008960017
0
LINE
5
149
100
AcDbEntity
8
0
100
AcDbLine
10
-690.15884757041931
20
-1937.003577507096
30
0
11
-693.66884708404541
21
-1937.003577507096
31
0
0
LINE
5
150
100
AcDbEntity
8
0
100
AcDbLine
10
-693.66884708404541
20
-1937.003577507096
30
0
11
-693.66884708404541
21
-1936.0285766487891
31
0
0
LINE
5
151
100
AcDbEntity
8
0
100
AcDbLine
10
-693.08384656906128
20
-1935.443576133805
30
0
11
-691.91384673118591
21
-1935.443576133805
31
0
0
LINE
5
152
100
AcDbEntity
8
0
100
AcDbLine
10
-691.32884740829468
20
-1936.0285766487891
30
0
11
-691.32884740829468
21
-1937.003577507096
31
0
0
ARC
5
153
100
AcDbEntity
8
0
100
AcDbCircle
10
-693.15407514572144
20
-1935.958348072129
30
0
40
0.51954049617052078
210
-0
220
0
230
1
100
AcDbArc
50
82.231388828116863
51
187.76860320369298
0
ARC
5
154
100
AcDbEntity
8
0
100
AcDbCircle
10
-691.84361934661865
20
-1935.958348072129
30
0
40
0.51954049617052078
210
-0
220
0
230
1
100
AcDbArc
50
-7.7686136763557538
51
97.768621189798395
0
LINE
5
155
100
AcDbEntity
8
0
100
AcDbLine
10
-692.30384707450867
20
-1939.6360762482459
30
0
11
-692.30384707450867
21
-1938.7585766678626
31
0
0
LINE
5
156
100
AcDbEntity
8
0
100
AcDbLine
10
-693.66884708404541
20
-1938.7585766678626
30
0
11
-693.66884708404541
21
-1939.6360762482459
31
0
0
LINE
5
157
100
AcDbEntity
8
0
100
AcDbLine
10
-693.66884708404541
20
-1939.6360762482459
30
0
11
-691.91384673118591
21
-1939.6360762482459
31
0
0
LINE
5
158
100
AcDbEntity
8
0
100
AcDbLine
10
-691.32884740829468
20
-1939.0510757332618
30
0
11
-691.32884740829468
21
-1938.2710750466163
31
0
0
ARC
5
159
100
AcDbEntity
8
0
100
AcDbCircle
10
-692.98634767532349
20
-1938.7585766678626
30
0
40
0.68249993026256561
210
-0
220
0
230
1
100
AcDbArc
50
2.4148365394514667e-06
51
180
0
ARC
5
160
100
AcDbEntity
8
0
100
AcDbCircle
10
-691.84361934661865
20
-1939.1213043099219
30
0
40
0.51954049617052078
210
-0
220
0
230
1
100
AcDbArc
50
-97.7686198232973
51
7.7686186853257846
0
LINE
5
161
100
AcDbEntity
8
0
100
AcDbLine
10
-690.15884757041931
20
-1940.8060748940284
30
0
11
-693.08384656906128
21
-1940.8060748940284
31
0
0
ARC
5
162
100
AcDbEntity
8
0
100
AcDbCircle
10
-693.15407514572144
20
-1941.3208468323523
30
0
40
0.51954049617052078
210
-0
220
0
230
1
100
AcDbArc
50
82.231388828116863
51
187.76860320369298
0
LINE
5
163
100
AcDbEntity
8
0
100
AcDbLine
10
-692.69384741783142
20
-1945.0960715180213
30
0
11
-692.30384707450867
21
-1944.1210730439002
31
0
0
ARC
5
164
100
AcDbEntity
8
0
100
AcDbCircle
10
-691.82863354682922
20
-1944.2800076371009
30
0
40
0.50108645111322403
210
-0
220
0
230
1
100
AcDbArc
50
-4.1274125090814078
51
161.50753671300455
0
ARC
5
165
100
AcDbEntity
8
0
100
AcDbCircle
10
-693.13999891281128
20
-1944.374011314469
30
0
40
1.8120776116847992
210
-0
220
0
230
1
100
AcDbArc
50
-26.889878521971905
51
1.8322622210373283
0
ARC
5
166
100
AcDbEntity
8
0
100
AcDbCircle
10
-693.16817879676819
20
-1944.932728565293
30
0
40
0.50166852772235859
210
-0
220
0
230
1
100
AcDbArc
50
176.38213144217104
51
340.99800642215621
0
ARC
5
167
100
AcDbEntity
8
0
100
AcDbCircle
10
-691.60418629646301
20
-1944.7224886780555
30
0
40
2.0723696053028107
210
-0
220
0
230
1
100
AcDbArc
50
154.44676035661178
51
184.94352767996193
0
LINE
5
168
100
AcDbEntity
8
0
100
AcDbLine
10
-691.32884740829468
20
-1946.2660725479896
30
0
11
-693.66884708404541
21
-1946.8510730629737
31
0
0
LINE
5
169
100
AcDbEntity
8
0
100
AcDbLine
10
-693.66884708404541
20
-1946.8510730629737
30
0
11
-692.10884690284729
21
-1947.436071193772
31
0
0
LINE
5
170
100
AcDbEntity
8
0
100
AcDbLine
10
-692.10884690284729
20
-1947.436071193772
30
0
11
-693.66884708404541
21
-1948.0210717087562
31
0
0
LINE
5
171
100
AcDbEntity
8
0
100
AcDbLine
10
-693.66884708404541
20
-1948.0210717087562
30
0
11
-691.32884740829468
21
-1948.6060722237403
31
0
0
LINE
5
172
100
AcDbEntity
8
0
100
AcDbLine
10
-693.66884708404541
20
-1949.5810730820472
30
0
11
-691.32884740829468
21
-1949.5810730820472
31
0
0
LINE
5
173
100
AcDbEntity
8
0
100
AcDbLine
10
-690.35384774208069
20
-1949.4835718041236
30
0
11
-690.15884757041931
21
-1949.4835718041236
31
0
0
LINE
5
174
100
AcDbEntity
8
0
100
AcDbLine
10
-690.15884757041931
20
-1949.4835718041236
30
0
11
-690.15884757041931
21
-1949.678571975785
31
0
0
LINE
5
175
100
AcDbEntity
8
0
100
AcDbLine
10
-690.15884757041931
20
-1949.678571975785
30
0
11
-690.35384774208069
21
-1949.678571975785
31
0
0
LINE
5
176
100
AcDbEntity
8
0
100
AcDbLine
10
-690.35384774208069
20
-1949.678571975785
30
0
11
-690.35384774208069
21
-1949.4835718041236
31
0
0
LINE
5
177
100
AcDbEntity
8
0
100
AcDbLine
10
-693.66884708404541
20
-1950.7510741120154
30
0
11
-691.32884740829468
21
-1950.7510741120154
31
0
0
LINE
5
178
100
AcDbEntity
8
0
100
AcDbLine
10
-691.32884740829468
20
-1950.7510741120154
30
0
11
-691.32884740829468
21
-1951.7260725861365
31
0
0
LINE
5
179
100
AcDbEntity
8
0
100
AcDbLine
10
-691.91384673118591
20
-1952.3110754853064
30
0
11
-693.66884708404541
21
-1952.3110754853064
31
0
0
ARC
5
180
100
AcDbEntity
8
0
100
AcDbCircle
10
-691.84361934661865
20
-1951.7963011627967
30
0
40
0.51954049617052067
210
-0
220
0
230
1
100
AcDbArc
50
-97.7686198232973
51
7.7686186853257846
0
LINE
5
181
100
AcDbEntity
8
0
100
AcDbLine
10
-693.66884708404541
20
-1954.9435742264563
30
0
11
-693.66884708404541
21
-1953.9685757523353
31
0
0
LINE
5
182
100
AcDbEntity
8
0
100
AcDbLine
10
-693.08384656906128
20
-1953.3835728531653
30
0
11
-691.91384673118591
21
-1953.3835728531653
31
0
0
LINE
5
183
100
AcDbEntity
8
0
100
AcDbLine
10
-691.32884740829468
20
-1953.9685757523353
30
0
11
-691.32884740829468
21
-1954.9435742264563
31
0
0
LINE
5
184
100
AcDbEntity
8
0
100
AcDbLine
10
-691.32884740829468
20
-1954.9435742264563
30
0
11
-694.25384759902954
21
-1954.9435742264563
31
0
0
LINE
5
185
100
AcDbEntity
8
0
100
AcDbLine
10
-694.83884692192078
20
-1954.3585713272864
30
0
11
-694.83884692192078
21
-1953.5785754090125
31
0
0
ARC
5
186
100
AcDbEntity
8
0
100
AcDbCircle
10
-693.15407514572144
20
-1953.8983471756751
30
0
40
0.51954049617052067
210
-0
220
0
230
1
100
AcDbArc
50
82.231388828116863
51
187.76860320369298
0
ARC
5
187
100
AcDbEntity
8
0
100
AcDbCircle
10
-691.84361934661865
20
-1953.8983471756751
30
0
40
0.51954049617052067
210
-0
220
0
230
1
100
AcDbArc
50
-7.7686136763557538
51
97.768621189798395
0
ARC
5
188
100
AcDbEntity
8
0
100
AcDbCircle
10
-694.3240749835968
20
-1954.4287999039466
30
0
40
0.51954049617052067
210
-0
220
0
230
1
100
AcDbArc
50
172.23137084203464
51
277.76861618084075
0
LINE
5
189
100
AcDbEntity
8
0
100
AcDbLine
10
-692.30384707450867
20
-1959.1360743408973
30
0
11
-692.30384707450867
21
-1958.258574760514
31
0
0
LINE
5
190
100
AcDbEntity
8
0
100
AcDbLine
10
-693.66884708404541
20
-1958.258574760514
30
0
11
-693.66884708404541
21
-1959.1360743408973
31
0
0
LINE
5
191
100
AcDbEntity
8
0
100
AcDbLine
10
-693.66884708404541
20
-1959.1360743408973
30
0
11
-691.91384673118591
21
-1959.1360743408973
31
0
0
LINE
5
192
100
AcDbEntity
8
0
100
AcDbLine
10
-691.32884740829468
20
-1958.5510714417273
30
0
11
-691.32884740829468
21
-1957.7710755234534
31
0
0
ARC
5
193
100
AcDbEntity
8
0
100
AcDbCircle
10
-692.98634767532349
20
-1958.258574760514
30
0
40
0.68249993026256561
210
-0
220
0
230
1
100
AcDbArc
50
2.4148365394514667e-06
51
180
0
ARC
5
194
100
AcDbEntity
8
0
100
AcDbCircle
10
-691.84361934661865
20
-1958.6213000183875
30
0
40
0.51954049617052067
210
-0
220
0
230
1
100
AcDbArc
50
-97.7686198232973
51
7.7686186853257846
0
LINE
5
195
100
AcDbEntity
8
0
100
AcDbLine
10
-693.66884708404541
20
-1960.3060706024939
30
0
11
-691.32884740829468
21
-1960.3060706024939
31
0
0
LINE
5
196
100
AcDbEntity
8
0
100
AcDbLine
10
-691.32884740829468
20
-1960.3060706024939
30
0
11
-691.32884740829468
21
-1961.4760716324622
31
0
0
LINE
5
197
100
AcDbEntity
8
0
100
AcDbLine
10
-691.32884740829468
20
-1961.4760716324622
30
0
11
-691.71884655952454
21
-1961.4760716324622
31
0
0
LINE
5
198
100
AcDbEntity
8
0
100
AcDbLine
10
-693.66884708404541
20
-1962.3535712128455
30
0
11
-691.32884740829468
21
-1962.3535712128455
31
0
0
LINE
5
199
100
AcDbEntity
8
0
100
AcDbLine
10
-691.32884740829468
20
-1962.3535712128455
30
0
11
-691.32884740829468
21
-1964.1085751419837
31
0
0
LINE
5
200
100
AcDbEntity
8
0
100
AcDbLine
10
-691.91384673118591
20
-1964.693573272782
30
0
11
-693.66884708404541
21
-1964.693573272782
31
0
0
LINE
5
201
100
AcDbEntity
8
0
100
AcDbLine
10
-693.66884708404541
20
-1963.5235722428138
30
0
11
-691.32884740829468
21
-1963.5235722428138
31
0
0
ARC
5
202
100
AcDbEntity
8
0
100
AcDbCircle
10
-691.84361934661865
20
-1964.1787989502723
30
0
40
0.51954049617052067
210
-0
220
0
230
1
100
AcDbArc
50
-97.7686198232973
51
7.7686186853257846
0
LINE
5
203
100
AcDbEntity
8
0
100
AcDbLine
10
-693.66884708404541
20
-1968.6910708313758
30
0
11
-693.66884708404541
21
-1967.9110749131019
31
0
0
LINE
5
204
100
AcDbEntity
8
0
100
AcDbLine
10
-693.08384656906128
20
-1967.3260720139319
30
0
11
-691.91384673118591
21
-1967.3260720139319
31
0
0
LINE
5
205
100
AcDbEntity
8
0
100
AcDbLine
10
-691.32884740829468
20
-1967.9110749131019
30
0
11
-691.32884740829468
21
-1968.6910708313758
31
0
0
ARC
5
206
100
AcDbEntity
8
0
100
AcDbCircle
10
-693.15407514572144
20
-1967.8408463364417
30
0
40
0.51954049617052067
210
-0
220
0
230
1
100
AcDbArc
50
82.231388828116863
51
187.76860320369298
0
ARC
5
207
100
AcDbEntity
8
0
100
AcDbCircle
10
-691.84361934661865
20
-1967.8408463364417
30
0
40
0.51954049617052067
210
-0
220
0
230
1
100
AcDbArc
50
-7.7686136763557538
51
97.768621189798395
0
LINE
5
208
100
AcDbEntity
8
0
100
AcDbLine
10
-692.8888475894928
20
-1969.5685704117591
30
0
11
-692.10884690284729
21
-1969.5685704117591
31
0
0
LINE
5
209
100
AcDbEntity
8
0
100
AcDbLine
10
-692.10884690284729
20
-1971.1285717850501
30
0
11
-692.8888475894928
21
-1971.1285717850501
31
0
0
ARC
5
210
100
AcDbEntity
8
0
100
AcDbCircle
10
-692.10884690284729
20
-1970.3485710984046
30
0
40
0.78000001609325409
210
-0
220
0
230
1
100
AcDbArc
50
-90
51
90.000005008960017
0
ARC
5
211
100
AcDbEntity
8
0
100
AcDbCircle
10
-692.8888475894928
20
-1970.3485710984046
30
0
40
0.78000001609325409
210
-0
220
0
230
1
100
AcDbArc
50
90.000005008960017
51
270
0
LINE
5
212
100
AcDbEntity
8
0
100
AcDbLine
10
-693.66884708404541
20
-1972.201069152909
30
0
11
-691.32884740829468
21
-1972.201069152909
31
0
0
LINE
5
213
100
AcDbEntity
8
0
100
AcDbLine
10
-691.32884740829468
20
-1972.201069152909
30
0
11
-691.32884740829468
21
-1973.9560730820472
31
0
0
LINE
5
214
100
AcDbEntity
8
0
100
AcDbLine
10
-691.91384673118591
20
-1974.5410712128455
30
0
11
-693.66884708404541
21
-1974.5410712128455
31
0
0
LINE
5
215
100
AcDbEntity
8
0
100
AcDbLine
10
-693.66884708404541
20
-1973.3710701828772
30
0
11
-691.32884740829468
21
-1973.3710701828772
31
0
0
ARC
5
216
100
AcDbEntity
8
0
100
AcDbCircle
10
-691.84361934661865
20
-1974.0262968903357
30
0
40
0.51954049617052067
210
-0
220
0
230
1
100
AcDbArc
50
-97.7686198232973
51
7.7686186853257846
0
LINE
5
217
100
AcDbEntity
8
0
100
AcDbLine
10
-690.15884757041931
20
-1975.7110674744422
30
0
11
-693.66884708404541
21
-1975.7110674744422
31
0
0
LINE
5
218
100
AcDbEntity
8
0
100
AcDbLine
10
-693.66884708404541
20
-1975.7110674744422
30
0
11
-693.66884708404541
21
-1976.6860707169349
31
0
0
LINE
5
219
100
AcDbEntity
8
0
100
AcDbLine
10
-693.08384656906128
20
-1977.2710688477332
30
0
11
-691.91384673118591
21
-1977.2710688477332
31
0
0
LINE
5
220
100
AcDbEntity
8
0
100
AcDbLine
10
-691.32884740829468
20
-1976.6860707169349
30
0
11
-691.32884740829468
21
-1975.7110674744422
31
0
0
ARC
5
221
100
AcDbEntity
8
0
100
AcDbCircle
10
-693.15407514572144
20
-1976.756299293595
30
0
40
0.51954049617052067
210
-0
220
0
230
1
100
AcDbArc
50
172.23137084203464
51
277.76861618084075
0
ARC
5
222
100
AcDbEntity
8
0
100
AcDbCircle
10
-691.84361934661865
20
-1976.756299293595
30
0
40
0.51954049617052067
210
-0
220
0
230
1
100
AcDbArc
50
-97.7686198232973
51
7.7686186853257846
0
LINE
5
223
100
AcDbEntity
8
0
100
AcDbLine
10
-693.66884708404541
20
-1978.4410698777015
30
0
11
-693.66884708404541
21
-1978.2460673218543
31
0
0
LINE
5
224
100
AcDbEntity
8
0
100
AcDbLine
10
-693.66884708404541
20
-1978.2460673218543
30
0
11
-693.47384691238403
21
-1978.2460673218543
31
0
0
LINE
5
225
100
AcDbEntity
8
0
100
AcDbLine
10
-693.47384691238403
20
-1978.2460673218543
30
0
11
-693.47384691238403
21
-1978.4410698777015
31
0
0
LINE
5
226
100
AcDbEntity
8
0
100
AcDbLine
10
-693.47384691238403
20
-1978.4410698777015
30
0
11
-693.66884708404541
21
-1978.4410698777015
31
0
0
LINE
5
227
100
AcDbEntity
8
0
100
AcDbLine
10
-693.66884708404541
20
-1978.4410698777015
30
0
11
-694.44884657859802
21
-1978.1485684281165
31
0
0
LINE
5
228
100
AcDbEntity
8
0
100
AcDbLine
10
-690.93884706497192
20
-1980.9760697251136
30
0
11
-690.15884757041931
21
-1981.9510681992347
31
0
0
LINE
5
229
100
AcDbEntity
8
0
100
AcDbLine
10
-690.15884757041931
20
-1981.9510681992347
30
0
11
-693.66884708404541
21
-1981.9510681992347
31
0
0
LINE
5
230
100
AcDbEntity
8
0
100
AcDbLine
10
-693.66884708404541
20
-1980.9760697251136
30
0
11
-693.66884708404541
21
-1982.9260714417273
31
0
0
LINE
5
231
100
AcDbEntity
8
0
100
AcDbLine
10
-693.66884708404541
20
-1985.3635723954017
30
0
11
-691.32884740829468
21
-1986.9235737686927
31
0
0
LINE
5
232
100
AcDbEntity
8
0
100
AcDbLine
10
-691.32884740829468
20
-1985.3635723954017
30
0
11
-693.66884708404541
21
-1986.9235737686927
31
0
0
LINE
5
233
100
AcDbEntity
8
0
100
AcDbLine
10
-690.93884706497192
20
-1989.361074722367
30
0
11
-690.15884757041931
21
-1990.3360731964881
31
0
0
LINE
5
234
100
AcDbEntity
8
0
100
AcDbLine
10
-690.15884757041931
20
-1990.3360731964881
30
0
11
-693.66884708404541
21
-1990.3360731964881
31
0
0
LINE
5
235
100
AcDbEntity
8
0
100
AcDbLine
10
-693.66884708404541
20
-1989.361074722367
30
0
11
-693.66884708404541
21
-1991.3110716706092
31
0
0
LINE
5
236
100
AcDbEntity
8
0
100
AcDbLine
10
-691.71884655952454
20
-1993.9435751801307
30
0
11
-693.66884708404541
21
-1992.2860701447303
31
0
0
LINE
5
237
100
AcDbEntity
8
0
100
AcDbLine
10
-693.66884708404541
20
-1992.2860701447303
30
0
11
-693.66884708404541
21
-1994.2360670929725
31
0
0
ARC
5
238
100
AcDbEntity
8
0
100
AcDbCircle
10
-690.93100547790527
20
-1993.463915145951
30
0
40
0.77931083738803864
210
-0
220
0
230
1
100
AcDbArc
50
-97.768619823308811
51
7.7686186853208445
0
ARC
5
239
100
AcDbEntity
8
0
100
AcDbCircle
10
-691.12432360649109
20
-1993.2408507233436
30
0
40
0.97262687981128693
210
-0
220
0
230
1
100
AcDbArc
50
-6.9518255044607962
51
79.006569653004732
0
ARC
5
240
100
AcDbEntity
8
0
100
AcDbCircle
10
-691.10580801963806
20
-1993.4556467896277
30
0
40
0.78351080417633057
210
-0
220
0
230
1
100
AcDbArc
50
218.5167214885191
51
275.08610292677184
0
LINE
5
241
100
AcDbEntity
8
0
100
AcDbLine
10
-693.66884708404541
20
-1996.8685706024939
30
0
11
-691.32884740829468
21
-1996.8685706024939
31
0
0
LINE
5
242
100
AcDbEntity
8
0
100
AcDbLine
10
-691.32884740829468
20
-1996.8685706024939
30
0
11
-691.32884740829468
21
-1998.6235697632605
31
0
0
LINE
5
243
100
AcDbEntity
8
0
100
AcDbLine
10
-691.91384673118591
20
-1999.2085631256873
30
0
11
-693.66884708404541
21
-1999.2085631256873
31
0
0
LINE
5
244
100
AcDbEntity
8
0
100
AcDbLine
10
-693.66884708404541
20
-1998.0385668640906
30
0
11
-691.32884740829468
21
-1998.0385668640906
31
0
0
ARC
5
245
100
AcDbEntity
8
0
100
AcDbCircle
10
-691.84361934661865
20
-1998.6937983399207
30
0
40
0.51954049617052067
210
-0
220
0
230
1
100
AcDbArc
50
-97.7686198232973
51
7.7686186853257846
0
LINE
5
246
100
AcDbEntity
8
0
100
AcDbLine
10
-693.66884708404541
20
-2000.3785689240271
30
0
11
-691.32884740829468
21
-2000.3785689240271
31
0
0
LINE
5
247
100
AcDbEntity
8
0
100
AcDbLine
10
-691.32884740829468
20
-2000.3785689240271
30
0
11
-691.32884740829468
21
-2002.1335680847938
31
0
0
LINE
5
248
100
AcDbEntity
8
0
100
AcDbLine
10
-691.91384673118591
20
-2002.7185614472205
30
0
11
-693.66884708404541
21
-2002.7185614472205
31
0
0
LINE
5
249
100
AcDbEntity
8
0
100
AcDbLine
10
-693.66884708404541
20
-2001.5485651856238
30
0
11
-691.32884740829468
21
-2001.5485651856238
31
0
0
ARC
5
250
100
AcDbEntity
8
0
100
AcDbCircle
10
-691.84361934661865
20
-2002.2037966614539
30
0
40
0.51954049617052067
210
-0
220
0
230
1
100
AcDbArc
50
-97.7686198232973
51
7.7686186853257846
0
ENDSEC
0
SECTION
2
OBJECTS
0
DICTIONARY
5
C
100
AcDbDictionary
3
ACAD_GROUP
350
D
3
ACAD_MLINESTYLE
350
17
0
DICTIONARY
5
D
100
AcDbDictionary
0
DICTIONARY
5
1A
330
C
100
AcDbDictionary
0
DICTIONARY
5
17
100
AcDbDictionary
0
ENDSEC
0
EOF
