0
SECTION
2
HEADER
9
$INSUNITS
70
4
9
$ACADVER
1
AC1014
9
$HANDSEED
5
FFFF
0
ENDSEC
0
SECTION
2
TABLES
0
TABLE
2
VPORT
5
8
100
AcDbSymbolTable
0
ENDTAB
0
TABLE
2
LTYPE
5
5
100
AcDbSymbolTable
0
LTYPE
5
14
100
AcDbSymbolTableRecord
100
AcDbLinetypeTableRecord
2
BYBLOCK
70
0
0
LTYPE
5
15
100
AcDbSymbolTableRecord
100
AcDbLinetypeTableRecord
2
BYLAYER
70
0
0
LTYPE
5
16
100
AcDbSymbolTableRecord
100
AcDbLinetypeTableRecord
2
DASHED
70
0
3
Dashed __ __ __ __ __ __ __ __ __ __ __ __ __ _
72
65
73
2
40
0.75
49
0.5
74
0
49
-0.25
74
0
0
ENDTAB
0
TABLE
2
LAYER
5
2
100
AcDbSymbolTable
70
3
0
LAYER
5
50
100
AcDbSymbolTableRecord
100
AcDbLayerTableRecord
2
1
70
0
62
7
6
DASHED
0
LAYER
5
51
100
AcDbSymbolTableRecord
100
AcDbLayerTableRecord
2
0
70
0
62
7
6
CONTINUOUS
0
ENDTAB
0
TABLE
2
STYLE
5
3
100
AcDbSymbolTable
70
1
0
STYLE
5
11
100
AcDbSymbolTableRecord
100
AcDbTextStyleTableRecord
2
STANDARD
70
0
0
ENDTAB
0
TABLE
2
VIEW
5
6
100
AcDbSymbolTable
70
0
0
ENDTAB
0
TABLE
2
UCS
5
7
100
AcDbSymbolTable
70
0
0
ENDTAB
0
TABLE
2
APPID
5
9
100
AcDbSymbolTable
70
2
0
APPID
5
12
100
AcDbSymbolTableRecord
100
AcDbRegAppTableRecord
2
ACAD
70
0
0
ENDTAB
0
TABLE
2
DIMSTYLE
5
A
100
AcDbSymbolTable
70
1
0
ENDTAB
0
TABLE
2
BLOCK_RECORD
5
1
100
AcDbSymbolTable
70
1
0
BLOCK_RECORD
5
1F
100
AcDbSymbolTableRecord
100
AcDbBlockTableRecord
2
*MODEL_SPACE
0
BLOCK_RECORD
5
1B
100
AcDbSymbolTableRecord
100
AcDbBlockTableRecord
2
*PAPER_SPACE
0
ENDTAB
0
ENDSEC
0
SECTION
2
BLOCKS
0
BLOCK
5
20
100
AcDbEntity
100
AcDbBlockBegin
2
*MODEL_SPACE
0
ENDBLK
5
21
100
AcDbEntity
100
AcDbBlockEnd
0
BLOCK
5
1C
100
AcDbEntity
100
AcDbBlockBegin
2
*PAPER_SPACE
0
ENDBLK
5
1D
100
AcDbEntity
100
AcDbBlockEnd
0
ENDSEC
0
SECTION
2
ENTITIES
0
POINT
5
100
100
AcDbEntity
8
0
100
AcDbPoint
10
-49.184396866474891
20
-507.76482952454438
30
0
0
POINT
5
101
100
AcDbEntity
8
0
100
AcDbPoint
10
-49.232176460697644
20
-397.76482952454444
30
0
0
CIRCLE
5
102
100
AcDbEntity
8
0
100
AcDbCircle
10
-92.727061130004515
20
-463.76482952454438
30
0
40
1.5000000000000568
210
1.9259299443872348e-33
220
-3.4666738998970252e-33
230
1
0
CIRCLE
5
103
100
AcDbEntity
8
0
100
AcDbCircle
10
-92.727061130004515
20
-407.76482952454444
30
0
40
1.5000000000000568
210
1.9259299443872348e-33
220
-3.4666738998970252e-33
230
1
0
CIRCLE
5
104
100
AcDbEntity
8
0
100
AcDbCircle
10
-92.7270611300045
20
-497.76482952454438
30
0
40
1.5000000000000568
210
1.9259299443872348e-33
220
-3.4666738998970252e-33
230
1
0
CIRCLE
5
105
100
AcDbEntity
8
0
100
AcDbCircle
10
-70.2270611300045
20
-409.76482952454444
30
0
40
1.5000000000000568
210
1.9259299443872348e-33
220
-3.4666738998970252e-33
230
1
0
CIRCLE
5
106
100
AcDbEntity
8
0
100
AcDbCircle
10
-20.227061130004508
20
-409.76482952454444
30
0
40
1.5000000000000568
210
1.9259299443872348e-33
220
-3.4666738998970252e-33
230
1
0
CIRCLE
5
107
100
AcDbEntity
8
0
100
AcDbCircle
10
-92.727061130004515
20
-441.7648295245445
30
0
40
1.5000000000000568
210
1.9259299443872348e-33
220
-3.4666738998970252e-33
230
1
0
CIRCLE
5
108
100
AcDbEntity
8
0
100
AcDbCircle
10
-70.2270611300045
20
-495.76482952454433
30
0
40
1.5000000000000568
210
1.9259299443872348e-33
220
-3.4666738998970252e-33
230
1
0
CIRCLE
5
109
100
AcDbEntity
8
0
100
AcDbCircle
10
-20.2270611300045
20
-495.76482952454444
30
0
40
1.5000000000000568
210
1.9259299443872348e-33
220
-3.4666738998970252e-33
230
1
0
LWPOLYLINE
5
110
100
AcDbEntity
8
0
100
AcDbPolyline
90
4
70
1
43
0.0
10
-8.2270611300046141
20
-507.76482952454444
10
-8.2270611300046212
20
-397.76482952454444
10
-100.22706113000451
20
-397.76482952454444
10
-100.22706113000451
20
-507.76482952454438
0
LINE
5
111
100
AcDbEntity
8
1
100
AcDbLine
10
-64.23227005332248
20
-397.77134496440965
30
0
11
-64.184490459099734
21
-507.77134496440954
31
0
0
LINE
5
112
100
AcDbEntity
8
1
100
AcDbLine
10
-64.184490459099734
20
-507.77134496440954
30
0
11
-34.184303273850055
21
-507.75831408467923
31
0
0
LINE
5
113
100
AcDbEntity
8
1
100
AcDbLine
10
-34.184303273850055
20
-507.75831408467923
30
0
11
-34.232082868072816
21
-397.75831408467934
31
0
0
LINE
5
114
100
AcDbEntity
8
1
100
AcDbLine
10
-34.232082868072816
20
-397.75831408467934
30
0
11
-64.23227005332248
21
-397.77134496440965
31
0
0
LINE
5
115
100
AcDbEntity
8
0
100
AcDbLine
10
-64.223244068827512
20
-418.54884983222269
30
0
11
-64.223921669842568
21
-416.98885099027882
31
0
0
LINE
5
116
100
AcDbEntity
8
0
100
AcDbLine
10
-64.223921669842554
20
-416.98885099027882
30
0
11
-60.713921295236915
21
-416.98732638670043
31
0
0
LINE
5
117
100
AcDbEntity
8
0
100
AcDbLine
10
-60.713921295236929
20
-416.98732638670049
30
0
11
-60.713243694221866
21
-418.54732522864435
31
0
0
LINE
5
118
100
AcDbEntity
8
0
100
AcDbLine
10
-62.273922521366352
20
-416.98800398875113
30
0
11
-62.273414320863964
21
-418.15800252416267
31
0
0
ARC
5
119
100
AcDbEntity
8
0
100
AcDbCircle
10
-63.247438650579269
20
-420.40092659487698
30
0
40
0.97499996423721313
210
-0
220
0
230
1
100
AcDbArc
50
-89.975113009785204
51
90.02489199917099
0
ARC
5
120
100
AcDbEntity
8
0
100
AcDbCircle
10
-63.247438650579269
20
-420.40092659487698
30
0
40
0.97499996423721313
210
-0
220
0
230
1
100
AcDbArc
50
90.02489199917099
51
270.02488699021478
0
ARC
5
121
100
AcDbEntity
8
0
100
AcDbCircle
10
-61.492439655369239
20
-420.40016429360554
30
0
40
0.78000001609325409
210
-0
220
0
230
1
100
AcDbArc
50
-89.97511300978455
51
90.02489199917126
0
ARC
5
122
100
AcDbEntity
8
0
100
AcDbCircle
10
-61.492439655369239
20
-420.40016429360554
30
0
40
0.78000001609325409
210
-0
220
0
230
1
100
AcDbArc
50
90.02489199917126
51
270.02488699021546
0
LINE
5
123
100
AcDbEntity
8
0
100
AcDbLine
10
-64.221507715126108
20
-422.546349397901
30
0
11
-64.221592415382446
21
-422.35134924463478
31
0
0
LINE
5
124
100
AcDbEntity
8
0
100
AcDbLine
10
-64.221592415382446
20
-422.35134924463489
30
0
11
-64.026592262116267
21
-422.35126454437852
31
0
0
LINE
5
125
100
AcDbEntity
8
0
100
AcDbLine
10
-64.026592262116267
20
-422.35126454437852
30
0
11
-64.026507561859944
21
-422.54626469764474
31
0
0
LINE
5
126
100
AcDbEntity
8
0
100
AcDbLine
10
-64.02650756185993
20
-422.54626469764469
30
0
11
-64.221507715126108
21
-422.546349397901
31
0
0
LINE
5
127
100
AcDbEntity
8
0
100
AcDbLine
10
-64.221507715126108
20
-422.546349397901
30
0
11
-65.001635378057529
21
-422.25418916111983
31
0
0
LINE
5
128
100
AcDbEntity
8
0
100
AcDbLine
10
-64.220364262183438
20
-425.17885027490166
30
0
11
-61.880364807174871
21
-425.1778338728613
31
0
0
LINE
5
129
100
AcDbEntity
8
0
100
AcDbLine
10
-61.880364807174864
20
-425.1778338728613
30
0
11
-61.879856606672476
21
-426.34783240827284
31
0
0
LINE
5
130
100
AcDbEntity
8
0
100
AcDbLine
10
-61.879856606672476
20
-426.34783240827278
30
0
11
-62.269856913204833
21
-426.3480018087854
31
0
0
LINE
5
131
100
AcDbEntity
8
0
100
AcDbLine
10
-64.218839659640679
20
-428.68884826532172
30
0
11
-64.219263160922324
21
-427.71384749899084
31
0
0
LINE
5
132
100
AcDbEntity
8
0
100
AcDbLine
10
-63.634516801892786
20
-427.12859293842325
30
0
11
-62.659518419747464
21
-427.12816943817722
31
0
0
LINE
5
133
100
AcDbEntity
8
0
100
AcDbLine
10
-62.658840817696806
20
-428.68817066430665
30
0
11
-63.0488387400436
21
-428.6883400637837
31
0
0
LINE
5
134
100
AcDbEntity
8
0
100
AcDbLine
10
-63.048838740043607
20
-428.6883400637837
30
0
11
-63.04951634209425
21
-427.12833883765427
31
0
0
ARC
5
135
100
AcDbEntity
8
0
100
AcDbCircle
10
-63.704521775636977
20
-427.64339533266468
30
0
40
0.51954049617052078
210
-0
220
0
230
1
100
AcDbArc
50
82.256275818334984
51
187.79349019392347
0
ARC
5
136
100
AcDbEntity
8
0
100
AcDbCircle
10
-62.659179618722135
20
-427.908170051242
30
0
40
0.78000001609325409
210
-0
220
0
230
1
100
AcDbArc
50
-89.975113009785616
51
90.024891999171757
0
LINE
5
137
100
AcDbEntity
8
0
100
AcDbLine
10
-62.852739868666276
20
-431.22325497283776
30
0
11
-62.853121019301966
21
-430.34575547523275
31
0
0
LINE
5
138
100
AcDbEntity
8
0
100
AcDbLine
10
-64.218119707979639
20
-430.34634837599151
30
0
11
-64.217738557343949
21
-431.22384787359647
31
0
0
LINE
5
139
100
AcDbEntity
8
0
100
AcDbLine
10
-64.217738557343949
20
-431.22384787359647
30
0
11
-62.462739562133919
21
-431.22308557232509
31
0
0
LINE
5
140
100
AcDbEntity
8
0
100
AcDbLine
10
-61.877993203104381
20
-430.63783101175761
30
0
11
-61.878332004129703
21
-429.8578303986929
31
0
0
ARC
5
141
100
AcDbEntity
8
0
100
AcDbCircle
10
-63.53562036364081
20
-430.34605192561207
30
0
40
0.68249993026256561
210
-0
220
0
230
1
100
AcDbArc
50
0.024889494682142355
51
180.02488767345559
0
ARC
5
142
100
AcDbEntity
8
0
100
AcDbCircle
10
-62.392734588389729
20
-430.70828317808378
30
0
40
0.51954049617052078
210
-0
220
0
230
1
100
AcDbArc
50
-97.743732833088515
51
7.7935056755385022
0
LINE
5
143
100
AcDbEntity
8
0
100
AcDbLine
10
-64.217230355805967
20
-432.39384879319357
30
0
11
-61.877230900797393
21
-432.39283239115321
31
0
0
LINE
5
144
100
AcDbEntity
8
0
100
AcDbLine
10
-61.877230900797393
20
-432.39283239115315
30
0
11
-61.876722700295005
21
-433.56283092656469
31
0
0
LINE
5
145
100
AcDbEntity
8
0
100
AcDbLine
10
-61.876722700295005
20
-433.56283092656469
30
0
11
-62.266723006827362
21
-433.56300032707736
31
0
0
LINE
5
146
100
AcDbEntity
8
0
100
AcDbLine
10
-65.385664322214311
20
-436.00185625387752
30
0
11
-61.875663947608658
21
-436.00033165029913
31
0
0
LINE
5
147
100
AcDbEntity
8
0
100
AcDbLine
10
-61.875663947608658
20
-436.00033165029913
30
0
11
-61.8752404473626
21
-436.97533003244445
31
0
0
LINE
5
148
100
AcDbEntity
8
0
100
AcDbLine
10
-62.459986806392145
20
-437.56058459301198
30
0
11
-63.629985341803646
21
-437.56109279351443
31
0
0
LINE
5
149
100
AcDbEntity
8
0
100
AcDbLine
10
-64.215239902371181
20
-436.97634643448481
30
0
11
-64.215663402617238
21
-436.00134805233949
31
0
0
ARC
5
150
100
AcDbEntity
8
0
100
AcDbCircle
10
-62.389981832647948
20
-437.04578219877067
30
0
40
0.51954049617052078
210
-0
220
0
230
1
100
AcDbArc
50
-97.743732833089382
51
7.7935056755385022
0
ARC
5
151
100
AcDbEntity
8
0
100
AcDbCircle
10
-63.700437508129838
20
-437.04635140822904
30
0
40
0.51954049617052078
210
-0
220
0
230
1
100
AcDbArc
50
172.25625783224427
51
277.79350317105224
0
LINE
5
152
100
AcDbEntity
8
0
100
AcDbLine
10
-64.213884699305467
20
-440.09634650255811
30
0
11
-64.214308199551539
21
-439.12134812041279
31
0
0
LINE
5
153
100
AcDbEntity
8
0
100
AcDbLine
10
-63.629561841557589
20
-438.53609117565964
30
0
11
-62.654563459412259
21
-438.53566767541361
31
0
0
LINE
5
154
100
AcDbEntity
8
0
100
AcDbLine
10
-62.653885857361615
20
-440.09566890154304
30
0
11
-63.043883779708409
21
-440.09583830102008
31
0
0
LINE
5
155
100
AcDbEntity
8
0
100
AcDbLine
10
-63.043883779708395
20
-440.09583830102019
30
0
11
-63.044561381759046
21
-438.53583707489071
31
0
0
ARC
5
156
100
AcDbEntity
8
0
100
AcDbCircle
10
-63.699566814266184
20
-439.05089595408663
30
0
40
0.51954049617052078
210
-0
220
0
230
1
100
AcDbArc
50
82.256275818334984
51
187.79349019392339
0
ARC
5
157
100
AcDbEntity
8
0
100
AcDbCircle
10
-62.65422465838693
20
-439.31566828847838
30
0
40
0.78000001609325409
210
-0
220
0
230
1
100
AcDbArc
50
-89.975113009785062
51
90.024891999171231
0
LINE
5
158
100
AcDbEntity
8
0
100
AcDbLine
10
-60.70278322240312
20
-442.62982150725452
30
0
11
-64.212783597008766
21
-442.63134611083285
31
0
0
LINE
5
159
100
AcDbEntity
8
0
100
AcDbLine
10
-64.212783597008766
20
-442.63134611083285
30
0
11
-64.213207097254823
21
-441.65634772868759
31
0
0
LINE
5
160
100
AcDbEntity
8
0
100
AcDbLine
10
-63.628460739260873
20
-441.07109078393444
30
0
11
-62.458462203849372
21
-441.07058258343204
31
0
0
LINE
5
161
100
AcDbEntity
8
0
100
AcDbLine
10
-61.873207642246243
20
-441.65533132664723
30
0
11
-61.872784142000185
21
-442.63032970879249
31
0
0
ARC
5
162
100
AcDbEntity
8
0
100
AcDbCircle
10
-63.698465711969476
20
-441.58589556236137
30
0
40
0.51954049617052078
210
-0
220
0
230
1
100
AcDbArc
50
82.256275818334132
51
187.79349019392347
0
ARC
5
163
100
AcDbEntity
8
0
100
AcDbCircle
10
-62.388010036487586
20
-441.585326352903
30
0
40
0.51954049617052078
210
-0
220
0
230
1
100
AcDbArc
50
-7.7437266861404535
51
97.793508180007493
0
LINE
5
164
100
AcDbEntity
8
0
100
AcDbLine
10
-62.84664145642401
20
-445.26325170288919
30
0
11
-62.847022607059699
21
-444.38575220528423
31
0
0
LINE
5
165
100
AcDbEntity
8
0
100
AcDbLine
10
-64.212021295737372
20
-444.38634510604288
30
0
11
-64.211640145101683
21
-445.2638446036479
31
0
0
LINE
5
166
100
AcDbEntity
8
0
100
AcDbLine
10
-64.211640145101683
20
-445.26384460364795
30
0
11
-62.456641149891645
21
-445.26308230237652
31
0
0
LINE
5
167
100
AcDbEntity
8
0
100
AcDbLine
10
-61.871894791897695
20
-444.67782535762348
30
0
11
-61.872233590851835
21
-443.89782951292989
31
0
0
ARC
5
168
100
AcDbEntity
8
0
100
AcDbCircle
10
-63.529521951398529
20
-444.38604865566356
30
0
40
0.68249993026256561
210
-0
220
0
230
1
100
AcDbArc
50
0.024889494682142355
51
180.02488767345559
0
ARC
5
169
100
AcDbEntity
8
0
100
AcDbCircle
10
-62.386636177183036
20
-444.74827752394964
30
0
40
0.51954049617052078
210
-0
220
0
230
1
100
AcDbArc
50
-97.743732833089268
51
7.7935056755322627
0
LINE
5
170
100
AcDbEntity
8
0
100
AcDbLine
10
-60.701131571029237
20
-446.43231615129548
30
0
11
-63.626131485836346
21
-446.43358665410489
31
0
0
ARC
5
171
100
AcDbEntity
8
0
100
AcDbCircle
10
-63.696136458544942
20
-446.94839143253176
30
0
40
0.51954049617052078
210
-0
220
0
230
1
100
AcDbArc
50
82.256275818334913
51
187.79349019392347
0
LINE
5
172
100
AcDbEntity
8
0
100
AcDbLine
10
-63.234267775735887
20
-450.72341585707704
30
0
11
-62.844693353635165
21
-449.74824807545468
31
0
0
ARC
5
173
100
AcDbEntity
8
0
100
AcDbCircle
10
-62.369410835969603
20
-449.90697623995885
30
0
40
0.50108645111322403
210
-0
220
0
230
1
100
AcDbArc
50
-4.1025255188450389
51
161.53242370321968
0
ARC
5
174
100
AcDbEntity
8
0
100
AcDbCircle
10
-63.680734054723672
20
-450.00154951247919
30
0
40
1.8120776116847992
210
-0
220
0
230
1
100
AcDbArc
50
-26.864991531757926
51
1.8571492112503232
0
ARC
5
175
100
AcDbEntity
8
0
100
AcDbCircle
10
-63.708670060592226
20
-450.56027656610536
30
0
40
0.5016685277223587
210
-0
220
0
230
1
100
AcDbArc
50
176.40701843237696
51
341.02289341235848
0
ARC
5
176
100
AcDbEntity
8
0
100
AcDbCircle
10
-62.144771410752881
20
-450.34935974828562
30
0
40
2.0723696053028107
210
-0
220
0
230
1
100
AcDbArc
50
154.47164734682661
51
184.96841467017637
0
LINE
5
177
100
AcDbEntity
8
0
100
AcDbLine
10
-65.378676560905134
20
-452.08934624857432
30
0
11
-61.868676186299496
21
-452.08782164499598
31
0
0
LINE
5
178
100
AcDbEntity
8
0
100
AcDbLine
10
-61.868676186299481
20
-452.08782164499598
30
0
11
-61.868252683982234
21
-453.06282479551243
31
0
0
LINE
5
179
100
AcDbEntity
8
0
100
AcDbLine
10
-62.452999044047381
20
-453.6480769718944
30
0
11
-63.622997579458882
21
-453.64858517239679
31
0
0
LINE
5
180
100
AcDbEntity
8
0
100
AcDbLine
10
-64.208252138990815
20
-453.06384119755279
30
0
11
-64.208675641308062
21
-452.08883804703635
31
0
0
ARC
5
181
100
AcDbEntity
8
0
100
AcDbCircle
10
-62.382994069267582
20
-453.13327696183865
30
0
40
0.51954049617052078
210
-0
220
0
230
1
100
AcDbArc
50
-97.743732833090149
51
7.7935056755385022
0
ARC
5
182
100
AcDbEntity
8
0
100
AcDbCircle
10
-63.693449744749486
20
-453.13384617129702
30
0
40
0.51954049617052078
210
-0
220
0
230
1
100
AcDbArc
50
172.25625783224407
51
277.79350317105298
0
LINE
5
183
100
AcDbEntity
8
0
100
AcDbLine
10
-62.841898248283023
20
-456.18324598068176
30
0
11
-62.842279398918713
21
-455.30574648307675
31
0
0
LINE
5
184
100
AcDbEntity
8
0
100
AcDbLine
10
-64.207278087596393
20
-455.30633938383551
30
0
11
-64.206896936960703
21
-456.18383888144052
31
0
0
LINE
5
185
100
AcDbEntity
8
0
100
AcDbLine
10
-64.206896936960703
20
-456.18383888144052
30
0
11
-62.451897941750673
21
-456.18307658016909
31
0
0
LINE
5
186
100
AcDbEntity
8
0
100
AcDbLine
10
-61.867151583756709
20
-455.59781963541604
30
0
11
-61.867490382710848
21
-454.8178237907224
31
0
0
ARC
5
187
100
AcDbEntity
8
0
100
AcDbCircle
10
-63.524778743257556
20
-455.30604293345618
30
0
40
0.68249993026256561
210
-0
220
0
230
1
100
AcDbArc
50
0.024889494682142355
51
180.02488767345559
0
ARC
5
188
100
AcDbEntity
8
0
100
AcDbCircle
10
-62.381892969042063
20
-455.66827180174221
30
0
40
0.51954049617052078
210
-0
220
0
230
1
100
AcDbArc
50
-97.743732833088515
51
7.7935056755385022
0
LINE
5
189
100
AcDbEntity
8
0
100
AcDbLine
10
-64.205838186345545
20
-458.62133483680384
30
0
11
-64.206176985299678
21
-457.8413389921102
31
0
0
LINE
5
190
100
AcDbEntity
8
0
100
AcDbLine
10
-63.621430627305742
20
-457.25608204735715
30
0
11
-62.451432091894233
21
-457.25557384685476
31
0
0
LINE
5
191
100
AcDbEntity
8
0
100
AcDbLine
10
-61.866177530291111
20
-457.84032259006995
30
0
11
-61.865838731336979
21
-458.62031843476353
31
0
0
ARC
5
192
100
AcDbEntity
8
0
100
AcDbCircle
10
-63.691435600014337
20
-457.77088682578409
30
0
40
0.51954049617052078
210
-0
220
0
230
1
100
AcDbArc
50
82.256275818334913
51
187.79349019392339
0
ARC
5
193
100
AcDbEntity
8
0
100
AcDbCircle
10
-62.380979924532447
20
-457.77031761632571
30
0
40
0.51954049617052078
210
-0
220
0
230
1
100
AcDbArc
50
-7.7437266861405547
51
97.793508180008274
0
LINE
5
194
100
AcDbEntity
8
0
100
AcDbLine
10
-64.204779433659212
20
-461.05883556053823
30
0
11
-64.205202933905269
21
-460.08383717839297
31
0
0
LINE
5
195
100
AcDbEntity
8
0
100
AcDbLine
10
-63.620456575911319
20
-459.49858023363987
30
0
11
-62.645458193765997
21
-459.49815673339378
31
0
0
LINE
5
196
100
AcDbEntity
8
0
100
AcDbLine
10
-62.644780591715346
20
-461.05815795952321
30
0
11
-63.03477851406214
21
-461.05832735900032
31
0
0
LINE
5
197
100
AcDbEntity
8
0
100
AcDbLine
10
-63.03477851406214
20
-461.05832735900032
30
0
11
-63.035456116112783
21
-459.49832613287083
31
0
0
ARC
5
198
100
AcDbEntity
8
0
100
AcDbCircle
10
-63.690461548619922
20
-460.01338501206675
30
0
40
0.51954049617052078
210
-0
220
0
230
1
100
AcDbArc
50
82.256275818334913
51
187.79349019392322
0
ARC
5
199
100
AcDbEntity
8
0
100
AcDbCircle
10
-62.645119392740668
20
-460.27815734645856
30
0
40
0.78000001609325409
210
-0
220
0
230
1
100
AcDbArc
50
-89.975113009785616
51
90.024891999171786
0
LINE
5
200
100
AcDbEntity
8
0
100
AcDbLine
10
-64.204313583802787
20
-462.13133282722396
30
0
11
-61.864314128794206
21
-462.13031642518359
31
0
0
LINE
5
201
100
AcDbEntity
8
0
100
AcDbLine
10
-61.864314128794206
20
-462.13031642518354
30
0
11
-61.863805927256209
21
-463.30031734478064
31
0
0
LINE
5
202
100
AcDbEntity
8
0
100
AcDbLine
10
-61.863805927256209
20
-463.30031734478064
30
0
11
-62.253806233788573
21
-463.30048674529331
31
0
0
LINE
5
203
100
AcDbEntity
8
0
100
AcDbLine
10
-64.203381879947543
20
-464.27633689733744
30
0
11
-64.203466581239468
21
-464.08133435988577
31
0
0
LINE
5
204
100
AcDbEntity
8
0
100
AcDbLine
10
-64.203466581239468
20
-464.08133435988577
30
0
11
-64.008466427973289
21
-464.08124965962941
31
0
0
LINE
5
205
100
AcDbEntity
8
0
100
AcDbLine
10
-64.008466427973303
20
-464.08124965962941
30
0
11
-64.008381726681364
21
-464.27625219708113
31
0
0
LINE
5
206
100
AcDbEntity
8
0
100
AcDbLine
10
-64.008381726681364
20
-464.27625219708113
30
0
11
-64.203381879947543
21
-464.27633689733744
31
0
0
LINE
5
207
100
AcDbEntity
8
0
100
AcDbLine
10
-64.203381879947543
20
-464.27633689733744
30
0
11
-64.98350954391455
21
-463.98417427637071
31
0
0
LINE
5
208
100
AcDbEntity
8
0
100
AcDbLine
10
-60.691941602019867
20
-467.58981251509852
30
0
11
-63.42228016458612
21
-466.81099770458684
31
0
0
LINE
5
209
100
AcDbEntity
8
0
100
AcDbLine
10
-63.42228016458612
20
-466.81099770458684
30
0
11
-63.421433162022808
21
-468.76099923724865
31
0
0
LINE
5
210
100
AcDbEntity
8
0
100
AcDbLine
10
-62.641689034948243
20
-468.17565759327476
30
0
11
-64.201687876892095
21
-468.17633519428989
31
0
0
LINE
5
211
100
AcDbEntity
8
0
100
AcDbLine
10
-64.200375022401175
20
-471.19883876200845
30
0
11
-61.859697965341951
21
-472.75782358609746
31
0
0
LINE
5
212
100
AcDbEntity
8
0
100
AcDbLine
10
-61.860375567392595
20
-471.19782235996809
30
0
11
-64.199697420350518
21
-472.75883998813788
31
0
0
LINE
5
213
100
AcDbEntity
8
0
100
AcDbLine
10
-61.468638906123246
20
-475.19515490931923
30
0
11
-60.688214792812474
21
-476.16981449043919
31
0
0
LINE
5
214
100
AcDbEntity
8
0
100
AcDbLine
10
-60.688214792812474
20
-476.16981449043925
30
0
11
-64.198215167418113
21
-476.17133909401764
31
0
0
LINE
5
215
100
AcDbEntity
8
0
100
AcDbLine
10
-64.198638667664184
20
-475.19634071187232
30
0
11
-64.197791665100866
21
-477.14634224453414
31
0
0
LINE
5
216
100
AcDbEntity
8
0
100
AcDbLine
10
-62.24664906471758
20
-479.77799373582144
30
0
11
-64.197368162783619
21
-478.12134539505058
31
0
0
LINE
5
217
100
AcDbEntity
8
0
100
AcDbLine
10
-64.197368162783619
20
-478.12134539505053
30
0
11
-64.196521162291504
21
-480.07134215934116
31
0
0
ARC
5
218
100
AcDbEntity
8
0
100
AcDbCircle
10
-61.45901521041354
20
-479.29799153979377
30
0
40
0.77931083738803864
210
-0
220
0
230
1
100
AcDbArc
50
-97.74373283308897
51
7.7935056755327787
0
ARC
5
219
100
AcDbEntity
8
0
100
AcDbCircle
10
-61.652431403097367
20
-479.0750111083911
30
0
40
0.97262687981128693
210
-0
220
0
230
1
100
AcDbArc
50
-6.9269385142475315
51
79.031456643225425
0
ARC
5
220
100
AcDbEntity
8
0
100
AcDbCircle
10
-61.633820135006161
20
-479.28979911094842
30
0
40
0.78351080417633057
210
-0
220
0
230
1
100
AcDbArc
50
218.54160847872535
51
275.110989916986
0
LINE
5
221
100
AcDbEntity
8
0
100
AcDbLine
10
-64.195377708313231
20
-482.70384542052739
30
0
11
-61.85537825330465
21
-482.70282901848702
31
0
0
LINE
5
222
100
AcDbEntity
8
0
100
AcDbLine
10
-61.85537825330465
20
-482.70282901848702
30
0
11
-61.854615952033271
21
-484.45782801369711
31
0
0
LINE
5
223
100
AcDbEntity
8
0
100
AcDbLine
10
-62.4393623141696
20
-485.04307542170795
30
0
11
-64.194361309379644
21
-485.04383772297933
31
0
0
LINE
5
224
100
AcDbEntity
8
0
100
AcDbLine
10
-64.194869508846438
20
-483.87384157175336
30
0
11
-61.854870053837857
21
-483.872825169713
31
0
0
ARC
5
225
100
AcDbEntity
8
0
100
AcDbCircle
10
-62.369357337318618
20
-484.52828018002322
30
0
40
0.51954049617052078
210
-0
220
0
230
1
100
AcDbArc
50
-97.743732833088515
51
7.7935056755385022
0
LINE
5
226
100
AcDbEntity
8
0
100
AcDbLine
10
-64.193853105770458
20
-486.21384341094745
30
0
11
-61.853853650761877
21
-486.21282700890708
31
0
0
LINE
5
227
100
AcDbEntity
8
0
100
AcDbLine
10
-61.853853650761877
20
-486.21282700890708
30
0
11
-61.853091349490498
21
-487.96782600411717
31
0
0
LINE
5
228
100
AcDbEntity
8
0
100
AcDbLine
10
-62.437837711626827
20
-488.5530734121279
30
0
11
-64.192836706836857
21
-488.55383571339934
31
0
0
LINE
5
229
100
AcDbEntity
8
0
100
AcDbLine
10
-64.193344906303651
20
-487.38383956217342
30
0
11
-61.853345451295084
21
-487.38282316013306
31
0
0
ARC
5
230
100
AcDbEntity
8
0
100
AcDbCircle
10
-62.367832734775845
20
-488.03827817044339
30
0
40
0.51954049617052078
210
-0
220
0
230
1
100
AcDbArc
50
-97.743732833089382
51
7.7935056755385022
0
ENDSEC
0
SECTION
2
OBJECTS
0
DICTIONARY
5
C
100
AcDbDictionary
3
ACAD_GROUP
350
D
3
ACAD_MLINESTYLE
350
17
0
DICTIONARY
5
D
100
AcDbDictionary
0
DICTIONARY
5
1A
330
C
100
AcDbDictionary
0
DICTIONARY
5
17
100
AcDbDictionary
0
ENDSEC
0
EOF
