0
SECTION
2
HEADER
9
$INSUNITS
70
4
9
$ACADVER
1
AC1014
9
$HANDSEED
5
FFFF
0
ENDSEC
0
SECTION
2
TABLES
0
TABLE
2
VPORT
5
8
100
AcDbSymbolTable
0
ENDTAB
0
TABLE
2
LTYPE
5
5
100
AcDbSymbolTable
0
LTYPE
5
14
100
AcDbSymbolTableRecord
100
AcDbLinetypeTableRecord
2
BYBLOCK
70
0
0
LTYPE
5
15
100
AcDbSymbolTableRecord
100
AcDbLinetypeTableRecord
2
BYLAYER
70
0
0
LTYPE
5
16
100
AcDbSymbolTableRecord
100
AcDbLinetypeTableRecord
2
DASHED
70
0
3
Dashed __ __ __ __ __ __ __ __ __ __ __ __ __ _
72
65
73
2
40
0.75
49
0.5
74
0
49
-0.25
74
0
0
ENDTAB
0
TABLE
2
LAYER
5
2
100
AcDbSymbolTable
70
3
0
LAYER
5
50
100
AcDbSymbolTableRecord
100
AcDbLayerTableRecord
2
1
70
0
62
7
6
DASHED
0
LAYER
5
51
100
AcDbSymbolTableRecord
100
AcDbLayerTableRecord
2
0
70
0
62
7
6
CONTINUOUS
0
ENDTAB
0
TABLE
2
STYLE
5
3
100
AcDbSymbolTable
70
1
0
STYLE
5
11
100
AcDbSymbolTableRecord
100
AcDbTextStyleTableRecord
2
STANDARD
70
0
0
ENDTAB
0
TABLE
2
VIEW
5
6
100
AcDbSymbolTable
70
0
0
ENDTAB
0
TABLE
2
UCS
5
7
100
AcDbSymbolTable
70
0
0
ENDTAB
0
TABLE
2
APPID
5
9
100
AcDbSymbolTable
70
2
0
APPID
5
12
100
AcDbSymbolTableRecord
100
AcDbRegAppTableRecord
2
ACAD
70
0
0
ENDTAB
0
TABLE
2
DIMSTYLE
5
A
100
AcDbSymbolTable
70
1
0
ENDTAB
0
TABLE
2
BLOCK_RECORD
5
1
100
AcDbSymbolTable
70
1
0
BLOCK_RECORD
5
1F
100
AcDbSymbolTableRecord
100
AcDbBlockTableRecord
2
*MODEL_SPACE
0
BLOCK_RECORD
5
1B
100
AcDbSymbolTableRecord
100
AcDbBlockTableRecord
2
*PAPER_SPACE
0
ENDTAB
0
ENDSEC
0
SECTION
2
BLOCKS
0
BLOCK
5
20
100
AcDbEntity
100
AcDbBlockBegin
2
*MODEL_SPACE
0
ENDBLK
5
21
100
AcDbEntity
100
AcDbBlockEnd
0
BLOCK
5
1C
100
AcDbEntity
100
AcDbBlockBegin
2
*PAPER_SPACE
0
ENDBLK
5
1D
100
AcDbEntity
100
AcDbBlockEnd
0
ENDSEC
0
SECTION
2
ENTITIES
0
CIRCLE
5
100
100
AcDbEntity
8
0
100
AcDbCircle
10
-646.09904373215636
20
-1473.0819464680246
30
0
40
1.5000000000000566
210
0
220
0
230
1
0
CIRCLE
5
101
100
AcDbEntity
8
0
100
AcDbCircle
10
-699.52171673939631
20
-1473.1751867166195
30
0
40
1.5000000000000566
210
0
220
0
230
1
0
CIRCLE
5
102
100
AcDbEntity
8
0
100
AcDbCircle
10
-798.74591836588138
20
-1417.3482805010826
30
0
40
1.5000000000000568
210
8.8861369539191231e-54
220
4.2764316004463489e-50
230
1
0
CIRCLE
5
103
100
AcDbEntity
8
0
100
AcDbCircle
10
-641.46326013859721
20
-1489.7808809373462
30
0
40
1.5000000000000566
210
8.3523769976243143e-53
220
1.4577662699674596e-55
230
1
0
LWPOLYLINE
5
104
100
AcDbEntity
8
0
100
AcDbPolyline
90
8
70
1
43
0.0
10
-656.72935255536743
20
-1479.2005091666538
42
0.99999999999999989
10
-652.09502524720324
20
-1475.389602397812
10
-652.10281230039277
20
-1470.9279541021233
42
0.99999999999999989
10
-656.6386459347608
20
-1467.0003322718885
10
-689.1881165247936
20
-1467.0571418727304
42
0.99999999999999989
10
-693.52514929705626
20
-1471.203242056315
10
-693.51842484947281
20
-1475.0560628048627
42
0.99999999999999989
10
-689.23472375633821
20
-1479.2572417994638
0
LWPOLYLINE
5
105
100
AcDbEntity
8
0
100
AcDbPolyline
90
8
70
1
43
0.0
10
-782.50857807750663
20
-1553.3201481074357
10
-640.95217487857838
20
-1507.2231595622966
42
0.72786479926565906
10
-641.1155649827009
20
-1438.7089012487659
10
-782.78783061605031
20
-1393.3203918013091
10
-818.78777578492861
20
-1393.3832236224814
42
0.41421356237306389
10
-822.78078837911835
20
-1397.3901988435982
10
-822.51549846750186
20
-1549.3899673344185
42
0.41421356237306384
10
-818.50852324638549
20
-1553.3829799286079
0
CIRCLE
5
106
100
AcDbEntity
8
0
100
AcDbCircle
10
-815.02947251757928
20
-1541.376889556368
30
0
40
1.5000000000000566
210
8.3523769976243143e-53
220
1.4577662699674596e-55
230
1
0
CIRCLE
5
107
100
AcDbEntity
8
0
100
AcDbCircle
10
-815.0888136820198
20
-1507.3769413413156
30
0
40
1.5000000000000566
210
8.3523769976243143e-53
220
1.4577662699674596e-55
230
1
0
CIRCLE
5
108
100
AcDbEntity
8
0
100
AcDbCircle
10
-815.26683717534172
20
-1405.3770966961602
30
0
40
1.5000000000000568
210
8.8861369539191231e-54
220
4.2764316004463489e-50
230
1
0
CIRCLE
5
109
100
AcDbEntity
8
0
100
AcDbCircle
10
-815.20749601090074
20
-1439.3770449112121
30
0
40
1.5000000000000568
210
8.8861369539191231e-54
220
4.2764316004463489e-50
230
1
0
CIRCLE
5
110
100
AcDbEntity
8
0
100
AcDbCircle
10
-798.55044158890087
20
-1529.3481099153712
30
0
40
1.5000000000000566
210
8.3523769976243143e-53
220
1.4577662699674596e-55
230
1
0
CIRCLE
5
111
100
AcDbEntity
8
0
100
AcDbCircle
10
-641.52157854061556
20
-1456.366931829765
30
0
40
1.5000000000000568
210
8.8861369539191231e-54
220
4.2764316004463489e-50
230
1
0
LINE
5
112
100
AcDbEntity
8
1
100
AcDbLine
10
-792.74623982501157
20
-1399.3205693750585
30
0
11
-792.74360077586618
21
-1547.3203306116945
31
0
0
LINE
5
113
100
AcDbEntity
8
1
100
AcDbLine
10
-792.74360077586618
20
-1547.3203306116945
30
0
11
-778.36760159618223
21
-1547.3200742669001
31
0
0
LINE
5
114
100
AcDbEntity
8
1
100
AcDbLine
10
-778.36760159618223
20
-1547.3200742669001
30
0
11
-778.37024064532761
21
-1399.3203130302641
31
0
0
LINE
5
115
100
AcDbEntity
8
1
100
AcDbLine
10
-778.37024064532761
20
-1399.3203130302641
30
0
11
-792.74623982501157
21
-1399.3205693750585
31
0
0
LINE
5
116
100
AcDbEntity
8
0
100
AcDbLine
10
-792.74581577643698
20
-1423.1566980829871
30
0
11
-787.48078402053397
21
-1424.9116057451104
31
0
0
LINE
5
117
100
AcDbEntity
8
0
100
AcDbLine
10
-787.48078402053375
20
-1424.9116057451104
30
0
11
-792.7457531880633
21
-1426.6666987881479
31
0
0
LINE
5
118
100
AcDbEntity
8
0
100
AcDbLine
10
-791.42951044914616
20
-1426.2279255273804
30
0
11
-791.42955739043703
21
-1423.5954244024633
31
0
0
LINE
5
119
100
AcDbEntity
8
0
100
AcDbLine
10
-789.82068780160091
20
-1430.3228956769212
30
0
11
-792.74573232525779
21
-1427.8366998179299
31
0
0
LINE
5
120
100
AcDbEntity
8
0
100
AcDbLine
10
-792.74573232525779
20
-1427.8366998179304
30
0
11
-792.74568016828675
21
-1430.7617000082
31
0
0
ARC
5
121
100
AcDbEntity
8
0
100
AcDbCircle
10
-788.63893841281606
20
-1429.6033869374276
30
0
40
1.1689662933349609
210
-0
220
0
230
1
100
AcDbArc
50
-97.767598156942398
51
7.7696403516767845
0
ARC
5
122
100
AcDbEntity
8
0
100
AcDbCircle
10
-788.92892097590004
20
-1429.2687978584563
30
0
40
1.4589405059814451
210
-0
220
0
230
1
100
AcDbArc
50
-6.9508038381139894
51
79.007591319375976
0
ARC
5
123
100
AcDbEntity
8
0
100
AcDbCircle
10
-788.90114185043967
20
-1429.590991462592
30
0
40
1.1752662807703018
210
-0
220
0
230
1
100
AcDbArc
50
218.51774315487074
51
275.08712459313466
0
LINE
5
124
100
AcDbEntity
8
0
100
AcDbLine
10
-792.74564887412123
20
-1432.5166991686876
30
0
11
-792.74565408984381
21
-1432.2241977191493
31
0
0
LINE
5
125
100
AcDbEntity
8
0
100
AcDbLine
10
-792.74565408984381
20
-1432.2241977191491
30
0
11
-792.45315383239824
21
-1432.2241925034475
31
0
0
LINE
5
126
100
AcDbEntity
8
0
100
AcDbLine
10
-792.45315383239836
20
-1432.2241925034477
30
0
11
-792.45314861667578
21
-1432.5166939529863
31
0
0
LINE
5
127
100
AcDbEntity
8
0
100
AcDbLine
10
-792.45314861667578
20
-1432.5166939529863
30
0
11
-792.74564887412134
21
-1432.5166991686876
31
0
0
LINE
5
128
100
AcDbEntity
8
0
100
AcDbLine
10
-792.74564887412123
20
-1432.5166991686876
30
0
11
-793.9156565353519
21
-1432.0779702413497
31
0
0
LINE
5
129
100
AcDbEntity
8
0
100
AcDbLine
10
-794.50057881478665
20
-1436.4654809581575
30
0
11
-789.23557775704523
21
-1436.4653870755969
31
0
0
LINE
5
130
100
AcDbEntity
8
0
100
AcDbLine
10
-789.23557775704523
20
-1436.4653870755967
30
0
11
-789.23555167855977
21
-1437.9278871707315
31
0
0
LINE
5
131
100
AcDbEntity
8
0
100
AcDbLine
10
-790.11303680381366
20
-1438.8054023980794
30
0
11
-791.86803715639417
21
-1438.8054336922662
31
0
0
LINE
5
132
100
AcDbEntity
8
0
100
AcDbLine
10
-792.74555238372068
20
-1437.9279497591053
30
0
11
-792.74557846220614
21
-1436.4654496639705
31
0
0
ARC
5
133
100
AcDbEntity
8
0
100
AcDbCircle
10
-790.00770889960063
20
-1438.0332438044152
30
0
40
0.77931083738803864
210
-0
220
0
230
1
100
AcDbArc
50
-97.767598156936558
51
7.7696403516610211
0
ARC
5
134
100
AcDbEntity
8
0
100
AcDbCircle
10
-791.97339259794239
20
-1438.0332788553901
30
0
40
0.77931083738803864
210
-0
220
0
230
1
100
AcDbArc
50
172.23239250839367
51
277.76963784721846
0
LINE
5
135
100
AcDbEntity
8
0
100
AcDbLine
10
-792.74546893254171
20
-1442.6079514940486
30
0
11
-792.74549501106981
21
-1441.1454490147278
31
0
0
LINE
5
136
100
AcDbEntity
8
0
100
AcDbLine
10
-791.8680110779087
20
-1440.2679337874015
30
0
11
-790.40551098277376
21
-1440.2679077089158
31
0
0
LINE
5
137
100
AcDbEntity
8
0
100
AcDbLine
10
-790.40546925716296
20
-1442.6079097684803
30
0
11
-790.99046857996132
21
-1442.6079201998618
31
0
0
LINE
5
138
100
AcDbEntity
8
0
100
AcDbLine
10
-790.99046857996109
20
-1442.6079201998618
30
0
11
-790.99051030557189
21
-1440.2679181402973
31
0
0
ARC
5
139
100
AcDbEntity
8
0
100
AcDbCircle
10
-791.97333898203669
20
-1441.0400971494371
30
0
40
0.77931083738803864
210
-0
220
0
230
1
100
AcDbArc
50
82.232410494475417
51
187.76962487005076
0
ARC
5
140
100
AcDbEntity
8
0
100
AcDbCircle
10
-790.40549011996836
20
-1441.4379087386983
30
0
40
1.1700000613927841
210
-0
220
0
230
1
100
AcDbArc
50
-89.998978333630802
51
90.001026675317931
0
LINE
5
141
100
AcDbEntity
8
0
100
AcDbLine
10
-787.48040066679278
20
-1446.4103573820123
30
0
11
-792.74540112848786
21
-1446.4104512645622
31
0
0
LINE
5
142
100
AcDbEntity
8
0
100
AcDbLine
10
-792.74540112848786
20
-1446.4104512645622
30
0
11
-792.74542720701584
21
-1444.9479487852414
31
0
0
LINE
5
143
100
AcDbEntity
8
0
100
AcDbLine
10
-791.86794327385485
20
-1444.0704335579151
30
0
11
-790.11294292127434
21
-1444.0704022637283
31
0
0
LINE
5
144
100
AcDbEntity
8
0
100
AcDbLine
10
-789.23542650185493
20
-1444.9478861968678
30
0
11
-789.23540042332684
21
-1446.4103886761884
31
0
0
ARC
5
145
100
AcDbEntity
8
0
100
AcDbCircle
10
-791.97327117798284
20
-1444.8425969199507
30
0
40
0.77931083738803864
210
-0
220
0
230
1
100
AcDbArc
50
82.232410494483702
51
187.76962487006733
0
ARC
5
146
100
AcDbEntity
8
0
100
AcDbCircle
10
-790.00758747964119
20
-1444.842561868976
30
0
40
0.77931083738803864
210
-0
220
0
230
1
100
AcDbArc
50
-7.7675920100032974
51
97.769642856147314
0
LINE
5
147
100
AcDbEntity
8
0
100
AcDbLine
10
-790.69783010654669
20
-1450.3591652499567
30
0
11
-790.69785357721344
21
-1449.0429134954052
31
0
0
LINE
5
148
100
AcDbEntity
8
0
100
AcDbLine
10
-792.74535418723963
20
-1449.0429500052937
30
0
11
-792.74533071657288
21
-1450.3592017598453
31
0
0
LINE
5
149
100
AcDbEntity
8
0
100
AcDbLine
10
-792.74533071657277
20
-1450.3592017598451
30
0
11
-790.11283078374845
21
-1450.3591548185752
31
0
0
LINE
5
150
100
AcDbEntity
8
0
100
AcDbLine
10
-789.23534565849468
20
-1449.4816395912276
30
0
11
-789.23536652130008
21
-1448.3116385614451
31
0
0
ARC
5
151
100
AcDbEntity
8
0
100
AcDbCircle
10
-791.72160388222653
20
-1449.0429317503495
30
0
40
1.0237500816583633
210
-0
220
0
230
1
100
AcDbArc
50
0.0010241704395367256
51
180.00102234929108
0
ARC
5
152
100
AcDbEntity
8
0
100
AcDbCircle
10
-790.00750287953554
20
-1449.5869962249112
30
0
40
0.77931083738803864
210
-0
220
0
230
1
100
AcDbArc
50
-97.767598156930546
51
7.7696403516765011
0
LINE
5
153
100
AcDbEntity
8
0
100
AcDbLine
10
-787.48029896071216
20
-1452.1141070377828
30
0
11
-791.86779984216344
21
-1452.1141852732501
31
0
0
ARC
5
154
100
AcDbEntity
8
0
100
AcDbCircle
10
-791.97312774637635
20
-1452.8863438669143
30
0
40
0.77931083738803864
210
-0
220
0
230
1
100
AcDbArc
50
82.232410494485976
51
187.76962487005076
0
LINE
5
155
100
AcDbEntity
8
0
100
AcDbLine
10
-791.2826845819701
20
-1458.5491733530923
30
0
11
-790.69771014552202
21
-1457.0866652107406
31
0
0
ARC
5
156
100
AcDbEntity
8
0
100
AcDbCircle
10
-789.9848867952021
20
-1457.3250520057254
30
0
40
0.75162976980209351
210
-0
220
0
230
1
100
AcDbArc
50
-4.12639084270997
51
161.50855837938357
0
ARC
5
157
100
AcDbEntity
8
0
100
AcDbCircle
10
-791.95193054139156
20
-1457.4660925970263
30
0
40
2.7181166410446167
210
-0
220
0
230
1
100
AcDbArc
50
-26.888856855613188
51
1.8332838874000346
0
ARC
5
158
100
AcDbEntity
8
0
100
AcDbCircle
10
-791.99418601920138
20
-1458.3041728031503
30
0
40
0.75250290334224701
210
-0
220
0
230
1
100
AcDbArc
50
176.38315310852508
51
340.99902808850891
0
ARC
5
159
100
AcDbEntity
8
0
100
AcDbCircle
10
-789.64820408455137
20
-1457.9887699479104
30
0
40
3.1085547804832458
210
-0
220
0
230
1
100
AcDbArc
50
154.44778202297198
51
184.9445493463262
0
LINE
5
160
100
AcDbEntity
8
0
100
AcDbLine
10
-794.50014851979734
20
-1460.5967313357905
30
0
11
-789.23514746205581
21
-1460.59663745323
31
0
0
LINE
5
161
100
AcDbEntity
8
0
100
AcDbLine
10
-789.23514746205592
20
-1460.59663745323
30
0
11
-789.23512138352794
21
-1462.0591399325508
31
0
0
LINE
5
162
100
AcDbEntity
8
0
100
AcDbLine
10
-790.11260650878182
20
-1462.9366551598987
30
0
11
-791.86760686136245
21
-1462.9366864540852
31
0
0
LINE
5
163
100
AcDbEntity
8
0
100
AcDbLine
10
-792.74512208868884
20
-1462.0592025209246
30
0
11
-792.74514816721694
21
-1460.5967000416038
31
0
0
ARC
5
164
100
AcDbEntity
8
0
100
AcDbCircle
10
-790.00727860465395
20
-1462.1644917978629
30
0
40
0.77931083738803864
210
-0
220
0
230
1
100
AcDbArc
50
-97.767598156930546
51
7.7696403516765011
0
ARC
5
165
100
AcDbEntity
8
0
100
AcDbCircle
10
-791.9729623029956
20
-1462.1645268488376
30
0
40
0.77931083738803864
210
-0
220
0
230
1
100
AcDbArc
50
172.23239250839367
51
277.76963784720795
0
LINE
5
166
100
AcDbEntity
8
0
100
AcDbLine
10
-790.69753802752632
20
-1466.7391653617938
30
0
11
-790.69756149819295
21
-1465.4229136072422
31
0
0
LINE
5
167
100
AcDbEntity
8
0
100
AcDbLine
10
-792.74506210821892
20
-1465.4229501171303
30
0
11
-792.74503863755228
21
-1466.7392018716819
31
0
0
LINE
5
168
100
AcDbEntity
8
0
100
AcDbLine
10
-792.74503863755228
20
-1466.7392018716819
30
0
11
-790.11253870472797
21
-1466.7391549304123
31
0
0
LINE
5
169
100
AcDbEntity
8
0
100
AcDbLine
10
-789.2350535794742
20
-1465.8616397030644
30
0
11
-789.23507444227971
21
-1464.6916386732821
31
0
0
ARC
5
170
100
AcDbEntity
8
0
100
AcDbCircle
10
-791.72131180320605
20
-1465.4229318621865
30
0
40
1.0237500816583633
210
-0
220
0
230
1
100
AcDbArc
50
0.0010241704395367256
51
180.00102234929108
0
ARC
5
171
100
AcDbEntity
8
0
100
AcDbCircle
10
-790.00721080059998
20
-1465.9669915683764
30
0
40
0.77931083738803864
210
-0
220
0
230
1
100
AcDbArc
50
-97.767598156938845
51
7.7696403516775838
0
LINE
5
172
100
AcDbEntity
8
0
100
AcDbLine
10
-792.74497344135978
20
-1470.3954509174264
30
0
11
-792.74499430416529
21
-1469.2254498876441
31
0
0
LINE
5
173
100
AcDbEntity
8
0
100
AcDbLine
10
-791.86751037100419
20
-1468.3479346603176
30
0
11
-790.11251001842368
21
-1468.3479033661308
31
0
0
LINE
5
174
100
AcDbEntity
8
0
100
AcDbLine
10
-789.23499359900438
20
-1469.2253872992703
30
0
11
-789.23497273619887
21
-1470.3953883290526
31
0
0
ARC
5
175
100
AcDbEntity
8
0
100
AcDbCircle
10
-791.97283827513218
20
-1469.1200980223534
30
0
40
0.77931083738803864
210
-0
220
0
230
1
100
AcDbArc
50
82.232410494485976
51
187.76962487005076
0
ARC
5
176
100
AcDbEntity
8
0
100
AcDbCircle
10
-790.00715457679053
20
-1469.1200629713785
30
0
40
0.77931083738803864
210
-0
220
0
230
1
100
AcDbArc
50
-7.7675920100032974
51
97.769642856147314
0
LINE
5
177
100
AcDbEntity
8
0
100
AcDbLine
10
-792.74490824508234
20
-1474.0517047315425
30
0
11
-792.74493432361044
21
-1472.5892022522216
31
0
0
LINE
5
178
100
AcDbEntity
8
0
100
AcDbLine
10
-791.86745039044933
20
-1471.7116870248949
30
0
11
-790.40495029531439
21
-1471.7116609464094
31
0
0
LINE
5
179
100
AcDbEntity
8
0
100
AcDbLine
10
-790.40490856970359
20
-1474.0516630059742
30
0
11
-790.98990789250195
21
-1474.0516734373557
31
0
0
LINE
5
180
100
AcDbEntity
8
0
100
AcDbLine
10
-790.98990789250183
20
-1474.0516734373555
30
0
11
-790.98994961811263
21
-1471.7116713777909
31
0
0
ARC
5
181
100
AcDbEntity
8
0
100
AcDbCircle
10
-791.97277829457732
20
-1472.4838503869307
30
0
40
0.77931083738803864
210
-0
220
0
230
1
100
AcDbArc
50
82.232410494485976
51
187.76962487005076
0
ARC
5
182
100
AcDbEntity
8
0
100
AcDbCircle
10
-790.40492943250899
20
-1472.8816619761917
30
0
40
1.1700000613927841
210
-0
220
0
230
1
100
AcDbArc
50
-89.998978333636387
51
90.001026675317931
0
LINE
5
183
100
AcDbEntity
8
0
100
AcDbLine
10
-792.74487955877805
20
-1475.6604531672608
30
0
11
-789.23487885361715
21
-1475.660390578887
31
0
0
LINE
5
184
100
AcDbEntity
8
0
100
AcDbLine
10
-789.23487885361715
20
-1475.660390578887
30
0
11
-789.23484755945151
21
-1477.4153897393744
31
0
0
LINE
5
185
100
AcDbEntity
8
0
100
AcDbLine
10
-789.23484755945151
20
-1477.4153897393744
30
0
11
-789.81984807434276
21
-1477.415400170777
31
0
0
LINE
5
186
100
AcDbEntity
8
0
100
AcDbLine
10
-792.74482218608443
20
-1478.877954807069
30
0
11
-792.74482740180702
21
-1478.5854533575307
31
0
0
LINE
5
187
100
AcDbEntity
8
0
100
AcDbLine
10
-792.74482740180702
20
-1478.5854533575307
30
0
11
-792.45232714436145
21
-1478.5854481418291
31
0
0
LINE
5
188
100
AcDbEntity
8
0
100
AcDbLine
10
-792.45232714436156
20
-1478.5854481418291
30
0
11
-792.45232192863898
21
-1478.8779495913675
31
0
0
LINE
5
189
100
AcDbEntity
8
0
100
AcDbLine
10
-792.45232192863898
20
-1478.8779495913675
30
0
11
-792.74482218608455
21
-1478.877954807069
31
0
0
LINE
5
190
100
AcDbEntity
8
0
100
AcDbLine
10
-792.74482218608443
20
-1478.877954807069
30
0
11
-793.91482984735774
21
-1478.4392234955453
31
0
0
LINE
5
191
100
AcDbEntity
8
0
100
AcDbLine
10
-789.81970985845874
20
-1485.1666456682024
30
0
11
-792.74475438211562
21
-1482.680449809211
31
0
0
LINE
5
192
100
AcDbEntity
8
0
100
AcDbLine
10
-792.74475438211562
20
-1482.680449809211
30
0
11
-792.74470222505965
21
-1485.6054547678525
31
0
0
ARC
5
193
100
AcDbEntity
8
0
100
AcDbCircle
10
-788.63796046954633
20
-1484.4471440812661
30
0
40
1.1689662933349609
210
-0
220
0
230
1
100
AcDbArc
50
-97.767598156942398
51
7.7696403516767845
0
ARC
5
194
100
AcDbEntity
8
0
100
AcDbCircle
10
-788.92794303267294
20
-1484.1125526181088
30
0
40
1.4589405059814451
210
-0
220
0
230
1
100
AcDbArc
50
-6.9508038381051342
51
79.00759131937329
0
ARC
5
195
100
AcDbEntity
8
0
100
AcDbCircle
10
-788.90016390729761
20
-1484.4347414538729
30
0
40
1.1752662807703018
210
-0
220
0
230
1
100
AcDbArc
50
218.51774315486551
51
275.08712459313466
0
LINE
5
196
100
AcDbEntity
8
0
100
AcDbLine
10
-792.74463702878222
20
-1489.2617085819686
30
0
11
-789.23459459818048
21
-1491.6016385164162
31
0
0
LINE
5
197
100
AcDbEntity
8
0
100
AcDbLine
10
-789.23463632362132
20
-1489.2616459935948
30
0
11
-792.74459530334161
21
-1491.6017011047898
31
0
0
LINE
5
198
100
AcDbEntity
8
0
100
AcDbLine
10
-789.81952991679407
20
-1495.2579027619347
30
0
11
-789.81949862262854
21
-1497.0129019224223
31
0
0
LINE
5
199
100
AcDbEntity
8
0
100
AcDbLine
10
-790.98947759742737
20
-1498.1829285833603
30
0
11
-791.28197785487305
21
-1498.1829337990619
31
0
0
LINE
5
200
100
AcDbEntity
8
0
100
AcDbLine
10
-791.28203001192901
20
-1495.2579288404204
30
0
11
-789.81952991679407
21
-1495.2579027619347
31
0
0
ARC
5
201
100
AcDbEntity
8
0
100
AcDbCircle
10
-790.84903999455935
20
-1497.1533774339721
30
0
40
1.0390811413526533
210
-0
220
0
230
1
100
AcDbArc
50
-97.7675981569366
51
7.7696403516714678
0
ARC
5
202
100
AcDbEntity
8
0
100
AcDbCircle
10
-791.28200393348607
20
-1496.7204265513694
30
0
40
1.4625000953674316
210
-0
220
0
230
1
100
AcDbArc
50
90.001026675315998
51
270.00102166636287
0
ARC
5
203
100
AcDbEntity
8
0
100
AcDbCircle
10
-789.53858246997311
20
-1497.31698550586
30
0
40
2.078162282705307
210
-0
220
0
230
1
100
AcDbArc
50
-7.7675920099925095
51
97.769642856159834
0
LINE
5
204
100
AcDbEntity
8
0
100
AcDbLine
10
-792.74440753800786
20
-1502.1317151412018
30
0
11
-789.23440683284696
21
-1502.131652552828
31
0
0
LINE
5
205
100
AcDbEntity
8
0
100
AcDbLine
10
-789.23440683284696
20
-1502.131652552828
30
0
11
-789.23435989168354
21
-1504.7641465251877
31
0
0
LINE
5
206
100
AcDbEntity
8
0
100
AcDbLine
10
-790.11184501685239
20
-1505.6416665209074
30
0
11
-792.74434494967659
21
-1505.641713462177
31
0
0
LINE
5
207
100
AcDbEntity
8
0
100
AcDbLine
10
-792.74437624384234
20
-1503.8867143016892
30
0
11
-789.23437553868143
21
-1503.8866517133156
31
0
0
ARC
5
208
100
AcDbEntity
8
0
100
AcDbCircle
10
-790.0065171127244
20
-1504.8695031588716
30
0
40
0.77931083738803864
210
-0
220
0
230
1
100
AcDbArc
50
-97.767598156938845
51
7.7696403516775838
0
LINE
5
209
100
AcDbEntity
8
0
100
AcDbLine
10
-792.74431365551106
20
-1507.3967126226646
30
0
11
-789.23431295035016
21
-1507.3966500342908
31
0
0
LINE
5
210
100
AcDbEntity
8
0
100
AcDbLine
10
-789.23431295035016
20
-1507.3966500342908
30
0
11
-789.23426600918674
21
-1510.0291440066505
31
0
0
LINE
5
211
100
AcDbEntity
8
0
100
AcDbLine
10
-790.1117511343557
20
-1510.9066640023702
30
0
11
-792.74425106718002
21
-1510.9067109436398
31
0
0
LINE
5
212
100
AcDbEntity
8
0
100
AcDbLine
10
-792.74428236134554
20
-1509.151711783152
30
0
11
-789.23428165618463
21
-1509.1516491947782
31
0
0
ARC
5
213
100
AcDbEntity
8
0
100
AcDbCircle
10
-790.00642323022771
20
-1510.134500640334
30
0
40
0.77931083738803864
210
-0
220
0
230
1
100
AcDbArc
50
-97.767598156936558
51
7.7696403516610211
0
LINE
5
214
100
AcDbEntity
8
0
100
AcDbLine
10
-794.49917839998409
20
-1515.0017434578785
30
0
11
-789.23417734224256
21
-1515.001649575318
31
0
0
LINE
5
215
100
AcDbEntity
8
0
100
AcDbLine
10
-789.23417734224256
20
-1515.001649575318
30
0
11
-789.23415126379962
21
-1516.4641472862672
31
0
0
LINE
5
216
100
AcDbEntity
8
0
100
AcDbLine
10
-790.11163638913854
20
-1517.3416577452435
30
0
11
-791.86663674171905
21
-1517.3416890394301
31
0
0
LINE
5
217
100
AcDbEntity
8
0
100
AcDbLine
10
-792.74415196896052
20
-1516.464209874641
30
0
11
-792.74417804740347
21
-1515.0017121636918
31
0
0
ARC
5
218
100
AcDbEntity
8
0
100
AcDbCircle
10
-790.00630848484047
20
-1516.5695039199509
30
0
40
0.77931083738803864
210
-0
220
0
230
1
100
AcDbArc
50
-97.767598156938845
51
7.7696403516775838
0
ARC
5
219
100
AcDbEntity
8
0
100
AcDbCircle
10
-791.97199218318224
20
-1516.5695389709256
30
0
40
0.77931083738803864
210
-0
220
0
230
1
100
AcDbArc
50
172.23239250839367
51
277.76963784721625
0
LINE
5
220
100
AcDbEntity
8
0
100
AcDbLine
10
-787.47910717387856
20
-1518.9503640080532
30
0
11
-791.86660805532983
21
-1518.9504422435202
31
0
0
ARC
5
221
100
AcDbEntity
8
0
100
AcDbCircle
10
-791.97193595962767
20
-1519.7225960688129
30
0
40
0.77931083738803864
210
-0
220
0
230
1
100
AcDbArc
50
82.232410494483702
51
187.76962487006733
0
LINE
5
222
100
AcDbEntity
8
0
100
AcDbLine
10
-794.49907147826582
20
-1520.997989794816
30
0
11
-794.49906104699062
21
-1521.5829831571498
31
0
0
LINE
5
223
100
AcDbEntity
8
0
100
AcDbLine
10
-794.49906104699062
20
-1521.5829831571498
30
0
11
-789.2340286949136
21
-1523.33789797182
31
0
0
LINE
5
224
100
AcDbEntity
8
0
100
AcDbLine
10
-789.23407042052429
20
-1520.9978959122554
30
0
11
-792.74405026296495
21
-1522.1679547620397
31
0
0
ENDSEC
0
SECTION
2
OBJECTS
0
DICTIONARY
5
C
100
AcDbDictionary
3
ACAD_GROUP
350
D
3
ACAD_MLINESTYLE
350
17
0
DICTIONARY
5
D
100
AcDbDictionary
0
DICTIONARY
5
1A
330
C
100
AcDbDictionary
0
DICTIONARY
5
17
100
AcDbDictionary
0
ENDSEC
0
EOF
