0
SECTION
2
HEADER
9
$INSUNITS
70
4
9
$ACADVER
1
AC1014
9
$HANDSEED
5
FFFF
0
ENDSEC
0
SECTION
2
TABLES
0
TABLE
2
VPORT
5
8
100
AcDbSymbolTable
0
ENDTAB
0
TABLE
2
LTYPE
5
5
100
AcDbSymbolTable
0
LTYPE
5
14
100
AcDbSymbolTableRecord
100
AcDbLinetypeTableRecord
2
BYBLOCK
70
0
0
LTYPE
5
15
100
AcDbSymbolTableRecord
100
AcDbLinetypeTableRecord
2
BYLAYER
70
0
0
LTYPE
5
16
100
AcDbSymbolTableRecord
100
AcDbLinetypeTableRecord
2
DASHED
70
0
3
Dashed __ __ __ __ __ __ __ __ __ __ __ __ __ _
72
65
73
2
40
0.75
49
0.5
74
0
49
-0.25
74
0
0
ENDTAB
0
TABLE
2
LAYER
5
2
100
AcDbSymbolTable
70
3
0
LAYER
5
50
100
AcDbSymbolTableRecord
100
AcDbLayerTableRecord
2
1
70
0
62
7
6
DASHED
0
LAYER
5
51
100
AcDbSymbolTableRecord
100
AcDbLayerTableRecord
2
0
70
0
62
7
6
CONTINUOUS
0
ENDTAB
0
TABLE
2
STYLE
5
3
100
AcDbSymbolTable
70
1
0
STYLE
5
11
100
AcDbSymbolTableRecord
100
AcDbTextStyleTableRecord
2
STANDARD
70
0
0
ENDTAB
0
TABLE
2
VIEW
5
6
100
AcDbSymbolTable
70
0
0
ENDTAB
0
TABLE
2
UCS
5
7
100
AcDbSymbolTable
70
0
0
ENDTAB
0
TABLE
2
APPID
5
9
100
AcDbSymbolTable
70
2
0
APPID
5
12
100
AcDbSymbolTableRecord
100
AcDbRegAppTableRecord
2
ACAD
70
0
0
ENDTAB
0
TABLE
2
DIMSTYLE
5
A
100
AcDbSymbolTable
70
1
0
ENDTAB
0
TABLE
2
BLOCK_RECORD
5
1
100
AcDbSymbolTable
70
1
0
BLOCK_RECORD
5
1F
100
AcDbSymbolTableRecord
100
AcDbBlockTableRecord
2
*MODEL_SPACE
0
BLOCK_RECORD
5
1B
100
AcDbSymbolTableRecord
100
AcDbBlockTableRecord
2
*PAPER_SPACE
0
ENDTAB
0
ENDSEC
0
SECTION
2
BLOCKS
0
BLOCK
5
20
100
AcDbEntity
100
AcDbBlockBegin
2
*MODEL_SPACE
0
ENDBLK
5
21
100
AcDbEntity
100
AcDbBlockEnd
0
BLOCK
5
1C
100
AcDbEntity
100
AcDbBlockBegin
2
*PAPER_SPACE
0
ENDBLK
5
1D
100
AcDbEntity
100
AcDbBlockEnd
0
ENDSEC
0
SECTION
2
ENTITIES
0
CIRCLE
5
100
100
AcDbEntity
8
0
100
AcDbCircle
10
-359.80705050515724
20
-1478.196090189685
30
0
40
3.9999999999999858
210
2.4651903288156619e-32
220
-1.8857825460609598e-63
230
1
0
LWPOLYLINE
5
101
100
AcDbEntity
8
0
100
AcDbPolyline
90
7
70
1
43
0.0
10
-374.80705050515667
20
-1480.4020564863818
42
0.99999999999999989
10
-344.80705050515667
20
-1480.4020564863818
10
-344.80705050515667
20
-1478.196090189685
42
-0.41421356237309503
10
-329.80705050515667
20
-1463.196090189685
10
-214.80705050515667
20
-1463.196090189685
10
-214.80705050515667
20
-1238.7411990234586
10
-374.80705050515667
20
-1238.7411990234586
0
CIRCLE
5
102
100
AcDbEntity
8
0
100
AcDbCircle
10
-260.80705050515661
20
-1246.2411990234586
30
0
40
1.4999999999999991
210
0
220
-0
230
1
0
CIRCLE
5
103
100
AcDbEntity
8
0
100
AcDbCircle
10
-328.80705050515672
20
-1246.2411990234586
30
0
40
1.4999999999999991
210
0
220
-0
230
1
0
CIRCLE
5
104
100
AcDbEntity
8
0
100
AcDbCircle
10
-226.80705050515655
20
-1246.2411990234586
30
0
40
1.4999999999999991
210
0
220
-0
230
1
0
CIRCLE
5
105
100
AcDbEntity
8
0
100
AcDbCircle
10
-362.80705050515678
20
-1246.2411990234586
30
0
40
1.4999999999999991
210
0
220
-0
230
1
0
LINE
5
106
100
AcDbEntity
8
1
100
AcDbLine
10
-220.80705050515667
20
-1457.196090189685
30
0
11
-220.80705050515667
21
-1367.6457267234489
31
0
0
LINE
5
107
100
AcDbEntity
8
1
100
AcDbLine
10
-220.80705050515667
20
-1367.6457267234489
30
0
11
-240.14417400520597
21
-1367.6457267234489
31
0
0
LINE
5
108
100
AcDbEntity
8
1
100
AcDbLine
10
-240.14417400520597
20
-1367.6457267234489
30
0
11
-240.14417400520597
21
-1457.196090189685
31
0
0
LINE
5
109
100
AcDbEntity
8
1
100
AcDbLine
10
-240.14417400520597
20
-1457.196090189685
30
0
11
-220.80705050515667
21
-1457.196090189685
31
0
0
LINE
5
110
100
AcDbEntity
8
0
100
AcDbLine
10
-220.80705096882139
20
-1456.7573401387231
30
0
11
-226.07205202739988
21
-1455.0023400466339
31
0
0
LINE
5
111
100
AcDbEntity
8
0
100
AcDbLine
10
-226.07205202739988
20
-1455.0023400466339
30
0
11
-220.80705096882139
21
-1453.2473399917976
31
0
0
LINE
5
112
100
AcDbEntity
8
0
100
AcDbLine
10
-222.12330153148923
20
-1453.6860897819893
30
0
11
-222.12330153148923
21
-1456.3185900877611
31
0
0
LINE
5
113
100
AcDbEntity
8
0
100
AcDbLine
10
-220.80705096882139
20
-1452.077339855899
30
0
11
-220.80705096882139
21
-1450.6148397605316
31
0
0
LINE
5
114
100
AcDbEntity
8
0
100
AcDbLine
10
-226.07205202739988
20
-1452.077339855899
30
0
11
-226.07205202739988
21
-1450.3223395030395
31
0
0
LINE
5
115
100
AcDbEntity
8
0
100
AcDbLine
10
-223.73205115955625
20
-1450.3223395030395
30
0
11
-223.73205115955625
21
-1451.4923399369613
31
0
0
ARC
5
116
100
AcDbEntity
8
0
100
AcDbCircle
10
-222.26955106418882
20
-1450.6148397605316
30
0
40
1.4625000953674316
210
0
220
-0
230
1
100
AcDbArc
50
0
51
180.0000024148365
0
ARC
5
117
100
AcDbEntity
8
0
100
AcDbCircle
10
-224.90205099743162
20
-1450.3223395030395
30
0
40
1.1700000613927839
210
0
220
-0
230
1
100
AcDbArc
50
0
51
180.0000024148365
0
LINE
5
118
100
AcDbEntity
8
0
100
AcDbLine
10
-220.80705096882139
20
-1447.3973393123047
30
0
11
-220.80705096882139
21
-1447.6898395697967
31
0
0
LINE
5
119
100
AcDbEntity
8
0
100
AcDbLine
10
-220.80705096882139
20
-1447.6898395697967
30
0
11
-221.09955122631345
21
-1447.6898395697967
31
0
0
LINE
5
120
100
AcDbEntity
8
0
100
AcDbLine
10
-221.09955122631345
20
-1447.6898395697967
30
0
11
-221.09955122631345
21
-1447.3973393123047
31
0
0
LINE
5
121
100
AcDbEntity
8
0
100
AcDbLine
10
-221.09955122631345
20
-1447.3973393123047
30
0
11
-220.80705096882139
21
-1447.3973393123047
31
0
0
LINE
5
122
100
AcDbEntity
8
0
100
AcDbLine
10
-220.80705096882139
20
-1447.3973393123047
30
0
11
-219.63705113094602
21
-1447.8360896985428
31
0
0
LINE
5
123
100
AcDbEntity
8
0
100
AcDbLine
10
-219.05205061596189
20
-1443.4485900084869
30
0
11
-224.31705167454038
21
-1443.4485900084869
31
0
0
LINE
5
124
100
AcDbEntity
8
0
100
AcDbLine
10
-224.31705167454038
20
-1443.4485900084869
30
0
11
-224.31705167454038
21
-1441.9860899131195
31
0
0
LINE
5
125
100
AcDbEntity
8
0
100
AcDbLine
10
-223.43955090206418
20
-1441.1085891406433
30
0
11
-221.68455054920469
21
-1441.1085891406433
31
0
0
LINE
5
126
100
AcDbEntity
8
0
100
AcDbLine
10
-220.80705096882139
20
-1441.9860899131195
30
0
11
-220.80705096882139
21
-1443.4485900084869
31
0
0
ARC
5
127
100
AcDbEntity
8
0
100
AcDbCircle
10
-223.54489257496152
20
-1441.8807482402221
30
0
40
0.77931083738803864
210
0
220
-0
230
1
100
AcDbArc
50
82.231380176697442
51
187.76861868530426
0
ARC
5
128
100
AcDbEntity
8
0
100
AcDbCircle
10
-221.57920887630735
20
-1441.8807482402221
30
0
40
0.77931083738803864
210
0
220
-0
230
1
100
AcDbArc
50
-7.768629157966064
51
97.768616180835011
0
LINE
5
129
100
AcDbEntity
8
0
100
AcDbLine
10
-220.80705096882139
20
-1437.3060893695251
30
0
11
-220.80705096882139
21
-1438.7685894648926
31
0
0
LINE
5
130
100
AcDbEntity
8
0
100
AcDbLine
10
-221.68455054920469
20
-1439.6460890452759
30
0
11
-223.14705064457212
21
-1439.6460890452759
31
0
0
LINE
5
131
100
AcDbEntity
8
0
100
AcDbLine
10
-223.14705064457212
20
-1437.3060893695251
30
0
11
-222.56205132168088
21
-1437.3060893695251
31
0
0
LINE
5
132
100
AcDbEntity
8
0
100
AcDbLine
10
-222.56205132168088
20
-1437.3060893695251
30
0
11
-222.56205132168088
21
-1439.6460890452759
31
0
0
ARC
5
133
100
AcDbEntity
8
0
100
AcDbCircle
10
-221.57920887630735
20
-1438.8739311377899
30
0
40
0.77931083738803864
210
0
220
-0
230
1
100
AcDbArc
50
-97.768611171880238
51
7.7686032036984871
0
ARC
5
134
100
AcDbEntity
8
0
100
AcDbCircle
10
-223.14705064457212
20
-1438.4760892074005
30
0
40
1.1700000613927839
210
0
220
-0
230
1
100
AcDbArc
50
90
51
270.00000500895703
0
LINE
5
135
100
AcDbEntity
8
0
100
AcDbLine
10
-226.07205202739988
20
-1433.5035872142212
30
0
11
-220.80705096882139
21
-1433.5035872142212
31
0
0
LINE
5
136
100
AcDbEntity
8
0
100
AcDbLine
10
-220.80705096882139
20
-1433.5035872142212
30
0
11
-220.80705096882139
21
-1434.9660873095886
31
0
0
LINE
5
137
100
AcDbEntity
8
0
100
AcDbLine
10
-221.68455054920469
20
-1435.8435892741577
30
0
11
-223.43955090206418
21
-1435.8435892741577
31
0
0
LINE
5
138
100
AcDbEntity
8
0
100
AcDbLine
10
-224.31705167454038
20
-1434.9660873095886
30
0
11
-224.31705167454038
21
-1433.5035872142212
31
0
0
ARC
5
139
100
AcDbEntity
8
0
100
AcDbCircle
10
-221.57920887630735
20
-1435.0714301745788
30
0
40
0.77931083738803864
210
0
220
-0
230
1
100
AcDbArc
50
-97.768611171880238
51
7.7686032036984871
0
ARC
5
140
100
AcDbEntity
8
0
100
AcDbCircle
10
-223.54489257496152
20
-1435.0714301745788
30
0
40
0.77931083738803864
210
0
220
-0
230
1
100
AcDbArc
50
172.23138632362318
51
277.76862118979426
0
LINE
5
141
100
AcDbEntity
8
0
100
AcDbLine
10
-222.85455157917295
20
-1429.5548367183105
30
0
11
-222.85455157917295
21
-1430.8710884730713
31
0
0
LINE
5
142
100
AcDbEntity
8
0
100
AcDbLine
10
-220.80705096882139
20
-1430.8710884730713
30
0
11
-220.80705096882139
21
-1429.5548367183105
31
0
0
LINE
5
143
100
AcDbEntity
8
0
100
AcDbLine
10
-220.80705096882139
20
-1429.5548367183105
30
0
11
-223.43955090206418
21
-1429.5548367183105
31
0
0
LINE
5
144
100
AcDbEntity
8
0
100
AcDbLine
10
-224.31705167454038
20
-1430.4323362986938
30
0
11
-224.31705167454038
21
-1431.6023373286621
31
0
0
ARC
5
145
100
AcDbEntity
8
0
100
AcDbCircle
10
-221.83080127399717
20
-1430.8710884730713
30
0
40
1.0237500816583633
210
0
220
-0
230
1
100
AcDbArc
50
-179.99999758516347
51
0
0
ARC
5
146
100
AcDbEntity
8
0
100
AcDbCircle
10
-223.54489257496152
20
-1430.3269958178894
30
0
40
0.77931083738803864
210
0
220
-0
230
1
100
AcDbArc
50
82.231380176697442
51
187.76861868530426
0
LINE
5
147
100
AcDbEntity
8
0
100
AcDbLine
10
-226.07205202739988
20
-1427.7998375575439
30
0
11
-221.68455054920469
21
-1427.7998375575439
31
0
0
ARC
5
148
100
AcDbEntity
8
0
100
AcDbCircle
10
-221.57920887630735
20
-1427.0276784579651
30
0
40
0.77931083738803864
210
0
220
-0
230
1
100
AcDbArc
50
-97.768611171880238
51
7.7686032036984871
0
LINE
5
149
100
AcDbEntity
8
0
100
AcDbLine
10
-220.80705096882139
20
-1425.3135871570007
30
0
11
-220.80705096882139
21
-1425.6060862223999
31
0
0
LINE
5
150
100
AcDbEntity
8
0
100
AcDbLine
10
-220.80705096882139
20
-1425.6060862223999
30
0
11
-221.09955122631345
21
-1425.6060862223999
31
0
0
LINE
5
151
100
AcDbEntity
8
0
100
AcDbLine
10
-221.09955122631345
20
-1425.6060862223999
30
0
11
-221.09955122631345
21
-1425.3135871570007
31
0
0
LINE
5
152
100
AcDbEntity
8
0
100
AcDbLine
10
-221.09955122631345
20
-1425.3135871570007
30
0
11
-220.80705096882139
21
-1425.3135871570007
31
0
0
LINE
5
153
100
AcDbEntity
8
0
100
AcDbLine
10
-220.80705096882139
20
-1425.3135871570007
30
0
11
-219.63705113094602
21
-1425.7523369471924
31
0
0
LINE
5
154
100
AcDbEntity
8
0
100
AcDbLine
10
-223.73205115955625
20
-1419.0248393695251
30
0
11
-220.80705096882139
21
-1421.5110897700683
31
0
0
LINE
5
155
100
AcDbEntity
8
0
100
AcDbLine
10
-220.80705096882139
20
-1421.5110897700683
30
0
11
-220.80705096882139
21
-1418.5860895793335
31
0
0
ARC
5
156
100
AcDbEntity
8
0
100
AcDbCircle
10
-224.91381337803159
20
-1419.7443270366089
30
0
40
1.1689662933349609
210
0
220
-0
230
1
100
AcDbArc
50
82.231380176698138
51
187.76861868531813
0
ARC
5
157
100
AcDbEntity
8
0
100
AcDbCircle
10
-224.62383678119932
20
-1420.0789212863342
30
0
40
1.4589405059814451
210
0
220
-0
230
1
100
AcDbArc
50
173.04817449553144
51
259.00656965301062
0
ARC
5
158
100
AcDbEntity
8
0
100
AcDbCircle
10
-224.65161135357175
20
-1419.7567271869079
30
0
40
1.1752662807703018
210
0
220
-0
230
1
100
AcDbArc
50
38.516721488518805
51
95.086102926770522
0
LINE
5
159
100
AcDbEntity
8
0
100
AcDbLine
10
-220.80705096882139
20
-1414.9298405330078
30
0
11
-224.31705167454038
21
-1412.5898384730713
31
0
0
LINE
5
160
100
AcDbEntity
8
0
100
AcDbLine
10
-224.31705167454038
20
-1414.9298405330078
30
0
11
-220.80705096882139
21
-1412.5898384730713
31
0
0
LINE
5
161
100
AcDbEntity
8
0
100
AcDbLine
10
-224.90205099743162
20
-1408.9335894267456
30
0
11
-226.07205202739988
21
-1407.4710869471924
31
0
0
LINE
5
162
100
AcDbEntity
8
0
100
AcDbLine
10
-226.07205202739988
20
-1407.4710869471924
30
0
11
-220.80705096882139
21
-1407.4710869471924
31
0
0
LINE
5
163
100
AcDbEntity
8
0
100
AcDbLine
10
-220.80705096882139
20
-1408.9335894267456
30
0
11
-220.80705096882139
21
-1406.0085892360107
31
0
0
LINE
5
164
100
AcDbEntity
8
0
100
AcDbLine
10
-223.73205115955625
20
-1402.0598339717285
30
0
11
-220.80705096882139
21
-1404.5460867564575
31
0
0
LINE
5
165
100
AcDbEntity
8
0
100
AcDbLine
10
-220.80705096882139
20
-1404.5460867564575
30
0
11
-220.80705096882139
21
-1401.6210865657226
31
0
0
ARC
5
166
100
AcDbEntity
8
0
100
AcDbCircle
10
-224.91381337803159
20
-1402.779324022998
30
0
40
1.1689662933349609
210
0
220
-0
230
1
100
AcDbArc
50
82.231380176698138
51
187.76861868531813
0
ARC
5
167
100
AcDbEntity
8
0
100
AcDbCircle
10
-224.62383678119932
20
-1403.1139158885376
30
0
40
1.4589405059814451
210
0
220
-0
230
1
100
AcDbArc
50
173.04817449553144
51
259.00656965301062
0
ARC
5
168
100
AcDbEntity
8
0
100
AcDbCircle
10
-224.65161135357175
20
-1402.7917265574829
30
0
40
1.1752662807703018
210
0
220
-0
230
1
100
AcDbArc
50
38.516721488518805
51
95.086102926770522
0
LINE
5
169
100
AcDbEntity
8
0
100
AcDbLine
10
-220.80705096882139
20
-1397.6723313014404
30
0
11
-224.31705167454038
21
-1397.6723313014404
31
0
0
LINE
5
170
100
AcDbEntity
8
0
100
AcDbLine
10
-224.31705167454038
20
-1397.6723313014404
30
0
11
-224.31705167454038
21
-1395.0398325602905
31
0
0
LINE
5
171
100
AcDbEntity
8
0
100
AcDbLine
10
-223.43955090206418
20
-1394.1623282115356
30
0
11
-220.80705096882139
21
-1394.1623282115356
31
0
0
LINE
5
172
100
AcDbEntity
8
0
100
AcDbLine
10
-220.80705096882139
20
-1395.9173321406738
30
0
11
-224.31705167454038
21
-1395.9173321406738
31
0
0
ARC
5
173
100
AcDbEntity
8
0
100
AcDbCircle
10
-223.54489257496152
20
-1394.9344896953003
30
0
40
0.77931083738803864
210
0
220
-0
230
1
100
AcDbArc
50
82.231380176697442
51
187.76861868530426
0
LINE
5
174
100
AcDbEntity
8
0
100
AcDbLine
10
-220.80705096882139
20
-1392.407329050769
30
0
11
-224.31705167454038
21
-1392.407329050769
31
0
0
LINE
5
175
100
AcDbEntity
8
0
100
AcDbLine
10
-224.31705167454038
20
-1392.407329050769
30
0
11
-224.31705167454038
21
-1389.7748303096191
31
0
0
LINE
5
176
100
AcDbEntity
8
0
100
AcDbLine
10
-223.43955090206418
20
-1388.8973307292358
30
0
11
-220.80705096882139
21
-1388.8973307292358
31
0
0
LINE
5
177
100
AcDbEntity
8
0
100
AcDbLine
10
-220.80705096882139
20
-1390.6523298900024
30
0
11
-224.31705167454038
21
-1390.6523298900024
31
0
0
ARC
5
178
100
AcDbEntity
8
0
100
AcDbCircle
10
-223.54489257496152
20
-1389.6694874446289
30
0
40
0.77931083738803864
210
0
220
-0
230
1
100
AcDbArc
50
82.231380176697442
51
187.76861868530426
0
LINE
5
179
100
AcDbEntity
8
0
100
AcDbLine
10
-219.05205061596189
20
-1384.8023247401611
30
0
11
-224.31705167454038
21
-1384.8023247401611
31
0
0
LINE
5
180
100
AcDbEntity
8
0
100
AcDbLine
10
-224.31705167454038
20
-1384.8023247401611
30
0
11
-224.31705167454038
21
-1383.3398222606079
31
0
0
LINE
5
181
100
AcDbEntity
8
0
100
AcDbLine
10
-223.43955090206418
20
-1382.4623226802246
30
0
11
-221.68455054920469
21
-1382.4623226802246
31
0
0
LINE
5
182
100
AcDbEntity
8
0
100
AcDbLine
10
-220.80705096882139
20
-1383.3398222606079
30
0
11
-220.80705096882139
21
-1384.8023247401611
31
0
0
ARC
5
183
100
AcDbEntity
8
0
100
AcDbCircle
10
-223.54489257496152
20
-1383.2344841639892
30
0
40
0.77931083738803864
210
0
220
-0
230
1
100
AcDbArc
50
82.231380176697442
51
187.76861868530426
0
ARC
5
184
100
AcDbEntity
8
0
100
AcDbCircle
10
-221.57920887630735
20
-1383.2344841639892
30
0
40
0.77931083738803864
210
0
220
-0
230
1
100
AcDbArc
50
-7.768629157966064
51
97.768616180835011
0
LINE
5
185
100
AcDbEntity
8
0
100
AcDbLine
10
-226.07205202739988
20
-1380.8535742442505
30
0
11
-221.68455054920469
21
-1380.8535742442505
31
0
0
ARC
5
186
100
AcDbEntity
8
0
100
AcDbCircle
10
-221.57920887630735
20
-1380.0814175288574
30
0
40
0.77931083738803864
210
0
220
-0
230
1
100
AcDbArc
50
-97.768611171880238
51
7.7686032036984871
0
LINE
5
187
100
AcDbEntity
8
0
100
AcDbLine
10
-219.05205061596189
20
-1378.8060736338989
30
0
11
-219.05205061596189
21
-1378.221070734729
31
0
0
LINE
5
188
100
AcDbEntity
8
0
100
AcDbLine
10
-219.05205061596189
20
-1378.221070734729
30
0
11
-224.31705167454038
21
-1376.4660715739624
31
0
0
LINE
5
189
100
AcDbEntity
8
0
100
AcDbLine
10
-224.31705167454038
20
-1378.8060736338989
30
0
11
-220.80705096882139
21
-1377.6360726039306
31
0
0
ENDSEC
0
SECTION
2
OBJECTS
0
DICTIONARY
5
C
100
AcDbDictionary
3
ACAD_GROUP
350
D
3
ACAD_MLINESTYLE
350
17
0
DICTIONARY
5
D
100
AcDbDictionary
0
DICTIONARY
5
1A
330
C
100
AcDbDictionary
0
DICTIONARY
5
17
100
AcDbDictionary
0
ENDSEC
0
EOF
