0
SECTION
2
HEADER
9
$INSUNITS
70
4
9
$ACADVER
1
AC1014
9
$HANDSEED
5
FFFF
0
ENDSEC
0
SECTION
2
TABLES
0
TABLE
2
VPORT
5
8
100
AcDbSymbolTable
0
ENDTAB
0
TABLE
2
LTYPE
5
5
100
AcDbSymbolTable
0
LTYPE
5
14
100
AcDbSymbolTableRecord
100
AcDbLinetypeTableRecord
2
BYBLOCK
70
0
0
LTYPE
5
15
100
AcDbSymbolTableRecord
100
AcDbLinetypeTableRecord
2
BYLAYER
70
0
0
LTYPE
5
16
100
AcDbSymbolTableRecord
100
AcDbLinetypeTableRecord
2
DASHED
70
0
3
Dashed __ __ __ __ __ __ __ __ __ __ __ __ __ _
72
65
73
2
40
0.75
49
0.5
74
0
49
-0.25
74
0
0
ENDTAB
0
TABLE
2
LAYER
5
2
100
AcDbSymbolTable
70
3
0
LAYER
5
50
100
AcDbSymbolTableRecord
100
AcDbLayerTableRecord
2
1
70
0
62
7
6
DASHED
0
LAYER
5
51
100
AcDbSymbolTableRecord
100
AcDbLayerTableRecord
2
0
70
0
62
7
6
CONTINUOUS
0
ENDTAB
0
TABLE
2
STYLE
5
3
100
AcDbSymbolTable
70
1
0
STYLE
5
11
100
AcDbSymbolTableRecord
100
AcDbTextStyleTableRecord
2
STANDARD
70
0
0
ENDTAB
0
TABLE
2
VIEW
5
6
100
AcDbSymbolTable
70
0
0
ENDTAB
0
TABLE
2
UCS
5
7
100
AcDbSymbolTable
70
0
0
ENDTAB
0
TABLE
2
APPID
5
9
100
AcDbSymbolTable
70
2
0
APPID
5
12
100
AcDbSymbolTableRecord
100
AcDbRegAppTableRecord
2
ACAD
70
0
0
ENDTAB
0
TABLE
2
DIMSTYLE
5
A
100
AcDbSymbolTable
70
1
0
ENDTAB
0
TABLE
2
BLOCK_RECORD
5
1
100
AcDbSymbolTable
70
1
0
BLOCK_RECORD
5
1F
100
AcDbSymbolTableRecord
100
AcDbBlockTableRecord
2
*MODEL_SPACE
0
BLOCK_RECORD
5
1B
100
AcDbSymbolTableRecord
100
AcDbBlockTableRecord
2
*PAPER_SPACE
0
ENDTAB
0
ENDSEC
0
SECTION
2
BLOCKS
0
BLOCK
5
20
100
AcDbEntity
100
AcDbBlockBegin
2
*MODEL_SPACE
0
ENDBLK
5
21
100
AcDbEntity
100
AcDbBlockEnd
0
BLOCK
5
1C
100
AcDbEntity
100
AcDbBlockBegin
2
*PAPER_SPACE
0
ENDBLK
5
1D
100
AcDbEntity
100
AcDbBlockEnd
0
ENDSEC
0
SECTION
2
ENTITIES
0
LWPOLYLINE
5
100
100
AcDbEntity
8
0
100
AcDbPolyline
90
36
70
1
43
0.0
10
-239.99079975899133
20
-577.71916030868726
10
-239.69538176610567
20
-532.92013433479519
10
-241.62905901276542
20
-532.90738309659969
42
-0.99999999999999989
10
-245.7667779005597
20
-528.56235347580423
10
-245.28998481829362
20
-456.25847831921817
42
-0.99999999999999989
10
-241.02372172192617
20
-452.03959230599469
10
-239.16211256395141
20
-452.05186830595301
10
-238.86603515590306
20
-407.15284450622642
10
-296.29492243753594
20
-406.77414148209601
42
-0.99999999999999989
10
-299.94026487223562
20
-403.04342452578874
10
-299.88557692130905
20
-394.75020274167201
10
-324.78503555411964
20
-394.58600836616193
10
-473.43468288584336
20
-677.85507043482653
10
-473.56554005050128
20
-697.69906660145784
10
-468.52689534011904
20
-691.77403347640461
42
-0.99999999999999989
10
-462.53388871471839
20
-691.48442755812243
10
-450.50945317021501
20
-701.71000048555061
42
-0.9999999925494194
10
-450.30865377907554
20
-707.706639511248
10
-455.15308844961748
20
-713.40329755025869
10
-406.99124665827992
20
-713.72089094266789
10
-406.94084658428073
20
-706.0779095449368
42
-0.99999999999999989
10
-402.89452267439805
20
-701.64764286940658
10
-380.71259504873217
20
-701.79391704378986
42
-0.99999999999999989
10
-376.74160061361215
20
-706.29182802515061
10
-376.79190325623637
20
-713.92003432180081
10
-276.99407307332461
20
-714.57813065416644
10
-276.94184412621689
20
-706.65780281541311
42
-0.9999999925494194
10
-272.60952205316494
20
-702.50678059729069
10
-246.81493826243002
20
-702.67687769215195
10
-246.81559767759271
20
-702.77687551798658
10
-240.81572812751799
20
-702.81644042774815
10
-240.51965071946964
20
-657.91741662802133
10
-242.14030660213754
20
-657.90672957841502
42
-0.9999999925494194
10
-246.59319446699857
20
-653.8853132031843
10
-246.11979000122182
20
-582.09530897449883
42
-0.99999999999999989
10
-242.02937617947583
20
-577.70571733439499
0
CIRCLE
5
101
100
AcDbEntity
8
0
100
AcDbCircle
10
-288.95424726371277
20
-708.49913128456842
30
0
40
1.499999999999986
210
-8.1279194087035606e-35
220
-1.2325683657500115e-32
230
1
0
CIRCLE
5
102
100
AcDbEntity
8
0
100
AcDbCircle
10
-364.75259924632525
20
-707.99929459124905
30
0
40
1.499999999999986
210
-8.1279194087035606e-35
220
-1.2325683657500115e-32
230
1
0
LINE
5
103
100
AcDbEntity
8
1
100
AcDbLine
10
-252.59313259845771
20
-696.50675154183773
30
0
11
-252.59334974219473
21
-546.9157425966514
31
0
0
LINE
5
104
100
AcDbEntity
8
1
100
AcDbLine
10
-252.59334974219473
20
-546.9157425966514
30
0
11
-291.59335032332655
21
-546.91579920838183
31
0
0
LINE
5
105
100
AcDbEntity
8
1
100
AcDbLine
10
-291.59335032332655
20
-546.91579920838183
30
0
11
-291.59313317958953
21
-696.50680815356793
31
0
0
LINE
5
106
100
AcDbEntity
8
1
100
AcDbLine
10
-291.59313317958953
20
-696.50680815356793
30
0
11
-252.59313259845771
21
-696.50675154183773
31
0
0
LINE
5
107
100
AcDbEntity
8
0
100
AcDbLine
10
-252.59313107469896
20
-696.06800149087326
30
0
11
-257.85813348870698
21
-694.31300904136924
31
0
0
LINE
5
108
100
AcDbEntity
8
0
100
AcDbLine
10
-257.85813348870698
20
-694.31300904136901
30
0
11
-252.59313616975481
21
-692.55800134395133
31
0
0
LINE
5
109
100
AcDbEntity
8
0
100
AcDbLine
10
-253.90938490344672
20
-692.99675304478751
30
0
11
-253.90938108215454
21
-695.6292533505565
31
0
0
LINE
5
110
100
AcDbEntity
8
0
100
AcDbLine
10
-257.85813943293863
20
-690.21800901276322
30
0
11
-253.76313889807395
21
-691.38800290640745
31
0
0
LINE
5
111
100
AcDbEntity
8
0
100
AcDbLine
10
-253.76313889807395
20
-691.38800290640745
30
0
11
-253.76314314395393
21
-688.46300271567566
31
0
0
LINE
5
112
100
AcDbEntity
8
0
100
AcDbLine
10
-254.93314051597105
20
-689.34050459045443
30
0
11
-252.59314084022276
21
-689.34050119375104
31
0
0
LINE
5
113
100
AcDbEntity
8
0
100
AcDbLine
10
-252.59314466151525
20
-686.70800066446463
30
0
11
-252.59314423692695
21
-687.00050092195636
31
0
0
LINE
5
114
100
AcDbEntity
8
0
100
AcDbLine
10
-252.59314423692695
20
-687.00050092195636
30
0
11
-252.88564330232578
21
-687.00050134654305
31
0
0
LINE
5
115
100
AcDbEntity
8
0
100
AcDbLine
10
-252.88564330232578
20
-687.00050134654293
30
0
11
-252.88564372691411
21
-686.70800108905109
31
0
0
LINE
5
116
100
AcDbEntity
8
0
100
AcDbLine
10
-252.88564372691411
20
-686.70800108905132
30
0
11
-252.59314466151525
21
-686.70800066446463
31
0
0
LINE
5
117
100
AcDbEntity
8
0
100
AcDbLine
10
-252.59314466151525
20
-686.70800066446463
30
0
11
-251.42314299466568
21
-687.14674935234882
31
0
0
LINE
5
118
100
AcDbEntity
8
0
100
AcDbLine
10
-250.83815123268715
20
-682.75924881312437
30
0
11
-256.10315109916718
21
-682.7592564557076
31
0
0
LINE
5
119
100
AcDbEntity
8
0
100
AcDbLine
10
-256.10315109916718
20
-682.7592564557076
30
0
11
-256.10315322210715
21
-681.29675636034176
31
0
0
LINE
5
120
100
AcDbEntity
8
0
100
AcDbLine
10
-255.22565491548983
20
-680.41925431410323
30
0
11
-253.47065337053925
21
-680.4192517665731
31
0
0
LINE
5
121
100
AcDbEntity
8
0
100
AcDbLine
10
-252.59315251639185
20
-681.29675126528514
30
0
11
-252.59315039345185
21
-682.75925136065098
31
0
0
ARC
5
122
100
AcDbEntity
8
0
100
AcDbCircle
10
-255.3309942754413
20
-681.19141356659168
30
0
40
0.77931083738803852
210
0
220
0
230
1
100
AcDbArc
50
82.231463346264192
51
187.76870185488499
0
ARC
5
123
100
AcDbEntity
8
0
100
AcDbCircle
10
-253.36531176888207
20
-681.19141071324077
30
0
40
0.77931083738803852
210
0
220
0
230
1
100
AcDbArc
50
-7.7685459884077446
51
97.768699350408582
0
LINE
5
124
100
AcDbEntity
8
0
100
AcDbLine
10
-252.5931593098002
20
-676.61675072169578
30
0
11
-252.5931571868602
21
-678.07925081706162
31
0
0
LINE
5
125
100
AcDbEntity
8
0
100
AcDbLine
10
-253.47065549347928
20
-678.95675167120726
30
0
11
-254.93315558884518
21
-678.95675379414729
31
0
0
LINE
5
126
100
AcDbEntity
8
0
100
AcDbLine
10
-254.93315898554846
20
-676.61675411839894
30
0
11
-254.34815847056495
21
-676.61675326922227
31
0
0
LINE
5
127
100
AcDbEntity
8
0
100
AcDbLine
10
-254.34815847056495
20
-676.61675326922239
30
0
11
-254.34815507386165
21
-678.95675294497073
31
0
0
ARC
5
128
100
AcDbEntity
8
0
100
AcDbCircle
10
-253.36531613352608
20
-678.1845936108117
30
0
40
0.77931083738803852
210
0
220
0
230
1
100
AcDbArc
50
-97.76852800231444
51
7.7686863732769265
0
ARC
5
129
100
AcDbEntity
8
0
100
AcDbCircle
10
-254.93315728719682
20
-677.78675395627317
30
0
40
1.1700000613927839
210
0
220
0
230
1
100
AcDbArc
50
90.000083169568782
51
270.00008817852301
0
LINE
5
130
100
AcDbEntity
8
0
100
AcDbLine
10
-257.85816469592703
20
-672.81425620897903
30
0
11
-252.59316482944698
21
-672.81424856639569
31
0
0
LINE
5
131
100
AcDbEntity
8
0
100
AcDbLine
10
-252.59316482944698
20
-672.81424856639569
30
0
11
-252.59316270650697
21
-674.27674866176164
31
0
0
LINE
5
132
100
AcDbEntity
8
0
100
AcDbLine
10
-253.47066101312259
20
-675.15425190009307
30
0
11
-255.22566255807311
21
-675.15425444762309
31
0
0
LINE
5
133
100
AcDbEntity
8
0
100
AcDbLine
10
-256.10316341222227
20
-674.27675375681827
30
0
11
-256.10316553516225
21
-672.81425366145243
31
0
0
ARC
5
134
100
AcDbEntity
8
0
100
AcDbCircle
10
-253.36532165317112
20
-674.38209264760462
30
0
40
0.77931083738803852
210
0
220
0
230
1
100
AcDbArc
50
-97.76852800231444
51
7.7686863732683609
0
ARC
5
135
100
AcDbEntity
8
0
100
AcDbCircle
10
-255.3310041597303
20
-674.38209550095564
30
0
40
0.77931083738803852
210
0
220
0
230
1
100
AcDbArc
50
172.23146949321236
51
277.76870435936144
0
LINE
5
136
100
AcDbEntity
8
0
100
AcDbLine
10
-254.64067117173471
20
-668.86550104260596
30
0
11
-254.64066926108629
21
-670.18175279736522
31
0
0
LINE
5
137
100
AcDbEntity
8
0
100
AcDbLine
10
-252.59316865073689
20
-670.18174982524874
30
0
11
-252.59317056138531
21
-668.86549807048937
31
0
0
LINE
5
138
100
AcDbEntity
8
0
100
AcDbLine
10
-252.59317056138531
20
-668.86549807048925
30
0
11
-255.22567168671824
21
-668.86550189178263
31
0
0
LINE
5
139
100
AcDbEntity
8
0
100
AcDbLine
10
-256.1031699933373
20
-669.74300274592838
30
0
11
-256.1031682949839
21
-670.91300377589528
31
0
0
ARC
5
140
100
AcDbEntity
8
0
100
AcDbCircle
10
-253.61691895591156
20
-670.18175131130693
30
0
40
1.0237500816583631
210
0
220
0
230
1
100
AcDbArc
50
-179.99991432858985
51
8.3852569244601729e-05
0
ARC
5
141
100
AcDbEntity
8
0
100
AcDbCircle
10
-255.33101104666969
20
-669.63766114427119
30
0
40
0.77931083738803852
210
0
220
0
230
1
100
AcDbArc
50
82.231463346264192
51
187.7687018548767
0
LINE
5
142
100
AcDbEntity
8
0
100
AcDbLine
10
-257.85817297539199
20
-667.11050655230781
30
0
11
-253.4706726892943
21
-667.11050018348783
31
0
0
ARC
5
143
100
AcDbEntity
8
0
100
AcDbCircle
10
-253.36533332934283
20
-666.33834093099938
30
0
40
0.77931083738803852
210
0
220
0
230
1
100
AcDbArc
50
-97.76852800231444
51
7.7686863732766449
0
LINE
5
144
100
AcDbEntity
8
0
100
AcDbLine
10
-254.05568254521449
20
-660.67550013621735
30
0
11
-254.640680937258
21
-662.13800108075998
31
0
0
ARC
5
145
100
AcDbEntity
8
0
100
AcDbCircle
10
-255.35350038274015
20
-661.89960260986095
30
0
40
0.75162976980209339
210
0
220
0
230
1
100
AcDbArc
50
175.8726706605047
51
341.50761988257437
0
ARC
5
146
100
AcDbEntity
8
0
100
AcDbCircle
10
-253.38645432659314
20
-661.7585918542926
30
0
40
2.7181166410446163
210
0
220
0
230
1
100
AcDbArc
50
153.11020464759699
51
181.83234539060547
0
ARC
5
147
100
AcDbEntity
8
0
100
AcDbCircle
10
-253.34418631324252
20
-660.9205147246073
30
0
40
0.7525029033422469
210
0
220
0
230
1
100
AcDbArc
50
-3.6177853882653719
51
160.99808959172029
0
ARC
5
148
100
AcDbEntity
8
0
100
AcDbCircle
10
-255.69017222173937
20
-661.23587915294956
30
0
40
3.1085547804832454
210
0
220
0
230
1
100
AcDbArc
50
-25.553156473823616
51
4.9436108495277429
0
LINE
5
149
100
AcDbEntity
8
0
100
AcDbLine
10
-252.59318542196183
20
-658.62799978711382
30
0
11
-256.10318612767713
21
-658.62800488217044
31
0
0
LINE
5
150
100
AcDbEntity
8
0
100
AcDbLine
10
-257.56568601074798
20
-658.77425772990273
30
0
11
-257.85818507614681
21
-658.77425815448942
31
0
0
LINE
5
151
100
AcDbEntity
8
0
100
AcDbLine
10
-257.85818507614687
20
-658.77425815448942
30
0
11
-257.85818550073691
21
-658.4817567049048
31
0
0
LINE
5
152
100
AcDbEntity
8
0
100
AcDbLine
10
-257.85818550073691
20
-658.4817567049048
30
0
11
-257.56568643533808
21
-658.48175628031811
31
0
0
LINE
5
153
100
AcDbEntity
8
0
100
AcDbLine
10
-257.56568643533802
20
-658.48175628031811
30
0
11
-257.56568601074798
21
-658.77425772990273
31
0
0
LINE
5
154
100
AcDbEntity
8
0
100
AcDbLine
10
-257.85819102038022
20
-654.67925693379061
30
0
11
-252.59319115390016
21
-654.67924929120727
31
0
0
LINE
5
155
100
AcDbEntity
8
0
100
AcDbLine
10
-252.59319115390016
20
-654.67924929120727
30
0
11
-252.59318903095672
21
-656.1417517707589
31
0
0
LINE
5
156
100
AcDbEntity
8
0
100
AcDbLine
10
-253.47068733757578
20
-657.01925262490477
30
0
11
-255.22568888252633
21
-657.01925517243478
31
0
0
LINE
5
157
100
AcDbEntity
8
0
100
AcDbLine
10
-256.10318973667199
20
-656.14175686581575
30
0
11
-256.10319185961549
21
-654.67925438626412
31
0
0
ARC
5
158
100
AcDbEntity
8
0
100
AcDbCircle
10
-253.36534797762778
20
-656.24709098823041
30
0
40
0.77931083738803852
210
0
220
0
230
1
100
AcDbArc
50
-97.768528002312351
51
7.7686863732683609
0
ARC
5
159
100
AcDbEntity
8
0
100
AcDbCircle
10
-255.33103048418698
20
-656.24709384158132
30
0
40
0.77931083738803852
210
0
220
0
230
1
100
AcDbArc
50
172.23146949321205
51
277.76870435936354
0
LINE
5
160
100
AcDbEntity
8
0
100
AcDbLine
10
-252.59319688583849
20
-650.73049879530095
30
0
11
-252.59319476289505
21
-652.19300127485258
31
0
0
LINE
5
161
100
AcDbEntity
8
0
100
AcDbLine
10
-253.47069306951411
20
-653.07050212899821
30
0
11
-254.93319316488001
21
-653.07050425193825
31
0
0
LINE
5
162
100
AcDbEntity
8
0
100
AcDbLine
10
-254.93319656158675
20
-650.73050219200411
30
0
11
-254.34819604660322
21
-650.73050134282744
31
0
0
LINE
5
163
100
AcDbEntity
8
0
100
AcDbLine
10
-254.34819604660328
20
-650.73050134282755
30
0
11
-254.34819264989648
21
-653.07050340276169
31
0
0
ARC
5
164
100
AcDbEntity
8
0
100
AcDbCircle
10
-253.36535370956611
20
-652.29834049232397
30
0
40
0.77931083738803852
210
0
220
0
230
1
100
AcDbArc
50
-97.76852800231444
51
7.7686863732766449
0
ARC
5
165
100
AcDbEntity
8
0
100
AcDbCircle
10
-254.93319486323341
20
-651.90050322197123
30
0
40
1.1700000613927839
210
0
220
0
230
1
100
AcDbArc
50
90.00008316956739
51
270.00008817852449
0
LINE
5
166
100
AcDbEntity
8
0
100
AcDbLine
10
-257.85820248425688
20
-646.78175594197774
30
0
11
-252.59320261777685
21
-646.78174829939439
31
0
0
LINE
5
167
100
AcDbEntity
8
0
100
AcDbLine
10
-252.59320261777685
20
-646.78174829939439
30
0
11
-252.5932047407203
21
-645.31924581984276
31
0
0
LINE
5
168
100
AcDbEntity
8
0
100
AcDbLine
10
-253.47070559486599
20
-644.44174751322362
30
0
11
-255.22570713981654
21
-644.44175006075375
31
0
0
LINE
5
169
100
AcDbEntity
8
0
100
AcDbLine
10
-256.1032054464356
20
-645.31925091489938
30
0
11
-256.10320332349215
21
-646.78175339445102
31
0
0
ARC
5
170
100
AcDbEntity
8
0
100
AcDbCircle
10
-253.36536399320534
20
-645.21390884407708
30
0
40
0.77931083738803852
210
0
220
0
230
1
100
AcDbArc
50
-7.7685459884074906
51
97.768699350406507
0
ARC
5
171
100
AcDbEntity
8
0
100
AcDbCircle
10
-255.33104649976451
20
-645.21391169742799
30
0
40
0.77931083738803852
210
0
220
0
230
1
100
AcDbArc
50
82.231463346264192
51
187.76870185488499
0
LINE
5
172
100
AcDbEntity
8
0
100
AcDbLine
10
-252.59320834971518
20
-642.83299780348784
30
0
11
-256.10320905543051
21
-642.83300289854446
31
0
0
LINE
5
173
100
AcDbEntity
8
0
100
AcDbLine
10
-256.10320905543051
20
-642.83300289854446
30
0
11
-256.10321160295706
21
-641.0780037377798
31
0
0
LINE
5
174
100
AcDbEntity
8
0
100
AcDbLine
10
-256.10321160295706
20
-641.0780037377798
30
0
11
-255.51821108797355
21
-641.07800288860301
31
0
0
LINE
5
175
100
AcDbEntity
8
0
100
AcDbLine
10
-254.64071660265134
20
-637.56799852493873
30
0
11
-254.64071469200292
21
-638.88425027969799
31
0
0
LINE
5
176
100
AcDbEntity
8
0
100
AcDbLine
10
-252.59321408165351
20
-638.8842473075814
30
0
11
-252.59321599230194
21
-637.56799555282203
31
0
0
LINE
5
177
100
AcDbEntity
8
0
100
AcDbLine
10
-252.59321599230194
20
-637.56799555282203
30
0
11
-255.22571711763487
21
-637.5679993741154
31
0
0
LINE
5
178
100
AcDbEntity
8
0
100
AcDbLine
10
-256.1032154242539
20
-638.44550022826115
30
0
11
-256.10321372590056
21
-639.61550125822816
31
0
0
ARC
5
179
100
AcDbEntity
8
0
100
AcDbCircle
10
-253.61696438682822
20
-638.8842487936397
30
0
40
1.0237500816583631
210
0
220
0
230
1
100
AcDbArc
50
-179.99991432858985
51
8.3852569244601729e-05
0
ARC
5
180
100
AcDbEntity
8
0
100
AcDbCircle
10
-255.33105647758975
20
-638.34015624241806
30
0
40
0.77931083738803852
210
0
220
0
230
1
100
AcDbArc
50
82.23146334626739
51
187.76870185488499
0
LINE
5
181
100
AcDbEntity
8
0
100
AcDbLine
10
-252.59322129965022
20
-633.91174650650021
30
0
11
-252.59321960129682
21
-635.08174753646722
31
0
0
LINE
5
182
100
AcDbEntity
8
0
100
AcDbLine
10
-253.47071790791588
20
-635.95924839061286
30
0
11
-255.22571945286643
21
-635.95925093814299
31
0
0
LINE
5
183
100
AcDbEntity
8
0
100
AcDbLine
10
-256.10322030701212
20
-635.08175263152395
30
0
11
-256.10322200536552
21
-633.91175160155694
31
0
0
ARC
5
184
100
AcDbEntity
8
0
100
AcDbCircle
10
-253.36537854796788
20
-635.18708675393873
30
0
40
0.77931083738803852
210
0
220
0
230
1
100
AcDbArc
50
-97.76852800231444
51
7.7686863732766449
0
ARC
5
185
100
AcDbEntity
8
0
100
AcDbCircle
10
-255.33106105452708
20
-635.18708960728964
30
0
40
0.77931083738803852
210
0
220
0
230
1
100
AcDbArc
50
172.23146949320409
51
277.76870435936257
0
LINE
5
186
100
AcDbEntity
8
0
100
AcDbLine
10
-252.59322342259367
20
-632.44924402694846
30
0
11
-257.85822328907375
21
-632.4492516695318
31
0
0
LINE
5
187
100
AcDbEntity
8
0
100
AcDbLine
10
-256.10322752501571
20
-630.10924706207118
30
0
11
-254.34822258335839
21
-632.44924657447518
31
0
0
LINE
5
188
100
AcDbEntity
8
0
100
AcDbLine
10
-252.59322681930044
20
-630.10924196701444
30
0
11
-255.07947530919262
21
-631.42549733077215
31
0
0
LINE
5
189
100
AcDbEntity
8
0
100
AcDbLine
10
-252.59323212664867
20
-626.45299292069262
30
0
11
-252.59323000370523
21
-627.91549540024425
31
0
0
LINE
5
190
100
AcDbEntity
8
0
100
AcDbLine
10
-253.47072831032432
20
-628.79299625439
30
0
11
-254.93322840569022
21
-628.79299837733004
31
0
0
LINE
5
191
100
AcDbEntity
8
0
100
AcDbLine
10
-254.93323180239696
20
-626.45299631739601
30
0
11
-254.34823128741343
21
-626.45299546821934
31
0
0
LINE
5
192
100
AcDbEntity
8
0
100
AcDbLine
10
-254.34823128741343
20
-626.45299546821923
30
0
11
-254.34822789070665
21
-628.79299752815325
31
0
0
ARC
5
193
100
AcDbEntity
8
0
100
AcDbCircle
10
-253.36538895037631
20
-628.02083461771576
30
0
40
0.77931083738803852
210
0
220
0
230
1
100
AcDbArc
50
-97.768528002312351
51
7.7686863732766449
0
ARC
5
194
100
AcDbEntity
8
0
100
AcDbCircle
10
-254.93323010404356
20
-627.62299734736291
30
0
40
1.1700000613927839
210
0
220
0
230
1
100
AcDbArc
50
90.000083169568782
51
270.00008817852301
0
LINE
5
195
100
AcDbEntity
8
0
100
AcDbLine
10
-256.10323453071737
20
-625.28299698578235
30
0
11
-256.10323707824398
21
-623.52799782501756
31
0
0
LINE
5
196
100
AcDbEntity
8
0
100
AcDbLine
10
-257.85823454065536
20
-624.69800140251118
30
0
11
-253.47073425455767
21
-624.6979950336912
31
0
0
LINE
5
197
100
AcDbEntity
8
0
100
AcDbLine
10
-252.59323594793858
20
-623.82049417954545
30
0
11
-252.59323637252865
21
-623.52799272996083
31
0
0
ARC
5
198
100
AcDbEntity
8
0
100
AcDbCircle
10
-253.36539489460276
20
-623.92583816538854
30
0
40
0.77931083738803852
210
0
220
0
230
1
100
AcDbArc
50
-97.76852800231444
51
7.7686863732766449
0
LINE
5
199
100
AcDbEntity
8
0
100
AcDbLine
10
-252.59323870776026
20
-621.91924429398841
30
0
11
-252.59323828317019
21
-622.21174574357315
31
0
0
LINE
5
200
100
AcDbEntity
8
0
100
AcDbLine
10
-252.59323828317019
20
-622.21174574357303
30
0
11
-252.88573734856902
21
-622.21174616815961
31
0
0
LINE
5
201
100
AcDbEntity
8
0
100
AcDbLine
10
-252.88573734856902
20
-622.21174616815972
30
0
11
-252.88573777315912
21
-621.9192447185751
31
0
0
LINE
5
202
100
AcDbEntity
8
0
100
AcDbLine
10
-252.88573777315912
20
-621.9192447185751
30
0
11
-252.59323870776026
21
-621.91924429398841
31
0
0
LINE
5
203
100
AcDbEntity
8
0
100
AcDbLine
10
-252.59323870776026
20
-621.91924429398841
30
0
11
-251.42323704090811
21
-622.35799477001206
31
0
0
LINE
5
204
100
AcDbEntity
8
0
100
AcDbLine
10
-255.5182480271302
20
-615.63050075239948
30
0
11
-252.59324422740355
21
-618.11674452287423
31
0
0
LINE
5
205
100
AcDbEntity
8
0
100
AcDbLine
10
-252.59324422740355
20
-618.11674452287423
30
0
11
-252.59324847329049
21
-615.19173956377085
31
0
0
ARC
5
206
100
AcDbEntity
8
0
100
AcDbCircle
10
-256.70000920121873
20
-616.34998298235075
30
0
40
1.1689662933349607
210
0
220
0
230
1
100
AcDbArc
50
82.231463346265514
51
187.76870185488298
0
ARC
5
207
100
AcDbEntity
8
0
100
AcDbCircle
10
-256.41003211869207
20
-616.68457919533648
30
0
40
1.4589405059814451
210
0
220
0
230
1
100
AcDbArc
50
173.04825766510618
51
259.00665282257825
0
ARC
5
208
100
AcDbEntity
8
0
100
AcDbCircle
10
-256.43780596665607
20
-616.36238990459765
30
0
40
1.1752662807703016
210
0
220
0
230
1
100
AcDbArc
50
38.516804658080794
51
95.086186096337798
0
LINE
5
209
100
AcDbEntity
8
0
100
AcDbLine
10
-252.59325378064568
20
-611.53548574907757
30
0
11
-256.10325788306773
21
-609.19548878420017
31
0
0
LINE
5
210
100
AcDbEntity
8
0
100
AcDbLine
10
-256.10325448636098
20
-611.53549084413419
30
0
11
-252.59325717735243
21
-609.19548368914343
31
0
0
LINE
5
211
100
AcDbEntity
8
0
100
AcDbLine
10
-256.68826370539256
20
-605.5392453554266
30
0
11
-257.85826447411034
21
-604.07674934259637
31
0
0
LINE
5
212
100
AcDbEntity
8
0
100
AcDbLine
10
-257.85826447411034
20
-604.07674934259637
30
0
11
-252.59326460763026
21
-604.07674170001303
31
0
0
LINE
5
213
100
AcDbEntity
8
0
100
AcDbLine
10
-252.59326248469375
20
-605.53923941119319
30
0
11
-252.59326673058067
21
-602.61423445208982
31
0
0
LINE
5
214
100
AcDbEntity
8
0
100
AcDbLine
10
-255.51827265324388
20
-598.66549297043491
30
0
11
-252.59326885351723
21
-601.15173674090966
31
0
0
LINE
5
215
100
AcDbEntity
8
0
100
AcDbLine
10
-252.59326885351723
20
-601.15173674090977
30
0
11
-252.59327309940414
21
-598.22673178180639
31
0
0
ARC
5
216
100
AcDbEntity
8
0
100
AcDbCircle
10
-256.70003382733239
20
-599.38497520038618
30
0
40
1.1689662933349607
210
0
220
0
230
1
100
AcDbArc
50
82.231463346267546
51
187.76870185488812
0
ARC
5
217
100
AcDbEntity
8
0
100
AcDbCircle
10
-256.41005674480573
20
-599.71957141337202
30
0
40
1.4589405059814451
210
0
220
0
230
1
100
AcDbArc
50
173.04825766510618
51
259.00665282257825
0
ARC
5
218
100
AcDbEntity
8
0
100
AcDbCircle
10
-256.43783059276973
20
-599.39738212263296
30
0
40
1.1752662807703016
210
0
220
0
230
1
100
AcDbArc
50
38.51680465807646
51
95.086186096337798
0
LINE
5
219
100
AcDbEntity
8
0
100
AcDbLine
10
-252.59327883134938
20
-594.27797651752826
30
0
11
-256.10327953706468
21
-594.27798161258488
31
0
0
LINE
5
220
100
AcDbEntity
8
0
100
AcDbLine
10
-256.10327953706468
20
-594.27798161258488
30
0
11
-256.10328335834765
21
-591.6454876398094
31
0
0
LINE
5
221
100
AcDbEntity
8
0
100
AcDbLine
10
-255.22578505173553
20
-590.76798201729218
30
0
11
-252.59328392640259
21
-590.76797819599881
31
0
0
LINE
5
222
100
AcDbEntity
8
0
100
AcDbLine
10
-252.59328137887599
20
-592.52297735676359
30
0
11
-256.10328208459129
21
-592.52298245182021
31
0
0
ARC
5
223
100
AcDbEntity
8
0
100
AcDbCircle
10
-255.33112441168353
20
-591.54014365396642
30
0
40
0.77931083738803852
210
0
220
0
230
1
100
AcDbArc
50
82.231463346265329
51
187.76870185488528
0
LINE
5
224
100
AcDbEntity
8
0
100
AcDbLine
10
-252.59328647392923
20
-589.01297903523403
30
0
11
-256.10328717964455
21
-589.01298413029076
31
0
0
LINE
5
225
100
AcDbEntity
8
0
100
AcDbLine
10
-256.10328717964455
20
-589.01298413029076
30
0
11
-256.10329100092753
21
-586.38049015751517
31
0
0
LINE
5
226
100
AcDbEntity
8
0
100
AcDbLine
10
-255.22579269431534
20
-585.50298453499795
30
0
11
-252.59329156898244
21
-585.50298071370457
31
0
0
LINE
5
227
100
AcDbEntity
8
0
100
AcDbLine
10
-252.59328902145583
20
-587.25797987446936
30
0
11
-256.10328972717116
21
-587.25798496952598
31
0
0
ARC
5
228
100
AcDbEntity
8
0
100
AcDbCircle
10
-255.33113205426335
20
-586.27514617167219
30
0
40
0.77931083738803852
210
0
220
0
230
1
100
AcDbArc
50
82.231463346265329
51
187.76870185488528
0
LINE
5
229
100
AcDbEntity
8
0
100
AcDbLine
10
-250.83829835245109
20
-581.40797694547916
30
0
11
-256.10329821893112
21
-581.40798458806239
31
0
0
LINE
5
230
100
AcDbEntity
8
0
100
AcDbLine
10
-256.10329821893112
20
-581.40798458806239
30
0
11
-256.10330034186762
21
-579.94548687688234
31
0
0
LINE
5
231
100
AcDbEntity
8
0
100
AcDbLine
10
-255.22580203524166
20
-579.06799079110829
30
0
11
-253.47080049029108
21
-579.06798824357816
31
0
0
LINE
5
232
100
AcDbEntity
8
0
100
AcDbLine
10
-252.59329963615238
20
-579.94548178182561
30
0
11
-252.59329751321584
21
-581.40797949300566
31
0
0
ARC
5
233
100
AcDbEntity
8
0
100
AcDbCircle
10
-255.3311413952035
20
-579.84014289103936
30
0
40
0.77931083738803852
210
0
220
0
230
1
100
AcDbArc
50
82.231463346265329
51
187.76870185487695
0
ARC
5
234
100
AcDbEntity
8
0
100
AcDbCircle
10
-253.3654588886443
20
-579.84014003768834
30
0
40
0.77931083738803852
210
0
220
0
230
1
100
AcDbArc
50
-7.7685459883991959
51
97.768699350404418
0
LINE
5
235
100
AcDbEntity
8
0
100
AcDbLine
10
-257.85830311162732
20
-577.45924140805414
30
0
11
-253.47080282552963
21
-577.45923503923416
31
0
0
ARC
5
236
100
AcDbEntity
8
0
100
AcDbCircle
10
-253.36546346556776
20
-576.68708293930297
30
0
40
0.77931083738803852
210
0
220
0
230
1
100
AcDbArc
50
-97.76852800231444
51
7.7686863732766449
0
LINE
5
237
100
AcDbEntity
8
0
100
AcDbLine
10
-250.83830705649916
20
-575.41173060759479
30
0
11
-250.83830790566549
21
-574.8267372451686
31
0
0
LINE
5
238
100
AcDbEntity
8
0
100
AcDbLine
10
-250.83830790566549
20
-574.8267372451686
30
0
11
-256.10331031968599
21
-573.071736190244
31
0
0
LINE
5
239
100
AcDbEntity
8
0
100
AcDbLine
10
-256.10330692297919
20
-575.41173825017813
30
0
11
-252.59330791561038
21
-574.24173689352597
31
0
0
ENDSEC
0
SECTION
2
OBJECTS
0
DICTIONARY
5
C
100
AcDbDictionary
3
ACAD_GROUP
350
D
3
ACAD_MLINESTYLE
350
17
0
DICTIONARY
5
D
100
AcDbDictionary
0
DICTIONARY
5
1A
330
C
100
AcDbDictionary
0
DICTIONARY
5
17
100
AcDbDictionary
0
ENDSEC
0
EOF
