0
SECTION
2
HEADER
9
$INSUNITS
70
4
9
$ACADVER
1
AC1014
9
$HANDSEED
5
FFFF
0
ENDSEC
0
SECTION
2
TABLES
0
TABLE
2
VPORT
5
8
100
AcDbSymbolTable
0
ENDTAB
0
TABLE
2
LTYPE
5
5
100
AcDbSymbolTable
0
LTYPE
5
14
100
AcDbSymbolTableRecord
100
AcDbLinetypeTableRecord
2
BYBLOCK
70
0
0
LTYPE
5
15
100
AcDbSymbolTableRecord
100
AcDbLinetypeTableRecord
2
BYLAYER
70
0
0
LTYPE
5
16
100
AcDbSymbolTableRecord
100
AcDbLinetypeTableRecord
2
DASHED
70
0
3
Dashed __ __ __ __ __ __ __ __ __ __ __ __ __ _
72
65
73
2
40
0.75
49
0.5
74
0
49
-0.25
74
0
0
ENDTAB
0
TABLE
2
LAYER
5
2
100
AcDbSymbolTable
70
3
0
LAYER
5
50
100
AcDbSymbolTableRecord
100
AcDbLayerTableRecord
2
1
70
0
62
7
6
DASHED
0
LAYER
5
51
100
AcDbSymbolTableRecord
100
AcDbLayerTableRecord
2
0
70
0
62
7
6
CONTINUOUS
0
ENDTAB
0
TABLE
2
STYLE
5
3
100
AcDbSymbolTable
70
1
0
STYLE
5
11
100
AcDbSymbolTableRecord
100
AcDbTextStyleTableRecord
2
STANDARD
70
0
0
ENDTAB
0
TABLE
2
VIEW
5
6
100
AcDbSymbolTable
70
0
0
ENDTAB
0
TABLE
2
UCS
5
7
100
AcDbSymbolTable
70
0
0
ENDTAB
0
TABLE
2
APPID
5
9
100
AcDbSymbolTable
70
2
0
APPID
5
12
100
AcDbSymbolTableRecord
100
AcDbRegAppTableRecord
2
ACAD
70
0
0
ENDTAB
0
TABLE
2
DIMSTYLE
5
A
100
AcDbSymbolTable
70
1
0
ENDTAB
0
TABLE
2
BLOCK_RECORD
5
1
100
AcDbSymbolTable
70
1
0
BLOCK_RECORD
5
1F
100
AcDbSymbolTableRecord
100
AcDbBlockTableRecord
2
*MODEL_SPACE
0
BLOCK_RECORD
5
1B
100
AcDbSymbolTableRecord
100
AcDbBlockTableRecord
2
*PAPER_SPACE
0
ENDTAB
0
ENDSEC
0
SECTION
2
BLOCKS
0
BLOCK
5
20
100
AcDbEntity
100
AcDbBlockBegin
2
*MODEL_SPACE
0
ENDBLK
5
21
100
AcDbEntity
100
AcDbBlockEnd
0
BLOCK
5
1C
100
AcDbEntity
100
AcDbBlockBegin
2
*PAPER_SPACE
0
ENDBLK
5
1D
100
AcDbEntity
100
AcDbBlockEnd
0
ENDSEC
0
SECTION
2
ENTITIES
0
CIRCLE
5
100
100
AcDbEntity
8
0
100
AcDbCircle
10
-621.69437496587068
20
-928.88092226858907
30
0
40
1.4999999999999858
210
0
220
0
230
1
0
CIRCLE
5
101
100
AcDbEntity
8
0
100
AcDbCircle
10
-621.69437496587057
20
-1170.6035151821586
30
0
40
1.4999999999999858
210
0
220
0
230
1
0
CIRCLE
5
102
100
AcDbEntity
8
0
100
AcDbCircle
10
-621.69437496587079
20
-961.88092226858907
30
0
40
1.4999999999999858
210
0
220
-0
230
1
0
CIRCLE
5
103
100
AcDbEntity
8
0
100
AcDbCircle
10
-621.69437496587079
20
-1137.6035151821586
30
0
40
1.4999999999999858
210
0
220
0
230
1
0
LWPOLYLINE
5
104
100
AcDbEntity
8
0
100
AcDbPolyline
90
8
70
1
43
0.0
10
-617.69437496587079
20
-1177.6072187253735
42
0.41421356237304302
10
-609.69437496587102
20
-1169.6072187253744
10
-609.69437496587034
20
-929.87721872537441
42
0.41421356237313145
10
-617.69437496587091
20
-921.8772187253735
10
-625.69437496587057
20
-921.87721872537452
42
0.41421356237312623
10
-633.69437496587057
20
-929.87721872537441
10
-633.69437496587011
20
-1169.6072187253744
42
0.4142135623730846
10
-625.69437496587034
20
-1177.607218725374
0
LINE
5
105
100
AcDbEntity
8
1
100
AcDbLine
10
-631.69437496588034
20
-967.88092226858896
30
0
11
-631.69437496588091
21
-1131.6035151821604
31
0
0
LINE
5
106
100
AcDbEntity
8
1
100
AcDbLine
10
-631.69437496588091
20
-1131.6035151821604
30
0
11
-611.69437496587091
21
-1131.6035151821607
31
0
0
LINE
5
107
100
AcDbEntity
8
1
100
AcDbLine
10
-611.69437496587091
20
-1131.6035151821607
30
0
11
-611.69437496587045
21
-967.8809222685893
31
0
0
LINE
5
108
100
AcDbEntity
8
1
100
AcDbLine
10
-611.69437496587045
20
-967.8809222685893
30
0
11
-631.69437496588034
21
-967.88092226858896
31
0
0
LINE
5
109
100
AcDbEntity
8
0
100
AcDbLine
10
-624.61707203313119
20
-991.24221176977915
30
0
11
-619.35207157059915
21
-992.99721331473154
31
0
0
LINE
5
110
100
AcDbEntity
8
0
100
AcDbLine
10
-619.35207157059915
20
-992.99721331473165
30
0
11
-624.61707203313119
21
-994.75221247549825
31
0
0
LINE
5
111
100
AcDbEntity
8
0
100
AcDbLine
10
-623.30082147046335
20
-994.31346268530649
30
0
11
-623.30082147046335
21
-991.6809615599708
31
0
0
LINE
5
112
100
AcDbEntity
8
0
100
AcDbLine
10
-619.93707148953683
20
-995.92221350546652
30
0
11
-619.35207157059915
21
-995.92221350546652
31
0
0
LINE
5
113
100
AcDbEntity
8
0
100
AcDbLine
10
-619.35207157059915
20
-995.92221350546652
30
0
11
-619.35207157059915
21
-998.84721369620138
31
0
0
LINE
5
114
100
AcDbEntity
8
0
100
AcDbLine
10
-619.35207157059926
20
-998.84721369620138
30
0
11
-624.61707203313131
21
-997.38471121664816
31
0
0
LINE
5
115
100
AcDbEntity
8
0
100
AcDbLine
10
-624.61707203313131
20
-1000.6022128569679
30
0
11
-624.61707203313131
21
-1000.3097114073829
31
0
0
LINE
5
116
100
AcDbEntity
8
0
100
AcDbLine
10
-624.61707203313131
20
-1000.3097114073829
30
0
11
-624.32457177563924
21
-1000.3097114073829
31
0
0
LINE
5
117
100
AcDbEntity
8
0
100
AcDbLine
10
-624.32457177563924
20
-1000.3097114073829
30
0
11
-624.32457177563924
21
-1000.6022128569679
31
0
0
LINE
5
118
100
AcDbEntity
8
0
100
AcDbLine
10
-624.32457177563924
20
-1000.6022128569679
30
0
11
-624.61707203313131
21
-1000.6022128569679
31
0
0
LINE
5
119
100
AcDbEntity
8
0
100
AcDbLine
10
-624.61707203313131
20
-1000.6022128569679
30
0
11
-625.78707187100667
21
-1000.1634630667762
31
0
0
LINE
5
120
100
AcDbEntity
8
0
100
AcDbLine
10
-626.3720723859908
20
-1004.5509633528785
30
0
11
-621.10707132741231
21
-1004.5509633528785
31
0
0
LINE
5
121
100
AcDbEntity
8
0
100
AcDbLine
10
-621.10707132741231
20
-1004.5509633528786
30
0
11
-621.10707132741231
21
-1006.0134634482461
31
0
0
LINE
5
122
100
AcDbEntity
8
0
100
AcDbLine
10
-621.98457209988851
20
-1006.8909630286292
30
0
11
-623.73957245274801
21
-1006.8909630286292
31
0
0
LINE
5
123
100
AcDbEntity
8
0
100
AcDbLine
10
-624.61707203313131
20
-1006.0134634482459
30
0
11
-624.61707203313131
21
-1004.5509633528785
31
0
0
ARC
5
124
100
AcDbEntity
8
0
100
AcDbCircle
10
-621.87923042699117
20
-1006.1188063132362
30
0
40
0.77931083738803864
210
0
220
0
230
1
100
AcDbArc
50
-97.7686198232945
51
7.7686186853208445
0
ARC
5
125
100
AcDbEntity
8
0
100
AcDbCircle
10
-623.84491412564535
20
-1006.1188063132362
30
0
40
0.77931083738803864
210
0
220
0
230
1
100
AcDbArc
50
172.2313708420331
51
277.76861618084143
0
LINE
5
126
100
AcDbEntity
8
0
100
AcDbLine
10
-624.61707203313131
20
-1010.6934651839332
30
0
11
-624.61707203313131
21
-1009.23096270438
31
0
0
LINE
5
127
100
AcDbEntity
8
0
100
AcDbLine
10
-623.73957245274801
20
-1008.3534631239967
30
0
11
-622.27707235738058
21
-1008.3534631239967
31
0
0
LINE
5
128
100
AcDbEntity
8
0
100
AcDbLine
10
-622.27707235738058
20
-1010.6934651839332
30
0
11
-622.86207168027181
21
-1010.6934651839332
31
0
0
LINE
5
129
100
AcDbEntity
8
0
100
AcDbLine
10
-622.86207168027181
20
-1010.6934651839332
30
0
11
-622.86207168027181
21
-1008.3534631239967
31
0
0
ARC
5
130
100
AcDbEntity
8
0
100
AcDbCircle
10
-623.84491412564535
20
-1009.1256246077613
30
0
40
0.77931083738803864
210
0
220
0
230
1
100
AcDbArc
50
82.231388828120899
51
187.76860320370756
0
ARC
5
131
100
AcDbEntity
8
0
100
AcDbCircle
10
-622.27707235738058
20
-1009.5234641539649
30
0
40
1.1700000613927841
210
0
220
0
230
1
100
AcDbArc
50
-90
51
90.00000500895429
0
LINE
5
132
100
AcDbEntity
8
0
100
AcDbLine
10
-619.35207157059926
20
-1014.4959649550515
30
0
11
-624.61707203313131
21
-1014.4959649550515
31
0
0
LINE
5
133
100
AcDbEntity
8
0
100
AcDbLine
10
-624.61707203313131
20
-1014.4959649550514
30
0
11
-624.61707203313131
21
-1013.0334624754981
31
0
0
LINE
5
134
100
AcDbEntity
8
0
100
AcDbLine
10
-623.73957245274801
20
-1012.1559628951148
30
0
11
-621.98457209988851
21
-1012.1559628951148
31
0
0
LINE
5
135
100
AcDbEntity
8
0
100
AcDbLine
10
-621.10707132741231
20
-1013.0334624754983
30
0
11
-621.10707132741231
21
-1014.4959649550515
31
0
0
ARC
5
136
100
AcDbEntity
8
0
100
AcDbCircle
10
-623.84491412564535
20
-1012.9281243788795
30
0
40
0.77931083738803864
210
0
220
0
230
1
100
AcDbArc
50
82.231388828120899
51
187.76860320370756
0
ARC
5
137
100
AcDbEntity
8
0
100
AcDbCircle
10
-621.87923042699117
20
-1012.9281243788796
30
0
40
0.77931083738803864
210
0
220
0
230
1
100
AcDbArc
50
-7.7686136763596716
51
97.768621189792043
0
LINE
5
138
100
AcDbEntity
8
0
100
AcDbLine
10
-622.56957142277975
20
-1018.444715450962
30
0
11
-622.56957142277975
21
-1017.1284636962013
31
0
0
LINE
5
139
100
AcDbEntity
8
0
100
AcDbLine
10
-624.61707203313131
20
-1017.1284636962013
30
0
11
-624.61707203313131
21
-1018.444715450962
31
0
0
LINE
5
140
100
AcDbEntity
8
0
100
AcDbLine
10
-624.61707203313131
20
-1018.444715450962
30
0
11
-621.98457209988851
21
-1018.444715450962
31
0
0
LINE
5
141
100
AcDbEntity
8
0
100
AcDbLine
10
-621.10707132741231
20
-1017.5672158705788
30
0
11
-621.10707132741231
21
-1016.3972148406106
31
0
0
ARC
5
142
100
AcDbEntity
8
0
100
AcDbCircle
10
-623.59332172795553
20
-1017.1284636962013
30
0
40
1.0237500816583633
210
0
220
0
230
1
100
AcDbArc
50
2.4148365394514667e-06
51
180
0
ARC
5
143
100
AcDbEntity
8
0
100
AcDbCircle
10
-621.87923042699117
20
-1017.6725539671975
30
0
40
0.77931083738803864
210
0
220
0
230
1
100
AcDbArc
50
-97.7686198232945
51
7.7686186853208445
0
LINE
5
144
100
AcDbEntity
8
0
100
AcDbLine
10
-619.35207157059926
20
-1020.1997146117287
30
0
11
-623.73957245274801
21
-1020.1997146117287
31
0
0
ARC
5
145
100
AcDbEntity
8
0
100
AcDbCircle
10
-623.84491412564535
20
-1020.9718713271217
30
0
40
0.77931083738803864
210
0
220
0
230
1
100
AcDbArc
50
82.231388828120899
51
187.76860320370645
0
LINE
5
146
100
AcDbEntity
8
0
100
AcDbLine
10
-621.10707132741231
20
-1024.5872125136452
30
0
11
-624.61707203313131
21
-1025.4647120940285
31
0
0
LINE
5
147
100
AcDbEntity
8
0
100
AcDbLine
10
-624.61707203313131
20
-1025.4647120940283
30
0
11
-622.27707235738058
21
-1026.3422164427832
31
0
0
LINE
5
148
100
AcDbEntity
8
0
100
AcDbLine
10
-622.27707235738058
20
-1026.3422164427832
30
0
11
-624.61707203313131
21
-1027.2197160231665
31
0
0
LINE
5
149
100
AcDbEntity
8
0
100
AcDbLine
10
-624.61707203313131
20
-1027.2197160231665
30
0
11
-621.10707132741231
21
-1028.0972156035498
31
0
0
LINE
5
150
100
AcDbEntity
8
0
100
AcDbLine
10
-624.61707203313131
20
-1029.5597133147314
30
0
11
-621.10707132741231
21
-1029.5597133147314
31
0
0
LINE
5
151
100
AcDbEntity
8
0
100
AcDbLine
10
-619.64457123204488
20
-1029.4134625899392
30
0
11
-619.35207157059926
21
-1029.4134625899392
31
0
0
LINE
5
152
100
AcDbEntity
8
0
100
AcDbLine
10
-619.35207157059926
20
-1029.4134625899392
30
0
11
-619.35207157059926
21
-1029.7059640395241
31
0
0
LINE
5
153
100
AcDbEntity
8
0
100
AcDbLine
10
-619.35207157059926
20
-1029.7059640395241
30
0
11
-619.64457123204488
21
-1029.7059640395241
31
0
0
LINE
5
154
100
AcDbEntity
8
0
100
AcDbLine
10
-619.64457123204488
20
-1029.7059640395241
30
0
11
-619.64457123204488
21
-1029.4134625899392
31
0
0
LINE
5
155
100
AcDbEntity
8
0
100
AcDbLine
10
-624.61707203313131
20
-1031.314712475498
30
0
11
-621.10707132741231
21
-1031.314712475498
31
0
0
LINE
5
156
100
AcDbEntity
8
0
100
AcDbLine
10
-621.10707132741231
20
-1031.3147124754983
30
0
11
-621.10707132741231
21
-1033.0697116362649
31
0
0
LINE
5
157
100
AcDbEntity
8
0
100
AcDbLine
10
-621.10707132741231
20
-1033.0697116362649
30
0
11
-621.69207184239644
21
-1033.0697116362649
31
0
0
LINE
5
158
100
AcDbEntity
8
0
100
AcDbLine
10
-624.61707203313131
20
-1036.5797147261694
30
0
11
-624.61707203313131
21
-1035.1172122466162
31
0
0
LINE
5
159
100
AcDbEntity
8
0
100
AcDbLine
10
-623.73957245274801
20
-1034.2397126662329
30
0
11
-622.27707235738058
21
-1034.2397126662329
31
0
0
LINE
5
160
100
AcDbEntity
8
0
100
AcDbLine
10
-622.27707235738058
20
-1036.5797147261694
30
0
11
-622.86207168027181
21
-1036.5797147261694
31
0
0
LINE
5
161
100
AcDbEntity
8
0
100
AcDbLine
10
-622.86207168027181
20
-1036.5797147261694
30
0
11
-622.86207168027181
21
-1034.2397126662329
31
0
0
ARC
5
162
100
AcDbEntity
8
0
100
AcDbCircle
10
-623.84491412564535
20
-1035.0118741499975
30
0
40
0.77931083738803864
210
0
220
0
230
1
100
AcDbArc
50
82.231388828119748
51
187.76860320371478
0
ARC
5
163
100
AcDbEntity
8
0
100
AcDbCircle
10
-622.27707235738058
20
-1035.4097136962012
30
0
40
1.1700000613927841
210
0
220
0
230
1
100
AcDbArc
50
-90
51
90.00000500895986
0
LINE
5
164
100
AcDbEntity
8
0
100
AcDbLine
10
-622.56957142277986
20
-1042.7222165572241
30
0
11
-622.56957142277986
21
-1041.4059648024634
31
0
0
LINE
5
165
100
AcDbEntity
8
0
100
AcDbLine
10
-624.61707203313142
20
-1041.4059648024634
30
0
11
-624.61707203313142
21
-1042.7222165572241
31
0
0
LINE
5
166
100
AcDbEntity
8
0
100
AcDbLine
10
-624.61707203313142
20
-1042.7222165572241
30
0
11
-621.98457209988862
21
-1042.7222165572241
31
0
0
LINE
5
167
100
AcDbEntity
8
0
100
AcDbLine
10
-621.10707132741243
20
-1041.844716976841
30
0
11
-621.10707132741243
21
-1040.6747159468728
31
0
0
ARC
5
168
100
AcDbEntity
8
0
100
AcDbCircle
10
-623.59332172795564
20
-1041.4059648024634
30
0
40
1.0237500816583633
210
0
220
0
230
1
100
AcDbArc
50
2.4148365394514667e-06
51
180
0
ARC
5
169
100
AcDbEntity
8
0
100
AcDbCircle
10
-621.87923042699128
20
-1041.9500598418313
30
0
40
0.77931083738803864
210
0
220
0
230
1
100
AcDbArc
50
-97.768619823302743
51
7.7686186853208445
0
LINE
5
170
100
AcDbEntity
8
0
100
AcDbLine
10
-619.35207157059938
20
-1044.4772157179909
30
0
11
-623.73957245274812
21
-1044.4772157179909
31
0
0
ARC
5
171
100
AcDbEntity
8
0
100
AcDbCircle
10
-623.84491412564546
20
-1045.2493724333838
30
0
40
0.77931083738803864
210
0
220
0
230
1
100
AcDbArc
50
82.231388828119748
51
187.76860320371588
0
LINE
5
172
100
AcDbEntity
8
0
100
AcDbLine
10
-624.61707203313142
20
-1046.8172177779272
30
0
11
-621.10707132741243
21
-1046.8172177779272
31
0
0
LINE
5
173
100
AcDbEntity
8
0
100
AcDbLine
10
-619.644571232045
20
-1046.670967053135
30
0
11
-619.35207157059938
21
-1046.670967053135
31
0
0
LINE
5
174
100
AcDbEntity
8
0
100
AcDbLine
10
-619.35207157059938
20
-1046.670967053135
30
0
11
-619.35207157059938
21
-1046.9634685027199
31
0
0
LINE
5
175
100
AcDbEntity
8
0
100
AcDbLine
10
-619.35207157059938
20
-1046.9634685027199
30
0
11
-619.644571232045
21
-1046.9634685027199
31
0
0
LINE
5
176
100
AcDbEntity
8
0
100
AcDbLine
10
-619.644571232045
20
-1046.9634685027199
30
0
11
-619.644571232045
21
-1046.670967053135
31
0
0
LINE
5
177
100
AcDbEntity
8
0
100
AcDbLine
10
-624.61707203313142
20
-1050.7659682738379
30
0
11
-624.61707203313142
21
-1049.3034705626562
31
0
0
LINE
5
178
100
AcDbEntity
8
0
100
AcDbLine
10
-623.73957245274812
20
-1048.4259662139013
30
0
11
-621.98457209988862
21
-1048.4259662139013
31
0
0
LINE
5
179
100
AcDbEntity
8
0
100
AcDbLine
10
-621.10707132741243
20
-1049.3034705626565
30
0
11
-621.10707132741243
21
-1050.7659682738381
31
0
0
LINE
5
180
100
AcDbEntity
8
0
100
AcDbLine
10
-621.10707132741243
20
-1050.7659682738381
30
0
11
-625.49457161351472
21
-1050.7659682738381
31
0
0
LINE
5
181
100
AcDbEntity
8
0
100
AcDbLine
10
-626.37207238599092
20
-1049.888463925083
30
0
11
-626.37207238599092
21
-1048.7184676634863
31
0
0
ARC
5
182
100
AcDbEntity
8
0
100
AcDbCircle
10
-623.84491412564546
20
-1049.198127697666
30
0
40
0.77931083738803864
210
0
220
0
230
1
100
AcDbArc
50
82.231388828119748
51
187.76860320371588
0
ARC
5
183
100
AcDbEntity
8
0
100
AcDbCircle
10
-621.87923042699128
20
-1049.1981276976662
30
0
40
0.77931083738803864
210
0
220
0
230
1
100
AcDbArc
50
-7.7686136763596716
51
97.768621189792043
0
ARC
5
184
100
AcDbEntity
8
0
100
AcDbCircle
10
-625.59991328641206
20
-1049.9938067900732
30
0
40
0.77931083738803864
210
0
220
0
230
1
100
AcDbArc
50
172.23137084203424
51
277.76861618083916
0
LINE
5
185
100
AcDbEntity
8
0
100
AcDbLine
10
-624.61707203313142
20
-1052.5209769713476
30
0
11
-621.10707132741243
21
-1052.5209769713476
31
0
0
LINE
5
186
100
AcDbEntity
8
0
100
AcDbLine
10
-621.10707132741243
20
-1052.5209769713479
30
0
11
-621.10707132741243
21
-1053.9834746825295
31
0
0
LINE
5
187
100
AcDbEntity
8
0
100
AcDbLine
10
-621.98457209988862
20
-1054.8609694945412
30
0
11
-624.61707203313142
21
-1054.8609694945412
31
0
0
ARC
5
188
100
AcDbEntity
8
0
100
AcDbCircle
10
-621.87923042699128
20
-1054.0888175475197
30
0
40
0.77931083738803864
210
0
220
0
230
1
100
AcDbArc
50
-97.768619823302743
51
7.7686186853208445
0
LINE
5
189
100
AcDbEntity
8
0
100
AcDbLine
10
-624.61707203313142
20
-1058.8097247588232
30
0
11
-624.61707203313142
21
-1057.3472270476416
31
0
0
LINE
5
190
100
AcDbEntity
8
0
100
AcDbLine
10
-623.73957245274812
20
-1056.4697226988867
30
0
11
-622.27707235738069
21
-1056.4697226988867
31
0
0
LINE
5
191
100
AcDbEntity
8
0
100
AcDbLine
10
-622.27707235738069
20
-1058.8097247588234
30
0
11
-622.86207168027192
21
-1058.8097247588234
31
0
0
LINE
5
192
100
AcDbEntity
8
0
100
AcDbLine
10
-622.86207168027192
20
-1058.8097247588232
30
0
11
-622.86207168027192
21
-1056.4697226988867
31
0
0
ARC
5
193
100
AcDbEntity
8
0
100
AcDbCircle
10
-623.84491412564546
20
-1057.2418841826513
30
0
40
0.77931083738803864
210
0
220
0
230
1
100
AcDbArc
50
82.231388828119748
51
187.76860320371588
0
ARC
5
194
100
AcDbEntity
8
0
100
AcDbCircle
10
-622.27707235738069
20
-1057.6397284972268
30
0
40
1.1700000613927841
210
0
220
0
230
1
100
AcDbArc
50
-90
51
90.00000500895429
0
LINE
5
195
100
AcDbEntity
8
0
100
AcDbLine
10
-624.61707203313142
20
-1060.4184684264258
30
0
11
-621.10707132741243
21
-1060.4184684264258
31
0
0
LINE
5
196
100
AcDbEntity
8
0
100
AcDbLine
10
-621.10707132741243
20
-1060.418468426426
30
0
11
-621.10707132741243
21
-1062.1734675871926
31
0
0
LINE
5
197
100
AcDbEntity
8
0
100
AcDbLine
10
-621.10707132741243
20
-1062.1734675871926
30
0
11
-621.69207184239656
21
-1062.1734675871926
31
0
0
LINE
5
198
100
AcDbEntity
8
0
100
AcDbLine
10
-624.61707203313142
20
-1063.635965298374
30
0
11
-624.61707203313142
21
-1063.343463848789
31
0
0
LINE
5
199
100
AcDbEntity
8
0
100
AcDbLine
10
-624.61707203313142
20
-1063.343463848789
30
0
11
-624.32457177563936
21
-1063.343463848789
31
0
0
LINE
5
200
100
AcDbEntity
8
0
100
AcDbLine
10
-624.32457177563936
20
-1063.343463848789
30
0
11
-624.32457177563936
21
-1063.635965298374
31
0
0
LINE
5
201
100
AcDbEntity
8
0
100
AcDbLine
10
-624.32457177563936
20
-1063.635965298374
30
0
11
-624.61707203313142
21
-1063.635965298374
31
0
0
LINE
5
202
100
AcDbEntity
8
0
100
AcDbLine
10
-624.61707203313142
20
-1063.635965298374
30
0
11
-625.78707187100679
21
-1063.1972178923681
31
0
0
LINE
5
203
100
AcDbEntity
8
0
100
AcDbLine
10
-620.52207200452119
20
-1067.4384650694924
30
0
11
-619.35207157059938
21
-1068.900962780674
31
0
0
LINE
5
204
100
AcDbEntity
8
0
100
AcDbLine
10
-619.35207157059938
20
-1068.900962780674
30
0
11
-624.61707203313142
21
-1068.900962780674
31
0
0
LINE
5
205
100
AcDbEntity
8
0
100
AcDbLine
10
-624.61707203313142
20
-1067.4384650694922
30
0
11
-624.61707203313142
21
-1070.3634700285986
31
0
0
LINE
5
206
100
AcDbEntity
8
0
100
AcDbLine
10
-624.61707203313142
20
-1074.0197238432959
30
0
11
-621.10707132741243
21
-1076.3597163664892
31
0
0
LINE
5
207
100
AcDbEntity
8
0
100
AcDbLine
10
-621.10707132741243
20
-1074.0197238432961
30
0
11
-624.61707203313142
21
-1076.3597163664895
31
0
0
LINE
5
208
100
AcDbEntity
8
0
100
AcDbLine
10
-621.69207184239656
20
-1080.0159797179299
30
0
11
-621.69207184239656
21
-1081.7709788786965
31
0
0
LINE
5
209
100
AcDbEntity
8
0
100
AcDbLine
10
-622.86207168027204
20
-1082.9409846770361
30
0
11
-623.1545719377641
21
-1082.9409846770361
31
0
0
LINE
5
210
100
AcDbEntity
8
0
100
AcDbLine
10
-623.15457193776399
20
-1080.0159797179297
30
0
11
-621.69207184239656
21
-1080.0159797179297
31
0
0
ARC
5
211
100
AcDbEntity
8
0
100
AcDbCircle
10
-622.72161691113752
20
-1081.9114360320168
30
0
40
1.0390811413526533
210
0
220
0
230
1
100
AcDbArc
50
-97.76861982330621
51
7.7686186853145864
0
ARC
5
212
100
AcDbEntity
8
0
100
AcDbCircle
10
-623.1545719377641
20
-1081.4784774291113
30
0
40
1.4625000953674316
210
0
220
0
230
1
100
AcDbArc
50
90.000005008957558
51
270
0
ARC
5
213
100
AcDbEntity
8
0
100
AcDbCircle
10
-621.41116111203473
20
-1082.0750674712258
30
0
40
2.078162282705307
210
0
220
0
230
1
100
AcDbArc
50
-7.7686136763585019
51
97.768621189793038
0
LINE
5
214
100
AcDbEntity
8
0
100
AcDbLine
10
-624.61707203313154
20
-1086.8897399413183
30
0
11
-621.10707132741254
21
-1086.8897399413183
31
0
0
LINE
5
215
100
AcDbEntity
8
0
100
AcDbLine
10
-621.10707132741254
20
-1086.8897399413186
30
0
11
-621.10707132741254
21
-1089.5222339140969
31
0
0
LINE
5
216
100
AcDbEntity
8
0
100
AcDbLine
10
-621.98457209988874
20
-1090.3997382628518
30
0
11
-624.61707203313154
21
-1090.3997382628518
31
0
0
LINE
5
217
100
AcDbEntity
8
0
100
AcDbLine
10
-624.61707203313154
20
-1088.6447391020849
30
0
11
-621.10707132741254
21
-1088.6447391020849
31
0
0
ARC
5
218
100
AcDbEntity
8
0
100
AcDbCircle
10
-621.8792304269914
20
-1089.6275767790871
30
0
40
0.77931083738803864
210
0
220
0
230
1
100
AcDbArc
50
-97.768619823302743
51
7.7686186853208445
0
LINE
5
219
100
AcDbEntity
8
0
100
AcDbLine
10
-624.61707203313154
20
-1092.154727886875
30
0
11
-621.10707132741254
21
-1092.154727886875
31
0
0
LINE
5
220
100
AcDbEntity
8
0
100
AcDbLine
10
-621.10707132741254
20
-1092.1547278868752
30
0
11
-621.10707132741254
21
-1094.7872218596535
31
0
0
LINE
5
221
100
AcDbEntity
8
0
100
AcDbLine
10
-621.98457209988874
20
-1095.6647262084084
30
0
11
-624.61707203313154
21
-1095.6647262084084
31
0
0
LINE
5
222
100
AcDbEntity
8
0
100
AcDbLine
10
-624.61707203313154
20
-1093.9097270476416
30
0
11
-621.10707132741254
21
-1093.9097270476416
31
0
0
ARC
5
223
100
AcDbEntity
8
0
100
AcDbCircle
10
-621.8792304269914
20
-1094.8925647246438
30
0
40
0.77931083738803864
210
0
220
0
230
1
100
AcDbArc
50
-97.768619823302743
51
7.7686186853208445
0
LINE
5
224
100
AcDbEntity
8
0
100
AcDbLine
10
-626.37207238599103
20
-1099.7597274291113
30
0
11
-621.10707132741254
21
-1099.7597274291113
31
0
0
LINE
5
225
100
AcDbEntity
8
0
100
AcDbLine
10
-621.10707132741254
20
-1099.7597274291115
30
0
11
-621.10707132741254
21
-1101.2222251402932
31
0
0
LINE
5
226
100
AcDbEntity
8
0
100
AcDbLine
10
-621.98457209988885
20
-1102.0997199523049
30
0
11
-623.73957245274835
21
-1102.0997199523049
31
0
0
LINE
5
227
100
AcDbEntity
8
0
100
AcDbLine
10
-624.61707203313154
20
-1101.2222251402929
30
0
11
-624.61707203313154
21
-1099.7597274291113
31
0
0
ARC
5
228
100
AcDbEntity
8
0
100
AcDbCircle
10
-621.87923042699151
20
-1101.3275680052834
30
0
40
0.77931083738803864
210
0
220
0
230
1
100
AcDbArc
50
-97.768619823302743
51
7.7686186853208445
0
ARC
5
229
100
AcDbEntity
8
0
100
AcDbCircle
10
-623.84491412564569
20
-1101.3275680052832
30
0
40
0.77931083738803864
210
0
220
0
230
1
100
AcDbArc
50
172.23137084203424
51
277.76861618083916
0
LINE
5
230
100
AcDbEntity
8
0
100
AcDbLine
10
-619.35207157059961
20
-1103.7084731566506
30
0
11
-623.73957245274835
21
-1103.7084731566506
31
0
0
ARC
5
231
100
AcDbEntity
8
0
100
AcDbCircle
10
-623.84491412564569
20
-1104.4806251036719
30
0
40
0.77931083738803864
210
0
220
0
230
1
100
AcDbArc
50
82.231388828119748
51
187.76860320371588
0
LINE
5
232
100
AcDbEntity
8
0
100
AcDbLine
10
-626.37207238599115
20
-1105.7559833037451
30
0
11
-626.37207238599115
21
-1106.3409766661719
31
0
0
LINE
5
233
100
AcDbEntity
8
0
100
AcDbLine
10
-626.37207238599115
20
-1106.3409766661719
30
0
11
-621.10707132741265
21
-1108.0959758269385
31
0
0
LINE
5
234
100
AcDbEntity
8
0
100
AcDbLine
10
-621.10707132741265
20
-1105.7559833037453
30
0
11
-624.61707203313165
21
-1106.925979565342
31
0
0
ENDSEC
0
SECTION
2
OBJECTS
0
DICTIONARY
5
C
100
AcDbDictionary
3
ACAD_GROUP
350
D
3
ACAD_MLINESTYLE
350
17
0
DICTIONARY
5
D
100
AcDbDictionary
0
DICTIONARY
5
1A
330
C
100
AcDbDictionary
0
DICTIONARY
5
17
100
AcDbDictionary
0
ENDSEC
0
EOF
