0
SECTION
2
HEADER
9
$INSUNITS
70
4
9
$ACADVER
1
AC1014
9
$HANDSEED
5
FFFF
0
ENDSEC
0
SECTION
2
TABLES
0
TABLE
2
VPORT
5
8
100
AcDbSymbolTable
0
ENDTAB
0
TABLE
2
LTYPE
5
5
100
AcDbSymbolTable
0
LTYPE
5
14
100
AcDbSymbolTableRecord
100
AcDbLinetypeTableRecord
2
BYBLOCK
70
0
0
LTYPE
5
15
100
AcDbSymbolTableRecord
100
AcDbLinetypeTableRecord
2
BYLAYER
70
0
0
LTYPE
5
16
100
AcDbSymbolTableRecord
100
AcDbLinetypeTableRecord
2
DASHED
70
0
3
Dashed __ __ __ __ __ __ __ __ __ __ __ __ __ _
72
65
73
2
40
0.75
49
0.5
74
0
49
-0.25
74
0
0
ENDTAB
0
TABLE
2
LAYER
5
2
100
AcDbSymbolTable
70
3
0
LAYER
5
50
100
AcDbSymbolTableRecord
100
AcDbLayerTableRecord
2
1
70
0
62
7
6
DASHED
0
LAYER
5
51
100
AcDbSymbolTableRecord
100
AcDbLayerTableRecord
2
0
70
0
62
7
6
CONTINUOUS
0
ENDTAB
0
TABLE
2
STYLE
5
3
100
AcDbSymbolTable
70
1
0
STYLE
5
11
100
AcDbSymbolTableRecord
100
AcDbTextStyleTableRecord
2
STANDARD
70
0
0
ENDTAB
0
TABLE
2
VIEW
5
6
100
AcDbSymbolTable
70
0
0
ENDTAB
0
TABLE
2
UCS
5
7
100
AcDbSymbolTable
70
0
0
ENDTAB
0
TABLE
2
APPID
5
9
100
AcDbSymbolTable
70
2
0
APPID
5
12
100
AcDbSymbolTableRecord
100
AcDbRegAppTableRecord
2
ACAD
70
0
0
ENDTAB
0
TABLE
2
DIMSTYLE
5
A
100
AcDbSymbolTable
70
1
0
ENDTAB
0
TABLE
2
BLOCK_RECORD
5
1
100
AcDbSymbolTable
70
1
0
BLOCK_RECORD
5
1F
100
AcDbSymbolTableRecord
100
AcDbBlockTableRecord
2
*MODEL_SPACE
0
BLOCK_RECORD
5
1B
100
AcDbSymbolTableRecord
100
AcDbBlockTableRecord
2
*PAPER_SPACE
0
ENDTAB
0
ENDSEC
0
SECTION
2
BLOCKS
0
BLOCK
5
20
100
AcDbEntity
100
AcDbBlockBegin
2
*MODEL_SPACE
0
ENDBLK
5
21
100
AcDbEntity
100
AcDbBlockEnd
0
BLOCK
5
1C
100
AcDbEntity
100
AcDbBlockBegin
2
*PAPER_SPACE
0
ENDBLK
5
1D
100
AcDbEntity
100
AcDbBlockEnd
0
ENDSEC
0
SECTION
2
ENTITIES
0
CIRCLE
5
100
100
AcDbEntity
8
0
100
AcDbCircle
10
-1080.4240492621573
20
-908.35559923823234
30
0
40
1.4999999999999858
210
2.08215694073318e-32
220
-1.8058451403053591e-32
230
1
0
LWPOLYLINE
5
101
100
AcDbEntity
8
0
100
AcDbPolyline
90
8
70
1
43
0.0
10
-1087.1459801307531
20
-867.84318399077029
10
-1104.3176061999393
20
-874.95590439662669
42
0.3516555957585748
10
-1109.1346483649643
20
-883.73585609885242
10
-1058.6907960811259
20
-1169.8744960984664
10
-1051.0371274338238
20
-1188.3520867486918
10
-903.21640223201871
20
-1127.1227375702781
10
-910.87007087932011
20
-1108.645146920052
10
-1077.5314535634684
20
-870.64538419775408
42
0.35165559575852623
0
LINE
5
102
100
AcDbEntity
8
1
100
AcDbLine
10
-1047.7899508329469
20
-1180.5127089594337
30
0
11
-908.11545442219449
21
-1122.6576382284682
31
0
0
LINE
5
103
100
AcDbEntity
8
1
100
AcDbLine
10
-908.11545442219449
20
-1122.6576382284682
30
0
11
-923.70626689599476
21
-1085.0180873058043
31
0
0
LINE
5
104
100
AcDbEntity
8
1
100
AcDbLine
10
-923.70626689599476
20
-1085.0180873058043
30
0
11
-1063.3807633067472
21
-1142.8731580367698
31
0
0
LINE
5
105
100
AcDbEntity
8
1
100
AcDbLine
10
-1063.3807633067472
20
-1142.8731580367698
30
0
11
-1047.7899508329469
21
-1180.5127089594337
31
0
0
LINE
5
106
100
AcDbEntity
8
0
100
AcDbLine
10
-1048.0985957701353
20
-1177.4745558964178
30
0
11
-1046.7474219345638
21
-1176.9148813686004
31
0
0
LINE
5
107
100
AcDbEntity
8
0
100
AcDbLine
10
-1045.6280728219049
20
-1179.6172291774119
30
0
11
-1046.9792466574763
21
-1180.1769037052293
31
0
0
LINE
5
108
100
AcDbEntity
8
0
100
AcDbLine
10
-1046.9792466574763
20
-1180.1769037052293
30
0
11
-1048.9940748777847
21
-1175.3126780899086
31
0
0
LINE
5
109
100
AcDbEntity
8
0
100
AcDbLine
10
-1048.9940748777847
20
-1175.3126780899086
30
0
11
-1047.6429010422132
21
-1174.7530035620914
31
0
0
ARC
5
110
100
AcDbEntity
8
0
100
AcDbCircle
10
-1046.1877473782342
20
-1178.2660552730063
30
0
40
1.4625000953674316
210
0
220
-0
230
1
100
AcDbArc
50
-67.49999931675913
51
112.50000250447836
0
ARC
5
111
100
AcDbEntity
8
0
100
AcDbCircle
10
-1047.1951619445829
20
-1175.8339413639956
30
0
40
1.1700000613927841
210
0
220
-0
230
1
100
AcDbArc
50
-67.499999316745885
51
112.50000250447808
0
LINE
5
112
100
AcDbEntity
8
0
100
AcDbLine
10
-1044.627931498678
20
-1174.7705596955648
30
0
11
-1043.7244966919029
21
-1173.129947337331
31
0
0
LINE
5
113
100
AcDbEntity
8
0
100
AcDbLine
10
-1043.7244966919029
20
-1173.129947337331
30
0
11
-1041.7096684715946
21
-1177.9941729526515
31
0
0
LINE
5
114
100
AcDbEntity
8
0
100
AcDbLine
10
-1043.0608423760002
20
-1178.5538475089811
30
0
11
-1040.3584945671887
21
-1177.4344983963222
31
0
0
LINE
5
115
100
AcDbEntity
8
0
100
AcDbLine
10
-1039.1848256716505
20
-1175.6819488328831
30
0
11
-1038.1422969778005
21
-1172.0841219164222
31
0
0
ARC
5
116
100
AcDbEntity
8
0
100
AcDbCircle
10
-1036.8495573134728
20
-1172.9235462026022
30
0
40
3.5108703374862671
210
0
220
-0
230
1
100
AcDbArc
50
173.37151582165598
51
205.63924191376594
0
ARC
5
117
100
AcDbEntity
8
0
100
AcDbCircle
10
-1039.4312495250711
20
-1172.3419535373332
30
0
40
0.92271506786346424
210
0
220
-0
230
1
100
AcDbArc
50
105.05847725279764
51
191.01687241028418
0
ARC
5
118
100
AcDbEntity
8
0
100
AcDbCircle
10
-1039.2104332099561
20
-1172.2504884248194
30
0
40
0.92271506786346424
210
0
220
-0
230
1
100
AcDbArc
50
33.983124914718267
51
119.94152092596198
0
ARC
5
119
100
AcDbEntity
8
0
100
AcDbCircle
10
-1040.6247171622138
20
-1174.4872686120771
30
0
40
3.5108703374862671
210
0
220
-0
230
1
100
AcDbArc
50
19.360745792347362
51
51.628478942015661
0
ARC
5
120
100
AcDbEntity
8
0
100
AcDbCircle
10
-1036.7024045748487
20
-1173.2788043399287
30
0
40
3.5108703374862671
210
0
220
-0
230
1
100
AcDbArc
50
199.36075444376851
51
231.62848053587629
0
ARC
5
121
100
AcDbEntity
8
0
100
AcDbCircle
10
-1038.1166885271064
20
-1175.5155845271863
30
0
40
0.92271506786346424
210
0
220
-0
230
1
100
AcDbArc
50
213.9831239472652
51
299.94151910473011
0
ARC
5
122
100
AcDbEntity
8
0
100
AcDbCircle
10
-1040.4775644235897
20
-1174.8425267494033
30
0
40
3.5108703374862671
210
0
220
-0
230
1
100
AcDbArc
50
-6.6284791693889238
51
25.63924672320665
0
ARC
5
123
100
AcDbEntity
8
0
100
AcDbCircle
10
-1037.8958722119914
20
-1175.4241194146725
30
0
40
0.92271506786346424
210
0
220
-0
230
1
100
AcDbArc
50
-74.941517738241743
51
11.016877419237872
0
LINE
5
124
100
AcDbEntity
8
0
100
AcDbLine
10
-1034.6835639484143
20
-1175.0838651684994
30
0
11
-1034.9537989495657
21
-1175.1958001710043
31
0
0
LINE
5
125
100
AcDbEntity
8
0
100
AcDbLine
10
-1034.9537989495657
20
-1175.1958001710043
30
0
11
-1035.0657344082645
21
-1174.9255640685028
31
0
0
LINE
5
126
100
AcDbEntity
8
0
100
AcDbLine
10
-1035.0657344082645
20
-1174.9255640685028
30
0
11
-1034.7954994071133
21
-1174.8136290659982
31
0
0
LINE
5
127
100
AcDbEntity
8
0
100
AcDbLine
10
-1034.7954994071133
20
-1174.8136290659982
30
0
11
-1034.6835639484143
21
-1175.0838651684994
31
0
0
LINE
5
128
100
AcDbEntity
8
0
100
AcDbLine
10
-1034.6835639484143
20
-1175.0838651684994
30
0
11
-1034.6411758894471
21
-1176.3327074487643
31
0
0
LINE
5
129
100
AcDbEntity
8
0
100
AcDbLine
10
-1033.0502235079073
20
-1168.7085186160446
30
0
11
-1031.0353952875989
21
-1173.5727442313653
31
0
0
LINE
5
130
100
AcDbEntity
8
0
100
AcDbLine
10
-1031.0353952875989
20
-1173.5727442313653
30
0
11
-1029.6842213831931
21
-1173.0130696750357
31
0
0
LINE
5
131
100
AcDbEntity
8
0
100
AcDbLine
10
-1029.2093209310594
20
-1171.8665607654182
30
0
11
-1029.8809309460878
21
-1170.245150758511
31
0
0
LINE
5
132
100
AcDbEntity
8
0
100
AcDbLine
10
-1031.0274405008615
20
-1169.7702518639219
30
0
11
-1032.3786144052674
21
-1170.3299264202515
31
0
0
ARC
5
133
100
AcDbEntity
8
0
100
AcDbCircle
10
-1029.8823899498532
20
-1172.2593773768376
30
0
40
0.77931083738803864
210
0
220
-0
230
1
100
AcDbArc
50
-75.26862915795968
51
30.268616180835469
0
ARC
5
134
100
AcDbEntity
8
0
100
AcDbCircle
10
-1030.6346249907924
20
-1170.4433213389095
30
0
40
0.77931083738803864
210
0
220
-0
230
1
100
AcDbArc
50
14.731380176695907
51
120.26861868532609
0
LINE
5
135
100
AcDbEntity
8
0
100
AcDbLine
10
-1025.3604646688245
20
-1171.2221110035425
30
0
11
-1026.7116385732304
21
-1171.7817855598721
31
0
0
LINE
5
136
100
AcDbEntity
8
0
100
AcDbLine
10
-1027.8581492293542
20
-1171.3068871214771
30
0
11
-1028.4178237856836
21
-1169.9557132170712
31
0
0
LINE
5
137
100
AcDbEntity
8
0
100
AcDbLine
10
-1026.2559437764739
20
-1169.0602331970335
30
0
11
-1026.0320737714646
21
-1169.6007031993358
31
0
0
LINE
5
138
100
AcDbEntity
8
0
100
AcDbLine
10
-1026.0320737714646
20
-1169.6007031993358
30
0
11
-1028.1939537806743
21
-1170.496183219374
31
0
0
ARC
5
139
100
AcDbEntity
8
0
100
AcDbCircle
10
-1027.1044542722614
20
-1171.1087187437788
30
0
40
0.77931083738803864
210
0
220
-0
230
1
100
AcDbArc
50
194.73138882812142
51
300.26860320370037
0
ARC
5
140
100
AcDbEntity
8
0
100
AcDbCircle
10
-1027.3368837810788
20
-1169.5079732070526
30
0
40
1.1700000613927841
210
0
220
-0
230
1
100
AcDbArc
50
22.500000000011074
51
202.50000500894501
0
LINE
5
141
100
AcDbEntity
8
0
100
AcDbLine
10
-1022.6309575192487
20
-1167.8753134328556
30
0
11
-1023.8470155751041
21
-1168.3790211722239
31
0
0
LINE
5
142
100
AcDbEntity
8
0
100
AcDbLine
10
-1023.0634710137651
20
-1170.2706650789321
30
0
11
-1021.8474129579097
21
-1169.7669573395635
31
0
0
LINE
5
143
100
AcDbEntity
8
0
100
AcDbLine
10
-1021.8474129579097
20
-1169.7669573395635
30
0
11
-1022.8548275242581
21
-1167.3348434305531
31
0
0
LINE
5
144
100
AcDbEntity
8
0
100
AcDbLine
10
-1024.0013359776815
20
-1166.8599440797698
30
0
11
-1025.0822759822863
21
-1167.3076840897888
31
0
0
ARC
5
145
100
AcDbEntity
8
0
100
AcDbCircle
10
-1023.4552432944347
20
-1169.3248431255781
30
0
40
1.0237500816583633
210
0
220
-0
230
1
100
AcDbArc
50
112.50000250447425
51
292.50000068325409
0
ARC
5
146
100
AcDbEntity
8
0
100
AcDbCircle
10
-1023.6085215689626
20
-1167.5330140109518
30
0
40
0.77931083738803864
210
0
220
-0
230
1
100
AcDbArc
50
14.73138017671422
51
120.26861868531043
0
LINE
5
147
100
AcDbEntity
8
0
100
AcDbLine
10
-1020.2260051537029
20
-1169.0953482369237
30
0
11
-1021.5692242713714
21
-1165.8525304258096
31
0
0
LINE
5
148
100
AcDbEntity
8
0
100
AcDbLine
10
-1021.5692242713714
20
-1165.8525304258096
30
0
11
-1019.9478142644641
21
-1165.1809204107813
31
0
0
LINE
5
149
100
AcDbEntity
8
0
100
AcDbLine
10
-1019.9478142644641
20
-1165.1809204107813
30
0
11
-1019.7239442594547
21
-1165.7213904130838
31
0
0
LINE
5
150
100
AcDbEntity
8
0
100
AcDbLine
10
-1017.3885392936406
20
-1167.9200313949152
30
0
11
-1018.7317584113091
21
-1164.6772135838014
31
0
0
LINE
5
151
100
AcDbEntity
8
0
100
AcDbLine
10
-1019.4265510188893
20
-1163.382007408745
30
0
11
-1019.5384855651998
21
-1163.111773508944
31
0
0
LINE
5
152
100
AcDbEntity
8
0
100
AcDbLine
10
-1019.5384855651997
20
-1163.111773508944
30
0
11
-1019.2682494626983
21
-1162.9998380502452
31
0
0
LINE
5
153
100
AcDbEntity
8
0
100
AcDbLine
10
-1019.2682494626983
20
-1162.9998380502452
30
0
11
-1019.1563149163878
21
-1163.270071950046
31
0
0
LINE
5
154
100
AcDbEntity
8
0
100
AcDbLine
10
-1019.1563149163878
20
-1163.270071950046
30
0
11
-1019.4265510188892
21
-1163.3820074087448
31
0
0
LINE
5
155
100
AcDbEntity
8
0
100
AcDbLine
10
-1015.7671314894338
20
-1167.2484222922751
30
0
11
-1017.1103506071023
21
-1164.0056044811613
31
0
0
LINE
5
156
100
AcDbEntity
8
0
100
AcDbLine
10
-1017.1103506071023
20
-1164.0056044811613
30
0
11
-1015.7591767026964
21
-1163.4459299248317
31
0
0
LINE
5
157
100
AcDbEntity
8
0
100
AcDbLine
10
-1014.6126682492732
20
-1163.9208292756152
30
0
11
-1013.6052536829249
21
-1166.3529431846257
31
0
0
ARC
5
158
100
AcDbEntity
8
0
100
AcDbCircle
10
-1015.3663600912772
20
-1164.1189989436252
30
0
40
0.77931083738803864
210
0
220
-0
230
1
100
AcDbArc
50
14.731380176698032
51
120.26861868531886
0
LINE
5
159
100
AcDbEntity
8
0
100
AcDbLine
10
-1009.9570817180586
20
-1164.8418208789089
30
0
11
-1011.3082556224645
21
-1165.4014954352383
31
0
0
LINE
5
160
100
AcDbEntity
8
0
100
AcDbLine
10
-1012.4547662785882
20
-1164.9265969968433
30
0
11
-1013.1263762936167
21
-1163.3051869899361
31
0
0
LINE
5
161
100
AcDbEntity
8
0
100
AcDbLine
10
-1012.6514747401329
20
-1162.1586776241245
30
0
11
-1011.3003008357271
21
-1161.5990030677949
31
0
0
LINE
5
162
100
AcDbEntity
8
0
100
AcDbLine
10
-1011.3003008357271
20
-1161.5990030677949
30
0
11
-1009.6212771667387
21
-1165.6525247810123
31
0
0
LINE
5
163
100
AcDbEntity
8
0
100
AcDbLine
10
-1010.0961765175219
20
-1166.7990332344357
30
0
11
-1011.1771165221268
21
-1167.2467732444547
31
0
0
ARC
5
164
100
AcDbEntity
8
0
100
AcDbCircle
10
-1011.7010713214954
20
-1164.7284286191452
30
0
40
0.77931083738803864
210
0
220
-0
230
1
100
AcDbArc
50
194.73138882812353
51
300.26860320370037
0
ARC
5
165
100
AcDbEntity
8
0
100
AcDbCircle
10
-1012.4533063624347
20
-1162.9123725812174
30
0
40
0.77931083738803864
210
0
220
-0
230
1
100
AcDbArc
50
104.73138632363768
51
210.2686211897896
0
ARC
5
166
100
AcDbEntity
8
0
100
AcDbCircle
10
-1010.2943483882326
20
-1166.04534230482
30
0
40
0.77931083738803864
210
0
220
-0
230
1
100
AcDbArc
50
-75.268629157971986
51
30.268616180829454
0
LINE
5
167
100
AcDbEntity
8
0
100
AcDbLine
10
-1004.4172680491849
20
-1162.5471549242416
30
0
11
-1005.4982080537898
21
-1162.9948949342606
31
0
0
LINE
5
168
100
AcDbEntity
8
0
100
AcDbLine
10
-1006.6447165072129
20
-1162.5199955834771
30
0
11
-1007.3163265222413
21
-1160.8985855765698
31
0
0
LINE
5
169
100
AcDbEntity
8
0
100
AcDbLine
10
-1006.841427171458
20
-1159.7520771231466
30
0
11
-1005.7604871668532
21
-1159.3043371131275
31
0
0
ARC
5
170
100
AcDbEntity
8
0
100
AcDbCircle
10
-1005.8910193474196
20
-1162.3218262933906
30
0
40
0.77931083738803864
210
0
220
-0
230
1
100
AcDbArc
50
194.73138882810738
51
300.26860320370884
0
ARC
5
171
100
AcDbEntity
8
0
100
AcDbCircle
10
-1006.6432543883589
20
-1160.5057702554627
30
0
40
0.77931083738803864
210
0
220
-0
230
1
100
AcDbArc
50
104.73138632363768
51
210.2686211897896
0
LINE
5
172
100
AcDbEntity
8
0
100
AcDbLine
10
-1001.0393299841196
20
-1161.1479671648353
30
0
11
-1002.3905060912259
21
-1161.7076426335532
31
0
0
LINE
5
173
100
AcDbEntity
8
0
100
AcDbLine
10
-1003.5370145446493
20
-1161.2327432827697
30
0
11
-1004.0966891009788
21
-1159.881569378364
31
0
0
LINE
5
174
100
AcDbEntity
8
0
100
AcDbLine
10
-1001.9348090917691
20
-1158.9860893583261
30
0
11
-1001.7109390867597
21
-1159.5265593606287
31
0
0
LINE
5
175
100
AcDbEntity
8
0
100
AcDbLine
10
-1001.7109390867597
20
-1159.5265593606287
30
0
11
-1003.8728190959694
21
-1160.4220393806665
31
0
0
ARC
5
176
100
AcDbEntity
8
0
100
AcDbCircle
10
-1002.7833173848559
20
-1161.0345739926831
30
0
40
0.77931083738803864
210
0
220
-0
230
1
100
AcDbArc
50
194.73138882812353
51
300.26860320370162
0
ARC
5
177
100
AcDbEntity
8
0
100
AcDbCircle
10
-1003.015749096374
20
-1159.433829368345
30
0
40
1.1700000613927841
210
0
220
-0
230
1
100
AcDbArc
50
22.499999999998643
51
202.5000050089472
0
LINE
5
178
100
AcDbEntity
8
0
100
AcDbLine
10
-999.55304023116366
20
-1160.5323257915447
30
0
11
-1000.8962593488321
21
-1157.2895079804307
31
0
0
LINE
5
179
100
AcDbEntity
8
0
100
AcDbLine
10
-1000.8962593488321
20
-1157.2895079804307
30
0
11
-999.54508324172593
21
-1156.7298325117129
31
0
0
LINE
5
180
100
AcDbEntity
8
0
100
AcDbLine
10
-998.39857478830254
20
-1157.2047318624961
30
0
11
-997.39116022195412
21
-1159.6368457715066
31
0
0
ARC
5
181
100
AcDbEntity
8
0
100
AcDbCircle
10
-999.15227103570737
20
-1157.4029033552833
30
0
40
0.77931083738803864
210
0
220
-0
230
1
100
AcDbArc
50
14.731380176716318
51
120.26861868531765
0
LINE
5
182
100
AcDbEntity
8
0
100
AcDbLine
10
-997.51832128376691
20
-1155.8903202210245
30
0
11
-995.89691347956023
21
-1155.2187111183844
31
0
0
LINE
5
183
100
AcDbEntity
8
0
100
AcDbLine
10
-997.64946258680516
20
-1154.0450433241967
30
0
11
-995.97043891781664
21
-1158.0985650374141
31
0
0
LINE
5
184
100
AcDbEntity
8
0
100
AcDbLine
10
-994.82393046439324
20
-1158.5734643881974
30
0
11
-994.55369436189187
21
-1158.4615289294984
31
0
0
ARC
5
185
100
AcDbEntity
8
0
100
AcDbCircle
10
-995.2167461634242
20
-1157.9003975721041
30
0
40
0.77931083738803864
210
0
220
-0
230
1
100
AcDbArc
50
194.73138882812142
51
300.26860320370162
0
LINE
5
186
100
AcDbEntity
8
0
100
AcDbLine
10
-991.17576070222754
20
-1157.0623429948689
30
0
11
-992.52693680933373
21
-1157.6220184635868
31
0
0
LINE
5
187
100
AcDbEntity
8
0
100
AcDbLine
10
-993.67344526275713
20
-1157.1471191128032
30
0
11
-994.23311981908671
21
-1155.7959452083974
31
0
0
LINE
5
188
100
AcDbEntity
8
0
100
AcDbLine
10
-992.07123980987706
20
-1154.9004651883597
30
0
11
-991.84736980486764
21
-1155.440935190662
31
0
0
LINE
5
189
100
AcDbEntity
8
0
100
AcDbLine
10
-991.84736980486764
20
-1155.440935190662
30
0
11
-994.00924981407729
21
-1156.3364152107001
31
0
0
ARC
5
190
100
AcDbEntity
8
0
100
AcDbCircle
10
-992.91974810296381
20
-1156.9489498227167
30
0
40
0.77931083738803864
210
0
220
-0
230
1
100
AcDbArc
50
194.73138882812353
51
300.2686032036932
0
ARC
5
191
100
AcDbEntity
8
0
100
AcDbCircle
10
-993.15217981448188
20
-1155.3482051983788
30
0
40
1.1700000613927841
210
0
220
-0
230
1
100
AcDbArc
50
22.500000000008949
51
202.5000050089472
0
LINE
5
192
100
AcDbEntity
8
0
100
AcDbLine
10
-989.68947094927159
20
-1156.4467016215783
30
0
11
-991.03269006694006
21
-1153.2038838104645
31
0
0
LINE
5
193
100
AcDbEntity
8
0
100
AcDbLine
10
-991.03269006693995
20
-1153.2038838104645
30
0
11
-989.41128226273327
21
-1152.5322747078244
31
0
0
LINE
5
194
100
AcDbEntity
8
0
100
AcDbLine
10
-989.41128226273327
20
-1152.5322747078244
30
0
11
-989.18741225772374
21
-1153.0727447101267
31
0
0
LINE
5
195
100
AcDbEntity
8
0
100
AcDbLine
10
-986.43869394601938
20
-1151.3009883116897
30
0
11
-984.8172861418127
21
-1150.6293792090496
31
0
0
LINE
5
196
100
AcDbEntity
8
0
100
AcDbLine
10
-986.56983524905741
20
-1149.4557114148618
30
0
11
-984.890811580069
21
-1153.5092331280791
31
0
0
LINE
5
197
100
AcDbEntity
8
0
100
AcDbLine
10
-983.7443031266456
20
-1153.9841324788626
30
0
11
-983.47406702414423
21
-1153.8721970201636
31
0
0
ARC
5
198
100
AcDbEntity
8
0
100
AcDbCircle
10
-984.13711882567657
20
-1153.3110656627694
30
0
40
0.77931083738803864
210
0
220
-0
230
1
100
AcDbArc
50
194.73138882812353
51
300.26860320370037
0
LINE
5
199
100
AcDbEntity
8
0
100
AcDbLine
10
-980.09613336448001
20
-1152.4730110855342
30
0
11
-981.44730947158621
21
-1153.032686554252
31
0
0
LINE
5
200
100
AcDbEntity
8
0
100
AcDbLine
10
-982.5938179250096
20
-1152.5577872034687
30
0
11
-983.15349248133907
21
-1151.2066132990628
31
0
0
LINE
5
201
100
AcDbEntity
8
0
100
AcDbLine
10
-980.99161247212942
20
-1150.3111332790249
30
0
11
-980.76774246712012
21
-1150.8516032813275
31
0
0
LINE
5
202
100
AcDbEntity
8
0
100
AcDbLine
10
-980.76774246711989
20
-1150.8516032813275
30
0
11
-982.92962247632954
21
-1151.7470833013654
31
0
0
ARC
5
203
100
AcDbEntity
8
0
100
AcDbCircle
10
-981.84012076521628
20
-1152.359617913382
30
0
40
0.77931083738803864
210
0
220
-0
230
1
100
AcDbArc
50
194.73138882812353
51
300.26860320370884
0
ARC
5
204
100
AcDbEntity
8
0
100
AcDbCircle
10
-982.07255247673424
20
-1150.7588732890438
30
0
40
1.1700000613927841
210
0
220
-0
230
1
100
AcDbArc
50
22.499999999998643
51
202.50000500895746
0
LINE
5
205
100
AcDbEntity
8
0
100
AcDbLine
10
-978.60984361152396
20
-1151.8573697122436
30
0
11
-979.95306272919242
21
-1148.6145519011297
31
0
0
LINE
5
206
100
AcDbEntity
8
0
100
AcDbLine
10
-979.95306272919242
20
-1148.6145519011297
30
0
11
-977.52095102288217
21
-1147.6071382471696
31
0
0
LINE
5
207
100
AcDbEntity
8
0
100
AcDbLine
10
-976.37444256945878
20
-1148.0820375979531
30
0
11
-975.36702800311048
21
-1150.5141515069636
31
0
0
LINE
5
208
100
AcDbEntity
8
0
100
AcDbLine
10
-976.98843580731716
20
-1151.1857606096034
30
0
11
-978.33165492498563
21
-1147.9429427984896
31
0
0
ARC
5
209
100
AcDbEntity
8
0
100
AcDbCircle
10
-977.12813441146284
20
-1148.2802072659633
30
0
40
0.77931083738803864
210
0
220
-0
230
1
100
AcDbArc
50
14.73138017671422
51
120.26861868531043
0
LINE
5
210
100
AcDbEntity
8
0
100
AcDbLine
10
-973.0740022854618
20
-1151.4639465589767
30
0
11
-975.08883050577026
21
-1146.5997209436559
31
0
0
LINE
5
211
100
AcDbEntity
8
0
100
AcDbLine
10
-975.08883050577026
20
-1146.5997209436559
30
0
11
-973.73765880406495
21
-1146.0400472997148
31
0
0
LINE
5
212
100
AcDbEntity
8
0
100
AcDbLine
10
-972.59115475604244
20
-1146.5149484752751
30
0
11
-971.91954474101408
21
-1148.1363584821822
31
0
0
LINE
5
213
100
AcDbEntity
8
0
100
AcDbLine
10
-972.39443968639648
20
-1149.2828651108289
30
0
11
-973.74561138810179
21
-1149.84253875477
31
0
0
ARC
5
214
100
AcDbEntity
8
0
100
AcDbCircle
10
-973.34484219264573
20
-1146.7131163185086
30
0
40
0.77931083738803864
210
0
220
-0
230
1
100
AcDbArc
50
14.73138017671209
51
120.26861868531043
0
ARC
5
215
100
AcDbEntity
8
0
100
AcDbCircle
10
-972.59260715170626
20
-1148.5291723564364
30
0
40
0.77931083738803864
210
0
220
-0
230
1
100
AcDbArc
50
-75.268629157971986
51
30.268616180829454
0
LINE
5
216
100
AcDbEntity
8
0
100
AcDbLine
10
-972.11227425164554
20
-1143.4671935708977
30
0
11
-970.43325058265714
21
-1147.5207152841151
31
0
0
ARC
5
217
100
AcDbEntity
8
0
100
AcDbCircle
10
-969.67956223366559
20
-1147.3225496435819
30
0
40
0.77931083738803864
210
0
220
-0
230
1
100
AcDbArc
50
194.73138882812353
51
300.26860320370884
0
LINE
5
218
100
AcDbEntity
8
0
100
AcDbLine
10
-966.69235303090841
20
-1144.7047847935605
30
0
11
-967.90841108676386
21
-1145.2084925329291
31
0
0
LINE
5
219
100
AcDbEntity
8
0
100
AcDbLine
10
-967.12486652542509
20
-1147.1001364396373
30
0
11
-965.90880846956964
21
-1146.5964287002687
31
0
0
LINE
5
220
100
AcDbEntity
8
0
100
AcDbLine
10
-965.90880846956952
20
-1146.5964287002689
30
0
11
-966.91622303591782
21
-1144.1643147912582
31
0
0
LINE
5
221
100
AcDbEntity
8
0
100
AcDbLine
10
-968.06273589474233
20
-1143.6894172652517
30
0
11
-969.14367149394616
21
-1144.1371554504938
31
0
0
ARC
5
222
100
AcDbEntity
8
0
100
AcDbCircle
10
-967.51663880609453
20
-1146.1543144862831
30
0
40
1.0237500816583633
210
0
220
-0
230
1
100
AcDbArc
50
112.500002504485
51
292.50000068324823
0
ARC
5
223
100
AcDbEntity
8
0
100
AcDbCircle
10
-967.66991928332288
20
-1144.3624862840452
30
0
40
0.77931083738803864
210
0
220
-0
230
1
100
AcDbArc
50
14.731380176698032
51
120.26861868532609
0
LINE
5
224
100
AcDbEntity
8
0
100
AcDbLine
10
-966.03597834218419
20
-1142.84990679934
30
0
11
-964.41457053797751
21
-1142.1782976967002
31
0
0
LINE
5
225
100
AcDbEntity
8
0
100
AcDbLine
10
-966.16711523982144
20
-1141.0046280777353
30
0
11
-964.48809157083303
21
-1145.0581497909527
31
0
0
LINE
5
226
100
AcDbEntity
8
0
100
AcDbLine
10
-963.34157871200875
20
-1145.5330473169593
30
0
11
-963.07135142030916
21
-1145.421115507814
31
0
0
ARC
5
227
100
AcDbEntity
8
0
100
AcDbCircle
10
-963.73439441103972
20
-1144.8599805008662
30
0
40
0.77931083738803864
210
0
220
-0
230
1
100
AcDbArc
50
194.73138882812353
51
300.26860320370884
0
LINE
5
228
100
AcDbEntity
8
0
100
AcDbLine
10
-959.69341335524393
20
-1144.0219277484077
30
0
11
-961.04458505694924
21
-1144.5816013923488
31
0
0
LINE
5
229
100
AcDbEntity
8
0
100
AcDbLine
10
-962.19109791577353
20
-1144.1067038663423
30
0
11
-962.75077247210311
21
-1142.7555299619364
31
0
0
LINE
5
230
100
AcDbEntity
8
0
100
AcDbLine
10
-960.58889246289345
20
-1141.8600499418985
30
0
11
-960.36502245788392
21
-1142.4005199442011
31
0
0
LINE
5
231
100
AcDbEntity
8
0
100
AcDbLine
10
-960.36502245788392
20
-1142.4005199442011
30
0
11
-962.52690246709358
21
-1143.2959999642389
31
0
0
ARC
5
232
100
AcDbEntity
8
0
100
AcDbCircle
10
-961.43740075598021
20
-1143.9085345762558
30
0
40
0.77931083738803864
210
0
220
-0
230
1
100
AcDbArc
50
194.73138882812353
51
300.26860320370884
0
ARC
5
233
100
AcDbEntity
8
0
100
AcDbCircle
10
-961.66982806209728
20
-1142.3077881271406
30
0
40
1.1700000613927841
210
0
220
-0
230
1
100
AcDbArc
50
22.499999999998643
51
202.5000050089472
0
LINE
5
234
100
AcDbEntity
8
0
100
AcDbLine
10
-958.07200555103714
20
-1143.3503186457676
30
0
11
-958.34224165353862
21
-1143.4622541044664
31
0
0
LINE
5
235
100
AcDbEntity
8
0
100
AcDbLine
10
-958.34224165353862
20
-1143.4622541044666
30
0
11
-958.4541771122374
21
-1143.1920180019652
31
0
0
LINE
5
236
100
AcDbEntity
8
0
100
AcDbLine
10
-958.45417711223763
20
-1143.1920180019652
30
0
11
-958.18394100973615
21
-1143.0800825432664
31
0
0
LINE
5
237
100
AcDbEntity
8
0
100
AcDbLine
10
-958.18394100973615
20
-1143.0800825432661
30
0
11
-958.07200555103736
21
-1143.3503186457676
31
0
0
LINE
5
238
100
AcDbEntity
8
0
100
AcDbLine
10
-958.07200555103714
20
-1143.3503186457676
30
0
11
-958.02961528936953
21
-1144.599160013644
31
0
0
LINE
5
239
100
AcDbEntity
8
0
100
AcDbLine
10
-956.12604296280006
20
-1138.1118771683723
30
0
11
-955.22261035872532
21
-1136.4712657225271
31
0
0
LINE
5
240
100
AcDbEntity
8
0
100
AcDbLine
10
-955.22261035872543
20
-1136.4712657225268
30
0
11
-953.20778213841709
21
-1141.3354913378475
31
0
0
LINE
5
241
100
AcDbEntity
8
0
100
AcDbLine
10
-954.55895384012229
20
-1141.8951649817886
30
0
11
-951.85660162590978
21
-1140.775814044353
31
0
0
LINE
5
242
100
AcDbEntity
8
0
100
AcDbLine
10
-948.47866356084467
20
-1139.3766262849467
30
0
11
-947.66001148010537
21
-1135.2383321033485
31
0
0
LINE
5
243
100
AcDbEntity
8
0
100
AcDbLine
10
-949.82188267851313
20
-1136.1338084738327
30
0
11
-946.3167923624369
21
-1138.4811499144623
31
0
0
LINE
5
244
100
AcDbEntity
8
0
100
AcDbLine
10
-944.05820341003073
20
-1134.3796143462446
30
0
11
-942.43679560582405
21
-1133.7080052436045
31
0
0
LINE
5
245
100
AcDbEntity
8
0
100
AcDbLine
10
-940.90811118579938
20
-1134.3412034134135
30
0
11
-940.79617663948875
21
-1134.6114373132145
31
0
0
LINE
5
246
100
AcDbEntity
8
0
100
AcDbLine
10
-943.49852885370126
20
-1135.7307882506502
30
0
11
-944.05820341003073
21
-1134.3796143462444
31
0
0
ARC
5
247
100
AcDbEntity
8
0
100
AcDbCircle
10
-941.91304073219044
20
-1134.605429133529
30
0
40
1.0390811413526533
210
0
220
-0
230
1
100
AcDbArc
50
14.731380176690253
51
120.2686186853108
0
ARC
5
248
100
AcDbEntity
8
0
100
AcDbCircle
10
-942.14735715199595
20
-1135.1711146067091
30
0
40
1.4625000953674316
210
0
220
-0
230
1
100
AcDbArc
50
-157.4999949910422
51
22.499999999994071
0
ARC
5
249
100
AcDbEntity
8
0
100
AcDbCircle
10
-942.26335471779339
20
-1133.332106801678
30
0
40
2.078162282705307
210
0
220
-0
230
1
100
AcDbArc
50
104.73138632363728
51
210.26862118979102
0
LINE
5
250
100
AcDbEntity
8
0
100
AcDbLine
10
-936.5883279155928
20
-1134.4514879995152
30
0
11
-937.93154703326127
21
-1131.2086701884011
31
0
0
LINE
5
251
100
AcDbEntity
8
0
100
AcDbLine
10
-937.93154703326127
20
-1131.2086701884011
30
0
11
-935.49943973235202
21
-1130.2012583592179
31
0
0
LINE
5
252
100
AcDbEntity
8
0
100
AcDbLine
10
-934.35292687352774
20
-1130.6761558852245
30
0
11
-933.34551230717932
21
-1133.108269794235
31
0
0
LINE
5
253
100
AcDbEntity
8
0
100
AcDbLine
10
-934.96692011138612
20
-1133.7798788968751
30
0
11
-936.31013922905458
21
-1130.537061085761
31
0
0
ARC
5
254
100
AcDbEntity
8
0
100
AcDbCircle
10
-935.10662312093257
20
-1130.8743273780115
30
0
40
0.77931083738803864
210
0
220
-0
230
1
100
AcDbArc
50
14.731380176698032
51
120.26861868532609
0
LINE
5
255
100
AcDbEntity
8
0
100
AcDbLine
10
-931.72410450297252
20
-1132.4366606915951
30
0
11
-933.06732362064099
21
-1129.193842880481
31
0
0
LINE
5
256
100
AcDbEntity
8
0
100
AcDbLine
10
-933.06732362064099
20
-1129.193842880481
30
0
11
-930.63521631973174
21
-1128.1864310512979
31
0
0
LINE
5
257
100
AcDbEntity
8
0
100
AcDbLine
10
-929.48870346090746
20
-1128.6613285773044
30
0
11
-928.48128889455904
21
-1131.0934424863151
31
0
0
LINE
5
258
100
AcDbEntity
8
0
100
AcDbLine
10
-930.10269669876584
20
-1131.765051588955
30
0
11
-931.44591581643431
21
-1128.5222337778412
31
0
0
ARC
5
259
100
AcDbEntity
8
0
100
AcDbCircle
10
-930.2423997083124
20
-1128.8595000700916
30
0
40
0.77931083738803864
210
0
220
-0
230
1
100
AcDbArc
50
14.731380176716318
51
120.26861868531765
0
LINE
5
260
100
AcDbEntity
8
0
100
AcDbLine
10
-924.0263919785026
20
-1131.1477611678438
30
0
11
-926.04122019881106
21
-1126.2835355525231
31
0
0
LINE
5
261
100
AcDbEntity
8
0
100
AcDbLine
10
-926.04122019881117
20
-1126.2835355525231
30
0
11
-924.69004849710586
21
-1125.7238619085822
31
0
0
LINE
5
262
100
AcDbEntity
8
0
100
AcDbLine
10
-923.54354444908324
20
-1126.1987630841422
30
0
11
-922.87193443405488
21
-1127.8201730910496
31
0
0
LINE
5
263
100
AcDbEntity
8
0
100
AcDbLine
10
-923.34682937943739
20
-1128.966679719696
30
0
11
-924.69800108114271
21
-1129.5263533636371
31
0
0
ARC
5
264
100
AcDbEntity
8
0
100
AcDbCircle
10
-924.29723188568641
20
-1126.3969309273757
30
0
40
0.77931083738803864
210
0
220
-0
230
1
100
AcDbArc
50
14.731380176698032
51
120.26861868532609
0
ARC
5
265
100
AcDbEntity
8
0
100
AcDbCircle
10
-923.54499684474717
20
-1128.2129869653036
30
0
40
0.77931083738803864
210
0
220
-0
230
1
100
AcDbArc
50
-75.268629157971986
51
30.268616180829454
0
LINE
5
266
100
AcDbEntity
8
0
100
AcDbLine
10
-923.06466394468646
20
-1123.1510081797649
30
0
11
-921.38564027569805
21
-1127.2045298929822
31
0
0
ARC
5
267
100
AcDbEntity
8
0
100
AcDbCircle
10
-920.63195192670651
20
-1127.0063642524492
30
0
40
0.77931083738803864
210
0
220
-0
230
1
100
AcDbArc
50
194.73138882810738
51
300.26860320370884
0
LINE
5
268
100
AcDbEntity
8
0
100
AcDbLine
10
-918.48658271502973
20
-1128.8530970379534
30
0
11
-917.94611932082876
21
-1128.6292297701089
31
0
0
LINE
5
269
100
AcDbEntity
8
0
100
AcDbLine
10
-917.94611932082876
20
-1128.6292297701091
30
0
11
-918.33953092612865
21
-1123.0933914025948
31
0
0
LINE
5
270
100
AcDbEntity
8
0
100
AcDbLine
10
-920.5014109353383
20
-1123.9888714226327
30
0
11
-918.07725621846589
21
-1126.7839510485044
31
0
0
ENDSEC
0
SECTION
2
OBJECTS
0
DICTIONARY
5
C
100
AcDbDictionary
3
ACAD_GROUP
350
D
3
ACAD_MLINESTYLE
350
17
0
DICTIONARY
5
D
100
AcDbDictionary
0
DICTIONARY
5
1A
330
C
100
AcDbDictionary
0
DICTIONARY
5
17
100
AcDbDictionary
0
ENDSEC
0
EOF
