0
SECTION
2
HEADER
9
$INSUNITS
70
4
9
$ACADVER
1
AC1014
9
$HANDSEED
5
FFFF
0
ENDSEC
0
SECTION
2
TABLES
0
TABLE
2
VPORT
5
8
100
AcDbSymbolTable
0
ENDTAB
0
TABLE
2
LTYPE
5
5
100
AcDbSymbolTable
0
LTYPE
5
14
100
AcDbSymbolTableRecord
100
AcDbLinetypeTableRecord
2
BYBLOCK
70
0
0
LTYPE
5
15
100
AcDbSymbolTableRecord
100
AcDbLinetypeTableRecord
2
BYLAYER
70
0
0
LTYPE
5
16
100
AcDbSymbolTableRecord
100
AcDbLinetypeTableRecord
2
DASHED
70
0
3
Dashed __ __ __ __ __ __ __ __ __ __ __ __ __ _
72
65
73
2
40
0.75
49
0.5
74
0
49
-0.25
74
0
0
ENDTAB
0
TABLE
2
LAYER
5
2
100
AcDbSymbolTable
70
3
0
LAYER
5
50
100
AcDbSymbolTableRecord
100
AcDbLayerTableRecord
2
1
70
0
62
7
6
DASHED
0
LAYER
5
51
100
AcDbSymbolTableRecord
100
AcDbLayerTableRecord
2
0
70
0
62
7
6
CONTINUOUS
0
ENDTAB
0
TABLE
2
STYLE
5
3
100
AcDbSymbolTable
70
1
0
STYLE
5
11
100
AcDbSymbolTableRecord
100
AcDbTextStyleTableRecord
2
STANDARD
70
0
0
ENDTAB
0
TABLE
2
VIEW
5
6
100
AcDbSymbolTable
70
0
0
ENDTAB
0
TABLE
2
UCS
5
7
100
AcDbSymbolTable
70
0
0
ENDTAB
0
TABLE
2
APPID
5
9
100
AcDbSymbolTable
70
2
0
APPID
5
12
100
AcDbSymbolTableRecord
100
AcDbRegAppTableRecord
2
ACAD
70
0
0
ENDTAB
0
TABLE
2
DIMSTYLE
5
A
100
AcDbSymbolTable
70
1
0
ENDTAB
0
TABLE
2
BLOCK_RECORD
5
1
100
AcDbSymbolTable
70
1
0
BLOCK_RECORD
5
1F
100
AcDbSymbolTableRecord
100
AcDbBlockTableRecord
2
*MODEL_SPACE
0
BLOCK_RECORD
5
1B
100
AcDbSymbolTableRecord
100
AcDbBlockTableRecord
2
*PAPER_SPACE
0
ENDTAB
0
ENDSEC
0
SECTION
2
BLOCKS
0
BLOCK
5
20
100
AcDbEntity
100
AcDbBlockBegin
2
*MODEL_SPACE
0
ENDBLK
5
21
100
AcDbEntity
100
AcDbBlockEnd
0
BLOCK
5
1C
100
AcDbEntity
100
AcDbBlockBegin
2
*PAPER_SPACE
0
ENDBLK
5
1D
100
AcDbEntity
100
AcDbBlockEnd
0
ENDSEC
0
SECTION
2
ENTITIES
0
CIRCLE
5
100
100
AcDbEntity
8
0
100
AcDbCircle
10
-393.04821082317847
20
103.87140816466761
30
0
40
1.4999999999999858
210
0
220
0
230
1
0
CIRCLE
5
101
100
AcDbEntity
8
0
100
AcDbCircle
10
-500.04821082317824
20
103.87140816466761
30
0
40
1.4999999999999858
210
0
220
0
230
1
0
CIRCLE
5
102
100
AcDbEntity
8
0
100
AcDbCircle
10
-359.04821082317847
20
103.87140816466761
30
0
40
1.4999999999999858
210
0
220
0
230
1
0
CIRCLE
5
103
100
AcDbEntity
8
0
100
AcDbCircle
10
-466.04821082317824
20
103.87140816466761
30
0
40
1.4999999999999858
210
0
220
0
230
1
0
CIRCLE
5
104
100
AcDbEntity
8
0
100
AcDbCircle
10
-341.04821083145691
20
87.371408164667557
30
0
40
1
210
3.8518598887744307e-34
220
2.4495626738235372e-49
230
1
0
CIRCLE
5
105
100
AcDbEntity
8
0
100
AcDbCircle
10
-518.04821081490047
20
87.371408164667557
30
0
40
1
210
-8.3793734325489344e-65
220
6.8422776578360209e-49
230
1
0
LWPOLYLINE
5
106
100
AcDbEntity
8
0
100
AcDbPolyline
90
22
70
1
43
0.0
10
-374.54821082317835
20
32.371408164667557
10
-374.54821082317864
20
65.37140816466767
42
-0.41421356237309503
10
-362.54821082317858
20
77.37140816466767
10
-334.99651118543295
20
77.371408164667557
10
-334.99651118543295
20
96.271408164667704
10
-342.73452132338434
20
96.271408164667605
42
-0.99999999999999989
10
-347.14821082317854
20
100.33580787426878
10
-347.14821082317837
20
111.37140816466761
10
-511.94821082317833
20
111.37140816466761
10
-511.94821079337879
20
100.27108641712717
42
-0.9999999925494194
10
-516.42063450729529
20
96.271408164667648
10
-524.04821082317824
20
96.271408164667562
10
-524.04821082317881
20
77.371408164667557
10
-496.54821082317881
20
77.371408164667699
42
-0.41421356237309503
10
-484.54821082317881
20
65.37140816466767
10
-484.54821082317835
20
32.371408164667557
10
-464.54821082317835
20
32.371408164667557
10
-464.54821082317835
20
52.371408164667557
42
-0.41421356237309503
10
-449.54821082317835
20
67.371408164667557
10
-409.54821082317835
20
67.371408164667514
42
-0.41421356237309709
10
-394.54821082317835
20
52.371408164667557
10
-394.54821082317835
20
32.371408164667557
0
LINE
5
107
100
AcDbEntity
8
1
100
AcDbLine
10
-505.94821082317856
20
80
30
0
11
-393.64326324068855
21
80.000000000000014
31
0
0
LINE
5
108
100
AcDbEntity
8
1
100
AcDbLine
10
-393.64326324068855
20
80.000000000000014
30
0
11
-393.64326324068855
21
99.371408164667628
31
0
0
LINE
5
109
100
AcDbEntity
8
1
100
AcDbLine
10
-393.64326324068855
20
99.371408164667628
30
0
11
-505.94821082317856
21
99.371408164667628
31
0
0
LINE
5
110
100
AcDbEntity
8
1
100
AcDbLine
10
-505.94821082317856
20
99.371408164667628
30
0
11
-505.94821082317856
21
80
31
0
0
LINE
5
111
100
AcDbEntity
8
0
100
AcDbLine
10
-505.07071072125461
20
96.813760340380185
30
0
11
-503.60821070039299
21
96.813760340380185
31
0
0
LINE
5
112
100
AcDbEntity
8
0
100
AcDbLine
10
-503.60821070039299
20
93.888760149645321
30
0
11
-505.07071072125461
21
93.888760149645321
31
0
0
LINE
5
113
100
AcDbEntity
8
0
100
AcDbLine
10
-505.07071072125461
20
93.888760149645321
30
0
11
-505.07071072125461
21
99.153760612177365
31
0
0
LINE
5
114
100
AcDbEntity
8
0
100
AcDbLine
10
-505.07071072125461
20
99.153760612177365
30
0
11
-503.60821070039299
21
99.153760612177365
31
0
0
ARC
5
115
100
AcDbEntity
8
0
100
AcDbCircle
10
-503.60821070039299
20
95.351260245012753
30
0
40
1.4625000953674316
210
0
220
0
230
1
100
AcDbArc
50
-89.99999931675508
51
90.000002504478786
0
ARC
5
116
100
AcDbEntity
8
0
100
AcDbCircle
10
-503.60821070039299
20
97.983760476278775
30
0
40
1.1700000613927841
210
0
220
0
230
1
100
AcDbArc
50
-89.99999931675508
51
90.000002504477152
0
LINE
5
117
100
AcDbEntity
8
0
100
AcDbLine
10
-499.65946065151718
20
99.153760612177365
30
0
11
-500.82946048939255
21
95.058760285543912
31
0
0
LINE
5
118
100
AcDbEntity
8
0
100
AcDbLine
10
-500.82946048939255
20
95.058760285543912
30
0
11
-497.90446029865768
21
95.058760285543912
31
0
0
LINE
5
119
100
AcDbEntity
8
0
100
AcDbLine
10
-498.78196047508743
20
96.228760421442502
30
0
11
-498.78196047508743
21
93.888760149645321
31
0
0
LINE
5
120
100
AcDbEntity
8
0
100
AcDbLine
10
-496.14945994579818
20
93.888760149645321
30
0
11
-496.44196020329025
21
93.888760149645321
31
0
0
LINE
5
121
100
AcDbEntity
8
0
100
AcDbLine
10
-496.44196020329025
20
93.888760149645321
30
0
11
-496.44196020329025
21
94.181260407137387
31
0
0
LINE
5
122
100
AcDbEntity
8
0
100
AcDbLine
10
-496.44196020329025
20
94.181260407137387
30
0
11
-496.14945994579818
21
94.181260407137387
31
0
0
LINE
5
123
100
AcDbEntity
8
0
100
AcDbLine
10
-496.14945994579818
20
94.181260407137387
30
0
11
-496.14945994579818
21
93.888760149645321
31
0
0
LINE
5
124
100
AcDbEntity
8
0
100
AcDbLine
10
-496.14945994579818
20
93.888760149645321
30
0
11
-496.58821033203628
21
92.718760311769955
31
0
0
LINE
5
125
100
AcDbEntity
8
0
100
AcDbLine
10
-490.44571028912094
20
95.351260245012753
30
0
11
-491.90821038448837
21
95.936260163950436
31
0
0
ARC
5
126
100
AcDbEntity
8
0
100
AcDbCircle
10
-491.66980849468735
20
96.649079859423153
30
0
40
0.75162976980209339
210
0
220
0
230
1
100
AcDbArc
50
85.872587490929021
51
251.50753671300302
0
ARC
5
127
100
AcDbEntity
8
0
100
AcDbCircle
10
-491.5288017865422
20
94.682033598589413
30
0
40
2.7181166410446167
210
0
220
0
230
1
100
AcDbArc
50
63.110121478028809
51
91.832262221037354
0
ARC
5
128
100
AcDbEntity
8
0
100
AcDbCircle
10
-490.69072591030624
20
94.639763176607602
30
0
40
0.75250290334224701
210
0
220
0
230
1
100
AcDbArc
50
-93.617868557841661
51
70.998006422155925
0
ARC
5
129
100
AcDbEntity
8
0
100
AcDbCircle
10
-491.00608693325546
20
96.985751331018918
30
0
40
3.1085547804832454
210
0
220
0
230
1
100
AcDbArc
50
244.44676035661033
51
274.94352767996122
0
LINE
5
130
100
AcDbEntity
8
0
100
AcDbLine
10
-488.83696066105392
20
97.398760557341092
30
0
11
-487.08196030819443
21
97.398760557341092
31
0
0
LINE
5
131
100
AcDbEntity
8
0
100
AcDbLine
10
-488.25196014606979
20
99.153760612177365
30
0
11
-488.25196014606979
21
94.76626032607507
31
0
0
LINE
5
132
100
AcDbEntity
8
0
100
AcDbLine
10
-487.37446056568649
20
93.888760149645321
30
0
11
-487.08196030819443
21
93.888760149645321
31
0
0
ARC
5
133
100
AcDbEntity
8
0
100
AcDbCircle
10
-487.47980223858383
20
94.660918653177731
30
0
40
0.77931083738803864
210
0
220
0
230
1
100
AcDbArc
50
172.23138882811776
51
277.76860320370281
0
LINE
5
134
100
AcDbEntity
8
0
100
AcDbLine
10
-485.61946021282699
20
93.888760149645321
30
0
11
-485.61946021282699
21
97.398760557341092
31
0
0
LINE
5
135
100
AcDbEntity
8
0
100
AcDbLine
10
-485.76571093761947
20
98.861260652708523
30
0
11
-485.76571093761947
21
99.153760612177365
31
0
0
LINE
5
136
100
AcDbEntity
8
0
100
AcDbLine
10
-485.76571093761947
20
99.153760612177365
30
0
11
-485.47320948803451
21
99.153760612177365
31
0
0
LINE
5
137
100
AcDbEntity
8
0
100
AcDbLine
10
-485.47320948803451
20
99.153760612177365
30
0
11
-485.47320948803451
21
98.861260652708523
31
0
0
LINE
5
138
100
AcDbEntity
8
0
100
AcDbLine
10
-485.47320948803451
20
98.861260652708523
30
0
11
-485.76571093761947
21
98.861260652708523
31
0
0
LINE
5
139
100
AcDbEntity
8
0
100
AcDbLine
10
-481.96321116650131
20
93.888760149645321
30
0
11
-483.13320981228378
21
93.888760149645321
31
0
0
LINE
5
140
100
AcDbEntity
8
0
100
AcDbLine
10
-484.01071177685287
20
94.76626032607507
30
0
11
-484.01071177685287
21
96.521260380911343
31
0
0
LINE
5
141
100
AcDbEntity
8
0
100
AcDbLine
10
-483.13320981228378
20
97.398760557341092
30
0
11
-481.96321116650131
21
97.398760557341092
31
0
0
ARC
5
142
100
AcDbEntity
8
0
100
AcDbCircle
10
-483.23855267727401
20
94.660918653177731
30
0
40
0.77931083738803864
210
0
220
0
230
1
100
AcDbArc
50
172.23138882811776
51
277.76860320370281
0
ARC
5
143
100
AcDbEntity
8
0
100
AcDbCircle
10
-483.23855267727401
20
96.626602053808682
30
0
40
0.77931083738803864
210
0
220
0
230
1
100
AcDbArc
50
82.231386323644031
51
187.76862118979258
0
LINE
5
144
100
AcDbEntity
8
0
100
AcDbLine
10
-480.50071107113388
20
93.888760149645321
30
0
11
-480.50071107113388
21
99.153760612177365
31
0
0
LINE
5
145
100
AcDbEntity
8
0
100
AcDbLine
10
-478.16071139538315
20
97.398760557341092
30
0
11
-480.50071107113388
21
95.643760502504819
31
0
0
LINE
5
146
100
AcDbEntity
8
0
100
AcDbLine
10
-478.16071139538315
20
93.888760149645321
30
0
11
-479.4769607659581
21
96.375010550188534
31
0
0
LINE
5
147
100
AcDbEntity
8
0
100
AcDbLine
10
-472.16446028912094
20
95.936260163950436
30
0
11
-473.48071204388168
21
95.936260163950436
31
0
0
LINE
5
148
100
AcDbEntity
8
0
100
AcDbLine
10
-473.48071204388168
20
93.888760149645321
30
0
11
-472.16446028912094
21
93.888760149645321
31
0
0
LINE
5
149
100
AcDbEntity
8
0
100
AcDbLine
10
-472.16446028912094
20
93.888760149645321
30
0
11
-472.16446028912094
21
96.521260380911343
31
0
0
LINE
5
150
100
AcDbEntity
8
0
100
AcDbLine
10
-473.04195986950424
20
97.398760557341092
30
0
11
-474.2119608994725
21
97.398760557341092
31
0
0
ARC
5
151
100
AcDbEntity
8
0
100
AcDbCircle
10
-473.48071204388168
20
94.912510156797879
30
0
40
1.0237500816583633
210
0
220
0
230
1
100
AcDbArc
50
90.000002504480662
51
270.00000068324493
0
ARC
5
152
100
AcDbEntity
8
0
100
AcDbCircle
10
-472.9366193886998
20
96.626602053808682
30
0
40
0.77931083738803864
210
0
220
0
230
1
100
AcDbArc
50
-7.768619823302747
51
97.76861868531644
0
LINE
5
153
100
AcDbEntity
8
0
100
AcDbLine
10
-468.65445958340194
20
95.351260245012753
30
0
11
-470.11695967876938
21
95.936260163950436
31
0
0
ARC
5
154
100
AcDbEntity
8
0
100
AcDbCircle
10
-469.87856017315414
20
96.649079859423153
30
0
40
0.75162976980209351
210
0
220
0
230
1
100
AcDbArc
50
85.872587490929021
51
251.50753671300302
0
ARC
5
155
100
AcDbEntity
8
0
100
AcDbCircle
10
-469.7375522729161
20
94.682033598589413
30
0
40
2.7181166410446163
210
0
220
0
230
1
100
AcDbArc
50
63.110121478028809
51
91.832262221037354
0
ARC
5
156
100
AcDbEntity
8
0
100
AcDbCircle
10
-468.89947520458725
20
94.639763176607602
30
0
40
0.75250290334224701
210
0
220
0
230
1
100
AcDbArc
50
-93.617868557841661
51
70.998006422155925
0
ARC
5
157
100
AcDbEntity
8
0
100
AcDbCircle
10
-469.21483622753647
20
96.985751331018918
30
0
40
3.1085547804832458
210
0
220
0
230
1
100
AcDbArc
50
244.44676035661033
51
274.94352767996122
0
LINE
5
158
100
AcDbEntity
8
0
100
AcDbLine
10
-464.85196219646957
20
95.351260245012753
30
0
11
-466.31445990765121
21
95.936260163950436
31
0
0
ARC
5
159
100
AcDbEntity
8
0
100
AcDbCircle
10
-466.07606040203598
20
96.649079859423153
30
0
40
0.75162976980209351
210
0
220
0
230
1
100
AcDbArc
50
85.872587490929021
51
251.50753671300302
0
ARC
5
160
100
AcDbEntity
8
0
100
AcDbCircle
10
-465.93505488598373
20
94.682033598589413
30
0
40
2.7181166410446167
210
0
220
0
230
1
100
AcDbArc
50
63.110121478028809
51
91.832262221037354
0
ARC
5
161
100
AcDbEntity
8
0
100
AcDbCircle
10
-465.09697543346908
20
94.639763176607602
30
0
40
0.75250290334224701
210
0
220
0
230
1
100
AcDbArc
50
-93.617868557841661
51
70.998006422155925
0
ARC
5
162
100
AcDbEntity
8
0
100
AcDbCircle
10
-465.4123364564183
20
96.985751331018918
30
0
40
3.1085547804832458
210
0
220
0
230
1
100
AcDbArc
50
244.44676035661033
51
274.94352767996122
0
LINE
5
163
100
AcDbEntity
8
0
100
AcDbLine
10
-460.61071025097397
20
93.888760149645321
30
0
11
-462.07321273052719
21
93.888760149645321
31
0
0
LINE
5
164
100
AcDbEntity
8
0
100
AcDbLine
10
-462.95071231091049
20
94.76626032607507
30
0
11
-462.95071231091049
21
96.228760421442502
31
0
0
LINE
5
165
100
AcDbEntity
8
0
100
AcDbLine
10
-460.61071025097397
20
96.228760421442502
30
0
11
-460.61071025097397
21
95.643760502504819
31
0
0
LINE
5
166
100
AcDbEntity
8
0
100
AcDbLine
10
-460.61071025097397
20
95.643760502504819
30
0
11
-462.95071231091049
21
95.643760502504819
31
0
0
ARC
5
167
100
AcDbEntity
8
0
100
AcDbCircle
10
-462.17855082714584
20
94.660918653177731
30
0
40
0.77931083738803864
210
0
220
0
230
1
100
AcDbArc
50
172.23138882811776
51
277.76860320370281
0
ARC
5
168
100
AcDbEntity
8
0
100
AcDbCircle
10
-461.78071128094223
20
96.228760421442502
30
0
40
1.1700000613927841
210
0
220
0
230
1
100
AcDbArc
50
0
51
180.00000497831306
0
LINE
5
169
100
AcDbEntity
8
0
100
AcDbLine
10
-459.00196181499985
20
93.888760149645321
30
0
11
-459.00196181499985
21
97.398760557341092
31
0
0
LINE
5
170
100
AcDbEntity
8
0
100
AcDbLine
10
-459.00196181499985
20
97.398760557341092
30
0
11
-456.36946307384994
21
97.398760557341092
31
0
0
LINE
5
171
100
AcDbEntity
8
0
100
AcDbLine
10
-455.49196349346664
20
96.521260380911343
30
0
11
-455.49196349346664
21
93.888760149645321
31
0
0
LINE
5
172
100
AcDbEntity
8
0
100
AcDbLine
10
-457.24696265423324
20
93.888760149645321
30
0
11
-457.24696265423324
21
97.398760557341092
31
0
0
ARC
5
173
100
AcDbEntity
8
0
100
AcDbCircle
10
-456.26412020885971
20
96.626602053808682
30
0
40
0.77931083738803864
210
0
220
0
230
1
100
AcDbArc
50
-7.768619823302747
51
97.76861868531644
0
LINE
5
174
100
AcDbEntity
8
0
100
AcDbLine
10
-453.73695956432846
20
99.153760612177365
30
0
11
-453.73695956432846
21
93.888760149645321
31
0
0
LINE
5
175
100
AcDbEntity
8
0
100
AcDbLine
10
-453.73695956432846
20
93.888760149645321
30
0
11
-452.27445708477524
21
93.888760149645321
31
0
0
LINE
5
176
100
AcDbEntity
8
0
100
AcDbLine
10
-451.39695750439193
20
94.766260326075098
30
0
11
-451.39695750439193
21
96.521260380911372
31
0
0
LINE
5
177
100
AcDbEntity
8
0
100
AcDbLine
10
-452.27445708477524
20
97.398760557341092
30
0
11
-453.73695956432846
21
97.398760557341092
31
0
0
ARC
5
178
100
AcDbEntity
8
0
100
AcDbCircle
10
-452.16911898815658
20
94.66091865317776
30
0
40
0.77931083738803864
210
0
220
0
230
1
100
AcDbArc
50
-97.76862915797436
51
7.7686161808361369
0
ARC
5
179
100
AcDbEntity
8
0
100
AcDbCircle
10
-452.16911898815658
20
96.626602053808682
30
0
40
0.77931083738803864
210
0
220
0
230
1
100
AcDbArc
50
-7.768619823302747
51
97.76861868531644
0
LINE
5
180
100
AcDbEntity
8
0
100
AcDbLine
10
-449.78820906841781
20
99.153760612177393
30
0
11
-449.78820906841781
21
94.766260326075098
31
0
0
ARC
5
181
100
AcDbEntity
8
0
100
AcDbCircle
10
-449.01605235302475
20
94.66091865317776
30
0
40
0.77931083738803864
210
0
220
0
230
1
100
AcDbArc
50
172.23138882811875
51
277.76860320370264
0
LINE
5
182
100
AcDbEntity
8
0
100
AcDbLine
10
-447.74070845806625
20
92.133759796785853
30
0
11
-447.15570555889633
21
92.133759796785853
31
0
0
LINE
5
183
100
AcDbEntity
8
0
100
AcDbLine
10
-447.15570555889633
20
92.133759796785853
30
0
11
-445.40070639812973
21
97.39876055734112
31
0
0
LINE
5
184
100
AcDbEntity
8
0
100
AcDbLine
10
-447.74070845806625
20
97.39876055734112
30
0
11
-446.57070742809799
21
93.88876014964535
31
0
0
LINE
5
185
100
AcDbEntity
8
0
100
AcDbLine
10
-441.45195590221908
20
93.88876014964535
30
0
11
-441.45195590221908
21
98.276260435747645
31
0
0
LINE
5
186
100
AcDbEntity
8
0
100
AcDbLine
10
-440.57445632183578
20
99.153760612177393
30
0
11
-440.28195487225082
21
99.153760612177393
31
0
0
LINE
5
187
100
AcDbEntity
8
0
100
AcDbLine
10
-442.03695403301742
20
97.39876055734112
30
0
11
-440.28195487225082
21
97.39876055734112
31
0
0
ARC
5
188
100
AcDbEntity
8
0
100
AcDbCircle
10
-440.67979918682602
20
98.381602108644984
30
0
40
0.77931083738803864
210
0
220
0
230
1
100
AcDbArc
50
82.231386323643875
51
187.76862118979361
0
LINE
5
189
100
AcDbEntity
8
0
100
AcDbLine
10
-439.11195861065414
20
93.88876014964535
30
0
11
-439.11195861065414
21
97.39876055734112
31
0
0
LINE
5
190
100
AcDbEntity
8
0
100
AcDbLine
10
-439.11195861065414
20
97.39876055734112
30
0
11
-437.35695944988754
21
97.39876055734112
31
0
0
LINE
5
191
100
AcDbEntity
8
0
100
AcDbLine
10
-437.35695944988754
20
97.39876055734112
30
0
11
-437.35695944988754
21
96.813760340380213
31
0
0
LINE
5
192
100
AcDbEntity
8
0
100
AcDbLine
10
-436.18695841991928
20
95.05876028554394
30
0
11
-436.18695841991928
21
96.22876042144253
31
0
0
LINE
5
193
100
AcDbEntity
8
0
100
AcDbLine
10
-433.84695635998276
20
96.22876042144253
30
0
11
-433.84695635998276
21
95.05876028554394
31
0
0
ARC
5
194
100
AcDbEntity
8
0
100
AcDbCircle
10
-435.01695738995102
20
96.22876042144253
30
0
40
1.1700000613927841
210
0
220
0
230
1
100
AcDbArc
50
0
51
180.00000497831306
0
ARC
5
195
100
AcDbEntity
8
0
100
AcDbCircle
10
-435.01695738995102
20
95.05876028554394
30
0
40
1.1700000613927841
210
0
220
0
230
1
100
AcDbArc
50
-179.99999502168694
51
0
0
LINE
5
196
100
AcDbEntity
8
0
100
AcDbLine
10
-432.23820792400863
20
93.88876014964535
30
0
11
-432.23820792400863
21
97.39876055734112
31
0
0
LINE
5
197
100
AcDbEntity
8
0
100
AcDbLine
10
-432.23820792400863
20
97.39876055734112
30
0
11
-430.77570544445541
21
97.39876055734112
31
0
0
LINE
5
198
100
AcDbEntity
8
0
100
AcDbLine
10
-429.89820586407211
20
96.521260380911372
30
0
11
-429.89820586407211
21
93.88876014964535
31
0
0
ARC
5
199
100
AcDbEntity
8
0
100
AcDbCircle
10
-430.67036734783676
20
96.62660205380871
30
0
40
0.77931083738803864
210
0
220
0
230
1
100
AcDbArc
50
-7.7686198233037649
51
97.768618685316596
0
LINE
5
200
100
AcDbEntity
8
0
100
AcDbLine
10
-428.58195410931137
20
97.39876055734112
30
0
11
-426.82695494854477
21
97.39876055734112
31
0
0
LINE
5
201
100
AcDbEntity
8
0
100
AcDbLine
10
-427.99695597851303
20
99.153760612177393
30
0
11
-427.99695597851303
21
94.766260326075098
31
0
0
LINE
5
202
100
AcDbEntity
8
0
100
AcDbLine
10
-427.11945639812973
20
93.88876014964535
30
0
11
-426.82695494854477
21
93.88876014964535
31
0
0
ARC
5
203
100
AcDbEntity
8
0
100
AcDbCircle
10
-427.22479926311996
20
94.66091865317776
30
0
40
0.77931083738803864
210
0
220
0
230
1
100
AcDbArc
50
172.23138882811875
51
277.76860320370264
0
LINE
5
204
100
AcDbEntity
8
0
100
AcDbLine
10
-423.0244551774266
20
99.153760612177393
30
0
11
-423.0244551774266
21
93.88876014964535
31
0
0
LINE
5
205
100
AcDbEntity
8
0
100
AcDbLine
10
-423.0244551774266
20
93.88876014964535
30
0
11
-421.56195746624496
21
93.88876014964535
31
0
0
LINE
5
206
100
AcDbEntity
8
0
100
AcDbLine
10
-420.68446265423324
20
94.766260326075098
30
0
11
-420.68446265423324
21
96.521260380911372
31
0
0
LINE
5
207
100
AcDbEntity
8
0
100
AcDbLine
10
-421.56195746624496
20
97.39876055734112
30
0
11
-423.0244551774266
21
97.39876055734112
31
0
0
ARC
5
208
100
AcDbEntity
8
0
100
AcDbCircle
10
-421.45661460125473
20
94.66091865317776
30
0
40
0.77931083738803864
210
0
220
0
230
1
100
AcDbArc
50
-97.76862915797436
51
7.7686161808361369
0
ARC
5
209
100
AcDbEntity
8
0
100
AcDbCircle
10
-421.45661460125473
20
96.62660205380871
30
0
40
0.77931083738803864
210
0
220
0
230
1
100
AcDbArc
50
-7.7686198233037649
51
97.768618685316596
0
LINE
5
210
100
AcDbEntity
8
0
100
AcDbLine
10
-419.2219649430516
20
95.05876028554394
30
0
11
-419.2219649430516
21
96.22876042144253
31
0
0
LINE
5
211
100
AcDbEntity
8
0
100
AcDbLine
10
-416.88196288311508
20
96.22876042144253
30
0
11
-416.88196288311508
21
95.05876028554394
31
0
0
ARC
5
212
100
AcDbEntity
8
0
100
AcDbCircle
10
-418.05195914471176
20
96.22876042144253
30
0
40
1.1700000613927841
210
0
220
0
230
1
100
AcDbArc
50
0
51
180.00000497831306
0
ARC
5
213
100
AcDbEntity
8
0
100
AcDbCircle
10
-418.05195914471176
20
95.05876028554394
30
0
40
1.1700000613927841
210
0
220
0
230
1
100
AcDbArc
50
-179.99999502168694
51
0
0
LINE
5
214
100
AcDbEntity
8
0
100
AcDbLine
10
-415.56571112835434
20
93.88876014964535
30
0
11
-413.22571860516098
21
97.39876055734112
31
0
0
LINE
5
215
100
AcDbEntity
8
0
100
AcDbLine
10
-415.56571112835434
20
97.39876055734112
30
0
11
-413.22571860516098
21
93.88876014964535
31
0
0
LINE
5
216
100
AcDbEntity
8
0
100
AcDbLine
10
-409.86196624004867
20
97.39876055734112
30
0
11
-408.10696707928207
21
97.39876055734112
31
0
0
LINE
5
217
100
AcDbEntity
8
0
100
AcDbLine
10
-409.27696334087875
20
99.153760612177393
30
0
11
-409.27696334087875
21
94.766260326075098
31
0
0
LINE
5
218
100
AcDbEntity
8
0
100
AcDbLine
10
-408.39945899212387
20
93.88876014964535
30
0
11
-408.10696707928207
21
93.88876014964535
31
0
0
ARC
5
219
100
AcDbEntity
8
0
100
AcDbCircle
10
-408.5048018571141
20
94.66091865317776
30
0
40
0.77931083738803864
210
0
220
0
230
1
100
AcDbArc
50
172.23138882811875
51
277.76860320370264
0
LINE
5
220
100
AcDbEntity
8
0
100
AcDbLine
10
-406.79071532452133
20
95.05876028554394
30
0
11
-406.79071532452133
21
96.22876042144253
31
0
0
LINE
5
221
100
AcDbEntity
8
0
100
AcDbLine
10
-404.45071326458481
20
96.22876042144253
30
0
11
-404.45071326458481
21
95.05876028554394
31
0
0
ARC
5
222
100
AcDbEntity
8
0
100
AcDbCircle
10
-405.62070952618149
20
96.22876042144253
30
0
40
1.1700000613927841
210
0
220
0
230
1
100
AcDbArc
50
0
51
180.00000497831306
0
ARC
5
223
100
AcDbEntity
8
0
100
AcDbCircle
10
-405.62070952618149
20
95.05876028554394
30
0
40
1.1700000613927841
210
0
220
0
230
1
100
AcDbArc
50
-179.99999502168694
51
0
0
LINE
5
224
100
AcDbEntity
8
0
100
AcDbLine
10
-402.8419600602391
20
92.133759796785853
30
0
11
-402.8419600602391
21
97.39876055734112
31
0
0
LINE
5
225
100
AcDbEntity
8
0
100
AcDbLine
10
-402.8419600602391
20
97.39876055734112
30
0
11
-401.37946234905746
21
97.39876055734112
31
0
0
LINE
5
226
100
AcDbEntity
8
0
100
AcDbLine
10
-400.50196753704574
20
96.521260380911372
30
0
11
-400.50196753704574
21
94.766260326075098
31
0
0
LINE
5
227
100
AcDbEntity
8
0
100
AcDbLine
10
-401.37946234905746
20
93.88876014964535
30
0
11
-402.8419600602391
21
93.88876014964535
31
0
0
ARC
5
228
100
AcDbEntity
8
0
100
AcDbCircle
10
-401.27411948406723
20
96.62660205380871
30
0
40
0.77931083738803864
210
0
220
0
230
1
100
AcDbArc
50
-7.7686198233037649
51
97.768618685316596
0
ARC
5
229
100
AcDbEntity
8
0
100
AcDbCircle
10
-401.27411948406723
20
94.66091865317776
30
0
40
0.77931083738803864
210
0
220
0
230
1
100
AcDbArc
50
-97.76862915797436
51
7.7686161808361369
0
LINE
5
230
100
AcDbEntity
8
0
100
AcDbLine
10
-398.74696837627914
20
93.88876014964535
30
0
11
-399.0394698258641
21
93.88876014964535
31
0
0
LINE
5
231
100
AcDbEntity
8
0
100
AcDbLine
10
-399.0394698258641
20
93.88876014964535
30
0
11
-399.0394698258641
21
94.181260407137415
31
0
0
LINE
5
232
100
AcDbEntity
8
0
100
AcDbLine
10
-399.0394698258641
20
94.181260407137415
30
0
11
-398.74696837627914
21
94.181260407137415
31
0
0
LINE
5
233
100
AcDbEntity
8
0
100
AcDbLine
10
-398.74696837627914
20
94.181260407137415
30
0
11
-398.74696837627914
21
93.88876014964535
31
0
0
LINE
5
234
100
AcDbEntity
8
0
100
AcDbLine
10
-398.74696837627914
20
93.88876014964535
30
0
11
-399.185715782285
21
92.718760311769984
31
0
0
LINE
5
235
100
AcDbEntity
8
0
100
AcDbLine
10
-505.21696077549484
20
90.18375927226495
30
0
11
-503.75446068012741
21
91.353759706186764
31
0
0
LINE
5
236
100
AcDbEntity
8
0
100
AcDbLine
10
-503.75446068012741
20
91.353759706186764
30
0
11
-503.75446068012741
21
86.088759243654721
31
0
0
LINE
5
237
100
AcDbEntity
8
0
100
AcDbLine
10
-505.21696077549484
20
86.088759243654721
30
0
11
-502.29196058475998
21
86.088759243654721
31
0
0
LINE
5
238
100
AcDbEntity
8
0
100
AcDbLine
10
-498.6357103463414
20
86.088759243654721
30
0
11
-496.29571007454422
21
89.598759949373715
31
0
0
LINE
5
239
100
AcDbEntity
8
0
100
AcDbLine
10
-498.6357103463414
20
89.598759949373715
30
0
11
-496.29571007454422
21
86.088759243654721
31
0
0
LINE
5
240
100
AcDbEntity
8
0
100
AcDbLine
10
-492.63946043217209
20
90.18375927226495
30
0
11
-491.17696033680465
21
91.353759706186764
31
0
0
LINE
5
241
100
AcDbEntity
8
0
100
AcDbLine
10
-491.17696033680465
20
91.353759706186764
30
0
11
-491.17696033680465
21
86.088759243654721
31
0
0
LINE
5
242
100
AcDbEntity
8
0
100
AcDbLine
10
-492.63946043217209
20
86.088759243654721
30
0
11
-489.71446024143722
21
86.088759243654721
31
0
0
LINE
5
243
100
AcDbEntity
8
0
100
AcDbLine
10
-485.76571093761947
20
89.013759434389584
30
0
11
-488.25196014606979
21
86.088759243654721
31
0
0
LINE
5
244
100
AcDbEntity
8
0
100
AcDbLine
10
-488.25196014606979
20
86.088759243654721
30
0
11
-485.32695876324203
21
86.088759243654721
31
0
0
ARC
5
245
100
AcDbEntity
8
0
100
AcDbCircle
10
-486.48519741261032
20
90.195521652864926
30
0
40
1.1689662933349609
210
0
220
0
230
1
100
AcDbArc
50
-7.7686198233025436
51
97.768618685315417
0
ARC
5
246
100
AcDbEntity
8
0
100
AcDbCircle
10
-486.81979285442856
20
89.905545056032651
30
0
40
1.4589405059814451
210
0
220
0
230
1
100
AcDbArc
50
83.048174495538106
51
169.00656965301121
0
ARC
5
247
100
AcDbEntity
8
0
100
AcDbCircle
10
-486.49759875500229
20
89.933319032358639
30
0
40
1.1752662807703018
210
0
220
0
230
1
100
AcDbArc
50
-51.483278511487683
51
5.0861029267709625
0
LINE
5
248
100
AcDbEntity
8
0
100
AcDbLine
10
-481.37821065151718
20
86.088759243654721
30
0
11
-481.37821065151718
21
89.598759949373715
31
0
0
LINE
5
249
100
AcDbEntity
8
0
100
AcDbLine
10
-481.37821065151718
20
89.598759949373715
30
0
11
-478.74570952618149
21
89.598759949373715
31
0
0
LINE
5
250
100
AcDbEntity
8
0
100
AcDbLine
10
-477.86820994579818
20
88.721259176897519
30
0
11
-477.86820994579818
21
86.088759243654721
31
0
0
LINE
5
251
100
AcDbEntity
8
0
100
AcDbLine
10
-479.62320910656479
20
86.088759243654721
30
0
11
-479.62320910656479
21
89.598759949373715
31
0
0
ARC
5
252
100
AcDbEntity
8
0
100
AcDbCircle
10
-478.64036904537704
20
88.826600849794858
30
0
40
0.77931083738803864
210
0
220
0
230
1
100
AcDbArc
50
-7.768619823302747
51
97.76861868531644
0
LINE
5
253
100
AcDbEntity
8
0
100
AcDbLine
10
-476.11321078503158
20
86.088759243654721
30
0
11
-476.11321078503158
21
89.598759949373715
31
0
0
LINE
5
254
100
AcDbEntity
8
0
100
AcDbLine
10
-476.11321078503158
20
89.598759949373715
30
0
11
-473.48070965969589
21
89.598759949373715
31
0
0
LINE
5
255
100
AcDbEntity
8
0
100
AcDbLine
10
-472.60321007931259
20
88.721259176897519
30
0
11
-472.60321007931259
21
86.088759243654721
31
0
0
LINE
5
256
100
AcDbEntity
8
0
100
AcDbLine
10
-474.35820924007919
20
86.088759243654721
30
0
11
-474.35820924007919
21
89.598759949373715
31
0
0
ARC
5
257
100
AcDbEntity
8
0
100
AcDbCircle
10
-473.37536917889145
20
88.826600849794858
30
0
40
0.77931083738803864
210
0
220
0
230
1
100
AcDbArc
50
-7.768619823302747
51
97.76861868531644
0
LINE
5
258
100
AcDbEntity
8
0
100
AcDbLine
10
-468.50821124279526
20
84.333758890795224
30
0
11
-468.50821124279526
21
89.598759949373715
31
0
0
LINE
5
259
100
AcDbEntity
8
0
100
AcDbLine
10
-468.50821124279526
20
89.598759949373715
30
0
11
-467.04571114742782
21
89.598759949373715
31
0
0
LINE
5
260
100
AcDbEntity
8
0
100
AcDbLine
10
-466.16821156704452
20
88.721259176897519
30
0
11
-466.16821156704452
21
86.966258824038022
31
0
0
LINE
5
261
100
AcDbEntity
8
0
100
AcDbLine
10
-467.04571114742782
20
86.088759243654721
30
0
11
-468.50821124279526
21
86.088759243654721
31
0
0
ARC
5
262
100
AcDbEntity
8
0
100
AcDbCircle
10
-466.94036828243759
20
88.826600849794858
30
0
40
0.77931083738803864
210
0
220
0
230
1
100
AcDbArc
50
-7.768619823302747
51
97.76861868531644
0
ARC
5
263
100
AcDbEntity
8
0
100
AcDbCircle
10
-466.94036828243759
20
86.860917151140683
30
0
40
0.77931083738803864
210
0
220
0
230
1
100
AcDbArc
50
-97.768629157974516
51
7.7686161808371734
0
LINE
5
264
100
AcDbEntity
8
0
100
AcDbLine
10
-464.55946074688461
20
91.353759706186764
30
0
11
-464.55946074688461
21
86.966258824038022
31
0
0
ARC
5
265
100
AcDbEntity
8
0
100
AcDbCircle
10
-463.78730403149154
20
86.860917151140683
30
0
40
0.77931083738803864
210
0
220
0
230
1
100
AcDbArc
50
172.23138882811776
51
277.76860320370281
0
LINE
5
266
100
AcDbEntity
8
0
100
AcDbLine
10
-462.51196013653305
20
84.333758890795224
30
0
11
-461.92695723736313
21
84.333758890795224
31
0
0
LINE
5
267
100
AcDbEntity
8
0
100
AcDbLine
10
-461.92695723736313
20
84.333758890795224
30
0
11
-460.17195807659652
21
89.598759949373715
31
0
0
LINE
5
268
100
AcDbEntity
8
0
100
AcDbLine
10
-462.51196013653305
20
89.598759949373715
30
0
11
-461.34195910656479
21
86.088759243654721
31
0
0
ENDSEC
0
SECTION
2
OBJECTS
0
DICTIONARY
5
C
100
AcDbDictionary
3
ACAD_GROUP
350
D
3
ACAD_MLINESTYLE
350
17
0
DICTIONARY
5
D
100
AcDbDictionary
0
DICTIONARY
5
1A
330
C
100
AcDbDictionary
0
DICTIONARY
5
17
100
AcDbDictionary
0
ENDSEC
0
EOF
