0
SECTION
2
HEADER
9
$INSUNITS
70
4
9
$ACADVER
1
AC1014
9
$HANDSEED
5
FFFF
0
ENDSEC
0
SECTION
2
TABLES
0
TABLE
2
VPORT
5
8
100
AcDbSymbolTable
0
ENDTAB
0
TABLE
2
LTYPE
5
5
100
AcDbSymbolTable
0
LTYPE
5
14
100
AcDbSymbolTableRecord
100
AcDbLinetypeTableRecord
2
BYBLOCK
70
0
0
LTYPE
5
15
100
AcDbSymbolTableRecord
100
AcDbLinetypeTableRecord
2
BYLAYER
70
0
0
LTYPE
5
16
100
AcDbSymbolTableRecord
100
AcDbLinetypeTableRecord
2
DASHED
70
0
3
Dashed __ __ __ __ __ __ __ __ __ __ __ __ __ _
72
65
73
2
40
0.75
49
0.5
74
0
49
-0.25
74
0
0
ENDTAB
0
TABLE
2
LAYER
5
2
100
AcDbSymbolTable
70
3
0
LAYER
5
50
100
AcDbSymbolTableRecord
100
AcDbLayerTableRecord
2
1
70
0
62
7
6
DASHED
0
LAYER
5
51
100
AcDbSymbolTableRecord
100
AcDbLayerTableRecord
2
0
70
0
62
7
6
CONTINUOUS
0
ENDTAB
0
TABLE
2
STYLE
5
3
100
AcDbSymbolTable
70
1
0
STYLE
5
11
100
AcDbSymbolTableRecord
100
AcDbTextStyleTableRecord
2
STANDARD
70
0
0
ENDTAB
0
TABLE
2
VIEW
5
6
100
AcDbSymbolTable
70
0
0
ENDTAB
0
TABLE
2
UCS
5
7
100
AcDbSymbolTable
70
0
0
ENDTAB
0
TABLE
2
APPID
5
9
100
AcDbSymbolTable
70
2
0
APPID
5
12
100
AcDbSymbolTableRecord
100
AcDbRegAppTableRecord
2
ACAD
70
0
0
ENDTAB
0
TABLE
2
DIMSTYLE
5
A
100
AcDbSymbolTable
70
1
0
ENDTAB
0
TABLE
2
BLOCK_RECORD
5
1
100
AcDbSymbolTable
70
1
0
BLOCK_RECORD
5
1F
100
AcDbSymbolTableRecord
100
AcDbBlockTableRecord
2
*MODEL_SPACE
0
BLOCK_RECORD
5
1B
100
AcDbSymbolTableRecord
100
AcDbBlockTableRecord
2
*PAPER_SPACE
0
ENDTAB
0
ENDSEC
0
SECTION
2
BLOCKS
0
BLOCK
5
20
100
AcDbEntity
100
AcDbBlockBegin
2
*MODEL_SPACE
0
ENDBLK
5
21
100
AcDbEntity
100
AcDbBlockEnd
0
BLOCK
5
1C
100
AcDbEntity
100
AcDbBlockBegin
2
*PAPER_SPACE
0
ENDBLK
5
1D
100
AcDbEntity
100
AcDbBlockEnd
0
ENDSEC
0
SECTION
2
ENTITIES
0
LWPOLYLINE
5
100
100
AcDbEntity
8
0
100
AcDbPolyline
90
8
70
1
43
0.0
10
-77.469372279685146
20
-2258.9161347600402
10
-77.469372279685231
20
-2263.2097396547247
42
-0.9527828170764473
10
-81.63303192781612
20
-2267.5201744131341
10
-123.60239969672874
20
-2267.5201744131341
42
-0.97628967821538704
10
-127.76937227968497
20
-2263.2055923394005
10
-127.7693722796849
20
-2259.8677845320108
42
-0.99999999999999989
10
-123.9746759567995
20
-2255.2201744131344
10
-82.19309351517299
20
-2255.2201744131344
42
-0.9733093946170881
0
LWPOLYLINE
5
101
100
AcDbEntity
8
0
100
AcDbPolyline
90
8
70
1
43
0.0
10
-81.889225472214648
20
-1682.1003579598721
10
-123.88813189819403
20
-1682.1003579314231
42
-1.0000000074505806
10
-127.70650240358631
20
-1677.4721783018549
10
-127.70650240358604
20
-1674.0501913644018
42
-0.99999999999999989
10
-123.37304157941178
20
-1669.9003579598721
10
-81.97393639953242
20
-1669.9003579598721
42
-0.99999999999999989
10
-77.706502403586185
20
-1674.1180595958631
10
-77.706502371535848
20
-1677.7986341817746
42
-0.9999999925494194
0
CIRCLE
5
102
100
AcDbEntity
8
0
100
AcDbCircle
10
-191.16937227968603
20
-2367.250357959872
30
0
40
1.4999999999999858
210
-2.6813994984148208e-63
220
2.1895288505075267e-47
230
1
0
CIRCLE
5
103
100
AcDbEntity
8
0
100
AcDbCircle
10
-14.169372279686154
20
-2367.250357959872
30
0
40
1.4999999999999858
210
0
220
0
230
1
0
CIRCLE
5
104
100
AcDbEntity
8
0
100
AcDbCircle
10
-167.66937227968552
20
-2261.3201744131397
30
0
40
1.4999999999999858
210
-2.6813994984148208e-63
220
2.1895288505075267e-47
230
1
0
CIRCLE
5
105
100
AcDbEntity
8
0
100
AcDbCircle
10
-37.669372279685817
20
-2261.3201744131397
30
0
40
1.4999999999999858
210
-2.6813994984148208e-63
220
2.1895288505075267e-47
230
1
0
LWPOLYLINE
5
106
100
AcDbEntity
8
0
100
AcDbPolyline
90
28
70
1
43
0.0
10
-20.169372279685245
20
-2343.0583703789989
10
-20.169372245904441
20
-1876.4346658127888
42
-1.0000000074505806
10
-16.239989050684713
20
-1871.9003579598607
10
-8.1693722796862112
20
-1871.9003579598723
10
-8.1693722796862129
20
-1792.1003579598721
10
-15.612986559109512
20
-1792.100357959856
42
-0.99999999999999989
10
-20.169372279685142
20
-1788.1965970597323
10
-20.169372279686097
20
-1635.0003579598724
10
-185.16937227968612
20
-1635.0003579598724
10
-185.16937224359953
20
-1787.2565706368366
42
-0.9999999925494194
10
-189.36590765699538
20
-1792.1003579598678
10
-197.16937227968626
20
-1792.1003579598721
10
-197.16937227968626
20
-1871.9003579598723
10
-189.34787845840236
20
-1871.9003579598657
42
-0.99999999999999989
10
-185.16937227968566
20
-1875.8594054858643
10
-185.16937227968759
20
-2343.1599906506585
42
-0.99999999999999989
10
-189.3637433114518
20
-2347.450357959864
10
-197.16937227968626
20
-2347.4503579598722
10
-197.16937227968626
20
-2387.250357959872
10
-189.72766986762292
20
-2387.2503579598629
42
-0.99999999999999989
10
-185.16937227968572
20
-2391.1518862629514
10
-185.16937227968609
20
-2395.0003579598724
10
-20.16937227968608
20
-2395.0003579598724
10
-20.169372279686684
20
-2391.5551991934772
42
-0.99999999999999989
10
-15.989857720149077
20
-2387.2503579598642
10
-8.1693722796862112
20
-2387.250357959872
10
-8.1693722796862129
20
-2347.4503579598722
10
-16.081531151468287
20
-2347.4503579598622
42
-0.99999999999999989
0
CIRCLE
5
107
100
AcDbEntity
8
0
100
AcDbCircle
10
-191.16937227968631
20
-1861.000357959872
30
0
40
1.4999999999999858
210
-2.6813994984148208e-63
220
2.1895288505075267e-47
230
1
0
CIRCLE
5
108
100
AcDbEntity
8
0
100
AcDbCircle
10
-191.16937227968631
20
-1805.0003579598724
30
0
40
1.4999999999999858
210
-2.6813994984148208e-63
220
2.1895288505075267e-47
230
1
0
CIRCLE
5
109
100
AcDbEntity
8
0
100
AcDbCircle
10
-14.169372279686154
20
-1805.0003579598724
30
0
40
1.4999999999999858
210
0
220
0
230
1
0
CIRCLE
5
110
100
AcDbEntity
8
0
100
AcDbCircle
10
-14.169372279686154
20
-1861.000357959872
30
0
40
1.4999999999999858
210
0
220
0
230
1
0
CIRCLE
5
111
100
AcDbEntity
8
0
100
AcDbCircle
10
-167.6693722796858
20
-1675.7441744131397
30
0
40
1.4999999999999858
210
-2.6813994984148208e-63
220
2.1895288505075267e-47
230
1
0
CIRCLE
5
112
100
AcDbEntity
8
0
100
AcDbCircle
10
-37.669372279685817
20
-1675.7441744131397
30
0
40
1.4999999999999858
210
-2.6813994984148208e-63
220
2.1895288505075267e-47
230
1
0
LINE
5
113
100
AcDbEntity
8
1
100
AcDbLine
10
-179.169372279686
20
-1693.744174413139
30
0
11
-179.16937227968563
21
-1922.9901355817835
31
0
0
LINE
5
114
100
AcDbEntity
8
1
100
AcDbLine
10
-179.16937227968563
20
-1922.9901355817835
30
0
11
-142.18995733581937
21
-1922.9901355817838
31
0
0
LINE
5
115
100
AcDbEntity
8
1
100
AcDbLine
10
-142.18995733581937
20
-1922.9901355817838
30
0
11
-142.18995733581639
21
-1693.7441744131386
31
0
0
LINE
5
116
100
AcDbEntity
8
1
100
AcDbLine
10
-142.18995733581639
20
-1693.7441744131386
30
0
11
-179.169372279686
21
-1693.744174413139
31
0
0
LINE
5
117
100
AcDbEntity
8
0
100
AcDbLine
10
-176.24437196575596
20
-1694.621674515063
30
0
11
-176.24437196575596
21
-1696.0841745359246
31
0
0
LINE
5
118
100
AcDbEntity
8
0
100
AcDbLine
10
-179.16937215649082
20
-1696.0841745359246
30
0
11
-179.16937215649082
21
-1694.621674515063
31
0
0
LINE
5
119
100
AcDbEntity
8
0
100
AcDbLine
10
-179.16937215649082
20
-1694.621674515063
30
0
11
-173.90437229000523
21
-1694.621674515063
31
0
0
LINE
5
120
100
AcDbEntity
8
0
100
AcDbLine
10
-173.90437229000523
20
-1694.621674515063
30
0
11
-173.90437229000523
21
-1696.0841745359246
31
0
0
ARC
5
121
100
AcDbEntity
8
0
100
AcDbCircle
10
-177.70687206112339
20
-1696.0841745359246
30
0
40
1.4625000953674316
210
0
220
0
230
1
100
AcDbArc
50
-180
51
2.4148365394514667e-06
0
ARC
5
122
100
AcDbEntity
8
0
100
AcDbCircle
10
-175.0743709357877
20
-1696.0841745359246
30
0
40
1.1700000613927841
210
0
220
0
230
1
100
AcDbArc
50
-180
51
2.4148365394514667e-06
0
LINE
5
123
100
AcDbEntity
8
0
100
AcDbLine
10
-176.24437196575596
20
-1701.3491751474683
30
0
11
-179.16937215649082
21
-1698.862924746925
31
0
0
LINE
5
124
100
AcDbEntity
8
0
100
AcDbLine
10
-179.16937215649082
20
-1698.862924746925
30
0
11
-179.16937215649082
21
-1701.7879249376599
31
0
0
ARC
5
125
100
AcDbEntity
8
0
100
AcDbCircle
10
-175.06260974728062
20
-1700.6296874803845
30
0
40
1.1689662933349609
210
0
220
0
230
1
100
AcDbArc
50
-97.768619823301876
51
7.7686186853181631
0
ARC
5
126
100
AcDbEntity
8
0
100
AcDbCircle
10
-175.35258634411289
20
-1700.2950920385663
30
0
40
1.4589405059814451
210
0
220
0
230
1
100
AcDbArc
50
-6.9518255044684301
51
79.006569653009464
0
ARC
5
127
100
AcDbEntity
8
0
100
AcDbCircle
10
-175.32481296383335
20
-1700.6172861379926
30
0
40
1.1752662807703018
210
0
220
0
230
1
100
AcDbArc
50
218.516721488511
51
275.0861029267719
0
LINE
5
128
100
AcDbEntity
8
0
100
AcDbLine
10
-179.16937215649082
20
-1703.5429252905194
30
0
11
-179.16937215649082
21
-1703.2504250330273
31
0
0
LINE
5
129
100
AcDbEntity
8
0
100
AcDbLine
10
-179.16937215649082
20
-1703.2504250330273
30
0
11
-178.87687309109165
21
-1703.2504250330273
31
0
0
LINE
5
130
100
AcDbEntity
8
0
100
AcDbLine
10
-178.87687309109165
20
-1703.2504250330273
30
0
11
-178.87687309109165
21
-1703.5429252905194
31
0
0
LINE
5
131
100
AcDbEntity
8
0
100
AcDbLine
10
-178.87687309109165
20
-1703.5429252905194
30
0
11
-179.16937215649082
21
-1703.5429252905194
31
0
0
LINE
5
132
100
AcDbEntity
8
0
100
AcDbLine
10
-179.16937215649082
20
-1703.5429252905194
30
0
11
-180.33937318645908
21
-1703.1041749042813
31
0
0
LINE
5
133
100
AcDbEntity
8
0
100
AcDbLine
10
-177.70687206112336
20
-1709.2466749471967
30
0
11
-177.12187154613923
21
-1707.7841748518292
31
0
0
ARC
5
134
100
AcDbEntity
8
0
100
AcDbCircle
10
-176.40905244671296
20
-1708.0225767416302
30
0
40
0.75162976980209339
210
0
220
0
230
1
100
AcDbArc
50
-4.1274125090751994
51
161.50753671299822
0
ARC
5
135
100
AcDbEntity
8
0
100
AcDbCircle
10
-178.3760987075467
20
-1708.1635834497754
30
0
40
2.7181166410446167
210
0
220
0
230
1
100
AcDbArc
50
-26.889878521972108
51
1.8322622210385222
0
ARC
5
136
100
AcDbEntity
8
0
100
AcDbCircle
10
-178.41836793743562
20
-1709.0016593260113
30
0
40
0.75250290334224701
210
0
220
0
230
1
100
AcDbArc
50
176.38213144217576
51
340.998006422147
0
ARC
5
137
100
AcDbEntity
8
0
100
AcDbCircle
10
-176.07238157116365
20
-1708.6862983030621
30
0
40
3.1085547804832454
210
0
220
0
230
1
100
AcDbArc
50
154.44676035661027
51
184.9435276799633
0
LINE
5
138
100
AcDbEntity
8
0
100
AcDbLine
10
-175.6593714507718
20
-1710.8554245752637
30
0
11
-175.6593714507718
21
-1712.6104249281232
31
0
0
LINE
5
139
100
AcDbEntity
8
0
100
AcDbLine
10
-173.9043722900052
20
-1711.4404250902478
30
0
11
-178.29187257610749
21
-1711.4404250902478
31
0
0
LINE
5
140
100
AcDbEntity
8
0
100
AcDbLine
10
-179.16937215649079
20
-1712.3179246706311
30
0
11
-179.16937215649079
21
-1712.6104249281232
31
0
0
ARC
5
141
100
AcDbEntity
8
0
100
AcDbCircle
10
-178.39721305691194
20
-1712.2125829977338
30
0
40
0.77931083738803864
210
0
220
0
230
1
100
AcDbArc
50
82.231388828115428
51
187.76860320369877
0
LINE
5
142
100
AcDbEntity
8
0
100
AcDbLine
10
-179.16937215649079
20
-1714.0729250234906
30
0
11
-175.6593714507718
21
-1714.0729250234906
31
0
0
LINE
5
143
100
AcDbEntity
8
0
100
AcDbLine
10
-174.19687135540437
20
-1713.9266742986981
30
0
11
-173.9043722900052
21
-1713.9266742986981
31
0
0
LINE
5
144
100
AcDbEntity
8
0
100
AcDbLine
10
-173.9043722900052
20
-1713.9266742986981
30
0
11
-173.9043722900052
21
-1714.2191757482831
31
0
0
LINE
5
145
100
AcDbEntity
8
0
100
AcDbLine
10
-173.9043722900052
20
-1714.2191757482831
30
0
11
-174.19687135540437
21
-1714.2191757482831
31
0
0
LINE
5
146
100
AcDbEntity
8
0
100
AcDbLine
10
-174.19687135540437
20
-1714.2191757482831
30
0
11
-174.19687135540437
21
-1713.9266742986981
31
0
0
LINE
5
147
100
AcDbEntity
8
0
100
AcDbLine
10
-179.16937215649079
20
-1717.7291740698163
30
0
11
-179.16937215649079
21
-1716.5591754240338
31
0
0
LINE
5
148
100
AcDbEntity
8
0
100
AcDbLine
10
-178.29187257610749
20
-1715.6816734594647
30
0
11
-176.5368710311551
21
-1715.6816734594647
31
0
0
LINE
5
149
100
AcDbEntity
8
0
100
AcDbLine
10
-175.6593714507718
20
-1716.5591754240338
30
0
11
-175.6593714507718
21
-1717.7291740698163
31
0
0
ARC
5
150
100
AcDbEntity
8
0
100
AcDbCircle
10
-178.39721305691194
20
-1716.4538325590436
30
0
40
0.77931083738803864
210
0
220
0
230
1
100
AcDbArc
50
82.231388828115428
51
187.76860320369877
0
ARC
5
151
100
AcDbEntity
8
0
100
AcDbCircle
10
-176.43153055035066
20
-1716.4538325590436
30
0
40
0.77931083738803864
210
0
220
0
230
1
100
AcDbArc
50
-7.7686136763765674
51
97.768621189792043
0
LINE
5
152
100
AcDbEntity
8
0
100
AcDbLine
10
-179.16937215649079
20
-1719.1916741651837
30
0
11
-173.9043722900052
21
-1719.1916741651837
31
0
0
LINE
5
153
100
AcDbEntity
8
0
100
AcDbLine
10
-175.6593714507718
20
-1721.5316738409344
30
0
11
-177.41437299572419
21
-1719.1916741651837
31
0
0
LINE
5
154
100
AcDbEntity
8
0
100
AcDbLine
10
-179.16937215649079
20
-1721.5316738409344
30
0
11
-176.68312175594758
21
-1720.2154244703595
31
0
0
LINE
5
155
100
AcDbEntity
8
0
100
AcDbLine
10
-177.12187154613923
20
-1727.5279249471967
30
0
11
-177.12187154613923
21
-1726.2116731924359
31
0
0
LINE
5
156
100
AcDbEntity
8
0
100
AcDbLine
10
-179.16937215649079
20
-1726.2116731924359
30
0
11
-179.16937215649079
21
-1727.5279249471967
31
0
0
LINE
5
157
100
AcDbEntity
8
0
100
AcDbLine
10
-179.16937215649079
20
-1727.5279249471967
30
0
11
-176.5368710311551
21
-1727.5279249471967
31
0
0
LINE
5
158
100
AcDbEntity
8
0
100
AcDbLine
10
-175.6593714507718
20
-1726.6504253668134
30
0
11
-175.6593714507718
21
-1725.4804243368451
31
0
0
ARC
5
159
100
AcDbEntity
8
0
100
AcDbCircle
10
-178.14562185131501
20
-1726.2116731924359
30
0
40
1.0237500816583633
210
0
220
0
230
1
100
AcDbArc
50
2.4148365394514667e-06
51
180
0
ARC
5
160
100
AcDbEntity
8
0
100
AcDbCircle
10
-176.43153055035066
20
-1726.7557658476178
30
0
40
0.77931083738803864
210
0
220
0
230
1
100
AcDbArc
50
-97.768619823300511
51
7.7686186853208445
0
LINE
5
161
100
AcDbEntity
8
0
100
AcDbLine
10
-177.70687206112331
20
-1731.0379256529156
30
0
11
-177.12187154613918
21
-1729.5754255575482
31
0
0
ARC
5
162
100
AcDbEntity
8
0
100
AcDbCircle
10
-176.40905244671291
20
-1729.8138250631634
30
0
40
0.75162976980209351
210
0
220
0
230
1
100
AcDbArc
50
-4.1274125090754028
51
161.50753671299893
0
ARC
5
163
100
AcDbEntity
8
0
100
AcDbCircle
10
-178.37609870754665
20
-1729.9548329634015
30
0
40
2.7181166410446163
210
0
220
0
230
1
100
AcDbArc
50
-26.889878521972417
51
1.8322622210385222
0
ARC
5
164
100
AcDbEntity
8
0
100
AcDbCircle
10
-178.41836793743556
20
-1730.7929100317303
30
0
40
0.75250290334224701
210
0
220
0
230
1
100
AcDbArc
50
176.38213144217576
51
340.99800642214774
0
ARC
5
165
100
AcDbEntity
8
0
100
AcDbCircle
10
-176.07238157116359
20
-1730.4775490087811
30
0
40
3.1085547804832458
210
0
220
0
230
1
100
AcDbArc
50
154.44676035661027
51
184.9435276799633
0
LINE
5
166
100
AcDbEntity
8
0
100
AcDbLine
10
-177.70687206112331
20
-1734.840423039848
30
0
11
-177.12187154613918
21
-1733.3779253286664
31
0
0
ARC
5
167
100
AcDbEntity
8
0
100
AcDbCircle
10
-176.40905244671291
20
-1733.6163248342816
30
0
40
0.75162976980209351
210
0
220
0
230
1
100
AcDbArc
50
-4.1274125090754028
51
161.50753671299893
0
ARC
5
168
100
AcDbEntity
8
0
100
AcDbCircle
10
-178.37609870754665
20
-1733.7573303503339
30
0
40
2.7181166410446167
210
0
220
0
230
1
100
AcDbArc
50
-26.889878521972417
51
1.8322622210385222
0
ARC
5
169
100
AcDbEntity
8
0
100
AcDbCircle
10
-178.41836793743556
20
-1734.5954098028485
30
0
40
0.75250290334224701
210
0
220
0
230
1
100
AcDbArc
50
176.38213144217576
51
340.99800642214774
0
ARC
5
170
100
AcDbEntity
8
0
100
AcDbCircle
10
-176.07238157116359
20
-1734.2800487798993
30
0
40
3.1085547804832458
210
0
220
0
230
1
100
AcDbArc
50
154.44676035661027
51
184.9435276799633
0
LINE
5
171
100
AcDbEntity
8
0
100
AcDbLine
10
-179.16937215649074
20
-1739.0816749853436
30
0
11
-179.16937215649074
21
-1737.6191725057904
31
0
0
LINE
5
172
100
AcDbEntity
8
0
100
AcDbLine
10
-178.29187257610744
20
-1736.7416729254071
30
0
11
-176.82937248074001
21
-1736.7416729254071
31
0
0
LINE
5
173
100
AcDbEntity
8
0
100
AcDbLine
10
-176.82937248074001
20
-1739.0816749853436
30
0
11
-177.41437299572414
21
-1739.0816749853436
31
0
0
LINE
5
174
100
AcDbEntity
8
0
100
AcDbLine
10
-177.41437299572414
20
-1739.0816749853436
30
0
11
-177.41437299572414
21
-1736.7416729254071
31
0
0
ARC
5
175
100
AcDbEntity
8
0
100
AcDbCircle
10
-178.39721305691188
20
-1737.5138344091717
30
0
40
0.77931083738803864
210
0
220
0
230
1
100
AcDbArc
50
82.231388828117517
51
187.76860320369849
0
ARC
5
176
100
AcDbEntity
8
0
100
AcDbCircle
10
-176.82937248074001
20
-1737.9116739553754
30
0
40
1.1700000613927841
210
0
220
0
230
1
100
AcDbArc
50
-90
51
90.000005008957075
0
LINE
5
177
100
AcDbEntity
8
0
100
AcDbLine
10
-179.16937215649074
20
-1740.6904234213177
30
0
11
-175.65937145077174
21
-1740.6904234213177
31
0
0
LINE
5
178
100
AcDbEntity
8
0
100
AcDbLine
10
-175.65937145077174
20
-1740.6904234213177
30
0
11
-175.65937145077174
21
-1743.3229221624676
31
0
0
LINE
5
179
100
AcDbEntity
8
0
100
AcDbLine
10
-176.53687103115504
20
-1744.2004217428509
30
0
11
-179.16937215649074
21
-1744.2004217428509
31
0
0
LINE
5
180
100
AcDbEntity
8
0
100
AcDbLine
10
-179.16937215649074
20
-1742.4454225820843
30
0
11
-175.65937145077174
21
-1742.4454225820843
31
0
0
ARC
5
181
100
AcDbEntity
8
0
100
AcDbCircle
10
-176.4315305503506
20
-1743.4282650274579
30
0
40
0.77931083738803864
210
0
220
0
230
1
100
AcDbArc
50
-97.768619823302586
51
7.7686186853208445
0
LINE
5
182
100
AcDbEntity
8
0
100
AcDbLine
10
-173.90437229000514
20
-1745.9554256719891
30
0
11
-179.16937215649074
21
-1745.9554256719891
31
0
0
LINE
5
183
100
AcDbEntity
8
0
100
AcDbLine
10
-179.16937215649074
20
-1745.9554256719891
30
0
11
-179.16937215649074
21
-1747.4179281515424
31
0
0
LINE
5
184
100
AcDbEntity
8
0
100
AcDbLine
10
-178.29187257610744
20
-1748.2954277319257
30
0
11
-176.53687103115504
21
-1748.2954277319257
31
0
0
LINE
5
185
100
AcDbEntity
8
0
100
AcDbLine
10
-175.65937145077174
20
-1747.4179281515424
30
0
11
-175.65937145077174
21
-1745.9554256719891
31
0
0
ARC
5
186
100
AcDbEntity
8
0
100
AcDbCircle
10
-178.39721305691188
20
-1747.523266248161
30
0
40
0.77931083738803864
210
0
220
0
230
1
100
AcDbArc
50
172.23137084203395
51
277.76861618083728
0
ARC
5
187
100
AcDbEntity
8
0
100
AcDbCircle
10
-176.4315305503506
20
-1747.523266248161
30
0
40
0.77931083738803864
210
0
220
0
230
1
100
AcDbArc
50
-97.768619823302586
51
7.7686186853208445
0
LINE
5
188
100
AcDbEntity
8
0
100
AcDbLine
10
-173.90437229000511
20
-1749.9041761678998
30
0
11
-178.29187257610741
21
-1749.9041761678998
31
0
0
ARC
5
189
100
AcDbEntity
8
0
100
AcDbCircle
10
-178.39721305691185
20
-1750.6763328832928
30
0
40
0.77931083738803864
210
0
220
0
230
1
100
AcDbArc
50
82.231388828115428
51
187.76860320369849
0
LINE
5
190
100
AcDbEntity
8
0
100
AcDbLine
10
-180.92437131725731
20
-1751.9516767782513
30
0
11
-180.92437131725731
21
-1752.5366796774213
31
0
0
LINE
5
191
100
AcDbEntity
8
0
100
AcDbLine
10
-180.92437131725731
20
-1752.5366796774213
30
0
11
-175.65937145077172
21
-1754.2916788381879
31
0
0
LINE
5
192
100
AcDbEntity
8
0
100
AcDbLine
10
-175.65937145077172
20
-1751.9516767782513
30
0
11
-179.16937215649071
21
-1753.1216778082196
31
0
0
LINE
5
193
100
AcDbEntity
8
0
100
AcDbLine
10
-173.90437229000511
20
-1758.094178609306
30
0
11
-179.16937215649071
21
-1758.094178609306
31
0
0
LINE
5
194
100
AcDbEntity
8
0
100
AcDbLine
10
-179.16937215649071
20
-1758.094178609306
30
0
11
-179.16937215649071
21
-1759.5566810888592
31
0
0
LINE
5
195
100
AcDbEntity
8
0
100
AcDbLine
10
-178.29187257610741
20
-1760.4341806692426
30
0
11
-176.53687103115502
21
-1760.4341806692426
31
0
0
LINE
5
196
100
AcDbEntity
8
0
100
AcDbLine
10
-175.65937145077172
20
-1759.5566810888592
30
0
11
-175.65937145077172
21
-1758.094178609306
31
0
0
ARC
5
197
100
AcDbEntity
8
0
100
AcDbCircle
10
-178.39721305691185
20
-1759.6620191854779
30
0
40
0.77931083738803864
210
0
220
0
230
1
100
AcDbArc
50
172.23137084203395
51
277.76861618083933
0
ARC
5
198
100
AcDbEntity
8
0
100
AcDbCircle
10
-176.43153055035057
20
-1759.6620191854779
30
0
40
0.77931083738803864
210
0
220
0
230
1
100
AcDbArc
50
-97.768619823302586
51
7.7686186853208445
0
LINE
5
199
100
AcDbEntity
8
0
100
AcDbLine
10
-177.99937112652245
20
-1761.8966783804242
30
0
11
-176.82937248073998
21
-1761.8966783804242
31
0
0
LINE
5
200
100
AcDbEntity
8
0
100
AcDbLine
10
-176.82937248073998
20
-1764.2366804403607
30
0
11
-177.99937112652245
21
-1764.2366804403607
31
0
0
ARC
5
201
100
AcDbEntity
8
0
100
AcDbCircle
10
-176.82937248073998
20
-1763.0666794103925
30
0
40
1.1700000613927841
210
0
220
0
230
1
100
AcDbArc
50
-90
51
90.000005008955682
0
ARC
5
202
100
AcDbEntity
8
0
100
AcDbCircle
10
-177.99937112652245
20
-1763.0666794103925
30
0
40
1.1700000613927841
210
0
220
0
230
1
100
AcDbArc
50
90.000005008955682
51
270
0
LINE
5
203
100
AcDbEntity
8
0
100
AcDbLine
10
-179.16937215649071
20
-1765.5529274267499
30
0
11
-175.65937145077172
21
-1767.8929294866864
31
0
0
LINE
5
204
100
AcDbEntity
8
0
100
AcDbLine
10
-175.65937145077172
20
-1765.5529274267499
30
0
11
-179.16937215649071
21
-1767.8929294866864
31
0
0
LINE
5
205
100
AcDbEntity
8
0
100
AcDbLine
10
-175.65937145077172
20
-1771.2566818517987
30
0
11
-175.65937145077172
21
-1773.0116810125653
31
0
0
LINE
5
206
100
AcDbEntity
8
0
100
AcDbLine
10
-173.90437229000511
20
-1771.841679982597
30
0
11
-178.29187257610741
21
-1771.841679982597
31
0
0
LINE
5
207
100
AcDbEntity
8
0
100
AcDbLine
10
-179.16937215649071
20
-1772.7191795629803
30
0
11
-179.16937215649071
21
-1773.0116810125653
31
0
0
ARC
5
208
100
AcDbEntity
8
0
100
AcDbCircle
10
-178.39721305691185
20
-1772.6138366979901
30
0
40
0.77931083738803864
210
0
220
0
230
1
100
AcDbArc
50
82.231388828115428
51
187.76860320369849
0
LINE
5
209
100
AcDbEntity
8
0
100
AcDbLine
10
-177.99937112652245
20
-1774.3279279989545
30
0
11
-176.82937248073998
21
-1774.3279279989545
31
0
0
LINE
5
210
100
AcDbEntity
8
0
100
AcDbLine
10
-176.82937248073995
20
-1776.667930058891
30
0
11
-177.99937112652242
21
-1776.667930058891
31
0
0
ARC
5
211
100
AcDbEntity
8
0
100
AcDbCircle
10
-176.82937248073995
20
-1775.4979337972943
30
0
40
1.1700000613927841
210
0
220
0
230
1
100
AcDbArc
50
-90
51
90.000005008955682
0
ARC
5
212
100
AcDbEntity
8
0
100
AcDbCircle
10
-177.99937112652242
20
-1775.4979337972943
30
0
40
1.1700000613927841
210
0
220
0
230
1
100
AcDbArc
50
90.000005008955682
51
270
0
LINE
5
213
100
AcDbEntity
8
0
100
AcDbLine
10
-180.92437131725728
20
-1778.2766832632367
30
0
11
-175.65937145077169
21
-1778.2766832632367
31
0
0
LINE
5
214
100
AcDbEntity
8
0
100
AcDbLine
10
-175.65937145077169
20
-1778.2766832632367
30
0
11
-175.65937145077169
21
-1779.7391809744183
31
0
0
LINE
5
215
100
AcDbEntity
8
0
100
AcDbLine
10
-176.53687103115499
20
-1780.6166757864301
30
0
11
-178.29187257610738
21
-1780.6166757864301
31
0
0
LINE
5
216
100
AcDbEntity
8
0
100
AcDbLine
10
-179.16937215649068
20
-1779.7391809744183
30
0
11
-179.16937215649068
21
-1778.2766832632367
31
0
0
ARC
5
217
100
AcDbEntity
8
0
100
AcDbCircle
10
-176.43153055035054
20
-1779.8445238394086
30
0
40
0.77931083738803864
210
0
220
0
230
1
100
AcDbArc
50
-97.768619823300511
51
7.7686186853208445
0
ARC
5
218
100
AcDbEntity
8
0
100
AcDbCircle
10
-178.39721305691182
20
-1779.8445238394086
30
0
40
0.77931083738803864
210
0
220
0
230
1
100
AcDbArc
50
172.2313708420337
51
277.76861618083933
0
LINE
5
219
100
AcDbEntity
8
0
100
AcDbLine
10
-179.16937215649068
20
-1782.3716749471967
30
0
11
-179.16937215649068
21
-1782.0791734976117
31
0
0
LINE
5
220
100
AcDbEntity
8
0
100
AcDbLine
10
-179.16937215649068
20
-1782.0791734976117
30
0
11
-178.87687309109151
21
-1782.0791734976117
31
0
0
LINE
5
221
100
AcDbEntity
8
0
100
AcDbLine
10
-178.87687309109151
20
-1782.0791734976117
30
0
11
-178.87687309109151
21
-1782.3716749471967
31
0
0
LINE
5
222
100
AcDbEntity
8
0
100
AcDbLine
10
-178.87687309109151
20
-1782.3716749471967
30
0
11
-179.16937215649068
21
-1782.3716749471967
31
0
0
LINE
5
223
100
AcDbEntity
8
0
100
AcDbLine
10
-179.16937215649068
20
-1782.3716749471967
30
0
11
-180.33937318645894
21
-1781.9329275411908
31
0
0
LINE
5
224
100
AcDbEntity
8
0
100
AcDbLine
10
-175.07437093578756
20
-1786.1741747183148
30
0
11
-173.90437229000509
21
-1787.6366724294965
31
0
0
LINE
5
225
100
AcDbEntity
8
0
100
AcDbLine
10
-173.90437229000509
20
-1787.6366724294965
30
0
11
-179.16937215649068
21
-1787.6366724294965
31
0
0
LINE
5
226
100
AcDbEntity
8
0
100
AcDbLine
10
-179.16937215649068
20
-1786.1741747183148
30
0
11
-179.16937215649068
21
-1789.0991796774213
31
0
0
LINE
5
227
100
AcDbEntity
8
0
100
AcDbLine
10
-179.16937215649068
20
-1792.7554334921185
30
0
11
-175.65937145077169
21
-1795.0954355520551
31
0
0
LINE
5
228
100
AcDbEntity
8
0
100
AcDbLine
10
-175.65937145077169
20
-1792.7554334921185
30
0
11
-179.16937215649068
21
-1795.0954355520551
31
0
0
LINE
5
229
100
AcDbEntity
8
0
100
AcDbLine
10
-175.0743709357875
20
-1798.7516798300092
30
0
11
-173.90437229000503
21
-1800.2141775411908
31
0
0
LINE
5
230
100
AcDbEntity
8
0
100
AcDbLine
10
-173.90437229000503
20
-1800.2141775411908
30
0
11
-179.16937215649062
21
-1800.2141775411908
31
0
0
LINE
5
231
100
AcDbEntity
8
0
100
AcDbLine
10
-179.16937215649062
20
-1798.7516798300092
30
0
11
-179.16937215649062
21
-1801.6766847891156
31
0
0
LINE
5
232
100
AcDbEntity
8
0
100
AcDbLine
10
-176.24437196575576
20
-1805.6254305166547
30
0
11
-179.16937215649062
21
-1803.1391825002972
31
0
0
LINE
5
233
100
AcDbEntity
8
0
100
AcDbLine
10
-179.16937215649062
20
-1803.1391825002972
30
0
11
-179.16937215649062
21
-1806.0641874594037
31
0
0
ARC
5
234
100
AcDbEntity
8
0
100
AcDbCircle
10
-175.06260974728042
20
-1804.9059500021283
30
0
40
1.1689662933349609
210
0
220
0
230
1
100
AcDbArc
50
-97.768619823303254
51
7.7686186853181631
0
ARC
5
235
100
AcDbEntity
8
0
100
AcDbCircle
10
-175.35258634411269
20
-1804.5713533682172
30
0
40
1.4589405059814451
210
0
220
0
230
1
100
AcDbArc
50
-6.9518255044685819
51
79.006569653010558
0
ARC
5
236
100
AcDbEntity
8
0
100
AcDbCircle
10
-175.32481296383315
20
-1804.8935426992718
30
0
40
1.1752662807703018
210
0
220
0
230
1
100
AcDbArc
50
218.51672148851011
51
275.08610292677054
0
LINE
5
237
100
AcDbEntity
8
0
100
AcDbLine
10
-179.16937215649062
20
-1810.0129427236859
30
0
11
-175.65937145077163
21
-1810.0129427236859
31
0
0
LINE
5
238
100
AcDbEntity
8
0
100
AcDbLine
10
-175.65937145077163
20
-1810.0129427236859
30
0
11
-175.65937145077163
21
-1812.6454366964642
31
0
0
LINE
5
239
100
AcDbEntity
8
0
100
AcDbLine
10
-176.53687103115493
20
-1813.5229410452191
30
0
11
-179.16937215649062
21
-1813.5229410452191
31
0
0
LINE
5
240
100
AcDbEntity
8
0
100
AcDbLine
10
-179.16937215649062
20
-1811.7679418844525
30
0
11
-175.65937145077163
21
-1811.7679418844525
31
0
0
ARC
5
241
100
AcDbEntity
8
0
100
AcDbCircle
10
-176.43153055035049
20
-1812.7507795614545
30
0
40
0.77931083738803864
210
0
220
0
230
1
100
AcDbArc
50
-97.768619823302586
51
7.7686186853208445
0
LINE
5
242
100
AcDbEntity
8
0
100
AcDbLine
10
-179.16937215649062
20
-1815.2779402059857
30
0
11
-175.65937145077163
21
-1815.2779402059857
31
0
0
LINE
5
243
100
AcDbEntity
8
0
100
AcDbLine
10
-175.65937145077163
20
-1815.2779402059857
30
0
11
-175.65937145077163
21
-1817.910434178764
31
0
0
LINE
5
244
100
AcDbEntity
8
0
100
AcDbLine
10
-176.53687103115493
20
-1818.7879385275189
30
0
11
-179.16937215649062
21
-1818.7879385275189
31
0
0
LINE
5
245
100
AcDbEntity
8
0
100
AcDbLine
10
-179.16937215649062
20
-1817.0329393667523
30
0
11
-175.65937145077163
21
-1817.0329393667523
31
0
0
ARC
5
246
100
AcDbEntity
8
0
100
AcDbCircle
10
-176.43153055035049
20
-1818.0157770437543
30
0
40
0.77931083738803864
210
0
220
0
230
1
100
AcDbArc
50
-97.768619823302586
51
7.7686186853208445
0
LINE
5
247
100
AcDbEntity
8
0
100
AcDbLine
10
-180.9243713172572
20
-1822.882939748222
30
0
11
-175.6593714507716
21
-1822.882939748222
31
0
0
LINE
5
248
100
AcDbEntity
8
0
100
AcDbLine
10
-175.6593714507716
20
-1822.882939748222
30
0
11
-175.6593714507716
21
-1824.3454374594037
31
0
0
LINE
5
249
100
AcDbEntity
8
0
100
AcDbLine
10
-176.5368710311549
20
-1825.2229322714154
30
0
11
-178.29187257610729
21
-1825.2229322714154
31
0
0
LINE
5
250
100
AcDbEntity
8
0
100
AcDbLine
10
-179.1693721564906
20
-1824.3454374594037
30
0
11
-179.1693721564906
21
-1822.882939748222
31
0
0
ARC
5
251
100
AcDbEntity
8
0
100
AcDbCircle
10
-176.43153055035046
20
-1824.4507803243939
30
0
40
0.77931083738803864
210
0
220
0
230
1
100
AcDbArc
50
-97.768619823302586
51
7.7686186853208445
0
ARC
5
252
100
AcDbEntity
8
0
100
AcDbCircle
10
-178.39721305691174
20
-1824.4507803243939
30
0
40
0.77931083738803864
210
0
220
0
230
1
100
AcDbArc
50
172.23137084203395
51
277.76861618083728
0
LINE
5
253
100
AcDbEntity
8
0
100
AcDbLine
10
-173.904372290005
20
-1826.8316854757611
30
0
11
-178.29187257610729
21
-1826.8316854757611
31
0
0
ARC
5
254
100
AcDbEntity
8
0
100
AcDbCircle
10
-178.39721305691174
20
-1827.6038374227826
30
0
40
0.77931083738803864
210
0
220
0
230
1
100
AcDbArc
50
82.231388828115428
51
187.76860320369849
0
LINE
5
255
100
AcDbEntity
8
0
100
AcDbLine
10
-180.9243713172572
20
-1828.8791860861127
30
0
11
-180.9243713172572
21
-1829.4641794485394
31
0
0
LINE
5
256
100
AcDbEntity
8
0
100
AcDbLine
10
-180.9243713172572
20
-1829.4641794485394
30
0
11
-175.6593714507716
21
-1831.2191881460492
31
0
0
LINE
5
257
100
AcDbEntity
8
0
100
AcDbLine
10
-175.6593714507716
20
-1828.8791860861127
30
0
11
-179.1693721564906
21
-1830.0491823477093
31
0
0
ENDSEC
0
SECTION
2
OBJECTS
0
DICTIONARY
5
C
100
AcDbDictionary
3
ACAD_GROUP
350
D
3
ACAD_MLINESTYLE
350
17
0
DICTIONARY
5
D
100
AcDbDictionary
0
DICTIONARY
5
1A
330
C
100
AcDbDictionary
0
DICTIONARY
5
17
100
AcDbDictionary
0
ENDSEC
0
EOF
