0
SECTION
2
HEADER
9
$INSUNITS
70
4
9
$ACADVER
1
AC1014
9
$HANDSEED
5
FFFF
0
ENDSEC
0
SECTION
2
TABLES
0
TABLE
2
VPORT
5
8
100
AcDbSymbolTable
0
ENDTAB
0
TABLE
2
LTYPE
5
5
100
AcDbSymbolTable
0
LTYPE
5
14
100
AcDbSymbolTableRecord
100
AcDbLinetypeTableRecord
2
BYBLOCK
70
0
0
LTYPE
5
15
100
AcDbSymbolTableRecord
100
AcDbLinetypeTableRecord
2
BYLAYER
70
0
0
LTYPE
5
16
100
AcDbSymbolTableRecord
100
AcDbLinetypeTableRecord
2
DASHED
70
0
3
Dashed __ __ __ __ __ __ __ __ __ __ __ __ __ _
72
65
73
2
40
0.75
49
0.5
74
0
49
-0.25
74
0
0
ENDTAB
0
TABLE
2
LAYER
5
2
100
AcDbSymbolTable
70
3
0
LAYER
5
50
100
AcDbSymbolTableRecord
100
AcDbLayerTableRecord
2
1
70
0
62
7
6
DASHED
0
LAYER
5
51
100
AcDbSymbolTableRecord
100
AcDbLayerTableRecord
2
0
70
0
62
7
6
CONTINUOUS
0
ENDTAB
0
TABLE
2
STYLE
5
3
100
AcDbSymbolTable
70
1
0
STYLE
5
11
100
AcDbSymbolTableRecord
100
AcDbTextStyleTableRecord
2
STANDARD
70
0
0
ENDTAB
0
TABLE
2
VIEW
5
6
100
AcDbSymbolTable
70
0
0
ENDTAB
0
TABLE
2
UCS
5
7
100
AcDbSymbolTable
70
0
0
ENDTAB
0
TABLE
2
APPID
5
9
100
AcDbSymbolTable
70
2
0
APPID
5
12
100
AcDbSymbolTableRecord
100
AcDbRegAppTableRecord
2
ACAD
70
0
0
ENDTAB
0
TABLE
2
DIMSTYLE
5
A
100
AcDbSymbolTable
70
1
0
ENDTAB
0
TABLE
2
BLOCK_RECORD
5
1
100
AcDbSymbolTable
70
1
0
BLOCK_RECORD
5
1F
100
AcDbSymbolTableRecord
100
AcDbBlockTableRecord
2
*MODEL_SPACE
0
BLOCK_RECORD
5
1B
100
AcDbSymbolTableRecord
100
AcDbBlockTableRecord
2
*PAPER_SPACE
0
ENDTAB
0
ENDSEC
0
SECTION
2
BLOCKS
0
BLOCK
5
20
100
AcDbEntity
100
AcDbBlockBegin
2
*MODEL_SPACE
0
ENDBLK
5
21
100
AcDbEntity
100
AcDbBlockEnd
0
BLOCK
5
1C
100
AcDbEntity
100
AcDbBlockBegin
2
*PAPER_SPACE
0
ENDBLK
5
1D
100
AcDbEntity
100
AcDbBlockEnd
0
ENDSEC
0
SECTION
2
ENTITIES
0
POINT
5
100
100
AcDbEntity
8
0
100
AcDbPoint
10
-419.27482573979432
20
-1269.0991574975569
30
0
0
LWPOLYLINE
5
101
100
AcDbEntity
8
0
100
AcDbPolyline
90
8
70
1
43
0.0
10
-572.27564514652363
20
-1277.1983149951138
10
-431.27564514652363
20
-1277.1983149951145
42
-0.41421356237309503
10
-419.27564514652363
20
-1289.1983149951145
10
-419.27564514652374
20
-1365.1983149951141
42
-0.41421356237309503
10
-431.27564514652363
20
-1377.1983149951141
10
-572.27564514652363
20
-1377.1983149951147
42
-0.41421356237309503
10
-584.27564514652363
20
-1365.1983149951147
10
-584.2756451465242
20
-1289.1983149951145
42
-0.41421356237309503
0
LWPOLYLINE
5
102
100
AcDbEntity
8
0
100
AcDbPolyline
90
20
70
1
43
0.0
10
-419.27564514652374
20
-1257.1983149951138
10
-584.2756451465234
20
-1257.1983149951138
42
0.41421356237309681
10
-596.2756451465234
20
-1269.1983149951145
10
-596.27564514652363
20
-1424.5983149951146
10
-588.41638947733782
20
-1424.5983149642641
42
-0.9999999925494194
10
-584.2756451465234
20
-1428.9404614826151
10
-584.27564517961957
20
-1444.356247376995
42
-1.0000000074505806
10
-588.30901043410006
20
-1448.7983149951149
10
-596.27564514652386
20
-1448.7983149951149
10
-596.27564514652386
20
-1484.1983149951145
42
0.41421356237308815
10
-593.27564514652386
20
-1487.1983149951145
10
-410.2756451465234
20
-1487.1983149951145
42
0.41421356237308815
10
-407.27564514652335
20
-1484.1983149951145
10
-407.27564514652386
20
-1448.7983149951149
10
-414.76266950608556
20
-1448.7983149951149
42
-0.99999999999999989
10
-419.27564514652408
20
-1444.8444496877469
10
-419.27564514652369
20
-1428.6246923899112
42
-0.99999999999999989
10
-414.8272426158764
20
-1424.5983149951142
10
-407.27564514652386
20
-1424.5983149951146
10
-407.27564514652386
20
-1269.1983149951145
42
0.41421356237310025
0
CIRCLE
5
103
100
AcDbEntity
8
0
100
AcDbCircle
10
-465.27564514652397
20
-1479.6983149951145
30
0
40
1.5000000000000568
210
1.3095677717546175e-50
220
6.0138595723170451e-63
230
1
0
CIRCLE
5
104
100
AcDbEntity
8
0
100
AcDbCircle
10
-572.27564514652363
20
-1479.6983149951145
30
0
40
1.5000000000000568
210
1.3095677717546175e-50
220
6.0138595723170451e-63
230
1
0
CIRCLE
5
105
100
AcDbEntity
8
0
100
AcDbCircle
10
-431.27564514652363
20
-1479.6983149951145
30
0
40
1.5000000000000568
210
1.3095677717546175e-50
220
6.0138595723170451e-63
230
1
0
CIRCLE
5
106
100
AcDbEntity
8
0
100
AcDbCircle
10
-538.27564514652408
20
-1479.6983149951145
30
0
40
1.5000000000000568
210
1.3095677717546175e-50
220
6.0138595723170451e-63
230
1
0
CIRCLE
5
107
100
AcDbEntity
8
0
100
AcDbCircle
10
-590.27564514652363
20
-1459.1983149951145
30
0
40
1.5000000000000002
210
1.3095677718572e-50
220
1.2027719144631812e-62
230
1
0
CIRCLE
5
108
100
AcDbEntity
8
0
100
AcDbCircle
10
-590.27564514652363
20
-1297.1983149951141
30
0
40
1.5000000000000002
210
1.3095677718572e-50
220
1.2027719144631812e-62
230
1
0
CIRCLE
5
109
100
AcDbEntity
8
0
100
AcDbCircle
10
-590.27564514652363
20
-1414.1983149951145
30
0
40
1.5000000000000002
210
1.3095677718572e-50
220
1.2027719144631812e-62
230
1
0
CIRCLE
5
110
100
AcDbEntity
8
0
100
AcDbCircle
10
-590.27564514652363
20
-1269.1983149951143
30
0
40
1.5000000000000002
210
1.3095677718572e-50
220
1.2027719144631812e-62
230
1
0
CIRCLE
5
111
100
AcDbEntity
8
0
100
AcDbCircle
10
-590.27564514652363
20
-1357.1983149951145
30
0
40
1.5000000000000002
210
1.3095677718572e-50
220
1.2027719144631812e-62
230
1
0
CIRCLE
5
112
100
AcDbEntity
8
0
100
AcDbCircle
10
-413.27564514652352
20
-1357.1983149951145
30
0
40
1.5000000000000002
210
-2.7070920051215674e-47
220
0
230
1
0
CIRCLE
5
113
100
AcDbEntity
8
0
100
AcDbCircle
10
-413.27564514652352
20
-1269.1983149951143
30
0
40
1.5000000000000002
210
-2.7070920051215674e-47
220
0
230
1
0
CIRCLE
5
114
100
AcDbEntity
8
0
100
AcDbCircle
10
-413.27564514652352
20
-1414.1983149951145
30
0
40
1.5000000000000002
210
-2.7070920051215674e-47
220
0
230
1
0
CIRCLE
5
115
100
AcDbEntity
8
0
100
AcDbCircle
10
-413.27564514652352
20
-1297.1983149951141
30
0
40
1.5000000000000002
210
-2.7070920051215674e-47
220
0
230
1
0
CIRCLE
5
116
100
AcDbEntity
8
0
100
AcDbCircle
10
-413.27564514652352
20
-1459.1983149951145
30
0
40
1.5000000000000002
210
-2.7070920051215674e-47
220
0
230
1
0
LINE
5
117
100
AcDbEntity
8
1
100
AcDbLine
10
-584.27564514652363
20
-1275
30
0
11
-419.27482573979432
21
-1275
31
0
0
LINE
5
118
100
AcDbEntity
8
1
100
AcDbLine
10
-419.27482573979432
20
-1275
30
0
11
-419.27482573979432
21
-1263.1983149951138
31
0
0
LINE
5
119
100
AcDbEntity
8
1
100
AcDbLine
10
-419.27482573979432
20
-1263.1983149951138
30
0
11
-584.27564514652363
21
-1263.1983149951138
31
0
0
LINE
5
120
100
AcDbEntity
8
1
100
AcDbLine
10
-584.27564514652363
20
-1263.1983149951138
30
0
11
-584.27564514652363
21
-1275
31
0
0
LINE
5
121
100
AcDbEntity
8
0
100
AcDbLine
10
-578.0446131326305
20
-1265.8647865956464
30
0
11
-576.58211303726307
21
-1265.8647865956464
31
0
0
LINE
5
122
100
AcDbEntity
8
0
100
AcDbLine
10
-576.58211303726307
20
-1268.7897867863812
30
0
11
-578.0446131326305
21
-1268.7897867863812
31
0
0
LINE
5
123
100
AcDbEntity
8
0
100
AcDbLine
10
-578.0446131326305
20
-1268.7897867863812
30
0
11
-578.0446131326305
21
-1263.5247863238492
31
0
0
LINE
5
124
100
AcDbEntity
8
0
100
AcDbLine
10
-578.0446131326305
20
-1263.5247863238492
30
0
11
-576.58211303726307
21
-1263.5247863238492
31
0
0
ARC
5
125
100
AcDbEntity
8
0
100
AcDbCircle
10
-576.58211303726307
20
-1267.3272866910138
30
0
40
1.4625000953674316
210
0
220
0
230
1
100
AcDbArc
50
-89.99999931675508
51
90.000002504478786
0
ARC
5
126
100
AcDbEntity
8
0
100
AcDbCircle
10
-576.58211303726307
20
-1264.6947864597478
30
0
40
1.1700000613927839
210
0
220
0
230
1
100
AcDbArc
50
-89.99999931675508
51
90.000002504479937
0
LINE
5
127
100
AcDbEntity
8
0
100
AcDbLine
10
-573.80336297527424
20
-1268.7897867863812
30
0
11
-572.04836262241474
21
-1268.7897867863812
31
0
0
LINE
5
128
100
AcDbEntity
8
0
100
AcDbLine
10
-570.87836278453938
20
-1267.6197866504826
30
0
11
-570.87836278453938
21
-1267.0347864335217
31
0
0
LINE
5
129
100
AcDbEntity
8
0
100
AcDbLine
10
-572.04836262241474
20
-1265.8647865956464
30
0
11
-573.80336297527424
21
-1265.8647865956464
31
0
0
LINE
5
130
100
AcDbEntity
8
0
100
AcDbLine
10
-573.80336297527424
20
-1265.8647865956464
30
0
11
-573.80336297527424
21
-1263.5247863238492
31
0
0
LINE
5
131
100
AcDbEntity
8
0
100
AcDbLine
10
-573.80336297527424
20
-1263.5247863238492
30
0
11
-570.87836278453938
21
-1263.5247863238492
31
0
0
ARC
5
132
100
AcDbEntity
8
0
100
AcDbCircle
10
-571.90790785328022
20
-1267.7602423136868
30
0
40
1.0390811413526535
210
0
220
0
230
1
100
AcDbArc
50
-97.768629157977514
51
7.768616180843197
0
ARC
5
133
100
AcDbEntity
8
0
100
AcDbCircle
10
-571.90790785328022
20
-1266.8943310683408
30
0
40
1.0390811413526535
210
0
220
0
230
1
100
AcDbArc
50
-7.7686198233008641
51
97.768618685314578
0
LINE
5
134
100
AcDbEntity
8
0
100
AcDbLine
10
-569.12336243167988
20
-1268.7897867863812
30
0
11
-569.41586268917195
21
-1268.7897867863812
31
0
0
LINE
5
135
100
AcDbEntity
8
0
100
AcDbLine
10
-569.41586268917195
20
-1268.7897867863812
30
0
11
-569.41586268917195
21
-1268.4972865288892
31
0
0
LINE
5
136
100
AcDbEntity
8
0
100
AcDbLine
10
-569.41586268917195
20
-1268.4972865288892
30
0
11
-569.12336243167988
21
-1268.4972865288892
31
0
0
LINE
5
137
100
AcDbEntity
8
0
100
AcDbLine
10
-569.12336243167988
20
-1268.4972865288892
30
0
11
-569.12336243167988
21
-1268.7897867863812
31
0
0
LINE
5
138
100
AcDbEntity
8
0
100
AcDbLine
10
-569.12336243167988
20
-1268.7897867863812
30
0
11
-569.56211222187153
21
-1269.9597866242566
31
0
0
LINE
5
139
100
AcDbEntity
8
0
100
AcDbLine
10
-563.41961277500263
20
-1267.3272866910138
30
0
11
-564.88211287037007
21
-1266.7422867720761
31
0
0
ARC
5
140
100
AcDbEntity
8
0
100
AcDbCircle
10
-564.64371098056904
20
-1266.0294670766034
30
0
40
0.75162976980209351
210
0
220
0
230
1
100
AcDbArc
50
85.87258749093435
51
251.50753671299475
0
ARC
5
141
100
AcDbEntity
8
0
100
AcDbCircle
10
-564.5027042724239
20
-1267.9965133374371
30
0
40
2.7181166410446167
210
0
220
0
230
1
100
AcDbArc
50
63.11012147802893
51
91.832262221038604
0
ARC
5
142
100
AcDbEntity
8
0
100
AcDbCircle
10
-563.66462839618794
20
-1268.0387837594189
30
0
40
0.75250290334224701
210
0
220
0
230
1
100
AcDbArc
50
-93.617868557842215
51
70.998006422155228
0
ARC
5
143
100
AcDbEntity
8
0
100
AcDbCircle
10
-563.97998941913715
20
-1265.6927956050076
30
0
40
3.1085547804832458
210
0
220
0
230
1
100
AcDbArc
50
244.4467603566107
51
274.943527679959
0
LINE
5
144
100
AcDbEntity
8
0
100
AcDbLine
10
-561.81086195484272
20
-1265.2797863786855
30
0
11
-560.05586040989033
21
-1265.2797863786855
31
0
0
LINE
5
145
100
AcDbEntity
8
0
100
AcDbLine
10
-561.22586143985859
20
-1263.5247863238492
30
0
11
-561.22586143985859
21
-1267.9122866099515
31
0
0
LINE
5
146
100
AcDbEntity
8
0
100
AcDbLine
10
-560.34836185947529
20
-1268.7897867863812
30
0
11
-560.05586040989033
21
-1268.7897867863812
31
0
0
ARC
5
147
100
AcDbEntity
8
0
100
AcDbCircle
10
-560.45370234027973
20
-1268.0176282828488
30
0
40
0.77931083738803864
210
0
220
0
230
1
100
AcDbArc
50
172.23138882811151
51
277.76860320369707
0
LINE
5
148
100
AcDbEntity
8
0
100
AcDbLine
10
-558.59336269870869
20
-1268.7897867863812
30
0
11
-558.59336269870869
21
-1265.2797863786855
31
0
0
LINE
5
149
100
AcDbEntity
8
0
100
AcDbLine
10
-558.73961342350117
20
-1263.817286283318
30
0
11
-558.73961342350117
21
-1263.5247863238492
31
0
0
LINE
5
150
100
AcDbEntity
8
0
100
AcDbLine
10
-558.73961342350117
20
-1263.5247863238492
30
0
11
-558.44711197391621
21
-1263.5247863238492
31
0
0
LINE
5
151
100
AcDbEntity
8
0
100
AcDbLine
10
-558.44711197391621
20
-1263.5247863238492
30
0
11
-558.44711197391621
21
-1263.817286283318
31
0
0
LINE
5
152
100
AcDbEntity
8
0
100
AcDbLine
10
-558.44711197391621
20
-1263.817286283318
30
0
11
-558.73961342350117
21
-1263.817286283318
31
0
0
LINE
5
153
100
AcDbEntity
8
0
100
AcDbLine
10
-554.937113652383
20
-1268.7897867863812
30
0
11
-556.10711229816548
21
-1268.7897867863812
31
0
0
LINE
5
154
100
AcDbEntity
8
0
100
AcDbLine
10
-556.98461426273457
20
-1267.9122866099515
30
0
11
-556.98461426273457
21
-1266.1572865551152
31
0
0
LINE
5
155
100
AcDbEntity
8
0
100
AcDbLine
10
-556.10711229816548
20
-1265.2797863786855
30
0
11
-554.937113652383
21
-1265.2797863786855
31
0
0
ARC
5
156
100
AcDbEntity
8
0
100
AcDbCircle
10
-556.21245516315571
20
-1268.0176282828488
30
0
40
0.77931083738803864
210
0
220
0
230
1
100
AcDbArc
50
172.23138882811151
51
277.76860320369707
0
ARC
5
157
100
AcDbEntity
8
0
100
AcDbCircle
10
-556.21245516315571
20
-1266.0519448822179
30
0
40
0.77931083738803864
210
0
220
0
230
1
100
AcDbArc
50
82.231386323648593
51
187.76862118979204
0
LINE
5
158
100
AcDbEntity
8
0
100
AcDbLine
10
-553.47461355701557
20
-1268.7897867863812
30
0
11
-553.47461355701557
21
-1263.5247863238492
31
0
0
LINE
5
159
100
AcDbEntity
8
0
100
AcDbLine
10
-551.13461388126484
20
-1265.2797863786855
30
0
11
-553.47461355701557
21
-1267.0347864335217
31
0
0
LINE
5
160
100
AcDbEntity
8
0
100
AcDbLine
10
-551.13461388126484
20
-1268.7897867863812
30
0
11
-552.45086325183979
21
-1266.303536385838
31
0
0
LINE
5
161
100
AcDbEntity
8
0
100
AcDbLine
10
-545.13836277500263
20
-1266.7422867720761
30
0
11
-546.45461452976338
21
-1266.7422867720761
31
0
0
LINE
5
162
100
AcDbEntity
8
0
100
AcDbLine
10
-546.45461452976338
20
-1268.7897867863812
30
0
11
-545.13836277500263
21
-1268.7897867863812
31
0
0
LINE
5
163
100
AcDbEntity
8
0
100
AcDbLine
10
-545.13836277500263
20
-1268.7897867863812
30
0
11
-545.13836277500263
21
-1266.1572865551152
31
0
0
LINE
5
164
100
AcDbEntity
8
0
100
AcDbLine
10
-546.01586235538593
20
-1265.2797863786855
30
0
11
-547.1858633853542
21
-1265.2797863786855
31
0
0
ARC
5
165
100
AcDbEntity
8
0
100
AcDbCircle
10
-546.45461452976338
20
-1267.7660367792287
30
0
40
1.0237500816583633
210
0
220
0
230
1
100
AcDbArc
50
90.000002504483845
51
270.00000068324181
0
ARC
5
166
100
AcDbEntity
8
0
100
AcDbCircle
10
-545.91052187458149
20
-1266.0519448822179
30
0
40
0.77931083738803864
210
0
220
0
230
1
100
AcDbArc
50
-7.7686198233110417
51
97.76861868532086
0
LINE
5
167
100
AcDbEntity
8
0
100
AcDbLine
10
-541.62836445346943
20
-1267.3272866910138
30
0
11
-543.09086216465107
21
-1266.7422867720761
31
0
0
ARC
5
168
100
AcDbEntity
8
0
100
AcDbCircle
10
-542.85246265903584
20
-1266.0294670766034
30
0
40
0.75162976980209351
210
0
220
0
230
1
100
AcDbArc
50
85.87258749093435
51
251.50753671299475
0
ARC
5
169
100
AcDbEntity
8
0
100
AcDbCircle
10
-542.71145714298359
20
-1267.9965133374371
30
0
40
2.7181166410446167
210
0
220
0
230
1
100
AcDbArc
50
63.11012147802893
51
91.832262221038604
0
ARC
5
170
100
AcDbEntity
8
0
100
AcDbCircle
10
-541.87337769046894
20
-1268.0387837594189
30
0
40
0.75250290334224701
210
0
220
0
230
1
100
AcDbArc
50
-93.617868557842215
51
70.998006422155228
0
ARC
5
171
100
AcDbEntity
8
0
100
AcDbCircle
10
-542.18873871341816
20
-1265.6927956050076
30
0
40
3.1085547804832458
210
0
220
0
230
1
100
AcDbArc
50
244.4467603566107
51
274.943527679959
0
LINE
5
172
100
AcDbEntity
8
0
100
AcDbLine
10
-537.82586468235127
20
-1267.3272866910138
30
0
11
-539.28836239353291
21
-1266.7422867720761
31
0
0
ARC
5
173
100
AcDbEntity
8
0
100
AcDbCircle
10
-539.04996288791767
20
-1266.0294670766034
30
0
40
0.75162976980209351
210
0
220
0
230
1
100
AcDbArc
50
85.87258749093435
51
251.50753671299475
0
ARC
5
174
100
AcDbEntity
8
0
100
AcDbCircle
10
-538.90895737186543
20
-1267.9965133374371
30
0
40
2.7181166410446167
210
0
220
0
230
1
100
AcDbArc
50
63.11012147802893
51
91.832262221038604
0
ARC
5
175
100
AcDbEntity
8
0
100
AcDbCircle
10
-538.07087791935078
20
-1268.0387837594189
30
0
40
0.75250290334224701
210
0
220
0
230
1
100
AcDbArc
50
-93.617868557842215
51
70.998006422155228
0
ARC
5
176
100
AcDbEntity
8
0
100
AcDbCircle
10
-538.3862389423
20
-1265.6927956050076
30
0
40
3.1085547804832458
210
0
220
0
230
1
100
AcDbArc
50
244.4467603566107
51
274.943527679959
0
LINE
5
177
100
AcDbEntity
8
0
100
AcDbLine
10
-533.58461273685566
20
-1268.7897867863812
30
0
11
-535.04711521640888
21
-1268.7897867863812
31
0
0
LINE
5
178
100
AcDbEntity
8
0
100
AcDbLine
10
-535.92461479679218
20
-1267.9122866099515
30
0
11
-535.92461479679218
21
-1266.449786514584
31
0
0
LINE
5
179
100
AcDbEntity
8
0
100
AcDbLine
10
-533.58461273685566
20
-1266.449786514584
30
0
11
-533.58461273685566
21
-1267.0347864335217
31
0
0
LINE
5
180
100
AcDbEntity
8
0
100
AcDbLine
10
-533.58461273685566
20
-1267.0347864335217
30
0
11
-535.92461479679218
21
-1267.0347864335217
31
0
0
ARC
5
181
100
AcDbEntity
8
0
100
AcDbCircle
10
-535.15245331302754
20
-1268.0176282828488
30
0
40
0.77931083738803864
210
0
220
0
230
1
100
AcDbArc
50
172.23138882811151
51
277.76860320369707
0
ARC
5
182
100
AcDbEntity
8
0
100
AcDbCircle
10
-534.75461376682392
20
-1266.449786514584
30
0
40
1.1700000613927841
210
0
220
0
230
1
100
AcDbArc
50
0
51
180.00000497831306
0
LINE
5
183
100
AcDbEntity
8
0
100
AcDbLine
10
-531.97586430088154
20
-1268.7897867863812
30
0
11
-531.97586430088154
21
-1265.2797863786855
31
0
0
LINE
5
184
100
AcDbEntity
8
0
100
AcDbLine
10
-531.97586430088154
20
-1265.2797863786855
30
0
11
-529.34336555973164
21
-1265.2797863786855
31
0
0
LINE
5
185
100
AcDbEntity
8
0
100
AcDbLine
10
-528.46586121097675
20
-1266.1572865551152
30
0
11
-528.46586121097675
21
-1268.7897867863812
31
0
0
LINE
5
186
100
AcDbEntity
8
0
100
AcDbLine
10
-530.22086514011494
20
-1268.7897867863812
30
0
11
-530.22086514011494
21
-1265.2797863786855
31
0
0
ARC
5
187
100
AcDbEntity
8
0
100
AcDbCircle
10
-529.2380226947414
20
-1266.0519448822179
30
0
40
0.77931083738803864
210
0
220
0
230
1
100
AcDbArc
50
-7.7686198233110417
51
97.76861868532086
0
LINE
5
188
100
AcDbEntity
8
0
100
AcDbLine
10
-526.71086205021015
20
-1263.5247863238492
30
0
11
-526.71086205021015
21
-1268.7897867863812
31
0
0
LINE
5
189
100
AcDbEntity
8
0
100
AcDbLine
10
-526.71086205021015
20
-1268.7897867863812
30
0
11
-525.24835957065693
21
-1268.7897867863812
31
0
0
LINE
5
190
100
AcDbEntity
8
0
100
AcDbLine
10
-524.37085999027363
20
-1267.9122866099515
30
0
11
-524.37085999027363
21
-1266.1572865551152
31
0
0
LINE
5
191
100
AcDbEntity
8
0
100
AcDbLine
10
-525.24835957065693
20
-1265.2797863786855
30
0
11
-526.71086205021015
21
-1265.2797863786855
31
0
0
ARC
5
192
100
AcDbEntity
8
0
100
AcDbCircle
10
-525.14302147403828
20
-1268.0176282828488
30
0
40
0.77931083738803864
210
0
220
0
230
1
100
AcDbArc
50
-97.76862915797517
51
7.7686161808485608
0
ARC
5
193
100
AcDbEntity
8
0
100
AcDbCircle
10
-525.14302147403828
20
-1266.0519448822179
30
0
40
0.77931083738803864
210
0
220
0
230
1
100
AcDbArc
50
-7.7686198233110417
51
97.76861868532086
0
LINE
5
194
100
AcDbEntity
8
0
100
AcDbLine
10
-522.76211155429951
20
-1263.5247863238492
30
0
11
-522.76211155429951
21
-1267.9122866099515
31
0
0
ARC
5
195
100
AcDbEntity
8
0
100
AcDbCircle
10
-521.98995483890644
20
-1268.0176282828488
30
0
40
0.77931083738803864
210
0
220
0
230
1
100
AcDbArc
50
172.23138882811151
51
277.76860320369707
0
LINE
5
196
100
AcDbEntity
8
0
100
AcDbLine
10
-520.71461094394795
20
-1270.5447871392407
30
0
11
-520.12960804477802
21
-1270.5447871392407
31
0
0
LINE
5
197
100
AcDbEntity
8
0
100
AcDbLine
10
-520.12960804477802
20
-1270.5447871392407
30
0
11
-518.37460888401142
21
-1265.2797863786855
31
0
0
LINE
5
198
100
AcDbEntity
8
0
100
AcDbLine
10
-520.71461094394795
20
-1265.2797863786855
30
0
11
-519.54460991397968
21
-1268.7897867863812
31
0
0
LINE
5
199
100
AcDbEntity
8
0
100
AcDbLine
10
-514.57210911289326
20
-1268.7897867863812
30
0
11
-514.57210911289326
21
-1265.2797863786855
31
0
0
LINE
5
200
100
AcDbEntity
8
0
100
AcDbLine
10
-514.57210911289326
20
-1265.2797863786855
30
0
11
-512.81710995212666
21
-1265.2797863786855
31
0
0
LINE
5
201
100
AcDbEntity
8
0
100
AcDbLine
10
-512.81710995212666
20
-1265.2797863786855
30
0
11
-512.81710995212666
21
-1265.8647865956464
31
0
0
LINE
5
202
100
AcDbEntity
8
0
100
AcDbLine
10
-509.30710686222193
20
-1268.7897867863812
30
0
11
-510.76960934177515
21
-1268.7897867863812
31
0
0
LINE
5
203
100
AcDbEntity
8
0
100
AcDbLine
10
-511.64710892215845
20
-1267.9122866099515
30
0
11
-511.64710892215845
21
-1266.449786514584
31
0
0
LINE
5
204
100
AcDbEntity
8
0
100
AcDbLine
10
-509.30710686222193
20
-1266.449786514584
30
0
11
-509.30710686222193
21
-1267.0347864335217
31
0
0
LINE
5
205
100
AcDbEntity
8
0
100
AcDbLine
10
-509.30710686222193
20
-1267.0347864335217
30
0
11
-511.64710892215845
21
-1267.0347864335217
31
0
0
ARC
5
206
100
AcDbEntity
8
0
100
AcDbCircle
10
-510.8749474383938
20
-1268.0176282828488
30
0
40
0.77931083738803864
210
0
220
0
230
1
100
AcDbArc
50
172.23138882811151
51
277.76860320370122
0
ARC
5
207
100
AcDbEntity
8
0
100
AcDbCircle
10
-510.47710789219019
20
-1266.449786514584
30
0
40
1.1700000613927841
210
0
220
0
230
1
100
AcDbArc
50
0
51
180.00000497831306
0
LINE
5
208
100
AcDbEntity
8
0
100
AcDbLine
10
-505.50460709110376
20
-1266.7422867720761
30
0
11
-506.82085884586451
21
-1266.7422867720761
31
0
0
LINE
5
209
100
AcDbEntity
8
0
100
AcDbLine
10
-506.82085884586451
20
-1268.7897867863812
30
0
11
-505.50460709110376
21
-1268.7897867863812
31
0
0
LINE
5
210
100
AcDbEntity
8
0
100
AcDbLine
10
-505.50460709110376
20
-1268.7897867863812
30
0
11
-505.50460709110376
21
-1266.1572865551152
31
0
0
LINE
5
211
100
AcDbEntity
8
0
100
AcDbLine
10
-506.38210667148707
20
-1265.2797863786855
30
0
11
-507.55210770145533
21
-1265.2797863786855
31
0
0
ARC
5
212
100
AcDbEntity
8
0
100
AcDbCircle
10
-506.82085884586451
20
-1267.7660367792287
30
0
40
1.0237500816583633
210
0
220
0
230
1
100
AcDbArc
50
90.000002504477479
51
270.00000068324812
0
ARC
5
213
100
AcDbEntity
8
0
100
AcDbCircle
10
-506.27676857486841
20
-1266.0519448822179
30
0
40
0.77931083738803864
210
0
220
0
230
1
100
AcDbArc
50
-7.7686198233104822
51
97.768618685316738
0
LINE
5
214
100
AcDbEntity
8
0
100
AcDbLine
10
-503.74960793033716
20
-1268.7897867863812
30
0
11
-503.74960793033716
21
-1265.2797863786855
31
0
0
LINE
5
215
100
AcDbEntity
8
0
100
AcDbLine
10
-503.74960793033716
20
-1265.2797863786855
30
0
11
-501.99460876957056
21
-1265.2797863786855
31
0
0
LINE
5
216
100
AcDbEntity
8
0
100
AcDbLine
10
-501.99460876957056
20
-1265.2797863786855
30
0
11
-501.99460876957056
21
-1265.8647865956464
31
0
0
LINE
5
217
100
AcDbEntity
8
0
100
AcDbLine
10
-498.33834541813013
20
-1263.5247863238492
30
0
11
-498.33834541813013
21
-1268.7897867863812
31
0
0
LINE
5
218
100
AcDbEntity
8
0
100
AcDbLine
10
-498.33834541813013
20
-1268.7897867863812
30
0
11
-496.87584770694849
21
-1268.7897867863812
31
0
0
LINE
5
219
100
AcDbEntity
8
0
100
AcDbLine
10
-495.99835289493677
20
-1267.9122866099515
30
0
11
-495.99835289493677
21
-1266.1572865551152
31
0
0
LINE
5
220
100
AcDbEntity
8
0
100
AcDbLine
10
-496.87584770694849
20
-1265.2797863786855
30
0
11
-498.33834541813013
21
-1265.2797863786855
31
0
0
ARC
5
221
100
AcDbEntity
8
0
100
AcDbCircle
10
-496.77050484195826
20
-1268.0176282828488
30
0
40
0.77931083738803864
210
0
220
0
230
1
100
AcDbArc
50
-97.768629157971048
51
7.7686161808479488
0
ARC
5
222
100
AcDbEntity
8
0
100
AcDbCircle
10
-496.77050484195826
20
-1266.0519448822179
30
0
40
0.77931083738803864
210
0
220
0
230
1
100
AcDbArc
50
-7.7686198233104822
51
97.768618685316738
0
LINE
5
223
100
AcDbEntity
8
0
100
AcDbLine
10
-494.53585518375513
20
-1267.6197866504826
30
0
11
-494.53585518375513
21
-1266.449786514584
31
0
0
LINE
5
224
100
AcDbEntity
8
0
100
AcDbLine
10
-492.19585312381861
20
-1266.449786514584
30
0
11
-492.19585312381861
21
-1267.6197866504826
31
0
0
ARC
5
225
100
AcDbEntity
8
0
100
AcDbCircle
10
-493.36584938541529
20
-1266.449786514584
30
0
40
1.1700000613927841
210
0
220
0
230
1
100
AcDbArc
50
0
51
180.00000497831306
0
ARC
5
226
100
AcDbEntity
8
0
100
AcDbCircle
10
-493.36584938541529
20
-1267.6197866504826
30
0
40
1.1700000613927841
210
0
220
0
230
1
100
AcDbArc
50
-179.99999502168694
51
0
0
LINE
5
227
100
AcDbEntity
8
0
100
AcDbLine
10
-490.87961090580103
20
-1268.7897867863812
30
0
11
-488.53961838260767
21
-1265.2797863786855
31
0
0
LINE
5
228
100
AcDbEntity
8
0
100
AcDbLine
10
-490.87961090580103
20
-1265.2797863786855
30
0
11
-488.53961838260767
21
-1268.7897867863812
31
0
0
LINE
5
229
100
AcDbEntity
8
0
100
AcDbLine
10
-485.1758564807522
20
-1265.2797863786855
30
0
11
-483.4208573199856
21
-1265.2797863786855
31
0
0
LINE
5
230
100
AcDbEntity
8
0
100
AcDbLine
10
-484.59085358158228
20
-1263.5247863238492
30
0
11
-484.59085358158228
21
-1267.9122866099515
31
0
0
LINE
5
231
100
AcDbEntity
8
0
100
AcDbLine
10
-483.7133492328274
20
-1268.7897867863812
30
0
11
-483.4208573199856
21
-1268.7897867863812
31
0
0
ARC
5
232
100
AcDbEntity
8
0
100
AcDbCircle
10
-483.81869209781763
20
-1268.0176282828488
30
0
40
0.77931083738803864
210
0
220
0
230
1
100
AcDbArc
50
172.23138882811151
51
277.76860320370122
0
LINE
5
233
100
AcDbEntity
8
0
100
AcDbLine
10
-482.10461510196802
20
-1267.6197866504826
30
0
11
-482.10461510196802
21
-1266.449786514584
31
0
0
LINE
5
234
100
AcDbEntity
8
0
100
AcDbLine
10
-479.7646130420315
20
-1266.449786514584
30
0
11
-479.7646130420315
21
-1267.6197866504826
31
0
0
ARC
5
235
100
AcDbEntity
8
0
100
AcDbCircle
10
-480.93460930362818
20
-1266.449786514584
30
0
40
1.1700000613927841
210
0
220
0
230
1
100
AcDbArc
50
0
51
180.00000497831306
0
ARC
5
236
100
AcDbEntity
8
0
100
AcDbCircle
10
-480.93460930362818
20
-1267.6197866504826
30
0
40
1.1700000613927841
210
0
220
0
230
1
100
AcDbArc
50
-179.99999502168694
51
0
0
LINE
5
237
100
AcDbEntity
8
0
100
AcDbLine
10
-478.15585030094263
20
-1270.5447871392407
30
0
11
-478.15585030094263
21
-1265.2797863786855
31
0
0
LINE
5
238
100
AcDbEntity
8
0
100
AcDbLine
10
-478.15585030094263
20
-1265.2797863786855
30
0
11
-476.69335258976099
21
-1265.2797863786855
31
0
0
LINE
5
239
100
AcDbEntity
8
0
100
AcDbLine
10
-475.81585777774927
20
-1266.1572865551152
30
0
11
-475.81585777774927
21
-1267.9122866099515
31
0
0
LINE
5
240
100
AcDbEntity
8
0
100
AcDbLine
10
-476.69335258976099
20
-1268.7897867863812
30
0
11
-478.15585030094263
21
-1268.7897867863812
31
0
0
ARC
5
241
100
AcDbEntity
8
0
100
AcDbCircle
10
-476.58800972477076
20
-1266.0519448822179
30
0
40
0.77931083738803864
210
0
220
0
230
1
100
AcDbArc
50
-7.7686198233104822
51
97.768618685316738
0
ARC
5
242
100
AcDbEntity
8
0
100
AcDbCircle
10
-476.58800972477076
20
-1268.0176282828488
30
0
40
0.77931083738803864
210
0
220
0
230
1
100
AcDbArc
50
-97.768629157971048
51
7.7686161808479488
0
LINE
5
243
100
AcDbEntity
8
0
100
AcDbLine
10
-474.06085861698267
20
-1268.7897867863812
30
0
11
-474.35336006656763
21
-1268.7897867863812
31
0
0
LINE
5
244
100
AcDbEntity
8
0
100
AcDbLine
10
-474.35336006656763
20
-1268.7897867863812
30
0
11
-474.35336006656763
21
-1268.4972865288892
31
0
0
LINE
5
245
100
AcDbEntity
8
0
100
AcDbLine
10
-474.35336006656763
20
-1268.4972865288892
30
0
11
-474.06085861698267
21
-1268.4972865288892
31
0
0
LINE
5
246
100
AcDbEntity
8
0
100
AcDbLine
10
-474.06085861698267
20
-1268.4972865288892
30
0
11
-474.06085861698267
21
-1268.7897867863812
31
0
0
LINE
5
247
100
AcDbEntity
8
0
100
AcDbLine
10
-474.06085861698267
20
-1268.7897867863812
30
0
11
-474.49960602298853
21
-1269.9597866242566
31
0
0
LINE
5
248
100
AcDbEntity
8
0
100
AcDbLine
10
-470.25835884586451
20
-1264.6947864597478
30
0
11
-468.79586113468287
21
-1263.5247863238492
31
0
0
LINE
5
249
100
AcDbEntity
8
0
100
AcDbLine
10
-468.79586113468287
20
-1263.5247863238492
30
0
11
-468.79586113468287
21
-1268.7897867863812
31
0
0
LINE
5
250
100
AcDbEntity
8
0
100
AcDbLine
10
-470.25835884586451
20
-1268.7897867863812
30
0
11
-467.33335388675806
21
-1268.7897867863812
31
0
0
LINE
5
251
100
AcDbEntity
8
0
100
AcDbLine
10
-463.6771000720608
20
-1268.7897867863812
30
0
11
-461.33710754886744
21
-1265.2797863786855
31
0
0
LINE
5
252
100
AcDbEntity
8
0
100
AcDbLine
10
-463.6771000720608
20
-1265.2797863786855
30
0
11
-461.33710754886744
21
-1268.7897867863812
31
0
0
LINE
5
253
100
AcDbEntity
8
0
100
AcDbLine
10
-457.68086327091333
20
-1264.6947864597478
30
0
11
-456.21836555973169
21
-1263.5247863238492
31
0
0
LINE
5
254
100
AcDbEntity
8
0
100
AcDbLine
10
-456.21836555973169
20
-1263.5247863238492
30
0
11
-456.21836555973169
21
-1268.7897867863812
31
0
0
LINE
5
255
100
AcDbEntity
8
0
100
AcDbLine
10
-457.68086327091333
20
-1268.7897867863812
30
0
11
-454.75585831180689
21
-1268.7897867863812
31
0
0
LINE
5
256
100
AcDbEntity
8
0
100
AcDbLine
10
-450.80710304752466
20
-1265.8647865956464
30
0
11
-453.29335106388208
21
-1268.7897867863812
31
0
0
LINE
5
257
100
AcDbEntity
8
0
100
AcDbLine
10
-453.29335106388208
20
-1268.7897867863812
30
0
11
-450.36834610477564
21
-1268.7897867863812
31
0
0
ARC
5
258
100
AcDbEntity
8
0
100
AcDbCircle
10
-451.52658356205103
20
-1264.6830240791478
30
0
40
1.1689662933349609
210
0
220
0
230
1
100
AcDbArc
50
-7.7686198232970476
51
97.768618685316
0
ARC
5
259
100
AcDbEntity
8
0
100
AcDbCircle
10
-451.86118019596216
20
-1264.9730012720265
30
0
40
1.4589405059814451
210
0
220
0
230
1
100
AcDbArc
50
83.048174495536372
51
169.0065696530086
0
ARC
5
260
100
AcDbEntity
8
0
100
AcDbCircle
10
-451.53899086490748
20
-1264.9452269976773
30
0
40
1.1752662807703018
210
0
220
0
230
1
100
AcDbArc
50
-51.483278511491143
51
5.0861029267654381
0
LINE
5
261
100
AcDbEntity
8
0
100
AcDbLine
10
-446.41959084049341
20
-1268.7897867863812
30
0
11
-446.41959084049341
21
-1265.2797863786855
31
0
0
LINE
5
262
100
AcDbEntity
8
0
100
AcDbLine
10
-446.41959084049341
20
-1265.2797863786855
30
0
11
-443.78709686771509
21
-1265.2797863786855
31
0
0
LINE
5
263
100
AcDbEntity
8
0
100
AcDbLine
10
-442.90959251896021
20
-1266.1572865551152
30
0
11
-442.90959251896021
21
-1268.7897867863812
31
0
0
LINE
5
264
100
AcDbEntity
8
0
100
AcDbLine
10
-444.66459167972681
20
-1268.7897867863812
30
0
11
-444.66459167972681
21
-1265.2797863786855
31
0
0
ARC
5
265
100
AcDbEntity
8
0
100
AcDbCircle
10
-443.68175400272486
20
-1266.0519448822179
30
0
40
0.77931083738803864
210
0
220
0
230
1
100
AcDbArc
50
-7.7686198233104822
51
97.768618685316738
0
LINE
5
266
100
AcDbEntity
8
0
100
AcDbLine
10
-441.15460289493677
20
-1268.7897867863812
30
0
11
-441.15460289493677
21
-1265.2797863786855
31
0
0
LINE
5
267
100
AcDbEntity
8
0
100
AcDbLine
10
-441.15460289493677
20
-1265.2797863786855
30
0
11
-438.52210892215845
21
-1265.2797863786855
31
0
0
LINE
5
268
100
AcDbEntity
8
0
100
AcDbLine
10
-437.64460457340357
20
-1266.1572865551152
30
0
11
-437.64460457340357
21
-1268.7897867863812
31
0
0
LINE
5
269
100
AcDbEntity
8
0
100
AcDbLine
10
-439.39960373417017
20
-1268.7897867863812
30
0
11
-439.39960373417017
21
-1265.2797863786855
31
0
0
ARC
5
270
100
AcDbEntity
8
0
100
AcDbCircle
10
-438.41676605716822
20
-1266.0519448822179
30
0
40
0.77931083738803864
210
0
220
0
230
1
100
AcDbArc
50
-7.7686198233104822
51
97.768618685316738
0
LINE
5
271
100
AcDbEntity
8
0
100
AcDbLine
10
-433.54960335270044
20
-1270.5447871392407
30
0
11
-433.54960335270044
21
-1265.2797863786855
31
0
0
LINE
5
272
100
AcDbEntity
8
0
100
AcDbLine
10
-433.54960335270044
20
-1265.2797863786855
30
0
11
-432.0871056415188
21
-1265.2797863786855
31
0
0
LINE
5
273
100
AcDbEntity
8
0
100
AcDbLine
10
-431.20961082950708
20
-1266.1572865551152
30
0
11
-431.20961082950708
21
-1267.9122866099515
31
0
0
LINE
5
274
100
AcDbEntity
8
0
100
AcDbLine
10
-432.0871056415188
20
-1268.7897867863812
30
0
11
-433.54960335270044
21
-1268.7897867863812
31
0
0
ARC
5
275
100
AcDbEntity
8
0
100
AcDbCircle
10
-431.98176277652857
20
-1266.0519448822179
30
0
40
0.77931083738803864
210
0
220
0
230
1
100
AcDbArc
50
-7.7686198233104822
51
97.768618685316738
0
ARC
5
276
100
AcDbEntity
8
0
100
AcDbCircle
10
-431.98176277652857
20
-1268.0176282828488
30
0
40
0.77931083738803864
210
0
220
0
230
1
100
AcDbArc
50
-97.768629157971048
51
7.7686161808479488
0
LINE
5
277
100
AcDbEntity
8
0
100
AcDbLine
10
-429.60085762516138
20
-1263.5247863238492
30
0
11
-429.60085762516138
21
-1267.9122866099515
31
0
0
ARC
5
278
100
AcDbEntity
8
0
100
AcDbCircle
10
-428.8287056781399
20
-1268.0176282828488
30
0
40
0.77931083738803864
210
0
220
0
230
1
100
AcDbArc
50
172.23138882811151
51
277.76860320370122
0
LINE
5
279
100
AcDbEntity
8
0
100
AcDbLine
10
-427.55334747806666
20
-1270.5447871392407
30
0
11
-426.9683541156399
21
-1270.5447871392407
31
0
0
LINE
5
280
100
AcDbEntity
8
0
100
AcDbLine
10
-426.9683541156399
20
-1270.5447871392407
30
0
11
-425.2133549548733
21
-1265.2797863786855
31
0
0
LINE
5
281
100
AcDbEntity
8
0
100
AcDbLine
10
-427.55334747806666
20
-1265.2797863786855
30
0
11
-426.38335121646998
21
-1268.7897867863812
31
0
0
ENDSEC
0
SECTION
2
OBJECTS
0
DICTIONARY
5
C
100
AcDbDictionary
3
ACAD_GROUP
350
D
3
ACAD_MLINESTYLE
350
17
0
DICTIONARY
5
D
100
AcDbDictionary
0
DICTIONARY
5
1A
330
C
100
AcDbDictionary
0
DICTIONARY
5
17
100
AcDbDictionary
0
ENDSEC
0
EOF
