0
SECTION
2
HEADER
9
$INSUNITS
70
4
9
$ACADVER
1
AC1014
9
$HANDSEED
5
FFFF
0
ENDSEC
0
SECTION
2
TABLES
0
TABLE
2
VPORT
5
8
100
AcDbSymbolTable
0
ENDTAB
0
TABLE
2
LTYPE
5
5
100
AcDbSymbolTable
0
LTYPE
5
14
100
AcDbSymbolTableRecord
100
AcDbLinetypeTableRecord
2
BYBLOCK
70
0
0
LTYPE
5
15
100
AcDbSymbolTableRecord
100
AcDbLinetypeTableRecord
2
BYLAYER
70
0
0
LTYPE
5
16
100
AcDbSymbolTableRecord
100
AcDbLinetypeTableRecord
2
DASHED
70
0
3
Dashed __ __ __ __ __ __ __ __ __ __ __ __ __ _
72
65
73
2
40
0.75
49
0.5
74
0
49
-0.25
74
0
0
ENDTAB
0
TABLE
2
LAYER
5
2
100
AcDbSymbolTable
70
3
0
LAYER
5
50
100
AcDbSymbolTableRecord
100
AcDbLayerTableRecord
2
1
70
0
62
7
6
DASHED
0
LAYER
5
51
100
AcDbSymbolTableRecord
100
AcDbLayerTableRecord
2
0
70
0
62
7
6
CONTINUOUS
0
ENDTAB
0
TABLE
2
STYLE
5
3
100
AcDbSymbolTable
70
1
0
STYLE
5
11
100
AcDbSymbolTableRecord
100
AcDbTextStyleTableRecord
2
STANDARD
70
0
0
ENDTAB
0
TABLE
2
VIEW
5
6
100
AcDbSymbolTable
70
0
0
ENDTAB
0
TABLE
2
UCS
5
7
100
AcDbSymbolTable
70
0
0
ENDTAB
0
TABLE
2
APPID
5
9
100
AcDbSymbolTable
70
2
0
APPID
5
12
100
AcDbSymbolTableRecord
100
AcDbRegAppTableRecord
2
ACAD
70
0
0
ENDTAB
0
TABLE
2
DIMSTYLE
5
A
100
AcDbSymbolTable
70
1
0
ENDTAB
0
TABLE
2
BLOCK_RECORD
5
1
100
AcDbSymbolTable
70
1
0
BLOCK_RECORD
5
1F
100
AcDbSymbolTableRecord
100
AcDbBlockTableRecord
2
*MODEL_SPACE
0
BLOCK_RECORD
5
1B
100
AcDbSymbolTableRecord
100
AcDbBlockTableRecord
2
*PAPER_SPACE
0
ENDTAB
0
ENDSEC
0
SECTION
2
BLOCKS
0
BLOCK
5
20
100
AcDbEntity
100
AcDbBlockBegin
2
*MODEL_SPACE
0
ENDBLK
5
21
100
AcDbEntity
100
AcDbBlockEnd
0
BLOCK
5
1C
100
AcDbEntity
100
AcDbBlockBegin
2
*PAPER_SPACE
0
ENDBLK
5
1D
100
AcDbEntity
100
AcDbBlockEnd
0
ENDSEC
0
SECTION
2
ENTITIES
0
LWPOLYLINE
5
100
100
AcDbEntity
8
0
100
AcDbPolyline
90
6
70
1
43
0.0
10
-721.33468296390436
20
-974.7081412845456
42
0.21957263989837855
10
-721.26541292964839
20
-991.46587586005899
42
0.29144994396683654
10
-703.13998912106797
20
-1003.0119419824073
10
-695.18998862821206
20
-1003.0119419824073
10
-680.63117931179988
20
-963.01194213141889
10
-703.13998912106797
20
-963.01194213141889
42
0.29369365011857795
0
CIRCLE
5
101
100
AcDbEntity
8
0
100
AcDbCircle
10
-700.63117931179988
20
-973.0119422804305
30
0
40
1.4999999999999991
210
1.9440742874110672e-43
220
2.693948435750089e-28
230
1
0
CIRCLE
5
102
100
AcDbEntity
8
0
100
AcDbCircle
10
-705.63117931179988
20
-993.01194257845373
30
0
40
1.4999999999999991
210
1.9440742874110672e-43
220
2.693948435750089e-28
230
1
0
LINE
5
103
100
AcDbEntity
8
1
100
AcDbLine
10
-685.63113942955511
20
-975.99951763777699
30
0
11
-736.6311401894676
21
-975.99939807858846
31
0
0
LINE
5
104
100
AcDbEntity
8
1
100
AcDbLine
10
-736.6311401894676
20
-975.99939807858846
30
0
11
-736.63117421102299
21
-990.51186990522763
31
0
0
LINE
5
105
100
AcDbEntity
8
1
100
AcDbLine
10
-736.63117421102299
20
-990.51186990522763
30
0
11
-685.6311734511105
21
-990.51198946441605
31
0
0
LINE
5
106
100
AcDbEntity
8
1
100
AcDbLine
10
-685.6311734511105
20
-990.51198946441605
30
0
11
-685.63113942955511
21
-975.99951763777699
31
0
0
LINE
5
107
100
AcDbEntity
8
0
100
AcDbLine
10
-692.45616950151702
20
-988.80687501440445
30
0
11
-693.43116976377473
21
-988.80687272871353
31
0
0
LINE
5
108
100
AcDbEntity
8
0
100
AcDbLine
10
-693.43116519239425
20
-986.85687280024456
30
0
11
-692.45616493013654
21
-986.85687508593549
31
0
0
LINE
5
109
100
AcDbEntity
8
0
100
AcDbLine
10
-692.45616493013654
20
-986.85687508593549
30
0
11
-692.45617315862137
21
-990.36687489757514
31
0
0
LINE
5
110
100
AcDbEntity
8
0
100
AcDbLine
10
-692.45617315862137
20
-990.36687489757514
30
0
11
-693.43117342087908
21
-990.36687261188422
31
0
0
ARC
5
111
100
AcDbEntity
8
0
100
AcDbCircle
10
-693.43116747808449
20
-987.83187276447904
30
0
40
0.97499996423721313
210
0
220
0
230
1
100
AcDbArc
50
89.999866364876794
51
269.99986818611524
0
ARC
5
112
100
AcDbEntity
8
0
100
AcDbCircle
10
-693.43117159232656
20
-989.58687252128721
30
0
40
0.78000001609325409
210
0
220
0
230
1
100
AcDbArc
50
89.999866364877775
51
269.99986818609614
0
LINE
5
113
100
AcDbEntity
8
0
100
AcDbLine
10
-697.23366802456007
20
-988.41686391823623
30
0
11
-696.06366818668801
21
-988.4168666610642
31
0
0
LINE
5
114
100
AcDbEntity
8
0
100
AcDbLine
10
-695.28366992464328
20
-989.19686843120212
30
0
11
-695.28367038178101
21
-989.39186830483982
31
0
0
LINE
5
115
100
AcDbEntity
8
0
100
AcDbLine
10
-697.23367031025009
20
-989.39186373345922
30
0
11
-697.23366802456007
21
-988.41686391823623
31
0
0
ARC
5
116
100
AcDbEntity
8
0
100
AcDbCircle
10
-695.9700332829708
20
-989.10322971335904
30
0
40
0.69272071123123169
210
0
220
0
230
1
100
AcDbArc
50
-7.7687454902424289
51
97.768468885326513
0
ARC
5
117
100
AcDbEntity
8
0
100
AcDbCircle
10
-696.25867064403883
20
-989.39186601914889
30
0
40
0.97499996423721313
210
0
220
0
230
1
100
AcDbArc
50
179.99986568319684
51
359.99987069063297
0
ARC
5
118
100
AcDbEntity
8
0
100
AcDbCircle
10
-695.86094162194524
20
-988.22959306772134
30
0
40
1.3854414224624634
210
0
220
0
230
1
100
AcDbArc
50
82.231236523663085
51
187.76848186246946
0
LINE
5
119
100
AcDbEntity
8
0
100
AcDbLine
10
-698.40366420532769
20
-986.85686114322607
30
0
11
-698.20866522575989
21
-986.85686160036175
31
0
0
LINE
5
120
100
AcDbEntity
8
0
100
AcDbLine
10
-698.20866522575989
20
-986.85686160036175
30
0
11
-698.20866568289762
21
-987.05186147399922
31
0
0
LINE
5
121
100
AcDbEntity
8
0
100
AcDbLine
10
-698.20866568289762
20
-987.05186147399945
30
0
11
-698.40366466246553
21
-987.05186101686377
31
0
0
LINE
5
122
100
AcDbEntity
8
0
100
AcDbLine
10
-698.40366466246553
20
-987.05186101686365
30
0
11
-698.40366420532769
21
-986.85686114322607
31
0
0
LINE
5
123
100
AcDbEntity
8
0
100
AcDbLine
10
-698.40366420532769
20
-986.85686114322607
30
0
11
-698.11116331137691
21
-986.07686173833395
31
0
0
LINE
5
124
100
AcDbEntity
8
0
100
AcDbLine
10
-701.13366422439367
20
-986.85685474329307
30
0
11
-701.13367108146451
21
-989.78185463599652
31
0
0
LINE
5
125
100
AcDbEntity
8
0
100
AcDbLine
10
-701.71867296786104
20
-990.36685318351726
30
0
11
-701.91367313952185
21
-990.36685272637885
31
0
0
LINE
5
126
100
AcDbEntity
8
0
100
AcDbLine
10
-700.74367055882158
20
-989.19685563133476
30
0
11
-701.91367039669376
21
-989.19685288850678
31
0
0
ARC
5
127
100
AcDbEntity
8
0
100
AcDbCircle
10
-701.64844437651459
20
-989.85208111180555
30
0
40
0.51954049617052078
210
0
220
0
230
1
100
AcDbArc
50
-97.768747994724862
51
7.7684868714309641
0
LINE
5
128
100
AcDbEntity
8
0
100
AcDbLine
10
-702.69366559768048
20
-986.85685108618532
30
0
11
-702.69367108333722
21
-989.19685105995291
31
0
0
LINE
5
129
100
AcDbEntity
8
0
100
AcDbLine
10
-702.69367108333711
20
-989.19685105995291
30
0
11
-703.86367092120918
21
-989.19684831712493
31
0
0
LINE
5
130
100
AcDbEntity
8
0
100
AcDbLine
10
-703.8636709212094
20
-989.19684831712493
30
0
11
-703.86367000693315
21
-988.80684827182654
31
0
0
LINE
5
131
100
AcDbEntity
8
0
100
AcDbLine
10
-704.64366675865551
20
-987.63684660540321
30
0
11
-704.64366858720769
21
-988.41684654698849
31
0
0
LINE
5
132
100
AcDbEntity
8
0
100
AcDbLine
10
-706.20366876840149
20
-988.41684288988347
30
0
11
-706.20366693984931
21
-987.63684294829818
31
0
0
ARC
5
133
100
AcDbEntity
8
0
100
AcDbCircle
10
-705.42366808175814
20
-988.41684471843735
30
0
40
0.78000001609325409
210
0
220
0
230
1
100
AcDbArc
50
179.99986568319684
51
359.99987069063297
0
ARC
5
134
100
AcDbEntity
8
0
100
AcDbCircle
10
-705.42366625320597
20
-987.63684477685206
30
0
40
0.78000001609325409
210
0
220
0
230
1
100
AcDbArc
50
-0.00012930654845148644
51
179.99986568319684
0
LINE
5
135
100
AcDbEntity
8
0
100
AcDbLine
10
-707.27616486333864
20
-986.85684034344251
30
0
11
-707.27617034899538
21
-989.19684031720999
31
0
0
LINE
5
136
100
AcDbEntity
8
0
100
AcDbLine
10
-707.27617034899538
20
-989.19684031720999
30
0
11
-708.25116882311374
21
-989.19683803152327
31
0
0
LINE
5
137
100
AcDbEntity
8
0
100
AcDbLine
10
-708.83616796668196
20
-988.6118365921601
30
0
11
-708.83616385243954
21
-986.85683668634033
31
0
0
ARC
5
138
100
AcDbEntity
8
0
100
AcDbCircle
10
-708.32139619299426
20
-988.68206563054071
30
0
40
0.51954049617052078
210
0
220
0
230
1
100
AcDbArc
50
172.23124585834097
51
277.76848436694598
0
LINE
5
139
100
AcDbEntity
8
0
100
AcDbLine
10
-709.7136689184772
20
-989.19683460298756
30
0
11
-710.88366994844228
21
-989.19683186015675
31
0
0
LINE
5
140
100
AcDbEntity
8
0
100
AcDbLine
10
-710.10367200462679
20
-990.3668335265827
30
0
11
-710.10366514755606
21
-987.44183363387924
31
0
0
LINE
5
141
100
AcDbEntity
8
0
100
AcDbLine
10
-710.68866429112461
20
-986.85683234352769
30
0
11
-710.88366446278542
21
-986.85683188638916
31
0
0
ARC
5
142
100
AcDbEntity
8
0
100
AcDbCircle
10
-710.6184369212441
20
-987.37160474451014
30
0
40
0.51954049617052078
210
0
220
0
230
1
100
AcDbArc
50
-7.7687454902539805
51
97.768468885343125
0
LINE
5
143
100
AcDbEntity
8
0
100
AcDbLine
10
-690.79865247276427
20
-981.65687916235879
30
0
11
-689.82365280655301
21
-981.65688144804835
31
0
0
LINE
5
144
100
AcDbEntity
8
0
100
AcDbLine
10
-689.23865425903091
20
-982.24188273839843
30
0
11
-689.23865654472183
21
-983.21688300065614
31
0
0
LINE
5
145
100
AcDbEntity
8
0
100
AcDbLine
10
-690.79865612986919
20
-983.21687934355259
30
0
11
-690.79865521559225
21
-982.82687900023097
31
0
0
LINE
5
146
100
AcDbEntity
8
0
100
AcDbLine
10
-690.79865521559225
20
-982.82687900023097
30
0
11
-689.2386556304449
21
-982.82688265733452
31
0
0
ARC
5
147
100
AcDbEntity
8
0
100
AcDbCircle
10
-689.75342603271815
20
-982.17165355100622
30
0
40
0.51954049617052078
210
0
220
0
230
1
100
AcDbArc
50
-7.7687454902415123
51
97.768468885343125
0
ARC
5
148
100
AcDbEntity
8
0
100
AcDbCircle
10
-690.01865633729551
20
-983.21688117210442
30
0
40
0.78000001609325409
210
0
220
0
230
1
100
AcDbArc
50
179.99986568319684
51
359.99987069063297
0
LINE
5
149
100
AcDbEntity
8
0
100
AcDbLine
10
-691.87116104933648
20
-985.16687616171509
30
0
11
-691.87115419226643
21
-982.24187656703475
31
0
0
ARC
5
150
100
AcDbEntity
8
0
100
AcDbCircle
10
-692.38592656200012
20
-982.17164737964094
30
0
40
0.51954049617052078
210
0
220
0
230
1
100
AcDbArc
50
-7.7687454902415123
51
97.768468885344802
0
LINE
5
151
100
AcDbEntity
8
0
100
AcDbLine
10
-694.8936530974097
20
-981.65686956245793
30
0
11
-693.91865283515199
21
-981.65687184814885
31
0
0
LINE
5
152
100
AcDbEntity
8
0
100
AcDbLine
10
-693.33365428762988
20
-982.24187313849893
30
0
11
-693.33365657332081
21
-983.21687340075664
31
0
0
LINE
5
153
100
AcDbEntity
8
0
100
AcDbLine
10
-694.89365675451472
20
-983.21686974365184
30
0
11
-694.89365584023767
21
-982.82686940033022
31
0
0
LINE
5
154
100
AcDbEntity
8
0
100
AcDbLine
10
-694.89365584023767
20
-982.82686940033
30
0
11
-693.33365565904387
21
-982.82687305743491
31
0
0
ARC
5
155
100
AcDbEntity
8
0
100
AcDbCircle
10
-693.84842665736358
20
-982.17164395110535
30
0
40
0.51954049617052078
210
0
220
0
230
1
100
AcDbArc
50
-7.7687454902415123
51
97.768468885343125
0
ARC
5
156
100
AcDbEntity
8
0
100
AcDbCircle
10
-694.11365666391771
20
-983.21687157220424
30
0
40
0.78000001609325409
210
0
220
0
230
1
100
AcDbArc
50
179.99986568319684
51
359.99987069345156
0
LINE
5
157
100
AcDbEntity
8
0
100
AcDbLine
10
-695.77115875949301
20
-983.99686718108046
30
0
11
-696.5511527683874
21
-981.65686567678506
31
0
0
LINE
5
158
100
AcDbEntity
8
0
100
AcDbLine
10
-696.55115276838751
20
-981.65686567678506
30
0
11
-697.33115894068703
21
-983.99686352397555
31
0
0
LINE
5
159
100
AcDbEntity
8
0
100
AcDbLine
10
-699.76865522447929
20
-983.02185814354175
30
0
11
-698.89115564409838
21
-983.02186020066199
31
0
0
LINE
5
160
100
AcDbEntity
8
0
100
AcDbLine
10
-698.89115244413176
20
-981.65686019112911
30
0
11
-699.76865202451268
21
-981.65685813400887
31
0
0
LINE
5
161
100
AcDbEntity
8
0
100
AcDbLine
10
-699.76865202451279
20
-981.65685813400864
30
0
11
-699.76865613875475
21
-983.41185789081692
31
0
0
LINE
5
162
100
AcDbEntity
8
0
100
AcDbLine
10
-699.18365818727909
20
-983.99685918116563
30
0
11
-698.40365750063575
21
-983.99686100971951
31
0
0
ARC
5
163
100
AcDbEntity
8
0
100
AcDbCircle
10
-698.89115404411518
20
-982.33936019589555
30
0
40
0.68249993026256561
210
0
220
0
230
1
100
AcDbArc
50
-90.000131813891457
51
89.999866364866136
0
ARC
5
164
100
AcDbEntity
8
0
100
AcDbCircle
10
-699.25388436506751
20
-983.48208707820913
30
0
40
0.51954049617052078
210
0
220
0
230
1
100
AcDbArc
50
172.23124585834097
51
277.76848436694598
0
LINE
5
165
100
AcDbEntity
8
0
100
AcDbLine
10
-700.64615828264255
20
-983.99685575262993
30
0
11
-701.81615812051461
21
-983.99685300980195
31
0
0
LINE
5
166
100
AcDbEntity
8
0
100
AcDbLine
10
-701.03616017669935
20
-985.1668546762279
30
0
11
-701.03615331962931
21
-982.24185508154756
31
0
0
LINE
5
167
100
AcDbEntity
8
0
100
AcDbLine
10
-701.62115246319786
20
-981.65685379119611
30
0
11
-701.81615263485867
21
-981.65685333405759
31
0
0
ARC
5
168
100
AcDbEntity
8
0
100
AcDbCircle
10
-701.55092628540945
20
-982.1716258941525
30
0
40
0.51954049617052078
210
0
220
0
230
1
100
AcDbArc
50
-7.7687454902522504
51
97.768468885343125
0
LINE
5
169
100
AcDbEntity
8
0
100
AcDbLine
10
-702.69365523588488
20
-982.4368513675314
30
0
11
-702.69365706443739
21
-983.2168514581283
31
0
0
LINE
5
170
100
AcDbEntity
8
0
100
AcDbLine
10
-704.25365605353829
20
-983.21684780102612
30
0
11
-704.25365422498589
21
-982.43684771042922
31
0
0
ARC
5
171
100
AcDbEntity
8
0
100
AcDbCircle
10
-703.47365655898784
20
-983.21684962957715
30
0
40
0.78000001609325409
210
0
220
0
230
1
100
AcDbArc
50
179.99986568319684
51
359.99987069345156
0
ARC
5
172
100
AcDbEntity
8
0
100
AcDbCircle
10
-703.47365473043533
20
-982.43684953898025
30
0
40
0.78000001609325409
210
0
220
0
230
1
100
AcDbArc
50
-0.00012930654845148644
51
179.99986568319684
0
LINE
5
173
100
AcDbEntity
8
0
100
AcDbLine
10
-705.326153340568
20
-981.65684510557071
30
0
11
-705.32615882622406
21
-983.99684478131508
31
0
0
LINE
5
174
100
AcDbEntity
8
0
100
AcDbLine
10
-705.32615882622406
20
-983.99684478131508
30
0
11
-706.49615747200323
21
-983.99684203848983
31
0
0
LINE
5
175
100
AcDbEntity
8
0
100
AcDbLine
10
-706.49615747200323
20
-983.99684203848983
30
0
11
-706.49615655772777
21
-983.60684229121466
31
0
0
LINE
5
176
100
AcDbEntity
8
0
100
AcDbLine
10
-710.10365387148363
20
-982.6318335719036
30
0
11
-709.1286563116422
21
-983.02183620091205
31
0
0
ARC
5
177
100
AcDbEntity
8
0
100
AcDbCircle
10
-709.28759201888306
20
-983.4970487599536
30
0
40
0.50108645111322403
210
0
220
0
230
1
100
AcDbArc
50
-94.127546827452719
51
71.507402394629423
0
ARC
5
178
100
AcDbEntity
8
0
100
AcDbCircle
10
-709.38159262202294
20
-982.18568436569535
30
0
40
1.8120776116847992
210
0
220
0
230
1
100
AcDbArc
50
243.10998715966363
51
271.83212790267004
0
ARC
5
179
100
AcDbEntity
8
0
100
AcDbCircle
10
-709.94030980678326
20
-982.15750317193908
30
0
40
0.50166852772235859
210
0
220
0
230
1
100
AcDbArc
50
86.381997123788764
51
250.99787210376994
0
ARC
5
180
100
AcDbEntity
8
0
100
AcDbCircle
10
-709.7300735860091
20
-983.72149556905833
30
0
40
2.0723696053028107
210
0
220
0
230
1
100
AcDbArc
50
64.446626038242059
51
94.943393361593479
0
LINE
5
181
100
AcDbEntity
8
0
100
AcDbLine
10
-711.17615682349197
20
-983.99683106717771
30
0
11
-712.34615785345693
21
-983.99682832434689
31
0
0
LINE
5
182
100
AcDbEntity
8
0
100
AcDbLine
10
-711.56615990964156
20
-985.16682999077284
30
0
11
-711.56615305257151
21
-982.24183039609261
31
0
0
LINE
5
183
100
AcDbEntity
8
0
100
AcDbLine
10
-712.15115219614006
20
-981.65682910574105
30
0
11
-712.34615236780087
21
-981.65682864860264
31
0
0
ARC
5
184
100
AcDbEntity
8
0
100
AcDbCircle
10
-712.08092482625887
20
-982.17160120870039
30
0
40
0.51954049617052078
210
0
220
0
230
1
100
AcDbArc
50
-7.7687454902415123
51
97.768468885343125
0
LINE
5
185
100
AcDbEntity
8
0
100
AcDbLine
10
-713.22365377673441
20
-982.4368266820793
30
0
11
-713.22365560528681
21
-983.2168267726762
31
0
0
LINE
5
186
100
AcDbEntity
8
0
100
AcDbLine
10
-714.78365697857339
20
-983.21682311556845
30
0
11
-714.78365515002099
21
-982.43682302497155
31
0
0
ARC
5
187
100
AcDbEntity
8
0
100
AcDbCircle
10
-714.00365629193016
20
-983.21682494412232
30
0
40
0.78000001609325409
210
0
220
0
230
1
100
AcDbArc
50
179.99986568319684
51
359.99987069345156
0
ARC
5
188
100
AcDbEntity
8
0
100
AcDbCircle
10
-714.00365446337764
20
-982.43682485352542
30
0
40
0.78000001609325409
210
0
220
0
230
1
100
AcDbArc
50
-0.00012930936703360073
51
179.99986568319684
0
LINE
5
189
100
AcDbEntity
8
0
100
AcDbLine
10
-715.85615033068223
20
-980.48682058224358
30
0
11
-715.85615855916626
21
-983.99682009586002
31
0
0
LINE
5
190
100
AcDbEntity
8
0
100
AcDbLine
10
-715.85615855916626
20
-983.99682009586002
30
0
11
-716.83115703328463
21
-983.99681781017318
31
0
0
LINE
5
191
100
AcDbEntity
8
0
100
AcDbLine
10
-717.41615617685329
20
-983.41181651982185
30
0
11
-717.41615343402532
21
-982.24181668194979
31
0
0
LINE
5
192
100
AcDbEntity
8
0
100
AcDbLine
10
-716.83115154762868
20
-981.65681813442905
30
0
11
-715.85615307351031
21
-981.65682042011576
31
0
0
ARC
5
193
100
AcDbEntity
8
0
100
AcDbCircle
10
-716.90138440316605
20
-983.48204570721407
30
0
40
0.51954049617052078
210
0
220
0
230
1
100
AcDbArc
50
172.23124585832852
51
277.76848436694769
0
ARC
5
194
100
AcDbEntity
8
0
100
AcDbCircle
10
-716.90138133106734
20
-982.17158990811481
30
0
40
0.51954049617052078
210
0
220
0
230
1
100
AcDbArc
50
82.231236523646317
51
187.76848186246431
0
LINE
5
195
100
AcDbEntity
8
0
100
AcDbLine
10
-718.5861530925763
20
-981.65681402018276
30
0
11
-718.39115292091549
21
-981.65681447732129
31
0
0
LINE
5
196
100
AcDbEntity
8
0
100
AcDbLine
10
-718.39115292091537
20
-981.65681447732129
30
0
11
-718.39115337805379
21
-981.8518146489821
31
0
0
LINE
5
197
100
AcDbEntity
8
0
100
AcDbLine
10
-718.39115337805379
20
-981.8518146489821
30
0
11
-718.5861535497146
21
-981.85181419184357
31
0
0
LINE
5
198
100
AcDbEntity
8
0
100
AcDbLine
10
-718.58615354971471
20
-981.85181419184357
30
0
11
-718.5861530925763
21
-981.65681402018276
31
0
0
LINE
5
199
100
AcDbEntity
8
0
100
AcDbLine
10
-718.5861530925763
20
-981.65681402018276
30
0
11
-718.29365219862552
21
-980.87681461529075
31
0
0
LINE
5
200
100
AcDbEntity
8
0
100
AcDbLine
10
-690.89614493962858
20
-978.40687964905419
30
0
11
-689.23864069726892
21
-976.45688301021141
31
0
0
LINE
5
201
100
AcDbEntity
8
0
100
AcDbLine
10
-689.23864069726892
20
-976.45688301021153
30
0
11
-691.18864062573789
21
-976.45687843883093
31
0
0
ARC
5
202
100
AcDbEntity
8
0
100
AcDbCircle
10
-690.41648854052369
20
-979.19472185513303
30
0
40
0.77931083738803864
210
0
220
0
230
1
100
AcDbArc
50
172.23124585832895
51
277.76848436694581
0
ARC
5
203
100
AcDbEntity
8
0
100
AcDbCircle
10
-690.19342485681454
20
-979.00140424947438
30
0
40
0.97262687981128693
210
0
220
0
230
1
100
AcDbArc
50
263.04804017717487
51
349.0064353346412
0
ARC
5
204
100
AcDbEntity
8
0
100
AcDbCircle
10
-690.40822066848091
20
-979.01991933278214
30
0
40
0.78351080417633057
210
0
220
0
230
1
100
AcDbArc
50
128.51658717015292
51
185.08596860840086
0
LINE
5
205
100
AcDbEntity
8
0
100
AcDbLine
10
-693.62614038731272
20
-976.45687272460566
30
0
11
-695.18614605416246
21
-978.79686874324489
31
0
0
LINE
5
206
100
AcDbEntity
8
0
100
AcDbLine
10
-693.62614587296878
20
-978.79687240034991
30
0
11
-695.18614056850652
21
-976.45686906750075
31
0
0
LINE
5
207
100
AcDbEntity
8
0
100
AcDbLine
10
-697.62364609355598
20
-978.40686387778817
30
0
11
-698.79364593142805
21
-978.4068611349602
31
0
0
LINE
5
208
100
AcDbEntity
8
0
100
AcDbLine
10
-699.57364359742485
20
-977.6268586197657
30
0
11
-699.57364314028632
21
-977.43185844810478
31
0
0
LINE
5
209
100
AcDbEntity
8
0
100
AcDbLine
10
-697.62364380786369
20
-977.43186301948401
30
0
11
-697.62364609355598
21
-978.40686387778817
31
0
0
ARC
5
210
100
AcDbEntity
8
0
100
AcDbCircle
10
-698.88728083514502
20
-977.72049793365397
30
0
40
0.69272071123123169
210
0
220
0
230
1
100
AcDbArc
50
172.23124585833006
51
277.76848436694689
0
ARC
5
211
100
AcDbEntity
8
0
100
AcDbCircle
10
-698.59864347407506
20
-977.43186073379445
30
0
40
0.97499996423721313
210
0
220
0
230
1
100
AcDbArc
50
-0.00012930936703360073
51
179.99986568319684
0
ARC
5
212
100
AcDbEntity
8
0
100
AcDbCircle
10
-698.99637249616853
20
-978.594133685222
30
0
40
1.3854414224624634
210
0
220
0
230
1
100
AcDbArc
50
-97.768747994730319
51
7.7684868714280944
0
LINE
5
213
100
AcDbEntity
8
0
100
AcDbLine
10
-702.20614197992518
20
-976.45685261052699
30
0
11
-702.20614746558124
21
-978.79685228627136
31
0
0
LINE
5
214
100
AcDbEntity
8
0
100
AcDbLine
10
-702.20614746558124
20
-978.79685228627136
30
0
11
-703.96114662634307
21
-978.79684817203065
31
0
0
LINE
5
215
100
AcDbEntity
8
0
100
AcDbLine
10
-704.54614576991298
20
-978.21184747772566
30
0
11
-704.54614165566966
21
-976.45684712487093
31
0
0
LINE
5
216
100
AcDbEntity
8
0
100
AcDbLine
10
-703.37614181779736
20
-976.45684986769891
30
0
11
-703.37614730345354
21
-978.79684954344327
31
0
0
ARC
5
217
100
AcDbEntity
8
0
100
AcDbCircle
10
-704.03137280413148
20
-978.28207606907426
30
0
40
0.51954049617052078
210
0
220
0
230
1
100
AcDbArc
50
172.23124585834097
51
277.76848436694598
0
LINE
5
218
100
AcDbEntity
8
0
100
AcDbLine
10
-705.71614149354173
20
-976.45684438204296
30
0
11
-705.7161469791979
21
-978.79684405778733
31
0
0
LINE
5
219
100
AcDbEntity
8
0
100
AcDbLine
10
-705.71614697919767
20
-978.79684405778733
30
0
11
-707.4711461399595
21
-978.79683994354662
31
0
0
LINE
5
220
100
AcDbEntity
8
0
100
AcDbLine
10
-708.05614528352953
20
-978.21183924924162
30
0
11
-708.05614116928609
21
-976.4568388963869
31
0
0
LINE
5
221
100
AcDbEntity
8
0
100
AcDbLine
10
-706.88614013932101
20
-976.45684163921771
30
0
11
-706.88614562497708
21
-978.79684131496208
31
0
0
ARC
5
222
100
AcDbEntity
8
0
100
AcDbCircle
10
-707.54137350984081
20
-978.28206784058739
30
0
40
0.51954049617052078
210
0
220
0
230
1
100
AcDbArc
50
172.23124585832852
51
277.76848436694769
0
LINE
5
223
100
AcDbEntity
8
0
100
AcDbLine
10
-710.78613844552387
20
-975.28683265858172
30
0
11
-710.78614667400802
21
-978.79683217219826
31
0
0
LINE
5
224
100
AcDbEntity
8
0
100
AcDbLine
10
-710.78614667400802
20
-978.79683217219826
30
0
11
-711.76114514812639
21
-978.79682988651143
31
0
0
LINE
5
225
100
AcDbEntity
8
0
100
AcDbLine
10
-712.34614429169642
20
-978.21182919220644
30
0
11
-712.34614154886845
21
-977.04182935433437
31
0
0
LINE
5
226
100
AcDbEntity
8
0
100
AcDbLine
10
-711.76113966247044
20
-976.45683021076718
30
0
11
-710.78614118835208
21
-976.45683249645401
31
0
0
ARC
5
227
100
AcDbEntity
8
0
100
AcDbCircle
10
-711.8313725180077
20
-978.28205778355232
30
0
40
0.51954049617052078
210
0
220
0
230
1
100
AcDbArc
50
172.23124585832852
51
277.76848436694769
0
ARC
5
228
100
AcDbEntity
8
0
100
AcDbCircle
10
-711.8313694459091
20
-976.97160198445306
30
0
40
0.51954049617052078
210
0
220
0
230
1
100
AcDbArc
50
82.231236523660428
51
187.76848186246255
0
LINE
5
229
100
AcDbEntity
8
0
100
AcDbLine
10
-713.41865054216453
20
-979.96682583870381
30
0
11
-713.41864368509596
21
-977.04182684006992
31
0
0
ARC
5
230
100
AcDbEntity
8
0
100
AcDbCircle
10
-713.93341545878172
20
-976.97159705663125
30
0
40
0.51954049617052078
210
0
220
0
230
1
100
AcDbArc
50
-7.7687454902415123
51
97.768468885343125
0
LINE
5
231
100
AcDbEntity
8
0
100
AcDbLine
10
-714.7836383882925
20
-975.28682328725154
30
0
11
-715.17363873161412
21
-975.2868223729746
31
0
0
LINE
5
232
100
AcDbEntity
8
0
100
AcDbLine
10
-715.17363873161412
20
-975.2868223729746
30
0
11
-716.34364560587744
21
-978.79681914376579
31
0
0
LINE
5
233
100
AcDbEntity
8
0
100
AcDbLine
10
-714.78364661677665
20
-978.79682280086797
30
0
11
-715.56364181776394
21
-976.45682129656973
31
0
0
ENDSEC
0
SECTION
2
OBJECTS
0
DICTIONARY
5
C
100
AcDbDictionary
3
ACAD_GROUP
350
D
3
ACAD_MLINESTYLE
350
17
0
DICTIONARY
5
D
100
AcDbDictionary
0
DICTIONARY
5
1A
330
C
100
AcDbDictionary
0
DICTIONARY
5
17
100
AcDbDictionary
0
ENDSEC
0
EOF
