0
SECTION
2
HEADER
9
$INSUNITS
70
4
9
$ACADVER
1
AC1014
9
$HANDSEED
5
FFFF
0
ENDSEC
0
SECTION
2
TABLES
0
TABLE
2
VPORT
5
8
100
AcDbSymbolTable
0
ENDTAB
0
TABLE
2
LTYPE
5
5
100
AcDbSymbolTable
0
LTYPE
5
14
100
AcDbSymbolTableRecord
100
AcDbLinetypeTableRecord
2
BYBLOCK
70
0
0
LTYPE
5
15
100
AcDbSymbolTableRecord
100
AcDbLinetypeTableRecord
2
BYLAYER
70
0
0
LTYPE
5
16
100
AcDbSymbolTableRecord
100
AcDbLinetypeTableRecord
2
DASHED
70
0
3
Dashed __ __ __ __ __ __ __ __ __ __ __ __ __ _
72
65
73
2
40
0.75
49
0.5
74
0
49
-0.25
74
0
0
ENDTAB
0
TABLE
2
LAYER
5
2
100
AcDbSymbolTable
70
3
0
LAYER
5
50
100
AcDbSymbolTableRecord
100
AcDbLayerTableRecord
2
1
70
0
62
7
6
DASHED
0
LAYER
5
51
100
AcDbSymbolTableRecord
100
AcDbLayerTableRecord
2
0
70
0
62
7
6
CONTINUOUS
0
ENDTAB
0
TABLE
2
STYLE
5
3
100
AcDbSymbolTable
70
1
0
STYLE
5
11
100
AcDbSymbolTableRecord
100
AcDbTextStyleTableRecord
2
STANDARD
70
0
0
ENDTAB
0
TABLE
2
VIEW
5
6
100
AcDbSymbolTable
70
0
0
ENDTAB
0
TABLE
2
UCS
5
7
100
AcDbSymbolTable
70
0
0
ENDTAB
0
TABLE
2
APPID
5
9
100
AcDbSymbolTable
70
2
0
APPID
5
12
100
AcDbSymbolTableRecord
100
AcDbRegAppTableRecord
2
ACAD
70
0
0
ENDTAB
0
TABLE
2
DIMSTYLE
5
A
100
AcDbSymbolTable
70
1
0
ENDTAB
0
TABLE
2
BLOCK_RECORD
5
1
100
AcDbSymbolTable
70
1
0
BLOCK_RECORD
5
1F
100
AcDbSymbolTableRecord
100
AcDbBlockTableRecord
2
*MODEL_SPACE
0
BLOCK_RECORD
5
1B
100
AcDbSymbolTableRecord
100
AcDbBlockTableRecord
2
*PAPER_SPACE
0
ENDTAB
0
ENDSEC
0
SECTION
2
BLOCKS
0
BLOCK
5
20
100
AcDbEntity
100
AcDbBlockBegin
2
*MODEL_SPACE
0
ENDBLK
5
21
100
AcDbEntity
100
AcDbBlockEnd
0
BLOCK
5
1C
100
AcDbEntity
100
AcDbBlockBegin
2
*PAPER_SPACE
0
ENDBLK
5
1D
100
AcDbEntity
100
AcDbBlockEnd
0
ENDSEC
0
SECTION
2
ENTITIES
0
CIRCLE
5
100
100
AcDbEntity
8
0
100
AcDbCircle
10
-548.99932242831346
20
-2149.2183537332821
30
0
40
1.0000000000000142
210
1.2325951644078309e-32
220
-2.052683297350805e-48
230
1
0
CIRCLE
5
101
100
AcDbEntity
8
0
100
AcDbCircle
10
-511.99912122919136
20
-1770.6237973068364
30
0
40
1.0000000000000142
210
1.5407439555097887e-32
220
-3.4211388289180092e-48
230
1
0
CIRCLE
5
102
100
AcDbEntity
8
0
100
AcDbCircle
10
-565.99912122919159
20
-2375.7522757853903
30
0
40
1.0000000000000142
210
1.5407439555097887e-32
220
-3.4211388289180092e-48
230
1
0
CIRCLE
5
103
100
AcDbEntity
8
0
100
AcDbCircle
10
-565.99912122919147
20
-1830.0027763678099
30
0
40
1.0000000000000142
210
1.5407439555097887e-32
220
-3.4211388289180092e-48
230
1
0
CIRCLE
5
104
100
AcDbEntity
8
0
100
AcDbCircle
10
-521.47262142500927
20
-2375.7522757853903
30
0
40
1.0000000000000142
210
1.5407439555097887e-32
220
-3.4211388289180092e-48
230
1
0
CIRCLE
5
105
100
AcDbEntity
8
0
100
AcDbCircle
10
-506.99912122973797
20
-2018.7523277781584
30
0
40
1.0000000000000142
210
-1.2325951644078309e-32
220
3.4923404808094531e-48
230
1
0
CIRCLE
5
106
100
AcDbEntity
8
0
100
AcDbCircle
10
-506.99912122982778
20
-1914.7523277781581
30
0
40
1.0000000000000142
210
-1.2325951644078309e-32
220
3.4923404808094531e-48
230
1
0
CIRCLE
5
107
100
AcDbEntity
8
0
100
AcDbCircle
10
-548.89814643754494
20
-2065.560652830568
30
0
40
1.0000000000000142
210
-1.2325699868934111e-32
220
7.878244166299627e-35
230
1
0
LWPOLYLINE
5
108
100
AcDbEntity
8
0
100
AcDbPolyline
90
23
70
1
43
0.0
10
-512.99912122977378
20
-2004.6167625831335
42
0.9999999925494194
10
-508.74941683080351
20
-2008.8523277781665
10
-500.99912122976684
20
-2008.8523277781485
10
-500.99912122919164
20
-2346.3429337819466
42
-0.12904440678689449
10
-508.60370308302527
20
-2375.3172498839831
10
-511.75891361948999
20
-2380.914046864099
42
-0.27739151512253868
10
-521.47262142500927
20
-2386.7522757853903
10
-570.99912122919159
20
-2386.7522757853903
42
-0.41421356237309709
10
-580.99912122919159
20
-2376.7522757853903
10
-580.99912122919147
20
-2042.300566271025
42
-0.15768848558797835
10
-579.48400462803352
20
-2037.615879803029
42
0.32341899751641712
10
-579.48400462803352
20
-2004.8230745270594
42
-0.15768848558796972
10
-580.99912122919147
20
-2000.1383880590633
10
-580.99912122919147
20
-1832.1924780199247
42
-0.24836949572690228
10
-576.62094572874503
20
-1823.9223456572468
10
-569.39750489586254
20
-1819.0120352940612
10
-553.90991079976425
20
-1806.1057068806463
10
-540.18178054047792
20
-1790.6492493536321
10
-520.93172595511521
20
-1764.2044069299855
42
-0.72853074373476023
10
-500.99912123015491
20
-1770.6239429015966
10
-500.99912122990366
20
-1924.6523277781484
10
-508.75648054278122
20
-1924.6523277781484
42
0.99999999999999989
10
-512.9991212298969
20
-1928.8949684652712
0
LINE
5
109
100
AcDbEntity
8
1
100
AcDbLine
10
-574.99912122919159
20
-2369.7522757853908
30
0
11
-508.00000756978989
21
-2369.7522757853908
31
0
0
LINE
5
110
100
AcDbEntity
8
1
100
AcDbLine
10
-508.00000756978989
20
-2369.7522757853908
30
0
11
-508.00000756978989
21
-2319.7522750403327
31
0
0
LINE
5
111
100
AcDbEntity
8
1
100
AcDbLine
10
-508.00000756978989
20
-2319.7522750403327
30
0
11
-574.99912122919159
21
-2319.7522750403327
31
0
0
LINE
5
112
100
AcDbEntity
8
1
100
AcDbLine
10
-574.99912122919159
20
-2319.7522750403327
30
0
11
-574.99912122919159
21
-2369.7522757853908
31
0
0
LINE
5
113
100
AcDbEntity
8
0
100
AcDbLine
10
-571.92787120773392
20
-2354.1522756125373
30
0
11
-573.09787119462089
21
-2354.1522756125373
31
0
0
LINE
5
114
100
AcDbEntity
8
0
100
AcDbLine
10
-574.26787118150787
20
-2352.9822745825691
30
0
11
-574.26787118150787
21
-2350.0572743918342
31
0
0
LINE
5
115
100
AcDbEntity
8
0
100
AcDbLine
10
-573.09787119462089
20
-2348.8872757460517
30
0
11
-571.92787120773392
21
-2348.8872757460517
31
0
0
ARC
5
116
100
AcDbEntity
8
0
100
AcDbCircle
10
-573.23832670881347
20
-2353.1227317358894
30
0
40
1.0390811413526535
210
0
220
0
230
1
100
AcDbArc
50
172.23138882810133
51
277.76860320370434
0
ARC
5
117
100
AcDbEntity
8
0
100
AcDbCircle
10
-573.23832670881347
20
-2349.9168196226997
30
0
40
1.0390811413526535
210
0
220
0
230
1
100
AcDbArc
50
82.231386323637821
51
187.76862118978684
0
LINE
5
118
100
AcDbEntity
8
0
100
AcDbLine
10
-570.61162094308929
20
-2350.0572743918342
30
0
11
-569.14912084772186
21
-2348.8872757460517
31
0
0
LINE
5
119
100
AcDbEntity
8
0
100
AcDbLine
10
-569.14912084772186
20
-2348.8872757460517
30
0
11
-569.14912084772186
21
-2354.1522756125373
31
0
0
LINE
5
120
100
AcDbEntity
8
0
100
AcDbLine
10
-570.61162094308929
20
-2354.1522756125373
30
0
11
-567.68662075235443
21
-2354.1522756125373
31
0
0
LINE
5
121
100
AcDbEntity
8
0
100
AcDbLine
10
-565.93162039949493
20
-2354.1522756125373
30
0
11
-566.224120656987
21
-2354.1522756125373
31
0
0
LINE
5
122
100
AcDbEntity
8
0
100
AcDbLine
10
-566.224120656987
20
-2354.1522756125373
30
0
11
-566.224120656987
21
-2353.8597765471382
31
0
0
LINE
5
123
100
AcDbEntity
8
0
100
AcDbLine
10
-566.224120656987
20
-2353.8597765471382
30
0
11
-565.93162039949493
21
-2353.8597765471382
31
0
0
LINE
5
124
100
AcDbEntity
8
0
100
AcDbLine
10
-565.93162039949493
20
-2353.8597765471382
30
0
11
-565.93162039949493
21
-2354.1522756125373
31
0
0
LINE
5
125
100
AcDbEntity
8
0
100
AcDbLine
10
-565.93162039949493
20
-2354.1522756125373
30
0
11
-566.37037078573303
21
-2355.3222766425056
31
0
0
LINE
5
126
100
AcDbEntity
8
0
100
AcDbLine
10
-561.98287109567718
20
-2354.1522756125373
30
0
11
-561.98287109567718
21
-2350.6422749068183
31
0
0
LINE
5
127
100
AcDbEntity
8
0
100
AcDbLine
10
-561.98287109567718
20
-2350.6422749068183
30
0
11
-560.22787074281769
21
-2350.6422749068183
31
0
0
LINE
5
128
100
AcDbEntity
8
0
100
AcDbLine
10
-560.22787074281769
20
-2350.6422749068183
30
0
11
-560.22787074281769
21
-2351.2272754218025
31
0
0
LINE
5
129
100
AcDbEntity
8
0
100
AcDbLine
10
-556.71787122919159
20
-2354.1522756125373
30
0
11
-558.18037132455902
21
-2354.1522756125373
31
0
0
LINE
5
130
100
AcDbEntity
8
0
100
AcDbLine
10
-559.05787090494232
20
-2353.274776032154
30
0
11
-559.05787090494232
21
-2351.8122759367866
31
0
0
LINE
5
131
100
AcDbEntity
8
0
100
AcDbLine
10
-556.71787122919159
20
-2351.8122759367866
30
0
11
-556.71787122919159
21
-2352.3972764517707
31
0
0
LINE
5
132
100
AcDbEntity
8
0
100
AcDbLine
10
-556.71787122919159
20
-2352.3972764517707
30
0
11
-559.05787090494232
21
-2352.3972764517707
31
0
0
ARC
5
133
100
AcDbEntity
8
0
100
AcDbCircle
10
-558.28571299745636
20
-2353.3801165129585
30
0
40
0.77931083738803864
210
0
220
0
230
1
100
AcDbArc
50
172.23138882809494
51
277.76860320370986
0
ARC
5
134
100
AcDbEntity
8
0
100
AcDbCircle
10
-557.88787106706695
20
-2351.8122759367866
30
0
40
1.1700000613927839
210
0
220
0
230
1
100
AcDbArc
50
0
51
180.00000497831306
0
LINE
5
135
100
AcDbEntity
8
0
100
AcDbLine
10
-552.91537145807342
20
-2352.1047750021858
30
0
11
-554.23162082864837
21
-2352.1047750021858
31
0
0
LINE
5
136
100
AcDbEntity
8
0
100
AcDbLine
10
-554.23162082864837
20
-2354.1522756125373
30
0
11
-552.91537145807342
21
-2354.1522756125373
31
0
0
LINE
5
137
100
AcDbEntity
8
0
100
AcDbLine
10
-552.91537145807342
20
-2354.1522756125373
30
0
11
-552.91537145807342
21
-2351.5197744872016
31
0
0
LINE
5
138
100
AcDbEntity
8
0
100
AcDbLine
10
-553.79287103845672
20
-2350.6422749068183
30
0
11
-554.96287206842499
21
-2350.6422749068183
31
0
0
ARC
5
139
100
AcDbEntity
8
0
100
AcDbCircle
10
-554.23162082864837
20
-2353.1285253073615
30
0
40
1.0237500816583633
210
0
220
0
230
1
100
AcDbArc
50
90.000002504477479
51
270.00000068324812
0
ARC
5
140
100
AcDbEntity
8
0
100
AcDbCircle
10
-553.68752817346649
20
-2351.4144340063972
30
0
40
0.77931083738803864
210
0
220
0
230
1
100
AcDbArc
50
-7.7686198232944514
51
97.768618685312589
0
LINE
5
141
100
AcDbEntity
8
0
100
AcDbLine
10
-551.16037229730682
20
-2354.1522756125373
30
0
11
-551.16037229730682
21
-2350.6422749068183
31
0
0
LINE
5
142
100
AcDbEntity
8
0
100
AcDbLine
10
-551.16037229730682
20
-2350.6422749068183
30
0
11
-549.40537075235443
21
-2350.6422749068183
31
0
0
LINE
5
143
100
AcDbEntity
8
0
100
AcDbLine
10
-549.40537075235443
20
-2350.6422749068183
30
0
11
-549.40537075235443
21
-2351.2272754218025
31
0
0
LINE
5
144
100
AcDbEntity
8
0
100
AcDbLine
10
-543.84787182046966
20
-2354.1522756125373
30
0
11
-545.01787046625213
21
-2354.1522756125373
31
0
0
LINE
5
145
100
AcDbEntity
8
0
100
AcDbLine
10
-545.89537004663543
20
-2353.274776032154
30
0
11
-545.89537004663543
21
-2351.5197744872016
31
0
0
LINE
5
146
100
AcDbEntity
8
0
100
AcDbLine
10
-545.01787046625213
20
-2350.6422749068183
30
0
11
-543.84787182046966
21
-2350.6422749068183
31
0
0
ARC
5
147
100
AcDbEntity
8
0
100
AcDbCircle
10
-545.12321333124237
20
-2353.3801165129585
30
0
40
0.77931083738803864
210
0
220
0
230
1
100
AcDbArc
50
172.23138882809494
51
277.76860320370986
0
ARC
5
148
100
AcDbEntity
8
0
100
AcDbCircle
10
-545.12321333124237
20
-2351.4144340063972
30
0
40
0.77931083738803864
210
0
220
0
230
1
100
AcDbArc
50
82.231386323642568
51
187.76862118979309
0
LINE
5
149
100
AcDbEntity
8
0
100
AcDbLine
10
-542.53162244989471
20
-2352.9822745825691
30
0
11
-542.53162244989471
21
-2351.8122759367866
31
0
0
LINE
5
150
100
AcDbEntity
8
0
100
AcDbLine
10
-540.19162038995819
20
-2351.8122759367866
30
0
11
-540.19162038995819
21
-2352.9822745825691
31
0
0
ARC
5
151
100
AcDbEntity
8
0
100
AcDbCircle
10
-541.36162141992645
20
-2351.8122759367866
30
0
40
1.1700000613927841
210
0
220
0
230
1
100
AcDbArc
50
0
51
180.00000497831306
0
ARC
5
152
100
AcDbEntity
8
0
100
AcDbCircle
10
-541.36162141992645
20
-2352.9822745825691
30
0
40
1.1700000613927841
210
0
220
0
230
1
100
AcDbArc
50
-179.99999502168694
51
0
0
LINE
5
153
100
AcDbEntity
8
0
100
AcDbLine
10
-538.58287195398407
20
-2354.1522756125373
30
0
11
-538.58287195398407
21
-2350.6422749068183
31
0
0
LINE
5
154
100
AcDbEntity
8
0
100
AcDbLine
10
-538.58287195398407
20
-2350.6422749068183
30
0
11
-537.12037185861664
21
-2350.6422749068183
31
0
0
LINE
5
155
100
AcDbEntity
8
0
100
AcDbLine
10
-536.24287227823334
20
-2351.5197744872016
30
0
11
-536.24287227823334
21
-2354.1522756125373
31
0
0
ARC
5
156
100
AcDbEntity
8
0
100
AcDbCircle
10
-537.0150289936264
20
-2351.4144340063972
30
0
40
0.77931083738803864
210
0
220
0
230
1
100
AcDbArc
50
-7.7686198232944514
51
97.768618685312589
0
LINE
5
157
100
AcDbEntity
8
0
100
AcDbLine
10
-534.9266181392868
20
-2350.6422749068183
30
0
11
-533.1716189785202
21
-2350.6422749068183
31
0
0
LINE
5
158
100
AcDbEntity
8
0
100
AcDbLine
10
-534.34162000848846
20
-2348.8872757460517
30
0
11
-534.34162000848846
21
-2353.274776032154
31
0
0
LINE
5
159
100
AcDbEntity
8
0
100
AcDbLine
10
-533.46412042810516
20
-2354.1522756125373
30
0
11
-533.1716189785202
21
-2354.1522756125373
31
0
0
ARC
5
160
100
AcDbEntity
8
0
100
AcDbCircle
10
-533.5694632930954
20
-2353.3801165129585
30
0
40
0.77931083738803864
210
0
220
0
230
1
100
AcDbArc
50
172.23138882809494
51
277.76860320370986
0
LINE
5
161
100
AcDbEntity
8
0
100
AcDbLine
10
-531.70912126733856
20
-2354.1522756125373
30
0
11
-531.70912126733856
21
-2350.6422749068183
31
0
0
LINE
5
162
100
AcDbEntity
8
0
100
AcDbLine
10
-531.70912126733856
20
-2350.6422749068183
30
0
11
-529.95412210657196
21
-2350.6422749068183
31
0
0
LINE
5
163
100
AcDbEntity
8
0
100
AcDbLine
10
-529.95412210657196
20
-2350.6422749068183
30
0
11
-529.95412210657196
21
-2351.2272754218025
31
0
0
LINE
5
164
100
AcDbEntity
8
0
100
AcDbLine
10
-528.7841210766037
20
-2352.9822745825691
30
0
11
-528.7841210766037
21
-2351.8122759367866
31
0
0
LINE
5
165
100
AcDbEntity
8
0
100
AcDbLine
10
-526.44411901666717
20
-2351.8122759367866
30
0
11
-526.44411901666717
21
-2352.9822745825691
31
0
0
ARC
5
166
100
AcDbEntity
8
0
100
AcDbCircle
10
-527.61412004663543
20
-2351.8122759367866
30
0
40
1.1700000613927841
210
0
220
0
230
1
100
AcDbArc
50
0
51
180.00000497831306
0
ARC
5
167
100
AcDbEntity
8
0
100
AcDbCircle
10
-527.61412004663543
20
-2352.9822745825691
30
0
40
1.1700000613927841
210
0
220
0
230
1
100
AcDbArc
50
-179.99999502168694
51
0
0
LINE
5
168
100
AcDbEntity
8
0
100
AcDbLine
10
-524.83537058069305
20
-2348.8872757460517
30
0
11
-524.83537058069305
21
-2353.274776032154
31
0
0
ARC
5
169
100
AcDbEntity
8
0
100
AcDbCircle
10
-524.06321386529999
20
-2353.3801165129585
30
0
40
0.77931083738803864
210
0
220
0
230
1
100
AcDbArc
50
172.23138882809494
51
277.76860320370986
0
LINE
5
170
100
AcDbEntity
8
0
100
AcDbLine
10
-571.92787120773392
20
-2359.9047771002693
30
0
11
-573.2441210253437
21
-2359.9047771002693
31
0
0
LINE
5
171
100
AcDbEntity
8
0
100
AcDbLine
10
-573.2441210253437
20
-2361.9522777106208
30
0
11
-571.92787120773392
21
-2361.9522777106208
31
0
0
LINE
5
172
100
AcDbEntity
8
0
100
AcDbLine
10
-571.92787120773392
20
-2361.9522777106208
30
0
11
-571.92787120773392
21
-2359.3197789694709
31
0
0
LINE
5
173
100
AcDbEntity
8
0
100
AcDbLine
10
-572.80537108614044
20
-2358.4422770049018
30
0
11
-573.97537114753322
21
-2358.4422770049018
31
0
0
ARC
5
174
100
AcDbEntity
8
0
100
AcDbCircle
10
-573.2441210253437
20
-2360.928527405445
30
0
40
1.0237500816583633
210
0
220
0
230
1
100
AcDbArc
50
90.000002504477479
51
270.00000068324812
0
ARC
5
175
100
AcDbEntity
8
0
100
AcDbCircle
10
-572.7000294132431
20
-2359.2144361044807
30
0
40
0.77931083738803864
210
0
220
0
230
1
100
AcDbArc
50
-7.7686198232944514
51
97.768618685312589
0
LINE
5
176
100
AcDbEntity
8
0
100
AcDbLine
10
-568.41787080003814
20
-2360.4897799994392
30
0
11
-569.88037089540558
21
-2359.9047771002693
31
0
0
ARC
5
177
100
AcDbEntity
8
0
100
AcDbCircle
10
-569.64196900560455
20
-2359.191958000843
30
0
40
0.75162976980209339
210
0
220
0
230
1
100
AcDbArc
50
85.87258749092571
51
251.50753671300296
0
ARC
5
178
100
AcDbEntity
8
0
100
AcDbCircle
10
-569.50096289350586
20
-2361.1590066458625
30
0
40
2.7181166410446167
210
0
220
0
230
1
100
AcDbArc
50
63.110121478031125
51
91.832262221036217
0
ARC
5
179
100
AcDbEntity
8
0
100
AcDbCircle
10
-568.66288642122345
20
-2361.2012734915656
30
0
40
0.75250290334224701
210
0
220
0
230
1
100
AcDbArc
50
-93.617868557833575
51
70.998006422147043
0
ARC
5
180
100
AcDbEntity
8
0
100
AcDbCircle
10
-568.97824744417267
20
-2358.8552871252937
30
0
40
3.1085547804832454
210
0
220
0
230
1
100
AcDbArc
50
244.44676035660888
51
274.94352767996111
0
LINE
5
181
100
AcDbEntity
8
0
100
AcDbLine
10
-564.61537102891998
20
-2360.4897799994392
30
0
11
-566.07787112428741
21
-2359.9047771002693
31
0
0
ARC
5
182
100
AcDbEntity
8
0
100
AcDbCircle
10
-565.83946923448639
20
-2359.191958000843
30
0
40
0.75162976980209339
210
0
220
0
230
1
100
AcDbArc
50
85.87258749092571
51
251.50753671300296
0
ARC
5
183
100
AcDbEntity
8
0
100
AcDbCircle
10
-565.69846312238769
20
-2361.1590066458625
30
0
40
2.7181166410446167
210
0
220
0
230
1
100
AcDbArc
50
63.110121478031125
51
91.832262221036217
0
ARC
5
184
100
AcDbEntity
8
0
100
AcDbCircle
10
-564.86038665010528
20
-2361.2012734915656
30
0
40
0.75250290334224701
210
0
220
0
230
1
100
AcDbArc
50
-93.617868557833575
51
70.998006422147043
0
ARC
5
185
100
AcDbEntity
8
0
100
AcDbCircle
10
-565.1757476730545
20
-2358.8552871252937
30
0
40
3.1085547804832454
210
0
220
0
230
1
100
AcDbArc
50
244.44676035660888
51
274.94352767996111
0
LINE
5
186
100
AcDbEntity
8
0
100
AcDbLine
10
-560.37412146761017
20
-2361.9522777106208
30
0
11
-561.8366215629776
21
-2361.9522777106208
31
0
0
LINE
5
187
100
AcDbEntity
8
0
100
AcDbLine
10
-562.7141211433609
20
-2361.0747781302375
30
0
11
-562.7141211433609
21
-2359.6122756506843
31
0
0
LINE
5
188
100
AcDbEntity
8
0
100
AcDbLine
10
-560.37412146761017
20
-2359.6122756506843
30
0
11
-560.37412146761017
21
-2360.1972785498542
31
0
0
LINE
5
189
100
AcDbEntity
8
0
100
AcDbLine
10
-560.37412146761017
20
-2360.1972785498542
30
0
11
-562.7141211433609
21
-2360.1972785498542
31
0
0
ARC
5
190
100
AcDbEntity
8
0
100
AcDbCircle
10
-561.94196323587494
20
-2361.1801209952278
30
0
40
0.77931083738803864
210
0
220
0
230
1
100
AcDbArc
50
172.23138882809494
51
277.76860320370986
0
ARC
5
191
100
AcDbEntity
8
0
100
AcDbCircle
10
-561.54412130548553
20
-2359.6122756506843
30
0
40
1.1700000613927839
210
0
220
0
230
1
100
AcDbArc
50
0
51
180.00000497831306
0
LINE
5
192
100
AcDbEntity
8
0
100
AcDbLine
10
-558.76537183954315
20
-2361.9522777106208
30
0
11
-558.76537183954315
21
-2358.4422770049018
31
0
0
LINE
5
193
100
AcDbEntity
8
0
100
AcDbLine
10
-558.76537183954315
20
-2358.4422770049018
30
0
11
-556.13287071420746
21
-2358.4422770049018
31
0
0
LINE
5
194
100
AcDbEntity
8
0
100
AcDbLine
10
-555.25537113382416
20
-2359.3197789694709
30
0
11
-555.25537113382416
21
-2361.9522777106208
31
0
0
LINE
5
195
100
AcDbEntity
8
0
100
AcDbLine
10
-557.01037148668365
20
-2361.9522777106208
30
0
11
-557.01037148668365
21
-2358.4422770049018
31
0
0
ARC
5
196
100
AcDbEntity
8
0
100
AcDbCircle
10
-556.02753023340301
20
-2359.2144361044807
30
0
40
0.77931083738803864
210
0
220
0
230
1
100
AcDbArc
50
-7.7686198232944514
51
97.768618685312589
0
LINE
5
197
100
AcDbEntity
8
0
100
AcDbLine
10
-553.50037197305755
20
-2356.6872778441352
30
0
11
-553.50037197305755
21
-2361.9522777106208
31
0
0
LINE
5
198
100
AcDbEntity
8
0
100
AcDbLine
10
-553.50037197305755
20
-2361.9522777106208
30
0
11
-552.03787187769012
21
-2361.9522777106208
31
0
0
LINE
5
199
100
AcDbEntity
8
0
100
AcDbLine
10
-551.16037229730682
20
-2361.0747781302375
30
0
11
-551.16037229730682
21
-2359.3197789694709
31
0
0
LINE
5
200
100
AcDbEntity
8
0
100
AcDbLine
10
-552.03787187769012
20
-2358.4422770049018
30
0
11
-553.50037197305755
21
-2358.4422770049018
31
0
0
ARC
5
201
100
AcDbEntity
8
0
100
AcDbCircle
10
-551.93252901269989
20
-2361.1801209952278
30
0
40
0.77931083738803864
210
0
220
0
230
1
100
AcDbArc
50
-97.768629157969158
51
7.7686161808485608
0
ARC
5
202
100
AcDbEntity
8
0
100
AcDbCircle
10
-551.93252901269989
20
-2359.2144361044807
30
0
40
0.77931083738803864
210
0
220
0
230
1
100
AcDbArc
50
-7.7686198232944514
51
97.768618685312589
0
LINE
5
203
100
AcDbEntity
8
0
100
AcDbLine
10
-549.55162147714691
20
-2356.6872778441352
30
0
11
-549.55162147714691
21
-2361.0747781302375
31
0
0
ARC
5
204
100
AcDbEntity
8
0
100
AcDbCircle
10
-548.77946237756805
20
-2361.1801209952278
30
0
40
0.77931083738803864
210
0
220
0
230
1
100
AcDbArc
50
172.23138882809494
51
277.76860320370986
0
LINE
5
205
100
AcDbEntity
8
0
100
AcDbLine
10
-547.50412086679535
20
-2363.7072768713874
30
0
11
-546.91912035181122
21
-2363.7072768713874
31
0
0
LINE
5
206
100
AcDbEntity
8
0
100
AcDbLine
10
-546.91912035181122
20
-2363.7072768713874
30
0
11
-545.16412119104461
21
-2358.4422770049018
31
0
0
LINE
5
207
100
AcDbEntity
8
0
100
AcDbLine
10
-547.50412086679535
20
-2358.4422770049018
30
0
11
-546.33412222101288
21
-2361.9522777106208
31
0
0
LINE
5
208
100
AcDbEntity
8
0
100
AcDbLine
10
-539.60661987497406
20
-2360.4897799994392
30
0
11
-541.06911997034149
21
-2359.9047771002693
31
0
0
ARC
5
209
100
AcDbEntity
8
0
100
AcDbCircle
10
-540.83072046472626
20
-2359.191958000843
30
0
40
0.75162976980209351
210
0
220
0
230
1
100
AcDbArc
50
85.87258749092571
51
251.50753671300296
0
ARC
5
210
100
AcDbEntity
8
0
100
AcDbCircle
10
-540.68971256448822
20
-2361.1590066458625
30
0
40
2.7181166410446163
210
0
220
0
230
1
100
AcDbArc
50
63.110121478031125
51
91.832262221036217
0
ARC
5
211
100
AcDbEntity
8
0
100
AcDbCircle
10
-539.85163549615936
20
-2361.2012734915656
30
0
40
0.75250290334224701
210
0
220
0
230
1
100
AcDbArc
50
-93.617868557833575
51
70.998006422147043
0
ARC
5
212
100
AcDbEntity
8
0
100
AcDbCircle
10
-540.16699651910858
20
-2358.8552871252937
30
0
40
3.1085547804832458
210
0
220
0
230
1
100
AcDbArc
50
244.44676035660888
51
274.94352767996111
0
LINE
5
213
100
AcDbEntity
8
0
100
AcDbLine
10
-537.55912164880829
20
-2361.9522777106208
30
0
11
-537.55912164880829
21
-2358.4422770049018
31
0
0
LINE
5
214
100
AcDbEntity
8
0
100
AcDbLine
10
-537.70537237360077
20
-2356.9797769095344
30
0
11
-537.70537237360077
21
-2356.6872778441352
31
0
0
LINE
5
215
100
AcDbEntity
8
0
100
AcDbLine
10
-537.70537237360077
20
-2356.6872778441352
30
0
11
-537.41287092401581
21
-2356.6872778441352
31
0
0
LINE
5
216
100
AcDbEntity
8
0
100
AcDbLine
10
-537.41287092401581
20
-2356.6872778441352
30
0
11
-537.41287092401581
21
-2356.9797769095344
31
0
0
LINE
5
217
100
AcDbEntity
8
0
100
AcDbLine
10
-537.41287092401581
20
-2356.9797769095344
30
0
11
-537.70537237360077
21
-2356.9797769095344
31
0
0
LINE
5
218
100
AcDbEntity
8
0
100
AcDbLine
10
-533.61037115289764
20
-2356.6872778441352
30
0
11
-533.61037115289764
21
-2361.9522777106208
31
0
0
LINE
5
219
100
AcDbEntity
8
0
100
AcDbLine
10
-533.61037115289764
20
-2361.9522777106208
30
0
11
-535.07287124826507
21
-2361.9522777106208
31
0
0
LINE
5
220
100
AcDbEntity
8
0
100
AcDbLine
10
-535.95037321283417
20
-2361.0747781302375
30
0
11
-535.95037321283417
21
-2359.3197789694709
31
0
0
LINE
5
221
100
AcDbEntity
8
0
100
AcDbLine
10
-535.07287124826507
20
-2358.4422770049018
30
0
11
-533.61037115289764
21
-2358.4422770049018
31
0
0
ARC
5
222
100
AcDbEntity
8
0
100
AcDbCircle
10
-535.17821411325531
20
-2361.1801209952278
30
0
40
0.77931083738803864
210
0
220
0
230
1
100
AcDbArc
50
172.23138882809494
51
277.76860320370986
0
ARC
5
223
100
AcDbEntity
8
0
100
AcDbCircle
10
-535.17821411325531
20
-2359.2144361044807
30
0
40
0.77931083738803864
210
0
220
0
230
1
100
AcDbArc
50
82.231386323642568
51
187.76862118979309
0
LINE
5
224
100
AcDbEntity
8
0
100
AcDbLine
10
-529.661620656987
20
-2361.9522777106208
30
0
11
-531.12412313654022
21
-2361.9522777106208
31
0
0
LINE
5
225
100
AcDbEntity
8
0
100
AcDbLine
10
-532.00162271692352
20
-2361.0747781302375
30
0
11
-532.00162271692352
21
-2359.6122756506843
31
0
0
LINE
5
226
100
AcDbEntity
8
0
100
AcDbLine
10
-529.661620656987
20
-2359.6122756506843
30
0
11
-529.661620656987
21
-2360.1972785498542
31
0
0
LINE
5
227
100
AcDbEntity
8
0
100
AcDbLine
10
-529.661620656987
20
-2360.1972785498542
30
0
11
-532.00162271692352
21
-2360.1972785498542
31
0
0
ARC
5
228
100
AcDbEntity
8
0
100
AcDbCircle
10
-531.22946123315887
20
-2361.1801209952278
30
0
40
0.77931083738803864
210
0
220
0
230
1
100
AcDbArc
50
172.23138882809494
51
277.76860320370986
0
ARC
5
229
100
AcDbEntity
8
0
100
AcDbCircle
10
-530.83162168695526
20
-2359.6122756506843
30
0
40
1.1700000613927841
210
0
220
0
230
1
100
AcDbArc
50
0
51
180.00000497831306
0
LINE
5
230
100
AcDbEntity
8
0
100
AcDbLine
10
-527.9066214962204
20
-2361.9522777106208
30
0
11
-528.19912294580536
21
-2361.9522777106208
31
0
0
LINE
5
231
100
AcDbEntity
8
0
100
AcDbLine
10
-528.19912294580536
20
-2361.9522777106208
30
0
11
-528.19912294580536
21
-2361.6597762610359
31
0
0
LINE
5
232
100
AcDbEntity
8
0
100
AcDbLine
10
-528.19912294580536
20
-2361.6597762610359
30
0
11
-527.9066214962204
21
-2361.6597762610359
31
0
0
LINE
5
233
100
AcDbEntity
8
0
100
AcDbLine
10
-527.9066214962204
20
-2361.6597762610359
30
0
11
-527.9066214962204
21
-2361.9522777106208
31
0
0
LINE
5
234
100
AcDbEntity
8
0
100
AcDbLine
10
-527.9066214962204
20
-2361.9522777106208
30
0
11
-528.34537367059784
21
-2363.1222787405891
31
0
0
LINE
5
235
100
AcDbEntity
8
0
100
AcDbLine
10
-571.78162107898788
20
-2366.8272748495979
30
0
11
-574.26787118150787
21
-2369.7522750403327
31
0
0
LINE
5
236
100
AcDbEntity
8
0
100
AcDbLine
10
-574.26787118150787
20
-2369.7522750403327
30
0
11
-571.34287099077301
21
-2369.7522750403327
31
0
0
ARC
5
237
100
AcDbEntity
8
0
100
AcDbCircle
10
-572.50110859706001
20
-2365.6455102469367
30
0
40
1.1689662933349609
210
0
220
0
230
1
100
AcDbArc
50
-7.7686198233081409
51
97.768618685311722
0
ARC
5
238
100
AcDbEntity
8
0
100
AcDbCircle
10
-572.83570359184341
20
-2365.9354892279548
30
0
40
1.4589405059814451
210
0
220
0
230
1
100
AcDbArc
50
83.048174495536372
51
169.00656965299936
0
ARC
5
239
100
AcDbEntity
8
0
100
AcDbCircle
10
-572.51350979044037
20
-2365.9077134634895
30
0
40
1.1752662807703018
210
0
220
0
230
1
100
AcDbArc
50
-51.483278511482084
51
5.0861029267764879
0
LINE
5
240
100
AcDbEntity
8
0
100
AcDbLine
10
-567.68662075235443
20
-2369.7522750403327
30
0
11
-565.34662048055725
21
-2366.2422767187995
31
0
0
LINE
5
241
100
AcDbEntity
8
0
100
AcDbLine
10
-567.68662075235443
20
-2366.2422767187995
30
0
11
-565.34662048055725
21
-2369.7522750403327
31
0
0
LINE
5
242
100
AcDbEntity
8
0
100
AcDbLine
10
-561.69037083818512
20
-2365.6572738196296
30
0
11
-560.22787074281769
21
-2364.4872727896613
31
0
0
LINE
5
243
100
AcDbEntity
8
0
100
AcDbLine
10
-560.22787074281769
20
-2364.4872727896613
30
0
11
-560.22787074281769
21
-2369.7522750403327
31
0
0
LINE
5
244
100
AcDbEntity
8
0
100
AcDbLine
10
-561.69037083818512
20
-2369.7522750403327
30
0
11
-558.76537064745025
21
-2369.7522750403327
31
0
0
LINE
5
245
100
AcDbEntity
8
0
100
AcDbLine
10
-554.81662134363251
20
-2366.8272748495979
30
0
11
-557.30287055208282
21
-2369.7522750403327
31
0
0
LINE
5
246
100
AcDbEntity
8
0
100
AcDbLine
10
-557.30287055208282
20
-2369.7522750403327
30
0
11
-554.37786916925506
21
-2369.7522750403327
31
0
0
ARC
5
247
100
AcDbEntity
8
0
100
AcDbCircle
10
-555.53610781862335
20
-2365.6455102469367
30
0
40
1.1689662933349609
210
0
220
0
230
1
100
AcDbArc
50
-7.7686198233081409
51
97.768618685311722
0
ARC
5
248
100
AcDbEntity
8
0
100
AcDbCircle
10
-555.87070326044159
20
-2365.9354892279548
30
0
40
1.4589405059814451
210
0
220
0
230
1
100
AcDbArc
50
83.048174495536372
51
169.00656965299936
0
ARC
5
249
100
AcDbEntity
8
0
100
AcDbCircle
10
-555.54850916101532
20
-2365.9077134634895
30
0
40
1.1752662807703018
210
0
220
0
230
1
100
AcDbArc
50
-51.483278511482084
51
5.0861029267764879
0
LINE
5
250
100
AcDbEntity
8
0
100
AcDbLine
10
-550.42912105753021
20
-2369.7522750403327
30
0
11
-550.42912105753021
21
-2366.2422767187995
31
0
0
LINE
5
251
100
AcDbEntity
8
0
100
AcDbLine
10
-550.42912105753021
20
-2366.2422767187995
30
0
11
-547.79661993219452
21
-2366.2422767187995
31
0
0
LINE
5
252
100
AcDbEntity
8
0
100
AcDbLine
10
-546.91912035181122
20
-2367.1197762991828
30
0
11
-546.91912035181122
21
-2369.7522750403327
31
0
0
LINE
5
253
100
AcDbEntity
8
0
100
AcDbLine
10
-548.67411951257782
20
-2369.7522750403327
30
0
11
-548.67411951257782
21
-2366.2422767187995
31
0
0
ARC
5
254
100
AcDbEntity
8
0
100
AcDbCircle
10
-547.69127945139007
20
-2367.0144334341926
30
0
40
0.77931083738803864
210
0
220
0
230
1
100
AcDbArc
50
-7.7686198232944514
51
97.768618685312589
0
LINE
5
255
100
AcDbEntity
8
0
100
AcDbLine
10
-545.16412119104461
20
-2369.7522750403327
30
0
11
-545.16412119104461
21
-2366.2422767187995
31
0
0
LINE
5
256
100
AcDbEntity
8
0
100
AcDbLine
10
-545.16412119104461
20
-2366.2422767187995
30
0
11
-542.53162006570892
21
-2366.2422767187995
31
0
0
LINE
5
257
100
AcDbEntity
8
0
100
AcDbLine
10
-541.65412048532562
20
-2367.1197762991828
30
0
11
-541.65412048532562
21
-2369.7522750403327
31
0
0
LINE
5
258
100
AcDbEntity
8
0
100
AcDbLine
10
-543.40911964609222
20
-2369.7522750403327
30
0
11
-543.40911964609222
21
-2366.2422767187995
31
0
0
ARC
5
259
100
AcDbEntity
8
0
100
AcDbCircle
10
-542.42627958490448
20
-2367.0144334341926
30
0
40
0.77931083738803864
210
0
220
0
230
1
100
AcDbArc
50
-7.7686198232944514
51
97.768618685312589
0
LINE
5
260
100
AcDbEntity
8
0
100
AcDbLine
10
-537.55912164880829
20
-2371.5072742010993
30
0
11
-537.55912164880829
21
-2366.2422767187995
31
0
0
LINE
5
261
100
AcDbEntity
8
0
100
AcDbLine
10
-537.55912164880829
20
-2366.2422767187995
30
0
11
-536.09662155344085
21
-2366.2422767187995
31
0
0
LINE
5
262
100
AcDbEntity
8
0
100
AcDbLine
10
-535.21912197305755
20
-2367.1197762991828
30
0
11
-535.21912197305755
21
-2368.8747754599494
31
0
0
LINE
5
263
100
AcDbEntity
8
0
100
AcDbLine
10
-536.09662155344085
20
-2369.7522750403327
30
0
11
-537.55912164880829
21
-2369.7522750403327
31
0
0
ARC
5
264
100
AcDbEntity
8
0
100
AcDbCircle
10
-535.99127868845062
20
-2367.0144334341926
30
0
40
0.77931083738803864
210
0
220
0
230
1
100
AcDbArc
50
-7.7686198232944514
51
97.768618685312589
0
ARC
5
265
100
AcDbEntity
8
0
100
AcDbCircle
10
-535.99127868845062
20
-2368.9801183249397
30
0
40
0.77931083738803864
210
0
220
0
230
1
100
AcDbArc
50
-97.768629157969158
51
7.7686161808485608
0
LINE
5
266
100
AcDbEntity
8
0
100
AcDbLine
10
-533.61037115289764
20
-2364.4872727896613
30
0
11
-533.61037115289764
21
-2368.8747754599494
31
0
0
ARC
5
267
100
AcDbEntity
8
0
100
AcDbCircle
10
-532.83821443750458
20
-2368.9801183249397
30
0
40
0.77931083738803864
210
0
220
0
230
1
100
AcDbArc
50
172.23138882809494
51
277.76860320370986
0
LINE
5
268
100
AcDbEntity
8
0
100
AcDbLine
10
-531.56287054254608
20
-2371.5072742010993
30
0
11
-530.97786764337616
21
-2371.5072742010993
31
0
0
LINE
5
269
100
AcDbEntity
8
0
100
AcDbLine
10
-530.97786764337616
20
-2371.5072742010993
30
0
11
-529.22286848260956
21
-2366.2422767187995
31
0
0
LINE
5
270
100
AcDbEntity
8
0
100
AcDbLine
10
-531.56287054254608
20
-2366.2422767187995
30
0
11
-530.39286951257782
21
-2369.7522750403327
31
0
0
ENDSEC
0
SECTION
2
OBJECTS
0
DICTIONARY
5
C
100
AcDbDictionary
3
ACAD_GROUP
350
D
3
ACAD_MLINESTYLE
350
17
0
DICTIONARY
5
D
100
AcDbDictionary
0
DICTIONARY
5
1A
330
C
100
AcDbDictionary
0
DICTIONARY
5
17
100
AcDbDictionary
0
ENDSEC
0
EOF
