0
SECTION
2
HEADER
9
$INSUNITS
70
4
9
$ACADVER
1
AC1014
9
$HANDSEED
5
FFFF
0
ENDSEC
0
SECTION
2
TABLES
0
TABLE
2
VPORT
5
8
100
AcDbSymbolTable
0
ENDTAB
0
TABLE
2
LTYPE
5
5
100
AcDbSymbolTable
0
LTYPE
5
14
100
AcDbSymbolTableRecord
100
AcDbLinetypeTableRecord
2
BYBLOCK
70
0
0
LTYPE
5
15
100
AcDbSymbolTableRecord
100
AcDbLinetypeTableRecord
2
BYLAYER
70
0
0
LTYPE
5
16
100
AcDbSymbolTableRecord
100
AcDbLinetypeTableRecord
2
DASHED
70
0
3
Dashed __ __ __ __ __ __ __ __ __ __ __ __ __ _
72
65
73
2
40
0.75
49
0.5
74
0
49
-0.25
74
0
0
ENDTAB
0
TABLE
2
LAYER
5
2
100
AcDbSymbolTable
70
3
0
LAYER
5
50
100
AcDbSymbolTableRecord
100
AcDbLayerTableRecord
2
1
70
0
62
7
6
DASHED
0
LAYER
5
51
100
AcDbSymbolTableRecord
100
AcDbLayerTableRecord
2
0
70
0
62
7
6
CONTINUOUS
0
ENDTAB
0
TABLE
2
STYLE
5
3
100
AcDbSymbolTable
70
1
0
STYLE
5
11
100
AcDbSymbolTableRecord
100
AcDbTextStyleTableRecord
2
STANDARD
70
0
0
ENDTAB
0
TABLE
2
VIEW
5
6
100
AcDbSymbolTable
70
0
0
ENDTAB
0
TABLE
2
UCS
5
7
100
AcDbSymbolTable
70
0
0
ENDTAB
0
TABLE
2
APPID
5
9
100
AcDbSymbolTable
70
2
0
APPID
5
12
100
AcDbSymbolTableRecord
100
AcDbRegAppTableRecord
2
ACAD
70
0
0
ENDTAB
0
TABLE
2
DIMSTYLE
5
A
100
AcDbSymbolTable
70
1
0
ENDTAB
0
TABLE
2
BLOCK_RECORD
5
1
100
AcDbSymbolTable
70
1
0
BLOCK_RECORD
5
1F
100
AcDbSymbolTableRecord
100
AcDbBlockTableRecord
2
*MODEL_SPACE
0
BLOCK_RECORD
5
1B
100
AcDbSymbolTableRecord
100
AcDbBlockTableRecord
2
*PAPER_SPACE
0
ENDTAB
0
ENDSEC
0
SECTION
2
BLOCKS
0
BLOCK
5
20
100
AcDbEntity
100
AcDbBlockBegin
2
*MODEL_SPACE
0
ENDBLK
5
21
100
AcDbEntity
100
AcDbBlockEnd
0
BLOCK
5
1C
100
AcDbEntity
100
AcDbBlockBegin
2
*PAPER_SPACE
0
ENDBLK
5
1D
100
AcDbEntity
100
AcDbBlockEnd
0
ENDSEC
0
SECTION
2
ENTITIES
0
CIRCLE
5
100
100
AcDbEntity
8
0
100
AcDbCircle
10
-311.00017686409984
20
380.00013547890478
30
7.1054273576010019e-14
40
1.4999999999999858
210
1.4575880260670044e-31
220
-1.2325951643840974e-32
230
1
0
CIRCLE
5
101
100
AcDbEntity
8
0
100
AcDbCircle
10
-223.00017686424314
20
468.00013547904803
30
7.1054273576010019e-14
40
1.4999999999999858
210
1.4575880260670044e-31
220
-1.2325951643840974e-32
230
1
0
CIRCLE
5
102
100
AcDbEntity
8
0
100
AcDbCircle
10
-223.00017686409984
20
380.00013547904808
30
7.1054273576010019e-14
40
1.4999999999999858
210
1.4575880260670044e-31
220
-1.2325951643840974e-32
230
1
0
CIRCLE
5
103
100
AcDbEntity
8
0
100
AcDbCircle
10
-311.00017686424314
20
468.00013547890472
30
7.1054273576010019e-14
40
1.4999999999999858
210
1.4575880260670044e-31
220
-1.2325951643840974e-32
230
1
0
LWPOLYLINE
5
104
100
AcDbEntity
8
0
100
AcDbPolyline
90
29
70
1
43
0.0
10
-15.000176864269278
20
484.00013547938761
10
-237.00017686426924
20
484.00013547902603
42
-0.41421356237296875
10
-331.00017686442237
20
578.00013547883236
42
0.41421356237309853
10
-337.00017686443221
20
584.00013547882259
10
-371.00017686443209
20
584.00013547876722
10
-371.00017686439298
20
560.00013547876711
10
-361.55550081606458
20
560.00013549782091
42
-0.9999999925494194
10
-359.00017686438412
20
554.57147825113748
10
-359.00017686424871
20
471.39853680901302
42
-0.99999999999999989
10
-361.40175609711252
20
465.90013547878277
10
-371.00017686423973
20
465.9001354788079
10
-371.00017686410325
20
382.10013547880777
10
-361.11151170972568
20
382.10013547878316
42
-0.99999999999999989
10
-359.00017686409404
20
376.48388538021902
10
-359.00017686395904
20
293.47380182522846
42
-0.99999999999999989
10
-361.45760981884996
20
288.00013547878245
10
-371.00017686395006
20
288.00013547876711
10
-371.00017686391095
20
264.00013547876705
10
-337.00017686391095
20
264.00013547882247
42
0.41421356237308637
10
-331.00017686392073
20
270.00013547883219
42
-0.41421356237322204
10
-237.00017686407378
20
364.00013547902608
10
-89.010176864073827
20
364.00013547926704
10
-44.936994886173771
20
364.00013896468056
42
0.41421356237309681
10
-38.936994886183534
20
370.00013547934861
10
-38.936994886261722
20
418.00013360027219
42
-0.41421356237309681
10
-32.936994886271478
20
424.00013360028208
10
-15.000176864171557
20
424.0001336003113
42
0.41421356237310181
10
-9.0001768641813342
20
430.00013360032113
10
-9.000176864259501
20
478.00013547939739
42
0.41421356237309159
0
CIRCLE
5
105
100
AcDbEntity
8
0
100
AcDbCircle
10
-365.0001768642154
20
451.00013547881764
30
7.1054273576010019e-14
40
0.99999999999999645
210
-4.2211959674260631e-32
220
9.2882208613952034e-29
230
1
0
CIRCLE
5
106
100
AcDbEntity
8
0
100
AcDbCircle
10
-365.00017686412764
20
397.00013547881758
30
7.1054273576010019e-14
40
0.99999999999999645
210
-4.2211959674260631e-32
220
9.2882208613952034e-29
230
1
0
CIRCLE
5
107
100
AcDbEntity
8
0
100
AcDbCircle
10
-365.00017686393051
20
276.00013547877677
30
0
40
1.5000000000000036
210
1.5500326635653447e-31
220
2.6142110841925713e-28
230
1
0
CIRCLE
5
108
100
AcDbEntity
8
0
100
AcDbCircle
10
-365.02507312997267
20
571.95034294765651
30
7.1054273576010019e-14
40
1.5000000000000036
210
1.5500326635653447e-31
220
2.6142110841925713e-28
230
1
0
LINE
5
109
100
AcDbEntity
8
1
100
AcDbLine
10
-195.00017686409984
20
370.00013547921662
30
0
11
-45.000176864099828
21
370.00013547921662
31
0
0
LINE
5
110
100
AcDbEntity
8
1
100
AcDbLine
10
-45.000176864099828
20
370.00013547921662
30
0
11
-45.000176864099828
21
420.00000000001626
31
0
0
LINE
5
111
100
AcDbEntity
8
1
100
AcDbLine
10
-45.000176864099828
20
420.00000000001626
30
0
11
-195.00017686409984
21
420.00000000001626
31
0
0
LINE
5
112
100
AcDbEntity
8
1
100
AcDbLine
10
-195.00017686409984
20
420.00000000001626
30
0
11
-195.00017686409984
21
370.00013547921662
31
0
0
LINE
5
113
100
AcDbEntity
8
0
100
AcDbLine
10
-191.92892684264217
20
377.80013382436471
30
0
11
-193.09892682952915
21
377.80013382436471
31
0
0
LINE
5
114
100
AcDbEntity
8
0
100
AcDbLine
10
-194.26892681641613
20
378.97013485433297
30
0
11
-194.26892681641613
21
381.89513504506783
31
0
0
LINE
5
115
100
AcDbEntity
8
0
100
AcDbLine
10
-193.09892682952915
20
383.0651336908503
30
0
11
-191.92892684264217
21
383.0651336908503
31
0
0
ARC
5
116
100
AcDbEntity
8
0
100
AcDbCircle
10
-193.23938234372173
20
378.82967770101266
30
0
40
1.0390811413526535
210
0
220
0
230
1
100
AcDbArc
50
172.23138882811975
51
277.76860320370503
0
ARC
5
117
100
AcDbEntity
8
0
100
AcDbCircle
10
-193.23938234372173
20
382.03558981420235
30
0
40
1.0390811413526535
210
0
220
0
230
1
100
AcDbArc
50
82.231386323640365
51
187.76862118979298
0
LINE
5
118
100
AcDbEntity
8
0
100
AcDbLine
10
-188.12642617745433
20
380.72513401509957
30
0
11
-190.61267657799755
21
377.80013382436471
31
0
0
LINE
5
119
100
AcDbEntity
8
0
100
AcDbLine
10
-190.61267657799755
20
377.80013382436471
30
0
11
-187.68767638726268
21
377.80013382436471
31
0
0
ARC
5
120
100
AcDbEntity
8
0
100
AcDbCircle
10
-188.84591384453807
20
381.90689623357491
30
0
40
1.1689662933349609
210
0
220
0
230
1
100
AcDbArc
50
-7.7686198233023909
51
97.768618685315616
0
ARC
5
121
100
AcDbEntity
8
0
100
AcDbCircle
10
-189.18050928635631
20
381.61691963674264
30
0
40
1.4589405059814451
210
0
220
0
230
1
100
AcDbArc
50
83.048174495535832
51
169.00656965301076
0
ARC
5
122
100
AcDbEntity
8
0
100
AcDbCircle
10
-188.85831518693004
20
381.64469301702218
30
0
40
1.1752662807703018
210
0
220
0
230
1
100
AcDbArc
50
-51.483278511488805
51
5.0861029267711064
0
LINE
5
123
100
AcDbEntity
8
0
100
AcDbLine
10
-183.88517661614452
20
379.84763443471627
30
0
11
-185.20142598671947
21
379.84763443471627
31
0
0
LINE
5
124
100
AcDbEntity
8
0
100
AcDbLine
10
-185.20142598671947
20
377.80013382436471
30
0
11
-183.88517661614452
21
377.80013382436471
31
0
0
LINE
5
125
100
AcDbEntity
8
0
100
AcDbLine
10
-183.88517661614452
20
377.80013382436471
30
0
11
-183.88517661614452
21
380.4326349497004
31
0
0
LINE
5
126
100
AcDbEntity
8
0
100
AcDbLine
10
-184.76267619652782
20
381.3101345300837
30
0
11
-185.93267603440319
21
381.3101345300837
31
0
0
ARC
5
127
100
AcDbEntity
8
0
100
AcDbCircle
10
-185.20142598671947
20
378.82388412954049
30
0
40
1.0237500816583633
210
0
220
0
230
1
100
AcDbArc
50
90.000002504477479
51
270.00000068324493
0
ARC
5
128
100
AcDbEntity
8
0
100
AcDbCircle
10
-184.65733452363048
20
380.53797543050484
30
0
40
0.77931083738803864
210
0
220
0
230
1
100
AcDbArc
50
-7.7686198233021866
51
97.768618685316738
0
LINE
5
129
100
AcDbEntity
8
0
100
AcDbLine
10
-181.98392553849254
20
377.80013382436471
30
0
11
-182.27642579598461
21
377.80013382436471
31
0
0
LINE
5
130
100
AcDbEntity
8
0
100
AcDbLine
10
-182.27642579598461
20
377.80013382436471
30
0
11
-182.27642579598461
21
378.09263527394967
31
0
0
LINE
5
131
100
AcDbEntity
8
0
100
AcDbLine
10
-182.27642579598461
20
378.09263527394967
30
0
11
-181.98392553849254
21
378.09263527394967
31
0
0
LINE
5
132
100
AcDbEntity
8
0
100
AcDbLine
10
-181.98392553849254
20
378.09263527394967
30
0
11
-181.98392553849254
21
377.80013382436471
31
0
0
LINE
5
133
100
AcDbEntity
8
0
100
AcDbLine
10
-181.98392553849254
20
377.80013382436471
30
0
11
-182.42267532868419
21
376.63013279439645
31
0
0
LINE
5
134
100
AcDbEntity
8
0
100
AcDbLine
10
-178.03517623467479
20
377.80013382436471
30
0
11
-178.03517623467479
21
381.3101345300837
31
0
0
LINE
5
135
100
AcDbEntity
8
0
100
AcDbLine
10
-178.03517623467479
20
381.3101345300837
30
0
11
-176.2801758818153
21
381.3101345300837
31
0
0
LINE
5
136
100
AcDbEntity
8
0
100
AcDbLine
10
-176.2801758818153
20
381.3101345300837
30
0
11
-176.2801758818153
21
380.72513401509957
31
0
0
LINE
5
137
100
AcDbEntity
8
0
100
AcDbLine
10
-172.7701763681892
20
377.80013382436471
30
0
11
-174.23267646355663
21
377.80013382436471
31
0
0
LINE
5
138
100
AcDbEntity
8
0
100
AcDbLine
10
-175.11017604393993
20
378.67763340474801
30
0
11
-175.11017604393993
21
380.14013588430123
31
0
0
LINE
5
139
100
AcDbEntity
8
0
100
AcDbLine
10
-172.7701763681892
20
380.14013588430123
30
0
11
-172.7701763681892
21
379.55513298513131
31
0
0
LINE
5
140
100
AcDbEntity
8
0
100
AcDbLine
10
-172.7701763681892
20
379.55513298513131
30
0
11
-175.11017604393993
21
379.55513298513131
31
0
0
ARC
5
141
100
AcDbEntity
8
0
100
AcDbCircle
10
-174.33801694436107
20
378.57229053975777
30
0
40
0.77931083738803864
210
0
220
0
230
1
100
AcDbArc
50
172.23138882812009
51
277.76860320370497
0
ARC
5
142
100
AcDbEntity
8
0
100
AcDbCircle
10
-173.94017501397167
20
380.14013588430123
30
0
40
1.1700000613927841
210
0
220
0
230
1
100
AcDbArc
50
0
51
180.00000497831306
0
LINE
5
143
100
AcDbEntity
8
0
100
AcDbLine
10
-168.96767421288524
20
379.84763443471627
30
0
11
-170.28392596764598
21
379.84763443471627
31
0
0
LINE
5
144
100
AcDbEntity
8
0
100
AcDbLine
10
-170.28392596764598
20
377.80013382436471
30
0
11
-168.96767421288524
21
377.80013382436471
31
0
0
LINE
5
145
100
AcDbEntity
8
0
100
AcDbLine
10
-168.96767421288524
20
377.80013382436471
30
0
11
-168.96767421288524
21
380.4326349497004
31
0
0
LINE
5
146
100
AcDbEntity
8
0
100
AcDbLine
10
-169.84517617745433
20
381.3101345300837
30
0
11
-171.0151748232368
21
381.3101345300837
31
0
0
ARC
5
147
100
AcDbEntity
8
0
100
AcDbCircle
10
-170.28392596764598
20
378.82388412954049
30
0
40
1.0237500816583633
210
0
220
0
230
1
100
AcDbArc
50
90.000002504477479
51
270.00000068324493
0
ARC
5
148
100
AcDbEntity
8
0
100
AcDbCircle
10
-169.7398333124641
20
380.53797543050484
30
0
40
0.77931083738803864
210
0
220
0
230
1
100
AcDbArc
50
-7.7686198233021866
51
97.768618685316738
0
LINE
5
149
100
AcDbEntity
8
0
100
AcDbLine
10
-167.21267505211864
20
377.80013382436471
30
0
11
-167.21267505211864
21
381.3101345300837
31
0
0
LINE
5
150
100
AcDbEntity
8
0
100
AcDbLine
10
-167.21267505211864
20
381.3101345300837
30
0
11
-165.45767350716625
21
381.3101345300837
31
0
0
LINE
5
151
100
AcDbEntity
8
0
100
AcDbLine
10
-165.45767350716625
20
381.3101345300837
30
0
11
-165.45767350716625
21
380.72513401509957
31
0
0
LINE
5
152
100
AcDbEntity
8
0
100
AcDbLine
10
-159.90017457528148
20
377.80013382436471
30
0
11
-161.07017322106395
21
377.80013382436471
31
0
0
LINE
5
153
100
AcDbEntity
8
0
100
AcDbLine
10
-161.94767518563305
20
378.67763340474801
30
0
11
-161.94767518563305
21
380.4326349497004
31
0
0
LINE
5
154
100
AcDbEntity
8
0
100
AcDbLine
10
-161.07017322106395
20
381.3101345300837
30
0
11
-159.90017457528148
21
381.3101345300837
31
0
0
ARC
5
155
100
AcDbEntity
8
0
100
AcDbCircle
10
-161.17551608605419
20
378.57229053975777
30
0
40
0.77931083738803864
210
0
220
0
230
1
100
AcDbArc
50
172.23138882812009
51
277.76860320370497
0
ARC
5
156
100
AcDbEntity
8
0
100
AcDbCircle
10
-161.17551608605419
20
380.53797543050484
30
0
40
0.77931083738803864
210
0
220
0
230
1
100
AcDbArc
50
82.231386323640308
51
187.76862118979309
0
LINE
5
157
100
AcDbEntity
8
0
100
AcDbLine
10
-158.58392282052074
20
378.97013485433297
30
0
11
-158.58392282052074
21
380.14013588430123
31
0
0
LINE
5
158
100
AcDbEntity
8
0
100
AcDbLine
10
-156.24392314477001
20
380.14013588430123
30
0
11
-156.24392314477001
21
378.97013485433297
31
0
0
ARC
5
159
100
AcDbEntity
8
0
100
AcDbCircle
10
-157.41392417473827
20
380.14013588430123
30
0
40
1.1700000613927841
210
0
220
0
230
1
100
AcDbArc
50
0
51
180.00000497831306
0
ARC
5
160
100
AcDbEntity
8
0
100
AcDbCircle
10
-157.41392417473827
20
378.97013485433297
30
0
40
1.1700000613927841
210
0
220
0
230
1
100
AcDbArc
50
-179.99999502168694
51
0
0
LINE
5
161
100
AcDbEntity
8
0
100
AcDbLine
10
-154.6351723246101
20
377.80013382436471
30
0
11
-154.6351723246101
21
381.3101345300837
31
0
0
LINE
5
162
100
AcDbEntity
8
0
100
AcDbLine
10
-154.6351723246101
20
381.3101345300837
30
0
11
-153.17267461342846
21
381.3101345300837
31
0
0
LINE
5
163
100
AcDbEntity
8
0
100
AcDbLine
10
-152.29517503304515
20
380.4326349497004
30
0
11
-152.29517503304515
21
377.80013382436471
31
0
0
ARC
5
164
100
AcDbEntity
8
0
100
AcDbCircle
10
-153.06733174843822
20
380.53797543050484
30
0
40
0.77931083738803864
210
0
220
0
230
1
100
AcDbArc
50
-7.7686198233021866
51
97.768618685314649
0
LINE
5
165
100
AcDbEntity
8
0
100
AcDbLine
10
-150.97892327828441
20
381.3101345300837
30
0
11
-149.22392411751781
21
381.3101345300837
31
0
0
LINE
5
166
100
AcDbEntity
8
0
100
AcDbLine
10
-150.39392514748607
20
383.0651336908503
30
0
11
-150.39392514748607
21
378.67763340474801
31
0
0
LINE
5
167
100
AcDbEntity
8
0
100
AcDbLine
10
-149.51642556710277
20
377.80013382436471
30
0
11
-149.22392411751781
21
377.80013382436471
31
0
0
ARC
5
168
100
AcDbEntity
8
0
100
AcDbCircle
10
-149.62176843209301
20
378.57229053975777
30
0
40
0.77931083738803864
210
0
220
0
230
1
100
AcDbArc
50
172.23138882812009
51
277.76860320370707
0
LINE
5
169
100
AcDbEntity
8
0
100
AcDbLine
10
-147.76142640633617
20
377.80013382436471
30
0
11
-147.76142640633617
21
381.3101345300837
31
0
0
LINE
5
170
100
AcDbEntity
8
0
100
AcDbLine
10
-147.76142640633617
20
381.3101345300837
30
0
11
-146.00642724556957
21
381.3101345300837
31
0
0
LINE
5
171
100
AcDbEntity
8
0
100
AcDbLine
10
-146.00642724556957
20
381.3101345300837
30
0
11
-146.00642724556957
21
380.72513401509957
31
0
0
LINE
5
172
100
AcDbEntity
8
0
100
AcDbLine
10
-144.83642621560131
20
378.97013485433297
30
0
11
-144.83642621560131
21
380.14013588430123
31
0
0
LINE
5
173
100
AcDbEntity
8
0
100
AcDbLine
10
-142.49642415566478
20
380.14013588430123
30
0
11
-142.49642415566478
21
378.97013485433297
31
0
0
ARC
5
174
100
AcDbEntity
8
0
100
AcDbCircle
10
-143.66642518563305
20
380.14013588430123
30
0
40
1.1700000613927841
210
0
220
0
230
1
100
AcDbArc
50
0
51
180.00000497831306
0
ARC
5
175
100
AcDbEntity
8
0
100
AcDbCircle
10
-143.66642518563305
20
378.97013485433297
30
0
40
1.1700000613927841
210
0
220
0
230
1
100
AcDbArc
50
-179.99999502168694
51
0
0
LINE
5
176
100
AcDbEntity
8
0
100
AcDbLine
10
-140.88767571969066
20
383.0651336908503
30
0
11
-140.88767571969066
21
378.67763340474801
31
0
0
ARC
5
177
100
AcDbEntity
8
0
100
AcDbCircle
10
-140.1155190042976
20
378.57229053975777
30
0
40
0.77931083738803864
210
0
220
0
230
1
100
AcDbArc
50
172.23138882812009
51
277.76860320370707
0
LINE
5
178
100
AcDbEntity
8
0
100
AcDbLine
10
-134.01392026467357
20
379.84763443471627
30
0
11
-135.33017201943431
21
379.84763443471627
31
0
0
LINE
5
179
100
AcDbEntity
8
0
100
AcDbLine
10
-135.33017201943431
20
377.80013382436471
30
0
11
-134.01392026467357
21
377.80013382436471
31
0
0
LINE
5
180
100
AcDbEntity
8
0
100
AcDbLine
10
-134.01392026467357
20
377.80013382436471
30
0
11
-134.01392026467357
21
380.4326349497004
31
0
0
LINE
5
181
100
AcDbEntity
8
0
100
AcDbLine
10
-134.89141984505687
20
381.3101345300837
30
0
11
-136.06142087502514
21
381.3101345300837
31
0
0
ARC
5
182
100
AcDbEntity
8
0
100
AcDbCircle
10
-135.33017201943431
20
378.82388412954049
30
0
40
1.0237500816583633
210
0
220
0
230
1
100
AcDbArc
50
90.000002504477479
51
270.00000068324658
0
ARC
5
183
100
AcDbEntity
8
0
100
AcDbCircle
10
-134.78607698006664
20
380.53797543050484
30
0
40
0.77931083738803864
210
0
220
0
230
1
100
AcDbArc
50
-7.7686198233021866
51
97.768618685314649
0
LINE
5
184
100
AcDbEntity
8
0
100
AcDbLine
10
-130.50392194314037
20
379.26263153554635
30
0
11
-131.96641965432201
21
379.84763443471627
31
0
0
ARC
5
185
100
AcDbEntity
8
0
100
AcDbCircle
10
-131.72802014870678
20
380.56045353414254
30
0
40
0.75162976980209351
210
0
220
0
230
1
100
AcDbArc
50
85.872587490931267
51
251.50753671300302
0
ARC
5
186
100
AcDbEntity
8
0
100
AcDbCircle
10
-131.58701463265453
20
378.59340488912301
30
0
40
2.7181166410446167
210
0
220
0
230
1
100
AcDbArc
50
63.110121478027871
51
91.832262221036132
0
ARC
5
187
100
AcDbEntity
8
0
100
AcDbCircle
10
-130.74893518013988
20
378.55113804341988
30
0
40
0.75250290334224701
210
0
220
0
230
1
100
AcDbArc
50
-93.617868557839472
51
70.99800642215115
0
ARC
5
188
100
AcDbEntity
8
0
100
AcDbCircle
10
-131.0642962030891
20
380.89712440969186
30
0
40
3.1085547804832458
210
0
220
0
230
1
100
AcDbArc
50
244.44676035661024
51
274.94352767996071
0
LINE
5
189
100
AcDbEntity
8
0
100
AcDbLine
10
-126.70142217202219
20
379.26263153554635
30
0
11
-128.16391988320385
21
379.84763443471627
31
0
0
ARC
5
190
100
AcDbEntity
8
0
100
AcDbCircle
10
-127.9255203775886
20
380.56045353414254
30
0
40
0.75162976980209351
210
0
220
0
230
1
100
AcDbArc
50
85.872587490932332
51
251.507536713002
0
ARC
5
191
100
AcDbEntity
8
0
100
AcDbCircle
10
-127.78451486153635
20
378.59340488912301
30
0
40
2.7181166410446167
210
0
220
0
230
1
100
AcDbArc
50
63.110121478028404
51
91.832262221036416
0
ARC
5
192
100
AcDbEntity
8
0
100
AcDbCircle
10
-126.9464354090217
20
378.55113804341988
30
0
40
0.75250290334224701
210
0
220
0
230
1
100
AcDbArc
50
-93.617868557839472
51
70.998006422152159
0
ARC
5
193
100
AcDbEntity
8
0
100
AcDbCircle
10
-127.26179643197092
20
380.89712440969186
30
0
40
3.1085547804832458
210
0
220
0
230
1
100
AcDbArc
50
244.44676035661001
51
274.94352767996071
0
LINE
5
194
100
AcDbEntity
8
0
100
AcDbLine
10
-122.46017022652659
20
377.80013382436471
30
0
11
-123.92267270607981
21
377.80013382436471
31
0
0
LINE
5
195
100
AcDbEntity
8
0
100
AcDbLine
10
-124.80017228646311
20
378.67763340474801
30
0
11
-124.80017228646311
21
380.14013588430123
31
0
0
LINE
5
196
100
AcDbEntity
8
0
100
AcDbLine
10
-122.46017022652659
20
380.14013588430123
30
0
11
-122.46017022652659
21
379.55513298513131
31
0
0
LINE
5
197
100
AcDbEntity
8
0
100
AcDbLine
10
-122.46017022652659
20
379.55513298513131
30
0
11
-124.80017228646311
21
379.55513298513131
31
0
0
ARC
5
198
100
AcDbEntity
8
0
100
AcDbCircle
10
-124.02801080269846
20
378.57229053975777
30
0
40
0.77931083738803864
210
0
220
0
230
1
100
AcDbArc
50
172.2313888281202
51
277.76860320370497
0
ARC
5
199
100
AcDbEntity
8
0
100
AcDbCircle
10
-123.63017125649485
20
380.14013588430123
30
0
40
1.1700000613927841
210
0
220
0
230
1
100
AcDbArc
50
0
51
180.00000497831306
0
LINE
5
200
100
AcDbEntity
8
0
100
AcDbLine
10
-120.85142179055246
20
377.80013382436471
30
0
11
-120.85142179055246
21
381.3101345300837
31
0
0
LINE
5
201
100
AcDbEntity
8
0
100
AcDbLine
10
-120.85142179055246
20
381.3101345300837
30
0
11
-118.21892304940256
21
381.3101345300837
31
0
0
LINE
5
202
100
AcDbEntity
8
0
100
AcDbLine
10
-117.34141870064768
20
380.4326349497004
30
0
11
-117.34141870064768
21
377.80013382436471
31
0
0
LINE
5
203
100
AcDbEntity
8
0
100
AcDbLine
10
-119.09642262978586
20
377.80013382436471
30
0
11
-119.09642262978586
21
381.3101345300837
31
0
0
ARC
5
204
100
AcDbEntity
8
0
100
AcDbCircle
10
-118.11358018441233
20
380.53797543050484
30
0
40
0.77931083738803864
210
0
220
0
230
1
100
AcDbArc
50
-7.7686198233023394
51
97.768618685315687
0
LINE
5
205
100
AcDbEntity
8
0
100
AcDbLine
10
-115.58641953988108
20
383.0651336908503
30
0
11
-115.58641953988108
21
377.80013382436471
31
0
0
LINE
5
206
100
AcDbEntity
8
0
100
AcDbLine
10
-115.58641953988108
20
377.80013382436471
30
0
11
-114.12392182869944
21
377.80013382436471
31
0
0
LINE
5
207
100
AcDbEntity
8
0
100
AcDbLine
10
-113.24641747994455
20
378.67763340474801
30
0
11
-113.24641747994455
21
380.4326349497004
31
0
0
LINE
5
208
100
AcDbEntity
8
0
100
AcDbLine
10
-114.12392182869944
20
381.3101345300837
30
0
11
-115.58641953988108
21
381.3101345300837
31
0
0
ARC
5
209
100
AcDbEntity
8
0
100
AcDbCircle
10
-114.0185789637092
20
378.57229053975777
30
0
40
0.77931083738803864
210
0
220
0
230
1
100
AcDbArc
50
-97.76862915796994
51
7.7686161808404197
0
ARC
5
210
100
AcDbEntity
8
0
100
AcDbCircle
10
-114.0185789637092
20
380.53797543050484
30
0
40
0.77931083738803864
210
0
220
0
230
1
100
AcDbArc
50
-7.7686198233023394
51
97.768618685315687
0
LINE
5
211
100
AcDbEntity
8
0
100
AcDbLine
10
-111.63766427559885
20
383.0651336908503
30
0
11
-111.63766427559885
21
378.67763340474801
31
0
0
ARC
5
212
100
AcDbEntity
8
0
100
AcDbCircle
10
-110.86551232857737
20
378.57229053975777
30
0
40
0.77931083738803864
210
0
220
0
230
1
100
AcDbArc
50
172.2313888281202
51
277.76860320370497
0
LINE
5
213
100
AcDbEntity
8
0
100
AcDbLine
10
-109.59016366524729
20
376.04513466359811
30
0
11
-109.00517030282053
21
376.04513466359811
31
0
0
LINE
5
214
100
AcDbEntity
8
0
100
AcDbLine
10
-109.00517030282053
20
376.04513466359811
30
0
11
-107.25016160531077
21
381.3101345300837
31
0
0
LINE
5
215
100
AcDbEntity
8
0
100
AcDbLine
10
-109.59016366524729
20
381.3101345300837
30
0
11
-108.42016740365061
21
377.80013382436471
31
0
0
LINE
5
216
100
AcDbEntity
8
0
100
AcDbLine
10
-101.5464167170051
20
377.80013382436471
30
0
11
-102.71641297860178
21
377.80013382436471
31
0
0
LINE
5
217
100
AcDbEntity
8
0
100
AcDbLine
10
-103.59391732735666
20
378.67763340474801
30
0
11
-103.59391732735666
21
380.4326349497004
31
0
0
LINE
5
218
100
AcDbEntity
8
0
100
AcDbLine
10
-102.71641297860178
20
381.3101345300837
30
0
11
-101.5464167170051
21
381.3101345300837
31
0
0
ARC
5
219
100
AcDbEntity
8
0
100
AcDbCircle
10
-102.82175584359202
20
378.57229053975777
30
0
40
0.77931083738803864
210
0
220
0
230
1
100
AcDbArc
50
172.2313888281202
51
277.76860320370497
0
ARC
5
220
100
AcDbEntity
8
0
100
AcDbCircle
10
-102.82175584359202
20
380.53797543050484
30
0
40
0.77931083738803864
210
0
220
0
230
1
100
AcDbArc
50
82.23138632364136
51
187.76862118979273
0
LINE
5
221
100
AcDbEntity
8
0
100
AcDbLine
10
-100.0839094690803
20
377.80013382436471
30
0
11
-100.0839094690803
21
381.3101345300837
31
0
0
LINE
5
222
100
AcDbEntity
8
0
100
AcDbLine
10
-100.0839094690803
20
381.3101345300837
30
0
11
-98.328910308313695
21
381.3101345300837
31
0
0
LINE
5
223
100
AcDbEntity
8
0
100
AcDbLine
10
-98.328910308313695
20
381.3101345300837
30
0
11
-98.328910308313695
21
380.72513401509957
31
0
0
LINE
5
224
100
AcDbEntity
8
0
100
AcDbLine
10
-97.158914046717015
20
378.97013485433297
30
0
11
-97.158914046717015
21
380.14013588430123
31
0
0
LINE
5
225
100
AcDbEntity
8
0
100
AcDbLine
10
-94.818911986780492
20
380.14013588430123
30
0
11
-94.818911986780492
21
378.97013485433297
31
0
0
ARC
5
226
100
AcDbEntity
8
0
100
AcDbCircle
10
-95.988908248377172
20
380.14013588430123
30
0
40
1.1700000613927841
210
0
220
0
230
1
100
AcDbArc
50
0
51
180.00000497831306
0
ARC
5
227
100
AcDbEntity
8
0
100
AcDbCircle
10
-95.988908248377172
20
378.97013485433297
30
0
40
1.1700000613927841
210
0
220
0
230
1
100
AcDbArc
50
-179.99999502168694
51
0
0
LINE
5
228
100
AcDbEntity
8
0
100
AcDbLine
10
-91.455159621668187
20
379.26263153554635
30
0
11
-92.917666869592992
21
379.84763443471627
31
0
0
ARC
5
229
100
AcDbEntity
8
0
100
AcDbCircle
10
-92.679257827234593
20
380.56045353414254
30
0
40
0.75162976980209351
210
0
220
0
230
1
100
AcDbArc
50
85.872587490932332
51
251.507536713002
0
ARC
5
230
100
AcDbEntity
8
0
100
AcDbCircle
10
-92.538257079553929
20
378.59340488912301
30
0
40
2.7181166410446167
210
0
220
0
230
1
100
AcDbArc
50
63.110121478028404
51
91.832262221036416
0
ARC
5
231
100
AcDbEntity
8
0
100
AcDbCircle
10
-91.700177627039281
20
378.55113804341988
30
0
40
0.75250290334224701
210
0
220
0
230
1
100
AcDbArc
50
-93.617868557839472
51
70.998006422152159
0
ARC
5
232
100
AcDbEntity
8
0
100
AcDbCircle
10
-92.0155386499885
20
380.89712440969186
30
0
40
3.1085547804832458
210
0
220
0
230
1
100
AcDbArc
50
244.44676035661024
51
274.94352767996071
0
LINE
5
233
100
AcDbEntity
8
0
100
AcDbLine
10
-87.652659850550023
20
379.26263153554635
30
0
11
-89.115167098474828
21
379.84763443471627
31
0
0
ARC
5
234
100
AcDbEntity
8
0
100
AcDbCircle
10
-88.876758056116429
20
380.56045353414254
30
0
40
0.75162976980209351
210
0
220
0
230
1
100
AcDbArc
50
85.872587490932332
51
251.507536713002
0
ARC
5
235
100
AcDbEntity
8
0
100
AcDbCircle
10
-88.735757308435765
20
378.59340488912301
30
0
40
2.7181166410446167
210
0
220
0
230
1
100
AcDbArc
50
63.110121478028404
51
91.832262221036416
0
ARC
5
236
100
AcDbEntity
8
0
100
AcDbCircle
10
-87.897677855921117
20
378.55113804341988
30
0
40
0.75250290334224701
210
0
220
0
230
1
100
AcDbArc
50
-93.617868557839472
51
70.998006422152159
0
ARC
5
237
100
AcDbEntity
8
0
100
AcDbCircle
10
-88.213038878870336
20
380.89712440969186
30
0
40
3.1085547804832458
210
0
220
0
230
1
100
AcDbArc
50
244.44676035661024
51
274.94352767996071
0
LINE
5
238
100
AcDbEntity
8
0
100
AcDbLine
10
-83.265157180261937
20
377.80013382436471
30
0
11
-83.265157180261937
21
381.3101345300837
31
0
0
LINE
5
239
100
AcDbEntity
8
0
100
AcDbLine
10
-83.265157180261937
20
381.3101345300837
30
0
11
-80.632663207483617
21
381.3101345300837
31
0
0
LINE
5
240
100
AcDbEntity
8
0
100
AcDbLine
10
-79.755158858728734
20
380.4326349497004
30
0
11
-79.755158858728734
21
377.80013382436471
31
0
0
LINE
5
241
100
AcDbEntity
8
0
100
AcDbLine
10
-81.510158019495336
20
377.80013382436471
30
0
11
-81.510158019495336
21
381.3101345300837
31
0
0
ARC
5
242
100
AcDbEntity
8
0
100
AcDbCircle
10
-80.527320342493383
20
380.53797543050484
30
0
40
0.77931083738803864
210
0
220
0
230
1
100
AcDbArc
50
-7.7686198233023394
51
97.768618685315687
0
LINE
5
243
100
AcDbEntity
8
0
100
AcDbLine
10
-75.806413131189672
20
377.80013382436471
30
0
11
-77.268910842371312
21
377.80013382436471
31
0
0
LINE
5
244
100
AcDbEntity
8
0
100
AcDbLine
10
-78.146415191126195
20
378.67763340474801
30
0
11
-78.146415191126195
21
380.14013588430123
31
0
0
LINE
5
245
100
AcDbEntity
8
0
100
AcDbLine
10
-75.806413131189672
20
380.14013588430123
30
0
11
-75.806413131189672
21
379.55513298513131
31
0
0
LINE
5
246
100
AcDbEntity
8
0
100
AcDbLine
10
-75.806413131189672
20
379.55513298513131
30
0
11
-78.146415191126195
21
379.55513298513131
31
0
0
ARC
5
247
100
AcDbEntity
8
0
100
AcDbCircle
10
-77.374253707361547
20
378.57229053975777
30
0
40
0.77931083738803864
210
0
220
0
230
1
100
AcDbArc
50
172.2313888281202
51
277.76860320370497
0
ARC
5
248
100
AcDbEntity
8
0
100
AcDbCircle
10
-76.976409392786351
20
380.14013588430123
30
0
40
1.1700000613927841
210
0
220
0
230
1
100
AcDbArc
50
0
51
180.00000497831306
0
LINE
5
249
100
AcDbEntity
8
0
100
AcDbLine
10
-74.197659926843968
20
377.80013382436471
30
0
11
-74.197659926843968
21
381.3101345300837
31
0
0
LINE
5
250
100
AcDbEntity
8
0
100
AcDbLine
10
-74.197659926843968
20
381.3101345300837
30
0
11
-71.565165954065648
21
381.3101345300837
31
0
0
LINE
5
251
100
AcDbEntity
8
0
100
AcDbLine
10
-70.687661605310765
20
380.4326349497004
30
0
11
-70.687661605310765
21
377.80013382436471
31
0
0
LINE
5
252
100
AcDbEntity
8
0
100
AcDbLine
10
-72.442660766077367
20
377.80013382436471
30
0
11
-72.442660766077367
21
381.3101345300837
31
0
0
ARC
5
253
100
AcDbEntity
8
0
100
AcDbCircle
10
-71.459823089075414
20
380.53797543050484
30
0
40
0.77931083738803864
210
0
220
0
230
1
100
AcDbArc
50
-7.7686198233023394
51
97.768618685315687
0
LINE
5
254
100
AcDbEntity
8
0
100
AcDbLine
10
-68.932662444544164
20
383.0651336908503
30
0
11
-68.932662444544164
21
377.80013382436471
31
0
0
LINE
5
255
100
AcDbEntity
8
0
100
AcDbLine
10
-68.932662444544164
20
377.80013382436471
30
0
11
-67.470164733362523
21
377.80013382436471
31
0
0
LINE
5
256
100
AcDbEntity
8
0
100
AcDbLine
10
-66.592669921350804
20
378.67763340474801
30
0
11
-66.592669921350804
21
380.4326349497004
31
0
0
LINE
5
257
100
AcDbEntity
8
0
100
AcDbLine
10
-67.470164733362523
20
381.3101345300837
30
0
11
-68.932662444544164
21
381.3101345300837
31
0
0
ARC
5
258
100
AcDbEntity
8
0
100
AcDbCircle
10
-67.364821868372289
20
378.57229053975777
30
0
40
0.77931083738803864
210
0
220
0
230
1
100
AcDbArc
50
-97.76862915796994
51
7.7686161808404197
0
ARC
5
259
100
AcDbEntity
8
0
100
AcDbCircle
10
-67.364821868372289
20
380.53797543050484
30
0
40
0.77931083738803864
210
0
220
0
230
1
100
AcDbArc
50
-7.7686198233023394
51
97.768618685315687
0
LINE
5
260
100
AcDbEntity
8
0
100
AcDbLine
10
-62.79017015023264
20
377.80013382436471
30
0
11
-64.252667861414281
21
377.80013382436471
31
0
0
LINE
5
261
100
AcDbEntity
8
0
100
AcDbLine
10
-65.130172210169164
20
378.67763340474801
30
0
11
-65.130172210169164
21
380.14013588430123
31
0
0
LINE
5
262
100
AcDbEntity
8
0
100
AcDbLine
10
-62.79017015023264
20
380.14013588430123
30
0
11
-62.79017015023264
21
379.55513298513131
31
0
0
LINE
5
263
100
AcDbEntity
8
0
100
AcDbLine
10
-62.79017015023264
20
379.55513298513131
30
0
11
-65.130172210169164
21
379.55513298513131
31
0
0
ARC
5
264
100
AcDbEntity
8
0
100
AcDbCircle
10
-64.358010726404515
20
378.57229053975777
30
0
40
0.77931083738803864
210
0
220
0
230
1
100
AcDbArc
50
172.2313888281202
51
277.76860320370497
0
ARC
5
265
100
AcDbEntity
8
0
100
AcDbCircle
10
-63.96016641182932
20
380.14013588430123
30
0
40
1.1700000613927841
210
0
220
0
230
1
100
AcDbArc
50
0
51
180.00000497831306
0
LINE
5
266
100
AcDbEntity
8
0
100
AcDbLine
10
-61.181416945886937
20
377.80013382436471
30
0
11
-61.181416945886937
21
381.3101345300837
31
0
0
LINE
5
267
100
AcDbEntity
8
0
100
AcDbLine
10
-61.181416945886937
20
381.3101345300837
30
0
11
-59.426417785120336
21
381.3101345300837
31
0
0
LINE
5
268
100
AcDbEntity
8
0
100
AcDbLine
10
-59.426417785120336
20
381.3101345300837
30
0
11
-59.426417785120336
21
380.72513401509957
31
0
0
LINE
5
269
100
AcDbEntity
8
0
100
AcDbLine
10
-57.963920073938695
20
377.80013382436471
30
0
11
-58.256421523523656
21
377.80013382436471
31
0
0
LINE
5
270
100
AcDbEntity
8
0
100
AcDbLine
10
-58.256421523523656
20
377.80013382436471
30
0
11
-58.256421523523656
21
378.09263527394967
31
0
0
LINE
5
271
100
AcDbEntity
8
0
100
AcDbLine
10
-58.256421523523656
20
378.09263527394967
30
0
11
-57.963920073938695
21
378.09263527394967
31
0
0
LINE
5
272
100
AcDbEntity
8
0
100
AcDbLine
10
-57.963920073938695
20
378.09263527394967
30
0
11
-57.963920073938695
21
377.80013382436471
31
0
0
LINE
5
273
100
AcDbEntity
8
0
100
AcDbLine
10
-57.963920073938695
20
377.80013382436471
30
0
11
-58.402667479944554
21
376.63013279439645
31
0
0
LINE
5
274
100
AcDbEntity
8
0
100
AcDbLine
10
-191.78267671389614
20
372.92513191701607
30
0
11
-194.26892681641613
21
370.00013172628121
31
0
0
LINE
5
275
100
AcDbEntity
8
0
100
AcDbLine
10
-194.26892681641613
20
370.00013172628121
30
0
11
-191.34392662568126
21
370.00013172628121
31
0
0
ARC
5
276
100
AcDbEntity
8
0
100
AcDbCircle
10
-192.50216423196827
20
374.10689651967721
30
0
40
1.1689662933349609
210
0
220
0
230
1
100
AcDbArc
50
-7.7686198233023909
51
97.768618685315616
0
ARC
5
277
100
AcDbEntity
8
0
100
AcDbCircle
10
-192.83675922675167
20
373.81691753865914
30
0
40
1.4589405059814451
210
0
220
0
230
1
100
AcDbArc
50
83.048174495535832
51
169.00656965301076
0
ARC
5
278
100
AcDbEntity
8
0
100
AcDbCircle
10
-192.51456542534862
20
373.84469330312447
30
0
40
1.1752662807703018
210
0
220
0
230
1
100
AcDbArc
50
-51.483278511488805
51
5.0861029267711064
0
LINE
5
279
100
AcDbEntity
8
0
100
AcDbLine
10
-187.68767638726268
20
370.00013172628121
30
0
11
-185.3476761154655
21
373.51013004781441
31
0
0
LINE
5
280
100
AcDbEntity
8
0
100
AcDbLine
10
-187.68767638726268
20
373.51013004781441
30
0
11
-185.3476761154655
21
370.00013172628121
31
0
0
LINE
5
281
100
AcDbEntity
8
0
100
AcDbLine
10
-181.69142647309337
20
374.09513294698434
30
0
11
-180.22892637772594
21
375.2651339769526
31
0
0
LINE
5
282
100
AcDbEntity
8
0
100
AcDbLine
10
-180.22892637772594
20
375.2651339769526
30
0
11
-180.22892637772594
21
370.00013172628121
31
0
0
LINE
5
283
100
AcDbEntity
8
0
100
AcDbLine
10
-181.69142647309337
20
370.00013172628121
30
0
11
-178.76642628235851
21
370.00013172628121
31
0
0
LINE
5
284
100
AcDbEntity
8
0
100
AcDbLine
10
-174.81767697854076
20
372.92513191701607
30
0
11
-177.30392618699108
21
370.00013172628121
31
0
0
LINE
5
285
100
AcDbEntity
8
0
100
AcDbLine
10
-177.30392618699108
20
370.00013172628121
30
0
11
-174.37892480416332
21
370.00013172628121
31
0
0
ARC
5
286
100
AcDbEntity
8
0
100
AcDbCircle
10
-175.5371634535316
20
374.10689651967721
30
0
40
1.1689662933349609
210
0
220
0
230
1
100
AcDbArc
50
-7.7686198233023909
51
97.768618685315616
0
ARC
5
287
100
AcDbEntity
8
0
100
AcDbCircle
10
-175.87175889534984
20
373.81691753865914
30
0
40
1.4589405059814451
210
0
220
0
230
1
100
AcDbArc
50
83.048174495535832
51
169.00656965301076
0
ARC
5
288
100
AcDbEntity
8
0
100
AcDbCircle
10
-175.54956479592357
20
373.84469330312447
30
0
40
1.1752662807703018
210
0
220
0
230
1
100
AcDbArc
50
-51.483278511488805
51
5.0861029267711064
0
LINE
5
289
100
AcDbEntity
8
0
100
AcDbLine
10
-170.43017669243847
20
370.00013172628121
30
0
11
-170.43017669243847
21
373.51013004781441
31
0
0
LINE
5
290
100
AcDbEntity
8
0
100
AcDbLine
10
-170.43017669243847
20
373.51013004781441
30
0
11
-167.79767556710277
21
373.51013004781441
31
0
0
LINE
5
291
100
AcDbEntity
8
0
100
AcDbLine
10
-166.92017598671947
20
372.63263046743111
30
0
11
-166.92017598671947
21
370.00013172628121
31
0
0
LINE
5
292
100
AcDbEntity
8
0
100
AcDbLine
10
-168.67517514748607
20
370.00013172628121
30
0
11
-168.67517514748607
21
373.51013004781441
31
0
0
ARC
5
293
100
AcDbEntity
8
0
100
AcDbCircle
10
-167.69233508629833
20
372.73797333242135
30
0
40
0.77931083738803864
210
0
220
0
230
1
100
AcDbArc
50
-7.7686198233021866
51
97.768618685316738
0
LINE
5
294
100
AcDbEntity
8
0
100
AcDbLine
10
-165.16517682595287
20
370.00013172628121
30
0
11
-165.16517682595287
21
373.51013004781441
31
0
0
LINE
5
295
100
AcDbEntity
8
0
100
AcDbLine
10
-165.16517682595287
20
373.51013004781441
30
0
11
-162.53267570061718
21
373.51013004781441
31
0
0
LINE
5
296
100
AcDbEntity
8
0
100
AcDbLine
10
-161.65517612023388
20
372.63263046743111
30
0
11
-161.65517612023388
21
370.00013172628121
31
0
0
LINE
5
297
100
AcDbEntity
8
0
100
AcDbLine
10
-163.41017528100048
20
370.00013172628121
30
0
11
-163.41017528100048
21
373.51013004781441
31
0
0
ARC
5
298
100
AcDbEntity
8
0
100
AcDbCircle
10
-162.42733521981273
20
372.73797333242135
30
0
40
0.77931083738803864
210
0
220
0
230
1
100
AcDbArc
50
-7.7686198233021866
51
97.768618685316738
0
LINE
5
299
100
AcDbEntity
8
0
100
AcDbLine
10
-157.56017728371654
20
368.24513256551461
30
0
11
-157.56017728371654
21
373.51013004781441
31
0
0
LINE
5
300
100
AcDbEntity
8
0
100
AcDbLine
10
-157.56017728371654
20
373.51013004781441
30
0
11
-156.09767718834911
21
373.51013004781441
31
0
0
LINE
5
301
100
AcDbEntity
8
0
100
AcDbLine
10
-155.22017760796581
20
372.63263046743111
30
0
11
-155.22017760796581
21
370.87763130666451
31
0
0
LINE
5
302
100
AcDbEntity
8
0
100
AcDbLine
10
-156.09767718834911
20
370.00013172628121
30
0
11
-157.56017728371654
21
370.00013172628121
31
0
0
ARC
5
303
100
AcDbEntity
8
0
100
AcDbCircle
10
-155.99233432335888
20
372.73797333242135
30
0
40
0.77931083738803864
210
0
220
0
230
1
100
AcDbArc
50
-7.7686198233021866
51
97.768618685314649
0
ARC
5
304
100
AcDbEntity
8
0
100
AcDbCircle
10
-155.99233432335888
20
370.77228844167428
30
0
40
0.77931083738803864
210
0
220
0
230
1
100
AcDbArc
50
-97.768629157967837
51
7.7686161808402785
0
LINE
5
305
100
AcDbEntity
8
0
100
AcDbLine
10
-153.6114267878059
20
375.2651339769526
30
0
11
-153.6114267878059
21
370.87763130666451
31
0
0
ARC
5
306
100
AcDbEntity
8
0
100
AcDbCircle
10
-152.83927007241283
20
370.77228844167428
30
0
40
0.77931083738803864
210
0
220
0
230
1
100
AcDbArc
50
172.23138882812009
51
277.76860320370707
0
LINE
5
307
100
AcDbEntity
8
0
100
AcDbLine
10
-151.56392617745433
20
368.24513256551461
30
0
11
-150.97892327828441
21
368.24513256551461
31
0
0
LINE
5
308
100
AcDbEntity
8
0
100
AcDbLine
10
-150.97892327828441
20
368.24513256551461
30
0
11
-149.22392411751781
21
373.51013004781441
31
0
0
LINE
5
309
100
AcDbEntity
8
0
100
AcDbLine
10
-151.56392617745433
20
373.51013004781441
30
0
11
-150.39392514748607
21
370.00013172628121
31
0
0
ENDSEC
0
SECTION
2
OBJECTS
0
DICTIONARY
5
C
100
AcDbDictionary
3
ACAD_GROUP
350
D
3
ACAD_MLINESTYLE
350
17
0
DICTIONARY
5
D
100
AcDbDictionary
0
DICTIONARY
5
1A
330
C
100
AcDbDictionary
0
DICTIONARY
5
17
100
AcDbDictionary
0
ENDSEC
0
EOF
