0
SECTION
2
HEADER
9
$INSUNITS
70
4
9
$ACADVER
1
AC1014
9
$HANDSEED
5
FFFF
0
ENDSEC
0
SECTION
2
TABLES
0
TABLE
2
VPORT
5
8
100
AcDbSymbolTable
0
ENDTAB
0
TABLE
2
LTYPE
5
5
100
AcDbSymbolTable
0
LTYPE
5
14
100
AcDbSymbolTableRecord
100
AcDbLinetypeTableRecord
2
BYBLOCK
70
0
0
LTYPE
5
15
100
AcDbSymbolTableRecord
100
AcDbLinetypeTableRecord
2
BYLAYER
70
0
0
LTYPE
5
16
100
AcDbSymbolTableRecord
100
AcDbLinetypeTableRecord
2
DASHED
70
0
3
Dashed __ __ __ __ __ __ __ __ __ __ __ __ __ _
72
65
73
2
40
0.75
49
0.5
74
0
49
-0.25
74
0
0
ENDTAB
0
TABLE
2
LAYER
5
2
100
AcDbSymbolTable
70
3
0
LAYER
5
50
100
AcDbSymbolTableRecord
100
AcDbLayerTableRecord
2
1
70
0
62
7
6
DASHED
0
LAYER
5
51
100
AcDbSymbolTableRecord
100
AcDbLayerTableRecord
2
0
70
0
62
7
6
CONTINUOUS
0
ENDTAB
0
TABLE
2
STYLE
5
3
100
AcDbSymbolTable
70
1
0
STYLE
5
11
100
AcDbSymbolTableRecord
100
AcDbTextStyleTableRecord
2
STANDARD
70
0
0
ENDTAB
0
TABLE
2
VIEW
5
6
100
AcDbSymbolTable
70
0
0
ENDTAB
0
TABLE
2
UCS
5
7
100
AcDbSymbolTable
70
0
0
ENDTAB
0
TABLE
2
APPID
5
9
100
AcDbSymbolTable
70
2
0
APPID
5
12
100
AcDbSymbolTableRecord
100
AcDbRegAppTableRecord
2
ACAD
70
0
0
ENDTAB
0
TABLE
2
DIMSTYLE
5
A
100
AcDbSymbolTable
70
1
0
ENDTAB
0
TABLE
2
BLOCK_RECORD
5
1
100
AcDbSymbolTable
70
1
0
BLOCK_RECORD
5
1F
100
AcDbSymbolTableRecord
100
AcDbBlockTableRecord
2
*MODEL_SPACE
0
BLOCK_RECORD
5
1B
100
AcDbSymbolTableRecord
100
AcDbBlockTableRecord
2
*PAPER_SPACE
0
ENDTAB
0
ENDSEC
0
SECTION
2
BLOCKS
0
BLOCK
5
20
100
AcDbEntity
100
AcDbBlockBegin
2
*MODEL_SPACE
0
ENDBLK
5
21
100
AcDbEntity
100
AcDbBlockEnd
0
BLOCK
5
1C
100
AcDbEntity
100
AcDbBlockBegin
2
*PAPER_SPACE
0
ENDBLK
5
1D
100
AcDbEntity
100
AcDbBlockEnd
0
ENDSEC
0
SECTION
2
ENTITIES
0
CIRCLE
5
100
100
AcDbEntity
8
0
100
AcDbCircle
10
-766.5293306391344
20
-885.28821893385521
30
0
40
1.0000000000000142
210
0
220
0
230
1
0
CIRCLE
5
101
100
AcDbEntity
8
0
100
AcDbCircle
10
-790.52933063913451
20
-975.28821893385521
30
0
40
1.0000000000000142
210
0
220
0
230
1
0
CIRCLE
5
102
100
AcDbEntity
8
0
100
AcDbCircle
10
-730.52932876005843
20
-885.29821893385497
30
0
40
1.0000000000000142
210
0
220
0
230
1
0
CIRCLE
5
103
100
AcDbEntity
8
0
100
AcDbCircle
10
-826.52932876005843
20
-975.28821893385521
30
0
40
1.0000000000000142
210
0
220
0
230
1
0
CIRCLE
5
104
100
AcDbEntity
8
0
100
AcDbCircle
10
-766.52933063913497
20
-1121.2882189338554
30
0
40
1.0000000000000142
210
0
220
0
230
1
0
CIRCLE
5
105
100
AcDbEntity
8
0
100
AcDbCircle
10
-790.52933063913486
20
-1031.2882189338554
30
0
40
1.0000000000000142
210
0
220
0
230
1
0
CIRCLE
5
106
100
AcDbEntity
8
0
100
AcDbCircle
10
-730.52932876005866
20
-1121.2782189338557
30
0
40
1.0000000000000142
210
0
220
0
230
1
0
CIRCLE
5
107
100
AcDbEntity
8
0
100
AcDbCircle
10
-826.52932876005866
20
-1031.2882189338554
30
0
40
1.0000000000000142
210
0
220
0
230
1
0
CIRCLE
5
108
100
AcDbEntity
8
0
100
AcDbCircle
10
-826.52932876005843
20
-1121.2882189338554
30
0
40
1.0000000000000142
210
0
220
0
230
1
0
CIRCLE
5
109
100
AcDbEntity
8
0
100
AcDbCircle
10
-826.52932876005832
20
-885.29821893385497
30
0
40
1.0000000000000142
210
0
220
0
230
1
0
CIRCLE
5
110
100
AcDbEntity
8
0
100
AcDbCircle
10
-766.52933063915816
20
-1031.2782189338557
30
0
40
1.0000000000000142
210
0
220
0
230
1
0
CIRCLE
5
111
100
AcDbEntity
8
0
100
AcDbCircle
10
-790.52932876005855
20
-1121.2882189338554
30
0
40
1.0000000000000142
210
0
220
0
230
1
0
CIRCLE
5
112
100
AcDbEntity
8
0
100
AcDbCircle
10
-790.52932876005809
20
-885.29821893385497
30
0
40
1.0000000000000142
210
0
220
0
230
1
0
CIRCLE
5
113
100
AcDbEntity
8
0
100
AcDbCircle
10
-766.52933063916407
20
-975.29821893385497
30
0
40
1.0000000000000142
210
0
220
0
230
1
0
LWPOLYLINE
5
114
100
AcDbEntity
8
0
100
AcDbPolyline
90
16
70
1
43
0.0
10
-718.52932876005809
20
-879.29821893385588
42
0.41421356237310897
10
-724.52932876005798
20
-873.29821893385599
10
-830.52932876005843
20
-873.2982189338552
42
0.41421356237310025
10
-838.52932876005821
20
-881.2982189338552
10
-838.52932876005866
20
-956.11377689197548
42
-0.38272225785903058
10
-845.6614255956016
20
-964.06655905277478
10
-943.38901048813352
20
-973.42482610649517
42
0.90881569645818094
10
-943.38901048813318
20
-1033.1516117612157
10
-845.66142559560171
20
-1042.5098788149355
42
-0.38272225785904013
10
-838.52932876005855
20
-1050.4626609757347
10
-838.52932876005889
20
-1125.2782189338554
42
0.41421356237309503
10
-830.52932876005866
20
-1133.2782189338554
10
-724.52932876005832
20
-1133.2782189338552
42
0.41421356237310897
10
-718.52932876005843
20
-1127.2782189338554
10
-718.52933063913486
20
-1004.9490313290332
42
-0.30151134457774115
10
-718.52933063913486
20
-1001.6324065386777
0
LINE
5
115
100
AcDbEntity
8
1
100
AcDbLine
10
-744.99999974874208
20
-891.29821893385497
30
0
11
-744.99999974874208
21
-1097.1636963037322
31
0
0
LINE
5
116
100
AcDbEntity
8
1
100
AcDbLine
10
-744.99999974874208
20
-1097.1636963037322
30
0
11
-724.52933026799928
21
-1097.1636963037322
31
0
0
LINE
5
117
100
AcDbEntity
8
1
100
AcDbLine
10
-724.52933026799928
20
-1097.1636963037322
30
0
11
-724.52933026799928
21
-891.29821893385497
31
0
0
LINE
5
118
100
AcDbEntity
8
1
100
AcDbLine
10
-724.52933026799928
20
-891.29821893385497
30
0
11
-744.99999974874208
21
-891.29821893385497
31
0
0
LINE
5
119
100
AcDbEntity
8
0
100
AcDbLine
10
-719.02933063913474
20
-1003.2907189338555
30
0
11
-723.52933063913486
21
-1003.2907189338555
31
0
0
LINE
5
120
100
AcDbEntity
8
0
100
AcDbLine
10
-954.02933063913508
20
-1003.2907189338555
30
0
11
-958.52933063913508
21
-1003.2882189338554
31
0
0
CIRCLE
5
121
100
AcDbEntity
8
0
100
AcDbCircle
10
-940.52933063913497
20
-1003.2882189338554
30
0
40
5.2500000000000568
210
0
220
0
230
1
0
LINE
5
122
100
AcDbEntity
8
0
100
AcDbLine
10
-730.37472440252077
20
-894.36946895531264
30
0
11
-730.37472440252077
21
-893.19946896842566
31
0
0
LINE
5
123
100
AcDbEntity
8
0
100
AcDbLine
10
-729.20472426662218
20
-892.02946898153868
30
0
11
-726.27972407588732
21
-892.02946898153868
31
0
0
LINE
5
124
100
AcDbEntity
8
0
100
AcDbLine
10
-725.10972393998873
20
-893.19946896842566
30
0
11
-725.10972393998873
21
-894.36946895531264
31
0
0
ARC
5
125
100
AcDbEntity
8
0
100
AcDbCircle
10
-729.34517992982637
20
-893.05901345423308
30
0
40
1.0390811413526533
210
-0
220
0
230
1
100
AcDbArc
50
82.23138882811908
51
187.76860320371054
0
ARC
5
126
100
AcDbEntity
8
0
100
AcDbCircle
10
-726.13926841268312
20
-893.05901345423308
30
0
40
1.0390811413526533
210
-0
220
0
230
1
100
AcDbArc
50
-7.7686136763585019
51
97.768621189793038
0
LINE
5
127
100
AcDbEntity
8
0
100
AcDbLine
10
-730.37472440252077
20
-895.68571921995726
30
0
11
-730.37472440252077
21
-897.1482193153247
31
0
0
LINE
5
128
100
AcDbEntity
8
0
100
AcDbLine
10
-725.10972393998873
20
-895.68571921995726
30
0
11
-725.10972393998873
21
-897.44071957281676
31
0
0
LINE
5
129
100
AcDbEntity
8
0
100
AcDbLine
10
-727.44972421178591
20
-897.44071957281676
30
0
11
-727.44972421178591
21
-896.27071913889495
31
0
0
ARC
5
130
100
AcDbEntity
8
0
100
AcDbCircle
10
-728.91222430715334
20
-897.1482193153247
30
0
40
1.4625000953674314
210
-0
220
0
230
1
100
AcDbArc
50
-180
51
2.4148365394514667e-06
0
ARC
5
131
100
AcDbEntity
8
0
100
AcDbCircle
10
-726.27972407588732
20
-897.44071957281676
30
0
40
1.1700000613927839
210
-0
220
0
230
1
100
AcDbArc
50
-180
51
2.4148365394514667e-06
0
LINE
5
132
100
AcDbEntity
8
0
100
AcDbLine
10
-728.32722438821565
20
-902.41321918181029
30
0
11
-728.32722438821565
21
-901.09696981123534
31
0
0
LINE
5
133
100
AcDbEntity
8
0
100
AcDbLine
10
-730.37472440252077
20
-901.09696981123534
30
0
11
-730.37472440252077
21
-902.41321918181029
31
0
0
LINE
5
134
100
AcDbEntity
8
0
100
AcDbLine
10
-730.37472440252077
20
-902.41321918181029
30
0
11
-727.74222417125475
21
-902.41321918181029
31
0
0
LINE
5
135
100
AcDbEntity
8
0
100
AcDbLine
10
-726.864723994825
20
-901.53571960142699
30
0
11
-726.864723994825
21
-900.36571976355162
31
0
0
ARC
5
136
100
AcDbEntity
8
0
100
AcDbCircle
10
-729.35097439536821
20
-901.09696981123534
30
0
40
1.0237500816583631
210
-0
220
0
230
1
100
AcDbArc
50
2.4148365394514667e-06
51
180
0
ARC
5
137
100
AcDbEntity
8
0
100
AcDbCircle
10
-727.63688249835741
20
-901.64106127432433
30
0
40
0.77931083738803852
210
-0
220
0
230
1
100
AcDbArc
50
-97.768619823302743
51
7.7686186853208445
0
LINE
5
138
100
AcDbEntity
8
0
100
AcDbLine
10
-730.37472440252077
20
-904.31447025946227
30
0
11
-730.37472440252077
21
-904.0219700019702
31
0
0
LINE
5
139
100
AcDbEntity
8
0
100
AcDbLine
10
-730.37472440252077
20
-904.0219700019702
30
0
11
-730.0822241450287
21
-904.0219700019702
31
0
0
LINE
5
140
100
AcDbEntity
8
0
100
AcDbLine
10
-730.0822241450287
20
-904.0219700019702
30
0
11
-730.0822241450287
21
-904.31447025946227
31
0
0
LINE
5
141
100
AcDbEntity
8
0
100
AcDbLine
10
-730.0822241450287
20
-904.31447025946227
30
0
11
-730.37472440252077
21
-904.31447025946227
31
0
0
LINE
5
142
100
AcDbEntity
8
0
100
AcDbLine
10
-730.37472440252077
20
-904.31447025946227
30
0
11
-731.54472424039614
21
-903.87572046927062
31
0
0
LINE
5
143
100
AcDbEntity
8
0
100
AcDbLine
10
-730.37472440252077
20
-908.26321956328002
30
0
11
-726.864723994825
21
-908.26321956328002
31
0
0
LINE
5
144
100
AcDbEntity
8
0
100
AcDbLine
10
-726.864723994825
20
-908.26321956328002
30
0
11
-726.864723994825
21
-910.01821991613951
31
0
0
LINE
5
145
100
AcDbEntity
8
0
100
AcDbLine
10
-726.864723994825
20
-910.01821991613951
30
0
11
-727.44972421178591
21
-910.01821991613951
31
0
0
LINE
5
146
100
AcDbEntity
8
0
100
AcDbLine
10
-730.37472440252077
20
-913.52821942976561
30
0
11
-730.37472440252077
21
-912.06571933439818
31
0
0
LINE
5
147
100
AcDbEntity
8
0
100
AcDbLine
10
-729.49722422609102
20
-911.18821975401488
30
0
11
-728.03472413072359
21
-911.18821975401488
31
0
0
LINE
5
148
100
AcDbEntity
8
0
100
AcDbLine
10
-728.03472413072359
20
-913.52821942976561
30
0
11
-728.61972404966127
21
-913.52821942976561
31
0
0
LINE
5
149
100
AcDbEntity
8
0
100
AcDbLine
10
-728.61972404966127
20
-913.52821942976561
30
0
11
-728.61972404966127
21
-911.18821975401488
31
0
0
ARC
5
150
100
AcDbEntity
8
0
100
AcDbCircle
10
-729.60256589898836
20
-911.96037885359374
30
0
40
0.77931083738803852
210
-0
220
0
230
1
100
AcDbArc
50
82.231388828112614
51
187.76860320370645
0
ARC
5
151
100
AcDbEntity
8
0
100
AcDbCircle
10
-728.03472413072359
20
-912.35822078398314
30
0
40
1.1700000613927839
210
-0
220
0
230
1
100
AcDbArc
50
-90
51
90.00000500895429
0
LINE
5
152
100
AcDbEntity
8
0
100
AcDbLine
10
-728.32722438821565
20
-917.33072158506957
30
0
11
-728.32722438821565
21
-916.01446983030883
31
0
0
LINE
5
153
100
AcDbEntity
8
0
100
AcDbLine
10
-730.37472440252077
20
-916.01446983030883
30
0
11
-730.37472440252077
21
-917.33072158506957
31
0
0
LINE
5
154
100
AcDbEntity
8
0
100
AcDbLine
10
-730.37472440252077
20
-917.33072158506957
30
0
11
-727.74222417125475
21
-917.33072158506957
31
0
0
LINE
5
155
100
AcDbEntity
8
0
100
AcDbLine
10
-726.864723994825
20
-916.45321962050048
30
0
11
-726.864723994825
21
-915.28322097471801
31
0
0
ARC
5
156
100
AcDbEntity
8
0
100
AcDbCircle
10
-729.35097439536821
20
-916.01446983030883
30
0
40
1.0237500816583631
210
-0
220
0
230
1
100
AcDbArc
50
2.4148365394514667e-06
51
180
0
ARC
5
157
100
AcDbEntity
8
0
100
AcDbCircle
10
-727.63688249835741
20
-916.55856248549071
30
0
40
0.77931083738803852
210
-0
220
0
230
1
100
AcDbArc
50
-97.768619823302743
51
7.7686186853208445
0
LINE
5
158
100
AcDbEntity
8
0
100
AcDbLine
10
-730.37472440252077
20
-919.08572074583617
30
0
11
-726.864723994825
21
-919.08572074583617
31
0
0
LINE
5
159
100
AcDbEntity
8
0
100
AcDbLine
10
-726.864723994825
20
-919.08572074583617
30
0
11
-726.864723994825
21
-920.84072229078856
31
0
0
LINE
5
160
100
AcDbEntity
8
0
100
AcDbLine
10
-726.864723994825
20
-920.84072229078856
30
0
11
-727.44972421178591
21
-920.84072229078856
31
0
0
LINE
5
161
100
AcDbEntity
8
0
100
AcDbLine
10
-730.37472440252077
20
-926.39822122267333
30
0
11
-730.37472440252077
21
-925.22822257689086
31
0
0
LINE
5
162
100
AcDbEntity
8
0
100
AcDbLine
10
-729.49722422609102
20
-924.35072061232177
30
0
11
-727.74222417125475
21
-924.35072061232177
31
0
0
LINE
5
163
100
AcDbEntity
8
0
100
AcDbLine
10
-726.864723994825
20
-925.22822257689086
30
0
11
-726.864723994825
21
-926.39822122267333
31
0
0
ARC
5
164
100
AcDbEntity
8
0
100
AcDbCircle
10
-729.60256589898836
20
-925.12287971190062
30
0
40
0.77931083738803852
210
-0
220
0
230
1
100
AcDbArc
50
82.231388828112614
51
187.76860320370645
0
ARC
5
165
100
AcDbEntity
8
0
100
AcDbCircle
10
-727.63688249835741
20
-925.12287971190062
30
0
40
0.77931083738803852
210
-0
220
0
230
1
100
AcDbArc
50
-7.7686136763608422
51
97.768621189792043
0
LINE
5
166
100
AcDbEntity
8
0
100
AcDbLine
10
-729.20472426662218
20
-927.71447297743407
30
0
11
-728.03472413072359
21
-927.71447297743407
31
0
0
LINE
5
167
100
AcDbEntity
8
0
100
AcDbLine
10
-728.03472413072359
20
-930.0544726531848
30
0
11
-729.20472426662218
21
-930.0544726531848
31
0
0
ARC
5
168
100
AcDbEntity
8
0
100
AcDbCircle
10
-728.03472413072359
20
-928.88447162321654
30
0
40
1.1700000613927839
210
-0
220
0
230
1
100
AcDbArc
50
-90
51
90.00000500895429
0
ARC
5
169
100
AcDbEntity
8
0
100
AcDbCircle
10
-729.20472426662218
20
-928.88447162321654
30
0
40
1.1700000613927839
210
-0
220
0
230
1
100
AcDbArc
50
90.00000500895429
51
270
0
LINE
5
170
100
AcDbEntity
8
0
100
AcDbLine
10
-730.37472440252077
20
-931.66322347334471
30
0
11
-726.864723994825
21
-931.66322347334471
31
0
0
LINE
5
171
100
AcDbEntity
8
0
100
AcDbLine
10
-726.864723994825
20
-931.66322347334471
30
0
11
-726.864723994825
21
-933.12572118452636
31
0
0
LINE
5
172
100
AcDbEntity
8
0
100
AcDbLine
10
-727.74222417125475
20
-934.00322076490966
30
0
11
-730.37472440252077
21
-934.00322076490966
31
0
0
ARC
5
173
100
AcDbEntity
8
0
100
AcDbCircle
10
-727.63688249835741
20
-933.23106404951659
30
0
40
0.77931083738803852
210
-0
220
0
230
1
100
AcDbArc
50
-97.768619823302743
51
7.7686186853208445
0
LINE
5
174
100
AcDbEntity
8
0
100
AcDbLine
10
-726.864723994825
20
-935.3194725196704
30
0
11
-726.864723994825
21
-937.074471680437
31
0
0
LINE
5
175
100
AcDbEntity
8
0
100
AcDbLine
10
-725.10972393998873
20
-935.90447065046874
30
0
11
-729.49722422609102
21
-935.90447065046874
31
0
0
LINE
5
176
100
AcDbEntity
8
0
100
AcDbLine
10
-730.37472440252077
20
-936.78197023085204
30
0
11
-730.37472440252077
21
-937.074471680437
31
0
0
ARC
5
177
100
AcDbEntity
8
0
100
AcDbCircle
10
-729.60256589898836
20
-936.6766273658618
30
0
40
0.77931083738803852
210
-0
220
0
230
1
100
AcDbArc
50
82.231388828112614
51
187.76860320370645
0
LINE
5
178
100
AcDbEntity
8
0
100
AcDbLine
10
-730.37472440252077
20
-938.53696939161864
30
0
11
-726.864723994825
21
-938.53696939161864
31
0
0
LINE
5
179
100
AcDbEntity
8
0
100
AcDbLine
10
-726.864723994825
20
-938.53696939161864
30
0
11
-726.864723994825
21
-940.29196855238524
31
0
0
LINE
5
180
100
AcDbEntity
8
0
100
AcDbLine
10
-726.864723994825
20
-940.29196855238524
30
0
11
-727.44972421178591
21
-940.29196855238524
31
0
0
LINE
5
181
100
AcDbEntity
8
0
100
AcDbLine
10
-729.20472426662218
20
-941.4619695823535
30
0
11
-728.03472413072359
21
-941.4619695823535
31
0
0
LINE
5
182
100
AcDbEntity
8
0
100
AcDbLine
10
-728.03472413072359
20
-943.80197164229003
30
0
11
-729.20472426662218
21
-943.80197164229003
31
0
0
ARC
5
183
100
AcDbEntity
8
0
100
AcDbCircle
10
-728.03472413072359
20
-942.63197061232177
30
0
40
1.1700000613927839
210
-0
220
0
230
1
100
AcDbArc
50
-90
51
90.00000500895429
0
ARC
5
184
100
AcDbEntity
8
0
100
AcDbCircle
10
-729.20472426662218
20
-942.63197061232177
30
0
40
1.1700000613927839
210
-0
220
0
230
1
100
AcDbArc
50
90.00000500895429
51
270
0
LINE
5
185
100
AcDbEntity
8
0
100
AcDbLine
10
-725.10972393998873
20
-945.41072007826415
30
0
11
-729.49722422609102
21
-945.41072007826415
31
0
0
ARC
5
186
100
AcDbEntity
8
0
100
AcDbCircle
10
-729.60256589898836
20
-946.18287679365721
30
0
40
0.77931083738803852
210
-0
220
0
230
1
100
AcDbArc
50
82.231388828112614
51
187.76860320370645
0
LINE
5
187
100
AcDbEntity
8
0
100
AcDbLine
10
-728.32722438821565
20
-952.28447553328124
30
0
11
-728.32722438821565
21
-950.9682237785205
31
0
0
LINE
5
188
100
AcDbEntity
8
0
100
AcDbLine
10
-730.37472440252077
20
-950.9682237785205
30
0
11
-730.37472440252077
21
-952.28447553328124
31
0
0
LINE
5
189
100
AcDbEntity
8
0
100
AcDbLine
10
-730.37472440252077
20
-952.28447553328124
30
0
11
-727.74222417125475
21
-952.28447553328124
31
0
0
LINE
5
190
100
AcDbEntity
8
0
100
AcDbLine
10
-726.864723994825
20
-951.40697595289794
30
0
11
-726.864723994825
21
-950.23697492292968
31
0
0
ARC
5
191
100
AcDbEntity
8
0
100
AcDbCircle
10
-729.35097439536821
20
-950.9682237785205
30
0
40
1.0237500816583631
210
-0
220
0
230
1
100
AcDbArc
50
2.4148365394514667e-06
51
180
0
ARC
5
192
100
AcDbEntity
8
0
100
AcDbCircle
10
-727.63688249835741
20
-951.51231881788817
30
0
40
0.77931083738803852
210
-0
220
0
230
1
100
AcDbArc
50
-97.768619823302743
51
7.7686186853208445
0
LINE
5
193
100
AcDbEntity
8
0
100
AcDbLine
10
-728.91222430715334
20
-955.79447385481444
30
0
11
-728.32722438821565
21
-954.3319761436328
31
0
0
ARC
5
194
100
AcDbEntity
8
0
100
AcDbCircle
10
-727.61440469274294
20
-954.57037564924804
30
0
40
0.75162976980209339
210
-0
220
0
230
1
100
AcDbArc
50
-4.1274125090748432
51
161.50753671300578
0
ARC
5
195
100
AcDbEntity
8
0
100
AcDbCircle
10
-729.58145095357668
20
-954.71138116530028
30
0
40
2.7181166410446163
210
-0
220
0
230
1
100
AcDbArc
50
-26.88987852197323
51
1.8322622210385222
0
ARC
5
196
100
AcDbEntity
8
0
100
AcDbCircle
10
-729.62372137555849
20
-955.54946061781493
30
0
40
0.7525029033422469
210
-0
220
0
230
1
100
AcDbArc
50
176.38213144215783
51
340.99800642215524
0
ARC
5
197
100
AcDbEntity
8
0
100
AcDbCircle
10
-727.27773322114717
20
-955.23409959486571
30
0
40
3.1085547804832454
210
-0
220
0
230
1
100
AcDbArc
50
154.44676035660979
51
184.94352767995895
0
LINE
5
198
100
AcDbEntity
8
0
100
AcDbLine
10
-728.91222430715334
20
-959.59697362593261
30
0
11
-728.32722438821565
21
-958.13447591475096
31
0
0
ARC
5
199
100
AcDbEntity
8
0
100
AcDbCircle
10
-727.61440469274294
20
-958.3728754203662
30
0
40
0.75162976980209339
210
-0
220
0
230
1
100
AcDbArc
50
-4.1274125090748432
51
161.50753671300578
0
ARC
5
200
100
AcDbEntity
8
0
100
AcDbCircle
10
-729.58145095357668
20
-958.51388093641845
30
0
40
2.7181166410446163
210
-0
220
0
230
1
100
AcDbArc
50
-26.88987852197323
51
1.8322622210385222
0
ARC
5
201
100
AcDbEntity
8
0
100
AcDbCircle
10
-729.62372137555849
20
-959.35196038893309
30
0
40
0.7525029033422469
210
-0
220
0
230
1
100
AcDbArc
50
176.38213144215783
51
340.99800642215524
0
ARC
5
202
100
AcDbEntity
8
0
100
AcDbCircle
10
-727.27773322114717
20
-959.03659936598388
30
0
40
3.1085547804832454
210
-0
220
0
230
1
100
AcDbArc
50
154.44676035660979
51
184.94352767995895
0
LINE
5
203
100
AcDbEntity
8
0
100
AcDbLine
10
-730.37472440252077
20
-963.83822557142821
30
0
11
-730.37472440252077
21
-962.37572309187499
31
0
0
LINE
5
204
100
AcDbEntity
8
0
100
AcDbLine
10
-729.49722422609102
20
-961.49822351149169
30
0
11
-728.03472413072359
21
-961.49822351149169
31
0
0
LINE
5
205
100
AcDbEntity
8
0
100
AcDbLine
10
-728.03472413072359
20
-963.83822557142821
30
0
11
-728.61972404966127
21
-963.83822557142821
31
0
0
LINE
5
206
100
AcDbEntity
8
0
100
AcDbLine
10
-728.61972404966127
20
-963.83822557142821
30
0
11
-728.61972404966127
21
-961.49822351149169
31
0
0
ARC
5
207
100
AcDbEntity
8
0
100
AcDbCircle
10
-729.60256589898836
20
-962.27038499525634
30
0
40
0.77931083738803852
210
-0
220
0
230
1
100
AcDbArc
50
82.231388828112614
51
187.76860320370645
0
ARC
5
208
100
AcDbEntity
8
0
100
AcDbCircle
10
-728.03472413072359
20
-962.66822454145995
30
0
40
1.1700000613927839
210
-0
220
0
230
1
100
AcDbArc
50
-90
51
90.00000500895429
0
LINE
5
209
100
AcDbEntity
8
0
100
AcDbLine
10
-730.37472440252077
20
-965.44697400740233
30
0
11
-726.864723994825
21
-965.44697400740233
31
0
0
LINE
5
210
100
AcDbEntity
8
0
100
AcDbLine
10
-726.864723994825
20
-965.44697400740233
30
0
11
-726.864723994825
21
-968.07947274855223
31
0
0
LINE
5
211
100
AcDbEntity
8
0
100
AcDbLine
10
-727.74222417125475
20
-968.95697709730712
30
0
11
-730.37472440252077
21
-968.95697709730712
31
0
0
LINE
5
212
100
AcDbEntity
8
0
100
AcDbLine
10
-730.37472440252077
20
-967.20197316816893
30
0
11
-726.864723994825
21
-967.20197316816893
31
0
0
ARC
5
213
100
AcDbEntity
8
0
100
AcDbCircle
10
-727.63688249835741
20
-968.18481561354247
30
0
40
0.77931083738803852
210
-0
220
0
230
1
100
AcDbArc
50
-97.768619823302743
51
7.7686186853208445
0
LINE
5
214
100
AcDbEntity
8
0
100
AcDbLine
10
-725.10972393998873
20
-970.71197625807372
30
0
11
-730.37472440252077
21
-970.71197625807372
31
0
0
LINE
5
215
100
AcDbEntity
8
0
100
AcDbLine
10
-730.37472440252077
20
-970.71197625807372
30
0
11
-730.37472440252077
21
-972.17447396925536
31
0
0
LINE
5
216
100
AcDbEntity
8
0
100
AcDbLine
10
-729.49722422609102
20
-973.05197831801024
30
0
11
-727.74222417125475
21
-973.05197831801024
31
0
0
LINE
5
217
100
AcDbEntity
8
0
100
AcDbLine
10
-726.864723994825
20
-972.17447396925536
30
0
11
-726.864723994825
21
-970.71197625807372
31
0
0
ARC
5
218
100
AcDbEntity
8
0
100
AcDbCircle
10
-729.60256589898836
20
-972.27981683424559
30
0
40
0.77931083738803852
210
-0
220
0
230
1
100
AcDbArc
50
172.23137084203424
51
277.76861618084968
0
ARC
5
219
100
AcDbEntity
8
0
100
AcDbCircle
10
-727.63688249835741
20
-972.27981683424559
30
0
40
0.77931083738803852
210
-0
220
0
230
1
100
AcDbArc
50
-97.768619823302743
51
7.7686186853208445
0
LINE
5
220
100
AcDbEntity
8
0
100
AcDbLine
10
-725.10972393998873
20
-974.66073152235595
30
0
11
-729.49722422609102
21
-974.66073152235595
31
0
0
ARC
5
221
100
AcDbEntity
8
0
100
AcDbCircle
10
-729.60256589898836
20
-975.43288346937743
30
0
40
0.77931083738803852
210
-0
220
0
230
1
100
AcDbArc
50
82.231388828112614
51
187.76860320370645
0
LINE
5
222
100
AcDbEntity
8
0
100
AcDbLine
10
-732.12972475538027
20
-976.70823213270751
30
0
11
-732.12972475538027
21
-977.29322549513427
31
0
0
LINE
5
223
100
AcDbEntity
8
0
100
AcDbLine
10
-732.12972475538027
20
-977.29322549513427
30
0
11
-726.864723994825
21
-979.04823419264403
31
0
0
LINE
5
224
100
AcDbEntity
8
0
100
AcDbLine
10
-726.864723994825
20
-976.70823213270751
30
0
11
-730.37472440252077
21
-977.87822839430419
31
0
0
LINE
5
225
100
AcDbEntity
8
0
100
AcDbLine
10
-730.37472440252077
20
-984.7519790809497
30
0
11
-730.37472440252077
21
-983.58198281935302
31
0
0
LINE
5
226
100
AcDbEntity
8
0
100
AcDbLine
10
-729.49722422609102
20
-982.70447847059813
30
0
11
-727.74222417125475
21
-982.70447847059813
31
0
0
LINE
5
227
100
AcDbEntity
8
0
100
AcDbLine
10
-726.864723994825
20
-983.58198281935302
30
0
11
-726.864723994825
21
-984.7519790809497
31
0
0
ARC
5
228
100
AcDbEntity
8
0
100
AcDbCircle
10
-729.60256589898836
20
-983.47663995436278
30
0
40
0.77931083738803852
210
-0
220
0
230
1
100
AcDbArc
50
82.231388828112614
51
187.76860320370645
0
ARC
5
229
100
AcDbEntity
8
0
100
AcDbCircle
10
-727.63688249835741
20
-983.47663995436278
30
0
40
0.77931083738803852
210
-0
220
0
230
1
100
AcDbArc
50
-7.7686136763608422
51
97.768621189792043
0
LINE
5
230
100
AcDbEntity
8
0
100
AcDbLine
10
-730.37472440252077
20
-988.40823289564696
30
0
11
-730.37472440252077
21
-986.94573518446532
31
0
0
LINE
5
231
100
AcDbEntity
8
0
100
AcDbLine
10
-729.49722422609102
20
-986.06823083571044
30
0
11
-728.03472413072359
21
-986.06823083571044
31
0
0
LINE
5
232
100
AcDbEntity
8
0
100
AcDbLine
10
-728.03472413072359
20
-988.40823289564696
30
0
11
-728.61972404966127
21
-988.40823289564696
31
0
0
LINE
5
233
100
AcDbEntity
8
0
100
AcDbLine
10
-728.61972404966127
20
-988.40823289564696
30
0
11
-728.61972404966127
21
-986.06823083571044
31
0
0
ARC
5
234
100
AcDbEntity
8
0
100
AcDbCircle
10
-729.60256589898836
20
-986.84039231947509
30
0
40
0.77931083738803852
210
-0
220
0
230
1
100
AcDbArc
50
82.231388828112614
51
187.76860320370645
0
ARC
5
235
100
AcDbEntity
8
0
100
AcDbCircle
10
-728.03472413072359
20
-987.23823663405028
30
0
40
1.1700000613927839
210
-0
220
0
230
1
100
AcDbArc
50
-90
51
90.00000500895429
0
LINE
5
236
100
AcDbEntity
8
0
100
AcDbLine
10
-730.37472440252077
20
-990.01698609999266
30
0
11
-726.864723994825
21
-990.01698609999266
31
0
0
LINE
5
237
100
AcDbEntity
8
0
100
AcDbLine
10
-726.864723994825
20
-990.01698609999266
30
0
11
-726.864723994825
21
-991.4794838111743
31
0
0
LINE
5
238
100
AcDbEntity
8
0
100
AcDbLine
10
-727.74222417125475
20
-992.35697862318602
30
0
11
-730.37472440252077
21
-992.35697862318602
31
0
0
ARC
5
239
100
AcDbEntity
8
0
100
AcDbCircle
10
-727.63688249835741
20
-991.58482667616454
30
0
40
0.77931083738803852
210
-0
220
0
230
1
100
AcDbArc
50
-97.768619823302743
51
7.7686186853208445
0
LINE
5
240
100
AcDbEntity
8
0
100
AcDbLine
10
-726.864723994825
20
-993.67323037794677
30
0
11
-726.864723994825
21
-995.42822953871337
31
0
0
LINE
5
241
100
AcDbEntity
8
0
100
AcDbLine
10
-725.10972393998873
20
-994.25823327711669
30
0
11
-729.49722422609102
21
-994.25823327711669
31
0
0
LINE
5
242
100
AcDbEntity
8
0
100
AcDbLine
10
-730.37472440252077
20
-995.13573762587157
30
0
11
-730.37472440252077
21
-995.42822953871337
31
0
0
ARC
5
243
100
AcDbEntity
8
0
100
AcDbCircle
10
-729.60256589898836
20
-995.03039476088134
30
0
40
0.77931083738803852
210
-0
220
0
230
1
100
AcDbArc
50
82.231388828112614
51
187.76860320370645
0
LINE
5
244
100
AcDbEntity
8
0
100
AcDbLine
10
-730.37472440252077
20
-999.08448335341063
30
0
11
-730.37472440252077
21
-997.62198564222899
31
0
0
LINE
5
245
100
AcDbEntity
8
0
100
AcDbLine
10
-729.49722422609102
20
-996.74448129347411
30
0
11
-728.03472413072359
21
-996.74448129347411
31
0
0
LINE
5
246
100
AcDbEntity
8
0
100
AcDbLine
10
-728.03472413072359
20
-999.08448335341063
30
0
11
-728.61972404966127
21
-999.08448335341063
31
0
0
LINE
5
247
100
AcDbEntity
8
0
100
AcDbLine
10
-728.61972404966127
20
-999.08448335341063
30
0
11
-728.61972404966127
21
-996.74448129347411
31
0
0
ARC
5
248
100
AcDbEntity
8
0
100
AcDbCircle
10
-729.60256589898836
20
-997.51664277723876
30
0
40
0.77931083738803852
210
-0
220
0
230
1
100
AcDbArc
50
82.231388828112614
51
187.76860320370645
0
ARC
5
249
100
AcDbEntity
8
0
100
AcDbCircle
10
-728.03472413072359
20
-997.91448709181395
30
0
40
1.1700000613927839
210
-0
220
0
230
1
100
AcDbArc
50
-90
51
90.00000500895429
0
LINE
5
250
100
AcDbEntity
8
0
100
AcDbLine
10
-730.37472440252077
20
-1000.6932365577563
30
0
11
-726.864723994825
21
-1000.6932365577563
31
0
0
LINE
5
251
100
AcDbEntity
8
0
100
AcDbLine
10
-726.864723994825
20
-1000.6932365577563
30
0
11
-726.864723994825
21
-1002.4482357185229
31
0
0
LINE
5
252
100
AcDbEntity
8
0
100
AcDbLine
10
-726.864723994825
20
-1002.4482357185229
30
0
11
-727.44972421178591
21
-1002.4482357185229
31
0
0
LINE
5
253
100
AcDbEntity
8
0
100
AcDbLine
10
-732.12972475538027
20
-1006.1044895332202
30
0
11
-726.864723994825
21
-1006.1044895332202
31
0
0
LINE
5
254
100
AcDbEntity
8
0
100
AcDbLine
10
-726.864723994825
20
-1006.1044895332202
30
0
11
-726.864723994825
21
-1007.5669872444018
31
0
0
LINE
5
255
100
AcDbEntity
8
0
100
AcDbLine
10
-727.74222417125475
20
-1008.4444820564136
30
0
11
-729.49722422609102
21
-1008.4444820564136
31
0
0
LINE
5
256
100
AcDbEntity
8
0
100
AcDbLine
10
-730.37472440252077
20
-1007.5669872444018
30
0
11
-730.37472440252077
21
-1006.1044895332202
31
0
0
ARC
5
257
100
AcDbEntity
8
0
100
AcDbCircle
10
-727.63688249835741
20
-1007.6723301093921
30
0
40
0.77931083738803852
210
-0
220
0
230
1
100
AcDbArc
50
-97.768619823302743
51
7.7686186853208445
0
ARC
5
258
100
AcDbEntity
8
0
100
AcDbCircle
10
-729.60256589898836
20
-1007.6723301093921
30
0
40
0.77931083738803852
210
-0
220
0
230
1
100
AcDbArc
50
172.23137084203424
51
277.76861618084968
0
LINE
5
259
100
AcDbEntity
8
0
100
AcDbLine
10
-730.37472440252077
20
-1010.0532352607593
30
0
11
-726.864723994825
21
-1010.0532352607593
31
0
0
LINE
5
260
100
AcDbEntity
8
0
100
AcDbLine
10
-725.40222389945757
20
-1009.9069797675952
30
0
11
-725.10972393998873
21
-1009.9069797675952
31
0
0
LINE
5
261
100
AcDbEntity
8
0
100
AcDbLine
10
-725.10972393998873
20
-1009.9069797675952
30
0
11
-725.10972393998873
21
-1010.1994812171802
31
0
0
LINE
5
262
100
AcDbEntity
8
0
100
AcDbLine
10
-725.10972393998873
20
-1010.1994812171802
30
0
11
-725.40222389945757
21
-1010.1994812171802
31
0
0
LINE
5
263
100
AcDbEntity
8
0
100
AcDbLine
10
-725.40222389945757
20
-1010.1994812171802
30
0
11
-725.40222389945757
21
-1009.9069797675952
31
0
0
LINE
5
264
100
AcDbEntity
8
0
100
AcDbLine
10
-730.37472440252077
20
-1014.0019809882983
30
0
11
-730.37472440252077
21
-1012.5394832771167
31
0
0
LINE
5
265
100
AcDbEntity
8
0
100
AcDbLine
10
-729.49722422609102
20
-1011.6619789283618
30
0
11
-728.03472413072359
21
-1011.6619789283618
31
0
0
LINE
5
266
100
AcDbEntity
8
0
100
AcDbLine
10
-728.03472413072359
20
-1014.0019809882983
30
0
11
-728.61972404966127
21
-1014.0019809882983
31
0
0
LINE
5
267
100
AcDbEntity
8
0
100
AcDbLine
10
-728.61972404966127
20
-1014.0019809882983
30
0
11
-728.61972404966127
21
-1011.6619789283618
31
0
0
ARC
5
268
100
AcDbEntity
8
0
100
AcDbCircle
10
-729.60256589898836
20
-1012.4341404121265
30
0
40
0.77931083738803852
210
-0
220
0
230
1
100
AcDbArc
50
82.231388828112614
51
187.76860320370645
0
ARC
5
269
100
AcDbEntity
8
0
100
AcDbCircle
10
-728.03472413072359
20
-1012.8319847267016
30
0
40
1.1700000613927839
210
-0
220
0
230
1
100
AcDbArc
50
-90
51
90.00000500895429
0
LINE
5
270
100
AcDbEntity
8
0
100
AcDbLine
10
-730.37472440252077
20
-1017.5119793098315
30
0
11
-730.37472440252077
21
-1016.3419830482349
31
0
0
LINE
5
271
100
AcDbEntity
8
0
100
AcDbLine
10
-729.49722422609102
20
-1015.46447869948
30
0
11
-727.74222417125475
21
-1015.46447869948
31
0
0
LINE
5
272
100
AcDbEntity
8
0
100
AcDbLine
10
-726.864723994825
20
-1016.3419830482349
30
0
11
-726.864723994825
21
-1017.5119793098315
31
0
0
ARC
5
273
100
AcDbEntity
8
0
100
AcDbCircle
10
-729.60256589898836
20
-1016.2366401832446
30
0
40
0.77931083738803852
210
-0
220
0
230
1
100
AcDbArc
50
82.231388828112614
51
187.76860320370645
0
ARC
5
274
100
AcDbEntity
8
0
100
AcDbCircle
10
-727.63688249835741
20
-1016.2366401832446
30
0
40
0.77931083738803852
210
-0
220
0
230
1
100
AcDbArc
50
-7.7686136763608422
51
97.768621189792043
0
LINE
5
275
100
AcDbEntity
8
0
100
AcDbLine
10
-730.37472440252077
20
-1021.1682331245288
30
0
11
-730.37472440252077
21
-1019.7057354133472
31
0
0
LINE
5
276
100
AcDbEntity
8
0
100
AcDbLine
10
-729.49722422609102
20
-1018.8282310645923
30
0
11
-728.03472413072359
21
-1018.8282310645923
31
0
0
LINE
5
277
100
AcDbEntity
8
0
100
AcDbLine
10
-728.03472413072359
20
-1021.1682331245288
30
0
11
-728.61972404966127
21
-1021.1682331245288
31
0
0
LINE
5
278
100
AcDbEntity
8
0
100
AcDbLine
10
-728.61972404966127
20
-1021.1682331245288
30
0
11
-728.61972404966127
21
-1018.8282310645923
31
0
0
ARC
5
279
100
AcDbEntity
8
0
100
AcDbCircle
10
-729.60256589898836
20
-1019.6003925483569
30
0
40
0.77931083738803852
210
-0
220
0
230
1
100
AcDbArc
50
82.231388828112614
51
187.76860320370645
0
ARC
5
280
100
AcDbEntity
8
0
100
AcDbCircle
10
-728.03472413072359
20
-1019.9982368629321
30
0
40
1.1700000613927839
210
-0
220
0
230
1
100
AcDbArc
50
-90
51
90.00000500895429
0
LINE
5
281
100
AcDbEntity
8
0
100
AcDbLine
10
-730.37472440252077
20
-1022.9232322852954
30
0
11
-730.37472440252077
21
-1022.6307308357104
31
0
0
LINE
5
282
100
AcDbEntity
8
0
100
AcDbLine
10
-730.37472440252077
20
-1022.6307308357104
30
0
11
-730.0822241450287
21
-1022.6307308357104
31
0
0
LINE
5
283
100
AcDbEntity
8
0
100
AcDbLine
10
-730.0822241450287
20
-1022.6307308357104
30
0
11
-730.0822241450287
21
-1022.9232322852954
31
0
0
LINE
5
284
100
AcDbEntity
8
0
100
AcDbLine
10
-730.0822241450287
20
-1022.9232322852954
30
0
11
-730.37472440252077
21
-1022.9232322852954
31
0
0
LINE
5
285
100
AcDbEntity
8
0
100
AcDbLine
10
-730.37472440252077
20
-1022.9232322852954
30
0
11
-731.54472424039614
21
-1022.4844848792895
31
0
0
LINE
5
286
100
AcDbEntity
8
0
100
AcDbLine
10
-726.27972407588732
20
-1026.7257320564136
30
0
11
-725.10972393998873
21
-1028.1882297675952
31
0
0
LINE
5
287
100
AcDbEntity
8
0
100
AcDbLine
10
-725.10972393998873
20
-1028.1882297675952
30
0
11
-730.37472440252077
21
-1028.1882297675952
31
0
0
LINE
5
288
100
AcDbEntity
8
0
100
AcDbLine
10
-730.37472440252077
20
-1026.7257320564136
30
0
11
-730.37472440252077
21
-1029.65073701552
31
0
0
LINE
5
289
100
AcDbEntity
8
0
100
AcDbLine
10
-730.37472440252077
20
-1033.3069908302173
30
0
11
-726.864723994825
21
-1035.6469928901538
31
0
0
LINE
5
290
100
AcDbEntity
8
0
100
AcDbLine
10
-726.864723994825
20
-1033.3069908302173
30
0
11
-730.37472440252077
21
-1035.6469928901538
31
0
0
LINE
5
291
100
AcDbEntity
8
0
100
AcDbLine
10
-727.44972421178591
20
-1039.3032371681079
30
0
11
-727.44972421178591
21
-1041.0582363288745
31
0
0
LINE
5
292
100
AcDbEntity
8
0
100
AcDbLine
10
-728.61972404966127
20
-1042.2282421272143
30
0
11
-728.91222430715334
21
-1042.2282421272143
31
0
0
LINE
5
293
100
AcDbEntity
8
0
100
AcDbLine
10
-728.91222430715334
20
-1039.3032371681079
30
0
11
-727.44972421178591
21
-1039.3032371681079
31
0
0
ARC
5
294
100
AcDbEntity
8
0
100
AcDbCircle
10
-728.4792686844803
20
-1041.1986934821948
30
0
40
1.0390811413526533
210
-0
220
0
230
1
100
AcDbArc
50
-97.7686198233
51
7.7686186853145864
0
ARC
5
295
100
AcDbEntity
8
0
100
AcDbCircle
10
-728.91222430715334
20
-1040.7657348792895
30
0
40
1.4625000953674314
210
-0
220
0
230
1
100
AcDbArc
50
90.00000500895311
51
270
0
ARC
5
296
100
AcDbEntity
8
0
100
AcDbCircle
10
-727.16881318340074
20
-1041.3623249214038
30
0
40
2.0781622827053066
210
-0
220
0
230
1
100
AcDbArc
50
-7.7686136763580436
51
97.768621189793038
0
LINE
5
297
100
AcDbEntity
8
0
100
AcDbLine
10
-730.37472440252077
20
-1046.1769973914966
30
0
11
-726.864723994825
21
-1046.1769973914966
31
0
0
LINE
5
298
100
AcDbEntity
8
0
100
AcDbLine
10
-726.864723994825
20
-1046.1769973914966
30
0
11
-726.864723994825
21
-1048.8094913642749
31
0
0
LINE
5
299
100
AcDbEntity
8
0
100
AcDbLine
10
-727.74222417125475
20
-1049.6869957130298
30
0
11
-730.37472440252077
21
-1049.6869957130298
31
0
0
LINE
5
300
100
AcDbEntity
8
0
100
AcDbLine
10
-730.37472440252077
20
-1047.9319965522632
30
0
11
-726.864723994825
21
-1047.9319965522632
31
0
0
ARC
5
301
100
AcDbEntity
8
0
100
AcDbCircle
10
-727.63688249835741
20
-1048.9148342292651
30
0
40
0.77931083738803852
210
-0
220
0
230
1
100
AcDbArc
50
-97.768619823302743
51
7.7686186853208445
0
LINE
5
302
100
AcDbEntity
8
0
100
AcDbLine
10
-730.37472440252077
20
-1051.4419948737964
30
0
11
-726.864723994825
21
-1051.4419948737964
31
0
0
LINE
5
303
100
AcDbEntity
8
0
100
AcDbLine
10
-726.864723994825
20
-1051.4419948737964
30
0
11
-726.864723994825
21
-1054.0744983833179
31
0
0
LINE
5
304
100
AcDbEntity
8
0
100
AcDbLine
10
-727.74222417125475
20
-1054.9519931953296
30
0
11
-730.37472440252077
21
-1054.9519931953296
31
0
0
LINE
5
305
100
AcDbEntity
8
0
100
AcDbLine
10
-730.37472440252077
20
-1053.1969844978198
30
0
11
-726.864723994825
21
-1053.1969844978198
31
0
0
ARC
5
306
100
AcDbEntity
8
0
100
AcDbCircle
10
-727.63688249835741
20
-1054.1798412483081
30
0
40
0.77931083738803852
210
-0
220
0
230
1
100
AcDbArc
50
-97.768619823302743
51
7.7686186853208445
0
LINE
5
307
100
AcDbEntity
8
0
100
AcDbLine
10
-732.12972475538027
20
-1059.0469753425464
30
0
11
-726.864723994825
21
-1059.0469753425464
31
0
0
LINE
5
308
100
AcDbEntity
8
0
100
AcDbLine
10
-726.864723994825
20
-1059.0469753425464
30
0
11
-726.864723994825
21
-1060.509473053728
31
0
0
LINE
5
309
100
AcDbEntity
8
0
100
AcDbLine
10
-727.74222417125475
20
-1061.3869869392261
30
0
11
-729.49722422609102
21
-1061.3869869392261
31
0
0
LINE
5
310
100
AcDbEntity
8
0
100
AcDbLine
10
-730.37472440252077
20
-1060.509473053728
30
0
11
-730.37472440252077
21
-1059.0469753425464
31
0
0
ARC
5
311
100
AcDbEntity
8
0
100
AcDbCircle
10
-727.63688249835741
20
-1060.6148159187183
30
0
40
0.77931083738803852
210
-0
220
0
230
1
100
AcDbArc
50
-97.768619823302743
51
7.7686186853208445
0
ARC
5
312
100
AcDbEntity
8
0
100
AcDbCircle
10
-729.60256589898836
20
-1060.6148159187183
30
0
40
0.77931083738803852
210
-0
220
0
230
1
100
AcDbArc
50
172.23137084203424
51
277.76861618084968
0
LINE
5
313
100
AcDbEntity
8
0
100
AcDbLine
10
-725.10972393998873
20
-1062.9957210700854
30
0
11
-729.49722422609102
21
-1062.9957210700854
31
0
0
ARC
5
314
100
AcDbEntity
8
0
100
AcDbCircle
10
-729.60256589898836
20
-1063.7678920905933
30
0
40
0.77931083738803852
210
-0
220
0
230
1
100
AcDbArc
50
82.231388828111463
51
187.76860320371478
0
LINE
5
315
100
AcDbEntity
8
0
100
AcDbLine
10
-732.12972475538027
20
-1065.043221680437
30
0
11
-732.12972475538027
21
-1065.6282245796069
31
0
0
LINE
5
316
100
AcDbEntity
8
0
100
AcDbLine
10
-732.12972475538027
20
-1065.6282245796069
30
0
11
-726.864723994825
21
-1067.3832142036304
31
0
0
LINE
5
317
100
AcDbEntity
8
0
100
AcDbLine
10
-726.864723994825
20
-1065.043221680437
30
0
11
-730.37472440252077
21
-1066.2132274787768
31
0
0
ENDSEC
0
SECTION
2
OBJECTS
0
DICTIONARY
5
C
100
AcDbDictionary
3
ACAD_GROUP
350
D
3
ACAD_MLINESTYLE
350
17
0
DICTIONARY
5
D
100
AcDbDictionary
0
DICTIONARY
5
1A
330
C
100
AcDbDictionary
0
DICTIONARY
5
17
100
AcDbDictionary
0
ENDSEC
0
EOF
