0
SECTION
2
HEADER
9
$INSUNITS
70
4
9
$ACADVER
1
AC1014
9
$HANDSEED
5
FFFF
0
ENDSEC
0
SECTION
2
TABLES
0
TABLE
2
VPORT
5
8
100
AcDbSymbolTable
0
ENDTAB
0
TABLE
2
LTYPE
5
5
100
AcDbSymbolTable
0
LTYPE
5
14
100
AcDbSymbolTableRecord
100
AcDbLinetypeTableRecord
2
BYBLOCK
70
0
0
LTYPE
5
15
100
AcDbSymbolTableRecord
100
AcDbLinetypeTableRecord
2
BYLAYER
70
0
0
LTYPE
5
16
100
AcDbSymbolTableRecord
100
AcDbLinetypeTableRecord
2
DASHED
70
0
3
Dashed __ __ __ __ __ __ __ __ __ __ __ __ __ _
72
65
73
2
40
0.75
49
0.5
74
0
49
-0.25
74
0
0
ENDTAB
0
TABLE
2
LAYER
5
2
100
AcDbSymbolTable
70
3
0
LAYER
5
50
100
AcDbSymbolTableRecord
100
AcDbLayerTableRecord
2
1
70
0
62
7
6
DASHED
0
LAYER
5
51
100
AcDbSymbolTableRecord
100
AcDbLayerTableRecord
2
0
70
0
62
7
6
CONTINUOUS
0
ENDTAB
0
TABLE
2
STYLE
5
3
100
AcDbSymbolTable
70
1
0
STYLE
5
11
100
AcDbSymbolTableRecord
100
AcDbTextStyleTableRecord
2
STANDARD
70
0
0
ENDTAB
0
TABLE
2
VIEW
5
6
100
AcDbSymbolTable
70
0
0
ENDTAB
0
TABLE
2
UCS
5
7
100
AcDbSymbolTable
70
0
0
ENDTAB
0
TABLE
2
APPID
5
9
100
AcDbSymbolTable
70
2
0
APPID
5
12
100
AcDbSymbolTableRecord
100
AcDbRegAppTableRecord
2
ACAD
70
0
0
ENDTAB
0
TABLE
2
DIMSTYLE
5
A
100
AcDbSymbolTable
70
1
0
ENDTAB
0
TABLE
2
BLOCK_RECORD
5
1
100
AcDbSymbolTable
70
1
0
BLOCK_RECORD
5
1F
100
AcDbSymbolTableRecord
100
AcDbBlockTableRecord
2
*MODEL_SPACE
0
BLOCK_RECORD
5
1B
100
AcDbSymbolTableRecord
100
AcDbBlockTableRecord
2
*PAPER_SPACE
0
ENDTAB
0
ENDSEC
0
SECTION
2
BLOCKS
0
BLOCK
5
20
100
AcDbEntity
100
AcDbBlockBegin
2
*MODEL_SPACE
0
ENDBLK
5
21
100
AcDbEntity
100
AcDbBlockEnd
0
BLOCK
5
1C
100
AcDbEntity
100
AcDbBlockBegin
2
*PAPER_SPACE
0
ENDBLK
5
1D
100
AcDbEntity
100
AcDbBlockEnd
0
ENDSEC
0
SECTION
2
ENTITIES
0
CIRCLE
5
100
100
AcDbEntity
8
0
100
AcDbCircle
10
-642.77948044345385
20
-420.33812423475183
30
0
40
1.4999999999999858
210
-1.8055224417383952e-32
220
1.1540396727978654e-34
230
1
0
CIRCLE
5
101
100
AcDbEntity
8
0
100
AcDbCircle
10
-734.23718134616922
20
-420.23806317354456
30
0
40
1.4999999999999858
210
-1.8055224417383952e-32
220
1.1540396727978654e-34
230
1
0
LWPOLYLINE
5
102
100
AcDbEntity
8
0
100
AcDbPolyline
90
20
70
1
43
0.0
10
-612.2244121212492
20
-418.63017867977334
42
0.41576603600173978
10
-618.71716790339724
20
-412.08863722844353
10
-734.22812704438741
20
-411.96226023625337
10
-736.27102686164233
20
-411.94920258943512
42
0.41421356237309825
10
-742.81243943140657
20
-418.40752447612738
10
-742.86698557717136
20
-426.94139836366821
10
-742.93986319810119
20
-426.94131191634062
10
-743.12797491478614
20
-456.3718361898413
10
-742.40253248510487
20
-462.61574785639908
42
0.024994107053334155
10
-742.00714454718855
20
-464.98086238848686
10
-742.11715742490935
20
-465.07198227941444
10
-694.40084784702492
20
-875.768144880921
42
-0.2178054631906774
10
-699.52699235363013
20
-891.59391311549018
42
0.37466254867174498
10
-699.79200229356411
20
-902.10398509772574
10
-676.66128578278619
20
-930.03067224799497
42
0.41421356237310236
10
-665.39716203771945
20
-931.08874420009761
10
-628.23595846049204
20
-900.30939466540462
42
0.22169466264293994
10
-615.20031034601186
20
-872.81455162297323
10
-612.35140279269103
20
-427.09620734041812
10
-612.2785251717612
20
-427.09629378774571
0
LINE
5
103
100
AcDbEntity
8
1
100
AcDbLine
10
-620.2539186502629
20
-736.13211413386171
30
0
11
-618.27480362414644
21
-426.494873867097
31
0
0
LINE
5
104
100
AcDbEntity
8
1
100
AcDbLine
10
-618.27480362414644
20
-426.494873867097
30
0
11
-646.98076219894028
21
-426.31139337261413
31
0
0
LINE
5
105
100
AcDbEntity
8
1
100
AcDbLine
10
-646.98076219894028
20
-426.31139337261413
30
0
11
-648.9598772250572
21
-735.94863363937873
31
0
0
LINE
5
106
100
AcDbEntity
8
1
100
AcDbLine
10
-648.9598772250572
20
-735.94863363937873
30
0
11
-620.2539186502629
21
-736.13211413386171
31
0
0
CIRCLE
5
107
100
AcDbEntity
8
0
100
AcDbCircle
10
-631.31425643925706
20
-881.99583607052216
30
0
40
0.99999999999999645
210
-9.0986021307105289e-33
220
2.5075265996110797e-34
230
1
0
CIRCLE
5
108
100
AcDbEntity
8
0
100
AcDbCircle
10
-638.95498856387189
20
-834.36237584864432
30
0
40
1.5000000000000038
210
2.0415671383573104e-32
220
6.2105641447750147e-35
230
1
0
CIRCLE
5
109
100
AcDbEntity
8
0
100
AcDbCircle
10
-673.84298258047363
20
-919.90554913536994
30
0
40
1.4999999999999993
210
-2.0029262287017929e-32
220
1.2802146770237654e-34
230
1
0
CIRCLE
5
110
100
AcDbEntity
8
0
100
AcDbCircle
10
-693.46380446837043
20
-897.20270603288213
30
0
40
1.4999999999999993
210
-2.0029262287017929e-32
220
1.2802146770237654e-34
230
1
0
CIRCLE
5
111
100
AcDbEntity
8
0
100
AcDbCircle
10
-674.96064480352641
20
-835.13225814601856
30
0
40
3.2500000000000284
210
-2.4074124304840448e-35
220
1.3363823550460978e-51
230
1
0
LINE
5
112
100
AcDbEntity
8
0
100
AcDbLine
10
-620.24831033773955
20
-735.25463195415239
30
0
11
-625.51320265909283
21
-735.22098022836167
31
0
0
LINE
5
113
100
AcDbEntity
8
0
100
AcDbLine
10
-625.51320265909283
20
-735.22098022836167
30
0
11
-625.50385495711384
21
-733.7585100811491
31
0
0
LINE
5
114
100
AcDbEntity
8
0
100
AcDbLine
10
-624.03203703389431
20
-732.30538771089584
30
0
11
-621.69208515597472
21
-732.32034403177636
31
0
0
LINE
5
115
100
AcDbEntity
8
0
100
AcDbLine
10
-620.23896263576057
20
-733.79216180693993
30
0
11
-620.24831033773955
21
-735.25463195415239
31
0
0
ARC
5
116
100
AcDbEntity
8
0
100
AcDbCircle
10
-624.21582803814749
20
-733.59116969975378
30
0
40
1.2988513708114622
210
0
220
-0
230
1
100
AcDbArc
50
81.865166494222237
51
187.40240500283977
0
ARC
5
117
100
AcDbEntity
8
0
100
AcDbCircle
10
-621.5247452177955
20
-733.60837035185125
30
0
40
1.2988513708114622
210
0
220
-0
230
1
100
AcDbArc
50
-8.1348428404405215
51
97.402402498368588
0
LINE
5
118
100
AcDbEntity
8
0
100
AcDbLine
10
-624.31425003335244
20
-730.69480050014909
30
0
11
-625.47487707778851
21
-729.22485212561128
31
0
0
LINE
5
119
100
AcDbEntity
8
0
100
AcDbLine
10
-625.47487707778851
20
-729.22485212561128
30
0
11
-620.20998475643535
21
-729.25850385140211
31
0
0
LINE
5
120
100
AcDbEntity
8
0
100
AcDbLine
10
-620.21933245889045
20
-730.72097407311901
30
0
11
-620.20063705398013
21
-727.79603362968533
31
0
0
LINE
5
121
100
AcDbEntity
8
0
100
AcDbLine
10
-622.22379181787551
20
-723.98052474356393
30
0
11
-622.23220474551351
21
-725.29674722786797
31
0
0
LINE
5
122
100
AcDbEntity
8
0
100
AcDbLine
10
-620.18474595828252
20
-725.30983401435287
30
0
11
-620.17633303064451
21
-723.99361153004884
31
0
0
LINE
5
123
100
AcDbEntity
8
0
100
AcDbLine
10
-620.17633303064451
20
-723.99361153004884
30
0
11
-622.80878038338972
21
-723.97678565953413
31
0
0
LINE
5
124
100
AcDbEntity
8
0
100
AcDbLine
10
-623.69187065801771
20
-724.84865869731152
30
0
11
-623.69934881845802
21
-726.01863463627126
31
0
0
ARC
5
125
100
AcDbEntity
8
0
100
AcDbCircle
10
-621.20847535189807
20
-725.30329062111036
30
0
40
1.0237500816583631
210
0
220
-0
230
1
100
AcDbArc
50
179.63378882200655
51
359.63378700077169
0
ARC
5
126
100
AcDbEntity
8
0
100
AcDbCircle
10
-622.91905403000089
20
-724.74825450132369
30
0
40
0.77931083738803852
210
0
220
-0
230
1
100
AcDbArc
50
81.8651664942238
51
187.40240500284122
0
LINE
5
127
100
AcDbEntity
8
0
100
AcDbLine
10
-620.1641810113573
20
-722.09239928816214
30
0
11
-620.1660505533722
21
-722.38489357091919
31
0
0
LINE
5
128
100
AcDbEntity
8
0
100
AcDbLine
10
-620.1660505533722
20
-722.38489357091919
30
0
11
-620.4585436440608
21
-722.38302403652369
31
0
0
LINE
5
129
100
AcDbEntity
8
0
100
AcDbLine
10
-620.4585436440608
20
-722.38302403652369
30
0
11
-620.45667410204589
21
-722.09052975376665
31
0
0
LINE
5
130
100
AcDbEntity
8
0
100
AcDbLine
10
-620.45667410204589
20
-722.09052975376665
30
0
11
-620.1641810113573
21
-722.09239928816214
31
0
0
LINE
5
131
100
AcDbEntity
8
0
100
AcDbLine
10
-620.1641810113573
20
-722.09239928816214
30
0
11
-618.9970081895417
21
-722.53861828432309
31
0
0
LINE
5
132
100
AcDbEntity
8
0
100
AcDbLine
10
-622.17237944675287
20
-715.93693733205271
30
0
11
-622.18079238201017
21
-717.25316100842531
31
0
0
LINE
5
133
100
AcDbEntity
8
0
100
AcDbLine
10
-620.13333359477917
20
-717.26624779491021
30
0
11
-620.12492065952176
21
-715.95002411853761
31
0
0
LINE
5
134
100
AcDbEntity
8
0
100
AcDbLine
10
-620.12492065952176
20
-715.95002411853761
30
0
11
-622.75736801226697
21
-715.93319824802279
31
0
0
LINE
5
135
100
AcDbEntity
8
0
100
AcDbLine
10
-623.64045829451447
20
-716.80507247786875
30
0
11
-623.64793645495467
21
-717.97504841682849
31
0
0
ARC
5
136
100
AcDbEntity
8
0
100
AcDbCircle
10
-621.15706298839473
20
-717.2597044016677
30
0
40
1.0237500816583631
210
0
220
-0
230
1
100
AcDbArc
50
179.63378882200655
51
359.63378700077169
0
ARC
5
137
100
AcDbEntity
8
0
100
AcDbCircle
10
-622.86764166649755
20
-716.70466828188091
30
0
40
0.77931083738803852
210
0
220
-0
230
1
100
AcDbArc
50
81.865166494232071
51
187.40240500284844
0
LINE
5
138
100
AcDbEntity
8
0
100
AcDbLine
10
-620.11370342267116
20
-714.19506080613223
30
0
11
-623.62363243161906
21
-714.17262631719211
31
0
0
LINE
5
139
100
AcDbEntity
8
0
100
AcDbLine
10
-625.08703741291424
20
-714.30952396801263
30
0
11
-625.37953050360284
21
-714.30765443361702
31
0
0
LINE
5
140
100
AcDbEntity
8
0
100
AcDbLine
10
-625.37953050360284
20
-714.30765443361702
30
0
11
-625.37766096920723
21
-714.01516134292842
31
0
0
LINE
5
141
100
AcDbEntity
8
0
100
AcDbLine
10
-625.37766096920723
20
-714.01516134292865
30
0
11
-625.08516787851875
21
-714.01703087732415
31
0
0
LINE
5
142
100
AcDbEntity
8
0
100
AcDbLine
10
-625.08516787851875
20
-714.01703087732415
30
0
11
-625.08703741291424
21
-714.30952396801274
31
0
0
LINE
5
143
100
AcDbEntity
8
0
100
AcDbLine
10
-620.10248618582045
20
-712.44009749372685
30
0
11
-623.61241519476835
21
-712.41766300478673
31
0
0
LINE
5
144
100
AcDbEntity
8
0
100
AcDbLine
10
-623.61241519476835
20
-712.41766300478673
30
0
11
-623.60119794267894
21
-710.66269730824433
31
0
0
LINE
5
145
100
AcDbEntity
8
0
100
AcDbLine
10
-623.60119794267894
20
-710.66269730824411
30
0
11
-623.01620937716473
21
-710.66643639227391
31
0
0
LINE
5
146
100
AcDbEntity
8
0
100
AcDbLine
10
-625.3327920065658
20
-706.99530570916988
30
0
11
-620.06789968521252
21
-707.02895743496072
31
0
0
LINE
5
147
100
AcDbEntity
8
0
100
AcDbLine
10
-620.06789968521252
20
-707.02895743496072
30
0
11
-620.05855198275742
21
-705.56648721324382
31
0
0
LINE
5
148
100
AcDbEntity
8
0
100
AcDbLine
10
-620.9304250205347
20
-704.68339693861583
30
0
11
-622.68539071707721
21
-704.67217968652631
31
0
0
LINE
5
149
100
AcDbEntity
8
0
100
AcDbLine
10
-623.5684809917052
20
-705.5440527243037
30
0
11
-623.5778286941603
21
-707.0065229460206
31
0
0
ARC
5
150
100
AcDbEntity
8
0
100
AcDbCircle
10
-620.83002200137685
20
-705.45621117487622
30
0
40
0.77931083738803852
210
0
220
-0
230
1
100
AcDbArc
50
-8.1348428404508013
51
97.402402498359763
0
ARC
5
151
100
AcDbEntity
8
0
100
AcDbCircle
10
-622.79566435606898
20
-705.44364733624752
30
0
40
0.77931083738803852
210
0
220
-0
230
1
100
AcDbArc
50
81.865166494224979
51
187.40240500284014
0
LINE
5
152
100
AcDbEntity
8
0
100
AcDbLine
10
-620.04266088705981
20
-703.08028759791159
30
0
11
-623.55258989600759
21
-703.05785310897147
31
0
0
LINE
5
153
100
AcDbEntity
8
0
100
AcDbLine
10
-623.55258989600759
20
-703.05785310897136
30
0
11
-623.54137264391829
21
-701.30288741242896
31
0
0
LINE
5
154
100
AcDbEntity
8
0
100
AcDbLine
10
-623.54137264391818
20
-701.30288741242896
30
0
11
-622.95638407840397
21
-701.30662649645865
31
0
0
LINE
5
155
100
AcDbEntity
8
0
100
AcDbLine
10
-620.00900914603017
20
-697.81539289242119
30
0
11
-620.01835684848538
21
-699.27786311413809
31
0
0
LINE
5
156
100
AcDbEntity
8
0
100
AcDbLine
10
-620.90144713835218
20
-700.14973853605238
30
0
11
-622.36391736006897
21
-700.14039083359717
31
0
0
LINE
5
157
100
AcDbEntity
8
0
100
AcDbLine
10
-622.34896102394976
20
-697.80043657154067
30
0
11
-621.76397245843555
21
-697.80417565557048
31
0
0
LINE
5
158
100
AcDbEntity
8
0
100
AcDbLine
10
-621.76397245843555
20
-697.80417565557048
30
0
11
-621.77892879455487
21
-700.14412991762708
31
0
0
ARC
5
159
100
AcDbEntity
8
0
100
AcDbCircle
10
-620.7911734841216
20
-699.37826850219426
30
0
40
0.77931083738803852
210
0
220
-0
230
1
100
AcDbArc
50
-98.13482485435091
51
7.402389521233192
0
ARC
5
160
100
AcDbEntity
8
0
100
AcDbCircle
10
-622.35643919200936
20
-698.97041370256898
30
0
40
1.1700000613927839
210
0
220
-0
230
1
100
AcDbArc
50
89.633786317530834
51
269.63379132648163
0
LINE
5
161
100
AcDbEntity
8
0
100
AcDbLine
10
-622.03216390992554
20
-693.99988400629979
30
0
11
-622.04057685280236
21
-695.31610887474085
31
0
0
LINE
5
162
100
AcDbEntity
8
0
100
AcDbLine
10
-619.99311806557125
20
-695.32919566122587
30
0
11
-619.98470512269455
21
-694.01297079278481
31
0
0
LINE
5
163
100
AcDbEntity
8
0
100
AcDbLine
10
-619.98470512269455
20
-694.01297079278481
30
0
11
-622.61715247543975
21
-693.99614492226999
31
0
0
LINE
5
164
100
AcDbEntity
8
0
100
AcDbLine
10
-623.50024275006774
20
-694.86801796004727
30
0
11
-623.50772091812735
21
-696.03799509107557
31
0
0
ARC
5
165
100
AcDbEntity
8
0
100
AcDbCircle
10
-621.01684745918681
20
-695.32265226798347
30
0
40
1.0237500816583631
210
0
220
-0
230
1
100
AcDbArc
50
179.63378882200058
51
359.63378700077863
0
ARC
5
166
100
AcDbEntity
8
0
100
AcDbCircle
10
-622.72742611443152
20
-694.76761257199098
30
0
40
0.77931083738803852
210
0
220
-0
230
1
100
AcDbArc
50
81.865166494232071
51
187.40240500284014
0
LINE
5
167
100
AcDbEntity
8
0
100
AcDbLine
10
-619.97348788584395
20
-692.25800748037932
30
0
11
-625.23838020719711
21
-692.22435575458849
31
0
0
LINE
5
168
100
AcDbEntity
8
0
100
AcDbLine
10
-623.46846055867252
20
-689.89561872938248
30
0
11
-621.72845119824933
21
-692.24679024352872
31
0
0
LINE
5
169
100
AcDbEntity
8
0
100
AcDbLine
10
-619.95853154972463
20
-689.91805321832271
30
0
11
-622.45314410793378
21
-691.21838699106615
31
0
0
LINE
5
170
100
AcDbEntity
8
0
100
AcDbLine
10
-621.96766475231789
20
-683.90883780755746
30
0
11
-621.97607769519459
21
-685.22506267599852
31
0
0
LINE
5
171
100
AcDbEntity
8
0
100
AcDbLine
10
-619.9286189079636
20
-685.23814946248365
30
0
11
-619.92020596508689
21
-683.92192459404259
31
0
0
LINE
5
172
100
AcDbEntity
8
0
100
AcDbLine
10
-619.92020596508689
20
-683.92192459404237
30
0
11
-622.5526533178321
21
-683.90509872352766
31
0
0
LINE
5
173
100
AcDbEntity
8
0
100
AcDbLine
10
-623.43574359246008
20
-684.77697176130505
30
0
11
-623.44322176051969
21
-685.94694889233335
31
0
0
ARC
5
174
100
AcDbEntity
8
0
100
AcDbCircle
10
-620.95234830157915
20
-685.23160606924102
30
0
40
1.0237500816583631
210
0
220
-0
230
1
100
AcDbArc
50
179.63378882200655
51
359.63378700077169
0
ARC
5
175
100
AcDbEntity
8
0
100
AcDbCircle
10
-622.66292698730138
20
-684.67657114152303
30
0
40
0.77931083738803852
210
0
220
-0
230
1
100
AcDbArc
50
81.865166494224979
51
187.40240500284014
0
LINE
5
176
100
AcDbEntity
8
0
100
AcDbLine
10
-621.36024171310237
20
-680.40265026677639
30
0
11
-621.95457796583298
21
-681.86137902032647
31
0
0
ARC
5
177
100
AcDbEntity
8
0
100
AcDbCircle
10
-622.66585875277656
20
-681.61842833621677
30
0
40
0.75162976980209339
210
0
220
-0
230
1
100
AcDbArc
50
175.5063738084595
51
341.14132303053037
0
ARC
5
178
100
AcDbEntity
8
0
100
AcDbCircle
10
-620.69795142208034
20
-681.48999825559144
30
0
40
2.7181166410446163
210
0
220
-0
230
1
100
AcDbArc
50
152.74390779555497
51
181.46604853856317
0
ARC
5
179
100
AcDbEntity
8
0
100
AcDbCircle
10
-620.6503263945101
20
-680.65220608967468
30
0
40
0.7525029033422469
210
0
220
-0
230
1
100
AcDbArc
50
-3.9840822403021172
51
160.6317927396737
0
ARC
5
180
100
AcDbEntity
8
0
100
AcDbCircle
10
-622.99828049934194
20
-680.95256608556736
30
0
40
3.1085547804832454
210
0
220
-0
230
1
100
AcDbArc
50
-25.919453325863213
51
4.5773139974885257
0
LINE
5
181
100
AcDbEntity
8
0
100
AcDbLine
10
-621.33593768976675
20
-676.60022816714002
30
0
11
-621.93027394249737
21
-678.05895692068998
31
0
0
ARC
5
182
100
AcDbEntity
8
0
100
AcDbCircle
10
-622.64155472944094
20
-677.81600623658039
30
0
40
0.75162976980209339
210
0
220
-0
230
1
100
AcDbArc
50
175.50637380845015
51
341.1413230305331
0
ARC
5
183
100
AcDbEntity
8
0
100
AcDbCircle
10
-620.67364739874472
20
-677.68757615595507
30
0
40
2.7181166410446163
210
0
220
-0
230
1
100
AcDbArc
50
152.74390779555287
51
181.46604853856317
0
ARC
5
184
100
AcDbEntity
8
0
100
AcDbCircle
10
-620.62602237117449
20
-676.8497839900383
30
0
40
0.7525029033422469
210
0
220
-0
230
1
100
AcDbArc
50
-3.9840822403021172
51
160.6317927396737
0
ARC
5
185
100
AcDbEntity
8
0
100
AcDbCircle
10
-622.97397647600633
20
-677.15014398593098
30
0
40
3.1085547804832454
210
0
220
-0
230
1
100
AcDbArc
50
-25.919453325862349
51
4.5773139974883659
0
LINE
5
186
100
AcDbEntity
8
0
100
AcDbLine
10
-619.84635912026283
20
-672.36841055772038
30
0
11
-619.85570683795663
21
-673.8308831635743
31
0
0
LINE
5
187
100
AcDbEntity
8
0
100
AcDbLine
10
-620.73879711258473
20
-674.70275620135169
30
0
11
-622.20126733430163
21
-674.69340849889647
31
0
0
LINE
5
188
100
AcDbEntity
8
0
100
AcDbLine
10
-622.18631099818242
20
-672.35345423683998
30
0
11
-621.60132243266821
21
-672.35719332086978
31
0
0
LINE
5
189
100
AcDbEntity
8
0
100
AcDbLine
10
-621.60132243266821
20
-672.35719332086978
30
0
11
-621.61627876878742
21
-674.69714758292639
31
0
0
ARC
5
190
100
AcDbEntity
8
0
100
AcDbCircle
10
-620.62852344311545
20
-673.93128378335632
30
0
40
0.77931083738803852
210
0
220
-0
230
1
100
AcDbArc
50
-98.13482485435091
51
7.4023895212248974
0
ARC
5
191
100
AcDbEntity
8
0
100
AcDbCircle
10
-622.19378916624203
20
-673.52343136786828
30
0
40
1.1700000613927839
210
0
220
-0
230
1
100
AcDbArc
50
89.633786317525264
51
269.63379132648163
0
LINE
5
192
100
AcDbEntity
8
0
100
AcDbLine
10
-619.83607665822922
20
-670.75969498272786
30
0
11
-623.34600566717711
21
-670.73726049378774
31
0
0
LINE
5
193
100
AcDbEntity
8
0
100
AcDbLine
10
-623.34600566717711
20
-670.73726049378763
30
0
11
-623.3291798119011
21
-668.10481552517956
31
0
0
LINE
5
194
100
AcDbEntity
8
0
100
AcDbLine
10
-622.44608953727311
20
-667.23294248740228
30
0
11
-619.81364218452791
21
-667.24976835791711
31
0
0
LINE
5
195
100
AcDbEntity
8
0
100
AcDbLine
10
-619.82485942137851
20
-669.00473167032249
30
0
11
-623.3347884303264
21
-668.98229718138236
31
0
0
ARC
5
196
100
AcDbEntity
8
0
100
AcDbCircle
10
-622.55636317626488
20
-668.00441013712327
30
0
40
0.77931083738803852
210
0
220
-0
230
1
100
AcDbArc
50
81.8651664942238
51
187.40240500284122
0
LINE
5
197
100
AcDbEntity
8
0
100
AcDbLine
10
-625.06731723855307
20
-665.46114855144663
30
0
11
-619.8024249171998
21
-665.49480027723746
31
0
0
LINE
5
198
100
AcDbEntity
8
0
100
AcDbLine
10
-619.80242491719969
20
-665.49480027723746
30
0
11
-619.79307719950589
21
-664.03232767138343
31
0
0
LINE
5
199
100
AcDbEntity
8
0
100
AcDbLine
10
-620.66495023728316
20
-663.14923739675555
30
0
11
-622.41991593382568
21
-663.13802014466603
31
0
0
LINE
5
200
100
AcDbEntity
8
0
100
AcDbLine
10
-623.30300620845367
20
-664.00989318244342
30
0
11
-623.31235392614758
21
-665.47236578829734
31
0
0
ARC
5
201
100
AcDbEntity
8
0
100
AcDbCircle
10
-620.56454724860282
20
-663.92205640129009
30
0
40
0.77931083738803852
210
0
220
-0
230
1
100
AcDbArc
50
-8.1348428404425572
51
97.402402498359763
0
ARC
5
202
100
AcDbEntity
8
0
100
AcDbCircle
10
-622.53018960329496
20
-663.9094925626614
30
0
40
0.77931083738803852
210
0
220
-0
230
1
100
AcDbArc
50
81.865166494224979
51
187.40240500284122
0
LINE
5
203
100
AcDbEntity
8
0
100
AcDbLine
10
-625.04207844040025
20
-661.51247871439739
30
0
11
-620.65466777524966
21
-661.54052182176292
31
0
0
ARC
5
204
100
AcDbEntity
8
0
100
AcDbCircle
10
-620.54439413625778
20
-660.76905417204171
30
0
40
0.77931083738803852
210
0
220
-0
230
1
100
AcDbArc
50
-98.134824854357987
51
7.4023895212248974
0
LINE
5
205
100
AcDbEntity
8
0
100
AcDbLine
10
-618.00913602015657
20
-659.50988888980783
30
0
11
-618.00539692088807
21
-658.9248979401566
31
0
0
LINE
5
206
100
AcDbEntity
8
0
100
AcDbLine
10
-618.00539692088807
20
-658.9248979401566
30
0
11
-623.25907200539064
21
-657.13628290196039
31
0
0
LINE
5
207
100
AcDbEntity
8
0
100
AcDbLine
10
-623.27402834150985
20
-659.47623716401711
30
0
11
-619.75662116450235
21
-658.32869452192881
31
0
0
LINE
5
208
100
AcDbEntity
8
0
100
AcDbLine
10
-621.17609195797331
20
-651.59198427640365
30
0
11
-621.77042827165883
21
-653.05072256650192
31
0
0
ARC
5
209
100
AcDbEntity
8
0
100
AcDbCircle
10
-622.4817089976475
20
-652.8077623458438
30
0
40
0.75162976980209339
210
0
220
-0
230
1
100
AcDbArc
50
175.50637380845015
51
341.1413230305331
0
ARC
5
210
100
AcDbEntity
8
0
100
AcDbCircle
10
-620.51380169742868
20
-652.67933703349274
30
0
40
2.7181166410446163
210
0
220
-0
230
1
100
AcDbArc
50
152.74390779555287
51
181.46604853856317
0
ARC
5
211
100
AcDbEntity
8
0
100
AcDbCircle
10
-620.46617666985856
20
-651.84154486757598
30
0
40
0.7525029033422469
210
0
220
-0
230
1
100
AcDbArc
50
-3.9840822403021172
51
160.6317927396737
0
ARC
5
212
100
AcDbEntity
8
0
100
AcDbCircle
10
-622.8141307746904
20
-652.14190486346865
30
0
40
3.1085547804832454
210
0
220
-0
230
1
100
AcDbArc
50
-25.919453325863213
51
4.5773139974883659
0
LINE
5
213
100
AcDbEntity
8
0
100
AcDbLine
10
-619.7005349497714
20
-649.55387319162764
30
0
11
-623.21046395871929
21
-649.53143870268764
31
0
0
LINE
5
214
100
AcDbEntity
8
0
100
AcDbLine
10
-624.67386898573079
20
-649.66834350591955
30
0
11
-624.96636207641939
21
-649.66647397152406
31
0
0
LINE
5
215
100
AcDbEntity
8
0
100
AcDbLine
10
-624.96636207641939
20
-649.66647397152406
30
0
11
-624.96449252678508
21
-649.37397849669833
31
0
0
LINE
5
216
100
AcDbEntity
8
0
100
AcDbLine
10
-624.96449252678508
20
-649.37397849669833
30
0
11
-624.6719994360966
21
-649.37584803109394
31
0
0
LINE
5
217
100
AcDbEntity
8
0
100
AcDbLine
10
-624.6719994360966
20
-649.37584803109394
30
0
11
-624.67386898573079
21
-649.66834350591955
31
0
0
LINE
5
218
100
AcDbEntity
8
0
100
AcDbLine
10
-624.94018850344946
20
-645.57155639706195
30
0
11
-619.67529618209619
21
-645.60520812285279
31
0
0
LINE
5
219
100
AcDbEntity
8
0
100
AcDbLine
10
-619.67529618209619
20
-645.60520812285267
30
0
11
-619.68464386931259
21
-647.06767596043233
31
0
0
LINE
5
220
100
AcDbEntity
8
0
100
AcDbLine
10
-620.56773417441809
20
-647.93955376648398
30
0
11
-622.32269987096061
21
-647.92833651439446
31
0
0
LINE
5
221
100
AcDbEntity
8
0
100
AcDbLine
10
-623.19457287826049
20
-647.04524147149232
30
0
11
-623.18522519104408
21
-645.58277363391255
31
0
0
ARC
5
222
100
AcDbEntity
8
0
100
AcDbCircle
10
-620.45746050494881
20
-647.16808134848873
30
0
40
0.77931083738803852
210
0
220
-0
230
1
100
AcDbArc
50
-98.134824854349702
51
7.4023895212248974
0
ARC
5
223
100
AcDbEntity
8
0
100
AcDbCircle
10
-622.42310285964106
20
-647.15551750986015
30
0
40
0.77931083738803852
210
0
220
-0
230
1
100
AcDbArc
50
171.86517264116046
51
277.40240750732374
0
LINE
5
224
100
AcDbEntity
8
0
100
AcDbLine
10
-619.65005741442087
20
-641.6565430540777
30
0
11
-619.65940510163728
21
-643.11901089165747
31
0
0
LINE
5
225
100
AcDbEntity
8
0
100
AcDbLine
10
-620.54249540674277
20
-643.9908886977089
30
0
11
-622.00496562845967
21
-643.98154099525368
31
0
0
LINE
5
226
100
AcDbEntity
8
0
100
AcDbLine
10
-621.99000929234035
20
-641.64158673319719
30
0
11
-621.40502072682625
21
-641.64532581722699
31
0
0
LINE
5
227
100
AcDbEntity
8
0
100
AcDbLine
10
-621.40502072682625
20
-641.64532581722699
30
0
11
-621.41997706294546
21
-643.9852800792836
31
0
0
ARC
5
228
100
AcDbEntity
8
0
100
AcDbCircle
10
-620.43222173727349
20
-643.21941627971364
30
0
40
0.77931083738803852
210
0
220
-0
230
1
100
AcDbArc
50
-98.134824854349702
51
7.4023895212248974
0
ARC
5
229
100
AcDbEntity
8
0
100
AcDbCircle
10
-621.99748742992256
20
-642.81155909595122
30
0
40
1.1700000613927839
210
0
220
-0
230
1
100
AcDbArc
50
89.633786317525235
51
269.63379132648168
0
LINE
5
230
100
AcDbEntity
8
0
100
AcDbLine
10
-624.88971090714381
20
-637.67421672296348
30
0
11
-619.62481858579065
21
-637.7078684487542
31
0
0
LINE
5
231
100
AcDbEntity
8
0
100
AcDbLine
10
-619.62481858579065
20
-637.7078684487542
30
0
11
-619.61547089857413
21
-636.24540061117455
31
0
0
LINE
5
232
100
AcDbEntity
8
0
100
AcDbLine
10
-620.48734396682903
20
-635.3623151048206
30
0
11
-622.24230966337154
21
-635.35109785273119
31
0
0
LINE
5
233
100
AcDbEntity
8
0
100
AcDbLine
10
-623.12539990752202
20
-636.22296612223431
30
0
11
-623.13474759473843
21
-637.68543395981408
31
0
0
ARC
5
234
100
AcDbEntity
8
0
100
AcDbCircle
10
-620.38694091719367
20
-636.13512457280672
30
0
40
0.77931083738803852
210
0
220
-0
230
1
100
AcDbArc
50
-8.1348428404508013
51
97.402402498359763
0
ARC
5
235
100
AcDbEntity
8
0
100
AcDbCircle
10
-622.35258327188592
20
-636.12256073417814
30
0
40
0.77931083738803852
210
0
220
-0
230
1
100
AcDbArc
50
81.865166494226173
51
187.40240500284122
0
LINE
5
236
100
AcDbEntity
8
0
100
AcDbLine
10
-619.59957981811522
20
-633.75920337997923
30
0
11
-623.10950882706311
21
-633.73676889103899
31
0
0
LINE
5
237
100
AcDbEntity
8
0
100
AcDbLine
10
-623.10950882706311
20
-633.73676889103899
30
0
11
-623.09829159021251
21
-631.98180557863361
31
0
0
LINE
5
238
100
AcDbEntity
8
0
100
AcDbLine
10
-623.09829159021251
20
-631.98180557863361
30
0
11
-622.5133030246983
21
-631.98554466266341
31
0
0
LINE
5
239
100
AcDbEntity
8
0
100
AcDbLine
10
-621.6133868947943
20
-628.48122665627807
30
0
11
-621.62179983767101
21
-629.79745152471924
31
0
0
LINE
5
240
100
AcDbEntity
8
0
100
AcDbLine
10
-619.57434105044001
20
-629.81053831120414
30
0
11
-619.56592810756331
21
-628.49431344276297
31
0
0
LINE
5
241
100
AcDbEntity
8
0
100
AcDbLine
10
-619.56592810756331
20
-628.49431344276297
30
0
11
-622.1983754603084
21
-628.47748757224826
31
0
0
LINE
5
242
100
AcDbEntity
8
0
100
AcDbLine
10
-623.08146576541401
20
-629.34936537829981
30
0
11
-623.08894390299611
21
-630.51933774105396
31
0
0
ARC
5
243
100
AcDbEntity
8
0
100
AcDbCircle
10
-620.59807044405557
20
-629.80399491796163
30
0
40
1.0237500816583631
210
0
220
-0
230
1
100
AcDbArc
50
179.63378882200058
51
359.63378700077169
0
ARC
5
244
100
AcDbEntity
8
0
100
AcDbCircle
10
-622.30864912977768
20
-629.24895999024352
30
0
40
0.77931083738803852
210
0
220
-0
230
1
100
AcDbArc
50
81.865166494224979
51
187.40240500284844
0
LINE
5
245
100
AcDbEntity
8
0
100
AcDbLine
10
-619.54255888952218
20
-624.83814384881362
30
0
11
-619.55003702710439
21
-626.00811621156777
31
0
0
LINE
5
246
100
AcDbEntity
8
0
100
AcDbLine
10
-620.43312733220989
20
-626.87999401761931
30
0
11
-622.18809302875241
21
-626.8687767655299
31
0
0
LINE
5
247
100
AcDbEntity
8
0
100
AcDbLine
10
-623.05996603605217
20
-625.98568172262753
30
0
11
-623.05248789847008
21
-624.81570935987338
31
0
0
ARC
5
248
100
AcDbEntity
8
0
100
AcDbCircle
10
-620.3228536627405
20
-626.10852159962394
30
0
40
0.77931083738803852
210
0
220
-0
230
1
100
AcDbArc
50
-98.134824854357987
51
7.4023895212248974
0
ARC
5
249
100
AcDbEntity
8
0
100
AcDbCircle
10
-622.28849601743275
20
-626.09595776099525
30
0
40
0.77931083738803852
210
0
220
-0
230
1
100
AcDbArc
50
171.86517264116992
51
277.40240750731442
0
LINE
5
250
100
AcDbEntity
8
0
100
AcDbLine
10
-619.53321114135088
20
-623.37566647468543
30
0
11
-624.79810346270415
21
-623.34201474889471
31
0
0
LINE
5
251
100
AcDbEntity
8
0
100
AcDbLine
10
-623.02818387513446
20
-621.01328726023712
30
0
11
-621.28817445375626
21
-623.36444923783483
31
0
0
LINE
5
252
100
AcDbEntity
8
0
100
AcDbLine
10
-619.51825486618657
20
-621.03572174917713
30
0
11
-622.01286736344071
21
-622.33604598537227
31
0
0
LINE
5
253
100
AcDbEntity
8
0
100
AcDbLine
10
-619.49488558719065
20
-617.37954261867935
30
0
11
-619.50423327440706
21
-618.84201045625912
31
0
0
LINE
5
254
100
AcDbEntity
8
0
100
AcDbLine
10
-620.38732357951255
20
-619.71388826231066
30
0
11
-621.84979380122945
21
-619.70454055985556
31
0
0
LINE
5
255
100
AcDbEntity
8
0
100
AcDbLine
10
-621.83483746511013
20
-617.36458629779895
30
0
11
-621.24984889959603
21
-617.36832538182864
31
0
0
LINE
5
256
100
AcDbEntity
8
0
100
AcDbLine
10
-621.24984889959603
20
-617.36832538182875
30
0
11
-621.26480523571524
21
-619.70827964388536
31
0
0
ARC
5
257
100
AcDbEntity
8
0
100
AcDbCircle
10
-620.27704991004316
20
-618.94241584431541
30
0
40
0.77931083738803852
210
0
220
-0
230
1
100
AcDbArc
50
-98.134824854357987
51
7.402389521233192
0
ARC
5
258
100
AcDbEntity
8
0
100
AcDbCircle
10
-621.84231560269222
20
-618.5345586605531
30
0
40
1.1700000613927839
210
0
220
-0
230
1
100
AcDbArc
50
89.633786317525264
51
269.63379132648163
0
LINE
5
259
100
AcDbEntity
8
0
100
AcDbLine
10
-622.99733645855633
20
-616.18713576698508
30
0
11
-622.98611922170562
21
-614.4321724545797
31
0
0
LINE
5
260
100
AcDbEntity
8
0
100
AcDbLine
10
-624.74856067169321
20
-615.59092758048325
30
0
11
-620.36115000654263
21
-615.61897068784867
31
0
0
LINE
5
261
100
AcDbEntity
8
0
100
AcDbLine
10
-619.47805970143702
20
-614.74709288179713
30
0
11
-619.47619021275773
21
-614.45460694351982
31
0
0
ARC
5
262
100
AcDbEntity
8
0
100
AcDbCircle
10
-620.25087633707335
20
-614.8474982698533
30
0
40
0.77931083738803852
210
0
220
-0
230
1
100
AcDbArc
50
-98.134824854349702
51
7.4023895212248974
0
LINE
5
263
100
AcDbEntity
8
0
100
AcDbLine
10
-619.46590772024672
20
-612.84588660025304
30
0
11
-619.46777726988091
21
-613.13838207507865
31
0
0
LINE
5
264
100
AcDbEntity
8
0
100
AcDbLine
10
-619.46777726988103
20
-613.13838207507865
30
0
11
-619.76027036056951
21
-613.13651254068316
31
0
0
LINE
5
265
100
AcDbEntity
8
0
100
AcDbLine
10
-619.76027036056951
20
-613.13651254068316
30
0
11
-619.75840081093531
21
-612.84401706585754
31
0
0
LINE
5
266
100
AcDbEntity
8
0
100
AcDbLine
10
-619.75840081093531
20
-612.84401706585754
30
0
11
-619.46590772024683
21
-612.84588660025304
31
0
0
LINE
5
267
100
AcDbEntity
8
0
100
AcDbLine
10
-619.46590772024672
20
-612.84588660025304
30
0
11
-618.29873488319231
21
-613.29210321227697
31
0
0
LINE
5
268
100
AcDbEntity
8
0
100
AcDbLine
10
-623.5365212713732
20
-609.01729092764674
30
0
11
-624.69714833104797
21
-607.54734493724618
31
0
0
LINE
5
269
100
AcDbEntity
8
0
100
AcDbLine
10
-624.69714833104797
20
-607.54734493724618
30
0
11
-619.4322560096947
21
-607.5809966630369
31
0
0
LINE
5
270
100
AcDbEntity
8
0
100
AcDbLine
10
-619.4416036969111
20
-609.04346450061666
30
0
11
-619.42290826152328
21
-606.11851928890883
31
0
0
LINE
5
271
100
AcDbEntity
8
0
100
AcDbLine
10
-619.39953898252736
20
-602.46234015841094
30
0
11
-622.89451171631094
21
-600.09996094396251
31
0
0
LINE
5
272
100
AcDbEntity
8
0
100
AcDbLine
10
-622.90946799147514
20
-602.43990566947093
30
0
11
-619.38458270736305
21
-600.12239543290275
31
0
0
LINE
5
273
100
AcDbEntity
8
0
100
AcDbLine
10
-622.28615387180082
20
-596.44752089749454
30
0
11
-622.27493663495011
21
-594.69255758508916
31
0
0
LINE
5
274
100
AcDbEntity
8
0
100
AcDbLine
10
-621.09748130538469
20
-593.53005385384631
30
0
11
-620.8049882146961
21
-593.53192338824192
31
0
0
LINE
5
275
100
AcDbEntity
8
0
100
AcDbLine
10
-620.82368365008392
20
-596.45686859994976
30
0
11
-622.28615387180082
21
-596.44752089749466
31
0
0
ARC
5
276
100
AcDbEntity
8
0
100
AcDbCircle
10
-621.24451604352657
20
-594.55868372418843
30
0
40
1.0390811413526533
210
0
220
-0
230
1
100
AcDbArc
50
81.865166494228419
51
187.40240500284381
0
ARC
5
277
100
AcDbEntity
8
0
100
AcDbCircle
10
-620.81433596286752
20
-594.99440076236999
30
0
40
1.4625000953674314
210
0
220
-0
230
1
100
AcDbArc
50
-90.366208673514151
51
89.633786317523942
0
ARC
5
278
100
AcDbEntity
8
0
100
AcDbCircle
10
-622.55389920946538
20
-594.38667972988628
30
0
40
2.0781622827053066
210
0
220
-0
230
1
100
AcDbArc
50
171.86517264116731
51
277.40240750732147
0
LINE
5
279
100
AcDbEntity
8
0
100
AcDbLine
10
-619.31727916434897
20
-589.59259648537363
30
0
11
-622.82720817329687
21
-589.57016199643351
31
0
0
LINE
5
280
100
AcDbEntity
8
0
100
AcDbLine
10
-622.82720817329687
20
-589.57016199643351
30
0
11
-622.81038234849836
21
-586.93772179609959
31
0
0
LINE
5
281
100
AcDbEntity
8
0
100
AcDbLine
10
-621.92729204339275
20
-586.06584399004805
30
0
11
-619.29484469064755
21
-586.08266986056287
31
0
0
LINE
5
282
100
AcDbEntity
8
0
100
AcDbLine
10
-619.30606192749838
20
-587.83763317296825
30
0
11
-622.81599093644627
21
-587.81519868402813
31
0
0
ARC
5
283
100
AcDbEntity
8
0
100
AcDbCircle
10
-622.03756571286215
20
-586.83731640804342
30
0
40
0.77931083738803852
210
0
220
-0
230
1
100
AcDbArc
50
81.865166494226173
51
187.40240500284122
0
LINE
5
284
100
AcDbEntity
8
0
100
AcDbLine
10
-619.28362745379695
20
-584.32770654815738
30
0
11
-622.79355646274485
21
-584.30527205921726
31
0
0
LINE
5
285
100
AcDbEntity
8
0
100
AcDbLine
10
-622.79355646274485
20
-584.30527205921737
30
0
11
-622.77673063794634
21
-581.67283185888346
31
0
0
LINE
5
286
100
AcDbEntity
8
0
100
AcDbLine
10
-621.89364033284073
20
-580.80095405283191
30
0
11
-619.26119298009564
21
-580.81777992334662
31
0
0
LINE
5
287
100
AcDbEntity
8
0
100
AcDbLine
10
-619.27241021694624
20
-582.572743235752
30
0
11
-622.78233922589413
21
-582.55030874681188
31
0
0
ARC
5
288
100
AcDbEntity
8
0
100
AcDbCircle
10
-622.00391400231013
20
-581.57242647082717
30
0
40
0.77931083738803852
210
0
220
-0
230
1
100
AcDbArc
50
81.865166494226173
51
187.40240500284122
0
LINE
5
289
100
AcDbEntity
8
0
100
AcDbLine
10
-617.48005609472034
20
-576.73407958573534
30
0
11
-622.74494841607361
21
-576.70042785994451
31
0
0
LINE
5
290
100
AcDbEntity
8
0
100
AcDbLine
10
-622.74494841607361
20
-576.70042785994451
30
0
11
-622.73560078981211
21
-575.23796955891316
31
0
0
LINE
5
291
100
AcDbEntity
8
0
100
AcDbLine
10
-621.8525104237516
20
-574.3660822163132
30
0
11
-620.0975447272092
21
-574.37729946840261
31
0
0
LINE
5
292
100
AcDbEntity
8
0
100
AcDbLine
10
-619.22567178086422
20
-575.26040404785317
30
0
11
-619.23501940712572
21
-576.72286234888463
31
0
0
ARC
5
293
100
AcDbEntity
8
0
100
AcDbCircle
10
-621.96278415417589
20
-575.13756417085688
30
0
40
0.77931083738803852
210
0
220
-0
230
1
100
AcDbArc
50
81.865166494226173
51
187.40240500284122
0
ARC
5
294
100
AcDbEntity
8
0
100
AcDbCircle
10
-619.99714179948364
20
-575.15012800948557
30
0
40
0.77931083738803852
210
0
220
-0
230
1
100
AcDbArc
50
-8.1348428404437776
51
97.402402498366968
0
LINE
5
295
100
AcDbEntity
8
0
100
AcDbLine
10
-624.47467302175858
20
-572.74055509086713
30
0
11
-620.08726235660799
21
-572.76859819823255
31
0
0
ARC
5
296
100
AcDbEntity
8
0
100
AcDbCircle
10
-619.97698862618381
20
-571.99711624368888
30
0
40
0.77931083738803852
210
0
220
-0
230
1
100
AcDbArc
50
-98.13482485435091
51
7.402389521233192
0
LINE
5
297
100
AcDbEntity
8
0
100
AcDbLine
10
-617.44173060151502
20
-570.73796526627757
30
0
11
-617.4379915022464
21
-570.15297431662634
31
0
0
LINE
5
298
100
AcDbEntity
8
0
100
AcDbLine
10
-617.4379915022464
20
-570.15297431662634
30
0
11
-622.69166664770398
21
-568.36436881497843
31
0
0
LINE
5
299
100
AcDbEntity
8
0
100
AcDbLine
10
-622.70662292286818
20
-570.70431354048674
30
0
11
-619.18921571538328
21
-569.5567661301244
31
0
0
ENDSEC
0
SECTION
2
OBJECTS
0
DICTIONARY
5
C
100
AcDbDictionary
3
ACAD_GROUP
350
D
3
ACAD_MLINESTYLE
350
17
0
DICTIONARY
5
D
100
AcDbDictionary
0
DICTIONARY
5
1A
330
C
100
AcDbDictionary
0
DICTIONARY
5
17
100
AcDbDictionary
0
ENDSEC
0
EOF
