0
SECTION
2
HEADER
9
$INSUNITS
70
4
9
$ACADVER
1
AC1014
9
$HANDSEED
5
FFFF
0
ENDSEC
0
SECTION
2
TABLES
0
TABLE
2
VPORT
5
8
100
AcDbSymbolTable
0
ENDTAB
0
TABLE
2
LTYPE
5
5
100
AcDbSymbolTable
0
LTYPE
5
14
100
AcDbSymbolTableRecord
100
AcDbLinetypeTableRecord
2
BYBLOCK
70
0
0
LTYPE
5
15
100
AcDbSymbolTableRecord
100
AcDbLinetypeTableRecord
2
BYLAYER
70
0
0
LTYPE
5
16
100
AcDbSymbolTableRecord
100
AcDbLinetypeTableRecord
2
DASHED
70
0
3
Dashed __ __ __ __ __ __ __ __ __ __ __ __ __ _
72
65
73
2
40
0.75
49
0.5
74
0
49
-0.25
74
0
0
ENDTAB
0
TABLE
2
LAYER
5
2
100
AcDbSymbolTable
70
3
0
LAYER
5
50
100
AcDbSymbolTableRecord
100
AcDbLayerTableRecord
2
1
70
0
62
7
6
DASHED
0
LAYER
5
51
100
AcDbSymbolTableRecord
100
AcDbLayerTableRecord
2
0
70
0
62
7
6
CONTINUOUS
0
ENDTAB
0
TABLE
2
STYLE
5
3
100
AcDbSymbolTable
70
1
0
STYLE
5
11
100
AcDbSymbolTableRecord
100
AcDbTextStyleTableRecord
2
STANDARD
70
0
0
ENDTAB
0
TABLE
2
VIEW
5
6
100
AcDbSymbolTable
70
0
0
ENDTAB
0
TABLE
2
UCS
5
7
100
AcDbSymbolTable
70
0
0
ENDTAB
0
TABLE
2
APPID
5
9
100
AcDbSymbolTable
70
2
0
APPID
5
12
100
AcDbSymbolTableRecord
100
AcDbRegAppTableRecord
2
ACAD
70
0
0
ENDTAB
0
TABLE
2
DIMSTYLE
5
A
100
AcDbSymbolTable
70
1
0
ENDTAB
0
TABLE
2
BLOCK_RECORD
5
1
100
AcDbSymbolTable
70
1
0
BLOCK_RECORD
5
1F
100
AcDbSymbolTableRecord
100
AcDbBlockTableRecord
2
*MODEL_SPACE
0
BLOCK_RECORD
5
1B
100
AcDbSymbolTableRecord
100
AcDbBlockTableRecord
2
*PAPER_SPACE
0
ENDTAB
0
ENDSEC
0
SECTION
2
BLOCKS
0
BLOCK
5
20
100
AcDbEntity
100
AcDbBlockBegin
2
*MODEL_SPACE
0
ENDBLK
5
21
100
AcDbEntity
100
AcDbBlockEnd
0
BLOCK
5
1C
100
AcDbEntity
100
AcDbBlockBegin
2
*PAPER_SPACE
0
ENDBLK
5
1D
100
AcDbEntity
100
AcDbBlockEnd
0
ENDSEC
0
SECTION
2
ENTITIES
0
POINT
5
100
100
AcDbEntity
8
0
100
AcDbPoint
10
-1701.8398166531283
20
491.02137830055437
30
0
0
LWPOLYLINE
5
101
100
AcDbEntity
8
0
100
AcDbPolyline
90
8
70
1
43
0.0
10
-1715.5956235077706
20
471.35471163388775
42
1.9197867892190996
10
-1715.5956235077706
20
510.68804496722112
42
-0.15378421089547592
10
-1743.1072372170552
20
502.02137830055437
10
-2116.8398166531288
20
502.02137830055449
42
0.41421356237308254
10
-2126.8398166531283
20
492.02137830055449
10
-2126.8398166531288
20
490.0213783005546
42
0.41421356237311169
10
-2116.8398166531288
20
480.0213783005546
10
-1743.1072372170549
20
480.02137830055432
42
-0.15378421089547409
0
CIRCLE
5
102
100
AcDbEntity
8
0
100
AcDbCircle
10
-2115.8398166531288
20
491.02137830055472
30
0
40
1.5000000000000568
210
4.3679728998879297e-58
220
-1.3679230082557553e-91
230
1
0
CIRCLE
5
103
100
AcDbEntity
8
0
100
AcDbCircle
10
-1701.8398166531283
20
491.02137830055437
30
0
40
3.2499999999998863
210
4.3679728998879304e-58
220
-1.3679230082557493e-91
230
1
0
LINE
5
104
100
AcDbEntity
8
1
100
AcDbLine
10
-1902.2394718038313
20
482.02137830055477
30
0
11
-1744.1072372170549
21
482.02137830055477
31
0
0
LINE
5
105
100
AcDbEntity
8
1
100
AcDbLine
10
-1744.1072372170549
20
482.02137830055477
30
0
11
-1744.1072372170549
21
497.8146789357769
31
0
0
LINE
5
106
100
AcDbEntity
8
1
100
AcDbLine
10
-1744.1072372170549
20
497.8146789357769
30
0
11
-1902.2394718038313
21
497.8146789357769
31
0
0
LINE
5
107
100
AcDbEntity
8
1
100
AcDbLine
10
-1902.2394718038313
20
497.8146789357769
30
0
11
-1902.2394718038313
21
482.02137830055477
31
0
0
LINE
5
108
100
AcDbEntity
8
0
100
AcDbLine
10
-2116.8398166531288
20
480.0213783005546
30
0
11
-1794.6879520644427
21
480.02137830055472
31
-5.1007281617654145e-39
0
LINE
5
109
100
AcDbEntity
8
0
100
AcDbLine
10
-1872.5147451268904
20
482.02137806869621
30
0
11
-1872.5147451268904
21
487.2863779351818
31
0
0
LINE
5
110
100
AcDbEntity
8
0
100
AcDbLine
10
-1872.5147451268904
20
487.2863779351818
30
0
11
-1871.0522450315229
21
487.2863779351818
31
0
0
LINE
5
111
100
AcDbEntity
8
0
100
AcDbLine
10
-1869.5897449361555
20
485.82387783981437
30
0
11
-1869.5897449361555
21
483.48387816406364
31
0
0
LINE
5
112
100
AcDbEntity
8
0
100
AcDbLine
10
-1871.0522450315229
20
482.02137806869621
30
0
11
-1872.5147451268904
21
482.02137806869621
31
0
0
ARC
5
113
100
AcDbEntity
8
0
100
AcDbCircle
10
-1870.8766759740583
20
485.99944808937187
30
0
40
1.2988513708114624
210
0
220
0
230
1
100
AcDbArc
50
-7.7686198233049861
51
97.768618685315971
0
ARC
5
114
100
AcDbEntity
8
0
100
AcDbCircle
10
-1870.8766759740583
20
483.30830910659904
30
0
40
1.2988513708114624
210
0
220
0
230
1
100
AcDbArc
50
-97.768629157968036
51
7.76861618083929
0
LINE
5
115
100
AcDbEntity
8
0
100
AcDbLine
10
-1867.9809965001814
20
484.94637825943107
30
0
11
-1866.225994955229
21
484.94637825943107
31
0
0
LINE
5
116
100
AcDbEntity
8
0
100
AcDbLine
10
-1865.0559963094465
20
483.77637842155571
30
0
11
-1865.0559963094465
21
483.48387816406364
31
0
0
LINE
5
117
100
AcDbEntity
8
0
100
AcDbLine
10
-1867.9809965001814
20
483.48387816406364
30
0
11
-1867.9809965001814
21
484.94637825943107
31
0
0
ARC
5
118
100
AcDbEntity
8
0
100
AcDbCircle
10
-1866.0855401860945
20
483.91683438278312
30
0
40
1.0390811413526535
210
0
220
0
230
1
100
AcDbArc
50
-7.7686198233048334
51
97.768618685314578
0
ARC
5
119
100
AcDbEntity
8
0
100
AcDbCircle
10
-1866.5184940206282
20
483.48387816406364
30
0
40
1.4625000953674316
210
0
220
0
230
1
100
AcDbArc
50
-179.99999502168694
51
0
0
ARC
5
120
100
AcDbEntity
8
0
100
AcDbCircle
10
-1865.9219063626997
20
485.22728898979301
30
0
40
2.078162282705307
210
0
220
0
230
1
100
AcDbArc
50
82.231386323641487
51
187.76862118979457
0
LINE
5
121
100
AcDbEntity
8
0
100
AcDbLine
10
-1863.3009923803083
20
482.02137806869621
30
0
11
-1863.5934938298933
21
482.02137806869621
31
0
0
LINE
5
122
100
AcDbEntity
8
0
100
AcDbLine
10
-1863.5934938298933
20
482.02137806869621
30
0
11
-1863.5934938298933
21
482.31387832618827
31
0
0
LINE
5
123
100
AcDbEntity
8
0
100
AcDbLine
10
-1863.5934938298933
20
482.31387832618827
30
0
11
-1863.3009923803083
21
482.31387832618827
31
0
0
LINE
5
124
100
AcDbEntity
8
0
100
AcDbLine
10
-1863.3009923803083
20
482.31387832618827
30
0
11
-1863.3009923803083
21
482.02137806869621
31
0
0
LINE
5
125
100
AcDbEntity
8
0
100
AcDbLine
10
-1863.3009923803083
20
482.02137806869621
30
0
11
-1863.7397421705
21
480.85137823082084
31
0
0
LINE
5
126
100
AcDbEntity
8
0
100
AcDbLine
10
-1859.4984973775618
20
483.19137790657157
30
0
11
-1859.4984973775618
21
484.36137774444694
31
0
0
LINE
5
127
100
AcDbEntity
8
0
100
AcDbLine
10
-1857.1584953176252
20
484.36137774444694
30
0
11
-1857.1584953176252
21
483.19137790657157
31
0
0
ARC
5
128
100
AcDbEntity
8
0
100
AcDbCircle
10
-1858.3284963475935
20
484.36137774444694
30
0
40
1.1700000613927841
210
0
220
0
230
1
100
AcDbArc
50
0
51
180.00000497831306
0
ARC
5
129
100
AcDbEntity
8
0
100
AcDbCircle
10
-1858.3284963475935
20
483.19137790657157
30
0
40
1.1700000613927841
210
0
220
0
230
1
100
AcDbArc
50
-179.99999502168694
51
0
0
LINE
5
130
100
AcDbEntity
8
0
100
AcDbLine
10
-1855.4034961568586
20
482.02137806869621
30
0
11
-1855.4034961568586
21
486.4088783547985
31
0
0
LINE
5
131
100
AcDbEntity
8
0
100
AcDbLine
10
-1854.5259965764753
20
487.2863779351818
30
0
11
-1854.2334951268904
21
487.2863779351818
31
0
0
LINE
5
132
100
AcDbEntity
8
0
100
AcDbLine
10
-1855.988494287657
20
485.5313787744152
30
0
11
-1854.2334951268904
21
485.5313787744152
31
0
0
ARC
5
133
100
AcDbEntity
8
0
100
AcDbCircle
10
-1854.6313394414656
20
486.51422002769584
30
0
40
0.77931083738803864
210
0
220
0
230
1
100
AcDbArc
50
82.231386323640308
51
187.76862118979204
0
LINE
5
134
100
AcDbEntity
8
0
100
AcDbLine
10
-1852.9172433721296
20
482.02137806869621
30
0
11
-1852.9172433721296
21
486.4088783547985
31
0
0
LINE
5
135
100
AcDbEntity
8
0
100
AcDbLine
10
-1852.0397437917463
20
487.2863779351818
30
0
11
-1851.7472423421614
21
487.2863779351818
31
0
0
LINE
5
136
100
AcDbEntity
8
0
100
AcDbLine
10
-1853.502241502928
20
485.5313787744152
30
0
11
-1851.7472423421614
21
485.5313787744152
31
0
0
ARC
5
137
100
AcDbEntity
8
0
100
AcDbCircle
10
-1852.1450866567366
20
486.51422002769584
30
0
40
0.77931083738803864
210
0
220
0
230
1
100
AcDbArc
50
82.231386323640308
51
187.76862118979204
0
LINE
5
138
100
AcDbEntity
8
0
100
AcDbLine
10
-1850.5772413121931
20
482.02137806869621
30
0
11
-1850.5772413121931
21
485.5313787744152
31
0
0
LINE
5
139
100
AcDbEntity
8
0
100
AcDbLine
10
-1850.7234920369856
20
486.99387886978263
30
0
11
-1850.7234920369856
21
487.2863779351818
31
0
0
LINE
5
140
100
AcDbEntity
8
0
100
AcDbLine
10
-1850.7234920369856
20
487.2863779351818
30
0
11
-1850.4309905874006
21
487.2863779351818
31
0
0
LINE
5
141
100
AcDbEntity
8
0
100
AcDbLine
10
-1850.4309905874006
20
487.2863779351818
30
0
11
-1850.4309905874006
21
486.99387886978263
31
0
0
LINE
5
142
100
AcDbEntity
8
0
100
AcDbLine
10
-1850.4309905874006
20
486.99387886978263
30
0
11
-1850.7234920369856
21
486.99387886978263
31
0
0
LINE
5
143
100
AcDbEntity
8
0
100
AcDbLine
10
-1846.9209922658674
20
482.02137806869621
30
0
11
-1848.0909932958357
21
482.02137806869621
31
0
0
LINE
5
144
100
AcDbEntity
8
0
100
AcDbLine
10
-1848.968492876219
20
482.89887764907951
30
0
11
-1848.968492876219
21
484.65387800193901
31
0
0
LINE
5
145
100
AcDbEntity
8
0
100
AcDbLine
10
-1848.0909932958357
20
485.5313787744152
30
0
11
-1846.9209922658674
21
485.5313787744152
31
0
0
ARC
5
146
100
AcDbEntity
8
0
100
AcDbCircle
10
-1848.1963313924543
20
482.79353597618217
30
0
40
0.77931083738803864
210
0
220
0
230
1
100
AcDbArc
50
172.2313888281198
51
277.76860320369877
0
ARC
5
147
100
AcDbEntity
8
0
100
AcDbCircle
10
-1848.1963313924543
20
484.75921967483634
30
0
40
0.77931083738803864
210
0
220
0
230
1
100
AcDbArc
50
82.231386323640308
51
187.76862118979204
0
LINE
5
148
100
AcDbEntity
8
0
100
AcDbLine
10
-1845.4584945546858
20
482.02137806869621
30
0
11
-1845.4584945546858
21
485.5313787744152
31
0
0
LINE
5
149
100
AcDbEntity
8
0
100
AcDbLine
10
-1845.6047452794783
20
486.99387886978263
30
0
11
-1845.6047452794783
21
487.2863779351818
31
0
0
LINE
5
150
100
AcDbEntity
8
0
100
AcDbLine
10
-1845.6047452794783
20
487.2863779351818
30
0
11
-1845.3122438298933
21
487.2863779351818
31
0
0
LINE
5
151
100
AcDbEntity
8
0
100
AcDbLine
10
-1845.3122438298933
20
487.2863779351818
30
0
11
-1845.3122438298933
21
486.99387886978263
31
0
0
LINE
5
152
100
AcDbEntity
8
0
100
AcDbLine
10
-1845.3122438298933
20
486.99387886978263
30
0
11
-1845.6047452794783
21
486.99387886978263
31
0
0
LINE
5
153
100
AcDbEntity
8
0
100
AcDbLine
10
-1841.5097440587751
20
484.06887867904777
30
0
11
-1842.8259958135359
21
484.06887867904777
31
0
0
LINE
5
154
100
AcDbEntity
8
0
100
AcDbLine
10
-1842.8259958135359
20
482.02137806869621
30
0
11
-1841.5097440587751
21
482.02137806869621
31
0
0
LINE
5
155
100
AcDbEntity
8
0
100
AcDbLine
10
-1841.5097440587751
20
482.02137806869621
30
0
11
-1841.5097440587751
21
484.65387800193901
31
0
0
LINE
5
156
100
AcDbEntity
8
0
100
AcDbLine
10
-1842.3872436391584
20
485.5313787744152
30
0
11
-1843.5572446691267
21
485.5313787744152
31
0
0
ARC
5
157
100
AcDbEntity
8
0
100
AcDbCircle
10
-1842.8259958135359
20
483.04512837387199
30
0
40
1.0237500816583633
210
0
220
0
230
1
100
AcDbArc
50
90.000002504471112
51
270.00000068323544
0
ARC
5
158
100
AcDbEntity
8
0
100
AcDbCircle
10
-1842.2819007741682
20
484.75921967483634
30
0
40
0.77931083738803864
210
0
220
0
230
1
100
AcDbArc
50
-7.768619823302747
51
97.76861868532086
0
LINE
5
159
100
AcDbEntity
8
0
100
AcDbLine
10
-1839.7547448980085
20
487.2863779351818
30
0
11
-1839.7547448980085
21
482.89887764907951
31
0
0
ARC
5
160
100
AcDbEntity
8
0
100
AcDbCircle
10
-1838.9825881826155
20
482.79353597618217
30
0
40
0.77931083738803864
210
0
220
0
230
1
100
AcDbArc
50
172.2313888281198
51
277.76860320369877
0
LINE
5
161
100
AcDbEntity
8
0
100
AcDbLine
10
-1835.0747455465071
20
487.2863779351818
30
0
11
-1835.0747455465071
21
482.02137806869621
31
0
0
LINE
5
162
100
AcDbEntity
8
0
100
AcDbLine
10
-1835.0747455465071
20
482.02137806869621
30
0
11
-1833.6122430669539
21
482.02137806869621
31
0
0
LINE
5
163
100
AcDbEntity
8
0
100
AcDbLine
10
-1832.7347434865706
20
482.89887764907951
30
0
11
-1832.7347434865706
21
484.65387800193901
31
0
0
LINE
5
164
100
AcDbEntity
8
0
100
AcDbLine
10
-1833.6122430669539
20
485.5313787744152
30
0
11
-1835.0747455465071
21
485.5313787744152
31
0
0
ARC
5
165
100
AcDbEntity
8
0
100
AcDbCircle
10
-1833.5069049703352
20
482.79353597618217
30
0
40
0.77931083738803864
210
0
220
0
230
1
100
AcDbArc
50
-97.768629157965819
51
7.7686161808414083
0
ARC
5
166
100
AcDbEntity
8
0
100
AcDbCircle
10
-1833.5069049703352
20
484.75921967483634
30
0
40
0.77931083738803864
210
0
220
0
230
1
100
AcDbArc
50
-7.768619823302747
51
97.76861868532086
0
LINE
5
167
100
AcDbEntity
8
0
100
AcDbLine
10
-1831.1259950505964
20
482.02137806869621
30
0
11
-1831.1259950505964
21
485.5313787744152
31
0
0
LINE
5
168
100
AcDbEntity
8
0
100
AcDbLine
10
-1831.1259950505964
20
485.5313787744152
30
0
11
-1829.3709958898298
21
485.5313787744152
31
0
0
LINE
5
169
100
AcDbEntity
8
0
100
AcDbLine
10
-1829.3709958898298
20
485.5313787744152
30
0
11
-1829.3709958898298
21
484.94637825943107
31
0
0
LINE
5
170
100
AcDbEntity
8
0
100
AcDbLine
10
-1825.860992799925
20
482.02137806869621
30
0
11
-1827.3234952794783
21
482.02137806869621
31
0
0
LINE
5
171
100
AcDbEntity
8
0
100
AcDbLine
10
-1828.2009948598616
20
482.89887764907951
30
0
11
-1828.2009948598616
21
484.36137774444694
31
0
0
LINE
5
172
100
AcDbEntity
8
0
100
AcDbLine
10
-1825.860992799925
20
484.36137774444694
30
0
11
-1825.860992799925
21
483.77637842155571
31
0
0
LINE
5
173
100
AcDbEntity
8
0
100
AcDbLine
10
-1825.860992799925
20
483.77637842155571
30
0
11
-1828.2009948598616
21
483.77637842155571
31
0
0
ARC
5
174
100
AcDbEntity
8
0
100
AcDbCircle
10
-1827.4288333760969
20
482.79353597618217
30
0
40
0.77931083738803864
210
0
220
0
230
1
100
AcDbArc
50
172.2313888281198
51
277.76860320369877
0
ARC
5
175
100
AcDbEntity
8
0
100
AcDbCircle
10
-1827.0309938298933
20
484.36137774444694
30
0
40
1.1700000613927841
210
0
220
0
230
1
100
AcDbArc
50
0
51
180.00000497831306
0
LINE
5
176
100
AcDbEntity
8
0
100
AcDbLine
10
-1822.0584930288069
20
484.06887867904777
30
0
11
-1823.3747447835676
21
484.06887867904777
31
0
0
LINE
5
177
100
AcDbEntity
8
0
100
AcDbLine
10
-1823.3747447835676
20
482.02137806869621
30
0
11
-1822.0584930288069
21
482.02137806869621
31
0
0
LINE
5
178
100
AcDbEntity
8
0
100
AcDbLine
10
-1822.0584930288069
20
482.02137806869621
30
0
11
-1822.0584930288069
21
484.65387800193901
31
0
0
LINE
5
179
100
AcDbEntity
8
0
100
AcDbLine
10
-1822.9359926091902
20
485.5313787744152
30
0
11
-1824.1059936391584
21
485.5313787744152
31
0
0
ARC
5
180
100
AcDbEntity
8
0
100
AcDbCircle
10
-1823.3747447835676
20
483.04512837387199
30
0
40
1.0237500816583633
210
0
220
0
230
1
100
AcDbArc
50
90.000002504471112
51
270.00000068323544
0
ARC
5
181
100
AcDbEntity
8
0
100
AcDbCircle
10
-1822.8306545125715
20
484.75921967483634
30
0
40
0.77931083738803864
210
0
220
0
230
1
100
AcDbArc
50
-7.768619823302747
51
97.76861868532086
0
LINE
5
182
100
AcDbEntity
8
0
100
AcDbLine
10
-1820.3034843312971
20
482.02137806869621
30
0
11
-1820.3034843312971
21
487.2863779351818
31
0
0
LINE
5
183
100
AcDbEntity
8
0
100
AcDbLine
10
-1817.9634918081038
20
485.5313787744152
30
0
11
-1820.3034843312971
21
483.77637842155571
31
0
0
LINE
5
184
100
AcDbEntity
8
0
100
AcDbLine
10
-1817.9634918081038
20
482.02137806869621
30
0
11
-1819.2797340261213
21
484.50762846923942
31
0
0
LINE
5
185
100
AcDbEntity
8
0
100
AcDbLine
10
-1814.1609825002424
20
487.2863779351818
30
0
11
-1814.1609825002424
21
482.89887764907951
31
0
0
ARC
5
186
100
AcDbEntity
8
0
100
AcDbCircle
10
-1813.3888305532209
20
482.79353597618217
30
0
40
0.77931083738803864
210
0
220
0
230
1
100
AcDbArc
50
172.2313888281198
51
277.76860320369877
0
LINE
5
187
100
AcDbEntity
8
0
100
AcDbLine
10
-1809.6272434102766
20
482.02137806869621
30
0
11
-1811.0897411214582
21
482.02137806869621
31
0
0
LINE
5
188
100
AcDbEntity
8
0
100
AcDbLine
10
-1811.9672454702131
20
482.89887764907951
30
0
11
-1811.9672454702131
21
484.36137774444694
31
0
0
LINE
5
189
100
AcDbEntity
8
0
100
AcDbLine
10
-1809.6272434102766
20
484.36137774444694
30
0
11
-1809.6272434102766
21
483.77637842155571
31
0
0
LINE
5
190
100
AcDbEntity
8
0
100
AcDbLine
10
-1809.6272434102766
20
483.77637842155571
30
0
11
-1811.9672454702131
21
483.77637842155571
31
0
0
ARC
5
191
100
AcDbEntity
8
0
100
AcDbCircle
10
-1811.1950839864485
20
482.79353597618217
30
0
40
0.77931083738803864
210
0
220
0
230
1
100
AcDbArc
50
172.2313888281198
51
277.76860320369877
0
ARC
5
192
100
AcDbEntity
8
0
100
AcDbCircle
10
-1810.7972396718733
20
484.36137774444694
30
0
40
1.1700000613927841
210
0
220
0
230
1
100
AcDbArc
50
0
51
180.00000497831306
0
LINE
5
193
100
AcDbEntity
8
0
100
AcDbLine
10
-1805.8247341024153
20
484.06887867904777
30
0
11
-1807.140985857176
21
484.06887867904777
31
0
0
LINE
5
194
100
AcDbEntity
8
0
100
AcDbLine
10
-1807.140985857176
20
482.02137806869621
30
0
11
-1805.8247341024153
21
482.02137806869621
31
0
0
LINE
5
195
100
AcDbEntity
8
0
100
AcDbLine
10
-1805.8247341024153
20
482.02137806869621
30
0
11
-1805.8247341024153
21
484.65387800193901
31
0
0
LINE
5
196
100
AcDbEntity
8
0
100
AcDbLine
10
-1806.7022384511702
20
485.5313787744152
30
0
11
-1807.8722347127668
21
485.5313787744152
31
0
0
ARC
5
197
100
AcDbEntity
8
0
100
AcDbCircle
10
-1807.140985857176
20
483.04512837387199
30
0
40
1.0237500816583633
210
0
220
0
230
1
100
AcDbArc
50
90.000002504471112
51
270.00000068323544
0
ARC
5
198
100
AcDbEntity
8
0
100
AcDbCircle
10
-1806.5968955861799
20
484.75921967483634
30
0
40
0.77931083738803864
210
0
220
0
230
1
100
AcDbArc
50
-7.768619823302747
51
97.76861868532086
0
LINE
5
199
100
AcDbEntity
8
0
100
AcDbLine
10
-1804.3622363912336
20
485.5313787744152
30
0
11
-1803.192240129637
21
482.02137806869621
31
0
0
LINE
5
200
100
AcDbEntity
8
0
100
AcDbLine
10
-1803.192240129637
20
482.02137806869621
30
0
11
-1802.0222438680403
21
485.5313787744152
31
0
0
LINE
5
201
100
AcDbEntity
8
0
100
AcDbLine
10
-1798.365990053343
20
482.02137806869621
30
0
11
-1799.8284877645247
21
482.02137806869621
31
0
0
LINE
5
202
100
AcDbEntity
8
0
100
AcDbLine
10
-1800.7059921132795
20
482.89887764907951
30
0
11
-1800.7059921132795
21
484.36137774444694
31
0
0
LINE
5
203
100
AcDbEntity
8
0
100
AcDbLine
10
-1798.365990053343
20
484.36137774444694
30
0
11
-1798.365990053343
21
483.77637842155571
31
0
0
LINE
5
204
100
AcDbEntity
8
0
100
AcDbLine
10
-1798.365990053343
20
483.77637842155571
30
0
11
-1800.7059921132795
21
483.77637842155571
31
0
0
ARC
5
205
100
AcDbEntity
8
0
100
AcDbCircle
10
-1799.9338306295149
20
482.79353597618217
30
0
40
0.77931083738803864
210
0
220
0
230
1
100
AcDbArc
50
172.2313888281198
51
277.76860320369877
0
ARC
5
206
100
AcDbEntity
8
0
100
AcDbCircle
10
-1799.5359863149397
20
484.36137774444694
30
0
40
1.1700000613927841
210
0
220
0
230
1
100
AcDbArc
50
0
51
180.00000497831306
0
LINE
5
207
100
AcDbEntity
8
0
100
AcDbLine
10
-1796.7572368489973
20
482.02137806869621
30
0
11
-1796.7572368489973
21
485.5313787744152
31
0
0
LINE
5
208
100
AcDbEntity
8
0
100
AcDbLine
10
-1796.7572368489973
20
485.5313787744152
30
0
11
-1795.0022376882307
21
485.5313787744152
31
0
0
LINE
5
209
100
AcDbEntity
8
0
100
AcDbLine
10
-1795.0022376882307
20
485.5313787744152
30
0
11
-1795.0022376882307
21
484.94637825943107
31
0
0
LINE
5
210
100
AcDbEntity
8
0
100
AcDbLine
10
-1793.5397399770491
20
482.02137806869621
30
0
11
-1793.832241426634
21
482.02137806869621
31
0
0
LINE
5
211
100
AcDbEntity
8
0
100
AcDbLine
10
-1793.832241426634
20
482.02137806869621
30
0
11
-1793.832241426634
21
482.31387832618827
31
0
0
LINE
5
212
100
AcDbEntity
8
0
100
AcDbLine
10
-1793.832241426634
20
482.31387832618827
30
0
11
-1793.5397399770491
21
482.31387832618827
31
0
0
LINE
5
213
100
AcDbEntity
8
0
100
AcDbLine
10
-1793.5397399770491
20
482.31387832618827
30
0
11
-1793.5397399770491
21
482.02137806869621
31
0
0
LINE
5
214
100
AcDbEntity
8
0
100
AcDbLine
10
-1793.5397399770491
20
482.02137806869621
30
0
11
-1793.9784873830549
21
480.85137823082084
31
0
0
LINE
5
215
100
AcDbEntity
8
0
100
AcDbLine
10
-1789.7372402059309
20
486.11637809730644
30
0
11
-1788.2747424947493
21
487.2863779351818
31
0
0
LINE
5
216
100
AcDbEntity
8
0
100
AcDbLine
10
-1788.2747424947493
20
487.2863779351818
30
0
11
-1788.2747424947493
21
482.02137806869621
31
0
0
LINE
5
217
100
AcDbEntity
8
0
100
AcDbLine
10
-1789.7372402059309
20
482.02137806869621
30
0
11
-1786.8122352468245
21
482.02137806869621
31
0
0
LINE
5
218
100
AcDbEntity
8
0
100
AcDbLine
10
-1783.1559814321272
20
482.02137806869621
30
0
11
-1780.8159793721907
21
485.5313787744152
31
0
0
LINE
5
219
100
AcDbEntity
8
0
100
AcDbLine
10
-1783.1559814321272
20
485.5313787744152
30
0
11
-1780.8159793721907
21
482.02137806869621
31
0
0
LINE
5
220
100
AcDbEntity
8
0
100
AcDbLine
10
-1777.1597350942366
20
486.11637809730644
30
0
11
-1775.6972373830549
21
487.2863779351818
31
0
0
LINE
5
221
100
AcDbEntity
8
0
100
AcDbLine
10
-1775.6972373830549
20
487.2863779351818
30
0
11
-1775.6972373830549
21
482.02137806869621
31
0
0
LINE
5
222
100
AcDbEntity
8
0
100
AcDbLine
10
-1777.1597350942366
20
482.02137806869621
30
0
11
-1774.2347301351301
21
482.02137806869621
31
0
0
LINE
5
223
100
AcDbEntity
8
0
100
AcDbLine
10
-1770.2859844075911
20
484.94637825943107
30
0
11
-1772.7722324239485
21
482.02137806869621
31
0
0
LINE
5
224
100
AcDbEntity
8
0
100
AcDbLine
10
-1772.7722324239485
20
482.02137806869621
30
0
11
-1769.847227464842
21
482.02137806869621
31
0
0
ARC
5
225
100
AcDbEntity
8
0
100
AcDbCircle
10
-1771.0054649221174
20
486.12814047790641
30
0
40
1.1689662933349609
210
0
220
0
230
1
100
AcDbArc
50
-7.7686198233033066
51
97.768618685318359
0
ARC
5
226
100
AcDbEntity
8
0
100
AcDbCircle
10
-1771.3400615560286
20
485.83816388107414
30
0
40
1.4589405059814451
210
0
220
0
230
1
100
AcDbArc
50
83.048174495531413
51
169.00656965301121
0
ARC
5
227
100
AcDbEntity
8
0
100
AcDbCircle
10
-1771.0178722249739
20
485.86593726135368
30
0
40
1.1752662807703018
210
0
220
0
230
1
100
AcDbArc
50
-51.483278511489871
51
5.0861029267714644
0
LINE
5
228
100
AcDbEntity
8
0
100
AcDbLine
10
-1765.8984722005598
20
482.02137806869621
30
0
11
-1765.8984722005598
21
485.5313787744152
31
0
0
LINE
5
229
100
AcDbEntity
8
0
100
AcDbLine
10
-1765.8984722005598
20
485.5313787744152
30
0
11
-1763.2659782277815
21
485.5313787744152
31
0
0
LINE
5
230
100
AcDbEntity
8
0
100
AcDbLine
10
-1762.3884738790266
20
484.65387800193901
30
0
11
-1762.3884738790266
21
482.02137806869621
31
0
0
LINE
5
231
100
AcDbEntity
8
0
100
AcDbLine
10
-1764.1434730397932
20
482.02137806869621
30
0
11
-1764.1434730397932
21
485.5313787744152
31
0
0
ARC
5
232
100
AcDbEntity
8
0
100
AcDbCircle
10
-1763.1606353627913
20
484.75921967483634
30
0
40
0.77931083738803864
210
0
220
0
230
1
100
AcDbArc
50
-7.768619823302747
51
97.76861868532086
0
LINE
5
233
100
AcDbEntity
8
0
100
AcDbLine
10
-1760.63347471826
20
482.02137806869621
30
0
11
-1760.63347471826
21
485.5313787744152
31
0
0
LINE
5
234
100
AcDbEntity
8
0
100
AcDbLine
10
-1760.63347471826
20
485.5313787744152
30
0
11
-1758.0009807454817
21
485.5313787744152
31
0
0
LINE
5
235
100
AcDbEntity
8
0
100
AcDbLine
10
-1757.1234763967268
20
484.65387800193901
30
0
11
-1757.1234763967268
21
482.02137806869621
31
0
0
LINE
5
236
100
AcDbEntity
8
0
100
AcDbLine
10
-1758.8784755574934
20
482.02137806869621
30
0
11
-1758.8784755574934
21
485.5313787744152
31
0
0
ARC
5
237
100
AcDbEntity
8
0
100
AcDbCircle
10
-1757.8956378804914
20
484.75921967483634
30
0
40
0.77931083738803864
210
0
220
0
230
1
100
AcDbArc
50
-7.768619823302747
51
97.76861868532086
0
LINE
5
238
100
AcDbEntity
8
0
100
AcDbLine
10
-1753.0284751760237
20
480.26637771583671
30
0
11
-1753.0284751760237
21
485.5313787744152
31
0
0
LINE
5
239
100
AcDbEntity
8
0
100
AcDbLine
10
-1753.0284751760237
20
485.5313787744152
30
0
11
-1751.565977464842
21
485.5313787744152
31
0
0
LINE
5
240
100
AcDbEntity
8
0
100
AcDbLine
10
-1750.6884826528303
20
484.65387800193901
30
0
11
-1750.6884826528303
21
482.89887764907951
31
0
0
LINE
5
241
100
AcDbEntity
8
0
100
AcDbLine
10
-1751.565977464842
20
482.02137806869621
30
0
11
-1753.0284751760237
21
482.02137806869621
31
0
0
ARC
5
242
100
AcDbEntity
8
0
100
AcDbCircle
10
-1751.4606345998518
20
484.75921967483634
30
0
40
0.77931083738803864
210
0
220
0
230
1
100
AcDbArc
50
-7.768619823302747
51
97.76861868532086
0
ARC
5
243
100
AcDbEntity
8
0
100
AcDbCircle
10
-1751.4606345998518
20
482.79353597618217
30
0
40
0.77931083738803864
210
0
220
0
230
1
100
AcDbArc
50
-97.768629157965819
51
7.7686161808414083
0
LINE
5
244
100
AcDbEntity
8
0
100
AcDbLine
10
-1749.0797294484846
20
487.2863779351818
30
0
11
-1749.0797294484846
21
482.89887764907951
31
0
0
ARC
5
245
100
AcDbEntity
8
0
100
AcDbCircle
10
-1748.3075775014631
20
482.79353597618217
30
0
40
0.77931083738803864
210
0
220
0
230
1
100
AcDbArc
50
172.2313888281198
51
277.76860320369877
0
LINE
5
246
100
AcDbEntity
8
0
100
AcDbLine
10
-1747.0322288381331
20
480.26637771583671
30
0
11
-1746.4472354757063
21
480.26637771583671
31
0
0
LINE
5
247
100
AcDbEntity
8
0
100
AcDbLine
10
-1746.4472354757063
20
480.26637771583671
30
0
11
-1744.6922267781965
21
485.5313787744152
31
0
0
LINE
5
248
100
AcDbEntity
8
0
100
AcDbLine
10
-1747.0322288381331
20
485.5313787744152
30
0
11
-1745.8622325765364
21
482.02137806869621
31
0
0
ENDSEC
0
SECTION
2
OBJECTS
0
DICTIONARY
5
C
100
AcDbDictionary
3
ACAD_GROUP
350
D
3
ACAD_MLINESTYLE
350
17
0
DICTIONARY
5
D
100
AcDbDictionary
0
DICTIONARY
5
1A
330
C
100
AcDbDictionary
0
DICTIONARY
5
17
100
AcDbDictionary
0
ENDSEC
0
EOF
