0
SECTION
2
HEADER
9
$INSUNITS
70
4
9
$ACADVER
1
AC1014
9
$HANDSEED
5
FFFF
0
ENDSEC
0
SECTION
2
TABLES
0
TABLE
2
VPORT
5
8
100
AcDbSymbolTable
0
ENDTAB
0
TABLE
2
LTYPE
5
5
100
AcDbSymbolTable
0
LTYPE
5
14
100
AcDbSymbolTableRecord
100
AcDbLinetypeTableRecord
2
BYBLOCK
70
0
0
LTYPE
5
15
100
AcDbSymbolTableRecord
100
AcDbLinetypeTableRecord
2
BYLAYER
70
0
0
LTYPE
5
16
100
AcDbSymbolTableRecord
100
AcDbLinetypeTableRecord
2
DASHED
70
0
3
Dashed __ __ __ __ __ __ __ __ __ __ __ __ __ _
72
65
73
2
40
0.75
49
0.5
74
0
49
-0.25
74
0
0
ENDTAB
0
TABLE
2
LAYER
5
2
100
AcDbSymbolTable
70
3
0
LAYER
5
50
100
AcDbSymbolTableRecord
100
AcDbLayerTableRecord
2
1
70
0
62
7
6
DASHED
0
LAYER
5
51
100
AcDbSymbolTableRecord
100
AcDbLayerTableRecord
2
0
70
0
62
7
6
CONTINUOUS
0
ENDTAB
0
TABLE
2
STYLE
5
3
100
AcDbSymbolTable
70
1
0
STYLE
5
11
100
AcDbSymbolTableRecord
100
AcDbTextStyleTableRecord
2
STANDARD
70
0
0
ENDTAB
0
TABLE
2
VIEW
5
6
100
AcDbSymbolTable
70
0
0
ENDTAB
0
TABLE
2
UCS
5
7
100
AcDbSymbolTable
70
0
0
ENDTAB
0
TABLE
2
APPID
5
9
100
AcDbSymbolTable
70
2
0
APPID
5
12
100
AcDbSymbolTableRecord
100
AcDbRegAppTableRecord
2
ACAD
70
0
0
ENDTAB
0
TABLE
2
DIMSTYLE
5
A
100
AcDbSymbolTable
70
1
0
ENDTAB
0
TABLE
2
BLOCK_RECORD
5
1
100
AcDbSymbolTable
70
1
0
BLOCK_RECORD
5
1F
100
AcDbSymbolTableRecord
100
AcDbBlockTableRecord
2
*MODEL_SPACE
0
BLOCK_RECORD
5
1B
100
AcDbSymbolTableRecord
100
AcDbBlockTableRecord
2
*PAPER_SPACE
0
ENDTAB
0
ENDSEC
0
SECTION
2
BLOCKS
0
BLOCK
5
20
100
AcDbEntity
100
AcDbBlockBegin
2
*MODEL_SPACE
0
ENDBLK
5
21
100
AcDbEntity
100
AcDbBlockEnd
0
BLOCK
5
1C
100
AcDbEntity
100
AcDbBlockBegin
2
*PAPER_SPACE
0
ENDBLK
5
1D
100
AcDbEntity
100
AcDbBlockEnd
0
ENDSEC
0
SECTION
2
ENTITIES
0
POINT
5
100
100
AcDbEntity
8
0
100
AcDbPoint
10
-29.000000432133682
20
-789.00001175701664
30
0
0
CIRCLE
5
101
100
AcDbEntity
8
0
100
AcDbCircle
10
-44.038289073189048
20
-724.64407519344127
30
0
40
1.5000000000000036
210
5.4738221262688167e-48
220
-5.9925457340060112e-95
230
1
0
CIRCLE
5
102
100
AcDbEntity
8
0
100
AcDbCircle
10
-75.038289073189247
20
-758.54407519344136
30
0
40
1.5000000000000036
210
5.4738221262688167e-48
220
-5.9925457340060112e-95
230
1
0
CIRCLE
5
103
100
AcDbEntity
8
0
100
AcDbCircle
10
-13.038289073189182
20
-758.54407519344136
30
0
40
1.5000000000000013
210
5.4738221262688167e-48
220
-5.9925457340060112e-95
230
1
0
CIRCLE
5
104
100
AcDbEntity
8
0
100
AcDbCircle
10
-44.038289073189169
20
-851.91279309990932
30
0
40
1.5000000000000036
210
5.4738221262688167e-48
220
-5.9925457340060112e-95
230
1
0
CIRCLE
5
105
100
AcDbEntity
8
0
100
AcDbCircle
10
-44.038289073189169
20
-885.19737349177365
30
0
40
1.5000000000000036
210
5.4738221262688167e-48
220
-5.9925457340060112e-95
230
1
0
LWPOLYLINE
5
106
100
AcDbEntity
8
0
100
AcDbPolyline
90
8
70
1
43
0.0
10
-45.640966260248767
20
-856.54407519344113
42
1.0000000074505806
10
-50.138289073189242
20
-860.51573574240615
10
-50.138289073189227
20
-876.41045066667846
42
0.99999999999999989
10
-45.988626621731285
20
-880.74407519344106
10
-42.061336162564828
20
-880.74407519344118
42
0.99999999999999989
10
-37.938289073189239
20
-876.38512088090351
10
-37.938289073189246
20
-860.63898062684405
42
0.99999999999999989
10
-42.323690935218259
20
-856.54407519344113
0
CIRCLE
5
107
100
AcDbEntity
8
0
100
AcDbCircle
10
-44.038289073189169
20
-791.91279309990932
30
0
40
1.5000000000000036
210
5.4738221262688167e-48
220
-5.9925457340060112e-95
230
1
0
LWPOLYLINE
5
108
100
AcDbEntity
8
0
100
AcDbPolyline
90
8
70
1
43
0.0
10
-45.640966260248767
20
-796.54407519344113
42
1.0000000074505806
10
-50.138289073189242
20
-800.51573574240615
10
-50.138289073189227
20
-816.41045066667846
42
0.99999999999999989
10
-45.988626621731285
20
-820.74407519344106
10
-42.061336162564828
20
-820.74407519344118
42
0.99999999999999989
10
-37.938289073189239
20
-816.38512088090351
10
-37.938289073189246
20
-800.63898062684405
42
0.99999999999999989
10
-42.323690935218259
20
-796.54407519344113
0
CIRCLE
5
109
100
AcDbEntity
8
0
100
AcDbCircle
10
-44.038289073189169
20
-825.19737349177365
30
0
40
1.5000000000000036
210
5.4738221262688167e-48
220
-5.9925457340060112e-95
230
1
0
CIRCLE
5
110
100
AcDbEntity
8
0
100
AcDbCircle
10
-50.038289073189276
20
-898.64407519344127
30
0
40
1.5000000000000036
210
5.4738221262688167e-48
220
-5.9925457340060112e-95
230
1
0
CIRCLE
5
111
100
AcDbEntity
8
0
100
AcDbCircle
10
-38.038289073189276
20
-898.64407519344127
30
0
40
1.4999999999999991
210
5.4738221262688167e-48
220
-5.9925457340060112e-95
230
1
0
LWPOLYLINE
5
112
100
AcDbEntity
8
0
100
AcDbPolyline
90
20
70
1
43
0.0
10
-81.038289073189304
20
-684.74407519344118
10
-81.038289073189304
20
-764.54407519344136
10
-73.176540270036284
20
-764.54407519344136
42
-0.99999999999999989
10
-69.038289073189304
20
-768.88859784061367
10
-69.038289073189176
20
-892.64407519344127
42
0.41421356237309503
10
-57.038289073189176
20
-904.64407519344138
10
-31.038289073189183
20
-904.64407519344127
42
0.41421356237309515
10
-19.038289073189176
20
-892.64407519344127
10
-19.038289073189354
20
-768.48892944964575
42
-0.99999999999999989
10
-14.51743462991157
20
-764.54407519344136
10
-7.0382890731892545
20
-764.54407519344136
10
-7.0382890731892545
20
-684.74407519344118
10
-14.517434629911673
20
-684.74407519344118
42
-0.99999999999999989
10
-19.038289073189354
20
-680.79922093723667
10
-19.03828907318918
20
-556.64407519344115
42
0.41421356237309176
10
-31.038289073189183
20
-544.64407519344115
10
-57.038289073189176
20
-544.64407519344127
42
0.41421356237309176
10
-69.038289073189219
20
-556.64407519344115
10
-69.038289073189262
20
-680.39955254626898
42
-0.99999999999999989
10
-73.176540270036213
20
-684.74407519344118
0
CIRCLE
5
113
100
AcDbEntity
8
0
100
AcDbCircle
10
-38.038289073189276
20
-550.64407519344127
30
0
40
1.4999999999999991
210
5.4738221262688167e-48
220
5.9925457340060099e-95
230
1
0
CIRCLE
5
114
100
AcDbEntity
8
0
100
AcDbCircle
10
-50.038289073189276
20
-550.64407519344127
30
0
40
1.5000000000000036
210
5.4738221262688167e-48
220
5.9925457340060099e-95
230
1
0
CIRCLE
5
115
100
AcDbEntity
8
0
100
AcDbCircle
10
-44.038289073189169
20
-624.09077689510877
30
0
40
1.5000000000000036
210
5.4738221262688167e-48
220
5.9925457340060099e-95
230
1
0
LWPOLYLINE
5
116
100
AcDbEntity
8
0
100
AcDbPolyline
90
8
70
1
43
0.0
10
-50.138289073189242
20
-648.77241464447616
42
0.99999999999999989
10
-45.640966260248774
20
-652.74407519344118
10
-42.323690935218238
20
-652.7440751934414
42
0.9999999925494194
10
-37.938289073189239
20
-648.64916976003838
10
-37.938289073189225
20
-632.90302950597902
42
0.99999999999999989
10
-42.061336162564864
20
-628.54407519344124
10
-45.988626621731285
20
-628.54407519344124
42
0.99999999999999989
10
-50.138289073189235
20
-632.87769972020408
0
CIRCLE
5
117
100
AcDbEntity
8
0
100
AcDbCircle
10
-44.038289073189169
20
-657.3753572869731
30
0
40
1.5000000000000036
210
5.4738221262688167e-48
220
5.9925457340060099e-95
230
1
0
LWPOLYLINE
5
118
100
AcDbEntity
8
0
100
AcDbPolyline
90
8
70
1
43
0.0
10
-50.138289073189242
20
-588.77241464447616
42
0.99999999999999989
10
-45.640966260248774
20
-592.74407519344118
10
-42.323690935218266
20
-592.74407519344118
42
0.99999999999999989
10
-37.938289073189239
20
-588.64916976003838
10
-37.938289073189225
20
-572.90302950597902
42
0.99999999999999989
10
-42.061336162564864
20
-568.54407519344124
10
-45.988626621731285
20
-568.54407519344124
42
0.99999999999999989
10
-50.138289073189235
20
-572.87769972020408
0
CIRCLE
5
119
100
AcDbEntity
8
0
100
AcDbCircle
10
-44.038289073189169
20
-564.09077689510877
30
0
40
1.5000000000000036
210
5.4738221262688167e-48
220
5.9925457340060099e-95
230
1
0
CIRCLE
5
120
100
AcDbEntity
8
0
100
AcDbCircle
10
-44.038289073189169
20
-597.37535728697299
30
0
40
1.5000000000000036
210
5.4738221262688167e-48
220
5.9925457340060099e-95
230
1
0
CIRCLE
5
121
100
AcDbEntity
8
0
100
AcDbCircle
10
-13.038289073189182
20
-690.74407519344106
30
0
40
1.5000000000000013
210
5.4738221262688167e-48
220
5.9925457340060099e-95
230
1
0
CIRCLE
5
122
100
AcDbEntity
8
0
100
AcDbCircle
10
-75.038289073189247
20
-690.74407519344106
30
0
40
1.5000000000000036
210
5.4738221262688167e-48
220
5.9925457340060099e-95
230
1
0
LINE
5
123
100
AcDbEntity
8
1
100
AcDbLine
10
-25.038289073189219
20
-886.64407519344138
30
0
11
-25.038289073189219
21
-789.00001175701664
31
0
0
LINE
5
124
100
AcDbEntity
8
1
100
AcDbLine
10
-25.038289073189219
20
-789.00001175701664
30
0
11
-32.961711791078152
21
-789.00001175701664
31
0
0
LINE
5
125
100
AcDbEntity
8
1
100
AcDbLine
10
-32.961711791078152
20
-789.00001175701664
30
0
11
-32.961711791078152
21
-886.64407519344138
31
0
0
LINE
5
126
100
AcDbEntity
8
1
100
AcDbLine
10
-32.961711791078152
20
-886.64407519344138
30
0
11
-25.038289073189219
21
-886.64407519344138
31
0
0
LINE
5
127
100
AcDbEntity
8
0
100
AcDbLine
10
-25.038289335290493
20
-884.49907524231719
30
0
11
-25.038289335290493
21
-886.05907519999789
31
0
0
LINE
5
128
100
AcDbEntity
8
0
100
AcDbLine
10
-25.038289335290493
20
-886.05907519999789
30
0
11
-28.548289146939815
21
-886.05907519999789
31
0
0
LINE
5
129
100
AcDbEntity
8
0
100
AcDbLine
10
-28.548289146939815
20
-886.05907519999789
30
0
11
-28.548289146939815
21
-884.49907524231719
31
0
0
LINE
5
130
100
AcDbEntity
8
0
100
AcDbLine
10
-26.988289263764919
20
-886.05907519999789
30
0
11
-26.988289263764919
21
-884.88907528761672
31
0
0
LINE
5
131
100
AcDbEntity
8
0
100
AcDbLine
10
-28.548289146939815
20
-882.84157542232322
30
0
11
-25.818289425889553
21
-883.62157551292228
31
0
0
LINE
5
132
100
AcDbEntity
8
0
100
AcDbLine
10
-25.818289425889553
20
-883.62157551292228
30
0
11
-25.818289425889553
21
-881.67157558444785
31
0
0
LINE
5
133
100
AcDbEntity
8
0
100
AcDbLine
10
-26.598289516488613
20
-882.25657550338553
30
0
11
-25.038289335290493
21
-882.25657550338553
31
0
0
LINE
5
134
100
AcDbEntity
8
0
100
AcDbLine
10
-25.038289335290493
20
-880.50157515052604
30
0
11
-25.038289335290493
21
-880.69657532218741
31
0
0
LINE
5
135
100
AcDbEntity
8
0
100
AcDbLine
10
-25.038289335290493
20
-880.69657532218741
30
0
11
-25.23328950695187
21
-880.69657532218741
31
0
0
LINE
5
136
100
AcDbEntity
8
0
100
AcDbLine
10
-25.23328950695187
20
-880.69657532218741
30
0
11
-25.23328950695187
21
-880.50157515052604
31
0
0
LINE
5
137
100
AcDbEntity
8
0
100
AcDbLine
10
-25.23328950695187
20
-880.50157515052604
30
0
11
-25.038289335290493
21
-880.50157515052604
31
0
0
LINE
5
138
100
AcDbEntity
8
0
100
AcDbLine
10
-25.038289335290493
20
-880.50157515052604
30
0
11
-24.258289244691433
21
-880.7940754080181
31
0
0
LINE
5
139
100
AcDbEntity
8
0
100
AcDbLine
10
-25.038289335290493
20
-877.86907521728324
30
0
11
-27.378289011041225
21
-877.86907521728324
31
0
0
LINE
5
140
100
AcDbEntity
8
0
100
AcDbLine
10
-27.378289011041225
20
-877.86907521728324
30
0
11
-27.378289011041225
21
-876.69907537940787
31
0
0
LINE
5
141
100
AcDbEntity
8
0
100
AcDbLine
10
-27.378289011041225
20
-876.69907537940787
30
0
11
-26.988289263764919
21
-876.69907537940787
31
0
0
LINE
5
142
100
AcDbEntity
8
0
100
AcDbLine
10
-25.038289335290493
20
-874.35907629970359
30
0
11
-25.038289335290493
21
-875.33407596591758
31
0
0
LINE
5
143
100
AcDbEntity
8
0
100
AcDbLine
10
-25.623289254228176
20
-875.91907528880881
30
0
11
-26.598289516488613
21
-875.91907528880881
31
0
0
LINE
5
144
100
AcDbEntity
8
0
100
AcDbLine
10
-26.598289516488613
20
-874.35907629970359
30
0
11
-26.208289173165859
21
-874.35907629970359
31
0
0
LINE
5
145
100
AcDbEntity
8
0
100
AcDbLine
10
-26.208289173165859
20
-874.35907629970359
30
0
11
-26.208289173165859
21
-875.91907528880881
31
0
0
ARC
5
146
100
AcDbEntity
8
0
100
AcDbCircle
10
-25.553061273614468
20
-875.40430335048484
30
0
40
0.51954049617052078
210
0
220
-0
230
1
100
AcDbArc
50
-97.768611171881361
51
7.7686032037062986
0
ARC
5
147
100
AcDbEntity
8
0
100
AcDbCircle
10
-26.598289516488613
20
-875.1390757942562
30
0
40
0.78000001609325409
210
0
220
-0
230
1
100
AcDbArc
50
90
51
270.00000500895629
0
LINE
5
148
100
AcDbEntity
8
0
100
AcDbLine
10
-26.403289344827236
20
-871.82407645229148
30
0
11
-26.403289344827236
21
-872.70157603267478
31
0
0
LINE
5
149
100
AcDbEntity
8
0
100
AcDbLine
10
-25.038289335290493
20
-872.70157603267478
30
0
11
-25.038289335290493
21
-871.82407645229148
31
0
0
LINE
5
150
100
AcDbEntity
8
0
100
AcDbLine
10
-25.038289335290493
20
-871.82407645229148
30
0
11
-26.793289092103542
21
-871.82407645229148
31
0
0
LINE
5
151
100
AcDbEntity
8
0
100
AcDbLine
10
-27.378289011041225
20
-872.40907577518271
30
0
11
-27.378289011041225
21
-873.18907646182822
31
0
0
ARC
5
152
100
AcDbEntity
8
0
100
AcDbCircle
10
-25.720789340058865
20
-872.70157603267478
30
0
40
0.68249993026256561
210
0
220
-0
230
1
100
AcDbArc
50
-179.99999758516347
51
0
0
ARC
5
153
100
AcDbEntity
8
0
100
AcDbCircle
10
-26.863517072717251
20
-872.33884839061545
30
0
40
0.51954049617052078
210
0
220
-0
230
1
100
AcDbArc
50
82.231380176695453
51
187.76861868531375
0
LINE
5
154
100
AcDbEntity
8
0
100
AcDbLine
10
-25.038289335290493
20
-870.65407542232322
30
0
11
-27.378289011041225
21
-870.65407542232322
31
0
0
LINE
5
155
100
AcDbEntity
8
0
100
AcDbLine
10
-27.378289011041225
20
-870.65407542232322
30
0
11
-27.378289011041225
21
-869.48407558444785
31
0
0
LINE
5
156
100
AcDbEntity
8
0
100
AcDbLine
10
-27.378289011041225
20
-869.48407558444785
30
0
11
-26.988289263764919
21
-869.48407558444785
31
0
0
LINE
5
157
100
AcDbEntity
8
0
100
AcDbLine
10
-23.868289497415127
20
-867.04657582286643
30
0
11
-27.378289011041225
21
-867.04657582286643
31
0
0
LINE
5
158
100
AcDbEntity
8
0
100
AcDbLine
10
-27.378289011041225
20
-867.04657582286643
30
0
11
-27.378289011041225
21
-866.07157734874534
31
0
0
LINE
5
159
100
AcDbEntity
8
0
100
AcDbLine
10
-26.793289092103542
20
-865.48657683376121
30
0
11
-25.623289254228176
21
-865.48657683376121
31
0
0
LINE
5
160
100
AcDbEntity
8
0
100
AcDbLine
10
-25.038289335290493
20
-866.07157734874534
30
0
11
-25.038289335290493
21
-867.04657582286643
31
0
0
ARC
5
161
100
AcDbEntity
8
0
100
AcDbCircle
10
-26.863517072717251
20
-866.00134877208518
30
0
40
0.51954049617052078
210
0
220
-0
230
1
100
AcDbArc
50
82.231380176695453
51
187.76861868531375
0
ARC
5
162
100
AcDbEntity
8
0
100
AcDbCircle
10
-25.553061273614468
20
-866.00134877208518
30
0
40
0.51954049617052078
210
0
220
-0
230
1
100
AcDbArc
50
-7.7686291579768012
51
97.768616180838578
0
LINE
5
163
100
AcDbEntity
8
0
100
AcDbLine
10
-25.038289335290493
20
-862.9515769863491
30
0
11
-25.038289335290493
21
-863.92657784465598
31
0
0
LINE
5
164
100
AcDbEntity
8
0
100
AcDbLine
10
-25.623289254228176
20
-864.51157835964011
30
0
11
-26.598289516488613
21
-864.51157835964011
31
0
0
LINE
5
165
100
AcDbEntity
8
0
100
AcDbLine
10
-26.598289516488613
20
-862.9515769863491
30
0
11
-26.208289173165859
21
-862.9515769863491
31
0
0
LINE
5
166
100
AcDbEntity
8
0
100
AcDbLine
10
-26.208289173165859
20
-862.9515769863491
30
0
11
-26.208289173165859
21
-864.51157835964011
31
0
0
ARC
5
167
100
AcDbEntity
8
0
100
AcDbCircle
10
-25.553061273614468
20
-863.99680642131614
30
0
40
0.51954049617052078
210
0
220
-0
230
1
100
AcDbArc
50
-97.768611171881361
51
7.7686032037062986
0
ARC
5
168
100
AcDbEntity
8
0
100
AcDbCircle
10
-26.598289516488613
20
-863.7315776729946
30
0
40
0.78000001609325409
210
0
220
-0
230
1
100
AcDbArc
50
90
51
270.00000500895629
0
LINE
5
169
100
AcDbEntity
8
0
100
AcDbLine
10
-28.548289146939815
20
-860.41657713893699
30
0
11
-25.038289335290493
21
-860.41657713893699
31
0
0
LINE
5
170
100
AcDbEntity
8
0
100
AcDbLine
10
-25.038289335290493
20
-860.41657713893699
30
0
11
-25.038289335290493
21
-861.39157799724387
31
0
0
LINE
5
171
100
AcDbEntity
8
0
100
AcDbLine
10
-25.623289254228176
20
-861.976578512228
30
0
11
-26.793289092103542
21
-861.976578512228
31
0
0
LINE
5
172
100
AcDbEntity
8
0
100
AcDbLine
10
-27.378289011041225
20
-861.39157799724387
30
0
11
-27.378289011041225
21
-860.41657713893699
31
0
0
ARC
5
173
100
AcDbEntity
8
0
100
AcDbCircle
10
-25.553061273614468
20
-861.46180657390403
30
0
40
0.51954049617052078
210
0
220
-0
230
1
100
AcDbArc
50
-97.768611171881361
51
7.7686032037062986
0
ARC
5
174
100
AcDbEntity
8
0
100
AcDbCircle
10
-26.863517072717251
20
-861.46180657390403
30
0
40
0.51954049617052078
210
0
220
-0
230
1
100
AcDbArc
50
172.23138632364331
51
277.76862118979415
0
LINE
5
175
100
AcDbEntity
8
0
100
AcDbLine
10
-26.403289344827236
20
-857.78407839778708
30
0
11
-26.403289344827236
21
-858.66157797817038
31
0
0
LINE
5
176
100
AcDbEntity
8
0
100
AcDbLine
10
-25.038289335290493
20
-858.66157797817038
30
0
11
-25.038289335290493
21
-857.78407839778708
31
0
0
LINE
5
177
100
AcDbEntity
8
0
100
AcDbLine
10
-25.038289335290493
20
-857.78407839778708
30
0
11
-26.793289092103542
21
-857.78407839778708
31
0
0
LINE
5
178
100
AcDbEntity
8
0
100
AcDbLine
10
-27.378289011041225
20
-858.36907891277122
30
0
11
-27.378289011041225
21
-859.14907959941672
31
0
0
ARC
5
179
100
AcDbEntity
8
0
100
AcDbCircle
10
-25.720789340058865
20
-858.66157797817038
30
0
40
0.68249993026256561
210
0
220
-0
230
1
100
AcDbArc
50
-179.99999758516347
51
0
0
ARC
5
180
100
AcDbEntity
8
0
100
AcDbCircle
10
-26.863517072717251
20
-858.29885033611106
30
0
40
0.51954049617052078
210
0
220
-0
230
1
100
AcDbArc
50
82.231380176695453
51
187.76861868531375
0
LINE
5
181
100
AcDbEntity
8
0
100
AcDbLine
10
-28.548289146939815
20
-856.61407975200461
30
0
11
-25.623289254228176
21
-856.61407975200461
31
0
0
ARC
5
182
100
AcDbEntity
8
0
100
AcDbCircle
10
-25.553061273614468
20
-856.09930781368064
30
0
40
0.51954049617052078
210
0
220
-0
230
1
100
AcDbArc
50
-97.768611171881361
51
7.7686032037062986
0
LINE
5
183
100
AcDbEntity
8
0
100
AcDbLine
10
-26.013289001504482
20
-852.32408312801169
30
0
11
-26.403289344827236
21
-853.29908160213279
31
0
0
ARC
5
184
100
AcDbEntity
8
0
100
AcDbCircle
10
-26.878502276460232
20
-853.1401470089321
30
0
40
0.50108645111322403
210
0
220
-0
230
1
100
AcDbArc
50
175.87258749093223
51
341.50753671299651
0
ARC
5
185
100
AcDbEntity
8
0
100
AcDbCircle
10
-25.567138102571072
20
-853.04614333156394
30
0
40
1.8120776116847992
210
0
220
-0
230
1
100
AcDbArc
50
153.11012147802958
51
181.8322622210375
0
ARC
5
186
100
AcDbEntity
8
0
100
AcDbCircle
10
-25.538958218614162
20
-852.48742608073997
30
0
40
0.50166852772235859
210
0
220
-0
230
1
100
AcDbArc
50
-3.6178685578421632
51
160.9980064221445
0
ARC
5
187
100
AcDbEntity
8
0
100
AcDbCircle
10
-27.10295012287289
20
-852.69766596797751
30
0
40
2.0723696053028107
210
0
220
-0
230
1
100
AcDbArc
50
-25.553239643388448
51
4.9435276799587795
0
LINE
5
188
100
AcDbEntity
8
0
100
AcDbLine
10
-27.378289011041225
20
-851.15408209804343
30
0
11
-25.038289335290493
21
-850.5690815830593
31
0
0
LINE
5
189
100
AcDbEntity
8
0
100
AcDbLine
10
-25.038289335290493
20
-850.5690815830593
30
0
11
-26.598289516488613
21
-849.98408345226096
31
0
0
LINE
5
190
100
AcDbEntity
8
0
100
AcDbLine
10
-26.598289516488613
20
-849.98408345226096
30
0
11
-25.038289335290493
21
-849.39908293727683
31
0
0
LINE
5
191
100
AcDbEntity
8
0
100
AcDbLine
10
-25.038289335290493
20
-849.39908293727683
30
0
11
-27.378289011041225
21
-848.8140824222927
31
0
0
LINE
5
192
100
AcDbEntity
8
0
100
AcDbLine
10
-25.038289335290493
20
-847.83908156398581
30
0
11
-27.378289011041225
21
-847.83908156398581
31
0
0
LINE
5
193
100
AcDbEntity
8
0
100
AcDbLine
10
-28.353289273301662
20
-847.9365828419094
30
0
11
-28.548289146939815
21
-847.9365828419094
31
0
0
LINE
5
194
100
AcDbEntity
8
0
100
AcDbLine
10
-28.548289146939815
20
-847.9365828419094
30
0
11
-28.548289146939815
21
-847.74158267024802
31
0
0
LINE
5
195
100
AcDbEntity
8
0
100
AcDbLine
10
-28.548289146939815
20
-847.74158267024802
30
0
11
-28.353289273301662
21
-847.74158267024802
31
0
0
LINE
5
196
100
AcDbEntity
8
0
100
AcDbLine
10
-28.353289273301662
20
-847.74158267024802
30
0
11
-28.353289273301662
21
-847.9365828419094
31
0
0
LINE
5
197
100
AcDbEntity
8
0
100
AcDbLine
10
-25.038289335290493
20
-846.66908053401755
30
0
11
-27.378289011041225
21
-846.66908053401755
31
0
0
LINE
5
198
100
AcDbEntity
8
0
100
AcDbLine
10
-27.378289011041225
20
-846.66908053401755
30
0
11
-27.378289011041225
21
-845.69408205989646
31
0
0
LINE
5
199
100
AcDbEntity
8
0
100
AcDbLine
10
-26.793289092103542
20
-845.10907916072654
30
0
11
-25.038289335290493
21
-845.10907916072654
31
0
0
ARC
5
200
100
AcDbEntity
8
0
100
AcDbCircle
10
-26.863517072717251
20
-845.6238534832363
30
0
40
0.51954049617052067
210
0
220
-0
230
1
100
AcDbArc
50
82.231380176695453
51
187.76861868531375
0
LINE
5
201
100
AcDbEntity
8
0
100
AcDbLine
10
-25.038289335290493
20
-842.47658041957663
30
0
11
-25.038289335290493
21
-843.45157889369773
31
0
0
LINE
5
202
100
AcDbEntity
8
0
100
AcDbLine
10
-25.623289254228176
20
-844.03658179286765
30
0
11
-26.793289092103542
21
-844.03658179286765
31
0
0
LINE
5
203
100
AcDbEntity
8
0
100
AcDbLine
10
-27.378289011041225
20
-843.45157889369773
30
0
11
-27.378289011041225
21
-842.47658041957663
31
0
0
LINE
5
204
100
AcDbEntity
8
0
100
AcDbLine
10
-27.378289011041225
20
-842.47658041957663
30
0
11
-24.45328941635281
21
-842.47658041957663
31
0
0
LINE
5
205
100
AcDbEntity
8
0
100
AcDbLine
10
-23.868289497415127
20
-843.06158331874656
30
0
11
-23.868289497415127
21
-843.84157923702048
31
0
0
ARC
5
206
100
AcDbEntity
8
0
100
AcDbCircle
10
-25.553061273614468
20
-843.52180747035788
30
0
40
0.51954049617052067
210
0
220
-0
230
1
100
AcDbArc
50
-97.768611171881361
51
7.7686032037062986
0
ARC
5
207
100
AcDbEntity
8
0
100
AcDbCircle
10
-26.863517072717251
20
-843.52180747035788
30
0
40
0.51954049617052067
210
0
220
-0
230
1
100
AcDbArc
50
172.23138632364331
51
277.76862118979415
0
ARC
5
208
100
AcDbEntity
8
0
100
AcDbCircle
10
-24.383061435739101
20
-842.9913547420864
30
0
40
0.51954049617052067
210
0
220
-0
230
1
100
AcDbArc
50
-7.7686291579768012
51
97.768616180838578
0
LINE
5
209
100
AcDbEntity
8
0
100
AcDbLine
10
-26.403289344827236
20
-838.28408030513572
30
0
11
-26.403289344827236
21
-839.16157988551902
31
0
0
LINE
5
210
100
AcDbEntity
8
0
100
AcDbLine
10
-25.038289335290493
20
-839.16157988551902
30
0
11
-25.038289335290493
21
-838.28408030513572
31
0
0
LINE
5
211
100
AcDbEntity
8
0
100
AcDbLine
10
-25.038289335290493
20
-838.28408030513572
30
0
11
-26.793289092103542
21
-838.28408030513572
31
0
0
LINE
5
212
100
AcDbEntity
8
0
100
AcDbLine
10
-27.378289011041225
20
-838.86908320430564
30
0
11
-27.378289011041225
21
-839.64907912257956
31
0
0
ARC
5
213
100
AcDbEntity
8
0
100
AcDbCircle
10
-25.720789340058865
20
-839.16157988551902
30
0
40
0.68249993026256561
210
0
220
-0
230
1
100
AcDbArc
50
-179.99999758516347
51
0
0
ARC
5
214
100
AcDbEntity
8
0
100
AcDbCircle
10
-26.863517072717251
20
-838.79885462764548
30
0
40
0.51954049617052067
210
0
220
-0
230
1
100
AcDbArc
50
82.231380176695453
51
187.76861868531375
0
LINE
5
215
100
AcDbEntity
8
0
100
AcDbLine
10
-25.038289335290493
20
-837.11408404353904
30
0
11
-27.378289011041225
21
-837.11408404353904
31
0
0
LINE
5
216
100
AcDbEntity
8
0
100
AcDbLine
10
-27.378289011041225
20
-837.11408404353904
30
0
11
-27.378289011041225
21
-835.94408301357078
31
0
0
LINE
5
217
100
AcDbEntity
8
0
100
AcDbLine
10
-27.378289011041225
20
-835.94408301357078
30
0
11
-26.988289263764919
21
-835.94408301357078
31
0
0
LINE
5
218
100
AcDbEntity
8
0
100
AcDbLine
10
-25.038289335290493
20
-835.06658343318747
30
0
11
-27.378289011041225
21
-835.06658343318747
31
0
0
LINE
5
219
100
AcDbEntity
8
0
100
AcDbLine
10
-27.378289011041225
20
-835.06658343318747
30
0
11
-27.378289011041225
21
-833.31157950404929
31
0
0
LINE
5
220
100
AcDbEntity
8
0
100
AcDbLine
10
-26.793289092103542
20
-832.72658137325095
30
0
11
-25.038289335290493
21
-832.72658137325095
31
0
0
LINE
5
221
100
AcDbEntity
8
0
100
AcDbLine
10
-25.038289335290493
20
-833.89658240321921
30
0
11
-27.378289011041225
21
-833.89658240321921
31
0
0
ARC
5
222
100
AcDbEntity
8
0
100
AcDbCircle
10
-26.863517072717251
20
-833.24135569576072
30
0
40
0.51954049617052067
210
0
220
-0
230
1
100
AcDbArc
50
82.231380176695453
51
187.76861868531375
0
LINE
5
223
100
AcDbEntity
8
0
100
AcDbLine
10
-25.038289335290493
20
-831.4590814495449
30
0
11
-25.038289335290493
21
-831.65408400539206
31
0
0
LINE
5
224
100
AcDbEntity
8
0
100
AcDbLine
10
-25.038289335290493
20
-831.65408400539206
30
0
11
-25.23328950695187
21
-831.65408400539206
31
0
0
LINE
5
225
100
AcDbEntity
8
0
100
AcDbLine
10
-25.23328950695187
20
-831.65408400539206
30
0
11
-25.23328950695187
21
-831.4590814495449
31
0
0
LINE
5
226
100
AcDbEntity
8
0
100
AcDbLine
10
-25.23328950695187
20
-831.4590814495449
30
0
11
-25.038289335290493
21
-831.4590814495449
31
0
0
LINE
5
227
100
AcDbEntity
8
0
100
AcDbLine
10
-25.038289335290493
20
-831.4590814495449
30
0
11
-24.258289244691433
21
-831.75158289912986
31
0
0
LINE
5
228
100
AcDbEntity
8
0
100
AcDbLine
10
-27.768289354363979
20
-828.92408160213279
30
0
11
-28.548289146939815
21
-827.94908312801169
31
0
0
LINE
5
229
100
AcDbEntity
8
0
100
AcDbLine
10
-28.548289146939815
20
-827.94908312801169
30
0
11
-25.038289335290493
21
-827.94908312801169
31
0
0
LINE
5
230
100
AcDbEntity
8
0
100
AcDbLine
10
-25.038289335290493
20
-828.92408160213279
30
0
11
-25.038289335290493
21
-826.97407988551902
31
0
0
LINE
5
231
100
AcDbEntity
8
0
100
AcDbLine
10
-25.038289335290493
20
-824.5365789318447
30
0
11
-27.378289011041225
21
-822.97657755855369
31
0
0
LINE
5
232
100
AcDbEntity
8
0
100
AcDbLine
10
-27.378289011041225
20
-824.5365789318447
30
0
11
-25.038289335290493
21
-822.97657755855369
31
0
0
LINE
5
233
100
AcDbEntity
8
0
100
AcDbLine
10
-27.768289354363979
20
-820.53907660487937
30
0
11
-28.548289146939815
21
-819.56407813075828
31
0
0
LINE
5
234
100
AcDbEntity
8
0
100
AcDbLine
10
-28.548289146939815
20
-819.56407813075828
30
0
11
-25.038289335290493
21
-819.56407813075828
31
0
0
LINE
5
235
100
AcDbEntity
8
0
100
AcDbLine
10
-25.038289335290493
20
-820.53907660487937
30
0
11
-25.038289335290493
21
-818.5890748882656
31
0
0
LINE
5
236
100
AcDbEntity
8
0
100
AcDbLine
10
-26.988289263764919
20
-815.9565761471157
30
0
11
-25.038289335290493
21
-817.61407641414451
31
0
0
LINE
5
237
100
AcDbEntity
8
0
100
AcDbLine
10
-25.038289335290493
20
-817.61407641414451
30
0
11
-25.038289335290493
21
-815.66407469753074
31
0
0
ARC
5
238
100
AcDbEntity
8
0
100
AcDbCircle
10
-27.77613094143063
20
-816.43623618129538
30
0
40
0.77931083738803864
210
0
220
-0
230
1
100
AcDbArc
50
82.231380176696206
51
187.76861868531248
0
ARC
5
239
100
AcDbEntity
8
0
100
AcDbCircle
10
-27.582812812844814
20
-816.65929583553122
30
0
40
0.97262687981128693
210
0
220
-0
230
1
100
AcDbArc
50
173.04817449553872
51
259.00656965301056
0
ARC
5
240
100
AcDbEntity
8
0
100
AcDbCircle
10
-27.601328995744289
20
-816.44449976924705
30
0
40
0.78351080417633057
210
0
220
-0
230
1
100
AcDbArc
50
38.516721488509646
51
95.08610292677038
0
LINE
5
241
100
AcDbEntity
8
0
100
AcDbLine
10
-25.038289335290493
20
-813.03157595638083
30
0
11
-27.378289011041225
21
-813.03157595638083
31
0
0
LINE
5
242
100
AcDbEntity
8
0
100
AcDbLine
10
-27.378289011041225
20
-813.03157595638083
30
0
11
-27.378289011041225
21
-811.27657202724265
31
0
0
LINE
5
243
100
AcDbEntity
8
0
100
AcDbLine
10
-26.793289092103542
20
-810.69157389644431
30
0
11
-25.038289335290493
21
-810.69157389644431
31
0
0
LINE
5
244
100
AcDbEntity
8
0
100
AcDbLine
10
-25.038289335290493
20
-811.86157492641257
30
0
11
-27.378289011041225
21
-811.86157492641257
31
0
0
ARC
5
245
100
AcDbEntity
8
0
100
AcDbCircle
10
-26.863517072717251
20
-811.20634821895408
30
0
40
0.51954049617052067
210
0
220
-0
230
1
100
AcDbArc
50
82.231380176695453
51
187.76861868531375
0
LINE
5
246
100
AcDbEntity
8
0
100
AcDbLine
10
-25.038289335290493
20
-809.52157763484763
30
0
11
-27.378289011041225
21
-809.52157763484763
31
0
0
LINE
5
247
100
AcDbEntity
8
0
100
AcDbLine
10
-27.378289011041225
20
-809.52157763484763
30
0
11
-27.378289011041225
21
-807.76657370570945
31
0
0
LINE
5
248
100
AcDbEntity
8
0
100
AcDbLine
10
-26.793289092103542
20
-807.18157557491111
30
0
11
-25.038289335290493
21
-807.18157557491111
31
0
0
LINE
5
249
100
AcDbEntity
8
0
100
AcDbLine
10
-25.038289335290493
20
-808.35157660487937
30
0
11
-27.378289011041225
21
-808.35157660487937
31
0
0
ARC
5
250
100
AcDbEntity
8
0
100
AcDbCircle
10
-26.863517072717251
20
-807.69634989742087
30
0
40
0.51954049617052067
210
0
220
-0
230
1
100
AcDbArc
50
82.231380176695453
51
187.76861868531375
0
LINE
5
251
100
AcDbEntity
8
0
100
AcDbLine
10
-23.868289497415127
20
-804.45156840328025
30
0
11
-27.378289011041225
21
-804.45156840328025
31
0
0
LINE
5
252
100
AcDbEntity
8
0
100
AcDbLine
10
-27.378289011041225
20
-804.45156840328025
30
0
11
-27.378289011041225
21
-803.47656992915915
31
0
0
LINE
5
253
100
AcDbEntity
8
0
100
AcDbLine
10
-26.793289092103542
20
-802.89156702998923
30
0
11
-25.623289254228176
21
-802.89156702998923
31
0
0
LINE
5
254
100
AcDbEntity
8
0
100
AcDbLine
10
-25.038289335290493
20
-803.47656992915915
30
0
11
-25.038289335290493
21
-804.45156840328025
31
0
0
ARC
5
255
100
AcDbEntity
8
0
100
AcDbCircle
10
-26.863517072717251
20
-803.406341352499
30
0
40
0.51954049617052067
210
0
220
-0
230
1
100
AcDbArc
50
82.231380176695453
51
187.76861868531375
0
ARC
5
256
100
AcDbEntity
8
0
100
AcDbCircle
10
-25.553061273614468
20
-803.406341352499
30
0
40
0.51954049617052067
210
0
220
-0
230
1
100
AcDbArc
50
-7.7686291579768012
51
97.768616180838578
0
LINE
5
257
100
AcDbEntity
8
0
100
AcDbLine
10
-28.548289146939815
20
-801.81906489375876
30
0
11
-25.623289254228176
21
-801.81906489375876
31
0
0
ARC
5
258
100
AcDbEntity
8
0
100
AcDbCircle
10
-25.553061273614468
20
-801.30430010799216
30
0
40
0.51954049617052067
210
0
220
-0
230
1
100
AcDbArc
50
-97.768611171881361
51
7.7686032037062986
0
LINE
5
259
100
AcDbEntity
8
0
100
AcDbLine
10
-23.868289497415127
20
-800.4540708446865
30
0
11
-23.868289497415127
21
-800.06406573299216
31
0
0
LINE
5
260
100
AcDbEntity
8
0
100
AcDbLine
10
-23.868289497415127
20
-800.06406573299216
30
0
11
-27.378289011041225
21
-798.89406947139548
31
0
0
LINE
5
261
100
AcDbEntity
8
0
100
AcDbLine
10
-27.378289011041225
20
-800.4540708446865
30
0
11
-25.038289335290493
21
-799.67407015804099
31
0
0
ENDSEC
0
SECTION
2
OBJECTS
0
DICTIONARY
5
C
100
AcDbDictionary
3
ACAD_GROUP
350
D
3
ACAD_MLINESTYLE
350
17
0
DICTIONARY
5
D
100
AcDbDictionary
0
DICTIONARY
5
1A
330
C
100
AcDbDictionary
0
DICTIONARY
5
17
100
AcDbDictionary
0
ENDSEC
0
EOF
