0
SECTION
2
HEADER
9
$INSUNITS
70
4
9
$ACADVER
1
AC1014
9
$HANDSEED
5
FFFF
0
ENDSEC
0
SECTION
2
TABLES
0
TABLE
2
VPORT
5
8
100
AcDbSymbolTable
0
ENDTAB
0
TABLE
2
LTYPE
5
5
100
AcDbSymbolTable
0
LTYPE
5
14
100
AcDbSymbolTableRecord
100
AcDbLinetypeTableRecord
2
BYBLOCK
70
0
0
LTYPE
5
15
100
AcDbSymbolTableRecord
100
AcDbLinetypeTableRecord
2
BYLAYER
70
0
0
LTYPE
5
16
100
AcDbSymbolTableRecord
100
AcDbLinetypeTableRecord
2
DASHED
70
0
3
Dashed __ __ __ __ __ __ __ __ __ __ __ __ __ _
72
65
73
2
40
0.75
49
0.5
74
0
49
-0.25
74
0
0
ENDTAB
0
TABLE
2
LAYER
5
2
100
AcDbSymbolTable
70
3
0
LAYER
5
50
100
AcDbSymbolTableRecord
100
AcDbLayerTableRecord
2
1
70
0
62
7
6
DASHED
0
LAYER
5
51
100
AcDbSymbolTableRecord
100
AcDbLayerTableRecord
2
0
70
0
62
7
6
CONTINUOUS
0
ENDTAB
0
TABLE
2
STYLE
5
3
100
AcDbSymbolTable
70
1
0
STYLE
5
11
100
AcDbSymbolTableRecord
100
AcDbTextStyleTableRecord
2
STANDARD
70
0
0
ENDTAB
0
TABLE
2
VIEW
5
6
100
AcDbSymbolTable
70
0
0
ENDTAB
0
TABLE
2
UCS
5
7
100
AcDbSymbolTable
70
0
0
ENDTAB
0
TABLE
2
APPID
5
9
100
AcDbSymbolTable
70
2
0
APPID
5
12
100
AcDbSymbolTableRecord
100
AcDbRegAppTableRecord
2
ACAD
70
0
0
ENDTAB
0
TABLE
2
DIMSTYLE
5
A
100
AcDbSymbolTable
70
1
0
ENDTAB
0
TABLE
2
BLOCK_RECORD
5
1
100
AcDbSymbolTable
70
1
0
BLOCK_RECORD
5
1F
100
AcDbSymbolTableRecord
100
AcDbBlockTableRecord
2
*MODEL_SPACE
0
BLOCK_RECORD
5
1B
100
AcDbSymbolTableRecord
100
AcDbBlockTableRecord
2
*PAPER_SPACE
0
ENDTAB
0
ENDSEC
0
SECTION
2
BLOCKS
0
BLOCK
5
20
100
AcDbEntity
100
AcDbBlockBegin
2
*MODEL_SPACE
0
ENDBLK
5
21
100
AcDbEntity
100
AcDbBlockEnd
0
BLOCK
5
1C
100
AcDbEntity
100
AcDbBlockBegin
2
*PAPER_SPACE
0
ENDBLK
5
1D
100
AcDbEntity
100
AcDbBlockEnd
0
ENDSEC
0
SECTION
2
ENTITIES
0
LWPOLYLINE
5
100
100
AcDbEntity
8
0
100
AcDbPolyline
90
47
70
1
43
0.0
10
-1084.005863471486
20
-835.21591544150374
42
0.52941176470588269
10
-1084.0058571206901
20
-1107.215915441504
10
-1084.0058565603258
20
-1131.2159154415035
10
-1084.1058565603259
20
-1131.2159154438384
10
-1084.1058562801438
20
-1143.2159154438384
10
-1107.9058562801438
20
-1143.2159159995331
10
-1107.9058565126629
20
-1133.2572940713928
42
0.99999998946328783
10
-1109.8943497040423
20
-1131.2159160459614
10
-1141.1470418605884
20
-1131.2159167756654
42
0.99999998946328783
10
-1144.1058564963191
20
-1133.9572776164164
10
-1144.1058562801438
20
-1143.2159168447492
10
-1167.9058562801438
20
-1143.2159174004439
10
-1167.9058565173323
20
-1133.0572973301928
42
0.99999998946328783
10
-1169.8074557463228
20
-1131.2159174448434
10
-1180.005856560326
20
-1131.2159176829609
10
-1180.0058568068544
20
-1120.6572828992635
42
0.9999999925494194
10
-1181.6493248644974
20
-1119.1159177213333
10
-1192.005860474902
20
-1119.1159179631429
10
-1192.005860474902
20
-1095.315917963143
10
-1181.9654984160081
20
-1095.3159177287157
42
0.99999999999999989
10
-1180.0058574434479
20
-1093.3924424040397
10
-1180.0058599752472
20
-984.95730371147738
42
0.99999999999999989
10
-1182.2591610167703
20
-983.21591773557213
10
-1192.005860474902
20
-983.21591796314306
10
-1192.005860474902
20
-971.21591796314328
10
-1192.0058610352662
20
-959.21591796314306
10
-1182.2591615771348
20
-959.21591773557225
42
0.99999998946328783
10
-1180.0058606169291
20
-957.47453165444426
10
-1180.0058631487284
20
-849.03939296188241
42
0.99999999999999989
10
-1181.9655042111092
20
-847.11591772871554
10
-1192.005866270003
20
-847.11591796314326
10
-1192.0058633131944
20
-823.31591796314319
10
-1181.6493317709874
20
-823.31591772133356
42
0.99999999999999989
10
-1180.0058637853217
20
-821.77455246665818
10
-1180.0058640318503
20
-811.21591768296094
10
-1169.807463217847
20
-811.2159174448434
42
0.99999999999999989
10
-1167.9058640748437
20
-809.37453747069503
10
-1167.9058643120322
20
-799.21591740044391
10
-1144.1058643120323
20
-799.21591684474936
10
-1144.105864095857
20
-808.47455607308223
42
0.99999999999999989
10
-1141.1470493321126
20
-811.21591677566539
10
-1109.8943571755665
20
-811.21591604596142
42
0.99999999999999989
10
-1107.9058640795133
20
-809.17453792767321
10
-1107.9058643120322
20
-799.21591599953319
10
-1084.1058643120323
20
-799.21591544383864
10
-1084.1058640318502
20
-811.21591544383841
10
-1084.00586403185
20
-811.21591544150363
0
CIRCLE
5
101
100
AcDbEntity
8
0
100
AcDbCircle
10
-1096.0058564202347
20
-1137.2159157216859
30
0
40
1.5000000000000038
210
0
220
0
230
1
0
CIRCLE
5
102
100
AcDbEntity
8
0
100
AcDbCircle
10
-1156.0058564202347
20
-1137.2159171225965
30
0
40
1.5000000000000038
210
0
220
0
230
1
0
CIRCLE
5
103
100
AcDbEntity
8
0
100
AcDbCircle
10
-1186.0058642455854
20
-1107.2159178230522
30
0
40
1.5000000000000038
210
0
220
0
230
1
0
CIRCLE
5
104
100
AcDbEntity
8
0
100
AcDbCircle
10
-1186.0058705963809
20
-835.21591782305222
30
0
40
1.5000000000000038
210
-0
220
0
230
1
0
CIRCLE
5
105
100
AcDbEntity
8
0
100
AcDbCircle
10
-1156.0058641719411
20
-805.21591712259669
30
0
40
1.5000000000000038
210
-0
220
0
230
1
0
CIRCLE
5
106
100
AcDbEntity
8
0
100
AcDbCircle
10
-1096.0058641719413
20
-805.21591572168575
30
0
40
1.5000000000000038
210
-0
220
0
230
1
0
CIRCLE
5
107
100
AcDbEntity
8
0
100
AcDbCircle
10
-1186.005860385495
20
-971.215917823052
30
0
40
1.5000000000000038
210
0
220
0
230
1
0
LINE
5
108
100
AcDbEntity
8
1
100
AcDbLine
10
-1153.9941766315853
20
-1113.1159173092483
30
0
11
-1153.9941766315853
21
-994.00001481175377
31
0
0
LINE
5
109
100
AcDbEntity
8
1
100
AcDbLine
10
-1153.9941766315853
20
-994.00001481175377
30
0
11
-1174.0058580583188
21
-994.00001481175377
31
0
0
LINE
5
110
100
AcDbEntity
8
1
100
AcDbLine
10
-1174.0058580583188
20
-994.00001481175377
30
0
11
-1174.0058580583188
21
-1113.1159173092483
31
0
0
LINE
5
111
100
AcDbEntity
8
1
100
AcDbLine
10
-1174.0058580583188
20
-1113.1159173092483
30
0
11
-1153.9941766315853
21
-1113.1159173092483
31
0
0
LINE
5
112
100
AcDbEntity
8
0
100
AcDbLine
10
-1170.1089290326688
20
-1110.9709173581241
30
0
11
-1170.1089290326688
21
-1112.5309173158048
31
0
0
LINE
5
113
100
AcDbEntity
8
0
100
AcDbLine
10
-1170.1089290326688
20
-1112.5309173158048
30
0
11
-1173.6189288443181
21
-1112.5309173158048
31
0
0
LINE
5
114
100
AcDbEntity
8
0
100
AcDbLine
10
-1173.6189288443181
20
-1112.5309173158048
30
0
11
-1173.6189288443181
21
-1110.9709173581241
31
0
0
LINE
5
115
100
AcDbEntity
8
0
100
AcDbLine
10
-1172.0589289611432
20
-1112.5309173158048
30
0
11
-1172.0589289611432
21
-1111.3609174034236
31
0
0
LINE
5
116
100
AcDbEntity
8
0
100
AcDbLine
10
-1170.1089290326688
20
-1110.0934176287292
30
0
11
-1170.1089290326688
21
-1108.9234174928306
31
0
0
LINE
5
117
100
AcDbEntity
8
0
100
AcDbLine
10
-1170.8889291232679
20
-1108.1434177002548
30
0
11
-1171.2789288705442
21
-1108.1434177002548
31
0
0
LINE
5
118
100
AcDbEntity
8
0
100
AcDbLine
10
-1172.0589289611432
20
-1108.9234174928306
30
0
11
-1172.0589289611432
21
-1110.0934176287292
31
0
0
LINE
5
119
100
AcDbEntity
8
0
100
AcDbLine
10
-1172.0589289611432
20
-1110.0934176287292
30
0
11
-1173.6189288443181
21
-1110.0934176287292
31
0
0
LINE
5
120
100
AcDbEntity
8
0
100
AcDbLine
10
-1173.6189288443181
20
-1110.0934176287292
30
0
11
-1173.6189288443181
21
-1108.1434177002548
31
0
0
ARC
5
121
100
AcDbEntity
8
0
100
AcDbCircle
10
-1170.7952920144651
20
-1108.8297803840278
30
0
40
0.69272071123123169
210
0
220
-0
230
1
100
AcDbArc
50
-7.7686291579643338
51
97.768616180841562
0
ARC
5
122
100
AcDbEntity
8
0
100
AcDbCircle
10
-1171.372565979347
20
-1108.8297803840278
30
0
40
0.69272071123123169
210
0
220
-0
230
1
100
AcDbArc
50
82.231380176695993
51
187.76861868530943
0
LINE
5
123
100
AcDbEntity
8
0
100
AcDbLine
10
-1170.1089290326688
20
-1106.9734172663329
30
0
11
-1170.1089290326688
21
-1107.1684174379943
31
0
0
LINE
5
124
100
AcDbEntity
8
0
100
AcDbLine
10
-1170.1089290326688
20
-1107.1684174379943
30
0
11
-1170.303928906307
21
-1107.1684174379943
31
0
0
LINE
5
125
100
AcDbEntity
8
0
100
AcDbLine
10
-1170.303928906307
20
-1107.1684174379943
30
0
11
-1170.303928906307
21
-1106.9734172663329
31
0
0
LINE
5
126
100
AcDbEntity
8
0
100
AcDbLine
10
-1170.303928906307
20
-1106.9734172663329
30
0
11
-1170.1089290326688
21
-1106.9734172663329
31
0
0
LINE
5
127
100
AcDbEntity
8
0
100
AcDbLine
10
-1170.1089290326688
20
-1106.9734172663329
30
0
11
-1169.3289289420698
21
-1107.265917523825
31
0
0
LINE
5
128
100
AcDbEntity
8
0
100
AcDbLine
10
-1170.1089290326688
20
-1104.3409173330901
30
0
11
-1172.4489290064428
21
-1104.3409173330901
31
0
0
LINE
5
129
100
AcDbEntity
8
0
100
AcDbLine
10
-1172.4489290064428
20
-1104.3409173330901
30
0
11
-1172.4489290064428
21
-1103.1709174952148
31
0
0
LINE
5
130
100
AcDbEntity
8
0
100
AcDbLine
10
-1172.4489290064428
20
-1103.1709174952148
30
0
11
-1172.0589289611432
21
-1103.1709174952148
31
0
0
LINE
5
131
100
AcDbEntity
8
0
100
AcDbLine
10
-1170.1089290326688
20
-1100.8309184155105
30
0
11
-1170.1089290326688
21
-1101.8059180817245
31
0
0
LINE
5
132
100
AcDbEntity
8
0
100
AcDbLine
10
-1170.6939289516065
20
-1102.3909174046157
30
0
11
-1171.6689290648553
21
-1102.3909174046157
31
0
0
LINE
5
133
100
AcDbEntity
8
0
100
AcDbLine
10
-1171.6689290648553
20
-1100.8309184155105
30
0
11
-1171.2789288705442
21
-1100.8309184155105
31
0
0
LINE
5
134
100
AcDbEntity
8
0
100
AcDbLine
10
-1171.2789288705442
20
-1100.8309184155105
30
0
11
-1171.2789288705442
21
-1102.3909174046157
31
0
0
ARC
5
135
100
AcDbEntity
8
0
100
AcDbCircle
10
-1170.623701269016
20
-1101.8761454662917
30
0
40
0.51954049617052078
210
0
220
-0
230
1
100
AcDbArc
50
-97.768611171886548
51
7.7686032037178281
0
ARC
5
136
100
AcDbEntity
8
0
100
AcDbCircle
10
-1171.6689290648553
20
-1101.6109179100631
30
0
40
0.78000001609325409
210
0
220
-0
230
1
100
AcDbArc
50
90
51
270.00000500895999
0
LINE
5
137
100
AcDbEntity
8
0
100
AcDbLine
10
-1171.4739290422056
20
-1098.2959185680984
30
0
11
-1171.4739290422056
21
-1099.1734181484817
31
0
0
LINE
5
138
100
AcDbEntity
8
0
100
AcDbLine
10
-1170.1089290326688
20
-1099.1734181484817
30
0
11
-1170.1089290326688
21
-1098.2959185680984
31
0
0
LINE
5
139
100
AcDbEntity
8
0
100
AcDbLine
10
-1170.1089290326688
20
-1098.2959185680984
30
0
11
-1171.8639289384935
21
-1098.2959185680984
31
0
0
LINE
5
140
100
AcDbEntity
8
0
100
AcDbLine
10
-1172.4489290064428
20
-1098.8809178909896
30
0
11
-1172.4489290064428
21
-1099.6609185776351
31
0
0
ARC
5
141
100
AcDbEntity
8
0
100
AcDbCircle
10
-1170.7914290374372
20
-1099.1734181484817
30
0
40
0.68249993026256561
210
0
220
-0
230
1
100
AcDbArc
50
-179.99999758516347
51
0
0
ARC
5
142
100
AcDbEntity
8
0
100
AcDbCircle
10
-1171.9341567700956
20
-1098.8106905064224
30
0
40
0.51954049617052078
210
0
220
-0
230
1
100
AcDbArc
50
82.231380176702714
51
187.76861868530091
0
LINE
5
143
100
AcDbEntity
8
0
100
AcDbLine
10
-1170.1089290326688
20
-1097.1259175381301
30
0
11
-1172.4489290064428
21
-1097.1259175381301
31
0
0
LINE
5
144
100
AcDbEntity
8
0
100
AcDbLine
10
-1172.4489290064428
20
-1097.1259175381301
30
0
11
-1172.4489290064428
21
-1095.9559177002548
31
0
0
LINE
5
145
100
AcDbEntity
8
0
100
AcDbLine
10
-1172.4489290064428
20
-1095.9559177002548
30
0
11
-1172.0589289611432
21
-1095.9559177002548
31
0
0
LINE
5
146
100
AcDbEntity
8
0
100
AcDbLine
10
-1168.9389291947934
20
-1093.5184179386733
30
0
11
-1172.4489290064428
21
-1093.5184179386733
31
0
0
LINE
5
147
100
AcDbEntity
8
0
100
AcDbLine
10
-1172.4489290064428
20
-1093.5184179386733
30
0
11
-1172.4489290064428
21
-1092.5434194645522
31
0
0
LINE
5
148
100
AcDbEntity
8
0
100
AcDbLine
10
-1171.8639289384935
20
-1091.9584189495681
30
0
11
-1170.6939289516065
21
-1091.9584189495681
31
0
0
LINE
5
149
100
AcDbEntity
8
0
100
AcDbLine
10
-1170.1089290326688
20
-1092.5434194645522
30
0
11
-1170.1089290326688
21
-1093.5184179386733
31
0
0
ARC
5
150
100
AcDbEntity
8
0
100
AcDbCircle
10
-1171.9341567700956
20
-1092.4731908878921
30
0
40
0.51954049617052078
210
0
220
-0
230
1
100
AcDbArc
50
82.231380176702714
51
187.76861868530091
0
ARC
5
151
100
AcDbEntity
8
0
100
AcDbCircle
10
-1170.623701269016
20
-1092.4731908878921
30
0
40
0.51954049617052078
210
0
220
-0
230
1
100
AcDbArc
50
-7.7686291579636721
51
97.768616180828346
0
LINE
5
152
100
AcDbEntity
8
0
100
AcDbLine
10
-1170.1089290326688
20
-1089.423419102156
30
0
11
-1170.1089290326688
21
-1090.3984199604629
31
0
0
LINE
5
153
100
AcDbEntity
8
0
100
AcDbLine
10
-1170.6939289516065
20
-1090.983420475447
30
0
11
-1171.6689290648553
21
-1090.983420475447
31
0
0
LINE
5
154
100
AcDbEntity
8
0
100
AcDbLine
10
-1171.6689290648553
20
-1089.423419102156
30
0
11
-1171.2789288705442
21
-1089.423419102156
31
0
0
LINE
5
155
100
AcDbEntity
8
0
100
AcDbLine
10
-1171.2789288705442
20
-1089.423419102156
30
0
11
-1171.2789288705442
21
-1090.983420475447
31
0
0
ARC
5
156
100
AcDbEntity
8
0
100
AcDbCircle
10
-1170.623701269016
20
-1090.468648537123
30
0
40
0.51954049617052078
210
0
220
-0
230
1
100
AcDbArc
50
-97.768611171886548
51
7.7686032037178281
0
ARC
5
157
100
AcDbEntity
8
0
100
AcDbCircle
10
-1171.6689290648553
20
-1090.2034197888015
30
0
40
0.78000001609325409
210
0
220
-0
230
1
100
AcDbArc
50
90
51
270.00000500895999
0
LINE
5
158
100
AcDbEntity
8
0
100
AcDbLine
10
-1173.6189288443181
20
-1086.8884192547439
30
0
11
-1170.1089290326688
21
-1086.8884192547439
31
0
0
LINE
5
159
100
AcDbEntity
8
0
100
AcDbLine
10
-1170.1089290326688
20
-1086.8884192547439
30
0
11
-1170.1089290326688
21
-1087.8634201130508
31
0
0
LINE
5
160
100
AcDbEntity
8
0
100
AcDbLine
10
-1170.6939289516065
20
-1088.4484206280349
30
0
11
-1171.8639289384935
21
-1088.4484206280349
31
0
0
LINE
5
161
100
AcDbEntity
8
0
100
AcDbLine
10
-1172.4489290064428
20
-1087.8634201130508
30
0
11
-1172.4489290064428
21
-1086.8884192547439
31
0
0
ARC
5
162
100
AcDbEntity
8
0
100
AcDbCircle
10
-1170.623701269016
20
-1087.9336486897109
30
0
40
0.51954049617052078
210
0
220
-0
230
1
100
AcDbArc
50
-97.768611171886548
51
7.7686032037178281
0
ARC
5
163
100
AcDbEntity
8
0
100
AcDbCircle
10
-1171.9341567700956
20
-1087.9336486897109
30
0
40
0.51954049617052078
210
0
220
-0
230
1
100
AcDbArc
50
172.23138632364424
51
277.76862118980176
0
LINE
5
164
100
AcDbEntity
8
0
100
AcDbLine
10
-1171.4739290422056
20
-1084.255920513594
30
0
11
-1171.4739290422056
21
-1085.1334200939773
31
0
0
LINE
5
165
100
AcDbEntity
8
0
100
AcDbLine
10
-1170.1089290326688
20
-1085.1334200939773
30
0
11
-1170.1089290326688
21
-1084.255920513594
31
0
0
LINE
5
166
100
AcDbEntity
8
0
100
AcDbLine
10
-1170.1089290326688
20
-1084.255920513594
30
0
11
-1171.8639289384935
21
-1084.255920513594
31
0
0
LINE
5
167
100
AcDbEntity
8
0
100
AcDbLine
10
-1172.4489290064428
20
-1084.8409210285781
30
0
11
-1172.4489290064428
21
-1085.6209217152236
31
0
0
ARC
5
168
100
AcDbEntity
8
0
100
AcDbCircle
10
-1170.7914290374372
20
-1085.1334200939773
30
0
40
0.68249993026256561
210
0
220
-0
230
1
100
AcDbArc
50
-179.99999758516347
51
0
0
ARC
5
169
100
AcDbEntity
8
0
100
AcDbCircle
10
-1171.9341567700956
20
-1084.770692451918
30
0
40
0.51954049617052078
210
0
220
-0
230
1
100
AcDbArc
50
82.231380176702714
51
187.76861868530091
0
LINE
5
170
100
AcDbEntity
8
0
100
AcDbLine
10
-1173.6189288443181
20
-1083.0859218678115
30
0
11
-1170.6939289516065
21
-1083.0859218678115
31
0
0
ARC
5
171
100
AcDbEntity
8
0
100
AcDbCircle
10
-1170.623701269016
20
-1082.5711499294875
30
0
40
0.51954049617052078
210
0
220
-0
230
1
100
AcDbArc
50
-97.768611171886548
51
7.7686032037178281
0
LINE
5
172
100
AcDbEntity
8
0
100
AcDbLine
10
-1173.6189288443181
20
-1079.9659238896011
30
0
11
-1170.1089290326688
21
-1079.9659238896011
31
0
0
LINE
5
173
100
AcDbEntity
8
0
100
AcDbLine
10
-1170.1089290326688
20
-1079.9659238896011
30
0
11
-1170.1089290326688
21
-1078.99092541548
31
0
0
LINE
5
174
100
AcDbEntity
8
0
100
AcDbLine
10
-1170.6939289516065
20
-1078.4059249004958
30
0
11
-1171.8639289384935
21
-1078.4059249004958
31
0
0
LINE
5
175
100
AcDbEntity
8
0
100
AcDbLine
10
-1172.4489290064428
20
-1078.99092541548
30
0
11
-1172.4489290064428
21
-1079.9659238896011
31
0
0
ARC
5
176
100
AcDbEntity
8
0
100
AcDbCircle
10
-1170.623701269016
20
-1078.9206968388198
30
0
40
0.51954049617052078
210
0
220
-0
230
1
100
AcDbArc
50
-7.7686291579636721
51
97.768616180828346
0
ARC
5
177
100
AcDbEntity
8
0
100
AcDbCircle
10
-1171.9341567700956
20
-1078.9206968388198
30
0
40
0.51954049617052078
210
0
220
-0
230
1
100
AcDbArc
50
82.231380176702714
51
187.76861868530091
0
LINE
5
178
100
AcDbEntity
8
0
100
AcDbLine
10
-1170.1089290326688
20
-1077.3334251484512
30
0
11
-1172.4489290064428
21
-1077.3334251484512
31
0
0
LINE
5
179
100
AcDbEntity
8
0
100
AcDbLine
10
-1172.4489290064428
20
-1077.3334251484512
30
0
11
-1172.4489290064428
21
-1076.1634265026687
31
0
0
LINE
5
180
100
AcDbEntity
8
0
100
AcDbLine
10
-1172.4489290064428
20
-1076.1634265026687
30
0
11
-1172.0589289611432
21
-1076.1634265026687
31
0
0
LINE
5
181
100
AcDbEntity
8
0
100
AcDbLine
10
-1171.4739290422056
20
-1073.8234244427322
30
0
11
-1171.4739290422056
21
-1074.7009240231155
31
0
0
LINE
5
182
100
AcDbEntity
8
0
100
AcDbLine
10
-1170.1089290326688
20
-1074.7009240231155
30
0
11
-1170.1089290326688
21
-1073.8234244427322
31
0
0
LINE
5
183
100
AcDbEntity
8
0
100
AcDbLine
10
-1170.1089290326688
20
-1073.8234244427322
30
0
11
-1171.8639289384935
21
-1073.8234244427322
31
0
0
LINE
5
184
100
AcDbEntity
8
0
100
AcDbLine
10
-1172.4489290064428
20
-1074.4084249577163
30
0
11
-1172.4489290064428
21
-1075.1884256443618
31
0
0
ARC
5
185
100
AcDbEntity
8
0
100
AcDbCircle
10
-1170.7914290374372
20
-1074.7009240231155
30
0
40
0.68249993026256561
210
0
220
-0
230
1
100
AcDbArc
50
-179.99999758516347
51
0
0
ARC
5
186
100
AcDbEntity
8
0
100
AcDbCircle
10
-1171.9341567700956
20
-1074.3381963810562
30
0
40
0.51954049617052078
210
0
220
-0
230
1
100
AcDbArc
50
82.231380176702714
51
187.76861868530091
0
LINE
5
187
100
AcDbEntity
8
0
100
AcDbLine
10
-1170.1089290326688
20
-1071.3859282574294
30
0
11
-1170.1089290326688
21
-1072.1659241757034
31
0
0
LINE
5
188
100
AcDbEntity
8
0
100
AcDbLine
10
-1170.6939289516065
20
-1072.7509270748733
30
0
11
-1171.8639289384935
21
-1072.7509270748733
31
0
0
LINE
5
189
100
AcDbEntity
8
0
100
AcDbLine
10
-1172.4489290064428
20
-1072.1659241757034
30
0
11
-1172.4489290064428
21
-1071.3859282574294
31
0
0
ARC
5
190
100
AcDbEntity
8
0
100
AcDbCircle
10
-1170.623701269016
20
-1072.2361527523635
30
0
40
0.51954049617052067
210
0
220
-0
230
1
100
AcDbArc
50
-97.768611171886548
51
7.7686032037178281
0
ARC
5
191
100
AcDbEntity
8
0
100
AcDbCircle
10
-1171.9341567700956
20
-1072.2361527523635
30
0
40
0.51954049617052067
210
0
220
-0
230
1
100
AcDbArc
50
172.23138632364424
51
277.76862118980176
0
LINE
5
192
100
AcDbEntity
8
0
100
AcDbLine
10
-1170.1089290326688
20
-1070.4109297833083
30
0
11
-1173.6189288443181
21
-1070.4109297833083
31
0
0
LINE
5
193
100
AcDbEntity
8
0
100
AcDbLine
10
-1172.4489290064428
20
-1068.8509284100173
30
0
11
-1171.2789288705442
21
-1070.4109297833083
31
0
0
LINE
5
194
100
AcDbEntity
8
0
100
AcDbLine
10
-1170.1089290326688
20
-1068.8509284100173
30
0
11
-1171.7664290016744
21
-1069.7284279904006
31
0
0
LINE
5
195
100
AcDbEntity
8
0
100
AcDbLine
10
-1170.1089290326688
20
-1066.413427456343
30
0
11
-1170.1089290326688
21
-1067.3884259304641
31
0
0
LINE
5
196
100
AcDbEntity
8
0
100
AcDbLine
10
-1170.6939289516065
20
-1067.973428829634
30
0
11
-1171.6689290648553
21
-1067.973428829634
31
0
0
LINE
5
197
100
AcDbEntity
8
0
100
AcDbLine
10
-1171.6689290648553
20
-1066.413427456343
30
0
11
-1171.2789288705442
21
-1066.413427456343
31
0
0
LINE
5
198
100
AcDbEntity
8
0
100
AcDbLine
10
-1171.2789288705442
20
-1066.413427456343
30
0
11
-1171.2789288705442
21
-1067.973428829634
31
0
0
ARC
5
199
100
AcDbEntity
8
0
100
AcDbCircle
10
-1170.623701269016
20
-1067.4586545071243
30
0
40
0.51954049617052067
210
0
220
-0
230
1
100
AcDbArc
50
-97.768611171886548
51
7.7686032037178281
0
ARC
5
200
100
AcDbEntity
8
0
100
AcDbCircle
10
-1171.6689290648553
20
-1067.1934281429885
30
0
40
0.78000001609325409
210
0
220
-0
230
1
100
AcDbArc
50
90
51
270.00000500895999
0
LINE
5
201
100
AcDbEntity
8
0
100
AcDbLine
10
-1172.4489290064428
20
-1065.6334267696975
30
0
11
-1172.4489290064428
21
-1064.4634305081008
31
0
0
LINE
5
202
100
AcDbEntity
8
0
100
AcDbLine
10
-1173.6189288443181
20
-1065.2434264263748
30
0
11
-1170.6939289516065
21
-1065.2434264263748
31
0
0
LINE
5
203
100
AcDbEntity
8
0
100
AcDbLine
10
-1170.1089290326688
20
-1064.6584282955764
30
0
11
-1170.1089290326688
21
-1064.4634305081008
31
0
0
ARC
5
204
100
AcDbEntity
8
0
100
AcDbCircle
10
-1170.623701269016
20
-1064.7286568722366
30
0
40
0.51954049617052067
210
0
220
-0
230
1
100
AcDbArc
50
-97.768611171886548
51
7.7686032037178281
0
LINE
5
205
100
AcDbEntity
8
0
100
AcDbLine
10
-1171.083928996906
20
-1060.7584296307205
30
0
11
-1171.4739290422056
21
-1061.7334281048416
31
0
0
ARC
5
206
100
AcDbEntity
8
0
100
AcDbCircle
10
-1171.9491419738386
20
-1061.5744935116409
30
0
40
0.50108645111322392
210
0
220
-0
230
1
100
AcDbArc
50
175.87258749091862
51
341.50753671300453
0
ARC
5
207
100
AcDbEntity
8
0
100
AcDbCircle
10
-1170.6377777999494
20
-1061.4804898342727
30
0
40
1.8120776116847992
210
0
220
-0
230
1
100
AcDbArc
50
153.11012147802808
51
181.83226222103016
0
ARC
5
208
100
AcDbEntity
8
0
100
AcDbCircle
10
-1170.6095979159925
20
-1060.9217749676345
30
0
40
0.5016685277223587
210
0
220
-0
230
1
100
AcDbArc
50
-3.6178685578280674
51
160.99800642212745
0
ARC
5
209
100
AcDbEntity
8
0
100
AcDbCircle
10
-1172.1735896712396
20
-1061.1320124706863
30
0
40
2.0723696053028107
210
0
220
-0
230
1
100
AcDbArc
50
-25.553239643383922
51
4.943527679961953
0
LINE
5
210
100
AcDbEntity
8
0
100
AcDbLine
10
-1172.4489290064428
20
-1059.68592749449
30
0
11
-1172.4489290064428
21
-1058.5159312328933
31
0
0
LINE
5
211
100
AcDbEntity
8
0
100
AcDbLine
10
-1173.6189288443181
20
-1059.2959271511672
30
0
11
-1170.6939289516065
21
-1059.2959271511672
31
0
0
LINE
5
212
100
AcDbEntity
8
0
100
AcDbLine
10
-1170.1089290326688
20
-1058.7109290203689
30
0
11
-1170.1089290326688
21
-1058.5159312328933
31
0
0
ARC
5
213
100
AcDbEntity
8
0
100
AcDbCircle
10
-1170.623701269016
20
-1058.7811575970291
30
0
40
0.51954049617052067
210
0
220
-0
230
1
100
AcDbArc
50
-97.768611171886548
51
7.7686032037178281
0
LINE
5
214
100
AcDbEntity
8
0
100
AcDbLine
10
-1170.1089290326688
20
-1057.5409327587722
30
0
11
-1172.4489290064428
21
-1057.5409327587722
31
0
0
LINE
5
215
100
AcDbEntity
8
0
100
AcDbLine
10
-1173.42392897068
20
-1057.63843165251
30
0
11
-1173.6189288443181
21
-1057.63843165251
31
0
0
LINE
5
216
100
AcDbEntity
8
0
100
AcDbLine
10
-1173.6189288443181
20
-1057.63843165251
30
0
11
-1173.6189288443181
21
-1057.4434290966628
31
0
0
LINE
5
217
100
AcDbEntity
8
0
100
AcDbLine
10
-1173.6189288443181
20
-1057.4434290966628
30
0
11
-1173.42392897068
21
-1057.4434290966628
31
0
0
LINE
5
218
100
AcDbEntity
8
0
100
AcDbLine
10
-1173.42392897068
20
-1057.4434290966628
30
0
11
-1173.42392897068
21
-1057.63843165251
31
0
0
LINE
5
219
100
AcDbEntity
8
0
100
AcDbLine
10
-1170.1089290326688
20
-1056.2734280666946
30
0
11
-1173.0339289253805
21
-1056.2734280666946
31
0
0
LINE
5
220
100
AcDbEntity
8
0
100
AcDbLine
10
-1173.6189288443181
20
-1055.6884299358962
30
0
11
-1173.6189288443181
21
-1055.4934321484207
31
0
0
LINE
5
221
100
AcDbEntity
8
0
100
AcDbLine
10
-1172.4489290064428
20
-1056.6634284100173
30
0
11
-1172.4489290064428
21
-1055.4934321484207
31
0
0
ARC
5
222
100
AcDbEntity
8
0
100
AcDbCircle
10
-1173.1041566079709
20
-1055.7586585125564
30
0
40
0.51954049617052067
210
0
220
-0
230
1
100
AcDbArc
50
172.23138632364424
51
277.76862118980176
0
LINE
5
223
100
AcDbEntity
8
0
100
AcDbLine
10
-1170.1089290326688
20
-1054.6159277996658
30
0
11
-1173.0339289253805
21
-1054.6159277996658
31
0
0
LINE
5
224
100
AcDbEntity
8
0
100
AcDbLine
10
-1173.6189288443181
20
-1054.0309296688674
30
0
11
-1173.6189288443181
21
-1053.8359318813918
31
0
0
LINE
5
225
100
AcDbEntity
8
0
100
AcDbLine
10
-1172.4489290064428
20
-1055.0059281429885
30
0
11
-1172.4489290064428
21
-1053.8359318813918
31
0
0
ARC
5
226
100
AcDbEntity
8
0
100
AcDbCircle
10
-1173.1041566079709
20
-1054.1011582455276
30
0
40
0.51954049617052067
210
0
220
-0
230
1
100
AcDbArc
50
172.23138632364424
51
277.76862118980176
0
LINE
5
227
100
AcDbEntity
8
0
100
AcDbLine
10
-1170.1089290326688
20
-1051.5934287151931
30
0
11
-1170.1089290326688
21
-1052.5684271893142
31
0
0
LINE
5
228
100
AcDbEntity
8
0
100
AcDbLine
10
-1170.6939289516065
20
-1053.1534300884841
30
0
11
-1171.6689290648553
21
-1053.1534300884841
31
0
0
LINE
5
229
100
AcDbEntity
8
0
100
AcDbLine
10
-1171.6689290648553
20
-1051.5934287151931
30
0
11
-1171.2789288705442
21
-1051.5934287151931
31
0
0
LINE
5
230
100
AcDbEntity
8
0
100
AcDbLine
10
-1171.2789288705442
20
-1051.5934287151931
30
0
11
-1171.2789288705442
21
-1053.1534300884841
31
0
0
ARC
5
231
100
AcDbEntity
8
0
100
AcDbCircle
10
-1170.623701269016
20
-1052.6386557659744
30
0
40
0.51954049617052067
210
0
220
-0
230
1
100
AcDbArc
50
-97.768611171886548
51
7.7686032037178281
0
ARC
5
232
100
AcDbEntity
8
0
100
AcDbCircle
10
-1171.6689290648553
20
-1052.3734294018386
30
0
40
0.78000001609325409
210
0
220
-0
230
1
100
AcDbArc
50
90
51
270.00000500895999
0
LINE
5
233
100
AcDbEntity
8
0
100
AcDbLine
10
-1170.1089290326688
20
-1050.5209313473342
30
0
11
-1172.4489290064428
21
-1050.5209313473342
31
0
0
LINE
5
234
100
AcDbEntity
8
0
100
AcDbLine
10
-1172.4489290064428
20
-1050.5209313473342
30
0
11
-1172.4489290064428
21
-1049.5459281048416
31
0
0
LINE
5
235
100
AcDbEntity
8
0
100
AcDbLine
10
-1171.8639289384935
20
-1048.9609299740432
30
0
11
-1170.1089290326688
21
-1048.9609299740432
31
0
0
ARC
5
236
100
AcDbEntity
8
0
100
AcDbCircle
10
-1171.9341567700956
20
-1049.4756995281814
30
0
40
0.51954049617052067
210
0
220
-0
230
1
100
AcDbArc
50
82.231380176702714
51
187.76861868530091
0
LINE
5
237
100
AcDbEntity
8
0
100
AcDbLine
10
-1170.1089290326688
20
-1046.3284312328933
30
0
11
-1170.1089290326688
21
-1047.3034297070144
31
0
0
LINE
5
238
100
AcDbEntity
8
0
100
AcDbLine
10
-1170.6939289516065
20
-1047.8884326061843
30
0
11
-1171.6689290648553
21
-1047.8884326061843
31
0
0
LINE
5
239
100
AcDbEntity
8
0
100
AcDbLine
10
-1171.6689290648553
20
-1046.3284312328933
30
0
11
-1171.2789288705442
21
-1046.3284312328933
31
0
0
LINE
5
240
100
AcDbEntity
8
0
100
AcDbLine
10
-1171.2789288705442
20
-1046.3284312328933
30
0
11
-1171.2789288705442
21
-1047.8884326061843
31
0
0
ARC
5
241
100
AcDbEntity
8
0
100
AcDbCircle
10
-1170.623701269016
20
-1047.3736582836746
30
0
40
0.51954049617052067
210
0
220
-0
230
1
100
AcDbArc
50
-97.768611171886548
51
7.7686032037178281
0
ARC
5
242
100
AcDbEntity
8
0
100
AcDbCircle
10
-1171.6689290648553
20
-1047.1084319195388
30
0
40
0.78000001609325409
210
0
220
-0
230
1
100
AcDbArc
50
90
51
270.00000500895999
0
LINE
5
243
100
AcDbEntity
8
0
100
AcDbLine
10
-1170.1089290326688
20
-1045.2559338650344
30
0
11
-1172.4489290064428
21
-1045.2559338650344
31
0
0
LINE
5
244
100
AcDbEntity
8
0
100
AcDbLine
10
-1172.4489290064428
20
-1045.2559338650344
30
0
11
-1172.4489290064428
21
-1044.0859328350662
31
0
0
LINE
5
245
100
AcDbEntity
8
0
100
AcDbLine
10
-1172.4489290064428
20
-1044.0859328350662
30
0
11
-1172.0589289611432
21
-1044.0859328350662
31
0
0
LINE
5
246
100
AcDbEntity
8
0
100
AcDbLine
10
-1170.1089290326688
20
-1043.1109295925735
30
0
11
-1170.1089290326688
21
-1043.3059321484207
31
0
0
LINE
5
247
100
AcDbEntity
8
0
100
AcDbLine
10
-1170.1089290326688
20
-1043.3059321484207
30
0
11
-1170.303928906307
21
-1043.3059321484207
31
0
0
LINE
5
248
100
AcDbEntity
8
0
100
AcDbLine
10
-1170.303928906307
20
-1043.3059321484207
30
0
11
-1170.303928906307
21
-1043.1109295925735
31
0
0
LINE
5
249
100
AcDbEntity
8
0
100
AcDbLine
10
-1170.303928906307
20
-1043.1109295925735
30
0
11
-1170.1089290326688
21
-1043.1109295925735
31
0
0
LINE
5
250
100
AcDbEntity
8
0
100
AcDbLine
10
-1170.1089290326688
20
-1043.1109295925735
30
0
11
-1169.3289289420698
21
-1043.4034310421584
31
0
0
LINE
5
251
100
AcDbEntity
8
0
100
AcDbLine
10
-1172.8389287537191
20
-1040.5759297451614
30
0
11
-1173.6189288443181
21
-1039.6009312710403
31
0
0
LINE
5
252
100
AcDbEntity
8
0
100
AcDbLine
10
-1173.6189288443181
20
-1039.6009312710403
30
0
11
-1170.1089290326688
21
-1039.6009312710403
31
0
0
LINE
5
253
100
AcDbEntity
8
0
100
AcDbLine
10
-1170.1089290326688
20
-1040.5759297451614
30
0
11
-1170.1089290326688
21
-1038.6259280285476
31
0
0
LINE
5
254
100
AcDbEntity
8
0
100
AcDbLine
10
-1170.1089290326688
20
-1036.1884270748733
30
0
11
-1172.4489290064428
21
-1034.6284257015823
31
0
0
LINE
5
255
100
AcDbEntity
8
0
100
AcDbLine
10
-1172.4489290064428
20
-1036.1884270748733
30
0
11
-1170.1089290326688
21
-1034.6284257015823
31
0
0
LINE
5
256
100
AcDbEntity
8
0
100
AcDbLine
10
-1172.0589289611432
20
-1032.1909295162795
30
0
11
-1172.0589289611432
21
-1031.0209332546829
31
0
0
LINE
5
257
100
AcDbEntity
8
0
100
AcDbLine
10
-1171.2789288705442
20
-1030.2409325680374
30
0
11
-1171.083928996906
21
-1030.2409325680374
31
0
0
LINE
5
258
100
AcDbEntity
8
0
100
AcDbLine
10
-1171.083928996906
20
-1032.1909295162795
30
0
11
-1172.0589289611432
21
-1032.1909295162795
31
0
0
ARC
5
259
100
AcDbEntity
8
0
100
AcDbCircle
10
-1171.372565979347
20
-1030.9272919735549
30
0
40
0.69272071123123169
210
0
220
-0
230
1
100
AcDbArc
50
82.231380176695993
51
187.76861868530943
0
ARC
5
260
100
AcDbEntity
8
0
100
AcDbCircle
10
-1171.083928996906
20
-1031.2159310421584
30
0
40
0.97499996423721313
210
0
220
-0
230
1
100
AcDbArc
50
-89.999994991033034
51
90
0
ARC
5
261
100
AcDbEntity
8
0
100
AcDbCircle
10
-1172.2462030297372
20
-1030.8182011685012
30
0
40
1.3854414224624634
210
0
220
-0
230
1
100
AcDbArc
50
172.23138632363322
51
277.76862118979346
0
LINE
5
262
100
AcDbEntity
8
0
100
AcDbLine
10
-1170.1089290326688
20
-1027.6084290585159
30
0
11
-1172.4489290064428
21
-1027.6084290585159
31
0
0
LINE
5
263
100
AcDbEntity
8
0
100
AcDbLine
10
-1172.4489290064428
20
-1027.6084290585159
30
0
11
-1172.4489290064428
21
-1025.8534298977493
31
0
0
LINE
5
264
100
AcDbEntity
8
0
100
AcDbLine
10
-1171.8639289384935
20
-1025.2684365353225
30
0
11
-1170.1089290326688
21
-1025.2684365353225
31
0
0
LINE
5
265
100
AcDbEntity
8
0
100
AcDbLine
10
-1170.1089290326688
20
-1026.4384327969192
30
0
11
-1172.4489290064428
21
-1026.4384327969192
31
0
0
ARC
5
266
100
AcDbEntity
8
0
100
AcDbCircle
10
-1171.9341567700956
20
-1025.7832013210891
30
0
40
0.51954049617052067
210
0
220
-0
230
1
100
AcDbArc
50
82.231380176702714
51
187.76861868530091
0
LINE
5
267
100
AcDbEntity
8
0
100
AcDbLine
10
-1170.1089290326688
20
-1024.0984307369827
30
0
11
-1172.4489290064428
21
-1024.0984307369827
31
0
0
LINE
5
268
100
AcDbEntity
8
0
100
AcDbLine
10
-1172.4489290064428
20
-1024.0984307369827
30
0
11
-1172.4489290064428
21
-1022.3434315762159
31
0
0
LINE
5
269
100
AcDbEntity
8
0
100
AcDbLine
10
-1171.8639289384935
20
-1021.7584382137892
30
0
11
-1170.1089290326688
21
-1021.7584382137892
31
0
0
LINE
5
270
100
AcDbEntity
8
0
100
AcDbLine
10
-1170.1089290326688
20
-1022.9284344753859
30
0
11
-1172.4489290064428
21
-1022.9284344753859
31
0
0
ARC
5
271
100
AcDbEntity
8
0
100
AcDbCircle
10
-1171.9341567700956
20
-1022.2732029995558
30
0
40
0.51954049617052067
210
0
220
-0
230
1
100
AcDbArc
50
82.231380176699318
51
187.76861868531336
0
LINE
5
272
100
AcDbEntity
8
0
100
AcDbLine
10
-1168.9389291947934
20
-1019.0284310421583
30
0
11
-1172.4489290064428
21
-1019.0284310421583
31
0
0
LINE
5
273
100
AcDbEntity
8
0
100
AcDbLine
10
-1172.4489290064428
20
-1019.0284310421583
30
0
11
-1172.4489290064428
21
-1018.0534325680372
31
0
0
LINE
5
274
100
AcDbEntity
8
0
100
AcDbLine
10
-1171.8639289384935
20
-1017.4684296688673
30
0
11
-1170.6939289516065
21
-1017.4684296688673
31
0
0
LINE
5
275
100
AcDbEntity
8
0
100
AcDbLine
10
-1170.1089290326688
20
-1018.0534325680372
30
0
11
-1170.1089290326688
21
-1019.0284310421583
31
0
0
ARC
5
276
100
AcDbEntity
8
0
100
AcDbCircle
10
-1171.9341567700956
20
-1017.9832039913771
30
0
40
0.51954049617052067
210
0
220
-0
230
1
100
AcDbArc
50
82.231380176699318
51
187.76861868531336
0
ARC
5
277
100
AcDbEntity
8
0
100
AcDbCircle
10
-1170.623701269016
20
-1017.9832039913771
30
0
40
0.51954049617052067
210
0
220
-0
230
1
100
AcDbArc
50
-7.7686291579760889
51
97.768616180830051
0
LINE
5
278
100
AcDbEntity
8
0
100
AcDbLine
10
-1173.6189288443181
20
-1016.3959275326368
30
0
11
-1170.6939289516065
21
-1016.3959275326368
31
0
0
ARC
5
279
100
AcDbEntity
8
0
100
AcDbCircle
10
-1170.623701269016
20
-1015.8811627468702
30
0
40
0.51954049617052067
210
0
220
-0
230
1
100
AcDbArc
50
-97.768611171884814
51
7.7686032037054051
0
LINE
5
280
100
AcDbEntity
8
0
100
AcDbLine
10
-1168.9389291947934
20
-1015.0309334835646
30
0
11
-1168.9389291947934
21
-1014.6409283718702
31
0
0
LINE
5
281
100
AcDbEntity
8
0
100
AcDbLine
10
-1168.9389291947934
20
-1014.6409283718702
30
0
11
-1172.4489290064428
21
-1013.4709321102736
31
0
0
LINE
5
282
100
AcDbEntity
8
0
100
AcDbLine
10
-1172.4489290064428
20
-1015.0309334835646
30
0
11
-1170.1089290326688
21
-1014.2509327969191
31
0
0
ENDSEC
0
SECTION
2
OBJECTS
0
DICTIONARY
5
C
100
AcDbDictionary
3
ACAD_GROUP
350
D
3
ACAD_MLINESTYLE
350
17
0
DICTIONARY
5
D
100
AcDbDictionary
0
DICTIONARY
5
1A
330
C
100
AcDbDictionary
0
DICTIONARY
5
17
100
AcDbDictionary
0
ENDSEC
0
EOF
