0
SECTION
2
HEADER
9
$INSUNITS
70
4
9
$ACADVER
1
AC1014
9
$HANDSEED
5
FFFF
0
ENDSEC
0
SECTION
2
TABLES
0
TABLE
2
VPORT
5
8
100
AcDbSymbolTable
0
ENDTAB
0
TABLE
2
LTYPE
5
5
100
AcDbSymbolTable
0
LTYPE
5
14
100
AcDbSymbolTableRecord
100
AcDbLinetypeTableRecord
2
BYBLOCK
70
0
0
LTYPE
5
15
100
AcDbSymbolTableRecord
100
AcDbLinetypeTableRecord
2
BYLAYER
70
0
0
LTYPE
5
16
100
AcDbSymbolTableRecord
100
AcDbLinetypeTableRecord
2
DASHED
70
0
3
Dashed __ __ __ __ __ __ __ __ __ __ __ __ __ _
72
65
73
2
40
0.75
49
0.5
74
0
49
-0.25
74
0
0
ENDTAB
0
TABLE
2
LAYER
5
2
100
AcDbSymbolTable
70
3
0
LAYER
5
50
100
AcDbSymbolTableRecord
100
AcDbLayerTableRecord
2
1
70
0
62
7
6
DASHED
0
LAYER
5
51
100
AcDbSymbolTableRecord
100
AcDbLayerTableRecord
2
0
70
0
62
7
6
CONTINUOUS
0
ENDTAB
0
TABLE
2
STYLE
5
3
100
AcDbSymbolTable
70
1
0
STYLE
5
11
100
AcDbSymbolTableRecord
100
AcDbTextStyleTableRecord
2
STANDARD
70
0
0
ENDTAB
0
TABLE
2
VIEW
5
6
100
AcDbSymbolTable
70
0
0
ENDTAB
0
TABLE
2
UCS
5
7
100
AcDbSymbolTable
70
0
0
ENDTAB
0
TABLE
2
APPID
5
9
100
AcDbSymbolTable
70
2
0
APPID
5
12
100
AcDbSymbolTableRecord
100
AcDbRegAppTableRecord
2
ACAD
70
0
0
ENDTAB
0
TABLE
2
DIMSTYLE
5
A
100
AcDbSymbolTable
70
1
0
ENDTAB
0
TABLE
2
BLOCK_RECORD
5
1
100
AcDbSymbolTable
70
1
0
BLOCK_RECORD
5
1F
100
AcDbSymbolTableRecord
100
AcDbBlockTableRecord
2
*MODEL_SPACE
0
BLOCK_RECORD
5
1B
100
AcDbSymbolTableRecord
100
AcDbBlockTableRecord
2
*PAPER_SPACE
0
ENDTAB
0
ENDSEC
0
SECTION
2
BLOCKS
0
BLOCK
5
20
100
AcDbEntity
100
AcDbBlockBegin
2
*MODEL_SPACE
0
ENDBLK
5
21
100
AcDbEntity
100
AcDbBlockEnd
0
BLOCK
5
1C
100
AcDbEntity
100
AcDbBlockBegin
2
*PAPER_SPACE
0
ENDBLK
5
1D
100
AcDbEntity
100
AcDbBlockEnd
0
ENDSEC
0
SECTION
2
ENTITIES
0
CIRCLE
5
100
100
AcDbEntity
8
0
100
AcDbCircle
10
-805.98867611936089
20
-2167.9051882503163
30
0
40
1.4999999999999858
210
-1.3625712254995517e-64
220
1.1247430875221457e-31
230
1
0
CIRCLE
5
101
100
AcDbEntity
8
0
100
AcDbCircle
10
-749.98867611936078
20
-2167.9051882503163
30
0
40
1.4999999999999858
210
-1.3625712254995517e-64
220
1.1247430875221457e-31
230
1
0
CIRCLE
5
102
100
AcDbEntity
8
0
100
AcDbCircle
10
-839.98867611936078
20
-2167.9051882503163
30
0
40
1.4999999999999858
210
-1.3625712254995517e-64
220
1.1247430875221457e-31
230
1
0
CIRCLE
5
103
100
AcDbEntity
8
0
100
AcDbCircle
10
-783.98867611936089
20
-2167.9051882503163
30
0
40
1.4999999999999858
210
-1.3625712254995517e-64
220
1.1247430875221457e-31
230
1
0
CIRCLE
5
104
100
AcDbEntity
8
0
100
AcDbCircle
10
-851.48867611936066
20
-2350.3806638908536
30
0
40
1.4999999999999858
210
-1.3625712254995517e-64
220
1.1247430875221457e-31
230
1
0
LWPOLYLINE
5
105
100
AcDbEntity
8
0
100
AcDbPolyline
90
7
70
1
43
0.0
10
-739.98867611936089
20
-2160.4051882503163
10
-849.98867611936078
20
-2160.4051882503163
10
-849.98867611936078
20
-2332.4806762749013
10
-855.1964368869568
20
-2346.0927748562185
42
0.56642049264677985
10
-842.48958001604126
20
-2362.2866710201129
10
-771.49138780940257
20
-2353.3472152621225
42
0.37798616454255313
10
-739.98867611936078
20
-2317.6292310264871
0
LINE
5
106
100
AcDbEntity
8
1
100
AcDbLine
10
-739.98867611936078
20
-2185.9051882503163
30
-1.4604711954277287e-28
11
-849.98867611936078
21
-2185.9051882503172
31
-1.4604711954277287e-28
0
LINE
5
107
100
AcDbEntity
8
1
100
AcDbLine
10
-849.98867611936078
20
-2185.9051882503172
30
-1.4604711954277287e-28
11
-849.98867611936066
21
-2213.5549701403279
31
-1.5766661891171003e-30
0
LINE
5
108
100
AcDbEntity
8
1
100
AcDbLine
10
-849.98867611936066
20
-2213.5549701403279
30
-1.5766661891171003e-30
11
-739.98867611936066
21
-2213.554970140327
31
-1.5766661891171003e-30
0
LINE
5
109
100
AcDbEntity
8
1
100
AcDbLine
10
-739.98867611936066
20
-2213.554970140327
30
-1.5766661891171003e-30
11
-739.98867611936078
21
-2185.9051882503163
31
-1.4604711954277287e-28
0
LINE
5
110
100
AcDbEntity
8
0
100
AcDbLine
10
-768.85867934277996
20
-2185.905187840332
30
-1.4604712168494736e-28
11
-767.29868035367474
21
-2185.905187840332
31
-1.4604712168494736e-28
0
LINE
5
111
100
AcDbEntity
8
0
100
AcDbLine
10
-767.29868035367474
20
-2185.905187840332
30
-1.4604712168494736e-28
11
-767.29868035367474
21
-2189.415188546051
31
-1.2770732445818968e-28
0
LINE
5
112
100
AcDbEntity
8
0
100
AcDbLine
10
-767.29868035367474
20
-2189.415188546051
30
-1.2770732445818973e-28
11
-768.85867934277996
21
-2189.415188546051
31
-1.2770732445818973e-28
0
LINE
5
113
100
AcDbEntity
8
0
100
AcDbLine
10
-767.29868035367474
20
-2187.85518717276
30
-1.3585835098448217e-28
11
-768.46867899945721
21
-2187.85518717276
31
-1.3585835098448217e-28
0
LINE
5
114
100
AcDbEntity
8
0
100
AcDbLine
10
-771.68618063977704
20
-2187.4651868294372
30
-1.3789610761605529e-28
11
-770.51617960980877
21
-2187.4651868294372
31
-1.3789610761605529e-28
0
LINE
5
115
100
AcDbEntity
8
0
100
AcDbLine
10
-769.73617892316327
20
-2188.2451875160828
30
-1.3382059435290904e-28
11
-769.73617892316327
21
-2188.4401876877441
31
-1.3280171603712251e-28
0
LINE
5
116
100
AcDbEntity
8
0
100
AcDbLine
10
-771.68618063977704
20
-2188.4401876877441
30
-1.3280171603712251e-28
11
-771.68618063977704
21
-2187.4651868294372
31
-1.3789610761605529e-28
0
ARC
5
117
100
AcDbEntity
8
0
100
AcDbCircle
10
-770.42254309705243
20
-2188.1515510033264
30
-1.3430984629356367e-28
40
0.69272071123123169
210
-4.0501032089315764e-44
220
5.2250124043781063e-30
230
1
100
AcDbArc
50
-7.7686111718909192
51
97.768603203700096
0
ARC
5
118
100
AcDbEntity
8
0
100
AcDbCircle
10
-770.71117978147015
20
-2188.4401876877441
30
-1.3280171603712251e-28
40
0.97499996423721313
210
-4.0501032089315764e-44
220
5.2250124043781063e-30
230
1
100
AcDbArc
50
-180
51
4.9783130603797136e-06
0
ARC
5
119
100
AcDbEntity
8
0
100
AcDbCircle
10
-770.31345467618451
20
-2187.2779138039245
30
-1.3887461149736452e-28
40
1.3854414224624634
210
-4.0501032089315764e-44
220
5.2250124043781063e-30
230
1
100
AcDbArc
50
82.231370842030969
51
187.76861618084214
0
LINE
5
120
100
AcDbEntity
8
0
100
AcDbLine
10
-772.85617928555951
20
-2185.905187840332
30
-1.4604712168494736e-28
11
-772.66117911389813
21
-2185.905187840332
31
-1.4604712168494736e-28
0
LINE
5
121
100
AcDbEntity
8
0
100
AcDbLine
10
-772.66117911389813
20
-2185.905187840332
30
-1.4604712168494736e-28
11
-772.66117911389813
21
-2186.1001880119934
31
-1.4502824336916083e-28
0
LINE
5
122
100
AcDbEntity
8
0
100
AcDbLine
10
-772.66117911389813
20
-2186.1001880119934
30
-1.4502824336916083e-28
11
-772.85617928555951
21
-2186.1001880119934
31
-1.4502824336916083e-28
0
LINE
5
123
100
AcDbEntity
8
0
100
AcDbLine
10
-772.85617928555951
20
-2186.1001880119934
30
-1.4502824336916083e-28
11
-772.85617928555951
21
-2185.905187840332
31
-1.4604712168494736e-28
0
LINE
5
124
100
AcDbEntity
8
0
100
AcDbLine
10
-772.85617928555951
20
-2185.905187840332
30
-1.4604712168494736e-28
11
-772.56368022016034
21
-2185.1251871536865
31
-1.5012263494809356e-28
0
LINE
5
125
100
AcDbEntity
8
0
100
AcDbLine
10
-775.4886804108952
20
-2185.905187840332
30
-1.4604712168494736e-28
11
-775.4886804108952
21
-2188.2451875160828
31
-1.3382059435290904e-28
0
LINE
5
126
100
AcDbEntity
8
0
100
AcDbLine
10
-775.4886804108952
20
-2188.2451875160828
30
-1.3382059435290904e-28
11
-776.65867905667767
21
-2188.2451875160828
31
-1.3382059435290904e-28
0
LINE
5
127
100
AcDbEntity
8
0
100
AcDbLine
10
-776.65867905667767
20
-2188.2451875160828
30
-1.3382059435290904e-28
11
-776.65867905667767
21
-2187.85518717276
31
-1.3585835098448217e-28
0
LINE
5
128
100
AcDbEntity
8
0
100
AcDbLine
10
-778.99868111661419
20
-2185.905187840332
30
-1.4604712168494736e-28
11
-778.02368025830731
21
-2185.905187840332
31
-1.4604712168494736e-28
0
LINE
5
129
100
AcDbEntity
8
0
100
AcDbLine
10
-777.43867974332318
20
-2186.4901883553161
30
-1.4299048673758769e-28
11
-777.43867974332318
21
-2187.4651868294372
31
-1.3789610761605524e-28
0
LINE
5
130
100
AcDbEntity
8
0
100
AcDbLine
10
-778.99868111661419
20
-2187.4651868294372
30
-1.3789610761605529e-28
11
-778.99868111661419
21
-2187.0751888703003
31
-1.3993385179022807e-28
0
LINE
5
131
100
AcDbEntity
8
0
100
AcDbLine
10
-778.99868111661419
20
-2187.0751888703003
30
-1.3993385179022805e-28
11
-777.43867974332318
21
-2187.0751888703003
31
-1.3993385179022805e-28
0
ARC
5
132
100
AcDbEntity
8
0
100
AcDbCircle
10
-777.95345168164715
20
-2186.419959778656
30
-1.4335743192177883e-28
40
0.51954049617052078
210
-4.0501032089315764e-44
220
5.2250124043781063e-30
230
1
100
AcDbArc
50
-7.7686111718848121
51
97.768603203705453
0
ARC
5
133
100
AcDbEntity
8
0
100
AcDbCircle
10
-778.21868042996869
20
-2187.4651868294372
30
-1.3789610761605529e-28
40
0.78000001609325409
210
-4.0501032089315764e-44
220
5.2250124043781063e-30
230
1
100
AcDbArc
50
-180
51
4.9783130603797136e-06
0
LINE
5
134
100
AcDbEntity
8
0
100
AcDbLine
10
-781.5336809640263
20
-2187.2701866577759
30
-1.3891498593184182e-28
11
-780.656181383643
21
-2187.2701866577759
31
-1.3891498593184182e-28
0
LINE
5
135
100
AcDbEntity
8
0
100
AcDbLine
10
-780.656181383643
20
-2185.905187840332
30
-1.4604712168494736e-28
11
-781.5336809640263
21
-2185.905187840332
31
-1.4604712168494736e-28
0
LINE
5
136
100
AcDbEntity
8
0
100
AcDbLine
10
-781.5336809640263
20
-2185.905187840332
30
-1.4604712168494736e-28
11
-781.5336809640263
21
-2187.6601870010986
31
-1.3687722930026871e-28
0
LINE
5
137
100
AcDbEntity
8
0
100
AcDbLine
10
-780.94867806485638
20
-2188.2451875160828
30
-1.3382059435290904e-28
11
-780.16868214658246
21
-2188.2451875160828
31
-1.3382059435290904e-28
0
ARC
5
138
100
AcDbEntity
8
0
100
AcDbCircle
10
-780.656181383643
20
-2186.5876872490539
30
-1.4248105380839461e-28
40
0.68249993026256561
210
-4.0501032089315764e-44
220
5.2250124043781063e-30
230
1
100
AcDbArc
50
-89.999997495522095
51
90.000000683245062
0
ARC
5
139
100
AcDbEntity
8
0
100
AcDbCircle
10
-781.01890664151654
20
-2187.7304155777588
30
-1.3651028411607757e-28
40
0.51954049617052067
210
-4.0501032089315764e-44
220
5.2250124043781063e-30
230
1
100
AcDbArc
50
172.23138017667449
51
277.76861868531677
0
LINE
5
140
100
AcDbEntity
8
0
100
AcDbLine
10
-782.70367722562298
20
-2185.905187840332
30
-1.4604712168494736e-28
11
-782.70367722562298
21
-2188.2451875160828
31
-1.3382059435290904e-28
0
LINE
5
141
100
AcDbEntity
8
0
100
AcDbLine
10
-782.70367722562298
20
-2188.2451875160828
30
-1.3382059435290904e-28
11
-783.87367825559124
21
-2188.2451875160828
31
-1.3382059435290904e-28
0
LINE
5
142
100
AcDbEntity
8
0
100
AcDbLine
10
-783.87367825559124
20
-2188.2451875160828
30
-1.3382059435290904e-28
11
-783.87367825559124
21
-2187.85518717276
31
-1.3585835098448217e-28
0
LINE
5
143
100
AcDbEntity
8
0
100
AcDbLine
10
-786.31117920926556
20
-2184.7351868103638
30
-1.5216039157966672e-28
11
-786.31117920926556
21
-2188.2451875160828
31
-1.3382059435290906e-28
0
LINE
5
144
100
AcDbEntity
8
0
100
AcDbLine
10
-786.31117920926556
20
-2188.2451875160828
30
-1.3382059435290904e-28
11
-787.28618245175824
21
-2188.2451875160828
31
-1.3382059435290904e-28
0
LINE
5
145
100
AcDbEntity
8
0
100
AcDbLine
10
-787.87118058255658
20
-2187.6601870010986
30
-1.3687722930026871e-28
11
-787.87118058255658
21
-2186.4901883553161
31
-1.4299048673758769e-28
0
LINE
5
146
100
AcDbEntity
8
0
100
AcDbLine
10
-787.28618245175824
20
-2185.905187840332
30
-1.4604712168494736e-28
11
-786.31117920926556
21
-2185.905187840332
31
-1.4604712168494736e-28
0
ARC
5
147
100
AcDbEntity
8
0
100
AcDbCircle
10
-787.35641102841839
20
-2187.7304155777588
30
-1.3651028411607757e-28
40
0.51954049617052067
210
-4.0501032089315764e-44
220
5.2250124043781063e-30
230
1
100
AcDbArc
50
172.23138017667449
51
277.76861868531677
0
ARC
5
148
100
AcDbEntity
8
0
100
AcDbCircle
10
-787.35641102841839
20
-2186.419959778656
30
-1.4335743192177883e-28
40
0.51954049617052067
210
-4.0501032089315764e-44
220
5.2250124043781063e-30
230
1
100
AcDbArc
50
82.231370842023892
51
187.76861618083007
0
LINE
5
149
100
AcDbEntity
8
0
100
AcDbLine
10
-790.4061756615971
20
-2185.905187840332
30
-1.4604712168494736e-28
11
-789.43117718747601
21
-2185.905187840332
31
-1.4604712168494736e-28
0
LINE
5
150
100
AcDbEntity
8
0
100
AcDbLine
10
-788.84617428830609
20
-2186.4901883553161
30
-1.4299048673758769e-28
11
-788.84617428830609
21
-2187.4651868294372
31
-1.3789610761605524e-28
0
LINE
5
151
100
AcDbEntity
8
0
100
AcDbLine
10
-790.4061756615971
20
-2187.4651868294372
30
-1.3789610761605529e-28
11
-790.4061756615971
21
-2187.0751888703003
31
-1.3993385179022807e-28
0
LINE
5
152
100
AcDbEntity
8
0
100
AcDbLine
10
-790.4061756615971
20
-2187.0751888703003
30
-1.3993385179022805e-28
11
-788.84617428830609
21
-2187.0751888703003
31
-1.3993385179022805e-28
0
ARC
5
153
100
AcDbEntity
8
0
100
AcDbCircle
10
-789.36094861081585
20
-2186.419959778656
30
-1.4335743192177883e-28
40
0.51954049617052067
210
-4.0501032089315764e-44
220
5.2250124043781063e-30
230
1
100
AcDbArc
50
-7.7686111718848121
51
97.768603203705453
0
ARC
5
154
100
AcDbEntity
8
0
100
AcDbCircle
10
-789.6261749749516
20
-2187.4651868294372
30
-1.3789610761605529e-28
40
0.78000001609325409
210
-4.0501032089315764e-44
220
5.2250124043781063e-30
230
1
100
AcDbArc
50
-180
51
4.9783130603797136e-06
0
LINE
5
155
100
AcDbEntity
8
0
100
AcDbLine
10
-792.94117550900921
20
-2189.415188546051
30
-1.2770732445818973e-28
11
-792.94117550900921
21
-2185.905187840332
31
-1.4604712168494736e-28
0
LINE
5
156
100
AcDbEntity
8
0
100
AcDbLine
10
-792.94117550900921
20
-2185.905187840332
30
-1.4604712168494736e-28
11
-791.96617703488812
21
-2185.905187840332
31
-1.4604712168494736e-28
0
LINE
5
157
100
AcDbEntity
8
0
100
AcDbLine
10
-791.3811741357182
20
-2186.4901883553161
30
-1.4299048673758769e-28
11
-791.3811741357182
21
-2187.6601870010986
31
-1.3687722930026871e-28
0
LINE
5
158
100
AcDbEntity
8
0
100
AcDbLine
10
-791.96617703488812
20
-2188.2451875160828
30
-1.3382059435290904e-28
11
-792.94117550900921
21
-2188.2451875160828
31
-1.3382059435290904e-28
0
ARC
5
159
100
AcDbEntity
8
0
100
AcDbCircle
10
-791.89594845822796
20
-2186.419959778656
30
-1.4335743192177883e-28
40
0.51954049617052067
210
-4.0501032089315764e-44
220
5.2250124043781063e-30
230
1
100
AcDbArc
50
-7.7686111718848121
51
97.768603203705453
0
ARC
5
160
100
AcDbEntity
8
0
100
AcDbCircle
10
-791.89594845822796
20
-2187.7304155777588
30
-1.3651028411607757e-28
40
0.51954049617052067
210
-4.0501032089315764e-44
220
5.2250124043781063e-30
230
1
100
AcDbArc
50
-97.768613676352331
51
7.7686211897735014
0
LINE
5
161
100
AcDbEntity
8
0
100
AcDbLine
10
-795.5736790185307
20
-2187.2701866577763
30
-1.3891498593184182e-28
11
-794.6961794381474
21
-2187.2701866577763
31
-1.3891498593184182e-28
0
LINE
5
162
100
AcDbEntity
8
0
100
AcDbLine
10
-794.6961794381474
20
-2185.905187840332
30
-1.4604712168494736e-28
11
-795.5736790185307
21
-2185.905187840332
31
-1.4604712168494736e-28
0
LINE
5
163
100
AcDbEntity
8
0
100
AcDbLine
10
-795.5736790185307
20
-2185.9051878403325
30
-1.4604712168494736e-28
11
-795.5736790185307
21
-2187.6601870010991
31
-1.3687722930026871e-28
0
LINE
5
164
100
AcDbEntity
8
0
100
AcDbLine
10
-794.98867611936078
20
-2188.2451875160832
30
-1.3382059435290904e-28
11
-794.20868020108685
21
-2188.2451875160832
31
-1.3382059435290904e-28
0
ARC
5
165
100
AcDbEntity
8
0
100
AcDbCircle
10
-794.6961794381474
20
-2186.5876872490539
30
-1.4248105380839461e-28
40
0.68249993026256561
210
-4.0501032089315764e-44
220
5.2250124043781063e-30
230
1
100
AcDbArc
50
-89.999997495522095
51
90.000000683245062
0
ARC
5
166
100
AcDbEntity
8
0
100
AcDbCircle
10
-795.05890469602093
20
-2187.7304155777592
30
-1.3651028411607757e-28
40
0.51954049617052067
210
-4.0501032089315764e-44
220
5.2250124043781063e-30
230
1
100
AcDbArc
50
172.23138017667449
51
277.76861868531677
0
LINE
5
167
100
AcDbEntity
8
0
100
AcDbLine
10
-796.74367051175579
20
-2189.4151885460515
30
-1.2770732445818973e-28
11
-796.74367051175579
21
-2186.4901883553166
31
-1.4299048673758769e-28
0
ARC
5
168
100
AcDbEntity
8
0
100
AcDbCircle
10
-797.25844483426556
20
-2186.4199597786564
30
-1.4335743192177883e-28
40
0.51954049617052067
210
-4.0501032089315764e-44
220
5.2250124043781063e-30
230
1
100
AcDbArc
50
-7.7686111718848121
51
97.768603203705453
0
LINE
5
169
100
AcDbEntity
8
0
100
AcDbLine
10
-798.40117554715619
20
-2185.9051878403325
30
-1.4604712168494736e-28
11
-798.20617299130902
21
-2185.9051878403325
31
-1.4604712168494736e-28
0
LINE
5
170
100
AcDbEntity
8
0
100
AcDbLine
10
-798.20617299130902
20
-2185.9051878403325
30
-1.4604712168494736e-28
11
-798.20617299130902
21
-2186.1001880119939
31
-1.4502824336916083e-28
0
LINE
5
171
100
AcDbEntity
8
0
100
AcDbLine
10
-798.20617299130902
20
-2186.1001880119939
30
-1.4502824336916083e-28
11
-798.40117554715619
21
-2186.1001880119939
31
-1.4502824336916083e-28
0
LINE
5
172
100
AcDbEntity
8
0
100
AcDbLine
10
-798.40117554715619
20
-2186.1001880119939
30
-1.4502824336916083e-28
11
-798.40117554715619
21
-2185.9051878403325
31
-1.4604712168494736e-28
0
LINE
5
173
100
AcDbEntity
8
0
100
AcDbLine
10
-798.40117554715619
20
-2185.9051878403325
30
-1.4604712168494736e-28
11
-798.10867409757122
21
-2185.125187153687
31
-1.5012263494809356e-28
0
LINE
5
174
100
AcDbEntity
8
0
100
AcDbLine
10
-802.59367089322552
20
-2187.8551871727605
30
-1.3585835098448217e-28
11
-800.93617062619671
21
-2185.9051878403325
31
-1.4604712168494738e-28
0
LINE
5
175
100
AcDbEntity
8
0
100
AcDbLine
10
-800.93617062619671
20
-2185.9051878403325
30
-1.4604712168494736e-28
11
-802.88617234281048
21
-2185.9051878403325
31
-1.4604712168494736e-28
0
ARC
5
176
100
AcDbEntity
8
0
100
AcDbCircle
10
-802.11401085904583
20
-2188.6430294464726
30
-1.317418653316427e-28
40
0.77931083738803864
210
-4.0501032089315764e-44
220
5.2250124043781063e-30
230
1
100
AcDbArc
50
172.23138017667239
51
277.76861868531256
0
ARC
5
177
100
AcDbEntity
8
0
100
AcDbCircle
10
-801.89095120480999
20
-2188.4497101257939
30
-1.327519611801949e-28
40
0.97262687981128693
210
-4.0501032089315764e-44
220
5.2250124043781063e-30
230
1
100
AcDbArc
50
263.04817449553758
51
349.0065696530126
0
ARC
5
178
100
AcDbEntity
8
0
100
AcDbCircle
10
-802.10574727109417
20
-2188.4682280968327
30
-1.3265520455181316e-28
40
0.78351080417633057
210
-4.0501032089315764e-44
220
5.2250124043781063e-30
230
1
100
AcDbArc
50
128.51672148849573
51
185.08610292676204
0
LINE
5
179
100
AcDbEntity
8
0
100
AcDbLine
10
-805.3236732964848
20
-2185.9051878403325
30
-1.4604712168494736e-28
11
-806.88367466977581
21
-2188.2451875160832
31
-1.3382059435290904e-28
0
LINE
5
180
100
AcDbEntity
8
0
100
AcDbLine
10
-805.3236732964848
20
-2188.2451875160832
30
-1.3382059435290904e-28
11
-806.88367466977581
21
-2185.9051878403325
31
-1.4604712168494736e-28
0
LINE
5
181
100
AcDbEntity
8
0
100
AcDbLine
10
-809.32117085507855
20
-2188.635187859406
30
-1.3178283772133593e-28
11
-810.29616932919964
21
-2189.4151885460515
31
-1.2770732445818973e-28
0
LINE
5
182
100
AcDbEntity
8
0
100
AcDbLine
10
-810.29616932919964
20
-2189.4151885460515
30
-1.2770732445818973e-28
11
-810.29616932919964
21
-2185.9051878403325
31
-1.4604712168494736e-28
0
LINE
5
183
100
AcDbEntity
8
0
100
AcDbLine
10
-809.32117085507855
20
-2185.9051878403325
30
-1.4604712168494736e-28
11
-811.27117257169232
21
-2185.9051878403325
31
-1.4604712168494736e-28
0
LINE
5
184
100
AcDbEntity
8
0
100
AcDbLine
10
-813.9036760812138
20
-2187.8551871727605
30
-1.3585835098448217e-28
11
-812.24617581418499
21
-2185.9051878403325
31
-1.4604712168494738e-28
0
LINE
5
185
100
AcDbEntity
8
0
100
AcDbLine
10
-812.24617581418499
20
-2185.9051878403325
30
-1.4604712168494736e-28
11
-814.19617753079876
21
-2185.9051878403325
31
-1.4604712168494736e-28
0
ARC
5
186
100
AcDbEntity
8
0
100
AcDbCircle
10
-813.42401604703412
20
-2188.6430294464726
30
-1.317418653316427e-28
40
0.77931083738803864
210
-4.0501032089315764e-44
220
5.2250124043781063e-30
230
1
100
AcDbArc
50
172.23138017667239
51
277.76861868531256
0
ARC
5
187
100
AcDbEntity
8
0
100
AcDbCircle
10
-813.20095639279828
20
-2188.4497101257939
30
-1.327519611801949e-28
40
0.97262687981128693
210
-4.0501032089315764e-44
220
5.2250124043781063e-30
230
1
100
AcDbArc
50
263.04817449553758
51
349.0065696530126
0
ARC
5
188
100
AcDbEntity
8
0
100
AcDbCircle
10
-813.41575245908246
20
-2188.4682280968327
30
-1.3265520455181316e-28
40
0.78351080417633057
210
-4.0501032089315764e-44
220
5.2250124043781063e-30
230
1
100
AcDbArc
50
128.51672148849573
51
185.08610292676204
0
LINE
5
189
100
AcDbEntity
8
0
100
AcDbLine
10
-816.82867150357708
20
-2185.9051878403325
30
-1.4604712168494736e-28
11
-816.82867150357708
21
-2188.2451875160832
31
-1.3382059435290904e-28
0
LINE
5
190
100
AcDbEntity
8
0
100
AcDbLine
10
-816.82867150357708
20
-2188.2451875160832
30
-1.3382059435290904e-28
11
-818.58367543271527
21
-2188.2451875160832
31
-1.3382059435290904e-28
0
LINE
5
191
100
AcDbEntity
8
0
100
AcDbLine
10
-819.16867356351361
20
-2187.6601870010991
30
-1.3687722930026871e-28
11
-819.16867356351361
21
-2185.9051878403325
31
-1.4604712168494736e-28
0
LINE
5
192
100
AcDbEntity
8
0
100
AcDbLine
10
-817.99867253354535
20
-2185.9051878403325
30
-1.4604712168494736e-28
11
-817.99867253354535
21
-2188.2451875160832
31
-1.3382059435290904e-28
0
ARC
5
193
100
AcDbEntity
8
0
100
AcDbCircle
10
-818.65389924100384
20
-2187.7304155777592
30
-1.3651028411607757e-28
40
0.51954049617052067
210
-4.0501032089315764e-44
220
5.2250124043781063e-30
230
1
100
AcDbArc
50
172.23138017667449
51
277.76861868531677
0
LINE
5
194
100
AcDbEntity
8
0
100
AcDbLine
10
-820.33867459348187
20
-2185.9051878403325
30
-1.4604712168494736e-28
11
-820.33867459348187
21
-2188.2451875160832
31
-1.3382059435290904e-28
0
LINE
5
195
100
AcDbEntity
8
0
100
AcDbLine
10
-820.33867459348187
20
-2188.2451875160832
30
-1.3382059435290904e-28
11
-822.09367375424847
21
-2188.2451875160832
31
-1.3382059435290904e-28
0
LINE
5
196
100
AcDbEntity
8
0
100
AcDbLine
10
-822.67866711667523
20
-2187.6601870010991
30
-1.3687722930026871e-28
11
-822.67866711667523
21
-2185.9051878403325
31
-1.4604712168494736e-28
0
LINE
5
197
100
AcDbEntity
8
0
100
AcDbLine
10
-821.50867085507855
20
-2185.9051878403325
30
-1.4604712168494736e-28
11
-821.50867085507855
21
-2188.2451875160832
31
-1.3382059435290904e-28
0
ARC
5
198
100
AcDbEntity
8
0
100
AcDbCircle
10
-822.16390233090863
20
-2187.7304155777592
30
-1.3651028411607757e-28
40
0.51954049617052067
210
-4.0501032089315764e-44
220
5.2250124043781063e-30
230
1
100
AcDbArc
50
172.23138017667449
51
277.76861868531677
0
ENDSEC
0
SECTION
2
OBJECTS
0
DICTIONARY
5
C
100
AcDbDictionary
3
ACAD_GROUP
350
D
3
ACAD_MLINESTYLE
350
17
0
DICTIONARY
5
D
100
AcDbDictionary
0
DICTIONARY
5
1A
330
C
100
AcDbDictionary
0
DICTIONARY
5
17
100
AcDbDictionary
0
ENDSEC
0
EOF
